<?xml version="1.0" encoding="UTF-8" standalone="no"?>
<!DOCTYPE svg PUBLIC "-//W3C//DTD SVG 1.1//EN"
 "http://www.w3.org/Graphics/SVG/1.1/DTD/svg11.dtd">
<!-- Generated by graphviz version 2.43.0 (0)
 -->
<!-- Title: include/monte_carlo/models/action.h Pages: 1 -->
<!--zoomable 511 -->

<svg id="main" version="1.1" xmlns="http://www.w3.org/2000/svg" xmlns:xlink="http://www.w3.org/1999/xlink" xml:space="preserve" onload="init(evt)">
<style type="text/css"><![CDATA[
.node, .edge {opacity: 0.7;}
.node.selected, .edge.selected {opacity: 1;}
.edge:hover path { stroke: red; }
.edge:hover polygon { stroke: red; fill: red; }
]]></style>

<defs>
  <circle id="rim" cx="0" cy="0" r="7"/>
  <circle id="rim2" cx="0" cy="0" r="3.5"/>
  <g id="zoomPlus">
    <use xlink:href="#rim" fill="#404040"><set attributeName="fill" to="#808080" begin="zoomplus.mouseover" end="zoomplus.mouseout"/></use>
    <path d="M-4,0h8M0,-4v8" fill="none" stroke="white" stroke-width="1.5" pointer-events="none"/>
  </g>
  <g id="zoomMin">
    <use xlink:href="#rim" fill="#404040"><set attributeName="fill" to="#808080" begin="zoomminus.mouseover" end="zoomminus.mouseout"/></use>
    <path d="M-4,0h8" fill="none" stroke="white" stroke-width="1.5" pointer-events="none"/>
  </g>
  <g id="arrowUp" transform="translate(30 24)">
    <use xlink:href="#rim"/>
    <path pointer-events="none" fill="none" stroke="white" stroke-width="1.5" d="M0,-3.0v7 M-2.5,-0.5L0,-3.0L2.5,-0.5"/>
  </g>
  <g id="arrowRight" transform="rotate(90) translate(36 -43)">
    <use xlink:href="#rim"/>
    <path pointer-events="none" fill="none" stroke="white" stroke-width="1.5" d="M0,-3.0v7 M-2.5,-0.5L0,-3.0L2.5,-0.5"/>
  </g>
  <g id="arrowDown" transform="rotate(180) translate(-30 -48)">
    <use xlink:href="#rim"/>
    <path pointer-events="none" fill="none" stroke="white" stroke-width="1.5" d="M0,-3.0v7 M-2.5,-0.5L0,-3.0L2.5,-0.5"/>
  </g>
  <g id="arrowLeft" transform="rotate(270) translate(-36 17)">
    <use xlink:href="#rim"/>
    <path pointer-events="none" fill="none" stroke="white" stroke-width="1.5" d="M0,-3.0v7 M-2.5,-0.5L0,-3.0L2.5,-0.5"/>
  </g>
  <g id="resetDef">
    <use xlink:href="#rim2" fill="#404040"><set attributeName="fill" to="#808080" begin="reset.mouseover" end="reset.mouseout"/></use>
  </g>
</defs>
<script type="application/ecmascript">
var viewWidth = 1379;
var viewHeight = 511;
var sectionId = 'dynsection-1';
</script>
<script type="application/ecmascript" xlink:href="svg.min.js"/>
<svg id="graph" class="graph">
<g id="viewport">
<title>include/monte_carlo/models/action.h</title>
<!-- Node1 -->
<g id="Node000001" class="node">
<title>Node1</title>
<g id="a_Node000001"><a xlink:title=" ">
<polygon fill="#999999" stroke="#666666" points="500,-503 384,-503 384,-473 500,-473 500,-503"/>
<text text-anchor="start" x="392" y="-491" font-family="Helvetica,sans-Serif" font-size="10.00">include/monte_carlo</text>
<text text-anchor="middle" x="442" y="-480" font-family="Helvetica,sans-Serif" font-size="10.00">/models/action.h</text>
</a>
</g>
</g>
<!-- Node2 -->
<g id="Node000002" class="node">
<title>Node2</title>
<g id="a_Node000002"><a xlink:href="tic__tac__toe__factory_8cpp.html" target="_top" xlink:title=" ">
<polygon fill="white" stroke="#666666" points="358,-41 222,-41 222,0 358,0 358,-41"/>
<text text-anchor="start" x="230" y="-29" font-family="Helvetica,sans-Serif" font-size="10.00">examples/monte_carlo</text>
<text text-anchor="start" x="230" y="-18" font-family="Helvetica,sans-Serif" font-size="10.00">/tic_tac_toe/src/factories</text>
<text text-anchor="middle" x="290" y="-7" font-family="Helvetica,sans-Serif" font-size="10.00">/tic_tac_toe_factory.cpp</text>
</a>
</g>
</g>
<!-- Node1&#45;&gt;Node2 -->
<g id="edge1_Node000001_Node000002" class="edge">
<title>Node1&#45;&gt;Node2</title>
<g id="a_edge1_Node000001_Node000002"><a xlink:title=" ">
<path fill="none" stroke="#63b8ff" d="M373.6,-478.75C249.51,-461.87 0,-418.25 0,-340.5 0,-340.5 0,-340.5 0,-179 0,-126.85 16.22,-108.21 58,-77 114.31,-34.93 143.68,-57.52 212,-41 215.26,-40.21 218.59,-39.4 221.95,-38.58"/>
<polygon fill="#63b8ff" stroke="#63b8ff" points="373.39,-482.25 383.76,-480.11 374.31,-475.32 373.39,-482.25"/>
</a>
</g>
</g>
<!-- Node3 -->
<g id="Node000003" class="node">
<title>Node3</title>
<g id="a_Node000003"><a xlink:href="human_8cpp.html" target="_top" xlink:title=" ">
<polygon fill="white" stroke="#666666" points="409.5,-283 280.5,-283 280.5,-242 409.5,-242 409.5,-283"/>
<text text-anchor="start" x="288.5" y="-271" font-family="Helvetica,sans-Serif" font-size="10.00">examples/monte_carlo</text>
<text text-anchor="start" x="288.5" y="-260" font-family="Helvetica,sans-Serif" font-size="10.00">/tic_tac_toe/src/models</text>
<text text-anchor="middle" x="345" y="-249" font-family="Helvetica,sans-Serif" font-size="10.00">/human.cpp</text>
</a>
</g>
</g>
<!-- Node1&#45;&gt;Node3 -->
<g id="edge2_Node000001_Node000003" class="edge">
<title>Node1&#45;&gt;Node3</title>
<g id="a_edge2_Node000001_Node000003"><a xlink:title=" ">
<path fill="none" stroke="#63b8ff" d="M398.43,-467.83C385.65,-460.09 372.98,-449.88 365,-437 334.89,-388.42 338.28,-317.31 342.16,-283.19"/>
<polygon fill="#63b8ff" stroke="#63b8ff" points="396.81,-470.94 407.24,-472.8 400.25,-464.84 396.81,-470.94"/>
</a>
</g>
</g>
<!-- Node4 -->
<g id="Node000004" class="node">
<title>Node4</title>
<g id="a_Node000004"><a xlink:href="action__base_8h.html" target="_top" xlink:title=" ">
<polygon fill="white" stroke="#666666" points="206,-195 80,-195 80,-165 206,-165 206,-195"/>
<text text-anchor="start" x="88" y="-183" font-family="Helvetica,sans-Serif" font-size="10.00">include/monte_carlo</text>
<text text-anchor="middle" x="143" y="-172" font-family="Helvetica,sans-Serif" font-size="10.00">/models/action_base.h</text>
</a>
</g>
</g>
<!-- Node1&#45;&gt;Node4 -->
<g id="edge3_Node000001_Node000004" class="edge">
<title>Node1&#45;&gt;Node4</title>
<g id="a_edge3_Node000001_Node000004"><a xlink:title=" ">
<path fill="none" stroke="#63b8ff" d="M374.06,-474.62C281.79,-453.64 121.04,-401.25 57,-283 48.32,-266.98 48.64,-258.19 57,-242 68.01,-220.7 90.27,-205.22 109.38,-195.19"/>
<polygon fill="#63b8ff" stroke="#63b8ff" points="373.34,-478.05 383.86,-476.79 374.86,-471.21 373.34,-478.05"/>
</a>
</g>
</g>
<!-- Node7 -->
<g id="Node000007" class="node">
<title>Node7</title>
<g id="a_Node000007"><a xlink:href="rollout__strategy__interface_8h.html" target="_top" xlink:title=" ">
<polygon fill="white" stroke="#666666" points="510,-437 374,-437 374,-396 510,-396 510,-437"/>
<text text-anchor="start" x="382" y="-425" font-family="Helvetica,sans-Serif" font-size="10.00">include/monte_carlo</text>
<text text-anchor="start" x="382" y="-414" font-family="Helvetica,sans-Serif" font-size="10.00">/models/rollout_strategy</text>
<text text-anchor="middle" x="442" y="-403" font-family="Helvetica,sans-Serif" font-size="10.00">_interface.h</text>
</a>
</g>
</g>
<!-- Node1&#45;&gt;Node7 -->
<g id="edge7_Node000001_Node000007" class="edge">
<title>Node1&#45;&gt;Node7</title>
<g id="a_edge7_Node000001_Node000007"><a xlink:title=" ">
<path fill="none" stroke="#63b8ff" d="M442,-462.91C442,-454.47 442,-445.1 442,-437.07"/>
<polygon fill="#63b8ff" stroke="#63b8ff" points="438.5,-462.94 442,-472.94 445.5,-462.94 438.5,-462.94"/>
</a>
</g>
</g>
<!-- Node20 -->
<g id="Node000020" class="node">
<title>Node20</title>
<g id="a_Node000020"><a xlink:href="tree__search__algorithm_8cpp.html" target="_top" xlink:title=" ">
<polygon fill="white" stroke="#666666" points="1288.5,-195 1161.5,-195 1161.5,-165 1288.5,-165 1288.5,-195"/>
<text text-anchor="start" x="1169.5" y="-183" font-family="Helvetica,sans-Serif" font-size="10.00">src/monte_carlo/tree</text>
<text text-anchor="middle" x="1225" y="-172" font-family="Helvetica,sans-Serif" font-size="10.00">_search_algorithm.cpp</text>
</a>
</g>
</g>
<!-- Node1&#45;&gt;Node20 -->
<g id="edge44_Node000001_Node000020" class="edge">
<title>Node1&#45;&gt;Node20</title>
<g id="a_edge44_Node000001_Node000020"><a xlink:title=" ">
<path fill="none" stroke="#63b8ff" d="M510.23,-482.69C705.02,-468.8 1256.53,-418.03 1363,-283 1374.28,-268.69 1372.94,-257.27 1363,-242 1346.42,-216.54 1316.53,-201.63 1288.8,-192.93"/>
<polygon fill="#63b8ff" stroke="#63b8ff" points="509.85,-479.2 500.12,-483.4 510.34,-486.19 509.85,-479.2"/>
</a>
</g>
</g>
<!-- Node21 -->
<g id="Node000021" class="node">
<title>Node21</title>
<g id="a_Node000021"><a xlink:href="action_8cpp.html" target="_top" xlink:title=" ">
<polygon fill="white" stroke="#666666" points="1354,-277.5 1220,-277.5 1220,-247.5 1354,-247.5 1354,-277.5"/>
<text text-anchor="start" x="1228" y="-265.5" font-family="Helvetica,sans-Serif" font-size="10.00">src/monte_carlo/models</text>
<text text-anchor="middle" x="1287" y="-254.5" font-family="Helvetica,sans-Serif" font-size="10.00">/action.cpp</text>
</a>
</g>
</g>
<!-- Node1&#45;&gt;Node21 -->
<g id="edge42_Node000001_Node000021" class="edge">
<title>Node1&#45;&gt;Node21</title>
<g id="a_edge42_Node000001_Node000021"><a xlink:title=" ">
<path fill="none" stroke="#63b8ff" d="M504.88,-470.37C664.87,-428.05 1085.25,-316.86 1233.95,-277.53"/>
<polygon fill="#63b8ff" stroke="#63b8ff" points="503.95,-466.99 495.18,-472.93 505.74,-473.76 503.95,-466.99"/>
</a>
</g>
</g>
<!-- Node22 -->
<g id="Node000022" class="node">
<title>Node22</title>
<g id="a_Node000022"><a xlink:href="node_8cpp.html" target="_top" xlink:title=" ">
<polygon fill="white" stroke="#666666" points="562,-277.5 428,-277.5 428,-247.5 562,-247.5 562,-277.5"/>
<text text-anchor="start" x="436" y="-265.5" font-family="Helvetica,sans-Serif" font-size="10.00">src/monte_carlo/models</text>
<text text-anchor="middle" x="495" y="-254.5" font-family="Helvetica,sans-Serif" font-size="10.00">/node.cpp</text>
</a>
</g>
</g>
<!-- Node1&#45;&gt;Node22 -->
<g id="edge43_Node000001_Node000022" class="edge">
<title>Node1&#45;&gt;Node22</title>
<g id="a_edge43_Node000001_Node000022"><a xlink:title=" ">
<path fill="none" stroke="#63b8ff" d="M487.12,-467.95C499.72,-460.28 511.89,-450.09 519,-437 547.88,-383.82 517.36,-308.48 502.33,-277.56"/>
<polygon fill="#63b8ff" stroke="#63b8ff" points="485.39,-464.91 478.38,-472.86 488.82,-471.01 485.39,-464.91"/>
</a>
</g>
</g>
<!-- Node5 -->
<g id="Node000005" class="node">
<title>Node5</title>
<g id="a_Node000005"><a xlink:href="move_8h.html" target="_top" xlink:title=" ">
<polygon fill="white" stroke="#666666" points="219,-118 67,-118 67,-77 219,-77 219,-118"/>
<text text-anchor="start" x="75" y="-106" font-family="Helvetica,sans-Serif" font-size="10.00">examples/monte_carlo</text>
<text text-anchor="start" x="75" y="-95" font-family="Helvetica,sans-Serif" font-size="10.00">/tic_tac_toe/include</text>
<text text-anchor="middle" x="143" y="-84" font-family="Helvetica,sans-Serif" font-size="10.00">/tic_tac_toe/models/move.h</text>
</a>
</g>
</g>
<!-- Node4&#45;&gt;Node5 -->
<g id="edge4_Node000004_Node000005" class="edge">
<title>Node4&#45;&gt;Node5</title>
<g id="a_edge4_Node000004_Node000005"><a xlink:title=" ">
<path fill="none" stroke="#63b8ff" d="M143,-154.94C143,-143.17 143,-129.19 143,-118.09"/>
<polygon fill="#63b8ff" stroke="#63b8ff" points="139.5,-154.98 143,-164.98 146.5,-154.98 139.5,-154.98"/>
</a>
</g>
</g>
<!-- Node5&#45;&gt;Node2 -->
<g id="edge5_Node000005_Node000002" class="edge">
<title>Node5&#45;&gt;Node2</title>
<g id="a_edge5_Node000005_Node000002"><a xlink:title=" ">
<path fill="none" stroke="#63b8ff" d="M190.41,-72.31C210.23,-62.2 232.96,-50.6 251.7,-41.04"/>
<polygon fill="#63b8ff" stroke="#63b8ff" points="188.56,-69.33 181.24,-76.99 191.74,-75.56 188.56,-69.33"/>
</a>
</g>
</g>
<!-- Node6 -->
<g id="Node000006" class="node">
<title>Node6</title>
<g id="a_Node000006"><a xlink:href="move_8cpp.html" target="_top" xlink:title=" ">
<polygon fill="white" stroke="#666666" points="203.5,-41 74.5,-41 74.5,0 203.5,0 203.5,-41"/>
<text text-anchor="start" x="82.5" y="-29" font-family="Helvetica,sans-Serif" font-size="10.00">examples/monte_carlo</text>
<text text-anchor="start" x="82.5" y="-18" font-family="Helvetica,sans-Serif" font-size="10.00">/tic_tac_toe/src/models</text>
<text text-anchor="middle" x="139" y="-7" font-family="Helvetica,sans-Serif" font-size="10.00">/move.cpp</text>
</a>
</g>
</g>
<!-- Node5&#45;&gt;Node6 -->
<g id="edge6_Node000005_Node000006" class="edge">
<title>Node5&#45;&gt;Node6</title>
<g id="a_edge6_Node000005_Node000006"><a xlink:title=" ">
<path fill="none" stroke="#63b8ff" d="M141.41,-66.69C140.95,-58.08 140.46,-48.9 140.04,-41.07"/>
<polygon fill="#63b8ff" stroke="#63b8ff" points="137.92,-67 141.95,-76.79 144.91,-66.62 137.92,-67"/>
</a>
</g>
</g>
<!-- Node8 -->
<g id="Node000008" class="node">
<title>Node8</title>
<g id="a_Node000008"><a xlink:href="node_8h.html" target="_top" xlink:title=" ">
<polygon fill="white" stroke="#666666" points="824,-354.5 708,-354.5 708,-324.5 824,-324.5 824,-354.5"/>
<text text-anchor="start" x="716" y="-342.5" font-family="Helvetica,sans-Serif" font-size="10.00">include/monte_carlo</text>
<text text-anchor="middle" x="766" y="-331.5" font-family="Helvetica,sans-Serif" font-size="10.00">/models/node.h</text>
</a>
</g>
</g>
<!-- Node7&#45;&gt;Node8 -->
<g id="edge8_Node000007_Node000008" class="edge">
<title>Node7&#45;&gt;Node8</title>
<g id="a_edge8_Node000007_Node000008"><a xlink:title=" ">
<path fill="none" stroke="#63b8ff" d="M520.14,-397.41C577.94,-384.03 655.4,-366.1 707.81,-353.97"/>
<polygon fill="#63b8ff" stroke="#63b8ff" points="519.27,-394.02 510.32,-399.69 520.85,-400.84 519.27,-394.02"/>
</a>
</g>
</g>
<!-- Node7&#45;&gt;Node22 -->
<g id="edge41_Node000007_Node000022" class="edge">
<title>Node7&#45;&gt;Node22</title>
<g id="a_edge41_Node000007_Node000022"><a xlink:title=" ">
<path fill="none" stroke="#63b8ff" d="M452.12,-386.48C463.49,-353.86 481.49,-302.26 490.09,-277.57"/>
<polygon fill="#63b8ff" stroke="#63b8ff" points="448.81,-385.35 448.82,-395.94 455.42,-387.65 448.81,-385.35"/>
</a>
</g>
</g>
<!-- Node23 -->
<g id="Node000023" class="node">
<title>Node23</title>
<g id="a_Node000023"><a xlink:href="random__rollout__strategy_8h.html" target="_top" xlink:title=" ">
<polygon fill="white" stroke="#666666" points="317.5,-360 184.5,-360 184.5,-319 317.5,-319 317.5,-360"/>
<text text-anchor="start" x="192.5" y="-348" font-family="Helvetica,sans-Serif" font-size="10.00">include/monte_carlo</text>
<text text-anchor="start" x="192.5" y="-337" font-family="Helvetica,sans-Serif" font-size="10.00">/models/random_rollout</text>
<text text-anchor="middle" x="251" y="-326" font-family="Helvetica,sans-Serif" font-size="10.00">_strategy.h</text>
</a>
</g>
</g>
<!-- Node7&#45;&gt;Node23 -->
<g id="edge38_Node000007_Node000023" class="edge">
<title>Node7&#45;&gt;Node23</title>
<g id="a_edge38_Node000007_Node000023"><a xlink:title=" ">
<path fill="none" stroke="#63b8ff" d="M382.83,-392.27C356.52,-381.94 325.88,-369.9 300.77,-360.04"/>
<polygon fill="#63b8ff" stroke="#63b8ff" points="381.73,-395.59 392.32,-395.99 384.29,-389.08 381.73,-395.59"/>
</a>
</g>
</g>
<!-- Node8&#45;&gt;Node2 -->
<g id="edge15_Node000008_Node000002" class="edge">
<title>Node8&#45;&gt;Node2</title>
<g id="a_edge15_Node000008_Node000002"><a xlink:title=" ">
<path fill="none" stroke="#63b8ff" d="M698.08,-322.32C669.13,-313.5 635.91,-300.69 609,-283 588.24,-269.35 592.53,-254.4 571,-242 507.83,-205.64 475.85,-239.27 411,-206 358.62,-179.13 341.97,-168.67 312,-118 297.83,-94.04 292.78,-61.76 290.99,-41.29"/>
<polygon fill="#63b8ff" stroke="#63b8ff" points="697.13,-325.69 707.71,-325.16 699.11,-318.97 697.13,-325.69"/>
</a>
</g>
</g>
<!-- Node8&#45;&gt;Node3 -->
<g id="edge16_Node000008_Node000003" class="edge">
<title>Node8&#45;&gt;Node3</title>
<g id="a_edge16_Node000008_Node000003"><a xlink:title=" ">
<path fill="none" stroke="#63b8ff" d="M697.92,-329.64C627.68,-320.03 515.15,-303.31 419,-283 416.01,-282.37 412.96,-281.69 409.89,-280.99"/>
<polygon fill="#63b8ff" stroke="#63b8ff" points="697.58,-333.13 707.96,-331.01 698.53,-326.19 697.58,-333.13"/>
</a>
</g>
</g>
<!-- Node9 -->
<g id="Node000009" class="node">
<title>Node9</title>
<g id="a_Node000009"><a xlink:href="bot_8h.html" target="_top" xlink:title=" ">
<polygon fill="white" stroke="#666666" points="883,-200.5 743,-200.5 743,-159.5 883,-159.5 883,-200.5"/>
<text text-anchor="start" x="751" y="-188.5" font-family="Helvetica,sans-Serif" font-size="10.00">examples/monte_carlo</text>
<text text-anchor="start" x="751" y="-177.5" font-family="Helvetica,sans-Serif" font-size="10.00">/tic_tac_toe/include</text>
<text text-anchor="middle" x="813" y="-166.5" font-family="Helvetica,sans-Serif" font-size="10.00">/tic_tac_toe/models/bot.h</text>
</a>
</g>
</g>
<!-- Node8&#45;&gt;Node9 -->
<g id="edge9_Node000008_Node000009" class="edge">
<title>Node8&#45;&gt;Node9</title>
<g id="a_edge9_Node000008_Node000009"><a xlink:title=" ">
<path fill="none" stroke="#63b8ff" d="M773.12,-314.63C782.41,-283.5 798.49,-229.61 807.12,-200.7"/>
<polygon fill="#63b8ff" stroke="#63b8ff" points="769.76,-313.66 770.25,-324.25 776.47,-315.66 769.76,-313.66"/>
</a>
</g>
</g>
<!-- Node13 -->
<g id="Node000013" class="node">
<title>Node13</title>
<g id="a_Node000013"><a xlink:href="state__tests_8cpp.html" target="_top" xlink:title=" ">
<polygon fill="white" stroke="#666666" points="785,-118 651,-118 651,-77 785,-77 785,-118"/>
<text text-anchor="start" x="659" y="-106" font-family="Helvetica,sans-Serif" font-size="10.00">examples/monte_carlo</text>
<text text-anchor="start" x="659" y="-95" font-family="Helvetica,sans-Serif" font-size="10.00">/tic_tac_toe/tests/model</text>
<text text-anchor="middle" x="718" y="-84" font-family="Helvetica,sans-Serif" font-size="10.00">_tests/state_tests.cpp</text>
</a>
</g>
</g>
<!-- Node8&#45;&gt;Node13 -->
<g id="edge17_Node000008_Node000013" class="edge">
<title>Node8&#45;&gt;Node13</title>
<g id="a_edge17_Node000008_Node000013"><a xlink:title=" ">
<path fill="none" stroke="#63b8ff" d="M762.29,-314.33C759.02,-294.67 753.74,-266.3 747,-242 742.45,-225.61 738.16,-222.49 734,-206 726.38,-175.81 721.94,-139.88 719.74,-118.15"/>
<polygon fill="#63b8ff" stroke="#63b8ff" points="758.85,-314.96 763.9,-324.28 765.76,-313.85 758.85,-314.96"/>
</a>
</g>
</g>
<!-- Node14 -->
<g id="Node000014" class="node">
<title>Node14</title>
<g id="a_Node000014"><a xlink:href="simulation__tests_8cpp.html" target="_top" xlink:title=" ">
<polygon fill="white" stroke="#666666" points="1300.5,-118 1145.5,-118 1145.5,-77 1300.5,-77 1300.5,-118"/>
<text text-anchor="start" x="1153.5" y="-106" font-family="Helvetica,sans-Serif" font-size="10.00">examples/monte_carlo</text>
<text text-anchor="start" x="1153.5" y="-95" font-family="Helvetica,sans-Serif" font-size="10.00">/tic_tac_toe/tests/simulation</text>
<text text-anchor="middle" x="1223" y="-84" font-family="Helvetica,sans-Serif" font-size="10.00">_tests.cpp</text>
</a>
</g>
</g>
<!-- Node8&#45;&gt;Node14 -->
<g id="edge18_Node000008_Node000014" class="edge">
<title>Node8&#45;&gt;Node14</title>
<g id="a_edge18_Node000008_Node000014"><a xlink:title=" ">
<path fill="none" stroke="#63b8ff" d="M807.83,-320.24C862.02,-296.12 958.91,-251.35 1038,-206 1074.14,-185.27 1080.12,-175.18 1116,-154 1137.63,-141.23 1162.49,-128.24 1182.8,-118.04"/>
<polygon fill="#63b8ff" stroke="#63b8ff" points="806.27,-317.11 798.55,-324.36 809.11,-323.51 806.27,-317.11"/>
</a>
</g>
</g>
<!-- Node15 -->
<g id="Node000015" class="node">
<title>Node15</title>
<g id="a_Node000015"><a xlink:href="node__base_8h.html" target="_top" xlink:title=" ">
<polygon fill="white" stroke="#666666" points="738,-277.5 618,-277.5 618,-247.5 738,-247.5 738,-277.5"/>
<text text-anchor="start" x="626" y="-265.5" font-family="Helvetica,sans-Serif" font-size="10.00">include/monte_carlo</text>
<text text-anchor="middle" x="678" y="-254.5" font-family="Helvetica,sans-Serif" font-size="10.00">/models/node_base.h</text>
</a>
</g>
</g>
<!-- Node8&#45;&gt;Node15 -->
<g id="edge19_Node000008_Node000015" class="edge">
<title>Node8&#45;&gt;Node15</title>
<g id="a_edge19_Node000008_Node000015"><a xlink:title=" ">
<path fill="none" stroke="#63b8ff" d="M741.56,-317.67C726.55,-304.88 707.73,-288.84 694.48,-277.54"/>
<polygon fill="#63b8ff" stroke="#63b8ff" points="739.57,-320.57 749.45,-324.39 744.11,-315.24 739.57,-320.57"/>
</a>
</g>
</g>
<!-- Node19 -->
<g id="Node000019" class="node">
<title>Node19</title>
<g id="a_Node000019"><a xlink:href="tree__search__algorithm_8h.html" target="_top" xlink:title=" ">
<polygon fill="white" stroke="#666666" points="1164,-277.5 1026,-277.5 1026,-247.5 1164,-247.5 1164,-277.5"/>
<text text-anchor="start" x="1034" y="-265.5" font-family="Helvetica,sans-Serif" font-size="10.00">include/monte_carlo</text>
<text text-anchor="middle" x="1095" y="-254.5" font-family="Helvetica,sans-Serif" font-size="10.00">/tree_search_algorithm.h</text>
</a>
</g>
</g>
<!-- Node8&#45;&gt;Node19 -->
<g id="edge31_Node000008_Node000019" class="edge">
<title>Node8&#45;&gt;Node19</title>
<g id="a_edge31_Node000008_Node000019"><a xlink:title=" ">
<path fill="none" stroke="#63b8ff" d="M834.12,-323.3C883.52,-312.24 951.93,-296.83 1012,-283 1019.65,-281.24 1027.68,-279.37 1035.62,-277.52"/>
<polygon fill="#63b8ff" stroke="#63b8ff" points="833.18,-319.93 824.19,-325.52 834.71,-326.76 833.18,-319.93"/>
</a>
</g>
</g>
<!-- Node8&#45;&gt;Node20 -->
<g id="edge37_Node000008_Node000020" class="edge">
<title>Node8&#45;&gt;Node20</title>
<g id="a_edge37_Node000008_Node000020"><a xlink:title=" ">
<path fill="none" stroke="#63b8ff" d="M834.29,-336.72C935.72,-332.84 1119.95,-320.67 1173,-283 1202.98,-261.71 1216.79,-217.92 1222.14,-195.27"/>
<polygon fill="#63b8ff" stroke="#63b8ff" points="834.01,-333.23 824.14,-337.09 834.26,-340.22 834.01,-333.23"/>
</a>
</g>
</g>
<!-- Node8&#45;&gt;Node21 -->
<g id="edge35_Node000008_Node000021" class="edge">
<title>Node8&#45;&gt;Node21</title>
<g id="a_edge35_Node000008_Node000021"><a xlink:title=" ">
<path fill="none" stroke="#63b8ff" d="M834.31,-332.25C921.13,-323.77 1075.41,-306.88 1206,-283 1214.54,-281.44 1223.52,-279.54 1232.28,-277.54"/>
<polygon fill="#63b8ff" stroke="#63b8ff" points="833.94,-328.77 824.32,-333.22 834.61,-335.74 833.94,-328.77"/>
</a>
</g>
</g>
<!-- Node8&#45;&gt;Node22 -->
<g id="edge36_Node000008_Node000022" class="edge">
<title>Node8&#45;&gt;Node22</title>
<g id="a_edge36_Node000008_Node000022"><a xlink:title=" ">
<path fill="none" stroke="#63b8ff" d="M705.7,-321.81C657.68,-308.52 591.22,-290.13 545.87,-277.58"/>
<polygon fill="#63b8ff" stroke="#63b8ff" points="704.77,-325.19 715.34,-324.48 706.64,-318.44 704.77,-325.19"/>
</a>
</g>
</g>
<!-- Node10 -->
<g id="Node000010" class="node">
<title>Node10</title>
<g id="a_Node000010"><a xlink:href="main_8cpp.html" target="_top" xlink:title=" ">
<polygon fill="white" stroke="#666666" points="941,-112.5 803,-112.5 803,-82.5 941,-82.5 941,-112.5"/>
<text text-anchor="start" x="811" y="-100.5" font-family="Helvetica,sans-Serif" font-size="10.00">examples/monte_carlo</text>
<text text-anchor="middle" x="872" y="-89.5" font-family="Helvetica,sans-Serif" font-size="10.00">/tic_tac_toe/src/main.cpp</text>
</a>
</g>
</g>
<!-- Node9&#45;&gt;Node10 -->
<g id="edge10_Node000009_Node000010" class="edge">
<title>Node9&#45;&gt;Node10</title>
<g id="a_edge10_Node000009_Node000010"><a xlink:title=" ">
<path fill="none" stroke="#63b8ff" d="M833.54,-150.98C842.96,-138.12 853.73,-123.43 861.47,-112.87"/>
<polygon fill="#63b8ff" stroke="#63b8ff" points="830.67,-148.97 827.58,-159.1 836.32,-153.1 830.67,-148.97"/>
</a>
</g>
</g>
<!-- Node11 -->
<g id="Node000011" class="node">
<title>Node11</title>
<g id="a_Node000011"><a xlink:href="bot_8cpp.html" target="_top" xlink:title=" ">
<polygon fill="white" stroke="#666666" points="1088.5,-118 959.5,-118 959.5,-77 1088.5,-77 1088.5,-118"/>
<text text-anchor="start" x="967.5" y="-106" font-family="Helvetica,sans-Serif" font-size="10.00">examples/monte_carlo</text>
<text text-anchor="start" x="967.5" y="-95" font-family="Helvetica,sans-Serif" font-size="10.00">/tic_tac_toe/src/models</text>
<text text-anchor="middle" x="1024" y="-84" font-family="Helvetica,sans-Serif" font-size="10.00">/bot.cpp</text>
</a>
</g>
</g>
<!-- Node9&#45;&gt;Node11 -->
<g id="edge11_Node000009_Node000011" class="edge">
<title>Node9&#45;&gt;Node11</title>
<g id="a_edge11_Node000009_Node000011"><a xlink:title=" ">
<path fill="none" stroke="#63b8ff" d="M873.85,-155.79C905.18,-143.83 942.96,-129.42 972.79,-118.04"/>
<polygon fill="#63b8ff" stroke="#63b8ff" points="872.44,-152.58 864.35,-159.41 874.94,-159.12 872.44,-152.58"/>
</a>
</g>
</g>
<!-- Node12 -->
<g id="Node000012" class="node">
<title>Node12</title>
<g id="a_Node000012"><a xlink:href="state_8cpp.html" target="_top" xlink:title=" ">
<polygon fill="white" stroke="#666666" points="632.5,-118 503.5,-118 503.5,-77 632.5,-77 632.5,-118"/>
<text text-anchor="start" x="511.5" y="-106" font-family="Helvetica,sans-Serif" font-size="10.00">examples/monte_carlo</text>
<text text-anchor="start" x="511.5" y="-95" font-family="Helvetica,sans-Serif" font-size="10.00">/tic_tac_toe/src/models</text>
<text text-anchor="middle" x="568" y="-84" font-family="Helvetica,sans-Serif" font-size="10.00">/state.cpp</text>
</a>
</g>
</g>
<!-- Node9&#45;&gt;Node12 -->
<g id="edge12_Node000009_Node000012" class="edge">
<title>Node9&#45;&gt;Node12</title>
<g id="a_edge12_Node000009_Node000012"><a xlink:title=" ">
<path fill="none" stroke="#63b8ff" d="M743.75,-156.25C707.1,-144.2 662.54,-129.56 627.46,-118.04"/>
<polygon fill="#63b8ff" stroke="#63b8ff" points="742.79,-159.61 753.38,-159.41 744.97,-152.96 742.79,-159.61"/>
</a>
</g>
</g>
<!-- Node9&#45;&gt;Node13 -->
<g id="edge13_Node000009_Node000013" class="edge">
<title>Node9&#45;&gt;Node13</title>
<g id="a_edge13_Node000009_Node000013"><a xlink:title=" ">
<path fill="none" stroke="#63b8ff" d="M781.6,-152.39C768.42,-141.22 753.36,-128.47 741.21,-118.17"/>
<polygon fill="#63b8ff" stroke="#63b8ff" points="779.62,-155.31 789.52,-159.1 784.15,-149.97 779.62,-155.31"/>
</a>
</g>
</g>
<!-- Node9&#45;&gt;Node14 -->
<g id="edge14_Node000009_Node000014" class="edge">
<title>Node9&#45;&gt;Node14</title>
<g id="a_edge14_Node000009_Node000014"><a xlink:title=" ">
<path fill="none" stroke="#63b8ff" d="M881.68,-156.64C885.15,-155.7 888.61,-154.82 892,-154 916.18,-148.18 1055.36,-125.43 1145.37,-110.93"/>
<polygon fill="#63b8ff" stroke="#63b8ff" points="880.53,-153.32 871.85,-159.38 882.42,-160.06 880.53,-153.32"/>
</a>
</g>
</g>
<!-- Node15&#45;&gt;Node4 -->
<g id="edge30_Node000015_Node000004" class="edge">
<title>Node15&#45;&gt;Node4</title>
<g id="a_edge30_Node000015_Node000004"><a xlink:title=" ">
<path fill="none" stroke="#63b8ff" d="M607.66,-248.28C595.45,-246.1 582.87,-243.93 571,-242 441.72,-221.01 289.82,-200.3 206.21,-189.23"/>
<polygon fill="#63b8ff" stroke="#63b8ff" points="607.34,-251.78 617.8,-250.11 608.58,-244.89 607.34,-251.78"/>
</a>
</g>
</g>
<!-- Node16 -->
<g id="Node000016" class="node">
<title>Node16</title>
<g id="a_Node000016"><a xlink:href="tic__tac__toe__factory_8h.html" target="_top" xlink:title=" ">
<polygon fill="white" stroke="#666666" points="1029,-206 901,-206 901,-154 1029,-154 1029,-206"/>
<text text-anchor="start" x="909" y="-194" font-family="Helvetica,sans-Serif" font-size="10.00">examples/monte_carlo</text>
<text text-anchor="start" x="909" y="-183" font-family="Helvetica,sans-Serif" font-size="10.00">/tic_tac_toe/include</text>
<text text-anchor="start" x="909" y="-172" font-family="Helvetica,sans-Serif" font-size="10.00">/tic_tac_toe/factories</text>
<text text-anchor="middle" x="965" y="-161" font-family="Helvetica,sans-Serif" font-size="10.00">/tic_tac_toe_factory.h</text>
</a>
</g>
</g>
<!-- Node15&#45;&gt;Node16 -->
<g id="edge20_Node000015_Node000016" class="edge">
<title>Node15&#45;&gt;Node16</title>
<g id="a_edge20_Node000015_Node000016"><a xlink:title=" ">
<path fill="none" stroke="#63b8ff" d="M747.25,-244.96C789.33,-234.56 844.02,-220.42 892,-206 894.95,-205.11 897.96,-204.18 901,-203.23"/>
<polygon fill="#63b8ff" stroke="#63b8ff" points="746.25,-241.6 737.38,-247.39 747.92,-248.4 746.25,-241.6"/>
</a>
</g>
</g>
<!-- Node17 -->
<g id="Node000017" class="node">
<title>Node17</title>
<g id="a_Node000017"><a xlink:href="state_8h.html" target="_top" xlink:title=" ">
<polygon fill="white" stroke="#666666" points="568.5,-200.5 419.5,-200.5 419.5,-159.5 568.5,-159.5 568.5,-200.5"/>
<text text-anchor="start" x="427.5" y="-188.5" font-family="Helvetica,sans-Serif" font-size="10.00">examples/monte_carlo</text>
<text text-anchor="start" x="427.5" y="-177.5" font-family="Helvetica,sans-Serif" font-size="10.00">/tic_tac_toe/include</text>
<text text-anchor="middle" x="494" y="-166.5" font-family="Helvetica,sans-Serif" font-size="10.00">/tic_tac_toe/models/state.h</text>
</a>
</g>
</g>
<!-- Node15&#45;&gt;Node17 -->
<g id="edge26_Node000015_Node000017" class="edge">
<title>Node15&#45;&gt;Node17</title>
<g id="a_edge26_Node000015_Node000017"><a xlink:title=" ">
<path fill="none" stroke="#63b8ff" d="M636.49,-243.34C607.4,-230.61 568.56,-213.62 538.78,-200.59"/>
<polygon fill="#63b8ff" stroke="#63b8ff" points="635.39,-246.68 645.95,-247.48 638.19,-240.26 635.39,-246.68"/>
</a>
</g>
</g>
<!-- Node16&#45;&gt;Node2 -->
<g id="edge21_Node000016_Node000002" class="edge">
<title>Node16&#45;&gt;Node2</title>
<g id="a_edge21_Node000016_Node000002"><a xlink:title=" ">
<path fill="none" stroke="#63b8ff" d="M1038.71,-153.33C1065.24,-142.47 1090.52,-129.67 1098,-118 1107.84,-102.66 1110.44,-90.32 1098,-77 1048.01,-23.46 544.07,-20.31 358.3,-20.99"/>
<polygon fill="#63b8ff" stroke="#63b8ff" points="1037.29,-150.12 1029.29,-157.08 1039.88,-156.63 1037.29,-150.12"/>
</a>
</g>
</g>
<!-- Node16&#45;&gt;Node10 -->
<g id="edge22_Node000016_Node000010" class="edge">
<title>Node16&#45;&gt;Node10</title>
<g id="a_edge22_Node000016_Node000010"><a xlink:title=" ">
<path fill="none" stroke="#63b8ff" d="M928.15,-147.11C914.39,-135.19 899.44,-122.25 888.43,-112.73"/>
<polygon fill="#63b8ff" stroke="#63b8ff" points="926.23,-150.07 936.08,-153.97 930.81,-144.78 926.23,-150.07"/>
</a>
</g>
</g>
<!-- Node16&#45;&gt;Node11 -->
<g id="edge23_Node000016_Node000011" class="edge">
<title>Node16&#45;&gt;Node11</title>
<g id="a_edge23_Node000016_Node000011"><a xlink:title=" ">
<path fill="none" stroke="#63b8ff" d="M989.27,-145.88C996.18,-136.46 1003.48,-126.49 1009.6,-118.15"/>
<polygon fill="#63b8ff" stroke="#63b8ff" points="986.43,-143.84 983.34,-153.97 992.08,-147.97 986.43,-143.84"/>
</a>
</g>
</g>
<!-- Node16&#45;&gt;Node13 -->
<g id="edge24_Node000016_Node000013" class="edge">
<title>Node16&#45;&gt;Node13</title>
<g id="a_edge24_Node000016_Node000013"><a xlink:title=" ">
<path fill="none" stroke="#63b8ff" d="M891.34,-153.8C849.34,-139.96 811.36,-127.84 780.52,-118.09"/>
<polygon fill="#63b8ff" stroke="#63b8ff" points="890.34,-157.16 900.93,-156.97 892.53,-150.51 890.34,-157.16"/>
</a>
</g>
</g>
<!-- Node16&#45;&gt;Node14 -->
<g id="edge25_Node000016_Node000014" class="edge">
<title>Node16&#45;&gt;Node14</title>
<g id="a_edge25_Node000016_Node000014"><a xlink:title=" ">
<path fill="none" stroke="#63b8ff" d="M1039.19,-155.2C1040.47,-154.8 1041.74,-154.4 1043,-154 1081.37,-141.94 1124.42,-128.65 1158.8,-118.11"/>
<polygon fill="#63b8ff" stroke="#63b8ff" points="1037.73,-151.99 1029.26,-158.34 1039.85,-158.66 1037.73,-151.99"/>
</a>
</g>
</g>
<!-- Node17&#45;&gt;Node2 -->
<g id="edge27_Node000017_Node000002" class="edge">
<title>Node17&#45;&gt;Node2</title>
<g id="a_edge27_Node000017_Node000002"><a xlink:title=" ">
<path fill="none" stroke="#63b8ff" d="M412.14,-155.78C389.33,-146.59 365.7,-134.25 347,-118 322.62,-96.82 305.89,-62.53 297.14,-41.04"/>
<polygon fill="#63b8ff" stroke="#63b8ff" points="410.92,-159.06 421.51,-159.4 413.44,-152.53 410.92,-159.06"/>
</a>
</g>
</g>
<!-- Node17&#45;&gt;Node12 -->
<g id="edge29_Node000017_Node000012" class="edge">
<title>Node17&#45;&gt;Node12</title>
<g id="a_edge29_Node000017_Node000012"><a xlink:title=" ">
<path fill="none" stroke="#63b8ff" d="M519.34,-151.44C529.39,-140.5 540.72,-128.18 549.92,-118.17"/>
<polygon fill="#63b8ff" stroke="#63b8ff" points="516.48,-149.37 512.29,-159.1 521.64,-154.11 516.48,-149.37"/>
</a>
</g>
</g>
<!-- Node18 -->
<g id="Node000018" class="node">
<title>Node18</title>
<g id="a_Node000018"><a xlink:href="position_8cpp.html" target="_top" xlink:title=" ">
<polygon fill="white" stroke="#666666" points="485.5,-118 356.5,-118 356.5,-77 485.5,-77 485.5,-118"/>
<text text-anchor="start" x="364.5" y="-106" font-family="Helvetica,sans-Serif" font-size="10.00">examples/monte_carlo</text>
<text text-anchor="start" x="364.5" y="-95" font-family="Helvetica,sans-Serif" font-size="10.00">/tic_tac_toe/src/models</text>
<text text-anchor="middle" x="421" y="-84" font-family="Helvetica,sans-Serif" font-size="10.00">/position.cpp</text>
</a>
</g>
</g>
<!-- Node17&#45;&gt;Node18 -->
<g id="edge28_Node000017_Node000018" class="edge">
<title>Node17&#45;&gt;Node18</title>
<g id="a_edge28_Node000017_Node000018"><a xlink:title=" ">
<path fill="none" stroke="#63b8ff" d="M469.01,-151.44C459.09,-140.5 447.91,-128.18 438.84,-118.17"/>
<polygon fill="#63b8ff" stroke="#63b8ff" points="466.64,-154.04 475.96,-159.1 471.83,-149.34 466.64,-154.04"/>
</a>
</g>
</g>
<!-- Node19&#45;&gt;Node11 -->
<g id="edge32_Node000019_Node000011" class="edge">
<title>Node19&#45;&gt;Node11</title>
<g id="a_edge32_Node000019_Node000011"><a xlink:title=" ">
<path fill="none" stroke="#63b8ff" d="M1084.67,-237.78C1070.61,-205.5 1045.71,-148.33 1032.61,-118.26"/>
<polygon fill="#63b8ff" stroke="#63b8ff" points="1081.62,-239.55 1088.82,-247.32 1088.04,-236.75 1081.62,-239.55"/>
</a>
</g>
</g>
<!-- Node19&#45;&gt;Node14 -->
<g id="edge33_Node000019_Node000014" class="edge">
<title>Node19&#45;&gt;Node14</title>
<g id="a_edge33_Node000019_Node000014"><a xlink:title=" ">
<path fill="none" stroke="#63b8ff" d="M1104.43,-237.82C1114.31,-214.85 1131.4,-179.77 1153,-154 1164.46,-140.33 1179.75,-127.74 1193.11,-118.02"/>
<polygon fill="#63b8ff" stroke="#63b8ff" points="1101.15,-236.58 1100.52,-247.16 1107.61,-239.29 1101.15,-236.58"/>
</a>
</g>
</g>
<!-- Node19&#45;&gt;Node20 -->
<g id="edge34_Node000019_Node000020" class="edge">
<title>Node19&#45;&gt;Node20</title>
<g id="a_edge34_Node000019_Node000020"><a xlink:title=" ">
<path fill="none" stroke="#63b8ff" d="M1126.18,-242.19C1149.58,-227.7 1181.09,-208.19 1202.18,-195.13"/>
<polygon fill="#63b8ff" stroke="#63b8ff" points="1124.3,-239.24 1117.64,-247.48 1127.99,-245.19 1124.3,-239.24"/>
</a>
</g>
</g>
<!-- Node23&#45;&gt;Node2 -->
<g id="edge39_Node000023_Node000002" class="edge">
<title>Node23&#45;&gt;Node2</title>
<g id="a_edge39_Node000023_Node000002"><a xlink:title=" ">
<path fill="none" stroke="#63b8ff" d="M252.38,-308.5C254.97,-259.69 261.63,-160.14 276,-77 278.08,-64.96 281.4,-51.67 284.28,-41.12"/>
<polygon fill="#63b8ff" stroke="#63b8ff" points="248.88,-308.52 251.87,-318.68 255.87,-308.87 248.88,-308.52"/>
</a>
</g>
</g>
<!-- Node24 -->
<g id="Node000024" class="node">
<title>Node24</title>
<g id="a_Node000024"><a xlink:href="random__action__strategy_8cpp.html" target="_top" xlink:title=" ">
<polygon fill="white" stroke="#666666" points="223.5,-277.5 66.5,-277.5 66.5,-247.5 223.5,-247.5 223.5,-277.5"/>
<text text-anchor="start" x="74.5" y="-265.5" font-family="Helvetica,sans-Serif" font-size="10.00">src/monte_carlo/models</text>
<text text-anchor="middle" x="145" y="-254.5" font-family="Helvetica,sans-Serif" font-size="10.00">/random_action_strategy.cpp</text>
</a>
</g>
</g>
<!-- Node23&#45;&gt;Node24 -->
<g id="edge40_Node000023_Node000024" class="edge">
<title>Node23&#45;&gt;Node24</title>
<g id="a_edge40_Node000023_Node000024"><a xlink:title=" ">
<path fill="none" stroke="#63b8ff" d="M214.98,-313.01C198.31,-301.22 179.13,-287.65 165.07,-277.7"/>
<polygon fill="#63b8ff" stroke="#63b8ff" points="213.24,-316.07 223.43,-318.99 217.28,-310.36 213.24,-316.07"/>
</a>
</g>
</g>
</g>
</svg>

<g id="navigator" transform="translate(0 0)" fill="#404254">
  <rect fill="#f2f5e9" fill-opacity="0.5" stroke="#606060" stroke-width=".5" x="0" y="0" width="60" height="60"/>
  <use id="zoomplus" xlink:href="#zoomPlus" x="17" y="9" onmousedown="handleZoom(evt,'in')"/>
  <use id="zoomminus" xlink:href="#zoomMin" x="42" y="9" onmousedown="handleZoom(evt,'out')"/>
  <use id="reset" xlink:href="#resetDef" x="30" y="36" onmousedown="handleReset()"/>
   <use id="arrowup" xlink:href="#arrowUp" x="0" y="0" onmousedown="handlePan(0,-1)"/>
  <use id="arrowright" xlink:href="#arrowRight" x="0" y="0" onmousedown="handlePan(1,0)"/>
  <use id="arrowdown" xlink:href="#arrowDown" x="0" y="0" onmousedown="handlePan(0,1)"/>
  <use id="arrowleft" xlink:href="#arrowLeft" x="0" y="0" onmousedown="handlePan(-1,0)"/>
</g>
<svg viewBox="0 0 15 15" width="100%" height="30px" preserveAspectRatio="xMaxYMin meet">
 <g id="arrow_out" transform="scale(0.3 0.3)">
  <a xlink:href="action_8h__dep__incl_org.svg" target="_base">
   <rect id="button" ry="5" rx="5" y="6" x="6" height="38" width="38"
        fill="#f2f5e9" fill-opacity="0.5" stroke="#606060" stroke-width="1.0"/>
   <path id="arrow"
     d="M 11.500037,31.436501 C 11.940474,20.09759 22.043105,11.32322 32.158766,21.979434 L 37.068811,17.246167 C 37.068811,17.246167 37.088388,32 37.088388,32 L 22.160133,31.978069 C 22.160133,31.978069 26.997745,27.140456 26.997745,27.140456 C 18.528582,18.264221 13.291696,25.230495 11.500037,31.436501 z"
     style="fill:#404040;"/>
  </a>
 </g>
</svg>

<style type='text/css'>
<![CDATA[
[data-mouse-over-selected='false'] { opacity: 0.7; }
[data-mouse-over-selected='true']  { opacity: 1.0; }
]]>
</style>
<script type="application/ecmascript"><![CDATA[
document.addEventListener('DOMContentLoaded', (event) => {
  highlightEdges();
  highlightAdjacentNodes();
});
]]></script>
</svg>
