<?xml version="1.0" encoding="UTF-8" standalone="no"?>
<!DOCTYPE svg PUBLIC "-//W3C//DTD SVG 1.1//EN"
 "http://www.w3.org/Graphics/SVG/1.1/DTD/svg11.dtd">
<!-- Generated by graphviz version 2.43.0 (0)
 -->
<!-- Title: include/monte_carlo/models/action_base.h Pages: 1 -->
<svg width="691pt" height="357pt"
 viewBox="0.00 0.00 691.00 357.00" xmlns="http://www.w3.org/2000/svg" xmlns:xlink="http://www.w3.org/1999/xlink">
<g id="graph0" class="graph" transform="scale(1 1) rotate(0) translate(4 353)">
<title>include/monte_carlo/models/action_base.h</title>
<!-- Node1 -->
<g id="Node000001" class="node">
<title>Node1</title>
<g id="a_Node000001"><a xlink:title=" ">
<polygon fill="#999999" stroke="#666666" points="470,-349 344,-349 344,-319 470,-319 470,-349"/>
<text text-anchor="start" x="352" y="-337" font-family="Helvetica,sans-Serif" font-size="10.00">include/monte_carlo</text>
<text text-anchor="middle" x="407" y="-326" font-family="Helvetica,sans-Serif" font-size="10.00">/models/action_base.h</text>
</a>
</g>
</g>
<!-- Node2 -->
<g id="Node000002" class="node">
<title>Node2</title>
<g id="a_Node000002"><a xlink:title=" ">
<polygon fill="#e0e0e0" stroke="#999999" points="176,-19 118,-19 118,0 176,0 176,-19"/>
<text text-anchor="middle" x="147" y="-7" font-family="Helvetica,sans-Serif" font-size="10.00">memory</text>
</a>
</g>
</g>
<!-- Node1&#45;&gt;Node2 -->
<g id="edge1_Node000001_Node000002" class="edge">
<title>Node1&#45;&gt;Node2</title>
<g id="a_edge1_Node000001_Node000002"><a xlink:title=" ">
<path fill="none" stroke="#63b8ff" d="M343.85,-326.1C229.53,-311.83 0,-274.3 0,-203 0,-203 0,-203 0,-135 0,-76.7 68.16,-40.07 111.65,-22.63"/>
<polygon fill="#63b8ff" stroke="#63b8ff" points="112.99,-25.87 121.06,-19 110.47,-19.34 112.99,-25.87"/>
</a>
</g>
</g>
<!-- Node3 -->
<g id="Node000003" class="node">
<title>Node3</title>
<g id="a_Node000003"><a xlink:title=" ">
<polygon fill="#e0e0e0" stroke="#999999" points="529.5,-19 472.5,-19 472.5,0 529.5,0 529.5,-19"/>
<text text-anchor="middle" x="501" y="-7" font-family="Helvetica,sans-Serif" font-size="10.00">ostream</text>
</a>
</g>
</g>
<!-- Node1&#45;&gt;Node3 -->
<g id="edge2_Node000001_Node000003" class="edge">
<title>Node1&#45;&gt;Node3</title>
<g id="a_edge2_Node000001_Node000003"><a xlink:title=" ">
<path fill="none" stroke="#63b8ff" d="M438.62,-318.93C477.67,-299.14 539,-259.13 539,-203 539,-203 539,-203 539,-135 539,-95.63 521.4,-52.18 510.16,-28.45"/>
<polygon fill="#63b8ff" stroke="#63b8ff" points="513.21,-26.71 505.66,-19.28 506.92,-29.8 513.21,-26.71"/>
</a>
</g>
</g>
<!-- Node4 -->
<g id="Node000004" class="node">
<title>Node4</title>
<g id="a_Node000004"><a xlink:href="action_8h.html" target="_top" xlink:title=" ">
<polygon fill="white" stroke="#666666" points="473,-85 357,-85 357,-55 473,-55 473,-85"/>
<text text-anchor="start" x="365" y="-73" font-family="Helvetica,sans-Serif" font-size="10.00">monte_carlo/models</text>
<text text-anchor="middle" x="415" y="-62" font-family="Helvetica,sans-Serif" font-size="10.00">/action.h</text>
</a>
</g>
</g>
<!-- Node1&#45;&gt;Node4 -->
<g id="edge3_Node000001_Node000004" class="edge">
<title>Node1&#45;&gt;Node4</title>
<g id="a_edge3_Node000001_Node000004"><a xlink:title=" ">
<path fill="none" stroke="#63b8ff" d="M412.99,-318.68C421.65,-297.1 437.28,-254.74 443,-217 449.58,-173.59 435.05,-123.41 424.56,-94.62"/>
<polygon fill="#63b8ff" stroke="#63b8ff" points="427.75,-93.14 420.93,-85.03 421.2,-95.62 427.75,-93.14"/>
</a>
</g>
</g>
<!-- Node5 -->
<g id="Node000005" class="node">
<title>Node5</title>
<g id="a_Node000005"><a xlink:href="tree__factory__interface_8h.html" target="_top" xlink:title=" ">
<polygon fill="white" stroke="#666666" points="165.5,-217 28.5,-217 28.5,-187 165.5,-187 165.5,-217"/>
<text text-anchor="start" x="36.5" y="-205" font-family="Helvetica,sans-Serif" font-size="10.00">monte_carlo/factories</text>
<text text-anchor="middle" x="97" y="-194" font-family="Helvetica,sans-Serif" font-size="10.00">/tree_factory_interface.h</text>
</a>
</g>
</g>
<!-- Node1&#45;&gt;Node5 -->
<g id="edge6_Node000001_Node000005" class="edge">
<title>Node1&#45;&gt;Node5</title>
<g id="a_edge6_Node000001_Node000005"><a xlink:title=" ">
<path fill="none" stroke="#63b8ff" d="M354.57,-318.95C323.41,-309.98 283.38,-297.35 249,-283 206.35,-265.2 159.64,-239.63 129.41,-222.23"/>
<polygon fill="#63b8ff" stroke="#63b8ff" points="130.99,-219.09 120.58,-217.1 127.47,-225.15 130.99,-219.09"/>
</a>
</g>
</g>
<!-- Node7 -->
<g id="Node000007" class="node">
<title>Node7</title>
<g id="a_Node000007"><a xlink:href="node__base_8h.html" target="_top" xlink:title=" ">
<polygon fill="white" stroke="#666666" points="336,-277.5 258,-277.5 258,-258.5 336,-258.5 336,-277.5"/>
<text text-anchor="middle" x="297" y="-265.5" font-family="Helvetica,sans-Serif" font-size="10.00">node_base.h</text>
</a>
</g>
</g>
<!-- Node1&#45;&gt;Node7 -->
<g id="edge9_Node000001_Node000007" class="edge">
<title>Node1&#45;&gt;Node7</title>
<g id="a_edge9_Node000001_Node000007"><a xlink:title=" ">
<path fill="none" stroke="#63b8ff" d="M382.86,-318.95C364.33,-308.18 338.9,-293.38 320.53,-282.69"/>
<polygon fill="#63b8ff" stroke="#63b8ff" points="322.04,-279.52 311.64,-277.52 318.52,-285.57 322.04,-279.52"/>
</a>
</g>
</g>
<!-- Node13 -->
<g id="Node000013" class="node">
<title>Node13</title>
<g id="a_Node000013"><a xlink:title=" ">
<polygon fill="#e0e0e0" stroke="#999999" points="683,-283 567,-283 567,-253 683,-253 683,-283"/>
<text text-anchor="start" x="575" y="-271" font-family="Helvetica,sans-Serif" font-size="10.00">monte_carlo/models</text>
<text text-anchor="middle" x="625" y="-260" font-family="Helvetica,sans-Serif" font-size="10.00">/action_base.tpp</text>
</a>
</g>
</g>
<!-- Node1&#45;&gt;Node13 -->
<g id="edge21_Node000001_Node000013" class="edge">
<title>Node1&#45;&gt;Node13</title>
<g id="a_edge21_Node000001_Node000013"><a xlink:title=" ">
<path fill="none" stroke="#63b8ff" d="M454.84,-318.95C488.06,-309.2 532.5,-296.16 567.63,-285.84"/>
<polygon fill="#63b8ff" stroke="#63b8ff" points="568.66,-289.19 577.27,-283.01 566.69,-282.47 568.66,-289.19"/>
</a>
</g>
</g>
<!-- Node4&#45;&gt;Node2 -->
<g id="edge4_Node000004_Node000002" class="edge">
<title>Node4&#45;&gt;Node2</title>
<g id="a_edge4_Node000004_Node000002"><a xlink:title=" ">
<path fill="none" stroke="#63b8ff" d="M356.85,-56.31C305.15,-45.02 230.98,-28.83 186.07,-19.03"/>
<polygon fill="#63b8ff" stroke="#63b8ff" points="186.65,-15.57 176.13,-16.86 185.15,-22.41 186.65,-15.57"/>
</a>
</g>
</g>
<!-- Node4&#45;&gt;Node3 -->
<g id="edge5_Node000004_Node000003" class="edge">
<title>Node4&#45;&gt;Node3</title>
<g id="a_edge5_Node000004_Node000003"><a xlink:title=" ">
<path fill="none" stroke="#63b8ff" d="M435.82,-54.84C449.15,-45.77 466.39,-34.04 479.79,-24.92"/>
<polygon fill="#63b8ff" stroke="#63b8ff" points="482.07,-27.61 488.37,-19.09 478.13,-21.83 482.07,-27.61"/>
</a>
</g>
</g>
<!-- Node5&#45;&gt;Node2 -->
<g id="edge7_Node000005_Node000002" class="edge">
<title>Node5&#45;&gt;Node2</title>
<g id="a_edge7_Node000005_Node000002"><a xlink:title=" ">
<path fill="none" stroke="#63b8ff" d="M85.14,-186.72C78.07,-177.24 69.75,-164.16 66,-151 62.35,-138.18 61.85,-133.67 66,-121 78.67,-82.28 110.64,-45.91 130.42,-26.08"/>
<polygon fill="#63b8ff" stroke="#63b8ff" points="132.87,-28.58 137.57,-19.09 127.97,-23.57 132.87,-28.58"/>
</a>
</g>
</g>
<!-- Node6 -->
<g id="Node000006" class="node">
<title>Node6</title>
<g id="a_Node000006"><a xlink:title=" ">
<polygon fill="#e0e0e0" stroke="#999999" points="119,-145.5 75,-145.5 75,-126.5 119,-126.5 119,-145.5"/>
<text text-anchor="middle" x="97" y="-133.5" font-family="Helvetica,sans-Serif" font-size="10.00">string</text>
</a>
</g>
</g>
<!-- Node5&#45;&gt;Node6 -->
<g id="edge8_Node000005_Node000006" class="edge">
<title>Node5&#45;&gt;Node6</title>
<g id="a_edge8_Node000005_Node000006"><a xlink:title=" ">
<path fill="none" stroke="#63b8ff" d="M97,-186.8C97,-177.7 97,-165.79 97,-155.9"/>
<polygon fill="#63b8ff" stroke="#63b8ff" points="100.5,-155.84 97,-145.84 93.5,-155.84 100.5,-155.84"/>
</a>
</g>
</g>
<!-- Node7&#45;&gt;Node5 -->
<g id="edge19_Node000007_Node000005" class="edge">
<title>Node7&#45;&gt;Node5</title>
<g id="a_edge19_Node000007_Node000005"><a xlink:title=" ">
<path fill="none" stroke="#63b8ff" d="M270.03,-258.37C239.56,-248.62 189.19,-232.5 150.64,-220.16"/>
<polygon fill="#63b8ff" stroke="#63b8ff" points="151.7,-216.83 141.11,-217.12 149.57,-223.5 151.7,-216.83"/>
</a>
</g>
</g>
<!-- Node8 -->
<g id="Node000008" class="node">
<title>Node8</title>
<g id="a_Node000008"><a xlink:href="node_8h.html" target="_top" xlink:title=" ">
<polygon fill="white" stroke="#666666" points="300,-217 184,-217 184,-187 300,-187 300,-217"/>
<text text-anchor="start" x="192" y="-205" font-family="Helvetica,sans-Serif" font-size="10.00">monte_carlo/models</text>
<text text-anchor="middle" x="242" y="-194" font-family="Helvetica,sans-Serif" font-size="10.00">/node.h</text>
</a>
</g>
</g>
<!-- Node7&#45;&gt;Node8 -->
<g id="edge10_Node000007_Node000008" class="edge">
<title>Node7&#45;&gt;Node8</title>
<g id="a_edge10_Node000007_Node000008"><a xlink:title=" ">
<path fill="none" stroke="#63b8ff" d="M289.58,-258.37C282.32,-249.91 270.93,-236.67 261.12,-225.25"/>
<polygon fill="#63b8ff" stroke="#63b8ff" points="263.51,-222.66 254.34,-217.36 258.2,-227.23 263.51,-222.66"/>
</a>
</g>
</g>
<!-- Node12 -->
<g id="Node000012" class="node">
<title>Node12</title>
<g id="a_Node000012"><a xlink:title=" ">
<polygon fill="#e0e0e0" stroke="#999999" points="434,-217 318,-217 318,-187 434,-187 434,-217"/>
<text text-anchor="start" x="326" y="-205" font-family="Helvetica,sans-Serif" font-size="10.00">monte_carlo/models</text>
<text text-anchor="middle" x="376" y="-194" font-family="Helvetica,sans-Serif" font-size="10.00">/node_base.tpp</text>
</a>
</g>
</g>
<!-- Node7&#45;&gt;Node12 -->
<g id="edge20_Node000007_Node000012" class="edge">
<title>Node7&#45;&gt;Node12</title>
<g id="a_edge20_Node000007_Node000012"><a xlink:title=" ">
<path fill="none" stroke="#63b8ff" d="M307.65,-258.37C318.57,-249.53 335.94,-235.45 350.44,-223.71"/>
<polygon fill="#63b8ff" stroke="#63b8ff" points="353.01,-226.13 358.58,-217.12 348.6,-220.69 353.01,-226.13"/>
</a>
</g>
</g>
<!-- Node8&#45;&gt;Node2 -->
<g id="edge18_Node000008_Node000002" class="edge">
<title>Node8&#45;&gt;Node2</title>
<g id="a_edge18_Node000008_Node000002"><a xlink:title=" ">
<path fill="none" stroke="#63b8ff" d="M230.49,-186.89C213.91,-165.91 183.42,-124.68 166,-85 158.05,-66.88 152.94,-44.77 150.04,-29.36"/>
<polygon fill="#63b8ff" stroke="#63b8ff" points="153.41,-28.32 148.25,-19.07 146.51,-29.52 153.41,-28.32"/>
</a>
</g>
</g>
<!-- Node9 -->
<g id="Node000009" class="node">
<title>Node9</title>
<g id="a_Node000009"><a xlink:href="rollout__strategy__interface_8h.html" target="_top" xlink:title=" ">
<polygon fill="white" stroke="#666666" points="385.5,-151 230.5,-151 230.5,-121 385.5,-121 385.5,-151"/>
<text text-anchor="start" x="238.5" y="-139" font-family="Helvetica,sans-Serif" font-size="10.00">monte_carlo/models</text>
<text text-anchor="middle" x="308" y="-128" font-family="Helvetica,sans-Serif" font-size="10.00">/rollout_strategy_interface.h</text>
</a>
</g>
</g>
<!-- Node8&#45;&gt;Node9 -->
<g id="edge11_Node000008_Node000009" class="edge">
<title>Node8&#45;&gt;Node9</title>
<g id="a_edge11_Node000008_Node000009"><a xlink:title=" ">
<path fill="none" stroke="#63b8ff" d="M256.65,-186.8C265.28,-178.43 276.36,-167.68 286.02,-158.31"/>
<polygon fill="#63b8ff" stroke="#63b8ff" points="288.65,-160.64 293.39,-151.16 283.78,-155.61 288.65,-160.64"/>
</a>
</g>
</g>
<!-- Node11 -->
<g id="Node000011" class="node">
<title>Node11</title>
<g id="a_Node000011"><a xlink:title=" ">
<polygon fill="#e0e0e0" stroke="#999999" points="222.5,-79.5 175.5,-79.5 175.5,-60.5 222.5,-60.5 222.5,-79.5"/>
<text text-anchor="middle" x="199" y="-67.5" font-family="Helvetica,sans-Serif" font-size="10.00">vector</text>
</a>
</g>
</g>
<!-- Node8&#45;&gt;Node11 -->
<g id="edge17_Node000008_Node000011" class="edge">
<title>Node8&#45;&gt;Node11</title>
<g id="a_edge17_Node000008_Node000011"><a xlink:title=" ">
<path fill="none" stroke="#63b8ff" d="M235.43,-186.75C231.02,-176.85 225.25,-163.28 221,-151 213.81,-130.21 207.37,-105.74 203.34,-89.4"/>
<polygon fill="#63b8ff" stroke="#63b8ff" points="206.7,-88.42 200.96,-79.52 199.9,-90.06 206.7,-88.42"/>
</a>
</g>
</g>
<!-- Node9&#45;&gt;Node2 -->
<g id="edge14_Node000009_Node000002" class="edge">
<title>Node9&#45;&gt;Node2</title>
<g id="a_edge14_Node000009_Node000002"><a xlink:title=" ">
<path fill="none" stroke="#63b8ff" d="M296.88,-120.96C282.84,-103.87 257.32,-74.84 231,-55 214.25,-42.38 193.44,-31.32 176.72,-23.39"/>
<polygon fill="#63b8ff" stroke="#63b8ff" points="177.95,-20.11 167.41,-19.09 175.02,-26.46 177.95,-20.11"/>
</a>
</g>
</g>
<!-- Node9&#45;&gt;Node3 -->
<g id="edge15_Node000009_Node000003" class="edge">
<title>Node9&#45;&gt;Node3</title>
<g id="a_edge15_Node000009_Node000003"><a xlink:title=" ">
<path fill="none" stroke="#63b8ff" d="M385.74,-129.73C419.49,-123.55 456.94,-110.83 482,-85 496.35,-70.21 500.3,-46.17 501.18,-29.41"/>
<polygon fill="#63b8ff" stroke="#63b8ff" points="504.68,-29.24 501.38,-19.17 497.68,-29.1 504.68,-29.24"/>
</a>
</g>
</g>
<!-- Node9&#45;&gt;Node4 -->
<g id="edge12_Node000009_Node000004" class="edge">
<title>Node9&#45;&gt;Node4</title>
<g id="a_edge12_Node000009_Node000004"><a xlink:title=" ">
<path fill="none" stroke="#63b8ff" d="M331.48,-120.95C346.53,-111.95 366.27,-100.14 382.78,-90.27"/>
<polygon fill="#63b8ff" stroke="#63b8ff" points="384.79,-93.15 391.57,-85.01 381.19,-87.14 384.79,-93.15"/>
</a>
</g>
</g>
<!-- Node10 -->
<g id="Node000010" class="node">
<title>Node10</title>
<g id="a_Node000010"><a xlink:title=" ">
<polygon fill="#e0e0e0" stroke="#999999" points="339,-79.5 279,-79.5 279,-60.5 339,-60.5 339,-79.5"/>
<text text-anchor="middle" x="309" y="-67.5" font-family="Helvetica,sans-Serif" font-size="10.00">iostream</text>
</a>
</g>
</g>
<!-- Node9&#45;&gt;Node10 -->
<g id="edge13_Node000009_Node000010" class="edge">
<title>Node9&#45;&gt;Node10</title>
<g id="a_edge13_Node000009_Node000010"><a xlink:title=" ">
<path fill="none" stroke="#63b8ff" d="M308.22,-120.8C308.36,-111.7 308.55,-99.79 308.7,-89.9"/>
<polygon fill="#63b8ff" stroke="#63b8ff" points="312.21,-89.9 308.86,-79.84 305.21,-89.79 312.21,-89.9"/>
</a>
</g>
</g>
<!-- Node9&#45;&gt;Node11 -->
<g id="edge16_Node000009_Node000011" class="edge">
<title>Node9&#45;&gt;Node11</title>
<g id="a_edge16_Node000009_Node000011"><a xlink:title=" ">
<path fill="none" stroke="#63b8ff" d="M284.08,-120.95C265.72,-110.18 240.52,-95.38 222.31,-84.69"/>
<polygon fill="#63b8ff" stroke="#63b8ff" points="223.9,-81.56 213.51,-79.52 220.36,-87.6 223.9,-81.56"/>
</a>
</g>
</g>
</g>
</svg>
