<?xml version="1.0" encoding="UTF-8" standalone="no"?>
<!DOCTYPE svg PUBLIC "-//W3C//DTD SVG 1.1//EN"
 "http://www.w3.org/Graphics/SVG/1.1/DTD/svg11.dtd">
<!-- Generated by graphviz version 2.43.0 (0)
 -->
<!-- Title: src/monte_carlo/models/action.cpp Pages: 1 -->
<svg width="357pt" height="291pt"
 viewBox="0.00 0.00 357.37 291.00" xmlns="http://www.w3.org/2000/svg" xmlns:xlink="http://www.w3.org/1999/xlink">

<svg id="main" version="1.1" xmlns="http://www.w3.org/2000/svg" xmlns:xlink="http://www.w3.org/1999/xlink" xml:space="preserve" onload="init(evt)">
<style type="text/css"><![CDATA[
.node, .edge {opacity: 0.7;}
.node.selected, .edge.selected {opacity: 1;}
.edge:hover path { stroke: red; }
.edge:hover polygon { stroke: red; fill: red; }
]]></style>
<script type="application/ecmascript" xlink:href="svg.min.js"/>
<svg id="graph" class="graph">
<g id="graph0" class="graph" transform="scale(1 1) rotate(0) translate(4 287)">
<title>src/monte_carlo/models/action.cpp</title>
<!-- Node1 -->
<g id="Node000001" class="node">
<title>Node1</title>
<g id="a_Node000001"><a xlink:title=" ">
<polygon fill="#999999" stroke="#666666" points="339.37,-283 205.37,-283 205.37,-253 339.37,-253 339.37,-283"/>
<text text-anchor="start" x="213.37" y="-271" font-family="Helvetica,sans-Serif" font-size="10.00">src/monte_carlo/models</text>
<text text-anchor="middle" x="272.37" y="-260" font-family="Helvetica,sans-Serif" font-size="10.00">/action.cpp</text>
</a>
</g>
</g>
<!-- Node2 -->
<g id="Node000002" class="node">
<title>Node2</title>
<g id="a_Node000002"><a xlink:href="action_8h.html" target="_top" xlink:title=" ">
<polygon fill="white" stroke="#666666" points="349.37,-85 233.37,-85 233.37,-55 349.37,-55 349.37,-85"/>
<text text-anchor="start" x="241.37" y="-73" font-family="Helvetica,sans-Serif" font-size="10.00">monte_carlo/models</text>
<text text-anchor="middle" x="291.37" y="-62" font-family="Helvetica,sans-Serif" font-size="10.00">/action.h</text>
</a>
</g>
</g>
<!-- Node1&#45;&gt;Node2 -->
<g id="edge1_Node000001_Node000002" class="edge">
<title>Node1&#45;&gt;Node2</title>
<g id="a_edge1_Node000001_Node000002"><a xlink:title=" ">
<path fill="none" stroke="#63b8ff" d="M273.73,-252.9C276.94,-219.79 285,-136.7 289.01,-95.27"/>
<polygon fill="#63b8ff" stroke="#63b8ff" points="292.51,-95.52 289.99,-85.23 285.54,-94.85 292.51,-95.52"/>
</a>
</g>
</g>
<!-- Node5 -->
<g id="Node000005" class="node">
<title>Node5</title>
<g id="a_Node000005"><a xlink:href="node_8h.html" target="_top" xlink:title=" ">
<polygon fill="white" stroke="#666666" points="151.37,-217 35.37,-217 35.37,-187 151.37,-187 151.37,-217"/>
<text text-anchor="start" x="43.37" y="-205" font-family="Helvetica,sans-Serif" font-size="10.00">monte_carlo/models</text>
<text text-anchor="middle" x="93.37" y="-194" font-family="Helvetica,sans-Serif" font-size="10.00">/node.h</text>
</a>
</g>
</g>
<!-- Node1&#45;&gt;Node5 -->
<g id="edge4_Node000001_Node000005" class="edge">
<title>Node1&#45;&gt;Node5</title>
<g id="a_edge4_Node000001_Node000005"><a xlink:title=" ">
<path fill="none" stroke="#63b8ff" d="M233.08,-252.95C206.39,-243.41 170.88,-230.71 142.34,-220.51"/>
<polygon fill="#63b8ff" stroke="#63b8ff" points="143.15,-217.08 132.56,-217.01 140.79,-223.67 143.15,-217.08"/>
</a>
</g>
</g>
<!-- Node9 -->
<g id="Node000009" class="node">
<title>Node9</title>
<g id="a_Node000009"><a xlink:title=" ">
<polygon fill="#e0e0e0" stroke="#999999" points="345.87,-211.5 300.87,-211.5 300.87,-192.5 345.87,-192.5 345.87,-211.5"/>
<text text-anchor="middle" x="323.37" y="-199.5" font-family="Helvetica,sans-Serif" font-size="10.00">utility</text>
</a>
</g>
</g>
<!-- Node1&#45;&gt;Node9 -->
<g id="edge13_Node000001_Node000009" class="edge">
<title>Node1&#45;&gt;Node9</title>
<g id="a_edge13_Node000001_Node000009"><a xlink:title=" ">
<path fill="none" stroke="#63b8ff" d="M283.68,-252.8C291.48,-243.01 301.87,-229.98 310.06,-219.7"/>
<polygon fill="#63b8ff" stroke="#63b8ff" points="312.82,-221.85 316.32,-211.84 307.35,-217.48 312.82,-221.85"/>
</a>
</g>
</g>
<!-- Node3 -->
<g id="Node000003" class="node">
<title>Node3</title>
<g id="a_Node000003"><a xlink:title=" ">
<polygon fill="#e0e0e0" stroke="#999999" points="118.37,-19 60.37,-19 60.37,0 118.37,0 118.37,-19"/>
<text text-anchor="middle" x="89.37" y="-7" font-family="Helvetica,sans-Serif" font-size="10.00">memory</text>
</a>
</g>
</g>
<!-- Node2&#45;&gt;Node3 -->
<g id="edge2_Node000002_Node000003" class="edge">
<title>Node2&#45;&gt;Node3</title>
<g id="a_edge2_Node000002_Node000003"><a xlink:title=" ">
<path fill="none" stroke="#63b8ff" d="M242.98,-54.99C207.86,-44.82 160.97,-31.24 128.27,-21.77"/>
<polygon fill="#63b8ff" stroke="#63b8ff" points="129.19,-18.39 118.61,-18.97 127.24,-25.11 129.19,-18.39"/>
</a>
</g>
</g>
<!-- Node4 -->
<g id="Node000004" class="node">
<title>Node4</title>
<g id="a_Node000004"><a xlink:title=" ">
<polygon fill="#e0e0e0" stroke="#999999" points="276.87,-19 219.87,-19 219.87,0 276.87,0 276.87,-19"/>
<text text-anchor="middle" x="248.37" y="-7" font-family="Helvetica,sans-Serif" font-size="10.00">ostream</text>
</a>
</g>
</g>
<!-- Node2&#45;&gt;Node4 -->
<g id="edge3_Node000002_Node000004" class="edge">
<title>Node2&#45;&gt;Node4</title>
<g id="a_edge3_Node000002_Node000004"><a xlink:title=" ">
<path fill="none" stroke="#63b8ff" d="M280.96,-54.84C274.91,-46.61 267.24,-36.18 260.87,-27.51"/>
<polygon fill="#63b8ff" stroke="#63b8ff" points="263.55,-25.25 254.81,-19.27 257.91,-29.4 263.55,-25.25"/>
</a>
</g>
</g>
<!-- Node5&#45;&gt;Node3 -->
<g id="edge12_Node000005_Node000003" class="edge">
<title>Node5&#45;&gt;Node3</title>
<g id="a_edge12_Node000005_Node000003"><a xlink:title=" ">
<path fill="none" stroke="#63b8ff" d="M76.32,-186.68C54.09,-166.68 16.62,-127.96 4.37,-85 0.71,-72.18 -2.54,-66.41 4.37,-55 14.55,-38.17 33.44,-27.39 50.82,-20.67"/>
<polygon fill="#63b8ff" stroke="#63b8ff" points="52,-23.97 60.26,-17.34 49.67,-17.37 52,-23.97"/>
</a>
</g>
</g>
<!-- Node6 -->
<g id="Node000006" class="node">
<title>Node6</title>
<g id="a_Node000006"><a xlink:href="rollout__strategy__interface_8h.html" target="_top" xlink:title=" ">
<polygon fill="white" stroke="#666666" points="223.87,-151 68.87,-151 68.87,-121 223.87,-121 223.87,-151"/>
<text text-anchor="start" x="76.87" y="-139" font-family="Helvetica,sans-Serif" font-size="10.00">monte_carlo/models</text>
<text text-anchor="middle" x="146.37" y="-128" font-family="Helvetica,sans-Serif" font-size="10.00">/rollout_strategy_interface.h</text>
</a>
</g>
</g>
<!-- Node5&#45;&gt;Node6 -->
<g id="edge5_Node000005_Node000006" class="edge">
<title>Node5&#45;&gt;Node6</title>
<g id="a_edge5_Node000005_Node000006"><a xlink:title=" ">
<path fill="none" stroke="#63b8ff" d="M105.13,-186.8C111.92,-178.59 120.61,-168.1 128.26,-158.87"/>
<polygon fill="#63b8ff" stroke="#63b8ff" points="130.95,-161.1 134.64,-151.16 125.56,-156.63 130.95,-161.1"/>
</a>
</g>
</g>
<!-- Node8 -->
<g id="Node000008" class="node">
<title>Node8</title>
<g id="a_Node000008"><a xlink:title=" ">
<polygon fill="#e0e0e0" stroke="#999999" points="60.87,-79.5 13.87,-79.5 13.87,-60.5 60.87,-60.5 60.87,-79.5"/>
<text text-anchor="middle" x="37.37" y="-67.5" font-family="Helvetica,sans-Serif" font-size="10.00">vector</text>
</a>
</g>
</g>
<!-- Node5&#45;&gt;Node8 -->
<g id="edge11_Node000005_Node000008" class="edge">
<title>Node5&#45;&gt;Node8</title>
<g id="a_edge11_Node000005_Node000008"><a xlink:title=" ">
<path fill="none" stroke="#63b8ff" d="M81.9,-186.88C74.58,-177.26 65.35,-163.96 59.37,-151 50.14,-131.03 44.09,-106.41 40.71,-89.8"/>
<polygon fill="#63b8ff" stroke="#63b8ff" points="44.1,-88.9 38.79,-79.73 37.23,-90.21 44.1,-88.9"/>
</a>
</g>
</g>
<!-- Node6&#45;&gt;Node2 -->
<g id="edge6_Node000006_Node000002" class="edge">
<title>Node6&#45;&gt;Node2</title>
<g id="a_edge6_Node000006_Node000002"><a xlink:title=" ">
<path fill="none" stroke="#63b8ff" d="M178.19,-120.95C199.34,-111.62 227.33,-99.27 250.18,-89.18"/>
<polygon fill="#63b8ff" stroke="#63b8ff" points="251.88,-92.25 259.62,-85.01 249.06,-85.85 251.88,-92.25"/>
</a>
</g>
</g>
<!-- Node6&#45;&gt;Node3 -->
<g id="edge8_Node000006_Node000003" class="edge">
<title>Node6&#45;&gt;Node3</title>
<g id="a_edge8_Node000006_Node000003"><a xlink:title=" ">
<path fill="none" stroke="#63b8ff" d="M133.03,-120.72C124.83,-111.24 114.72,-98.16 108.37,-85 99.68,-67.01 94.66,-44.59 91.98,-29.07"/>
<polygon fill="#63b8ff" stroke="#63b8ff" points="95.43,-28.49 90.43,-19.15 88.52,-29.57 95.43,-28.49"/>
</a>
</g>
</g>
<!-- Node6&#45;&gt;Node4 -->
<g id="edge9_Node000006_Node000004" class="edge">
<title>Node6&#45;&gt;Node4</title>
<g id="a_edge9_Node000006_Node000004"><a xlink:title=" ">
<path fill="none" stroke="#63b8ff" d="M158.07,-120.72C177.08,-97.51 214.59,-51.73 234.76,-27.1"/>
<polygon fill="#63b8ff" stroke="#63b8ff" points="237.72,-29.02 241.35,-19.07 232.3,-24.59 237.72,-29.02"/>
</a>
</g>
</g>
<!-- Node7 -->
<g id="Node000007" class="node">
<title>Node7</title>
<g id="a_Node000007"><a xlink:title=" ">
<polygon fill="#e0e0e0" stroke="#999999" points="177.37,-79.5 117.37,-79.5 117.37,-60.5 177.37,-60.5 177.37,-79.5"/>
<text text-anchor="middle" x="147.37" y="-67.5" font-family="Helvetica,sans-Serif" font-size="10.00">iostream</text>
</a>
</g>
</g>
<!-- Node6&#45;&gt;Node7 -->
<g id="edge7_Node000006_Node000007" class="edge">
<title>Node6&#45;&gt;Node7</title>
<g id="a_edge7_Node000006_Node000007"><a xlink:title=" ">
<path fill="none" stroke="#63b8ff" d="M146.59,-120.8C146.73,-111.7 146.92,-99.79 147.07,-89.9"/>
<polygon fill="#63b8ff" stroke="#63b8ff" points="150.57,-89.9 147.23,-79.84 143.57,-89.79 150.57,-89.9"/>
</a>
</g>
</g>
<!-- Node6&#45;&gt;Node8 -->
<g id="edge10_Node000006_Node000008" class="edge">
<title>Node6&#45;&gt;Node8</title>
<g id="a_edge10_Node000006_Node000008"><a xlink:title=" ">
<path fill="none" stroke="#63b8ff" d="M122.45,-120.95C104.09,-110.18 78.89,-95.38 60.68,-84.69"/>
<polygon fill="#63b8ff" stroke="#63b8ff" points="62.27,-81.56 51.87,-79.52 58.72,-87.6 62.27,-81.56"/>
</a>
</g>
</g>
</g>
</svg>
</svg>

<style type='text/css'>
<![CDATA[
[data-mouse-over-selected='false'] { opacity: 0.7; }
[data-mouse-over-selected='true']  { opacity: 1.0; }
]]>
</style>
<script type="application/ecmascript"><![CDATA[
document.addEventListener('DOMContentLoaded', (event) => {
  highlightEdges();
  highlightAdjacentNodes();
});
]]></script>
</svg>
