<?xml version="1.0" encoding="UTF-8" standalone="no"?>
<!DOCTYPE svg PUBLIC "-//W3C//DTD SVG 1.1//EN"
 "http://www.w3.org/Graphics/SVG/1.1/DTD/svg11.dtd">
<!-- Generated by graphviz version 2.43.0 (0)
 -->
<!-- Title: examples/monte_carlo/tic_tac_toe/include/tic_tac_toe/enums/alignment.h Pages: 1 -->
<!--zoomable 379 -->

<svg id="main" version="1.1" xmlns="http://www.w3.org/2000/svg" xmlns:xlink="http://www.w3.org/1999/xlink" xml:space="preserve" onload="init(evt)">
<style type="text/css"><![CDATA[
.node, .edge {opacity: 0.7;}
.node.selected, .edge.selected {opacity: 1;}
.edge:hover path { stroke: red; }
.edge:hover polygon { stroke: red; fill: red; }
]]></style>

<defs>
  <circle id="rim" cx="0" cy="0" r="7"/>
  <circle id="rim2" cx="0" cy="0" r="3.5"/>
  <g id="zoomPlus">
    <use xlink:href="#rim" fill="#404040"><set attributeName="fill" to="#808080" begin="zoomplus.mouseover" end="zoomplus.mouseout"/></use>
    <path d="M-4,0h8M0,-4v8" fill="none" stroke="white" stroke-width="1.5" pointer-events="none"/>
  </g>
  <g id="zoomMin">
    <use xlink:href="#rim" fill="#404040"><set attributeName="fill" to="#808080" begin="zoomminus.mouseover" end="zoomminus.mouseout"/></use>
    <path d="M-4,0h8" fill="none" stroke="white" stroke-width="1.5" pointer-events="none"/>
  </g>
  <g id="arrowUp" transform="translate(30 24)">
    <use xlink:href="#rim"/>
    <path pointer-events="none" fill="none" stroke="white" stroke-width="1.5" d="M0,-3.0v7 M-2.5,-0.5L0,-3.0L2.5,-0.5"/>
  </g>
  <g id="arrowRight" transform="rotate(90) translate(36 -43)">
    <use xlink:href="#rim"/>
    <path pointer-events="none" fill="none" stroke="white" stroke-width="1.5" d="M0,-3.0v7 M-2.5,-0.5L0,-3.0L2.5,-0.5"/>
  </g>
  <g id="arrowDown" transform="rotate(180) translate(-30 -48)">
    <use xlink:href="#rim"/>
    <path pointer-events="none" fill="none" stroke="white" stroke-width="1.5" d="M0,-3.0v7 M-2.5,-0.5L0,-3.0L2.5,-0.5"/>
  </g>
  <g id="arrowLeft" transform="rotate(270) translate(-36 17)">
    <use xlink:href="#rim"/>
    <path pointer-events="none" fill="none" stroke="white" stroke-width="1.5" d="M0,-3.0v7 M-2.5,-0.5L0,-3.0L2.5,-0.5"/>
  </g>
  <g id="resetDef">
    <use xlink:href="#rim2" fill="#404040"><set attributeName="fill" to="#808080" begin="reset.mouseover" end="reset.mouseout"/></use>
  </g>
</defs>
<script type="application/ecmascript">
var viewWidth = 1281;
var viewHeight = 379;
var sectionId = 'dynsection-0';
</script>
<script type="application/ecmascript" xlink:href="svg.min.js"/>
<svg id="graph" class="graph">
<g id="viewport">
<title>examples/monte_carlo/tic_tac_toe/include/tic_tac_toe/enums/alignment.h</title>
<!-- Node1 -->
<g id="Node000001" class="node">
<title>Node1</title>
<g id="a_Node000001"><a xlink:title=" ">
<polygon fill="#999999" stroke="#666666" points="656.5,-371 486.5,-371 486.5,-330 656.5,-330 656.5,-371"/>
<text text-anchor="start" x="494.5" y="-359" font-family="Helvetica,sans-Serif" font-size="10.00">examples/monte_carlo</text>
<text text-anchor="start" x="494.5" y="-348" font-family="Helvetica,sans-Serif" font-size="10.00">/tic_tac_toe/include</text>
<text text-anchor="middle" x="571.5" y="-337" font-family="Helvetica,sans-Serif" font-size="10.00">/tic_tac_toe/enums/alignment.h</text>
</a>
</g>
</g>
<!-- Node2 -->
<g id="Node000002" class="node">
<title>Node2</title>
<g id="a_Node000002"><a xlink:href="board_8h.html" target="_top" xlink:title=" ">
<polygon fill="white" stroke="#666666" points="647.5,-294 495.5,-294 495.5,-253 647.5,-253 647.5,-294"/>
<text text-anchor="start" x="503.5" y="-282" font-family="Helvetica,sans-Serif" font-size="10.00">examples/monte_carlo</text>
<text text-anchor="start" x="503.5" y="-271" font-family="Helvetica,sans-Serif" font-size="10.00">/tic_tac_toe/include</text>
<text text-anchor="middle" x="571.5" y="-260" font-family="Helvetica,sans-Serif" font-size="10.00">/tic_tac_toe/models/board.h</text>
</a>
</g>
</g>
<!-- Node1&#45;&gt;Node2 -->
<g id="edge1_Node000001_Node000002" class="edge">
<title>Node1&#45;&gt;Node2</title>
<g id="a_edge1_Node000001_Node000002"><a xlink:title=" ">
<path fill="none" stroke="#63b8ff" d="M571.5,-319.69C571.5,-311.08 571.5,-301.9 571.5,-294.07"/>
<polygon fill="#63b8ff" stroke="#63b8ff" points="568,-319.79 571.5,-329.79 575,-319.79 568,-319.79"/>
</a>
</g>
</g>
<!-- Node3 -->
<g id="Node000003" class="node">
<title>Node3</title>
<g id="a_Node000003"><a xlink:href="bot_8h.html" target="_top" xlink:title=" ">
<polygon fill="white" stroke="#666666" points="232.5,-123.5 92.5,-123.5 92.5,-82.5 232.5,-82.5 232.5,-123.5"/>
<text text-anchor="start" x="100.5" y="-111.5" font-family="Helvetica,sans-Serif" font-size="10.00">examples/monte_carlo</text>
<text text-anchor="start" x="100.5" y="-100.5" font-family="Helvetica,sans-Serif" font-size="10.00">/tic_tac_toe/include</text>
<text text-anchor="middle" x="162.5" y="-89.5" font-family="Helvetica,sans-Serif" font-size="10.00">/tic_tac_toe/models/bot.h</text>
</a>
</g>
</g>
<!-- Node2&#45;&gt;Node3 -->
<g id="edge2_Node000002_Node000003" class="edge">
<title>Node2&#45;&gt;Node3</title>
<g id="a_edge2_Node000002_Node000003"><a xlink:title=" ">
<path fill="none" stroke="#63b8ff" d="M484.86,-270.95C421.5,-266.52 335.32,-253.44 268.5,-217 226.94,-194.33 192.42,-149.42 174.91,-123.57"/>
<polygon fill="#63b8ff" stroke="#63b8ff" points="485.02,-274.46 495.22,-271.61 485.46,-267.48 485.02,-274.46"/>
</a>
</g>
</g>
<!-- Node5 -->
<g id="Node000005" class="node">
<title>Node5</title>
<g id="a_Node000005"><a xlink:href="bot_8cpp.html" target="_top" xlink:title=" ">
<polygon fill="white" stroke="#666666" points="129,-41 0,-41 0,0 129,0 129,-41"/>
<text text-anchor="start" x="8" y="-29" font-family="Helvetica,sans-Serif" font-size="10.00">examples/monte_carlo</text>
<text text-anchor="start" x="8" y="-18" font-family="Helvetica,sans-Serif" font-size="10.00">/tic_tac_toe/src/models</text>
<text text-anchor="middle" x="64.5" y="-7" font-family="Helvetica,sans-Serif" font-size="10.00">/bot.cpp</text>
</a>
</g>
</g>
<!-- Node2&#45;&gt;Node5 -->
<g id="edge32_Node000002_Node000005" class="edge">
<title>Node2&#45;&gt;Node5</title>
<g id="a_edge32_Node000002_Node000005"><a xlink:title=" ">
<path fill="none" stroke="#63b8ff" d="M485.2,-270.95C408.82,-266.93 295.64,-254.41 204.5,-217 142.98,-191.75 118.74,-185.39 83.5,-129 66.63,-102 63.72,-64.14 63.71,-41.3"/>
<polygon fill="#63b8ff" stroke="#63b8ff" points="485.1,-274.45 495.26,-271.44 485.44,-267.45 485.1,-274.45"/>
</a>
</g>
</g>
<!-- Node9 -->
<g id="Node000009" class="node">
<title>Node9</title>
<g id="a_Node000009"><a xlink:href="game_8h.html" target="_top" xlink:title=" ">
<polygon fill="white" stroke="#666666" points="429.5,-211.5 277.5,-211.5 277.5,-170.5 429.5,-170.5 429.5,-211.5"/>
<text text-anchor="start" x="285.5" y="-199.5" font-family="Helvetica,sans-Serif" font-size="10.00">examples/monte_carlo</text>
<text text-anchor="start" x="285.5" y="-188.5" font-family="Helvetica,sans-Serif" font-size="10.00">/tic_tac_toe/include</text>
<text text-anchor="middle" x="353.5" y="-177.5" font-family="Helvetica,sans-Serif" font-size="10.00">/tic_tac_toe/models/game.h</text>
</a>
</g>
</g>
<!-- Node2&#45;&gt;Node9 -->
<g id="edge8_Node000002_Node000009" class="edge">
<title>Node2&#45;&gt;Node9</title>
<g id="a_edge8_Node000002_Node000009"><a xlink:title=" ">
<path fill="none" stroke="#63b8ff" d="M509.05,-249.44C476.59,-237.45 437.36,-222.97 406.41,-211.54"/>
<polygon fill="#63b8ff" stroke="#63b8ff" points="507.86,-252.73 518.45,-252.91 510.28,-246.16 507.86,-252.73"/>
</a>
</g>
</g>
<!-- Node10 -->
<g id="Node000010" class="node">
<title>Node10</title>
<g id="a_Node000010"><a xlink:href="game_8cpp.html" target="_top" xlink:title=" ">
<polygon fill="white" stroke="#666666" points="418,-123.5 289,-123.5 289,-82.5 418,-82.5 418,-123.5"/>
<text text-anchor="start" x="297" y="-111.5" font-family="Helvetica,sans-Serif" font-size="10.00">examples/monte_carlo</text>
<text text-anchor="start" x="297" y="-100.5" font-family="Helvetica,sans-Serif" font-size="10.00">/tic_tac_toe/src/models</text>
<text text-anchor="middle" x="353.5" y="-89.5" font-family="Helvetica,sans-Serif" font-size="10.00">/game.cpp</text>
</a>
</g>
</g>
<!-- Node2&#45;&gt;Node10 -->
<g id="edge33_Node000002_Node000010" class="edge">
<title>Node2&#45;&gt;Node10</title>
<g id="a_edge33_Node000002_Node000010"><a xlink:title=" ">
<path fill="none" stroke="#63b8ff" d="M531.55,-247.26C518.12,-238.22 503.3,-227.63 490.5,-217 465.36,-196.12 463.42,-186.15 438.5,-165 421.05,-150.19 400.19,-135.18 383.5,-123.76"/>
<polygon fill="#63b8ff" stroke="#63b8ff" points="529.88,-250.35 540.14,-252.96 533.75,-244.52 529.88,-250.35"/>
</a>
</g>
</g>
<!-- Node11 -->
<g id="Node000011" class="node">
<title>Node11</title>
<g id="a_Node000011"><a xlink:href="game__state_8h.html" target="_top" xlink:title=" ">
<polygon fill="white" stroke="#666666" points="643,-217 500,-217 500,-165 643,-165 643,-217"/>
<text text-anchor="start" x="508" y="-205" font-family="Helvetica,sans-Serif" font-size="10.00">examples/monte_carlo</text>
<text text-anchor="start" x="508" y="-194" font-family="Helvetica,sans-Serif" font-size="10.00">/tic_tac_toe/include</text>
<text text-anchor="start" x="508" y="-183" font-family="Helvetica,sans-Serif" font-size="10.00">/tic_tac_toe/models/game</text>
<text text-anchor="middle" x="571.5" y="-172" font-family="Helvetica,sans-Serif" font-size="10.00">_state.h</text>
</a>
</g>
</g>
<!-- Node2&#45;&gt;Node11 -->
<g id="edge11_Node000002_Node000011" class="edge">
<title>Node2&#45;&gt;Node11</title>
<g id="a_edge11_Node000002_Node000011"><a xlink:title=" ">
<path fill="none" stroke="#63b8ff" d="M571.5,-242.49C571.5,-234.15 571.5,-225.19 571.5,-217.16"/>
<polygon fill="#63b8ff" stroke="#63b8ff" points="568,-242.6 571.5,-252.6 575,-242.6 568,-242.6"/>
</a>
</g>
</g>
<!-- Node19 -->
<g id="Node000019" class="node">
<title>Node19</title>
<g id="a_Node000019"><a xlink:href="human_8h.html" target="_top" xlink:title=" ">
<polygon fill="white" stroke="#666666" points="819.5,-211.5 661.5,-211.5 661.5,-170.5 819.5,-170.5 819.5,-211.5"/>
<text text-anchor="start" x="669.5" y="-199.5" font-family="Helvetica,sans-Serif" font-size="10.00">examples/monte_carlo</text>
<text text-anchor="start" x="669.5" y="-188.5" font-family="Helvetica,sans-Serif" font-size="10.00">/tic_tac_toe/include</text>
<text text-anchor="middle" x="740.5" y="-177.5" font-family="Helvetica,sans-Serif" font-size="10.00">/tic_tac_toe/models/human.h</text>
</a>
</g>
</g>
<!-- Node2&#45;&gt;Node19 -->
<g id="edge27_Node000002_Node000019" class="edge">
<title>Node2&#45;&gt;Node19</title>
<g id="a_edge27_Node000002_Node000019"><a xlink:title=" ">
<path fill="none" stroke="#63b8ff" d="M622.05,-248.42C646.71,-236.67 676.01,-222.72 699.29,-211.63"/>
<polygon fill="#63b8ff" stroke="#63b8ff" points="620.37,-245.35 612.84,-252.81 623.38,-251.67 620.37,-245.35"/>
</a>
</g>
</g>
<!-- Node20 -->
<g id="Node000020" class="node">
<title>Node20</title>
<g id="a_Node000020"><a xlink:href="human_8cpp.html" target="_top" xlink:title=" ">
<polygon fill="white" stroke="#666666" points="1273,-123.5 1144,-123.5 1144,-82.5 1273,-82.5 1273,-123.5"/>
<text text-anchor="start" x="1152" y="-111.5" font-family="Helvetica,sans-Serif" font-size="10.00">examples/monte_carlo</text>
<text text-anchor="start" x="1152" y="-100.5" font-family="Helvetica,sans-Serif" font-size="10.00">/tic_tac_toe/src/models</text>
<text text-anchor="middle" x="1208.5" y="-89.5" font-family="Helvetica,sans-Serif" font-size="10.00">/human.cpp</text>
</a>
</g>
</g>
<!-- Node2&#45;&gt;Node20 -->
<g id="edge34_Node000002_Node000020" class="edge">
<title>Node2&#45;&gt;Node20</title>
<g id="a_edge34_Node000002_Node000020"><a xlink:title=" ">
<path fill="none" stroke="#63b8ff" d="M657.72,-269C710.56,-263.35 777.59,-249.63 828.5,-217 852.82,-201.41 842.58,-179.62 867.5,-165 970.77,-104.4 1017.91,-156.29 1134.5,-129 1141.1,-127.45 1147.95,-125.56 1154.69,-123.51"/>
<polygon fill="#63b8ff" stroke="#63b8ff" points="657.29,-265.52 647.69,-269.99 657.98,-272.49 657.29,-265.52"/>
</a>
</g>
</g>
<!-- Node21 -->
<g id="Node000021" class="node">
<title>Node21</title>
<g id="a_Node000021"><a xlink:href="board_8cpp.html" target="_top" xlink:title=" ">
<polygon fill="white" stroke="#666666" points="1005,-211.5 876,-211.5 876,-170.5 1005,-170.5 1005,-211.5"/>
<text text-anchor="start" x="884" y="-199.5" font-family="Helvetica,sans-Serif" font-size="10.00">examples/monte_carlo</text>
<text text-anchor="start" x="884" y="-188.5" font-family="Helvetica,sans-Serif" font-size="10.00">/tic_tac_toe/src/models</text>
<text text-anchor="middle" x="940.5" y="-177.5" font-family="Helvetica,sans-Serif" font-size="10.00">/board.cpp</text>
</a>
</g>
</g>
<!-- Node2&#45;&gt;Node21 -->
<g id="edge31_Node000002_Node000021" class="edge">
<title>Node2&#45;&gt;Node21</title>
<g id="a_edge31_Node000002_Node000021"><a xlink:title=" ">
<path fill="none" stroke="#63b8ff" d="M657.61,-258.75C715.61,-248.82 793.62,-234.17 861.5,-217 867.92,-215.38 874.58,-213.53 881.19,-211.59"/>
<polygon fill="#63b8ff" stroke="#63b8ff" points="657.02,-255.3 647.75,-260.42 658.2,-262.2 657.02,-255.3"/>
</a>
</g>
</g>
<!-- Node22 -->
<g id="Node000022" class="node">
<title>Node22</title>
<g id="a_Node000022"><a xlink:href="player_8cpp.html" target="_top" xlink:title=" ">
<polygon fill="white" stroke="#666666" points="1152,-211.5 1023,-211.5 1023,-170.5 1152,-170.5 1152,-211.5"/>
<text text-anchor="start" x="1031" y="-199.5" font-family="Helvetica,sans-Serif" font-size="10.00">examples/monte_carlo</text>
<text text-anchor="start" x="1031" y="-188.5" font-family="Helvetica,sans-Serif" font-size="10.00">/tic_tac_toe/src/models</text>
<text text-anchor="middle" x="1087.5" y="-177.5" font-family="Helvetica,sans-Serif" font-size="10.00">/player.cpp</text>
</a>
</g>
</g>
<!-- Node2&#45;&gt;Node22 -->
<g id="edge35_Node000002_Node000022" class="edge">
<title>Node2&#45;&gt;Node22</title>
<g id="a_edge35_Node000002_Node000022"><a xlink:title=" ">
<path fill="none" stroke="#63b8ff" d="M657.73,-266.96C747.68,-259.96 892.34,-245.25 1014.5,-217 1021.03,-215.49 1027.79,-213.62 1034.44,-211.58"/>
<polygon fill="#63b8ff" stroke="#63b8ff" points="657.28,-263.48 647.58,-267.74 657.82,-270.46 657.28,-263.48"/>
</a>
</g>
</g>
<!-- Node4 -->
<g id="Node000004" class="node">
<title>Node4</title>
<g id="a_Node000004"><a xlink:href="main_8cpp.html" target="_top" xlink:title=" ">
<polygon fill="white" stroke="#666666" points="611.5,-35.5 473.5,-35.5 473.5,-5.5 611.5,-5.5 611.5,-35.5"/>
<text text-anchor="start" x="481.5" y="-23.5" font-family="Helvetica,sans-Serif" font-size="10.00">examples/monte_carlo</text>
<text text-anchor="middle" x="542.5" y="-12.5" font-family="Helvetica,sans-Serif" font-size="10.00">/tic_tac_toe/src/main.cpp</text>
</a>
</g>
</g>
<!-- Node3&#45;&gt;Node4 -->
<g id="edge3_Node000003_Node000004" class="edge">
<title>Node3&#45;&gt;Node4</title>
<g id="a_edge3_Node000003_Node000004"><a xlink:title=" ">
<path fill="none" stroke="#63b8ff" d="M234.88,-79.84C238.8,-78.83 242.69,-77.88 246.5,-77 341.76,-55.01 367.75,-60.73 463.5,-41 471.39,-39.38 479.68,-37.51 487.8,-35.58"/>
<polygon fill="#63b8ff" stroke="#63b8ff" points="233.88,-76.48 225.11,-82.43 235.68,-83.25 233.88,-76.48"/>
</a>
</g>
</g>
<!-- Node3&#45;&gt;Node5 -->
<g id="edge4_Node000003_Node000005" class="edge">
<title>Node3&#45;&gt;Node5</title>
<g id="a_edge4_Node000003_Node000005"><a xlink:title=" ">
<path fill="none" stroke="#63b8ff" d="M130.74,-75.91C117.04,-64.65 101.28,-51.71 88.57,-41.27"/>
<polygon fill="#63b8ff" stroke="#63b8ff" points="128.58,-78.66 138.53,-82.31 133.02,-73.26 128.58,-78.66"/>
</a>
</g>
</g>
<!-- Node6 -->
<g id="Node000006" class="node">
<title>Node6</title>
<g id="a_Node000006"><a xlink:href="state_8cpp.html" target="_top" xlink:title=" ">
<polygon fill="white" stroke="#666666" points="776,-41 647,-41 647,0 776,0 776,-41"/>
<text text-anchor="start" x="655" y="-29" font-family="Helvetica,sans-Serif" font-size="10.00">examples/monte_carlo</text>
<text text-anchor="start" x="655" y="-18" font-family="Helvetica,sans-Serif" font-size="10.00">/tic_tac_toe/src/models</text>
<text text-anchor="middle" x="711.5" y="-7" font-family="Helvetica,sans-Serif" font-size="10.00">/state.cpp</text>
</a>
</g>
</g>
<!-- Node3&#45;&gt;Node6 -->
<g id="edge5_Node000003_Node000006" class="edge">
<title>Node3&#45;&gt;Node6</title>
<g id="a_edge5_Node000003_Node000006"><a xlink:title=" ">
<path fill="none" stroke="#63b8ff" d="M242.61,-83.72C254.92,-81.24 267.52,-78.91 279.5,-77 430,-53.04 470,-65 620.5,-41 628.96,-39.65 637.81,-38.03 646.54,-36.29"/>
<polygon fill="#63b8ff" stroke="#63b8ff" points="241.9,-80.29 232.81,-85.72 243.31,-87.15 241.9,-80.29"/>
</a>
</g>
</g>
<!-- Node7 -->
<g id="Node000007" class="node">
<title>Node7</title>
<g id="a_Node000007"><a xlink:href="state__tests_8cpp.html" target="_top" xlink:title=" ">
<polygon fill="white" stroke="#666666" points="281.5,-41 147.5,-41 147.5,0 281.5,0 281.5,-41"/>
<text text-anchor="start" x="155.5" y="-29" font-family="Helvetica,sans-Serif" font-size="10.00">examples/monte_carlo</text>
<text text-anchor="start" x="155.5" y="-18" font-family="Helvetica,sans-Serif" font-size="10.00">/tic_tac_toe/tests/model</text>
<text text-anchor="middle" x="214.5" y="-7" font-family="Helvetica,sans-Serif" font-size="10.00">_tests/state_tests.cpp</text>
</a>
</g>
</g>
<!-- Node3&#45;&gt;Node7 -->
<g id="edge6_Node000003_Node000007" class="edge">
<title>Node3&#45;&gt;Node7</title>
<g id="a_edge6_Node000003_Node000007"><a xlink:title=" ">
<path fill="none" stroke="#63b8ff" d="M180.92,-73.48C187.83,-62.79 195.52,-50.88 201.79,-41.17"/>
<polygon fill="#63b8ff" stroke="#63b8ff" points="177.84,-71.8 175.35,-82.1 183.72,-75.6 177.84,-71.8"/>
</a>
</g>
</g>
<!-- Node8 -->
<g id="Node000008" class="node">
<title>Node8</title>
<g id="a_Node000008"><a xlink:href="simulation__tests_8cpp.html" target="_top" xlink:title=" ">
<polygon fill="white" stroke="#666666" points="455,-41 300,-41 300,0 455,0 455,-41"/>
<text text-anchor="start" x="308" y="-29" font-family="Helvetica,sans-Serif" font-size="10.00">examples/monte_carlo</text>
<text text-anchor="start" x="308" y="-18" font-family="Helvetica,sans-Serif" font-size="10.00">/tic_tac_toe/tests/simulation</text>
<text text-anchor="middle" x="377.5" y="-7" font-family="Helvetica,sans-Serif" font-size="10.00">_tests.cpp</text>
</a>
</g>
</g>
<!-- Node3&#45;&gt;Node8 -->
<g id="edge7_Node000003_Node000008" class="edge">
<title>Node3&#45;&gt;Node8</title>
<g id="a_edge7_Node000003_Node000008"><a xlink:title=" ">
<path fill="none" stroke="#63b8ff" d="M224.5,-78.79C256.43,-66.83 294.93,-52.42 325.32,-41.04"/>
<polygon fill="#63b8ff" stroke="#63b8ff" points="222.96,-75.63 214.82,-82.41 225.41,-82.18 222.96,-75.63"/>
</a>
</g>
</g>
<!-- Node9&#45;&gt;Node4 -->
<g id="edge9_Node000009_Node000004" class="edge">
<title>Node9&#45;&gt;Node4</title>
<g id="a_edge9_Node000009_Node000004"><a xlink:title=" ">
<path fill="none" stroke="#63b8ff" d="M309.59,-164.22C297.58,-154.79 286.08,-142.95 279.5,-129 269.64,-108.1 264.81,-94.84 279.5,-77 332.46,-12.67 382.14,-58.99 463.5,-41 471.09,-39.32 479.06,-37.47 486.9,-35.58"/>
<polygon fill="#63b8ff" stroke="#63b8ff" points="307.8,-167.25 317.93,-170.36 311.95,-161.61 307.8,-167.25"/>
</a>
</g>
</g>
<!-- Node9&#45;&gt;Node10 -->
<g id="edge10_Node000009_Node000010" class="edge">
<title>Node9&#45;&gt;Node10</title>
<g id="a_edge10_Node000009_Node000010"><a xlink:title=" ">
<path fill="none" stroke="#63b8ff" d="M353.5,-160.36C353.5,-148.26 353.5,-134.58 353.5,-123.74"/>
<polygon fill="#63b8ff" stroke="#63b8ff" points="350,-160.49 353.5,-170.49 357,-160.49 350,-160.49"/>
</a>
</g>
</g>
<!-- Node11&#45;&gt;Node10 -->
<g id="edge25_Node000011_Node000010" class="edge">
<title>Node11&#45;&gt;Node10</title>
<g id="a_edge25_Node000011_Node000010"><a xlink:title=" ">
<path fill="none" stroke="#63b8ff" d="M498.29,-161.12C466.94,-148.75 431.16,-134.64 403.01,-123.53"/>
<polygon fill="#63b8ff" stroke="#63b8ff" points="497.27,-164.48 507.86,-164.89 499.84,-157.97 497.27,-164.48"/>
</a>
</g>
</g>
<!-- Node12 -->
<g id="Node000012" class="node">
<title>Node12</title>
<g id="a_Node000012"><a xlink:href="tic__tac__toe__factory_8h.html" target="_top" xlink:title=" ">
<polygon fill="white" stroke="#666666" points="564.5,-129 436.5,-129 436.5,-77 564.5,-77 564.5,-129"/>
<text text-anchor="start" x="444.5" y="-117" font-family="Helvetica,sans-Serif" font-size="10.00">examples/monte_carlo</text>
<text text-anchor="start" x="444.5" y="-106" font-family="Helvetica,sans-Serif" font-size="10.00">/tic_tac_toe/include</text>
<text text-anchor="start" x="444.5" y="-95" font-family="Helvetica,sans-Serif" font-size="10.00">/tic_tac_toe/factories</text>
<text text-anchor="middle" x="500.5" y="-84" font-family="Helvetica,sans-Serif" font-size="10.00">/tic_tac_toe_factory.h</text>
</a>
</g>
</g>
<!-- Node11&#45;&gt;Node12 -->
<g id="edge12_Node000011_Node000012" class="edge">
<title>Node11&#45;&gt;Node12</title>
<g id="a_edge12_Node000011_Node000012"><a xlink:title=" ">
<path fill="none" stroke="#63b8ff" d="M544.09,-156.8C536.51,-147.61 528.41,-137.8 521.27,-129.16"/>
<polygon fill="#63b8ff" stroke="#63b8ff" points="541.52,-159.18 550.58,-164.66 546.91,-154.72 541.52,-159.18"/>
</a>
</g>
</g>
<!-- Node14 -->
<g id="Node000014" class="node">
<title>Node14</title>
<g id="a_Node000014"><a xlink:href="move_8h.html" target="_top" xlink:title=" ">
<polygon fill="white" stroke="#666666" points="1125.5,-123.5 973.5,-123.5 973.5,-82.5 1125.5,-82.5 1125.5,-123.5"/>
<text text-anchor="start" x="981.5" y="-111.5" font-family="Helvetica,sans-Serif" font-size="10.00">examples/monte_carlo</text>
<text text-anchor="start" x="981.5" y="-100.5" font-family="Helvetica,sans-Serif" font-size="10.00">/tic_tac_toe/include</text>
<text text-anchor="middle" x="1049.5" y="-89.5" font-family="Helvetica,sans-Serif" font-size="10.00">/tic_tac_toe/models/move.h</text>
</a>
</g>
</g>
<!-- Node11&#45;&gt;Node14 -->
<g id="edge18_Node000011_Node000014" class="edge">
<title>Node11&#45;&gt;Node14</title>
<g id="a_edge18_Node000011_Node000014"><a xlink:title=" ">
<path fill="none" stroke="#63b8ff" d="M653.39,-165C790.97,-137.23 830.91,-156.14 964.5,-129 972.04,-127.47 979.87,-125.58 987.6,-123.54"/>
<polygon fill="#63b8ff" stroke="#63b8ff" points="652.39,-161.63 643.31,-167.08 653.81,-168.49 652.39,-161.63"/>
</a>
</g>
</g>
<!-- Node16 -->
<g id="Node000016" class="node">
<title>Node16</title>
<g id="a_Node000016"><a xlink:href="state_8h.html" target="_top" xlink:title=" ">
<polygon fill="white" stroke="#666666" points="955,-123.5 806,-123.5 806,-82.5 955,-82.5 955,-123.5"/>
<text text-anchor="start" x="814" y="-111.5" font-family="Helvetica,sans-Serif" font-size="10.00">examples/monte_carlo</text>
<text text-anchor="start" x="814" y="-100.5" font-family="Helvetica,sans-Serif" font-size="10.00">/tic_tac_toe/include</text>
<text text-anchor="middle" x="880.5" y="-89.5" font-family="Helvetica,sans-Serif" font-size="10.00">/tic_tac_toe/models/state.h</text>
</a>
</g>
</g>
<!-- Node11&#45;&gt;Node16 -->
<g id="edge21_Node000011_Node000016" class="edge">
<title>Node11&#45;&gt;Node16</title>
<g id="a_edge21_Node000011_Node000016"><a xlink:title=" ">
<path fill="none" stroke="#63b8ff" d="M652.91,-164.92C709.77,-148.64 763.68,-134.24 805.86,-123.21"/>
<polygon fill="#63b8ff" stroke="#63b8ff" points="651.65,-161.64 643.01,-167.77 653.59,-168.37 651.65,-161.64"/>
</a>
</g>
</g>
<!-- Node18 -->
<g id="Node000018" class="node">
<title>Node18</title>
<g id="a_Node000018"><a xlink:href="game__state_8cpp.html" target="_top" xlink:title=" ">
<polygon fill="white" stroke="#666666" points="712,-123.5 583,-123.5 583,-82.5 712,-82.5 712,-123.5"/>
<text text-anchor="start" x="591" y="-111.5" font-family="Helvetica,sans-Serif" font-size="10.00">examples/monte_carlo</text>
<text text-anchor="start" x="591" y="-100.5" font-family="Helvetica,sans-Serif" font-size="10.00">/tic_tac_toe/src/models</text>
<text text-anchor="middle" x="647.5" y="-89.5" font-family="Helvetica,sans-Serif" font-size="10.00">/game_state.cpp</text>
</a>
</g>
</g>
<!-- Node11&#45;&gt;Node18 -->
<g id="edge26_Node000011_Node000018" class="edge">
<title>Node11&#45;&gt;Node18</title>
<g id="a_edge26_Node000011_Node000018"><a xlink:title=" ">
<path fill="none" stroke="#63b8ff" d="M600.6,-157.07C610.55,-145.81 621.36,-133.58 630.09,-123.7"/>
<polygon fill="#63b8ff" stroke="#63b8ff" points="597.89,-154.85 593.89,-164.66 603.14,-159.49 597.89,-154.85"/>
</a>
</g>
</g>
<!-- Node12&#45;&gt;Node4 -->
<g id="edge14_Node000012_Node000004" class="edge">
<title>Node12&#45;&gt;Node4</title>
<g id="a_edge14_Node000012_Node000004"><a xlink:title=" ">
<path fill="none" stroke="#63b8ff" d="M518.33,-67.82C524.16,-56.66 530.31,-44.86 534.96,-35.96"/>
<polygon fill="#63b8ff" stroke="#63b8ff" points="515.08,-66.49 513.56,-76.97 521.29,-69.72 515.08,-66.49"/>
</a>
</g>
</g>
<!-- Node12&#45;&gt;Node5 -->
<g id="edge15_Node000012_Node000005" class="edge">
<title>Node12&#45;&gt;Node5</title>
<g id="a_edge15_Node000012_Node000005"><a xlink:title=" ">
<path fill="none" stroke="#63b8ff" d="M426.02,-77.12C298.89,-49.06 261.93,-64.87 138.5,-41 135.5,-40.42 132.44,-39.79 129.36,-39.11"/>
<polygon fill="#63b8ff" stroke="#63b8ff" points="425.62,-80.62 436.15,-79.41 427.16,-73.79 425.62,-80.62"/>
</a>
</g>
</g>
<!-- Node12&#45;&gt;Node7 -->
<g id="edge16_Node000012_Node000007" class="edge">
<title>Node12&#45;&gt;Node7</title>
<g id="a_edge16_Node000012_Node000007"><a xlink:title=" ">
<path fill="none" stroke="#63b8ff" d="M426.8,-77.09C426.7,-77.06 426.6,-77.03 426.5,-77 412.45,-72.79 338.36,-53.51 281.69,-38.84"/>
<polygon fill="#63b8ff" stroke="#63b8ff" points="425.83,-80.45 436.41,-80.04 427.88,-73.76 425.83,-80.45"/>
</a>
</g>
</g>
<!-- Node12&#45;&gt;Node8 -->
<g id="edge17_Node000012_Node000008" class="edge">
<title>Node12&#45;&gt;Node8</title>
<g id="a_edge17_Node000012_Node000008"><a xlink:title=" ">
<path fill="none" stroke="#63b8ff" d="M453.8,-71.44C438.28,-61.28 421.43,-50.25 407.52,-41.15"/>
<polygon fill="#63b8ff" stroke="#63b8ff" points="451.97,-74.42 462.26,-76.97 455.81,-68.57 451.97,-74.42"/>
</a>
</g>
</g>
<!-- Node13 -->
<g id="Node000013" class="node">
<title>Node13</title>
<g id="a_Node000013"><a xlink:href="tic__tac__toe__factory_8cpp.html" target="_top" xlink:title=" ">
<polygon fill="white" stroke="#666666" points="930.5,-41 794.5,-41 794.5,0 930.5,0 930.5,-41"/>
<text text-anchor="start" x="802.5" y="-29" font-family="Helvetica,sans-Serif" font-size="10.00">examples/monte_carlo</text>
<text text-anchor="start" x="802.5" y="-18" font-family="Helvetica,sans-Serif" font-size="10.00">/tic_tac_toe/src/factories</text>
<text text-anchor="middle" x="862.5" y="-7" font-family="Helvetica,sans-Serif" font-size="10.00">/tic_tac_toe_factory.cpp</text>
</a>
</g>
</g>
<!-- Node12&#45;&gt;Node13 -->
<g id="edge13_Node000012_Node000013" class="edge">
<title>Node12&#45;&gt;Node13</title>
<g id="a_edge13_Node000012_Node000013"><a xlink:title=" ">
<path fill="none" stroke="#63b8ff" d="M574.66,-76.87C667.91,-53.9 695.1,-60.09 785.5,-41 788.33,-40.4 791.22,-39.77 794.13,-39.12"/>
<polygon fill="#63b8ff" stroke="#63b8ff" points="573.66,-73.51 564.82,-79.34 575.37,-80.3 573.66,-73.51"/>
</a>
</g>
</g>
<!-- Node14&#45;&gt;Node13 -->
<g id="edge19_Node000014_Node000013" class="edge">
<title>Node14&#45;&gt;Node13</title>
<g id="a_edge19_Node000014_Node000013"><a xlink:title=" ">
<path fill="none" stroke="#63b8ff" d="M994.29,-78.23C966.85,-66.42 934.09,-52.32 908.1,-41.13"/>
<polygon fill="#63b8ff" stroke="#63b8ff" points="993.19,-81.57 1003.75,-82.31 995.95,-75.14 993.19,-81.57"/>
</a>
</g>
</g>
<!-- Node15 -->
<g id="Node000015" class="node">
<title>Node15</title>
<g id="a_Node000015"><a xlink:href="move_8cpp.html" target="_top" xlink:title=" ">
<polygon fill="white" stroke="#666666" points="1225,-41 1096,-41 1096,0 1225,0 1225,-41"/>
<text text-anchor="start" x="1104" y="-29" font-family="Helvetica,sans-Serif" font-size="10.00">examples/monte_carlo</text>
<text text-anchor="start" x="1104" y="-18" font-family="Helvetica,sans-Serif" font-size="10.00">/tic_tac_toe/src/models</text>
<text text-anchor="middle" x="1160.5" y="-7" font-family="Helvetica,sans-Serif" font-size="10.00">/move.cpp</text>
</a>
</g>
</g>
<!-- Node14&#45;&gt;Node15 -->
<g id="edge20_Node000014_Node000015" class="edge">
<title>Node14&#45;&gt;Node15</title>
<g id="a_edge20_Node000014_Node000015"><a xlink:title=" ">
<path fill="none" stroke="#63b8ff" d="M1085.04,-76.22C1100.66,-64.9 1118.71,-51.81 1133.24,-41.27"/>
<polygon fill="#63b8ff" stroke="#63b8ff" points="1082.69,-73.6 1076.65,-82.31 1086.8,-79.27 1082.69,-73.6"/>
</a>
</g>
</g>
<!-- Node16&#45;&gt;Node6 -->
<g id="edge24_Node000016_Node000006" class="edge">
<title>Node16&#45;&gt;Node6</title>
<g id="a_edge24_Node000016_Node000006"><a xlink:title=" ">
<path fill="none" stroke="#63b8ff" d="M829.95,-77.92C805.29,-66.17 775.99,-52.22 752.71,-41.13"/>
<polygon fill="#63b8ff" stroke="#63b8ff" points="828.62,-81.17 839.16,-82.31 831.63,-74.85 828.62,-81.17"/>
</a>
</g>
</g>
<!-- Node16&#45;&gt;Node13 -->
<g id="edge22_Node000016_Node000013" class="edge">
<title>Node16&#45;&gt;Node13</title>
<g id="a_edge22_Node000016_Node000013"><a xlink:title=" ">
<path fill="none" stroke="#63b8ff" d="M873.83,-72.19C871.52,-61.84 868.98,-50.5 866.9,-41.17"/>
<polygon fill="#63b8ff" stroke="#63b8ff" points="870.45,-73.11 876.05,-82.1 877.28,-71.58 870.45,-73.11"/>
</a>
</g>
</g>
<!-- Node17 -->
<g id="Node000017" class="node">
<title>Node17</title>
<g id="a_Node000017"><a xlink:href="position_8cpp.html" target="_top" xlink:title=" ">
<polygon fill="white" stroke="#666666" points="1078,-41 949,-41 949,0 1078,0 1078,-41"/>
<text text-anchor="start" x="957" y="-29" font-family="Helvetica,sans-Serif" font-size="10.00">examples/monte_carlo</text>
<text text-anchor="start" x="957" y="-18" font-family="Helvetica,sans-Serif" font-size="10.00">/tic_tac_toe/src/models</text>
<text text-anchor="middle" x="1013.5" y="-7" font-family="Helvetica,sans-Serif" font-size="10.00">/position.cpp</text>
</a>
</g>
</g>
<!-- Node16&#45;&gt;Node17 -->
<g id="edge23_Node000016_Node000017" class="edge">
<title>Node16&#45;&gt;Node17</title>
<g id="a_edge23_Node000016_Node000017"><a xlink:title=" ">
<path fill="none" stroke="#63b8ff" d="M921.79,-77.01C940.8,-65.5 963.03,-52.05 980.84,-41.27"/>
<polygon fill="#63b8ff" stroke="#63b8ff" points="919.78,-74.14 913.04,-82.31 923.4,-80.12 919.78,-74.14"/>
</a>
</g>
</g>
<!-- Node19&#45;&gt;Node4 -->
<g id="edge28_Node000019_Node000004" class="edge">
<title>Node19&#45;&gt;Node4</title>
<g id="a_edge28_Node000019_Node000004"><a xlink:title=" ">
<path fill="none" stroke="#63b8ff" d="M743.5,-160.17C744.34,-135.04 741.32,-99.67 721.5,-77 706.67,-60.04 655.49,-45.18 611.64,-35.12"/>
<polygon fill="#63b8ff" stroke="#63b8ff" points="740.01,-160.06 742.95,-170.24 746.99,-160.45 740.01,-160.06"/>
</a>
</g>
</g>
<!-- Node19&#45;&gt;Node6 -->
<g id="edge30_Node000019_Node000006" class="edge">
<title>Node19&#45;&gt;Node6</title>
<g id="a_edge30_Node000019_Node000006"><a xlink:title=" ">
<path fill="none" stroke="#63b8ff" d="M751.16,-160.63C757.95,-137.38 763.86,-104.37 754.5,-77 749.92,-63.62 740.67,-50.97 731.91,-41.14"/>
<polygon fill="#63b8ff" stroke="#63b8ff" points="747.79,-159.67 748.14,-170.26 754.47,-161.77 747.79,-159.67"/>
</a>
</g>
</g>
<!-- Node19&#45;&gt;Node20 -->
<g id="edge29_Node000019_Node000020" class="edge">
<title>Node19&#45;&gt;Node20</title>
<g id="a_edge29_Node000019_Node000020"><a xlink:title=" ">
<path fill="none" stroke="#63b8ff" d="M818.91,-168.07C823.83,-166.96 828.72,-165.92 833.5,-165 965.79,-139.45 1003.09,-158.72 1134.5,-129 1141.11,-127.5 1147.97,-125.64 1154.71,-123.61"/>
<polygon fill="#63b8ff" stroke="#63b8ff" points="817.74,-164.75 808.81,-170.44 819.34,-171.56 817.74,-164.75"/>
</a>
</g>
</g>
</g>
</svg>

<g id="navigator" transform="translate(0 0)" fill="#404254">
  <rect fill="#f2f5e9" fill-opacity="0.5" stroke="#606060" stroke-width=".5" x="0" y="0" width="60" height="60"/>
  <use id="zoomplus" xlink:href="#zoomPlus" x="17" y="9" onmousedown="handleZoom(evt,'in')"/>
  <use id="zoomminus" xlink:href="#zoomMin" x="42" y="9" onmousedown="handleZoom(evt,'out')"/>
  <use id="reset" xlink:href="#resetDef" x="30" y="36" onmousedown="handleReset()"/>
   <use id="arrowup" xlink:href="#arrowUp" x="0" y="0" onmousedown="handlePan(0,-1)"/>
  <use id="arrowright" xlink:href="#arrowRight" x="0" y="0" onmousedown="handlePan(1,0)"/>
  <use id="arrowdown" xlink:href="#arrowDown" x="0" y="0" onmousedown="handlePan(0,1)"/>
  <use id="arrowleft" xlink:href="#arrowLeft" x="0" y="0" onmousedown="handlePan(-1,0)"/>
</g>
<svg viewBox="0 0 15 15" width="100%" height="30px" preserveAspectRatio="xMaxYMin meet">
 <g id="arrow_out" transform="scale(0.3 0.3)">
  <a xlink:href="alignment_8h__dep__incl_org.svg" target="_base">
   <rect id="button" ry="5" rx="5" y="6" x="6" height="38" width="38"
        fill="#f2f5e9" fill-opacity="0.5" stroke="#606060" stroke-width="1.0"/>
   <path id="arrow"
     d="M 11.500037,31.436501 C 11.940474,20.09759 22.043105,11.32322 32.158766,21.979434 L 37.068811,17.246167 C 37.068811,17.246167 37.088388,32 37.088388,32 L 22.160133,31.978069 C 22.160133,31.978069 26.997745,27.140456 26.997745,27.140456 C 18.528582,18.264221 13.291696,25.230495 11.500037,31.436501 z"
     style="fill:#404040;"/>
  </a>
 </g>
</svg>

<style type='text/css'>
<![CDATA[
[data-mouse-over-selected='false'] { opacity: 0.7; }
[data-mouse-over-selected='true']  { opacity: 1.0; }
]]>
</style>
<script type="application/ecmascript"><![CDATA[
document.addEventListener('DOMContentLoaded', (event) => {
  highlightEdges();
  highlightAdjacentNodes();
});
]]></script>
</svg>
