<?xml version="1.0" encoding="UTF-8" standalone="no"?>
<!DOCTYPE svg PUBLIC "-//W3C//DTD SVG 1.1//EN"
 "http://www.w3.org/Graphics/SVG/1.1/DTD/svg11.dtd">
<!-- Generated by graphviz version 2.43.0 (0)
 -->
<!-- Title: examples/monte_carlo/tic_tac_toe/include/tic_tac_toe/models/board.h Pages: 1 -->
<svg width="449pt" height="302pt"
 viewBox="0.00 0.00 448.50 302.00" xmlns="http://www.w3.org/2000/svg" xmlns:xlink="http://www.w3.org/1999/xlink">
<g id="graph0" class="graph" transform="scale(1 1) rotate(0) translate(4 298)">
<title>examples/monte_carlo/tic_tac_toe/include/tic_tac_toe/models/board.h</title>
<!-- Node1 -->
<g id="Node000001" class="node">
<title>Node1</title>
<g id="a_Node000001"><a xlink:title=" ">
<polygon fill="#999999" stroke="#666666" points="239,-294 87,-294 87,-253 239,-253 239,-294"/>
<text text-anchor="start" x="95" y="-282" font-family="Helvetica,sans-Serif" font-size="10.00">examples/monte_carlo</text>
<text text-anchor="start" x="95" y="-271" font-family="Helvetica,sans-Serif" font-size="10.00">/tic_tac_toe/include</text>
<text text-anchor="middle" x="163" y="-260" font-family="Helvetica,sans-Serif" font-size="10.00">/tic_tac_toe/models/board.h</text>
</a>
</g>
</g>
<!-- Node2 -->
<g id="Node000002" class="node">
<title>Node2</title>
<g id="a_Node000002"><a xlink:title=" ">
<polygon fill="#e0e0e0" stroke="#999999" points="51.5,-211.5 4.5,-211.5 4.5,-192.5 51.5,-192.5 51.5,-211.5"/>
<text text-anchor="middle" x="28" y="-199.5" font-family="Helvetica,sans-Serif" font-size="10.00">vector</text>
</a>
</g>
</g>
<!-- Node1&#45;&gt;Node2 -->
<g id="edge1_Node000001_Node000002" class="edge">
<title>Node1&#45;&gt;Node2</title>
<g id="a_edge1_Node000001_Node000002"><a xlink:title=" ">
<path fill="none" stroke="#63b8ff" d="M125.04,-252.96C102.15,-241.17 73.61,-226.48 53.42,-216.09"/>
<polygon fill="#63b8ff" stroke="#63b8ff" points="55.01,-212.97 44.52,-211.5 51.81,-219.19 55.01,-212.97"/>
</a>
</g>
</g>
<!-- Node3 -->
<g id="Node000003" class="node">
<title>Node3</title>
<g id="a_Node000003"><a xlink:href="player_8h.html" target="_top" xlink:title=" ">
<polygon fill="white" stroke="#666666" points="217.5,-217 108.5,-217 108.5,-187 217.5,-187 217.5,-217"/>
<text text-anchor="start" x="116.5" y="-205" font-family="Helvetica,sans-Serif" font-size="10.00">tic_tac_toe/models</text>
<text text-anchor="middle" x="163" y="-194" font-family="Helvetica,sans-Serif" font-size="10.00">/player.h</text>
</a>
</g>
</g>
<!-- Node1&#45;&gt;Node3 -->
<g id="edge2_Node000001_Node000003" class="edge">
<title>Node1&#45;&gt;Node3</title>
<g id="a_edge2_Node000001_Node000003"><a xlink:title=" ">
<path fill="none" stroke="#63b8ff" d="M163,-252.77C163,-244.85 163,-235.63 163,-227.3"/>
<polygon fill="#63b8ff" stroke="#63b8ff" points="166.5,-227.04 163,-217.04 159.5,-227.04 166.5,-227.04"/>
</a>
</g>
</g>
<!-- Node4 -->
<g id="Node000004" class="node">
<title>Node4</title>
<g id="a_Node000004"><a xlink:title=" ">
<polygon fill="#e0e0e0" stroke="#999999" points="103,-145.5 45,-145.5 45,-126.5 103,-126.5 103,-145.5"/>
<text text-anchor="middle" x="74" y="-133.5" font-family="Helvetica,sans-Serif" font-size="10.00">memory</text>
</a>
</g>
</g>
<!-- Node1&#45;&gt;Node4 -->
<g id="edge13_Node000001_Node000004" class="edge">
<title>Node1&#45;&gt;Node4</title>
<g id="a_edge13_Node000001_Node000004"><a xlink:title=" ">
<path fill="none" stroke="#63b8ff" d="M133.92,-252.91C121.64,-243.35 108.1,-230.9 99,-217 86.7,-198.21 80.14,-172.99 76.87,-155.93"/>
<polygon fill="#63b8ff" stroke="#63b8ff" points="80.24,-154.87 75.11,-145.6 73.34,-156.04 80.24,-154.87"/>
</a>
</g>
</g>
<!-- Node5 -->
<g id="Node000005" class="node">
<title>Node5</title>
<g id="a_Node000005"><a xlink:href="position_8h.html" target="_top" xlink:title=" ">
<polygon fill="white" stroke="#666666" points="306.5,-151 197.5,-151 197.5,-121 306.5,-121 306.5,-151"/>
<text text-anchor="start" x="205.5" y="-139" font-family="Helvetica,sans-Serif" font-size="10.00">tic_tac_toe/models</text>
<text text-anchor="middle" x="252" y="-128" font-family="Helvetica,sans-Serif" font-size="10.00">/position.h</text>
</a>
</g>
</g>
<!-- Node1&#45;&gt;Node5 -->
<g id="edge11_Node000001_Node000005" class="edge">
<title>Node1&#45;&gt;Node5</title>
<g id="a_edge11_Node000001_Node000005"><a xlink:title=" ">
<path fill="none" stroke="#63b8ff" d="M192.08,-252.91C204.36,-243.35 217.9,-230.9 227,-217 238.11,-200.02 244.54,-177.8 248.08,-161.09"/>
<polygon fill="#63b8ff" stroke="#63b8ff" points="251.57,-161.49 250.02,-151.01 244.7,-160.17 251.57,-161.49"/>
</a>
</g>
</g>
<!-- Node10 -->
<g id="Node000010" class="node">
<title>Node10</title>
<g id="a_Node000010"><a xlink:href="alignment_8h.html" target="_top" xlink:title=" ">
<polygon fill="white" stroke="#666666" points="440.5,-211.5 273.5,-211.5 273.5,-192.5 440.5,-192.5 440.5,-211.5"/>
<text text-anchor="middle" x="357" y="-199.5" font-family="Helvetica,sans-Serif" font-size="10.00">tic_tac_toe/enums/alignment.h</text>
</a>
</g>
</g>
<!-- Node1&#45;&gt;Node10 -->
<g id="edge12_Node000001_Node000010" class="edge">
<title>Node1&#45;&gt;Node10</title>
<g id="a_edge12_Node000001_Node000010"><a xlink:title=" ">
<path fill="none" stroke="#63b8ff" d="M217.56,-252.96C251.64,-240.74 294.44,-225.41 323.57,-214.98"/>
<polygon fill="#63b8ff" stroke="#63b8ff" points="325.03,-218.17 333.26,-211.5 322.67,-211.58 325.03,-218.17"/>
</a>
</g>
</g>
<!-- Node3&#45;&gt;Node4 -->
<g id="edge3_Node000003_Node000004" class="edge">
<title>Node3&#45;&gt;Node4</title>
<g id="a_edge3_Node000003_Node000004"><a xlink:title=" ">
<path fill="none" stroke="#63b8ff" d="M143.25,-186.8C128.74,-176.37 109.1,-162.24 94.44,-151.69"/>
<polygon fill="#63b8ff" stroke="#63b8ff" points="96.2,-148.66 86.04,-145.66 92.12,-154.34 96.2,-148.66"/>
</a>
</g>
</g>
<!-- Node3&#45;&gt;Node5 -->
<g id="edge4_Node000003_Node000005" class="edge">
<title>Node3&#45;&gt;Node5</title>
<g id="a_edge4_Node000003_Node000005"><a xlink:title=" ">
<path fill="none" stroke="#63b8ff" d="M182.75,-186.8C194.85,-178.1 210.53,-166.82 223.91,-157.2"/>
<polygon fill="#63b8ff" stroke="#63b8ff" points="226.23,-159.84 232.3,-151.16 222.14,-154.16 226.23,-159.84"/>
</a>
</g>
</g>
<!-- Node7 -->
<g id="Node000007" class="node">
<title>Node7</title>
<g id="a_Node000007"><a xlink:href="symbol_8h.html" target="_top" xlink:title=" ">
<polygon fill="white" stroke="#666666" points="288,-79.5 134,-79.5 134,-60.5 288,-60.5 288,-79.5"/>
<text text-anchor="middle" x="211" y="-67.5" font-family="Helvetica,sans-Serif" font-size="10.00">tic_tac_toe/enums/symbol.h</text>
</a>
</g>
</g>
<!-- Node3&#45;&gt;Node7 -->
<g id="edge8_Node000003_Node000007" class="edge">
<title>Node3&#45;&gt;Node7</title>
<g id="a_edge8_Node000003_Node000007"><a xlink:title=" ">
<path fill="none" stroke="#63b8ff" d="M167.09,-186.98C171.89,-170.89 180.31,-143.79 189,-121 193.12,-110.2 198.3,-98.35 202.61,-88.89"/>
<polygon fill="#63b8ff" stroke="#63b8ff" points="205.82,-90.29 206.83,-79.74 199.46,-87.35 205.82,-90.29"/>
</a>
</g>
</g>
<!-- Node9 -->
<g id="Node000009" class="node">
<title>Node9</title>
<g id="a_Node000009"><a xlink:href="observer_8h.html" target="_top" xlink:title=" ">
<polygon fill="white" stroke="#666666" points="116,-85 0,-85 0,-55 116,-55 116,-85"/>
<text text-anchor="start" x="8" y="-73" font-family="Helvetica,sans-Serif" font-size="10.00">tic_tac_toe/observer</text>
<text text-anchor="middle" x="58" y="-62" font-family="Helvetica,sans-Serif" font-size="10.00">/observer.h</text>
</a>
</g>
</g>
<!-- Node3&#45;&gt;Node9 -->
<g id="edge9_Node000003_Node000009" class="edge">
<title>Node3&#45;&gt;Node9</title>
<g id="a_edge9_Node000003_Node000009"><a xlink:title=" ">
<path fill="none" stroke="#63b8ff" d="M155.51,-186.96C146.35,-170.39 129.84,-142.37 112,-121 103.43,-110.73 92.84,-100.5 83.31,-91.99"/>
<polygon fill="#63b8ff" stroke="#63b8ff" points="85.46,-89.23 75.63,-85.29 80.86,-94.5 85.46,-89.23"/>
</a>
</g>
</g>
<!-- Node6 -->
<g id="Node000006" class="node">
<title>Node6</title>
<g id="a_Node000006"><a xlink:title=" ">
<polygon fill="#e0e0e0" stroke="#999999" points="351.5,-79.5 306.5,-79.5 306.5,-60.5 351.5,-60.5 351.5,-79.5"/>
<text text-anchor="middle" x="329" y="-67.5" font-family="Helvetica,sans-Serif" font-size="10.00">utility</text>
</a>
</g>
</g>
<!-- Node5&#45;&gt;Node6 -->
<g id="edge5_Node000005_Node000006" class="edge">
<title>Node5&#45;&gt;Node6</title>
<g id="a_edge5_Node000005_Node000006"><a xlink:title=" ">
<path fill="none" stroke="#63b8ff" d="M269.09,-120.8C281.33,-110.62 297.8,-96.93 310.38,-86.48"/>
<polygon fill="#63b8ff" stroke="#63b8ff" points="312.91,-88.93 318.36,-79.84 308.43,-83.54 312.91,-88.93"/>
</a>
</g>
</g>
<!-- Node5&#45;&gt;Node7 -->
<g id="edge6_Node000005_Node000007" class="edge">
<title>Node5&#45;&gt;Node7</title>
<g id="a_edge6_Node000005_Node000007"><a xlink:title=" ">
<path fill="none" stroke="#63b8ff" d="M242.9,-120.8C236.76,-111.21 228.62,-98.5 222.1,-88.32"/>
<polygon fill="#63b8ff" stroke="#63b8ff" points="225.01,-86.38 216.67,-79.84 219.11,-90.15 225.01,-86.38"/>
</a>
</g>
</g>
<!-- Node8 -->
<g id="Node000008" class="node">
<title>Node8</title>
<g id="a_Node000008"><a xlink:title=" ">
<polygon fill="#e0e0e0" stroke="#999999" points="156,-19 112,-19 112,0 156,0 156,-19"/>
<text text-anchor="middle" x="134" y="-7" font-family="Helvetica,sans-Serif" font-size="10.00">string</text>
</a>
</g>
</g>
<!-- Node7&#45;&gt;Node8 -->
<g id="edge7_Node000007_Node000008" class="edge">
<title>Node7&#45;&gt;Node8</title>
<g id="a_edge7_Node000007_Node000008"><a xlink:title=" ">
<path fill="none" stroke="#63b8ff" d="M199.64,-60.37C187.58,-51.21 168.3,-36.56 153.75,-25.51"/>
<polygon fill="#63b8ff" stroke="#63b8ff" points="155.49,-22.43 145.41,-19.17 151.25,-28 155.49,-22.43"/>
</a>
</g>
</g>
<!-- Node9&#45;&gt;Node8 -->
<g id="edge10_Node000009_Node000008" class="edge">
<title>Node9&#45;&gt;Node8</title>
<g id="a_edge10_Node000009_Node000008"><a xlink:title=" ">
<path fill="none" stroke="#63b8ff" d="M76.4,-54.84C87.88,-46 102.65,-34.63 114.36,-25.62"/>
<polygon fill="#63b8ff" stroke="#63b8ff" points="116.82,-28.14 122.61,-19.27 112.55,-22.59 116.82,-28.14"/>
</a>
</g>
</g>
</g>
</svg>
