<?xml version="1.0" encoding="UTF-8" standalone="no"?>
<!DOCTYPE svg PUBLIC "-//W3C//DTD SVG 1.1//EN"
 "http://www.w3.org/Graphics/SVG/1.1/DTD/svg11.dtd">
<!-- Generated by graphviz version 2.43.0 (0)
 -->
<!-- Title: examples/monte_carlo/tic_tac_toe/src/models/board.cpp Pages: 1 -->
<svg width="664pt" height="368pt"
 viewBox="0.00 0.00 663.50 368.00" xmlns="http://www.w3.org/2000/svg" xmlns:xlink="http://www.w3.org/1999/xlink">
<g id="graph0" class="graph" transform="scale(1 1) rotate(0) translate(4 364)">
<title>examples/monte_carlo/tic_tac_toe/src/models/board.cpp</title>
<!-- Node1 -->
<g id="Node000001" class="node">
<title>Node1</title>
<g id="a_Node000001"><a xlink:title=" ">
<polygon fill="#999999" stroke="#666666" points="528,-360 399,-360 399,-319 528,-319 528,-360"/>
<text text-anchor="start" x="407" y="-348" font-family="Helvetica,sans-Serif" font-size="10.00">examples/monte_carlo</text>
<text text-anchor="start" x="407" y="-337" font-family="Helvetica,sans-Serif" font-size="10.00">/tic_tac_toe/src/models</text>
<text text-anchor="middle" x="463.5" y="-326" font-family="Helvetica,sans-Serif" font-size="10.00">/board.cpp</text>
</a>
</g>
</g>
<!-- Node2 -->
<g id="Node000002" class="node">
<title>Node2</title>
<g id="a_Node000002"><a xlink:href="board_8h.html" target="_top" xlink:title=" ">
<polygon fill="white" stroke="#666666" points="262,-283 153,-283 153,-253 262,-253 262,-283"/>
<text text-anchor="start" x="161" y="-271" font-family="Helvetica,sans-Serif" font-size="10.00">tic_tac_toe/models</text>
<text text-anchor="middle" x="207.5" y="-260" font-family="Helvetica,sans-Serif" font-size="10.00">/board.h</text>
</a>
</g>
</g>
<!-- Node1&#45;&gt;Node2 -->
<g id="edge1_Node000001_Node000002" class="edge">
<title>Node1&#45;&gt;Node2</title>
<g id="a_edge1_Node000001_Node000002"><a xlink:title=" ">
<path fill="none" stroke="#63b8ff" d="M398.9,-320.96C359.03,-310.14 308.18,-296.33 268.91,-285.67"/>
<polygon fill="#63b8ff" stroke="#63b8ff" points="269.76,-282.28 259.19,-283.03 267.92,-289.03 269.76,-282.28"/>
</a>
</g>
</g>
<!-- Node3 -->
<g id="Node000003" class="node">
<title>Node3</title>
<g id="a_Node000003"><a xlink:title=" ">
<polygon fill="#e0e0e0" stroke="#999999" points="47,-211.5 0,-211.5 0,-192.5 47,-192.5 47,-211.5"/>
<text text-anchor="middle" x="23.5" y="-199.5" font-family="Helvetica,sans-Serif" font-size="10.00">vector</text>
</a>
</g>
</g>
<!-- Node1&#45;&gt;Node3 -->
<g id="edge18_Node000001_Node000003" class="edge">
<title>Node1&#45;&gt;Node3</title>
<g id="a_edge18_Node000001_Node000003"><a xlink:title=" ">
<path fill="none" stroke="#63b8ff" d="M398.83,-335.15C332.64,-329.93 227.81,-316.66 143.5,-283 103.67,-267.1 63.43,-236.67 41.15,-218.27"/>
<polygon fill="#63b8ff" stroke="#63b8ff" points="43.17,-215.4 33.27,-211.63 38.67,-220.75 43.17,-215.4"/>
</a>
</g>
</g>
<!-- Node6 -->
<g id="Node000006" class="node">
<title>Node6</title>
<g id="a_Node000006"><a xlink:href="position_8h.html" target="_top" xlink:title=" ">
<polygon fill="white" stroke="#666666" points="308,-151 199,-151 199,-121 308,-121 308,-151"/>
<text text-anchor="start" x="207" y="-139" font-family="Helvetica,sans-Serif" font-size="10.00">tic_tac_toe/models</text>
<text text-anchor="middle" x="253.5" y="-128" font-family="Helvetica,sans-Serif" font-size="10.00">/position.h</text>
</a>
</g>
</g>
<!-- Node1&#45;&gt;Node6 -->
<g id="edge15_Node000001_Node000006" class="edge">
<title>Node1&#45;&gt;Node6</title>
<g id="a_edge15_Node000001_Node000006"><a xlink:title=" ">
<path fill="none" stroke="#63b8ff" d="M467.5,-318.78C472.74,-286.94 477.79,-224.03 445.5,-187 428.72,-167.75 366.96,-154.03 317.96,-145.88"/>
<polygon fill="#63b8ff" stroke="#63b8ff" points="318.46,-142.42 308.03,-144.28 317.34,-149.33 318.46,-142.42"/>
</a>
</g>
</g>
<!-- Node12 -->
<g id="Node000012" class="node">
<title>Node12</title>
<g id="a_Node000012"><a xlink:title=" ">
<polygon fill="#e0e0e0" stroke="#999999" points="577.5,-277.5 491.5,-277.5 491.5,-258.5 577.5,-258.5 577.5,-277.5"/>
<text text-anchor="middle" x="534.5" y="-265.5" font-family="Helvetica,sans-Serif" font-size="10.00">unordered_set</text>
</a>
</g>
</g>
<!-- Node1&#45;&gt;Node12 -->
<g id="edge16_Node000001_Node000012" class="edge">
<title>Node1&#45;&gt;Node12</title>
<g id="a_edge16_Node000001_Node000012"><a xlink:title=" ">
<path fill="none" stroke="#63b8ff" d="M483.66,-318.77C494.63,-308.02 508.03,-294.91 518.32,-284.84"/>
<polygon fill="#63b8ff" stroke="#63b8ff" points="520.79,-287.32 525.49,-277.82 515.9,-282.31 520.79,-287.32"/>
</a>
</g>
</g>
<!-- Node13 -->
<g id="Node000013" class="node">
<title>Node13</title>
<g id="a_Node000013"><a xlink:title=" ">
<polygon fill="#e0e0e0" stroke="#999999" points="655.5,-277.5 595.5,-277.5 595.5,-258.5 655.5,-258.5 655.5,-277.5"/>
<text text-anchor="middle" x="625.5" y="-265.5" font-family="Helvetica,sans-Serif" font-size="10.00">iostream</text>
</a>
</g>
</g>
<!-- Node1&#45;&gt;Node13 -->
<g id="edge17_Node000001_Node000013" class="edge">
<title>Node1&#45;&gt;Node13</title>
<g id="a_edge17_Node000001_Node000013"><a xlink:title=" ">
<path fill="none" stroke="#63b8ff" d="M509.06,-318.96C537.02,-306.96 572.01,-291.95 596.3,-281.53"/>
<polygon fill="#63b8ff" stroke="#63b8ff" points="597.87,-284.66 605.68,-277.5 595.11,-278.23 597.87,-284.66"/>
</a>
</g>
</g>
<!-- Node2&#45;&gt;Node3 -->
<g id="edge2_Node000002_Node000003" class="edge">
<title>Node2&#45;&gt;Node3</title>
<g id="a_edge2_Node000002_Node000003"><a xlink:title=" ">
<path fill="none" stroke="#63b8ff" d="M165.56,-252.92C136.33,-243.04 96.47,-229.43 61.5,-217 59.66,-216.35 57.78,-215.67 55.87,-214.98"/>
<polygon fill="#63b8ff" stroke="#63b8ff" points="56.97,-211.66 46.38,-211.53 54.57,-218.24 56.97,-211.66"/>
</a>
</g>
</g>
<!-- Node4 -->
<g id="Node000004" class="node">
<title>Node4</title>
<g id="a_Node000004"><a xlink:href="player_8h.html" target="_top" xlink:title=" ">
<polygon fill="white" stroke="#666666" points="213,-217 104,-217 104,-187 213,-187 213,-217"/>
<text text-anchor="start" x="112" y="-205" font-family="Helvetica,sans-Serif" font-size="10.00">tic_tac_toe/models</text>
<text text-anchor="middle" x="158.5" y="-194" font-family="Helvetica,sans-Serif" font-size="10.00">/player.h</text>
</a>
</g>
</g>
<!-- Node2&#45;&gt;Node4 -->
<g id="edge3_Node000002_Node000004" class="edge">
<title>Node2&#45;&gt;Node4</title>
<g id="a_edge3_Node000002_Node000004"><a xlink:title=" ">
<path fill="none" stroke="#63b8ff" d="M196.63,-252.8C190.41,-244.68 182.48,-234.31 175.46,-225.15"/>
<polygon fill="#63b8ff" stroke="#63b8ff" points="178.2,-222.98 169.34,-217.16 172.64,-227.23 178.2,-222.98"/>
</a>
</g>
</g>
<!-- Node5 -->
<g id="Node000005" class="node">
<title>Node5</title>
<g id="a_Node000005"><a xlink:title=" ">
<polygon fill="#e0e0e0" stroke="#999999" points="104.5,-145.5 46.5,-145.5 46.5,-126.5 104.5,-126.5 104.5,-145.5"/>
<text text-anchor="middle" x="75.5" y="-133.5" font-family="Helvetica,sans-Serif" font-size="10.00">memory</text>
</a>
</g>
</g>
<!-- Node2&#45;&gt;Node5 -->
<g id="edge14_Node000002_Node000005" class="edge">
<title>Node2&#45;&gt;Node5</title>
<g id="a_edge14_Node000002_Node000005"><a xlink:title=" ">
<path fill="none" stroke="#63b8ff" d="M152.72,-254.05C131.74,-246.5 109.31,-234.81 94.5,-217 80.12,-199.71 76.25,-173.42 75.39,-155.74"/>
<polygon fill="#63b8ff" stroke="#63b8ff" points="78.88,-155.48 75.18,-145.55 71.89,-155.62 78.88,-155.48"/>
</a>
</g>
</g>
<!-- Node2&#45;&gt;Node6 -->
<g id="edge12_Node000002_Node000006" class="edge">
<title>Node2&#45;&gt;Node6</title>
<g id="a_edge12_Node000002_Node000006"><a xlink:title=" ">
<path fill="none" stroke="#63b8ff" d="M212.51,-252.84C220.36,-230.67 235.63,-187.51 245.15,-160.59"/>
<polygon fill="#63b8ff" stroke="#63b8ff" points="248.46,-161.74 248.5,-151.14 241.86,-159.4 248.46,-161.74"/>
</a>
</g>
</g>
<!-- Node11 -->
<g id="Node000011" class="node">
<title>Node11</title>
<g id="a_Node000011"><a xlink:href="alignment_8h.html" target="_top" xlink:title=" ">
<polygon fill="white" stroke="#666666" points="436,-211.5 269,-211.5 269,-192.5 436,-192.5 436,-211.5"/>
<text text-anchor="middle" x="352.5" y="-199.5" font-family="Helvetica,sans-Serif" font-size="10.00">tic_tac_toe/enums/alignment.h</text>
</a>
</g>
</g>
<!-- Node2&#45;&gt;Node11 -->
<g id="edge13_Node000002_Node000011" class="edge">
<title>Node2&#45;&gt;Node11</title>
<g id="a_edge13_Node000002_Node000011"><a xlink:title=" ">
<path fill="none" stroke="#63b8ff" d="M239.32,-252.95C264.53,-241.83 299.43,-226.42 323.79,-215.67"/>
<polygon fill="#63b8ff" stroke="#63b8ff" points="325.47,-218.76 333.2,-211.52 322.64,-212.35 325.47,-218.76"/>
</a>
</g>
</g>
<!-- Node4&#45;&gt;Node5 -->
<g id="edge4_Node000004_Node000005" class="edge">
<title>Node4&#45;&gt;Node5</title>
<g id="a_edge4_Node000004_Node000005"><a xlink:title=" ">
<path fill="none" stroke="#63b8ff" d="M140.08,-186.8C126.76,-176.53 108.79,-162.67 95.19,-152.18"/>
<polygon fill="#63b8ff" stroke="#63b8ff" points="97.03,-149.18 86.97,-145.84 92.75,-154.72 97.03,-149.18"/>
</a>
</g>
</g>
<!-- Node4&#45;&gt;Node6 -->
<g id="edge5_Node000004_Node000006" class="edge">
<title>Node4&#45;&gt;Node6</title>
<g id="a_edge5_Node000004_Node000006"><a xlink:title=" ">
<path fill="none" stroke="#63b8ff" d="M179.58,-186.8C192.62,-178.01 209.55,-166.61 223.92,-156.93"/>
<polygon fill="#63b8ff" stroke="#63b8ff" points="226.14,-159.65 232.48,-151.16 222.23,-153.85 226.14,-159.65"/>
</a>
</g>
</g>
<!-- Node8 -->
<g id="Node000008" class="node">
<title>Node8</title>
<g id="a_Node000008"><a xlink:href="symbol_8h.html" target="_top" xlink:title=" ">
<polygon fill="white" stroke="#666666" points="289.5,-79.5 135.5,-79.5 135.5,-60.5 289.5,-60.5 289.5,-79.5"/>
<text text-anchor="middle" x="212.5" y="-67.5" font-family="Helvetica,sans-Serif" font-size="10.00">tic_tac_toe/enums/symbol.h</text>
</a>
</g>
</g>
<!-- Node4&#45;&gt;Node8 -->
<g id="edge9_Node000004_Node000008" class="edge">
<title>Node4&#45;&gt;Node8</title>
<g id="a_edge9_Node000004_Node000008"><a xlink:title=" ">
<path fill="none" stroke="#63b8ff" d="M164.02,-186.78C170.29,-170.74 180.89,-143.9 190.5,-121 194.98,-110.34 200.18,-98.49 204.4,-89.01"/>
<polygon fill="#63b8ff" stroke="#63b8ff" points="207.62,-90.37 208.51,-79.81 201.24,-87.51 207.62,-90.37"/>
</a>
</g>
</g>
<!-- Node10 -->
<g id="Node000010" class="node">
<title>Node10</title>
<g id="a_Node000010"><a xlink:href="observer_8h.html" target="_top" xlink:title=" ">
<polygon fill="white" stroke="#666666" points="117.5,-85 1.5,-85 1.5,-55 117.5,-55 117.5,-85"/>
<text text-anchor="start" x="9.5" y="-73" font-family="Helvetica,sans-Serif" font-size="10.00">tic_tac_toe/observer</text>
<text text-anchor="middle" x="59.5" y="-62" font-family="Helvetica,sans-Serif" font-size="10.00">/observer.h</text>
</a>
</g>
</g>
<!-- Node4&#45;&gt;Node10 -->
<g id="edge10_Node000004_Node000010" class="edge">
<title>Node4&#45;&gt;Node10</title>
<g id="a_edge10_Node000004_Node000010"><a xlink:title=" ">
<path fill="none" stroke="#63b8ff" d="M152.22,-186.89C144.45,-170.23 130.18,-142.14 113.5,-121 105.21,-110.5 94.67,-100.23 85.11,-91.75"/>
<polygon fill="#63b8ff" stroke="#63b8ff" points="87.24,-88.96 77.38,-85.09 82.67,-94.27 87.24,-88.96"/>
</a>
</g>
</g>
<!-- Node7 -->
<g id="Node000007" class="node">
<title>Node7</title>
<g id="a_Node000007"><a xlink:title=" ">
<polygon fill="#e0e0e0" stroke="#999999" points="353,-79.5 308,-79.5 308,-60.5 353,-60.5 353,-79.5"/>
<text text-anchor="middle" x="330.5" y="-67.5" font-family="Helvetica,sans-Serif" font-size="10.00">utility</text>
</a>
</g>
</g>
<!-- Node6&#45;&gt;Node7 -->
<g id="edge6_Node000006_Node000007" class="edge">
<title>Node6&#45;&gt;Node7</title>
<g id="a_edge6_Node000006_Node000007"><a xlink:title=" ">
<path fill="none" stroke="#63b8ff" d="M270.59,-120.8C282.83,-110.62 299.3,-96.93 311.88,-86.48"/>
<polygon fill="#63b8ff" stroke="#63b8ff" points="314.41,-88.93 319.86,-79.84 309.93,-83.54 314.41,-88.93"/>
</a>
</g>
</g>
<!-- Node6&#45;&gt;Node8 -->
<g id="edge7_Node000006_Node000008" class="edge">
<title>Node6&#45;&gt;Node8</title>
<g id="a_edge7_Node000006_Node000008"><a xlink:title=" ">
<path fill="none" stroke="#63b8ff" d="M244.4,-120.8C238.26,-111.21 230.12,-98.5 223.6,-88.32"/>
<polygon fill="#63b8ff" stroke="#63b8ff" points="226.51,-86.38 218.17,-79.84 220.61,-90.15 226.51,-86.38"/>
</a>
</g>
</g>
<!-- Node9 -->
<g id="Node000009" class="node">
<title>Node9</title>
<g id="a_Node000009"><a xlink:title=" ">
<polygon fill="#e0e0e0" stroke="#999999" points="157.5,-19 113.5,-19 113.5,0 157.5,0 157.5,-19"/>
<text text-anchor="middle" x="135.5" y="-7" font-family="Helvetica,sans-Serif" font-size="10.00">string</text>
</a>
</g>
</g>
<!-- Node8&#45;&gt;Node9 -->
<g id="edge8_Node000008_Node000009" class="edge">
<title>Node8&#45;&gt;Node9</title>
<g id="a_edge8_Node000008_Node000009"><a xlink:title=" ">
<path fill="none" stroke="#63b8ff" d="M201.14,-60.37C189.08,-51.21 169.8,-36.56 155.25,-25.51"/>
<polygon fill="#63b8ff" stroke="#63b8ff" points="156.99,-22.43 146.91,-19.17 152.75,-28 156.99,-22.43"/>
</a>
</g>
</g>
<!-- Node10&#45;&gt;Node9 -->
<g id="edge11_Node000010_Node000009" class="edge">
<title>Node10&#45;&gt;Node9</title>
<g id="a_edge11_Node000010_Node000009"><a xlink:title=" ">
<path fill="none" stroke="#63b8ff" d="M77.9,-54.84C89.38,-46 104.15,-34.63 115.86,-25.62"/>
<polygon fill="#63b8ff" stroke="#63b8ff" points="118.32,-28.14 124.11,-19.27 114.05,-22.59 118.32,-28.14"/>
</a>
</g>
</g>
</g>
</svg>
