<?xml version="1.0" encoding="UTF-8" standalone="no"?>
<!DOCTYPE svg PUBLIC "-//W3C//DTD SVG 1.1//EN"
 "http://www.w3.org/Graphics/SVG/1.1/DTD/svg11.dtd">
<!-- Generated by graphviz version 2.43.0 (0)
 -->
<!-- Title: examples/monte_carlo/tic_tac_toe/include/tic_tac_toe/models/bot.h Pages: 1 -->
<svg width="953pt" height="357pt"
 viewBox="0.00 0.00 952.82 357.00" xmlns="http://www.w3.org/2000/svg" xmlns:xlink="http://www.w3.org/1999/xlink">
<g id="graph0" class="graph" transform="scale(1 1) rotate(0) translate(4 353)">
<title>examples/monte_carlo/tic_tac_toe/include/tic_tac_toe/models/bot.h</title>
<!-- Node1 -->
<g id="Node000001" class="node">
<title>Node1</title>
<g id="a_Node000001"><a xlink:title=" ">
<polygon fill="#999999" stroke="#666666" points="708.82,-349 568.82,-349 568.82,-308 708.82,-308 708.82,-349"/>
<text text-anchor="start" x="576.82" y="-337" font-family="Helvetica,sans-Serif" font-size="10.00">examples/monte_carlo</text>
<text text-anchor="start" x="576.82" y="-326" font-family="Helvetica,sans-Serif" font-size="10.00">/tic_tac_toe/include</text>
<text text-anchor="middle" x="638.82" y="-315" font-family="Helvetica,sans-Serif" font-size="10.00">/tic_tac_toe/models/bot.h</text>
</a>
</g>
</g>
<!-- Node2 -->
<g id="Node000002" class="node">
<title>Node2</title>
<g id="a_Node000002"><a xlink:href="player_8h.html" target="_top" xlink:title=" ">
<polygon fill="white" stroke="#666666" points="814.32,-206 705.32,-206 705.32,-176 814.32,-176 814.32,-206"/>
<text text-anchor="start" x="713.32" y="-194" font-family="Helvetica,sans-Serif" font-size="10.00">tic_tac_toe/models</text>
<text text-anchor="middle" x="759.82" y="-183" font-family="Helvetica,sans-Serif" font-size="10.00">/player.h</text>
</a>
</g>
</g>
<!-- Node1&#45;&gt;Node2 -->
<g id="edge1_Node000001_Node000002" class="edge">
<title>Node1&#45;&gt;Node2</title>
<g id="a_edge1_Node000001_Node000002"><a xlink:title=" ">
<path fill="none" stroke="#63b8ff" d="M656.42,-307.8C678.75,-282.79 717.16,-239.78 740.35,-213.8"/>
<polygon fill="#63b8ff" stroke="#63b8ff" points="742.98,-216.12 747.03,-206.33 737.75,-211.46 742.98,-216.12"/>
</a>
</g>
</g>
<!-- Node3 -->
<g id="Node000003" class="node">
<title>Node3</title>
<g id="a_Node000003"><a xlink:title=" ">
<polygon fill="#e0e0e0" stroke="#999999" points="388.82,-74 330.82,-74 330.82,-55 388.82,-55 388.82,-74"/>
<text text-anchor="middle" x="359.82" y="-62" font-family="Helvetica,sans-Serif" font-size="10.00">memory</text>
</a>
</g>
</g>
<!-- Node1&#45;&gt;Node3 -->
<g id="edge22_Node000001_Node000003" class="edge">
<title>Node1&#45;&gt;Node3</title>
<g id="a_edge22_Node000001_Node000003"><a xlink:title=" ">
<path fill="none" stroke="#63b8ff" d="M568.8,-309.55C514.19,-291.98 440.5,-259.85 396.82,-206 367.64,-170.03 361.29,-113.37 360.02,-84.21"/>
<polygon fill="#63b8ff" stroke="#63b8ff" points="363.52,-84.07 359.75,-74.17 356.52,-84.26 363.52,-84.07"/>
</a>
</g>
</g>
<!-- Node8 -->
<g id="Node000008" class="node">
<title>Node8</title>
<g id="a_Node000008"><a xlink:href="observer_8h.html" target="_top" xlink:title=" ">
<polygon fill="white" stroke="#666666" points="944.82,-140 828.82,-140 828.82,-110 944.82,-110 944.82,-140"/>
<text text-anchor="start" x="836.82" y="-128" font-family="Helvetica,sans-Serif" font-size="10.00">tic_tac_toe/observer</text>
<text text-anchor="middle" x="886.82" y="-117" font-family="Helvetica,sans-Serif" font-size="10.00">/observer.h</text>
</a>
</g>
</g>
<!-- Node1&#45;&gt;Node8 -->
<g id="edge21_Node000001_Node000008" class="edge">
<title>Node1&#45;&gt;Node8</title>
<g id="a_edge21_Node000001_Node000008"><a xlink:title=" ">
<path fill="none" stroke="#63b8ff" d="M676.06,-307.81C715.29,-286.02 777.67,-248.34 823.82,-206 842.51,-188.86 860.03,-165.81 871.83,-148.86"/>
<polygon fill="#63b8ff" stroke="#63b8ff" points="875.03,-150.38 877.77,-140.14 869.24,-146.43 875.03,-150.38"/>
</a>
</g>
</g>
<!-- Node9 -->
<g id="Node000009" class="node">
<title>Node9</title>
<g id="a_Node000009"><a xlink:href="node_8h.html" target="_top" xlink:title=" ">
<polygon fill="white" stroke="#666666" points="348.82,-272 232.82,-272 232.82,-242 348.82,-242 348.82,-272"/>
<text text-anchor="start" x="240.82" y="-260" font-family="Helvetica,sans-Serif" font-size="10.00">monte_carlo/models</text>
<text text-anchor="middle" x="290.82" y="-249" font-family="Helvetica,sans-Serif" font-size="10.00">/node.h</text>
</a>
</g>
</g>
<!-- Node1&#45;&gt;Node9 -->
<g id="edge10_Node000001_Node000009" class="edge">
<title>Node1&#45;&gt;Node9</title>
<g id="a_edge10_Node000001_Node000009"><a xlink:title=" ">
<path fill="none" stroke="#63b8ff" d="M568.82,-313.52C507.62,-301.3 419.31,-283.66 358.74,-271.56"/>
<polygon fill="#63b8ff" stroke="#63b8ff" points="359.38,-268.12 348.89,-269.6 358.01,-274.99 359.38,-268.12"/>
</a>
</g>
</g>
<!-- Node15 -->
<g id="Node000015" class="node">
<title>Node15</title>
<g id="a_Node000015"><a xlink:href="board_8h.html" target="_top" xlink:title=" ">
<polygon fill="white" stroke="#666666" points="665.32,-266.5 612.32,-266.5 612.32,-247.5 665.32,-247.5 665.32,-266.5"/>
<text text-anchor="middle" x="638.82" y="-254.5" font-family="Helvetica,sans-Serif" font-size="10.00">board.h</text>
</a>
</g>
</g>
<!-- Node1&#45;&gt;Node15 -->
<g id="edge23_Node000001_Node000015" class="edge">
<title>Node1&#45;&gt;Node15</title>
<g id="a_edge23_Node000001_Node000015"><a xlink:title=" ">
<path fill="none" stroke="#63b8ff" d="M638.82,-307.77C638.82,-298.08 638.82,-286.46 638.82,-276.88"/>
<polygon fill="#63b8ff" stroke="#63b8ff" points="642.32,-276.82 638.82,-266.82 635.32,-276.82 642.32,-276.82"/>
</a>
</g>
</g>
<!-- Node2&#45;&gt;Node3 -->
<g id="edge2_Node000002_Node000003" class="edge">
<title>Node2&#45;&gt;Node3</title>
<g id="a_edge2_Node000002_Node000003"><a xlink:title=" ">
<path fill="none" stroke="#63b8ff" d="M726.14,-175.86C704.94,-166.53 677.24,-153.56 653.82,-140 633.66,-128.32 632.35,-118.91 610.82,-110 540,-80.7 450.13,-70.68 399.4,-67.26"/>
<polygon fill="#63b8ff" stroke="#63b8ff" points="399.38,-63.75 389.19,-66.62 398.95,-70.74 399.38,-63.75"/>
</a>
</g>
</g>
<!-- Node4 -->
<g id="Node000004" class="node">
<title>Node4</title>
<g id="a_Node000004"><a xlink:href="position_8h.html" target="_top" xlink:title=" ">
<polygon fill="white" stroke="#666666" points="772.32,-140 663.32,-140 663.32,-110 772.32,-110 772.32,-140"/>
<text text-anchor="start" x="671.32" y="-128" font-family="Helvetica,sans-Serif" font-size="10.00">tic_tac_toe/models</text>
<text text-anchor="middle" x="717.82" y="-117" font-family="Helvetica,sans-Serif" font-size="10.00">/position.h</text>
</a>
</g>
</g>
<!-- Node2&#45;&gt;Node4 -->
<g id="edge3_Node000002_Node000004" class="edge">
<title>Node2&#45;&gt;Node4</title>
<g id="a_edge3_Node000002_Node000004"><a xlink:title=" ">
<path fill="none" stroke="#63b8ff" d="M750.5,-175.8C745.28,-167.84 738.65,-157.74 732.73,-148.71"/>
<polygon fill="#63b8ff" stroke="#63b8ff" points="735.53,-146.6 727.12,-140.16 729.68,-150.44 735.53,-146.6"/>
</a>
</g>
</g>
<!-- Node6 -->
<g id="Node000006" class="node">
<title>Node6</title>
<g id="a_Node000006"><a xlink:href="symbol_8h.html" target="_top" xlink:title=" ">
<polygon fill="white" stroke="#666666" points="867.82,-74 713.82,-74 713.82,-55 867.82,-55 867.82,-74"/>
<text text-anchor="middle" x="790.82" y="-62" font-family="Helvetica,sans-Serif" font-size="10.00">tic_tac_toe/enums/symbol.h</text>
</a>
</g>
</g>
<!-- Node2&#45;&gt;Node6 -->
<g id="edge7_Node000002_Node000006" class="edge">
<title>Node2&#45;&gt;Node6</title>
<g id="a_edge7_Node000002_Node000006"><a xlink:title=" ">
<path fill="none" stroke="#63b8ff" d="M767.33,-175.97C772.24,-166.17 778.36,-152.62 781.82,-140 786.87,-121.58 789.09,-99.82 790.06,-84.59"/>
<polygon fill="#63b8ff" stroke="#63b8ff" points="793.57,-84.55 790.59,-74.38 786.58,-84.18 793.57,-84.55"/>
</a>
</g>
</g>
<!-- Node2&#45;&gt;Node8 -->
<g id="edge8_Node000002_Node000008" class="edge">
<title>Node2&#45;&gt;Node8</title>
<g id="a_edge8_Node000002_Node000008"><a xlink:title=" ">
<path fill="none" stroke="#63b8ff" d="M787.69,-175.95C805.97,-166.74 830.08,-154.6 849.94,-144.59"/>
<polygon fill="#63b8ff" stroke="#63b8ff" points="851.66,-147.64 859.02,-140.01 848.51,-141.39 851.66,-147.64"/>
</a>
</g>
</g>
<!-- Node5 -->
<g id="Node000005" class="node">
<title>Node5</title>
<g id="a_Node000005"><a xlink:title=" ">
<polygon fill="#e0e0e0" stroke="#999999" points="695.32,-74 650.32,-74 650.32,-55 695.32,-55 695.32,-74"/>
<text text-anchor="middle" x="672.82" y="-62" font-family="Helvetica,sans-Serif" font-size="10.00">utility</text>
</a>
</g>
</g>
<!-- Node4&#45;&gt;Node5 -->
<g id="edge4_Node000004_Node000005" class="edge">
<title>Node4&#45;&gt;Node5</title>
<g id="a_edge4_Node000004_Node000005"><a xlink:title=" ">
<path fill="none" stroke="#63b8ff" d="M706.93,-109.84C700.53,-101.52 692.41,-90.96 685.69,-82.23"/>
<polygon fill="#63b8ff" stroke="#63b8ff" points="688.44,-80.06 679.56,-74.27 682.89,-84.33 688.44,-80.06"/>
</a>
</g>
</g>
<!-- Node4&#45;&gt;Node6 -->
<g id="edge5_Node000004_Node000006" class="edge">
<title>Node4&#45;&gt;Node6</title>
<g id="a_edge5_Node000004_Node000006"><a xlink:title=" ">
<path fill="none" stroke="#63b8ff" d="M735.49,-109.84C746.52,-101 760.71,-89.63 771.96,-80.62"/>
<polygon fill="#63b8ff" stroke="#63b8ff" points="774.27,-83.25 779.88,-74.27 769.89,-77.79 774.27,-83.25"/>
</a>
</g>
</g>
<!-- Node7 -->
<g id="Node000007" class="node">
<title>Node7</title>
<g id="a_Node000007"><a xlink:title=" ">
<polygon fill="#e0e0e0" stroke="#999999" points="864.82,-19 820.82,-19 820.82,0 864.82,0 864.82,-19"/>
<text text-anchor="middle" x="842.82" y="-7" font-family="Helvetica,sans-Serif" font-size="10.00">string</text>
</a>
</g>
</g>
<!-- Node6&#45;&gt;Node7 -->
<g id="edge6_Node000006_Node000007" class="edge">
<title>Node6&#45;&gt;Node7</title>
<g id="a_edge6_Node000006_Node000007"><a xlink:title=" ">
<path fill="none" stroke="#63b8ff" d="M799.41,-54.75C806.98,-47.03 818.2,-35.6 827.34,-26.28"/>
<polygon fill="#63b8ff" stroke="#63b8ff" points="829.89,-28.68 834.39,-19.09 824.89,-23.78 829.89,-28.68"/>
</a>
</g>
</g>
<!-- Node8&#45;&gt;Node7 -->
<g id="edge9_Node000008_Node000007" class="edge">
<title>Node8&#45;&gt;Node7</title>
<g id="a_edge9_Node000008_Node000007"><a xlink:title=" ">
<path fill="none" stroke="#63b8ff" d="M886.83,-109.97C886.38,-95.62 884.38,-72.96 876.82,-55 872.5,-44.73 865.24,-34.74 858.53,-26.84"/>
<polygon fill="#63b8ff" stroke="#63b8ff" points="860.93,-24.27 851.64,-19.17 855.72,-28.94 860.93,-24.27"/>
</a>
</g>
</g>
<!-- Node9&#45;&gt;Node3 -->
<g id="edge20_Node000009_Node000003" class="edge">
<title>Node9&#45;&gt;Node3</title>
<g id="a_edge20_Node000009_Node000003"><a xlink:title=" ">
<path fill="none" stroke="#63b8ff" d="M295.9,-241.99C308.13,-208.21 339.27,-122.23 353.07,-84.14"/>
<polygon fill="#63b8ff" stroke="#63b8ff" points="356.5,-84.96 356.61,-74.36 349.92,-82.57 356.5,-84.96"/>
</a>
</g>
</g>
<!-- Node10 -->
<g id="Node000010" class="node">
<title>Node10</title>
<g id="a_Node000010"><a xlink:href="rollout__strategy__interface_8h.html" target="_top" xlink:title=" ">
<polygon fill="white" stroke="#666666" points="249.32,-206 94.32,-206 94.32,-176 249.32,-176 249.32,-206"/>
<text text-anchor="start" x="102.32" y="-194" font-family="Helvetica,sans-Serif" font-size="10.00">monte_carlo/models</text>
<text text-anchor="middle" x="171.82" y="-183" font-family="Helvetica,sans-Serif" font-size="10.00">/rollout_strategy_interface.h</text>
</a>
</g>
</g>
<!-- Node9&#45;&gt;Node10 -->
<g id="edge11_Node000009_Node000010" class="edge">
<title>Node9&#45;&gt;Node10</title>
<g id="a_edge11_Node000009_Node000010"><a xlink:title=" ">
<path fill="none" stroke="#63b8ff" d="M264.71,-241.95C247.73,-232.83 225.4,-220.82 206.89,-210.86"/>
<polygon fill="#63b8ff" stroke="#63b8ff" points="208.34,-207.67 197.88,-206.01 205.02,-213.83 208.34,-207.67"/>
</a>
</g>
</g>
<!-- Node14 -->
<g id="Node000014" class="node">
<title>Node14</title>
<g id="a_Node000014"><a xlink:title=" ">
<polygon fill="#e0e0e0" stroke="#999999" points="312.32,-134.5 265.32,-134.5 265.32,-115.5 312.32,-115.5 312.32,-134.5"/>
<text text-anchor="middle" x="288.82" y="-122.5" font-family="Helvetica,sans-Serif" font-size="10.00">vector</text>
</a>
</g>
</g>
<!-- Node9&#45;&gt;Node14 -->
<g id="edge19_Node000009_Node000014" class="edge">
<title>Node9&#45;&gt;Node14</title>
<g id="a_edge19_Node000009_Node000014"><a xlink:title=" ">
<path fill="none" stroke="#63b8ff" d="M290.6,-241.84C290.24,-218.34 289.52,-171.26 289.11,-144.93"/>
<polygon fill="#63b8ff" stroke="#63b8ff" points="292.61,-144.69 288.96,-134.75 285.61,-144.8 292.61,-144.69"/>
</a>
</g>
</g>
<!-- Node10&#45;&gt;Node3 -->
<g id="edge16_Node000010_Node000003" class="edge">
<title>Node10&#45;&gt;Node3</title>
<g id="a_edge16_Node000010_Node000003"><a xlink:title=" ">
<path fill="none" stroke="#63b8ff" d="M168.33,-175.72C164.95,-158.11 162.33,-128.28 177.82,-110 195.99,-88.56 272.57,-75.78 320.42,-69.75"/>
<polygon fill="#63b8ff" stroke="#63b8ff" points="320.95,-73.21 330.45,-68.53 320.1,-66.26 320.95,-73.21"/>
</a>
</g>
</g>
<!-- Node11 -->
<g id="Node000011" class="node">
<title>Node11</title>
<g id="a_Node000011"><a xlink:href="action_8h.html" target="_top" xlink:title=" ">
<polygon fill="white" stroke="#666666" points="130.82,-140 14.82,-140 14.82,-110 130.82,-110 130.82,-140"/>
<text text-anchor="start" x="22.82" y="-128" font-family="Helvetica,sans-Serif" font-size="10.00">monte_carlo/models</text>
<text text-anchor="middle" x="72.82" y="-117" font-family="Helvetica,sans-Serif" font-size="10.00">/action.h</text>
</a>
</g>
</g>
<!-- Node10&#45;&gt;Node11 -->
<g id="edge12_Node000010_Node000011" class="edge">
<title>Node10&#45;&gt;Node11</title>
<g id="a_edge12_Node000010_Node000011"><a xlink:title=" ">
<path fill="none" stroke="#63b8ff" d="M149.85,-175.8C136.14,-166.93 118.29,-155.39 103.23,-145.66"/>
<polygon fill="#63b8ff" stroke="#63b8ff" points="105.03,-142.65 94.73,-140.16 101.23,-148.53 105.03,-142.65"/>
</a>
</g>
</g>
<!-- Node12 -->
<g id="Node000012" class="node">
<title>Node12</title>
<g id="a_Node000012"><a xlink:title=" ">
<polygon fill="#e0e0e0" stroke="#999999" points="58.32,-74 1.32,-74 1.32,-55 58.32,-55 58.32,-74"/>
<text text-anchor="middle" x="29.82" y="-62" font-family="Helvetica,sans-Serif" font-size="10.00">ostream</text>
</a>
</g>
</g>
<!-- Node10&#45;&gt;Node12 -->
<g id="edge17_Node000010_Node000012" class="edge">
<title>Node10&#45;&gt;Node12</title>
<g id="a_edge17_Node000010_Node000012"><a xlink:title=" ">
<path fill="none" stroke="#63b8ff" d="M94.15,-186.33C61.45,-180.47 26.29,-167.54 5.82,-140 -6.92,-122.86 5.03,-98.69 16.15,-82.58"/>
<polygon fill="#63b8ff" stroke="#63b8ff" points="19.27,-84.25 22.42,-74.14 13.65,-80.08 19.27,-84.25"/>
</a>
</g>
</g>
<!-- Node13 -->
<g id="Node000013" class="node">
<title>Node13</title>
<g id="a_Node000013"><a xlink:title=" ">
<polygon fill="#e0e0e0" stroke="#999999" points="246.82,-134.5 186.82,-134.5 186.82,-115.5 246.82,-115.5 246.82,-134.5"/>
<text text-anchor="middle" x="216.82" y="-122.5" font-family="Helvetica,sans-Serif" font-size="10.00">iostream</text>
</a>
</g>
</g>
<!-- Node10&#45;&gt;Node13 -->
<g id="edge15_Node000010_Node000013" class="edge">
<title>Node10&#45;&gt;Node13</title>
<g id="a_edge15_Node000010_Node000013"><a xlink:title=" ">
<path fill="none" stroke="#63b8ff" d="M181.81,-175.8C188.55,-166.21 197.49,-153.5 204.64,-143.32"/>
<polygon fill="#63b8ff" stroke="#63b8ff" points="207.71,-145.04 210.6,-134.84 201.99,-141.01 207.71,-145.04"/>
</a>
</g>
</g>
<!-- Node10&#45;&gt;Node14 -->
<g id="edge18_Node000010_Node000014" class="edge">
<title>Node10&#45;&gt;Node14</title>
<g id="a_edge18_Node000010_Node000014"><a xlink:title=" ">
<path fill="none" stroke="#63b8ff" d="M197.5,-175.95C217.38,-165.08 244.75,-150.11 264.33,-139.4"/>
<polygon fill="#63b8ff" stroke="#63b8ff" points="266.16,-142.39 273.25,-134.52 262.8,-136.25 266.16,-142.39"/>
</a>
</g>
</g>
<!-- Node11&#45;&gt;Node3 -->
<g id="edge13_Node000011_Node000003" class="edge">
<title>Node11&#45;&gt;Node3</title>
<g id="a_edge13_Node000011_Node000003"><a xlink:title=" ">
<path fill="none" stroke="#63b8ff" d="M130.9,-112.16C187.48,-100.63 271.91,-83.42 320.86,-73.44"/>
<polygon fill="#63b8ff" stroke="#63b8ff" points="321.65,-76.85 330.75,-71.43 320.25,-69.99 321.65,-76.85"/>
</a>
</g>
</g>
<!-- Node11&#45;&gt;Node12 -->
<g id="edge14_Node000011_Node000012" class="edge">
<title>Node11&#45;&gt;Node12</title>
<g id="a_edge14_Node000011_Node000012"><a xlink:title=" ">
<path fill="none" stroke="#63b8ff" d="M62.41,-109.84C56.36,-101.61 48.7,-91.18 42.32,-82.51"/>
<polygon fill="#63b8ff" stroke="#63b8ff" points="45.01,-80.25 36.26,-74.27 39.37,-84.4 45.01,-80.25"/>
</a>
</g>
</g>
<!-- Node15&#45;&gt;Node2 -->
<g id="edge25_Node000015_Node000002" class="edge">
<title>Node15&#45;&gt;Node2</title>
<g id="a_edge25_Node000015_Node000002"><a xlink:title=" ">
<path fill="none" stroke="#63b8ff" d="M655.14,-247.37C672.72,-238.07 701.23,-222.99 724.06,-210.91"/>
<polygon fill="#63b8ff" stroke="#63b8ff" points="725.93,-213.89 733.13,-206.12 722.66,-207.7 725.93,-213.89"/>
</a>
</g>
</g>
<!-- Node15&#45;&gt;Node3 -->
<g id="edge28_Node000015_Node000003" class="edge">
<title>Node15&#45;&gt;Node3</title>
<g id="a_edge28_Node000015_Node000003"><a xlink:title=" ">
<path fill="none" stroke="#63b8ff" d="M638.17,-247.39C636.51,-231.38 630.83,-196.75 611.82,-176 554.23,-113.12 454.44,-84.2 399.29,-72.46"/>
<polygon fill="#63b8ff" stroke="#63b8ff" points="399.71,-68.97 389.21,-70.4 398.31,-75.83 399.71,-68.97"/>
</a>
</g>
</g>
<!-- Node15&#45;&gt;Node4 -->
<g id="edge26_Node000015_Node000004" class="edge">
<title>Node15&#45;&gt;Node4</title>
<g id="a_edge26_Node000015_Node000004"><a xlink:title=" ">
<path fill="none" stroke="#63b8ff" d="M644,-247.47C656.02,-227.69 686.12,-178.17 703.95,-148.82"/>
<polygon fill="#63b8ff" stroke="#63b8ff" points="707.07,-150.43 709.27,-140.07 701.09,-146.79 707.07,-150.43"/>
</a>
</g>
</g>
<!-- Node15&#45;&gt;Node14 -->
<g id="edge24_Node000015_Node000014" class="edge">
<title>Node15&#45;&gt;Node14</title>
<g id="a_edge24_Node000015_Node000014"><a xlink:title=" ">
<path fill="none" stroke="#63b8ff" d="M635.34,-247.29C628.13,-230.46 609.85,-193.58 581.82,-176 538.98,-149.12 389.97,-134.09 322.49,-128.52"/>
<polygon fill="#63b8ff" stroke="#63b8ff" points="322.64,-125.02 312.39,-127.71 322.07,-132 322.64,-125.02"/>
</a>
</g>
</g>
<!-- Node16 -->
<g id="Node000016" class="node">
<title>Node16</title>
<g id="a_Node000016"><a xlink:href="alignment_8h.html" target="_top" xlink:title=" ">
<polygon fill="white" stroke="#666666" points="573.32,-200.5 406.32,-200.5 406.32,-181.5 573.32,-181.5 573.32,-200.5"/>
<text text-anchor="middle" x="489.82" y="-188.5" font-family="Helvetica,sans-Serif" font-size="10.00">tic_tac_toe/enums/alignment.h</text>
</a>
</g>
</g>
<!-- Node15&#45;&gt;Node16 -->
<g id="edge27_Node000015_Node000016" class="edge">
<title>Node15&#45;&gt;Node16</title>
<g id="a_edge27_Node000015_Node000016"><a xlink:title=" ">
<path fill="none" stroke="#63b8ff" d="M618.73,-247.37C593.18,-236.39 548.86,-217.36 519.43,-204.72"/>
<polygon fill="#63b8ff" stroke="#63b8ff" points="520.64,-201.43 510.07,-200.7 517.88,-207.86 520.64,-201.43"/>
</a>
</g>
</g>
</g>
</svg>
