<?xml version="1.0" encoding="UTF-8" standalone="no"?>
<!DOCTYPE svg PUBLIC "-//W3C//DTD SVG 1.1//EN"
 "http://www.w3.org/Graphics/SVG/1.1/DTD/svg11.dtd">
<!-- Generated by graphviz version 2.43.0 (0)
 -->
<!-- Title: examples/monte_carlo/tic_tac_toe/include/tic_tac_toe/models/bot.h Pages: 1 -->
<svg width="767pt" height="126pt"
 viewBox="0.00 0.00 766.50 126.00" xmlns="http://www.w3.org/2000/svg" xmlns:xlink="http://www.w3.org/1999/xlink">
<g id="graph0" class="graph" transform="scale(1 1) rotate(0) translate(4 122)">
<title>examples/monte_carlo/tic_tac_toe/include/tic_tac_toe/models/bot.h</title>
<!-- Node1 -->
<g id="Node000001" class="node">
<title>Node1</title>
<g id="a_Node000001"><a xlink:title=" ">
<polygon fill="#999999" stroke="#666666" points="438,-118 298,-118 298,-77 438,-77 438,-118"/>
<text text-anchor="start" x="306" y="-106" font-family="Helvetica,sans-Serif" font-size="10.00">examples/monte_carlo</text>
<text text-anchor="start" x="306" y="-95" font-family="Helvetica,sans-Serif" font-size="10.00">/tic_tac_toe/include</text>
<text text-anchor="middle" x="368" y="-84" font-family="Helvetica,sans-Serif" font-size="10.00">/tic_tac_toe/models/bot.h</text>
</a>
</g>
</g>
<!-- Node2 -->
<g id="Node000002" class="node">
<title>Node2</title>
<g id="a_Node000002"><a xlink:href="main_8cpp.html" target="_top" xlink:title=" ">
<polygon fill="white" stroke="#666666" points="138,-35.5 0,-35.5 0,-5.5 138,-5.5 138,-35.5"/>
<text text-anchor="start" x="8" y="-23.5" font-family="Helvetica,sans-Serif" font-size="10.00">examples/monte_carlo</text>
<text text-anchor="middle" x="69" y="-12.5" font-family="Helvetica,sans-Serif" font-size="10.00">/tic_tac_toe/src/main.cpp</text>
</a>
</g>
</g>
<!-- Node1&#45;&gt;Node2 -->
<g id="edge1_Node000001_Node000002" class="edge">
<title>Node1&#45;&gt;Node2</title>
<g id="a_edge1_Node000001_Node000002"><a xlink:title=" ">
<path fill="none" stroke="#63b8ff" d="M288.14,-76.47C236.72,-63.57 171.14,-47.12 125.18,-35.59"/>
<polygon fill="#63b8ff" stroke="#63b8ff" points="287.35,-79.88 297.9,-78.92 289.05,-73.09 287.35,-79.88"/>
</a>
</g>
</g>
<!-- Node3 -->
<g id="Node000003" class="node">
<title>Node3</title>
<g id="a_Node000003"><a xlink:href="bot_8cpp.html" target="_top" xlink:title=" ">
<polygon fill="white" stroke="#666666" points="285.5,-41 156.5,-41 156.5,0 285.5,0 285.5,-41"/>
<text text-anchor="start" x="164.5" y="-29" font-family="Helvetica,sans-Serif" font-size="10.00">examples/monte_carlo</text>
<text text-anchor="start" x="164.5" y="-18" font-family="Helvetica,sans-Serif" font-size="10.00">/tic_tac_toe/src/models</text>
<text text-anchor="middle" x="221" y="-7" font-family="Helvetica,sans-Serif" font-size="10.00">/bot.cpp</text>
</a>
</g>
</g>
<!-- Node1&#45;&gt;Node3 -->
<g id="edge2_Node000001_Node000003" class="edge">
<title>Node1&#45;&gt;Node3</title>
<g id="a_edge2_Node000001_Node000003"><a xlink:title=" ">
<path fill="none" stroke="#63b8ff" d="M320.59,-72.31C300.77,-62.2 278.04,-50.6 259.3,-41.04"/>
<polygon fill="#63b8ff" stroke="#63b8ff" points="319.26,-75.56 329.76,-76.99 322.44,-69.33 319.26,-75.56"/>
</a>
</g>
</g>
<!-- Node4 -->
<g id="Node000004" class="node">
<title>Node4</title>
<g id="a_Node000004"><a xlink:href="state_8cpp.html" target="_top" xlink:title=" ">
<polygon fill="white" stroke="#666666" points="432.5,-41 303.5,-41 303.5,0 432.5,0 432.5,-41"/>
<text text-anchor="start" x="311.5" y="-29" font-family="Helvetica,sans-Serif" font-size="10.00">examples/monte_carlo</text>
<text text-anchor="start" x="311.5" y="-18" font-family="Helvetica,sans-Serif" font-size="10.00">/tic_tac_toe/src/models</text>
<text text-anchor="middle" x="368" y="-7" font-family="Helvetica,sans-Serif" font-size="10.00">/state.cpp</text>
</a>
</g>
</g>
<!-- Node1&#45;&gt;Node4 -->
<g id="edge3_Node000001_Node000004" class="edge">
<title>Node1&#45;&gt;Node4</title>
<g id="a_edge3_Node000001_Node000004"><a xlink:title=" ">
<path fill="none" stroke="#63b8ff" d="M368,-66.69C368,-58.08 368,-48.9 368,-41.07"/>
<polygon fill="#63b8ff" stroke="#63b8ff" points="364.5,-66.79 368,-76.79 371.5,-66.79 364.5,-66.79"/>
</a>
</g>
</g>
<!-- Node5 -->
<g id="Node000005" class="node">
<title>Node5</title>
<g id="a_Node000005"><a xlink:href="state__tests_8cpp.html" target="_top" xlink:title=" ">
<polygon fill="white" stroke="#666666" points="585,-41 451,-41 451,0 585,0 585,-41"/>
<text text-anchor="start" x="459" y="-29" font-family="Helvetica,sans-Serif" font-size="10.00">examples/monte_carlo</text>
<text text-anchor="start" x="459" y="-18" font-family="Helvetica,sans-Serif" font-size="10.00">/tic_tac_toe/tests/model</text>
<text text-anchor="middle" x="518" y="-7" font-family="Helvetica,sans-Serif" font-size="10.00">_tests/state_tests.cpp</text>
</a>
</g>
</g>
<!-- Node1&#45;&gt;Node5 -->
<g id="edge4_Node000001_Node000005" class="edge">
<title>Node1&#45;&gt;Node5</title>
<g id="a_edge4_Node000001_Node000005"><a xlink:title=" ">
<path fill="none" stroke="#63b8ff" d="M416.1,-72.45C436.39,-62.3 459.71,-50.64 478.92,-41.04"/>
<polygon fill="#63b8ff" stroke="#63b8ff" points="414.4,-69.39 407.02,-76.99 417.53,-75.65 414.4,-69.39"/>
</a>
</g>
</g>
<!-- Node6 -->
<g id="Node000006" class="node">
<title>Node6</title>
<g id="a_Node000006"><a xlink:href="simulation__tests_8cpp.html" target="_top" xlink:title=" ">
<polygon fill="white" stroke="#666666" points="758.5,-41 603.5,-41 603.5,0 758.5,0 758.5,-41"/>
<text text-anchor="start" x="611.5" y="-29" font-family="Helvetica,sans-Serif" font-size="10.00">examples/monte_carlo</text>
<text text-anchor="start" x="611.5" y="-18" font-family="Helvetica,sans-Serif" font-size="10.00">/tic_tac_toe/tests/simulation</text>
<text text-anchor="middle" x="681" y="-7" font-family="Helvetica,sans-Serif" font-size="10.00">_tests.cpp</text>
</a>
</g>
</g>
<!-- Node1&#45;&gt;Node6 -->
<g id="edge5_Node000001_Node000006" class="edge">
<title>Node1&#45;&gt;Node6</title>
<g id="a_edge5_Node000001_Node000006"><a xlink:title=" ">
<path fill="none" stroke="#63b8ff" d="M448.22,-77.28C495.9,-65.85 556.08,-51.43 603.3,-40.12"/>
<polygon fill="#63b8ff" stroke="#63b8ff" points="447.15,-73.93 438.24,-79.67 448.78,-80.74 447.15,-73.93"/>
</a>
</g>
</g>
</g>
</svg>
