<?xml version="1.0" encoding="UTF-8" standalone="no"?>
<!DOCTYPE svg PUBLIC "-//W3C//DTD SVG 1.1//EN"
 "http://www.w3.org/Graphics/SVG/1.1/DTD/svg11.dtd">
<!-- Generated by graphviz version 2.43.0 (0)
 -->
<!-- Title: examples/monte_carlo/tic_tac_toe/src/models/bot.cpp Pages: 1 -->
<svg width="1102pt" height="489pt"
 viewBox="0.00 0.00 1101.50 489.00" xmlns="http://www.w3.org/2000/svg" xmlns:xlink="http://www.w3.org/1999/xlink">
<g id="graph0" class="graph" transform="scale(1 1) rotate(0) translate(4 485)">
<title>examples/monte_carlo/tic_tac_toe/src/models/bot.cpp</title>
<!-- Node1 -->
<g id="Node000001" class="node">
<title>Node1</title>
<g id="a_Node000001"><a xlink:title=" ">
<polygon fill="#999999" stroke="#666666" points="629.5,-481 500.5,-481 500.5,-440 629.5,-440 629.5,-481"/>
<text text-anchor="start" x="508.5" y="-469" font-family="Helvetica,sans-Serif" font-size="10.00">examples/monte_carlo</text>
<text text-anchor="start" x="508.5" y="-458" font-family="Helvetica,sans-Serif" font-size="10.00">/tic_tac_toe/src/models</text>
<text text-anchor="middle" x="565" y="-447" font-family="Helvetica,sans-Serif" font-size="10.00">/bot.cpp</text>
</a>
</g>
</g>
<!-- Node2 -->
<g id="Node000002" class="node">
<title>Node2</title>
<g id="a_Node000002"><a xlink:href="bot_8h.html" target="_top" xlink:title=" ">
<polygon fill="white" stroke="#666666" points="352.5,-338 243.5,-338 243.5,-308 352.5,-308 352.5,-338"/>
<text text-anchor="start" x="251.5" y="-326" font-family="Helvetica,sans-Serif" font-size="10.00">tic_tac_toe/models</text>
<text text-anchor="middle" x="298" y="-315" font-family="Helvetica,sans-Serif" font-size="10.00">/bot.h</text>
</a>
</g>
</g>
<!-- Node1&#45;&gt;Node2 -->
<g id="edge1_Node000001_Node000002" class="edge">
<title>Node1&#45;&gt;Node2</title>
<g id="a_edge1_Node000001_Node000002"><a xlink:title=" ">
<path fill="none" stroke="#63b8ff" d="M500.21,-447.84C463.49,-439.36 417.71,-425.51 381,-404 355.09,-388.82 331.05,-363.96 315.58,-345.98"/>
<polygon fill="#63b8ff" stroke="#63b8ff" points="318.21,-343.66 309.1,-338.26 312.85,-348.17 318.21,-343.66"/>
</a>
</g>
</g>
<!-- Node14 -->
<g id="Node000014" class="node">
<title>Node14</title>
<g id="a_Node000014"><a xlink:title=" ">
<polygon fill="#e0e0e0" stroke="#999999" points="998,-134.5 938,-134.5 938,-115.5 998,-115.5 998,-134.5"/>
<text text-anchor="middle" x="968" y="-122.5" font-family="Helvetica,sans-Serif" font-size="10.00">iostream</text>
</a>
</g>
</g>
<!-- Node1&#45;&gt;Node14 -->
<g id="edge33_Node000001_Node000014" class="edge">
<title>Node1&#45;&gt;Node14</title>
<g id="a_edge33_Node000001_Node000014"><a xlink:title=" ">
<path fill="none" stroke="#63b8ff" d="M629.54,-448.92C733.38,-430.04 926,-386.59 926,-324 926,-324 926,-324 926,-256 926,-214.08 946.02,-168.07 958.42,-143.61"/>
<polygon fill="#63b8ff" stroke="#63b8ff" points="961.64,-145 963.18,-134.52 955.44,-141.75 961.64,-145"/>
</a>
</g>
</g>
<!-- Node16 -->
<g id="Node000016" class="node">
<title>Node16</title>
<g id="a_Node000016"><a xlink:href="board_8h.html" target="_top" xlink:title=" ">
<polygon fill="white" stroke="#666666" points="421.5,-266.5 368.5,-266.5 368.5,-247.5 421.5,-247.5 421.5,-266.5"/>
<text text-anchor="middle" x="395" y="-254.5" font-family="Helvetica,sans-Serif" font-size="10.00">board.h</text>
</a>
</g>
</g>
<!-- Node1&#45;&gt;Node16 -->
<g id="edge30_Node000001_Node000016" class="edge">
<title>Node1&#45;&gt;Node16</title>
<g id="a_edge30_Node000001_Node000016"><a xlink:title=" ">
<path fill="none" stroke="#63b8ff" d="M500.14,-451.32C469.4,-444.02 434.92,-430.19 414,-404 384.44,-366.99 387.72,-307.05 391.78,-276.78"/>
<polygon fill="#63b8ff" stroke="#63b8ff" points="395.27,-277.15 393.31,-266.74 388.35,-276.09 395.27,-277.15"/>
</a>
</g>
</g>
<!-- Node18 -->
<g id="Node000018" class="node">
<title>Node18</title>
<g id="a_Node000018"><a xlink:href="tree__search__algorithm_8h.html" target="_top" xlink:title=" ">
<polygon fill="white" stroke="#666666" points="560.5,-404 423.5,-404 423.5,-374 560.5,-374 560.5,-404"/>
<text text-anchor="start" x="431.5" y="-392" font-family="Helvetica,sans-Serif" font-size="10.00">monte_carlo/tree_search</text>
<text text-anchor="middle" x="492" y="-381" font-family="Helvetica,sans-Serif" font-size="10.00">_algorithm.h</text>
</a>
</g>
</g>
<!-- Node1&#45;&gt;Node18 -->
<g id="edge31_Node000001_Node000018" class="edge">
<title>Node1&#45;&gt;Node18</title>
<g id="a_edge31_Node000001_Node000018"><a xlink:title=" ">
<path fill="none" stroke="#63b8ff" d="M544.28,-439.77C534.83,-430.78 523.64,-420.12 514.04,-410.98"/>
<polygon fill="#63b8ff" stroke="#63b8ff" points="516.4,-408.4 506.75,-404.04 511.57,-413.47 516.4,-408.4"/>
</a>
</g>
</g>
<!-- Node19 -->
<g id="Node000019" class="node">
<title>Node19</title>
<g id="a_Node000019"><a xlink:href="tic__tac__toe__factory_8h.html" target="_top" xlink:title=" ">
<polygon fill="white" stroke="#666666" points="699,-404 579,-404 579,-374 699,-374 699,-404"/>
<text text-anchor="start" x="587" y="-392" font-family="Helvetica,sans-Serif" font-size="10.00">tic_tac_toe/factories</text>
<text text-anchor="middle" x="639" y="-381" font-family="Helvetica,sans-Serif" font-size="10.00">/tic_tac_toe_factory.h</text>
</a>
</g>
</g>
<!-- Node1&#45;&gt;Node19 -->
<g id="edge34_Node000001_Node000019" class="edge">
<title>Node1&#45;&gt;Node19</title>
<g id="a_edge34_Node000001_Node000019"><a xlink:title=" ">
<path fill="none" stroke="#63b8ff" d="M586.01,-439.77C595.58,-430.78 606.93,-420.12 616.66,-410.98"/>
<polygon fill="#63b8ff" stroke="#63b8ff" points="619.16,-413.44 624.05,-404.04 614.37,-408.33 619.16,-413.44"/>
</a>
</g>
</g>
<!-- Node24 -->
<g id="Node000024" class="node">
<title>Node24</title>
<g id="a_Node000024"><a xlink:title=" ">
<polygon fill="#e0e0e0" stroke="#999999" points="1001.5,-398.5 954.5,-398.5 954.5,-379.5 1001.5,-379.5 1001.5,-398.5"/>
<text text-anchor="middle" x="978" y="-386.5" font-family="Helvetica,sans-Serif" font-size="10.00">cmath</text>
</a>
</g>
</g>
<!-- Node1&#45;&gt;Node24 -->
<g id="edge46_Node000001_Node000024" class="edge">
<title>Node1&#45;&gt;Node24</title>
<g id="a_edge46_Node000001_Node000024"><a xlink:title=" ">
<path fill="none" stroke="#63b8ff" d="M629.83,-454C705.23,-446.66 833.03,-431.31 940,-404 942.44,-403.38 944.95,-402.65 947.45,-401.87"/>
<polygon fill="#63b8ff" stroke="#63b8ff" points="948.6,-405.17 956.94,-398.63 946.35,-398.55 948.6,-405.17"/>
</a>
</g>
</g>
<!-- Node3 -->
<g id="Node000003" class="node">
<title>Node3</title>
<g id="a_Node000003"><a xlink:href="player_8h.html" target="_top" xlink:title=" ">
<polygon fill="white" stroke="#666666" points="217.5,-206 108.5,-206 108.5,-176 217.5,-176 217.5,-206"/>
<text text-anchor="start" x="116.5" y="-194" font-family="Helvetica,sans-Serif" font-size="10.00">tic_tac_toe/models</text>
<text text-anchor="middle" x="163" y="-183" font-family="Helvetica,sans-Serif" font-size="10.00">/player.h</text>
</a>
</g>
</g>
<!-- Node2&#45;&gt;Node3 -->
<g id="edge2_Node000002_Node000003" class="edge">
<title>Node2&#45;&gt;Node3</title>
<g id="a_edge2_Node000002_Node000003"><a xlink:title=" ">
<path fill="none" stroke="#63b8ff" d="M283.3,-307.84C259.56,-284.98 212.66,-239.82 184.96,-213.14"/>
<polygon fill="#63b8ff" stroke="#63b8ff" points="187.32,-210.56 177.69,-206.14 182.46,-215.6 187.32,-210.56"/>
</a>
</g>
</g>
<!-- Node4 -->
<g id="Node000004" class="node">
<title>Node4</title>
<g id="a_Node000004"><a xlink:title=" ">
<polygon fill="#e0e0e0" stroke="#999999" points="677,-74 619,-74 619,-55 677,-55 677,-74"/>
<text text-anchor="middle" x="648" y="-62" font-family="Helvetica,sans-Serif" font-size="10.00">memory</text>
</a>
</g>
</g>
<!-- Node2&#45;&gt;Node4 -->
<g id="edge23_Node000002_Node000004" class="edge">
<title>Node2&#45;&gt;Node4</title>
<g id="a_edge23_Node000002_Node000004"><a xlink:title=" ">
<path fill="none" stroke="#63b8ff" d="M293.51,-307.81C285.52,-279.55 272.29,-215.53 302,-176 375.03,-78.83 534.27,-65.34 608.47,-64.61"/>
<polygon fill="#63b8ff" stroke="#63b8ff" points="608.79,-68.11 618.78,-64.59 608.77,-61.11 608.79,-68.11"/>
</a>
</g>
</g>
<!-- Node9 -->
<g id="Node000009" class="node">
<title>Node9</title>
<g id="a_Node000009"><a xlink:href="observer_8h.html" target="_top" xlink:title=" ">
<polygon fill="white" stroke="#666666" points="116,-140 0,-140 0,-110 116,-110 116,-140"/>
<text text-anchor="start" x="8" y="-128" font-family="Helvetica,sans-Serif" font-size="10.00">tic_tac_toe/observer</text>
<text text-anchor="middle" x="58" y="-117" font-family="Helvetica,sans-Serif" font-size="10.00">/observer.h</text>
</a>
</g>
</g>
<!-- Node2&#45;&gt;Node9 -->
<g id="edge22_Node000002_Node000009" class="edge">
<title>Node2&#45;&gt;Node9</title>
<g id="a_edge22_Node000002_Node000009"><a xlink:title=" ">
<path fill="none" stroke="#63b8ff" d="M260.77,-307.91C217.32,-289.9 145.48,-255.06 99,-206 83.8,-189.96 72.87,-167.18 66.14,-150.03"/>
<polygon fill="#63b8ff" stroke="#63b8ff" points="69.25,-148.35 62.49,-140.19 62.69,-150.79 69.25,-148.35"/>
</a>
</g>
</g>
<!-- Node10 -->
<g id="Node000010" class="node">
<title>Node10</title>
<g id="a_Node000010"><a xlink:href="node_8h.html" target="_top" xlink:title=" ">
<polygon fill="white" stroke="#666666" points="688,-272 572,-272 572,-242 688,-242 688,-272"/>
<text text-anchor="start" x="580" y="-260" font-family="Helvetica,sans-Serif" font-size="10.00">monte_carlo/models</text>
<text text-anchor="middle" x="630" y="-249" font-family="Helvetica,sans-Serif" font-size="10.00">/node.h</text>
</a>
</g>
</g>
<!-- Node2&#45;&gt;Node10 -->
<g id="edge11_Node000002_Node000010" class="edge">
<title>Node2&#45;&gt;Node10</title>
<g id="a_edge11_Node000002_Node000010"><a xlink:title=" ">
<path fill="none" stroke="#63b8ff" d="M352.82,-311.43C410.05,-300.4 499.89,-283.08 561.69,-271.17"/>
<polygon fill="#63b8ff" stroke="#63b8ff" points="562.59,-274.56 571.74,-269.23 561.26,-267.69 562.59,-274.56"/>
</a>
</g>
</g>
<!-- Node2&#45;&gt;Node16 -->
<g id="edge24_Node000002_Node000016" class="edge">
<title>Node2&#45;&gt;Node16</title>
<g id="a_edge24_Node000002_Node000016"><a xlink:title=" ">
<path fill="none" stroke="#63b8ff" d="M319.53,-307.8C335.48,-297.27 357.15,-282.97 373.18,-272.4"/>
<polygon fill="#63b8ff" stroke="#63b8ff" points="375.46,-275.09 381.88,-266.66 371.6,-269.24 375.46,-275.09"/>
</a>
</g>
</g>
<!-- Node3&#45;&gt;Node4 -->
<g id="edge3_Node000003_Node000004" class="edge">
<title>Node3&#45;&gt;Node4</title>
<g id="a_edge3_Node000003_Node000004"><a xlink:title=" ">
<path fill="none" stroke="#63b8ff" d="M165.4,-175.69C169.32,-157.18 179,-125.49 201,-110 233.99,-86.78 505.7,-72.02 608.66,-67.22"/>
<polygon fill="#63b8ff" stroke="#63b8ff" points="609.11,-70.7 618.94,-66.75 608.79,-63.71 609.11,-70.7"/>
</a>
</g>
</g>
<!-- Node5 -->
<g id="Node000005" class="node">
<title>Node5</title>
<g id="a_Node000005"><a xlink:href="position_8h.html" target="_top" xlink:title=" ">
<polygon fill="white" stroke="#666666" points="319.5,-140 210.5,-140 210.5,-110 319.5,-110 319.5,-140"/>
<text text-anchor="start" x="218.5" y="-128" font-family="Helvetica,sans-Serif" font-size="10.00">tic_tac_toe/models</text>
<text text-anchor="middle" x="265" y="-117" font-family="Helvetica,sans-Serif" font-size="10.00">/position.h</text>
</a>
</g>
</g>
<!-- Node3&#45;&gt;Node5 -->
<g id="edge4_Node000003_Node000005" class="edge">
<title>Node3&#45;&gt;Node5</title>
<g id="a_edge4_Node000003_Node000005"><a xlink:title=" ">
<path fill="none" stroke="#63b8ff" d="M185.38,-175.95C199.6,-167.03 218.2,-155.36 233.85,-145.54"/>
<polygon fill="#63b8ff" stroke="#63b8ff" points="236.06,-148.29 242.67,-140.01 232.34,-142.36 236.06,-148.29"/>
</a>
</g>
</g>
<!-- Node7 -->
<g id="Node000007" class="node">
<title>Node7</title>
<g id="a_Node000007"><a xlink:href="symbol_8h.html" target="_top" xlink:title=" ">
<polygon fill="white" stroke="#666666" points="240,-74 86,-74 86,-55 240,-55 240,-74"/>
<text text-anchor="middle" x="163" y="-62" font-family="Helvetica,sans-Serif" font-size="10.00">tic_tac_toe/enums/symbol.h</text>
</a>
</g>
</g>
<!-- Node3&#45;&gt;Node7 -->
<g id="edge8_Node000003_Node000007" class="edge">
<title>Node3&#45;&gt;Node7</title>
<g id="a_edge8_Node000003_Node000007"><a xlink:title=" ">
<path fill="none" stroke="#63b8ff" d="M163,-175.72C163,-153.12 163,-109.12 163,-84.09"/>
<polygon fill="#63b8ff" stroke="#63b8ff" points="166.5,-84.07 163,-74.07 159.5,-84.07 166.5,-84.07"/>
</a>
</g>
</g>
<!-- Node3&#45;&gt;Node9 -->
<g id="edge9_Node000003_Node000009" class="edge">
<title>Node3&#45;&gt;Node9</title>
<g id="a_edge9_Node000003_Node000009"><a xlink:title=" ">
<path fill="none" stroke="#63b8ff" d="M139.96,-175.95C125.19,-166.95 105.81,-155.14 89.61,-145.27"/>
<polygon fill="#63b8ff" stroke="#63b8ff" points="91.35,-142.23 80.99,-140.01 87.71,-148.21 91.35,-142.23"/>
</a>
</g>
</g>
<!-- Node6 -->
<g id="Node000006" class="node">
<title>Node6</title>
<g id="a_Node000006"><a xlink:title=" ">
<polygon fill="#e0e0e0" stroke="#999999" points="303.5,-74 258.5,-74 258.5,-55 303.5,-55 303.5,-74"/>
<text text-anchor="middle" x="281" y="-62" font-family="Helvetica,sans-Serif" font-size="10.00">utility</text>
</a>
</g>
</g>
<!-- Node5&#45;&gt;Node6 -->
<g id="edge5_Node000005_Node000006" class="edge">
<title>Node5&#45;&gt;Node6</title>
<g id="a_edge5_Node000005_Node000006"><a xlink:title=" ">
<path fill="none" stroke="#63b8ff" d="M268.87,-109.84C270.98,-102.13 273.62,-92.49 275.89,-84.17"/>
<polygon fill="#63b8ff" stroke="#63b8ff" points="279.34,-84.84 278.6,-74.27 272.59,-82.99 279.34,-84.84"/>
</a>
</g>
</g>
<!-- Node5&#45;&gt;Node7 -->
<g id="edge6_Node000005_Node000007" class="edge">
<title>Node5&#45;&gt;Node7</title>
<g id="a_edge6_Node000005_Node000007"><a xlink:title=" ">
<path fill="none" stroke="#63b8ff" d="M240.57,-109.99C224.31,-100.66 203.05,-88.47 186.9,-79.21"/>
<polygon fill="#63b8ff" stroke="#63b8ff" points="188.48,-76.08 178.06,-74.14 185,-82.15 188.48,-76.08"/>
</a>
</g>
</g>
<!-- Node8 -->
<g id="Node000008" class="node">
<title>Node8</title>
<g id="a_Node000008"><a xlink:title=" ">
<polygon fill="#e0e0e0" stroke="#999999" points="185,-19 141,-19 141,0 185,0 185,-19"/>
<text text-anchor="middle" x="163" y="-7" font-family="Helvetica,sans-Serif" font-size="10.00">string</text>
</a>
</g>
</g>
<!-- Node7&#45;&gt;Node8 -->
<g id="edge7_Node000007_Node000008" class="edge">
<title>Node7&#45;&gt;Node8</title>
<g id="a_edge7_Node000007_Node000008"><a xlink:title=" ">
<path fill="none" stroke="#63b8ff" d="M163,-54.75C163,-47.8 163,-37.85 163,-29.13"/>
<polygon fill="#63b8ff" stroke="#63b8ff" points="166.5,-29.09 163,-19.09 159.5,-29.09 166.5,-29.09"/>
</a>
</g>
</g>
<!-- Node9&#45;&gt;Node8 -->
<g id="edge10_Node000009_Node000008" class="edge">
<title>Node9&#45;&gt;Node8</title>
<g id="a_edge10_Node000009_Node000008"><a xlink:title=" ">
<path fill="none" stroke="#63b8ff" d="M58.63,-109.8C59.98,-94.7 64.17,-70.83 77,-55 90.82,-37.95 112.9,-26.72 131.23,-19.8"/>
<polygon fill="#63b8ff" stroke="#63b8ff" points="132.41,-23.1 140.68,-16.48 130.09,-16.5 132.41,-23.1"/>
</a>
</g>
</g>
<!-- Node10&#45;&gt;Node4 -->
<g id="edge21_Node000010_Node000004" class="edge">
<title>Node10&#45;&gt;Node4</title>
<g id="a_edge21_Node000010_Node000004"><a xlink:title=" ">
<path fill="none" stroke="#63b8ff" d="M625,-241.91C616.38,-215.39 601.01,-156.53 616,-110 619.34,-99.62 626.1,-89.62 632.55,-81.74"/>
<polygon fill="#63b8ff" stroke="#63b8ff" points="635.29,-83.92 639.25,-74.1 630.03,-79.31 635.29,-83.92"/>
</a>
</g>
</g>
<!-- Node11 -->
<g id="Node000011" class="node">
<title>Node11</title>
<g id="a_Node000011"><a xlink:href="rollout__strategy__interface_8h.html" target="_top" xlink:title=" ">
<polygon fill="white" stroke="#666666" points="893.5,-206 738.5,-206 738.5,-176 893.5,-176 893.5,-206"/>
<text text-anchor="start" x="746.5" y="-194" font-family="Helvetica,sans-Serif" font-size="10.00">monte_carlo/models</text>
<text text-anchor="middle" x="816" y="-183" font-family="Helvetica,sans-Serif" font-size="10.00">/rollout_strategy_interface.h</text>
</a>
</g>
</g>
<!-- Node10&#45;&gt;Node11 -->
<g id="edge12_Node000010_Node000011" class="edge">
<title>Node10&#45;&gt;Node11</title>
<g id="a_edge12_Node000010_Node000011"><a xlink:title=" ">
<path fill="none" stroke="#63b8ff" d="M670.82,-241.95C698.68,-232.37 735.78,-219.6 765.5,-209.37"/>
<polygon fill="#63b8ff" stroke="#63b8ff" points="766.96,-212.58 775.28,-206.01 764.68,-205.96 766.96,-212.58"/>
</a>
</g>
</g>
<!-- Node15 -->
<g id="Node000015" class="node">
<title>Node15</title>
<g id="a_Node000015"><a xlink:title=" ">
<polygon fill="#e0e0e0" stroke="#999999" points="671.5,-134.5 624.5,-134.5 624.5,-115.5 671.5,-115.5 671.5,-134.5"/>
<text text-anchor="middle" x="648" y="-122.5" font-family="Helvetica,sans-Serif" font-size="10.00">vector</text>
</a>
</g>
</g>
<!-- Node10&#45;&gt;Node15 -->
<g id="edge20_Node000010_Node000015" class="edge">
<title>Node10&#45;&gt;Node15</title>
<g id="a_edge20_Node000010_Node000015"><a xlink:title=" ">
<path fill="none" stroke="#63b8ff" d="M631.96,-241.84C635.21,-218.34 641.73,-171.26 645.38,-144.93"/>
<polygon fill="#63b8ff" stroke="#63b8ff" points="648.88,-145.13 646.79,-134.75 641.95,-144.17 648.88,-145.13"/>
</a>
</g>
</g>
<!-- Node11&#45;&gt;Node4 -->
<g id="edge17_Node000011_Node000004" class="edge">
<title>Node11&#45;&gt;Node4</title>
<g id="a_edge17_Node000011_Node000004"><a xlink:title=" ">
<path fill="none" stroke="#63b8ff" d="M798.61,-175.74C778.53,-159.42 744.39,-132.12 714,-110 699.61,-99.53 683,-88.34 670.05,-79.79"/>
<polygon fill="#63b8ff" stroke="#63b8ff" points="671.62,-76.64 661.34,-74.09 667.79,-82.5 671.62,-76.64"/>
</a>
</g>
</g>
<!-- Node12 -->
<g id="Node000012" class="node">
<title>Node12</title>
<g id="a_Node000012"><a xlink:href="action_8h.html" target="_top" xlink:title=" ">
<polygon fill="white" stroke="#666666" points="882,-140 766,-140 766,-110 882,-110 882,-140"/>
<text text-anchor="start" x="774" y="-128" font-family="Helvetica,sans-Serif" font-size="10.00">monte_carlo/models</text>
<text text-anchor="middle" x="824" y="-117" font-family="Helvetica,sans-Serif" font-size="10.00">/action.h</text>
</a>
</g>
</g>
<!-- Node11&#45;&gt;Node12 -->
<g id="edge13_Node000011_Node000012" class="edge">
<title>Node11&#45;&gt;Node12</title>
<g id="a_edge13_Node000011_Node000012"><a xlink:title=" ">
<path fill="none" stroke="#63b8ff" d="M817.78,-175.8C818.72,-168.26 819.9,-158.78 820.98,-150.13"/>
<polygon fill="#63b8ff" stroke="#63b8ff" points="824.46,-150.52 822.23,-140.16 817.52,-149.65 824.46,-150.52"/>
</a>
</g>
</g>
<!-- Node13 -->
<g id="Node000013" class="node">
<title>Node13</title>
<g id="a_Node000013"><a xlink:title=" ">
<polygon fill="#e0e0e0" stroke="#999999" points="895.5,-74 838.5,-74 838.5,-55 895.5,-55 895.5,-74"/>
<text text-anchor="middle" x="867" y="-62" font-family="Helvetica,sans-Serif" font-size="10.00">ostream</text>
</a>
</g>
</g>
<!-- Node11&#45;&gt;Node13 -->
<g id="edge18_Node000011_Node000013" class="edge">
<title>Node11&#45;&gt;Node13</title>
<g id="a_edge18_Node000011_Node000013"><a xlink:title=" ">
<path fill="none" stroke="#63b8ff" d="M851.07,-175.85C866.23,-167.77 882.43,-156 891,-140 900.88,-121.55 890.18,-98.33 880.09,-82.76"/>
<polygon fill="#63b8ff" stroke="#63b8ff" points="882.68,-80.35 874.08,-74.17 876.94,-84.37 882.68,-80.35"/>
</a>
</g>
</g>
<!-- Node11&#45;&gt;Node14 -->
<g id="edge16_Node000011_Node000014" class="edge">
<title>Node11&#45;&gt;Node14</title>
<g id="a_edge16_Node000011_Node000014"><a xlink:title=" ">
<path fill="none" stroke="#63b8ff" d="M849.36,-175.95C875.9,-164.78 912.69,-149.29 938.24,-138.53"/>
<polygon fill="#63b8ff" stroke="#63b8ff" points="939.91,-141.62 947.77,-134.52 937.2,-135.17 939.91,-141.62"/>
</a>
</g>
</g>
<!-- Node11&#45;&gt;Node15 -->
<g id="edge19_Node000011_Node000015" class="edge">
<title>Node11&#45;&gt;Node15</title>
<g id="a_edge19_Node000011_Node000015"><a xlink:title=" ">
<path fill="none" stroke="#63b8ff" d="M779.13,-175.95C749.41,-164.63 708.05,-148.88 679.77,-138.1"/>
<polygon fill="#63b8ff" stroke="#63b8ff" points="680.95,-134.81 670.36,-134.52 678.46,-141.35 680.95,-134.81"/>
</a>
</g>
</g>
<!-- Node12&#45;&gt;Node4 -->
<g id="edge14_Node000012_Node000004" class="edge">
<title>Node12&#45;&gt;Node4</title>
<g id="a_edge14_Node000012_Node000004"><a xlink:title=" ">
<path fill="none" stroke="#63b8ff" d="M781.84,-109.99C751.73,-99.98 711.69,-86.67 683.27,-77.22"/>
<polygon fill="#63b8ff" stroke="#63b8ff" points="684.33,-73.89 673.73,-74.05 682.12,-80.53 684.33,-73.89"/>
</a>
</g>
</g>
<!-- Node12&#45;&gt;Node13 -->
<g id="edge15_Node000012_Node000013" class="edge">
<title>Node12&#45;&gt;Node13</title>
<g id="a_edge15_Node000012_Node000013"><a xlink:title=" ">
<path fill="none" stroke="#63b8ff" d="M834.41,-109.84C840.46,-101.61 848.12,-91.18 854.5,-82.51"/>
<polygon fill="#63b8ff" stroke="#63b8ff" points="857.45,-84.4 860.56,-74.27 851.81,-80.25 857.45,-84.4"/>
</a>
</g>
</g>
<!-- Node16&#45;&gt;Node3 -->
<g id="edge26_Node000016_Node000003" class="edge">
<title>Node16&#45;&gt;Node3</title>
<g id="a_edge26_Node000016_Node000003"><a xlink:title=" ">
<path fill="none" stroke="#63b8ff" d="M368.39,-248.66C333.38,-239 270.83,-221.75 223.93,-208.81"/>
<polygon fill="#63b8ff" stroke="#63b8ff" points="224.74,-205.4 214.17,-206.12 222.88,-212.15 224.74,-205.4"/>
</a>
</g>
</g>
<!-- Node16&#45;&gt;Node4 -->
<g id="edge29_Node000016_Node000004" class="edge">
<title>Node16&#45;&gt;Node4</title>
<g id="a_edge29_Node000016_Node000004"><a xlink:title=" ">
<path fill="none" stroke="#63b8ff" d="M413.75,-247.46C432.91,-238.36 463.14,-222.95 487,-206 503.16,-194.52 505.16,-189.14 520,-176 558.92,-141.52 605.26,-101.86 630.12,-80.69"/>
<polygon fill="#63b8ff" stroke="#63b8ff" points="632.62,-83.16 637.97,-74.01 628.08,-77.82 632.62,-83.16"/>
</a>
</g>
</g>
<!-- Node16&#45;&gt;Node5 -->
<g id="edge27_Node000016_Node000005" class="edge">
<title>Node16&#45;&gt;Node5</title>
<g id="a_edge27_Node000016_Node000005"><a xlink:title=" ">
<path fill="none" stroke="#63b8ff" d="M369.24,-247.36C348.78,-239.38 320.6,-225.75 302,-206 287.14,-190.22 277.4,-167.42 271.66,-150.19"/>
<polygon fill="#63b8ff" stroke="#63b8ff" points="274.9,-148.82 268.6,-140.3 268.21,-150.89 274.9,-148.82"/>
</a>
</g>
</g>
<!-- Node16&#45;&gt;Node15 -->
<g id="edge25_Node000016_Node000015" class="edge">
<title>Node16&#45;&gt;Node15</title>
<g id="a_edge25_Node000016_Node000015"><a xlink:title=" ">
<path fill="none" stroke="#63b8ff" d="M420,-247.49C445.65,-238.41 486.44,-223.03 520,-206 559.55,-185.93 602.74,-157.44 627.48,-140.43"/>
<polygon fill="#63b8ff" stroke="#63b8ff" points="629.49,-143.29 635.72,-134.72 625.5,-137.54 629.49,-143.29"/>
</a>
</g>
</g>
<!-- Node17 -->
<g id="Node000017" class="node">
<title>Node17</title>
<g id="a_Node000017"><a xlink:href="alignment_8h.html" target="_top" xlink:title=" ">
<polygon fill="white" stroke="#666666" points="478.5,-200.5 311.5,-200.5 311.5,-181.5 478.5,-181.5 478.5,-200.5"/>
<text text-anchor="middle" x="395" y="-188.5" font-family="Helvetica,sans-Serif" font-size="10.00">tic_tac_toe/enums/alignment.h</text>
</a>
</g>
</g>
<!-- Node16&#45;&gt;Node17 -->
<g id="edge28_Node000016_Node000017" class="edge">
<title>Node16&#45;&gt;Node17</title>
<g id="a_edge28_Node000016_Node000017"><a xlink:title=" ">
<path fill="none" stroke="#63b8ff" d="M395,-247.37C395,-238.16 395,-223.29 395,-211.27"/>
<polygon fill="#63b8ff" stroke="#63b8ff" points="398.5,-210.91 395,-200.91 391.5,-210.91 398.5,-210.91"/>
</a>
</g>
</g>
<!-- Node18&#45;&gt;Node10 -->
<g id="edge32_Node000018_Node000010" class="edge">
<title>Node18&#45;&gt;Node10</title>
<g id="a_edge32_Node000018_Node000010"><a xlink:title=" ">
<path fill="none" stroke="#63b8ff" d="M482.34,-373.92C471.91,-356.78 458.59,-327.71 473,-308 493.35,-280.17 529.34,-267.46 561.73,-261.8"/>
<polygon fill="#63b8ff" stroke="#63b8ff" points="562.3,-265.26 571.65,-260.26 561.23,-258.34 562.3,-265.26"/>
</a>
</g>
</g>
<!-- Node19&#45;&gt;Node5 -->
<g id="edge38_Node000019_Node000005" class="edge">
<title>Node19&#45;&gt;Node5</title>
<g id="a_edge38_Node000019_Node000005"><a xlink:title=" ">
<path fill="none" stroke="#63b8ff" d="M633.85,-373.89C627.4,-357.24 615.31,-329.16 600,-308 586.55,-289.41 578.38,-289.03 563,-272 526.53,-231.61 533.07,-204.97 487,-176 439.48,-146.12 376.33,-134.01 329.53,-129.14"/>
<polygon fill="#63b8ff" stroke="#63b8ff" points="329.8,-125.65 319.51,-128.18 329.13,-132.62 329.8,-125.65"/>
</a>
</g>
</g>
<!-- Node20 -->
<g id="Node000020" class="node">
<title>Node20</title>
<g id="a_Node000020"><a xlink:href="game__state_8h.html" target="_top" xlink:title=" ">
<polygon fill="white" stroke="#666666" points="590.5,-338 481.5,-338 481.5,-308 590.5,-308 590.5,-338"/>
<text text-anchor="start" x="489.5" y="-326" font-family="Helvetica,sans-Serif" font-size="10.00">tic_tac_toe/models</text>
<text text-anchor="middle" x="536" y="-315" font-family="Helvetica,sans-Serif" font-size="10.00">/game_state.h</text>
</a>
</g>
</g>
<!-- Node19&#45;&gt;Node20 -->
<g id="edge35_Node000019_Node000020" class="edge">
<title>Node19&#45;&gt;Node20</title>
<g id="a_edge35_Node000019_Node000020"><a xlink:title=" ">
<path fill="none" stroke="#63b8ff" d="M616.4,-373.95C602.04,-365.03 583.26,-353.36 567.45,-343.54"/>
<polygon fill="#63b8ff" stroke="#63b8ff" points="568.89,-340.32 558.55,-338.01 565.2,-346.26 568.89,-340.32"/>
</a>
</g>
</g>
<!-- Node21 -->
<g id="Node000021" class="node">
<title>Node21</title>
<g id="a_Node000021"><a xlink:href="tree__factory__interface_8h.html" target="_top" xlink:title=" ">
<polygon fill="white" stroke="#666666" points="1093.5,-206 956.5,-206 956.5,-176 1093.5,-176 1093.5,-206"/>
<text text-anchor="start" x="964.5" y="-194" font-family="Helvetica,sans-Serif" font-size="10.00">monte_carlo/factories</text>
<text text-anchor="middle" x="1025" y="-183" font-family="Helvetica,sans-Serif" font-size="10.00">/tree_factory_interface.h</text>
</a>
</g>
</g>
<!-- Node19&#45;&gt;Node21 -->
<g id="edge39_Node000019_Node000021" class="edge">
<title>Node19&#45;&gt;Node21</title>
<g id="a_edge39_Node000019_Node000021"><a xlink:title=" ">
<path fill="none" stroke="#63b8ff" d="M699.06,-374.91C732.55,-366.51 774.53,-354.15 810,-338 859.48,-315.48 867.98,-302.48 913,-272 942.3,-252.16 975.18,-228.51 997.69,-212.09"/>
<polygon fill="#63b8ff" stroke="#63b8ff" points="999.78,-214.9 1005.78,-206.17 995.65,-209.25 999.78,-214.9"/>
</a>
</g>
</g>
<!-- Node22 -->
<g id="Node000022" class="node">
<title>Node22</title>
<g id="a_Node000022"><a xlink:href="node__base_8h.html" target="_top" xlink:title=" ">
<polygon fill="white" stroke="#666666" points="801,-338 685,-338 685,-308 801,-308 801,-338"/>
<text text-anchor="start" x="693" y="-326" font-family="Helvetica,sans-Serif" font-size="10.00">monte_carlo/models</text>
<text text-anchor="middle" x="743" y="-315" font-family="Helvetica,sans-Serif" font-size="10.00">/node_base.h</text>
</a>
</g>
</g>
<!-- Node19&#45;&gt;Node22 -->
<g id="edge42_Node000019_Node000022" class="edge">
<title>Node19&#45;&gt;Node22</title>
<g id="a_edge42_Node000019_Node000022"><a xlink:title=" ">
<path fill="none" stroke="#63b8ff" d="M661.82,-373.95C676.45,-364.95 695.64,-353.14 711.69,-343.27"/>
<polygon fill="#63b8ff" stroke="#63b8ff" points="713.55,-346.23 720.23,-338.01 709.88,-340.27 713.55,-346.23"/>
</a>
</g>
</g>
<!-- Node20&#45;&gt;Node4 -->
<g id="edge36_Node000020_Node000004" class="edge">
<title>Node20&#45;&gt;Node4</title>
<g id="a_edge36_Node000020_Node000004"><a xlink:title=" ">
<path fill="none" stroke="#63b8ff" d="M590.64,-320.78C627.15,-316.77 672.79,-304.87 697,-272 714.95,-247.63 737.6,-251.99 681,-110 676.92,-99.76 669.88,-89.78 663.35,-81.87"/>
<polygon fill="#63b8ff" stroke="#63b8ff" points="665.85,-79.41 656.63,-74.19 660.58,-84.02 665.85,-79.41"/>
</a>
</g>
</g>
<!-- Node20&#45;&gt;Node16 -->
<g id="edge37_Node000020_Node000016" class="edge">
<title>Node20&#45;&gt;Node16</title>
<g id="a_edge37_Node000020_Node000016"><a xlink:title=" ">
<path fill="none" stroke="#63b8ff" d="M505.06,-307.95C480.55,-296.83 446.61,-281.42 422.92,-270.67"/>
<polygon fill="#63b8ff" stroke="#63b8ff" points="424.32,-267.46 413.76,-266.52 421.42,-273.84 424.32,-267.46"/>
</a>
</g>
</g>
<!-- Node21&#45;&gt;Node4 -->
<g id="edge40_Node000021_Node000004" class="edge">
<title>Node21&#45;&gt;Node4</title>
<g id="a_edge40_Node000021_Node000004"><a xlink:title=" ">
<path fill="none" stroke="#63b8ff" d="M1026.29,-175.76C1027.07,-157.62 1025.35,-126.64 1007,-110 983.61,-88.8 775.48,-73.45 687.25,-67.84"/>
<polygon fill="#63b8ff" stroke="#63b8ff" points="687.31,-64.33 677.11,-67.2 686.87,-71.32 687.31,-64.33"/>
</a>
</g>
</g>
<!-- Node21&#45;&gt;Node8 -->
<g id="edge41_Node000021_Node000008" class="edge">
<title>Node21&#45;&gt;Node8</title>
<g id="a_edge41_Node000021_Node000008"><a xlink:title=" ">
<path fill="none" stroke="#63b8ff" d="M1030.05,-175.99C1035.25,-158.94 1040.93,-129.94 1028,-110 995.43,-59.75 963.16,-69.25 905,-55 767.37,-21.29 319.87,-12.67 195.39,-10.9"/>
<polygon fill="#63b8ff" stroke="#63b8ff" points="195.39,-7.4 185.35,-10.76 195.3,-14.4 195.39,-7.4"/>
</a>
</g>
</g>
<!-- Node22&#45;&gt;Node10 -->
<g id="edge43_Node000022_Node000010" class="edge">
<title>Node22&#45;&gt;Node10</title>
<g id="a_edge43_Node000022_Node000010"><a xlink:title=" ">
<path fill="none" stroke="#63b8ff" d="M718.2,-307.95C702.16,-298.87 681.07,-286.93 663.54,-277"/>
<polygon fill="#63b8ff" stroke="#63b8ff" points="665.17,-273.9 654.74,-272.01 661.72,-279.99 665.17,-273.9"/>
</a>
</g>
</g>
<!-- Node22&#45;&gt;Node21 -->
<g id="edge44_Node000022_Node000021" class="edge">
<title>Node22&#45;&gt;Node21</title>
<g id="a_edge44_Node000022_Node000021"><a xlink:title=" ">
<path fill="none" stroke="#63b8ff" d="M781.17,-307.95C806.36,-298.41 839.96,-285.17 869,-272 911.45,-252.74 958.95,-227.9 990.25,-211.04"/>
<polygon fill="#63b8ff" stroke="#63b8ff" points="992.29,-213.91 999.43,-206.08 988.96,-207.75 992.29,-213.91"/>
</a>
</g>
</g>
<!-- Node23 -->
<g id="Node000023" class="node">
<title>Node23</title>
<g id="a_Node000023"><a xlink:title=" ">
<polygon fill="#e0e0e0" stroke="#999999" points="860,-272 744,-272 744,-242 860,-242 860,-272"/>
<text text-anchor="start" x="752" y="-260" font-family="Helvetica,sans-Serif" font-size="10.00">monte_carlo/models</text>
<text text-anchor="middle" x="802" y="-249" font-family="Helvetica,sans-Serif" font-size="10.00">/node_base.tpp</text>
</a>
</g>
</g>
<!-- Node22&#45;&gt;Node23 -->
<g id="edge45_Node000022_Node000023" class="edge">
<title>Node22&#45;&gt;Node23</title>
<g id="a_edge45_Node000022_Node000023"><a xlink:title=" ">
<path fill="none" stroke="#63b8ff" d="M756.09,-307.8C763.73,-299.51 773.52,-288.89 782.1,-279.59"/>
<polygon fill="#63b8ff" stroke="#63b8ff" points="784.74,-281.89 788.94,-272.16 779.59,-277.14 784.74,-281.89"/>
</a>
</g>
</g>
</g>
</svg>
