<?xml version="1.0" encoding="UTF-8" standalone="no"?>
<!DOCTYPE svg PUBLIC "-//W3C//DTD SVG 1.1//EN"
 "http://www.w3.org/Graphics/SVG/1.1/DTD/svg11.dtd">
<!-- Generated by graphviz version 2.43.0 (0)
 -->
<!-- Title: sophia::monte_carlo::tic_tac_toe::models::Bot::NextMove Pages: 1 -->
<svg width="316pt" height="157pt"
 viewBox="0.00 0.00 316.00 156.50" xmlns="http://www.w3.org/2000/svg" xmlns:xlink="http://www.w3.org/1999/xlink">
<g id="graph0" class="graph" transform="scale(1 1) rotate(0) translate(4 152.5)">
<title>sophia::monte_carlo::tic_tac_toe::models::Bot::NextMove</title>
<!-- Node1 -->
<g id="Node000001" class="node">
<title>Node1</title>
<g id="a_Node000001"><a xlink:title="Prompts the bot to make its next move.">
<polygon fill="#999999" stroke="#666666" points="118,-89.5 0,-89.5 0,-48.5 118,-48.5 118,-89.5"/>
<text text-anchor="start" x="8" y="-77.5" font-family="Helvetica,sans-Serif" font-size="10.00">sophia::monte_carlo</text>
<text text-anchor="start" x="8" y="-66.5" font-family="Helvetica,sans-Serif" font-size="10.00">::tic_tac_toe::models</text>
<text text-anchor="middle" x="59" y="-55.5" font-family="Helvetica,sans-Serif" font-size="10.00">::Bot::NextMove</text>
</a>
</g>
</g>
<!-- Node2 -->
<g id="Node000002" class="node">
<title>Node2</title>
<g id="a_Node000002"><a xlink:href="classsophia_1_1monte__carlo_1_1tic__tac__toe_1_1models_1_1Position.html#aff4ed9535dba02b7d62a36a98213cad6" target="_top" xlink:title="Determines if the given move name can be successfully parsed.">
<polygon fill="white" stroke="#666666" points="290,-148.5 172,-148.5 172,-107.5 290,-107.5 290,-148.5"/>
<text text-anchor="start" x="180" y="-136.5" font-family="Helvetica,sans-Serif" font-size="10.00">sophia::monte_carlo</text>
<text text-anchor="start" x="180" y="-125.5" font-family="Helvetica,sans-Serif" font-size="10.00">::tic_tac_toe::models</text>
<text text-anchor="middle" x="231" y="-114.5" font-family="Helvetica,sans-Serif" font-size="10.00">::Position::IsValid</text>
</a>
</g>
</g>
<!-- Node1&#45;&gt;Node2 -->
<g id="edge1_Node000001_Node000002" class="edge">
<title>Node1&#45;&gt;Node2</title>
<g id="a_edge1_Node000001_Node000002"><a xlink:title=" ">
<path fill="none" stroke="#63b8ff" d="M118.03,-89.14C132.31,-94.1 147.73,-99.45 162.41,-104.54"/>
<polygon fill="#63b8ff" stroke="#63b8ff" points="161.35,-107.88 171.94,-107.85 163.64,-101.27 161.35,-107.88"/>
</a>
</g>
</g>
<!-- Node3 -->
<g id="Node000003" class="node">
<title>Node3</title>
<g id="a_Node000003"><a xlink:href="classsophia_1_1monte__carlo_1_1tic__tac__toe_1_1models_1_1Position.html#a73f2bf0b7a04018d686d3dd392712a90" target="_top" xlink:title="Parses a move from a Move name.">
<polygon fill="white" stroke="#666666" points="291.5,-89.5 170.5,-89.5 170.5,-48.5 291.5,-48.5 291.5,-89.5"/>
<text text-anchor="start" x="178.5" y="-77.5" font-family="Helvetica,sans-Serif" font-size="10.00">sophia::monte_carlo</text>
<text text-anchor="start" x="178.5" y="-66.5" font-family="Helvetica,sans-Serif" font-size="10.00">::tic_tac_toe::models</text>
<text text-anchor="middle" x="231" y="-55.5" font-family="Helvetica,sans-Serif" font-size="10.00">::Position::ParseMove</text>
</a>
</g>
</g>
<!-- Node1&#45;&gt;Node3 -->
<g id="edge2_Node000001_Node000003" class="edge">
<title>Node1&#45;&gt;Node3</title>
<g id="a_edge2_Node000001_Node000003"><a xlink:title=" ">
<path fill="none" stroke="#63b8ff" d="M118.03,-69C131.65,-69 146.3,-69 160.38,-69"/>
<polygon fill="#63b8ff" stroke="#63b8ff" points="160.5,-72.5 170.5,-69 160.5,-65.5 160.5,-72.5"/>
</a>
</g>
</g>
<!-- Node4 -->
<g id="Node000004" class="node">
<title>Node4</title>
<g id="a_Node000004"><a xlink:href="classsophia_1_1monte__carlo_1_1MonteCarloTreeSearch.html#add75e8e0fa2db2b5c6ed1d10d5b1b2a4" target="_top" xlink:title="Runs the Monte Carlo Search algorithm.">
<polygon fill="white" stroke="#666666" points="308,-30 154,-30 154,0 308,0 308,-30"/>
<text text-anchor="start" x="162" y="-18" font-family="Helvetica,sans-Serif" font-size="10.00">sophia::monte_carlo</text>
<text text-anchor="middle" x="231" y="-7" font-family="Helvetica,sans-Serif" font-size="10.00">::MonteCarloTreeSearch::run</text>
</a>
</g>
</g>
<!-- Node1&#45;&gt;Node4 -->
<g id="edge3_Node000001_Node000004" class="edge">
<title>Node1&#45;&gt;Node4</title>
<g id="a_edge3_Node000001_Node000004"><a xlink:title=" ">
<path fill="none" stroke="#63b8ff" d="M118.03,-50.57C135.8,-44.92 155.33,-38.72 173.03,-33.1"/>
<polygon fill="#63b8ff" stroke="#63b8ff" points="174.19,-36.4 182.66,-30.04 172.07,-29.73 174.19,-36.4"/>
</a>
</g>
</g>
</g>
</svg>
