<?xml version="1.0" encoding="UTF-8" standalone="no"?>
<!DOCTYPE svg PUBLIC "-//W3C//DTD SVG 1.1//EN"
 "http://www.w3.org/Graphics/SVG/1.1/DTD/svg11.dtd">
<!-- Generated by graphviz version 2.43.0 (0)
 -->
<!-- Title: sophia::monte_carlo::tic_tac_toe::models::State::SelectAction Pages: 1 -->
<svg width="412pt" height="49pt"
 viewBox="0.00 0.00 412.00 49.00" xmlns="http://www.w3.org/2000/svg" xmlns:xlink="http://www.w3.org/1999/xlink">
<g id="graph0" class="graph" transform="scale(1 1) rotate(0) translate(4 45)">
<title>sophia::monte_carlo::tic_tac_toe::models::State::SelectAction</title>
<!-- Node1 -->
<g id="Node000001" class="node">
<title>Node1</title>
<g id="a_Node000001"><a xlink:title="Selects the available action with the given name.">
<polygon fill="#999999" stroke="#666666" points="118,-41 0,-41 0,0 118,0 118,-41"/>
<text text-anchor="start" x="8" y="-29" font-family="Helvetica,sans-Serif" font-size="10.00">sophia::monte_carlo</text>
<text text-anchor="start" x="8" y="-18" font-family="Helvetica,sans-Serif" font-size="10.00">::tic_tac_toe::models</text>
<text text-anchor="middle" x="59" y="-7" font-family="Helvetica,sans-Serif" font-size="10.00">::State::SelectAction</text>
</a>
</g>
</g>
<!-- Node2 -->
<g id="Node000002" class="node">
<title>Node2</title>
<g id="a_Node000002"><a xlink:href="classsophia_1_1monte__carlo_1_1tic__tac__toe_1_1models_1_1State.html#a8fcd53ac930d1160b69b4d8e9f0f6a22" target="_top" xlink:title="Gets all available actions that can be made at this given state.">
<polygon fill="white" stroke="#666666" points="306,-41 154,-41 154,0 306,0 306,-41"/>
<text text-anchor="start" x="162" y="-29" font-family="Helvetica,sans-Serif" font-size="10.00">sophia::monte_carlo</text>
<text text-anchor="start" x="162" y="-18" font-family="Helvetica,sans-Serif" font-size="10.00">::tic_tac_toe::models</text>
<text text-anchor="middle" x="230" y="-7" font-family="Helvetica,sans-Serif" font-size="10.00">::State::GetAvailableActions</text>
</a>
</g>
</g>
<!-- Node1&#45;&gt;Node2 -->
<g id="edge1_Node000001_Node000002" class="edge">
<title>Node1&#45;&gt;Node2</title>
<g id="a_edge1_Node000001_Node000002"><a xlink:title=" ">
<path fill="none" stroke="#63b8ff" d="M118.16,-20.5C126.4,-20.5 135,-20.5 143.62,-20.5"/>
<polygon fill="#63b8ff" stroke="#63b8ff" points="143.72,-24 153.72,-20.5 143.72,-17 143.72,-24"/>
</a>
</g>
</g>
<!-- Node3 -->
<g id="Node000003" class="node">
<title>Node3</title>
<g id="a_Node000003"><a xlink:href="state_8cpp.html#a137cb05c50e332e74a192d0e2be6f62f" target="_top" xlink:title=" ">
<polygon fill="white" stroke="#666666" points="404,-30 342,-30 342,-11 404,-11 404,-30"/>
<text text-anchor="middle" x="373" y="-18" font-family="Helvetica,sans-Serif" font-size="10.00">Alternate</text>
</a>
</g>
</g>
<!-- Node2&#45;&gt;Node3 -->
<g id="edge2_Node000002_Node000003" class="edge">
<title>Node2&#45;&gt;Node3</title>
<g id="a_edge2_Node000002_Node000003"><a xlink:title=" ">
<path fill="none" stroke="#63b8ff" d="M306.04,-20.5C314.82,-20.5 323.51,-20.5 331.55,-20.5"/>
<polygon fill="#63b8ff" stroke="#63b8ff" points="331.71,-24 341.71,-20.5 331.71,-17 331.71,-24"/>
</a>
</g>
</g>
</g>
</svg>
