<?xml version="1.0" encoding="UTF-8" standalone="no"?>
<!DOCTYPE svg PUBLIC "-//W3C//DTD SVG 1.1//EN"
 "http://www.w3.org/Graphics/SVG/1.1/DTD/svg11.dtd">
<!-- Generated by graphviz version 2.43.0 (0)
 -->
<!-- Title: sophia::monte_carlo::models::Action::UpperConfidenceBound Pages: 1 -->
<svg width="590pt" height="98pt"
 viewBox="0.00 0.00 590.00 97.50" xmlns="http://www.w3.org/2000/svg" xmlns:xlink="http://www.w3.org/1999/xlink">
<g id="graph0" class="graph" transform="scale(1 1) rotate(0) translate(4 93.5)">
<title>sophia::monte_carlo::models::Action::UpperConfidenceBound</title>
<!-- Node1 -->
<g id="Node000001" class="node">
<title>Node1</title>
<g id="a_Node000001"><a xlink:title=" ">
<polygon fill="#999999" stroke="#666666" points="185,-68 0,-68 0,-27 185,-27 185,-68"/>
<text text-anchor="start" x="8" y="-56" font-family="Helvetica,sans-Serif" font-size="10.00">sophia::monte_carlo</text>
<text text-anchor="start" x="8" y="-45" font-family="Helvetica,sans-Serif" font-size="10.00">::models::Action::UpperConfidence</text>
<text text-anchor="middle" x="92.5" y="-34" font-family="Helvetica,sans-Serif" font-size="10.00">Bound</text>
</a>
</g>
</g>
<!-- Node2 -->
<g id="Node000002" class="node">
<title>Node2</title>
<g id="a_Node000002"><a xlink:href="classsophia_1_1monte__carlo_1_1models_1_1Action.html#a1ed1fb9b12a952cd2cac018149945026" target="_top" xlink:title=" ">
<polygon fill="white" stroke="#666666" points="376,-89.5 245,-89.5 245,-59.5 376,-59.5 376,-89.5"/>
<text text-anchor="start" x="253" y="-77.5" font-family="Helvetica,sans-Serif" font-size="10.00">sophia::monte_carlo</text>
<text text-anchor="middle" x="310.5" y="-66.5" font-family="Helvetica,sans-Serif" font-size="10.00">::models::Action::Target</text>
</a>
</g>
</g>
<!-- Node1&#45;&gt;Node2 -->
<g id="edge1_Node000001_Node000002" class="edge">
<title>Node1&#45;&gt;Node2</title>
<g id="a_edge1_Node000001_Node000002"><a xlink:title=" ">
<path fill="none" stroke="#63b8ff" d="M185.1,-58.95C201.61,-61.01 218.64,-63.14 234.6,-65.14"/>
<polygon fill="#63b8ff" stroke="#63b8ff" points="234.56,-68.66 244.92,-66.43 235.43,-61.71 234.56,-68.66"/>
</a>
</g>
</g>
<!-- Node3 -->
<g id="Node000003" class="node">
<title>Node3</title>
<g id="a_Node000003"><a xlink:href="classsophia_1_1monte__carlo_1_1models_1_1Node.html#a731a6c2e925df83e28eb1cdb117e2351" target="_top" xlink:title=" ">
<polygon fill="white" stroke="#666666" points="400,-41 221,-41 221,0 400,0 400,-41"/>
<text text-anchor="start" x="229" y="-29" font-family="Helvetica,sans-Serif" font-size="10.00">sophia::monte_carlo</text>
<text text-anchor="start" x="229" y="-18" font-family="Helvetica,sans-Serif" font-size="10.00">::models::Node::UpperConfidence</text>
<text text-anchor="middle" x="310.5" y="-7" font-family="Helvetica,sans-Serif" font-size="10.00">Bound</text>
</a>
</g>
</g>
<!-- Node1&#45;&gt;Node3 -->
<g id="edge2_Node000001_Node000003" class="edge">
<title>Node1&#45;&gt;Node3</title>
<g id="a_edge2_Node000001_Node000003"><a xlink:title=" ">
<path fill="none" stroke="#63b8ff" d="M185.1,-36.05C193.62,-34.99 202.27,-33.9 210.84,-32.83"/>
<polygon fill="#63b8ff" stroke="#63b8ff" points="211.36,-36.29 220.85,-31.58 210.5,-29.35 211.36,-36.29"/>
</a>
</g>
</g>
<!-- Node4 -->
<g id="Node000004" class="node">
<title>Node4</title>
<g id="a_Node000004"><a xlink:href="classsophia_1_1monte__carlo_1_1models_1_1Node.html#a48dfc98b8e0e68a0682e7dae957328cf" target="_top" xlink:title=" ">
<polygon fill="white" stroke="#666666" points="582,-35.5 436,-35.5 436,-5.5 582,-5.5 582,-35.5"/>
<text text-anchor="start" x="444" y="-23.5" font-family="Helvetica,sans-Serif" font-size="10.00">sophia::monte_carlo</text>
<text text-anchor="middle" x="509" y="-12.5" font-family="Helvetica,sans-Serif" font-size="10.00">::models::Node::VisitCount</text>
</a>
</g>
</g>
<!-- Node3&#45;&gt;Node4 -->
<g id="edge3_Node000003_Node000004" class="edge">
<title>Node3&#45;&gt;Node4</title>
<g id="a_edge3_Node000003_Node000004"><a xlink:title=" ">
<path fill="none" stroke="#63b8ff" d="M400.26,-20.5C408.72,-20.5 417.28,-20.5 425.67,-20.5"/>
<polygon fill="#63b8ff" stroke="#63b8ff" points="425.82,-24 435.82,-20.5 425.82,-17 425.82,-24"/>
</a>
</g>
</g>
</g>
</svg>
