<?xml version="1.0" encoding="UTF-8" standalone="no"?>
<!DOCTYPE svg PUBLIC "-//W3C//DTD SVG 1.1//EN"
 "http://www.w3.org/Graphics/SVG/1.1/DTD/svg11.dtd">
<!-- Generated by graphviz version 2.43.0 (0)
 -->
<!-- Title: sophia::monte_carlo::tic_tac_toe::models::Player Pages: 1 -->
<svg width="273pt" height="387pt"
 viewBox="0.00 0.00 272.50 387.00" xmlns="http://www.w3.org/2000/svg" xmlns:xlink="http://www.w3.org/1999/xlink">
<g id="graph0" class="graph" transform="scale(1 1) rotate(0) translate(4 383)">
<title>sophia::monte_carlo::tic_tac_toe::models::Player</title>
<!-- Node1 -->
<g id="Node000001" class="node">
<title>Node1</title>
<g id="a_Node000001"><a xlink:title="A Player in a Tic Tac Toe Game.">
<polygon fill="#999999" stroke="transparent" points="194,-272 80,-272 80,-141 194,-141 194,-272"/>
<text text-anchor="start" x="86" y="-259.5" font-family="Helvetica,sans-Serif" font-size="10.00">sophia::monte_carlo</text>
<text text-anchor="start" x="86" y="-248.5" font-family="Helvetica,sans-Serif" font-size="10.00">::tic_tac_toe::models</text>
<text text-anchor="start" x="118.5" y="-237.5" font-family="Helvetica,sans-Serif" font-size="10.00">::Player</text>
<text text-anchor="start" x="84" y="-222.5" font-family="Helvetica,sans-Serif" font-size="10.00">#</text>
<text text-anchor="start" x="97" y="-222.5" font-family="Helvetica,sans-Serif" font-size="10.00">m_player_symbol_</text>
<text text-anchor="start" x="84" y="-207.5" font-family="Helvetica,sans-Serif" font-size="10.00">+</text>
<text text-anchor="start" x="97" y="-207.5" font-family="Helvetica,sans-Serif" font-size="10.00">Player()</text>
<text text-anchor="start" x="84" y="-192.5" font-family="Helvetica,sans-Serif" font-size="10.00">+</text>
<text text-anchor="start" x="97" y="-192.5" font-family="Helvetica,sans-Serif" font-size="10.00">~Player()</text>
<text text-anchor="start" x="84" y="-177.5" font-family="Helvetica,sans-Serif" font-size="10.00">+</text>
<text text-anchor="start" x="97" y="-177.5" font-family="Helvetica,sans-Serif" font-size="10.00">symbol()</text>
<text text-anchor="start" x="84" y="-162.5" font-family="Helvetica,sans-Serif" font-size="10.00">+</text>
<text text-anchor="start" x="97" y="-162.5" font-family="Helvetica,sans-Serif" font-size="10.00">NextMove()</text>
<text text-anchor="start" x="84" y="-147.5" font-family="Helvetica,sans-Serif" font-size="10.00">+</text>
<text text-anchor="start" x="97" y="-147.5" font-family="Helvetica,sans-Serif" font-size="10.00">Value()</text>
<polygon fill="#666666" stroke="#666666" points="80,-232.5 80,-232.5 194,-232.5 194,-232.5 80,-232.5"/>
<polygon fill="#666666" stroke="#666666" points="80,-217.5 80,-217.5 95,-217.5 95,-217.5 80,-217.5"/>
<polygon fill="#666666" stroke="#666666" points="95,-217.5 95,-217.5 194,-217.5 194,-217.5 95,-217.5"/>
<polygon fill="none" stroke="#666666" points="80,-141 80,-272 194,-272 194,-141 80,-141"/>
</a>
</g>
</g>
<!-- Node4 -->
<g id="Node000004" class="node">
<title>Node4</title>
<g id="a_Node000004"><a xlink:href="classsophia_1_1monte__carlo_1_1tic__tac__toe_1_1models_1_1Bot.html" target="_top" xlink:title="A non&#45;human Tic Tac Toe Player.">
<polygon fill="white" stroke="transparent" points="134,-105 0,-105 0,0 134,0 134,-105"/>
<text text-anchor="start" x="5" y="-92.5" font-family="Helvetica,sans-Serif" font-size="10.00">sophia::monte_carlo</text>
<text text-anchor="start" x="5" y="-81.5" font-family="Helvetica,sans-Serif" font-size="10.00">::tic_tac_toe::models::Bot</text>
<text text-anchor="start" x="20" y="-66.5" font-family="Helvetica,sans-Serif" font-size="10.00">&#45;</text>
<text text-anchor="start" x="44" y="-66.5" font-family="Helvetica,sans-Serif" font-size="10.00">node_</text>
<text text-anchor="start" x="20" y="-51.5" font-family="Helvetica,sans-Serif" font-size="10.00">&#45;</text>
<text text-anchor="start" x="44" y="-51.5" font-family="Helvetica,sans-Serif" font-size="10.00">iterations_</text>
<text text-anchor="start" x="17.5" y="-36.5" font-family="Helvetica,sans-Serif" font-size="10.00">+</text>
<text text-anchor="start" x="44" y="-36.5" font-family="Helvetica,sans-Serif" font-size="10.00">Bot()</text>
<text text-anchor="start" x="17.5" y="-21.5" font-family="Helvetica,sans-Serif" font-size="10.00">+</text>
<text text-anchor="start" x="44" y="-21.5" font-family="Helvetica,sans-Serif" font-size="10.00">NextMove()</text>
<text text-anchor="start" x="17.5" y="-6.5" font-family="Helvetica,sans-Serif" font-size="10.00">+</text>
<text text-anchor="start" x="44" y="-6.5" font-family="Helvetica,sans-Serif" font-size="10.00">Update()</text>
<polygon fill="#666666" stroke="#666666" points="0,-76.5 0,-76.5 134,-76.5 134,-76.5 0,-76.5"/>
<polygon fill="#666666" stroke="#666666" points="0,-46.5 0,-46.5 42,-46.5 42,-46.5 0,-46.5"/>
<polygon fill="#666666" stroke="#666666" points="42,-46.5 42,-46.5 134,-46.5 134,-46.5 42,-46.5"/>
<polygon fill="none" stroke="#666666" points="0,0 0,-105 134,-105 134,0 0,0"/>
</a>
</g>
</g>
<!-- Node1&#45;&gt;Node4 -->
<g id="edge3_Node000001_Node000004" class="edge">
<title>Node1&#45;&gt;Node4</title>
<g id="a_edge3_Node000001_Node000004"><a xlink:title=" ">
<path fill="none" stroke="#63b8ff" d="M102.89,-131.43C98.83,-122.61 94.75,-113.75 90.87,-105.33"/>
<polygon fill="none" stroke="#63b8ff" points="99.75,-132.98 107.11,-140.6 106.11,-130.05 99.75,-132.98"/>
</a>
</g>
</g>
<!-- Node5 -->
<g id="Node000005" class="node">
<title>Node5</title>
<g id="a_Node000005"><a xlink:href="classsophia_1_1monte__carlo_1_1tic__tac__toe_1_1models_1_1Human.html" target="_top" xlink:title="A human Tic Tac Toe Player.">
<polygon fill="white" stroke="transparent" points="264,-103 152,-103 152,-2 264,-2 264,-103"/>
<text text-anchor="start" x="157" y="-90.5" font-family="Helvetica,sans-Serif" font-size="10.00">sophia::monte_carlo</text>
<text text-anchor="start" x="157" y="-79.5" font-family="Helvetica,sans-Serif" font-size="10.00">::tic_tac_toe::models</text>
<text text-anchor="start" x="187" y="-68.5" font-family="Helvetica,sans-Serif" font-size="10.00">::Human</text>
<text text-anchor="start" x="206" y="-53.5" font-family="Helvetica,sans-Serif" font-size="10.00"> </text>
<text text-anchor="start" x="164" y="-38.5" font-family="Helvetica,sans-Serif" font-size="10.00">+</text>
<text text-anchor="start" x="185" y="-38.5" font-family="Helvetica,sans-Serif" font-size="10.00">Human()</text>
<text text-anchor="start" x="164" y="-23.5" font-family="Helvetica,sans-Serif" font-size="10.00">+</text>
<text text-anchor="start" x="185" y="-23.5" font-family="Helvetica,sans-Serif" font-size="10.00">NextMove()</text>
<text text-anchor="start" x="164" y="-8.5" font-family="Helvetica,sans-Serif" font-size="10.00">+</text>
<text text-anchor="start" x="185" y="-8.5" font-family="Helvetica,sans-Serif" font-size="10.00">Update()</text>
<polygon fill="#666666" stroke="#666666" points="152,-63.5 152,-63.5 264,-63.5 264,-63.5 152,-63.5"/>
<polygon fill="#666666" stroke="#666666" points="152,-48.5 152,-48.5 264,-48.5 264,-48.5 152,-48.5"/>
<polygon fill="none" stroke="#666666" points="152,-2 152,-103 264,-103 264,-2 152,-2"/>
</a>
</g>
</g>
<!-- Node1&#45;&gt;Node5 -->
<g id="edge4_Node000001_Node000005" class="edge">
<title>Node1&#45;&gt;Node5</title>
<g id="a_edge4_Node000001_Node000005"><a xlink:title=" ">
<path fill="none" stroke="#63b8ff" d="M171.61,-131.4C176.11,-121.77 180.63,-112.1 184.87,-103.01"/>
<polygon fill="none" stroke="#63b8ff" points="168.38,-130.06 167.32,-140.6 174.72,-133.02 168.38,-130.06"/>
</a>
</g>
</g>
<!-- Node2 -->
<g id="Node000002" class="node">
<title>Node2</title>
<g id="a_Node000002"><a xlink:title=" ">
<polygon fill="white" stroke="transparent" points="127,-373.5 11,-373.5 11,-313.5 127,-313.5 127,-373.5"/>
<text text-anchor="start" x="16" y="-361.5" font-family="Helvetica,sans-Serif" font-size="10.00">std::enable_shared</text>
<text text-anchor="start" x="16" y="-350.5" font-family="Helvetica,sans-Serif" font-size="10.00">_from_this&lt; Player &gt;</text>
<text text-anchor="start" x="67" y="-335.5" font-family="Helvetica,sans-Serif" font-size="10.00"> </text>
<text text-anchor="start" x="67" y="-320.5" font-family="Helvetica,sans-Serif" font-size="10.00"> </text>
<polygon fill="#666666" stroke="#666666" points="11,-345.5 11,-345.5 127,-345.5 127,-345.5 11,-345.5"/>
<polygon fill="#666666" stroke="#666666" points="11,-330.5 11,-330.5 127,-330.5 127,-330.5 11,-330.5"/>
<polygon fill="none" stroke="#666666" points="11,-313.5 11,-373.5 127,-373.5 127,-313.5 11,-313.5"/>
</a>
</g>
</g>
<!-- Node2&#45;&gt;Node1 -->
<g id="edge1_Node000001_Node000002" class="edge">
<title>Node2&#45;&gt;Node1</title>
<g id="a_edge1_Node000001_Node000002"><a xlink:title=" ">
<path fill="none" stroke="#63b8ff" d="M88.38,-304.02C93.39,-294.08 98.92,-283.09 104.41,-272.2"/>
<polygon fill="none" stroke="#63b8ff" points="85.13,-302.7 83.75,-313.21 91.38,-305.85 85.13,-302.7"/>
</a>
</g>
</g>
<!-- Node3 -->
<g id="Node000003" class="node">
<title>Node3</title>
<g id="a_Node000003"><a xlink:href="classsophia_1_1monte__carlo_1_1tic__tac__toe_1_1observer_1_1Observer.html" target="_top" xlink:title="The Observer in an Observer pattern.">
<polygon fill="white" stroke="transparent" points="264.5,-379 145.5,-379 145.5,-308 264.5,-308 264.5,-379"/>
<text text-anchor="start" x="151" y="-366.5" font-family="Helvetica,sans-Serif" font-size="10.00">sophia::monte_carlo</text>
<text text-anchor="start" x="151" y="-355.5" font-family="Helvetica,sans-Serif" font-size="10.00">::tic_tac_toe::observer</text>
<text text-anchor="start" x="180" y="-344.5" font-family="Helvetica,sans-Serif" font-size="10.00">::Observer</text>
<text text-anchor="start" x="203.5" y="-329.5" font-family="Helvetica,sans-Serif" font-size="10.00"> </text>
<text text-anchor="start" x="163.5" y="-314.5" font-family="Helvetica,sans-Serif" font-size="10.00">+</text>
<text text-anchor="start" x="190" y="-314.5" font-family="Helvetica,sans-Serif" font-size="10.00">Update()</text>
<polygon fill="#666666" stroke="#666666" points="146,-339.5 146,-339.5 265,-339.5 265,-339.5 146,-339.5"/>
<polygon fill="#666666" stroke="#666666" points="146,-324.5 146,-324.5 265,-324.5 265,-324.5 146,-324.5"/>
<polygon fill="none" stroke="#666666" points="145.5,-308 145.5,-379 264.5,-379 264.5,-308 145.5,-308"/>
</a>
</g>
</g>
<!-- Node3&#45;&gt;Node1 -->
<g id="edge2_Node000001_Node000003" class="edge">
<title>Node3&#45;&gt;Node1</title>
<g id="a_edge2_Node000001_Node000003"><a xlink:title=" ">
<path fill="none" stroke="#63b8ff" d="M182.95,-298.73C178.65,-290.19 174.06,-281.07 169.5,-272.03"/>
<polygon fill="none" stroke="#63b8ff" points="179.86,-300.38 187.49,-307.73 186.12,-297.23 179.86,-300.38"/>
</a>
</g>
</g>
</g>
</svg>
