<?xml version="1.0" encoding="UTF-8" standalone="no"?>
<!DOCTYPE svg PUBLIC "-//W3C//DTD SVG 1.1//EN"
 "http://www.w3.org/Graphics/SVG/1.1/DTD/svg11.dtd">
<!-- Generated by graphviz version 2.43.0 (0)
 -->
<!-- Title: sophia::monte_carlo::tic_tac_toe::observer::Observer Pages: 1 -->
<svg width="272pt" height="387pt"
 viewBox="0.00 0.00 272.00 387.00" xmlns="http://www.w3.org/2000/svg" xmlns:xlink="http://www.w3.org/1999/xlink">
<g id="graph0" class="graph" transform="scale(1 1) rotate(0) translate(4 383)">
<title>sophia::monte_carlo::tic_tac_toe::observer::Observer</title>
<!-- Node1 -->
<g id="Node000001" class="node">
<title>Node1</title>
<g id="a_Node000001"><a xlink:title="The Observer in an Observer pattern.">
<polygon fill="#999999" stroke="transparent" points="196.5,-379 77.5,-379 77.5,-308 196.5,-308 196.5,-379"/>
<text text-anchor="start" x="83" y="-366.5" font-family="Helvetica,sans-Serif" font-size="10.00">sophia::monte_carlo</text>
<text text-anchor="start" x="83" y="-355.5" font-family="Helvetica,sans-Serif" font-size="10.00">::tic_tac_toe::observer</text>
<text text-anchor="start" x="112" y="-344.5" font-family="Helvetica,sans-Serif" font-size="10.00">::Observer</text>
<text text-anchor="start" x="135.5" y="-329.5" font-family="Helvetica,sans-Serif" font-size="10.00"> </text>
<text text-anchor="start" x="95.5" y="-314.5" font-family="Helvetica,sans-Serif" font-size="10.00">+</text>
<text text-anchor="start" x="122" y="-314.5" font-family="Helvetica,sans-Serif" font-size="10.00">Update()</text>
<polygon fill="#666666" stroke="#666666" points="78,-339.5 78,-339.5 197,-339.5 197,-339.5 78,-339.5"/>
<polygon fill="#666666" stroke="#666666" points="78,-324.5 78,-324.5 197,-324.5 197,-324.5 78,-324.5"/>
<polygon fill="none" stroke="#666666" points="77.5,-308 77.5,-379 196.5,-379 196.5,-308 77.5,-308"/>
</a>
</g>
</g>
<!-- Node2 -->
<g id="Node000002" class="node">
<title>Node2</title>
<g id="a_Node000002"><a xlink:href="classsophia_1_1monte__carlo_1_1tic__tac__toe_1_1models_1_1Player.html" target="_top" xlink:title="A Player in a Tic Tac Toe Game.">
<polygon fill="white" stroke="transparent" points="194,-272 80,-272 80,-141 194,-141 194,-272"/>
<text text-anchor="start" x="86" y="-259.5" font-family="Helvetica,sans-Serif" font-size="10.00">sophia::monte_carlo</text>
<text text-anchor="start" x="86" y="-248.5" font-family="Helvetica,sans-Serif" font-size="10.00">::tic_tac_toe::models</text>
<text text-anchor="start" x="118.5" y="-237.5" font-family="Helvetica,sans-Serif" font-size="10.00">::Player</text>
<text text-anchor="start" x="84" y="-222.5" font-family="Helvetica,sans-Serif" font-size="10.00">#</text>
<text text-anchor="start" x="97" y="-222.5" font-family="Helvetica,sans-Serif" font-size="10.00">m_player_symbol_</text>
<text text-anchor="start" x="84" y="-207.5" font-family="Helvetica,sans-Serif" font-size="10.00">+</text>
<text text-anchor="start" x="97" y="-207.5" font-family="Helvetica,sans-Serif" font-size="10.00">Player()</text>
<text text-anchor="start" x="84" y="-192.5" font-family="Helvetica,sans-Serif" font-size="10.00">+</text>
<text text-anchor="start" x="97" y="-192.5" font-family="Helvetica,sans-Serif" font-size="10.00">~Player()</text>
<text text-anchor="start" x="84" y="-177.5" font-family="Helvetica,sans-Serif" font-size="10.00">+</text>
<text text-anchor="start" x="97" y="-177.5" font-family="Helvetica,sans-Serif" font-size="10.00">symbol()</text>
<text text-anchor="start" x="84" y="-162.5" font-family="Helvetica,sans-Serif" font-size="10.00">+</text>
<text text-anchor="start" x="97" y="-162.5" font-family="Helvetica,sans-Serif" font-size="10.00">NextMove()</text>
<text text-anchor="start" x="84" y="-147.5" font-family="Helvetica,sans-Serif" font-size="10.00">+</text>
<text text-anchor="start" x="97" y="-147.5" font-family="Helvetica,sans-Serif" font-size="10.00">Value()</text>
<polygon fill="#666666" stroke="#666666" points="80,-232.5 80,-232.5 194,-232.5 194,-232.5 80,-232.5"/>
<polygon fill="#666666" stroke="#666666" points="80,-217.5 80,-217.5 95,-217.5 95,-217.5 80,-217.5"/>
<polygon fill="#666666" stroke="#666666" points="95,-217.5 95,-217.5 194,-217.5 194,-217.5 95,-217.5"/>
<polygon fill="none" stroke="#666666" points="80,-141 80,-272 194,-272 194,-141 80,-141"/>
</a>
</g>
</g>
<!-- Node1&#45;&gt;Node2 -->
<g id="edge1_Node000001_Node000002" class="edge">
<title>Node1&#45;&gt;Node2</title>
<g id="a_edge1_Node000001_Node000002"><a xlink:title=" ">
<path fill="none" stroke="#63b8ff" d="M137,-297.64C137,-289.42 137,-280.69 137,-272.03"/>
<polygon fill="none" stroke="#63b8ff" points="133.5,-297.73 137,-307.73 140.5,-297.73 133.5,-297.73"/>
</a>
</g>
</g>
<!-- Node3 -->
<g id="Node000003" class="node">
<title>Node3</title>
<g id="a_Node000003"><a xlink:href="classsophia_1_1monte__carlo_1_1tic__tac__toe_1_1models_1_1Bot.html" target="_top" xlink:title="A non&#45;human Tic Tac Toe Player.">
<polygon fill="white" stroke="transparent" points="134,-105 0,-105 0,0 134,0 134,-105"/>
<text text-anchor="start" x="5" y="-92.5" font-family="Helvetica,sans-Serif" font-size="10.00">sophia::monte_carlo</text>
<text text-anchor="start" x="5" y="-81.5" font-family="Helvetica,sans-Serif" font-size="10.00">::tic_tac_toe::models::Bot</text>
<text text-anchor="start" x="20" y="-66.5" font-family="Helvetica,sans-Serif" font-size="10.00">&#45;</text>
<text text-anchor="start" x="44" y="-66.5" font-family="Helvetica,sans-Serif" font-size="10.00">node_</text>
<text text-anchor="start" x="20" y="-51.5" font-family="Helvetica,sans-Serif" font-size="10.00">&#45;</text>
<text text-anchor="start" x="44" y="-51.5" font-family="Helvetica,sans-Serif" font-size="10.00">iterations_</text>
<text text-anchor="start" x="17.5" y="-36.5" font-family="Helvetica,sans-Serif" font-size="10.00">+</text>
<text text-anchor="start" x="44" y="-36.5" font-family="Helvetica,sans-Serif" font-size="10.00">Bot()</text>
<text text-anchor="start" x="17.5" y="-21.5" font-family="Helvetica,sans-Serif" font-size="10.00">+</text>
<text text-anchor="start" x="44" y="-21.5" font-family="Helvetica,sans-Serif" font-size="10.00">NextMove()</text>
<text text-anchor="start" x="17.5" y="-6.5" font-family="Helvetica,sans-Serif" font-size="10.00">+</text>
<text text-anchor="start" x="44" y="-6.5" font-family="Helvetica,sans-Serif" font-size="10.00">Update()</text>
<polygon fill="#666666" stroke="#666666" points="0,-76.5 0,-76.5 134,-76.5 134,-76.5 0,-76.5"/>
<polygon fill="#666666" stroke="#666666" points="0,-46.5 0,-46.5 42,-46.5 42,-46.5 0,-46.5"/>
<polygon fill="#666666" stroke="#666666" points="42,-46.5 42,-46.5 134,-46.5 134,-46.5 42,-46.5"/>
<polygon fill="none" stroke="#666666" points="0,0 0,-105 134,-105 134,0 0,0"/>
</a>
</g>
</g>
<!-- Node2&#45;&gt;Node3 -->
<g id="edge2_Node000002_Node000003" class="edge">
<title>Node2&#45;&gt;Node3</title>
<g id="a_edge2_Node000002_Node000003"><a xlink:title=" ">
<path fill="none" stroke="#63b8ff" d="M102.89,-131.43C98.83,-122.61 94.75,-113.75 90.87,-105.33"/>
<polygon fill="none" stroke="#63b8ff" points="99.75,-132.98 107.11,-140.6 106.11,-130.05 99.75,-132.98"/>
</a>
</g>
</g>
<!-- Node4 -->
<g id="Node000004" class="node">
<title>Node4</title>
<g id="a_Node000004"><a xlink:href="classsophia_1_1monte__carlo_1_1tic__tac__toe_1_1models_1_1Human.html" target="_top" xlink:title="A human Tic Tac Toe Player.">
<polygon fill="white" stroke="transparent" points="264,-103 152,-103 152,-2 264,-2 264,-103"/>
<text text-anchor="start" x="157" y="-90.5" font-family="Helvetica,sans-Serif" font-size="10.00">sophia::monte_carlo</text>
<text text-anchor="start" x="157" y="-79.5" font-family="Helvetica,sans-Serif" font-size="10.00">::tic_tac_toe::models</text>
<text text-anchor="start" x="187" y="-68.5" font-family="Helvetica,sans-Serif" font-size="10.00">::Human</text>
<text text-anchor="start" x="206" y="-53.5" font-family="Helvetica,sans-Serif" font-size="10.00"> </text>
<text text-anchor="start" x="164" y="-38.5" font-family="Helvetica,sans-Serif" font-size="10.00">+</text>
<text text-anchor="start" x="185" y="-38.5" font-family="Helvetica,sans-Serif" font-size="10.00">Human()</text>
<text text-anchor="start" x="164" y="-23.5" font-family="Helvetica,sans-Serif" font-size="10.00">+</text>
<text text-anchor="start" x="185" y="-23.5" font-family="Helvetica,sans-Serif" font-size="10.00">NextMove()</text>
<text text-anchor="start" x="164" y="-8.5" font-family="Helvetica,sans-Serif" font-size="10.00">+</text>
<text text-anchor="start" x="185" y="-8.5" font-family="Helvetica,sans-Serif" font-size="10.00">Update()</text>
<polygon fill="#666666" stroke="#666666" points="152,-63.5 152,-63.5 264,-63.5 264,-63.5 152,-63.5"/>
<polygon fill="#666666" stroke="#666666" points="152,-48.5 152,-48.5 264,-48.5 264,-48.5 152,-48.5"/>
<polygon fill="none" stroke="#666666" points="152,-2 152,-103 264,-103 264,-2 152,-2"/>
</a>
</g>
</g>
<!-- Node2&#45;&gt;Node4 -->
<g id="edge3_Node000002_Node000004" class="edge">
<title>Node2&#45;&gt;Node4</title>
<g id="a_edge3_Node000002_Node000004"><a xlink:title=" ">
<path fill="none" stroke="#63b8ff" d="M171.61,-131.4C176.11,-121.77 180.63,-112.1 184.87,-103.01"/>
<polygon fill="none" stroke="#63b8ff" points="168.38,-130.06 167.32,-140.6 174.72,-133.02 168.38,-130.06"/>
</a>
</g>
</g>
</g>
</svg>
