<?xml version="1.0" encoding="UTF-8" standalone="no"?>
<!DOCTYPE svg PUBLIC "-//W3C//DTD SVG 1.1//EN"
 "http://www.w3.org/Graphics/SVG/1.1/DTD/svg11.dtd">
<!-- Generated by graphviz version 2.43.0 (0)
 -->
<!-- Title: sophia::monte_carlo::models::Node::Backpropagate Pages: 1 -->
<svg width="339pt" height="56pt"
 viewBox="0.00 0.00 339.00 56.00" xmlns="http://www.w3.org/2000/svg" xmlns:xlink="http://www.w3.org/1999/xlink">
<g id="graph0" class="graph" transform="scale(1 1) rotate(0) translate(4 52)">
<title>sophia::monte_carlo::models::Node::Backpropagate</title>
<!-- Node1 -->
<g id="Node000001" class="node">
<title>Node1</title>
<g id="a_Node000001"><a xlink:title=" ">
<polygon fill="#999999" stroke="#666666" points="170,-30 0,-30 0,0 170,0 170,-30"/>
<text text-anchor="start" x="8" y="-18" font-family="Helvetica,sans-Serif" font-size="10.00">sophia::monte_carlo</text>
<text text-anchor="middle" x="85" y="-7" font-family="Helvetica,sans-Serif" font-size="10.00">::models::Node::Backpropagate</text>
</a>
</g>
</g>
<!-- Node1&#45;&gt;Node1 -->
<g id="edge1_Node000001_Node000001" class="edge">
<title>Node1&#45;&gt;Node1</title>
<g id="a_edge1_Node000001_Node000001"><a xlink:title=" ">
<path fill="none" stroke="#63b8ff" d="M53.01,-30.28C45.9,-39.41 56.56,-48 85,-48 101.88,-48 112.5,-44.97 116.86,-40.6"/>
<polygon fill="#63b8ff" stroke="#63b8ff" points="120.36,-40.32 116.99,-30.28 113.36,-40.23 120.36,-40.32"/>
</a>
</g>
</g>
<!-- Node2 -->
<g id="Node000002" class="node">
<title>Node2</title>
<g id="a_Node000002"><a xlink:href="classsophia_1_1monte__carlo_1_1models_1_1Node.html#a839863194c78433b294b3c11dcf746c2" target="_top" xlink:title=" ">
<polygon fill="white" stroke="#666666" points="331,-30 206,-30 206,0 331,0 331,-30"/>
<text text-anchor="start" x="214" y="-18" font-family="Helvetica,sans-Serif" font-size="10.00">sophia::monte_carlo</text>
<text text-anchor="middle" x="268.5" y="-7" font-family="Helvetica,sans-Serif" font-size="10.00">::models::Node::Name</text>
</a>
</g>
</g>
<!-- Node1&#45;&gt;Node2 -->
<g id="edge2_Node000001_Node000002" class="edge">
<title>Node1&#45;&gt;Node2</title>
<g id="a_edge2_Node000001_Node000002"><a xlink:title=" ">
<path fill="none" stroke="#63b8ff" d="M170.11,-15C178.68,-15 187.33,-15 195.75,-15"/>
<polygon fill="#63b8ff" stroke="#63b8ff" points="195.89,-18.5 205.89,-15 195.89,-11.5 195.89,-18.5"/>
</a>
</g>
</g>
</g>
</svg>
