<?xml version="1.0" encoding="UTF-8" standalone="no"?>
<!DOCTYPE svg PUBLIC "-//W3C//DTD SVG 1.1//EN"
 "http://www.w3.org/Graphics/SVG/1.1/DTD/svg11.dtd">
<!-- Generated by graphviz version 2.43.0 (0)
 -->
<!-- Title: sophia::monte_carlo::models::Node::Name Pages: 1 -->
<svg width="350pt" height="338pt"
 viewBox="0.00 0.00 350.00 337.50" xmlns="http://www.w3.org/2000/svg" xmlns:xlink="http://www.w3.org/1999/xlink">

<svg id="main" version="1.1" xmlns="http://www.w3.org/2000/svg" xmlns:xlink="http://www.w3.org/1999/xlink" xml:space="preserve" onload="init(evt)">
<style type="text/css"><![CDATA[
.node, .edge {opacity: 0.7;}
.node.selected, .edge.selected {opacity: 1;}
.edge:hover path { stroke: red; }
.edge:hover polygon { stroke: red; fill: red; }
]]></style>
<script type="application/ecmascript" xlink:href="svg.min.js"/>
<svg id="graph" class="graph">
<g id="graph0" class="graph" transform="scale(1 1) rotate(0) translate(4 333.5)">
<title>sophia::monte_carlo::models::Node::Name</title>
<!-- Node1 -->
<g id="Node000001" class="node">
<title>Node1</title>
<g id="a_Node000001"><a xlink:title=" ">
<polygon fill="#999999" stroke="#666666" points="342,-170.5 217,-170.5 217,-140.5 342,-140.5 342,-170.5"/>
<text text-anchor="start" x="225" y="-158.5" font-family="Helvetica,sans-Serif" font-size="10.00">sophia::monte_carlo</text>
<text text-anchor="middle" x="279.5" y="-147.5" font-family="Helvetica,sans-Serif" font-size="10.00">::models::Node::Name</text>
</a>
</g>
</g>
<!-- Node2 -->
<g id="Node000002" class="node">
<title>Node2</title>
<g id="a_Node000002"><a xlink:href="classsophia_1_1monte__carlo_1_1models_1_1Node.html#a1ab17bae40a734dd206b82c78ec0fbe9" target="_top" xlink:title=" ">
<polygon fill="white" stroke="#666666" points="175.5,-311.5 5.5,-311.5 5.5,-281.5 175.5,-281.5 175.5,-311.5"/>
<text text-anchor="start" x="13.5" y="-299.5" font-family="Helvetica,sans-Serif" font-size="10.00">sophia::monte_carlo</text>
<text text-anchor="middle" x="90.5" y="-288.5" font-family="Helvetica,sans-Serif" font-size="10.00">::models::Node::Backpropagate</text>
</a>
</g>
</g>
<!-- Node1&#45;&gt;Node2 -->
<g id="edge1_Node000001_Node000002" class="edge">
<title>Node1&#45;&gt;Node2</title>
<g id="a_edge1_Node000001_Node000002"><a xlink:title=" ">
<path fill="none" stroke="#63b8ff" d="M264.91,-179.33C248.46,-206.03 218.26,-248.67 181,-272.5 175.58,-275.97 169.67,-278.94 163.55,-281.48"/>
<polygon fill="#63b8ff" stroke="#63b8ff" points="268,-180.99 270.15,-170.61 262,-177.38 268,-180.99"/>
</a>
</g>
</g>
<!-- Node3 -->
<g id="Node000003" class="node">
<title>Node3</title>
<g id="a_Node000003"><a xlink:href="classsophia_1_1monte__carlo_1_1models_1_1Node.html#af3ecba21ed1d43901db2ad52ee950936" target="_top" xlink:title=" ">
<polygon fill="white" stroke="#666666" points="156.5,-263.5 24.5,-263.5 24.5,-233.5 156.5,-233.5 156.5,-263.5"/>
<text text-anchor="start" x="32.5" y="-251.5" font-family="Helvetica,sans-Serif" font-size="10.00">sophia::monte_carlo</text>
<text text-anchor="middle" x="90.5" y="-240.5" font-family="Helvetica,sans-Serif" font-size="10.00">::models::Node::Expand</text>
</a>
</g>
</g>
<!-- Node1&#45;&gt;Node3 -->
<g id="edge3_Node000001_Node000003" class="edge">
<title>Node1&#45;&gt;Node3</title>
<g id="a_edge3_Node000001_Node000003"><a xlink:title=" ">
<path fill="none" stroke="#63b8ff" d="M253.57,-176.92C234.73,-192.13 207.65,-211.99 181,-224.5 173.28,-228.12 164.92,-231.28 156.52,-234"/>
<polygon fill="#63b8ff" stroke="#63b8ff" points="255.86,-179.57 261.36,-170.52 251.41,-174.16 255.86,-179.57"/>
</a>
</g>
</g>
<!-- Node4 -->
<g id="Node000004" class="node">
<title>Node4</title>
<g id="a_Node000004"><a xlink:href="classsophia_1_1monte__carlo_1_1models_1_1Node.html#a45fdf487eedadd6518798de3d7cb016b" target="_top" xlink:title=" ">
<polygon fill="white" stroke="#666666" points="156,-197.5 25,-197.5 25,-167.5 156,-167.5 156,-197.5"/>
<text text-anchor="start" x="33" y="-185.5" font-family="Helvetica,sans-Serif" font-size="10.00">sophia::monte_carlo</text>
<text text-anchor="middle" x="90.5" y="-174.5" font-family="Helvetica,sans-Serif" font-size="10.00">::models::Node::Rollout</text>
</a>
</g>
</g>
<!-- Node1&#45;&gt;Node4 -->
<g id="edge4_Node000001_Node000004" class="edge">
<title>Node1&#45;&gt;Node4</title>
<g id="a_edge4_Node000001_Node000004"><a xlink:title=" ">
<path fill="none" stroke="#63b8ff" d="M206.55,-165.89C189.93,-168.29 172.35,-170.83 156.07,-173.18"/>
<polygon fill="#63b8ff" stroke="#63b8ff" points="207.35,-169.31 216.75,-164.42 206.35,-162.38 207.35,-169.31"/>
</a>
</g>
</g>
<!-- Node5 -->
<g id="Node000005" class="node">
<title>Node5</title>
<g id="a_Node000005"><a xlink:href="classsophia_1_1monte__carlo_1_1models_1_1RandomRolloutStrategy.html#a625c265aac424fc41dd38d709b110016" target="_top" xlink:title=" ">
<polygon fill="white" stroke="#666666" points="181,-149 0,-149 0,-108 181,-108 181,-149"/>
<text text-anchor="start" x="8" y="-137" font-family="Helvetica,sans-Serif" font-size="10.00">sophia::monte_carlo</text>
<text text-anchor="start" x="8" y="-126" font-family="Helvetica,sans-Serif" font-size="10.00">::models::RandomRolloutStrategy</text>
<text text-anchor="middle" x="90.5" y="-115" font-family="Helvetica,sans-Serif" font-size="10.00">::select_action</text>
</a>
</g>
</g>
<!-- Node1&#45;&gt;Node5 -->
<g id="edge6_Node000001_Node000005" class="edge">
<title>Node1&#45;&gt;Node5</title>
<g id="a_edge6_Node000001_Node000005"><a xlink:title=" ">
<path fill="none" stroke="#63b8ff" d="M206.72,-145.14C198.38,-143.93 189.8,-142.69 181.26,-141.46"/>
<polygon fill="#63b8ff" stroke="#63b8ff" points="206.35,-148.62 216.75,-146.58 207.35,-141.69 206.35,-148.62"/>
</a>
</g>
</g>
<!-- Node6 -->
<g id="Node000006" class="node">
<title>Node6</title>
<g id="a_Node000006"><a xlink:href="classsophia_1_1monte__carlo_1_1models_1_1Node.html#a404072a810c1cf1e201c82e539e0b721" target="_top" xlink:title=" ">
<polygon fill="white" stroke="#666666" points="169,-89.5 12,-89.5 12,-59.5 169,-59.5 169,-89.5"/>
<text text-anchor="start" x="20" y="-77.5" font-family="Helvetica,sans-Serif" font-size="10.00">sophia::monte_carlo</text>
<text text-anchor="middle" x="90.5" y="-66.5" font-family="Helvetica,sans-Serif" font-size="10.00">::models::Node::SelectAction</text>
</a>
</g>
</g>
<!-- Node1&#45;&gt;Node6 -->
<g id="edge7_Node000001_Node000006" class="edge">
<title>Node1&#45;&gt;Node6</title>
<g id="a_edge7_Node000001_Node000006"><a xlink:title=" ">
<path fill="none" stroke="#63b8ff" d="M247.43,-134.99C228.76,-123.36 204.21,-109.23 181,-99.5 172.22,-95.82 162.74,-92.51 153.33,-89.59"/>
<polygon fill="#63b8ff" stroke="#63b8ff" points="245.76,-138.08 256.08,-140.47 249.51,-132.16 245.76,-138.08"/>
</a>
</g>
</g>
<!-- Node7 -->
<g id="Node000007" class="node">
<title>Node7</title>
<g id="a_Node000007"><a xlink:href="classsophia_1_1monte__carlo_1_1models_1_1Node.html#a8ce0f76debcad38090914219a5598221" target="_top" xlink:title=" ">
<polygon fill="white" stroke="#666666" points="164.5,-41 16.5,-41 16.5,0 164.5,0 164.5,-41"/>
<text text-anchor="start" x="24.5" y="-29" font-family="Helvetica,sans-Serif" font-size="10.00">sophia::monte_carlo</text>
<text text-anchor="start" x="24.5" y="-18" font-family="Helvetica,sans-Serif" font-size="10.00">::models::Node::SelectBest</text>
<text text-anchor="middle" x="90.5" y="-7" font-family="Helvetica,sans-Serif" font-size="10.00">Action</text>
</a>
</g>
</g>
<!-- Node1&#45;&gt;Node7 -->
<g id="edge8_Node000001_Node000007" class="edge">
<title>Node1&#45;&gt;Node7</title>
<g id="a_edge8_Node000001_Node000007"><a xlink:title=" ">
<path fill="none" stroke="#63b8ff" d="M262.21,-131.99C244.68,-108.31 214.74,-72.26 181,-50.5 175.63,-47.04 169.82,-43.93 163.82,-41.16"/>
<polygon fill="#63b8ff" stroke="#63b8ff" points="259.61,-134.36 268.31,-140.4 265.28,-130.25 259.61,-134.36"/>
</a>
</g>
</g>
<!-- Node2&#45;&gt;Node2 -->
<g id="edge2_Node000002_Node000002" class="edge">
<title>Node2&#45;&gt;Node2</title>
<g id="a_edge2_Node000002_Node000002"><a xlink:title=" ">
<path fill="none" stroke="#63b8ff" d="M123.41,-322.1C118.91,-326.47 107.94,-329.5 90.5,-329.5 61.12,-329.5 50.11,-320.91 57.45,-311.78"/>
<polygon fill="#63b8ff" stroke="#63b8ff" points="126.91,-321.82 123.55,-311.78 119.91,-321.73 126.91,-321.82"/>
</a>
</g>
</g>
<!-- Node4&#45;&gt;Node4 -->
<g id="edge5_Node000004_Node000004" class="edge">
<title>Node4&#45;&gt;Node4</title>
<g id="a_edge5_Node000004_Node000004"><a xlink:title=" ">
<path fill="none" stroke="#63b8ff" d="M123.41,-208.1C118.91,-212.47 107.94,-215.5 90.5,-215.5 61.12,-215.5 50.11,-206.91 57.45,-197.78"/>
<polygon fill="#63b8ff" stroke="#63b8ff" points="126.91,-207.82 123.55,-197.78 119.91,-207.73 126.91,-207.82"/>
</a>
</g>
</g>
</g>
</svg>
</svg>

<style type='text/css'>
<![CDATA[
[data-mouse-over-selected='false'] { opacity: 0.7; }
[data-mouse-over-selected='true']  { opacity: 1.0; }
]]>
</style>
<script type="application/ecmascript"><![CDATA[
document.addEventListener('DOMContentLoaded', (event) => {
  highlightEdges();
  highlightAdjacentNodes();
});
]]></script>
</svg>
