<?xml version="1.0" encoding="UTF-8" standalone="no"?>
<!DOCTYPE svg PUBLIC "-//W3C//DTD SVG 1.1//EN"
 "http://www.w3.org/Graphics/SVG/1.1/DTD/svg11.dtd">
<!-- Generated by graphviz version 2.43.0 (0)
 -->
<!-- Title: sophia::monte_carlo::tic_tac_toe::factories::TicTacToeFactory Pages: 1 -->
<svg width="172pt" height="450pt"
 viewBox="0.00 0.00 172.00 450.00" xmlns="http://www.w3.org/2000/svg" xmlns:xlink="http://www.w3.org/1999/xlink">
<g id="graph0" class="graph" transform="scale(1 1) rotate(0) translate(4 446)">
<title>sophia::monte_carlo::tic_tac_toe::factories::TicTacToeFactory</title>
<!-- Node1 -->
<g id="Node000001" class="node">
<title>Node1</title>
<g id="a_Node000001"><a xlink:title="Creates simulation nodes and actions for a Tic Tac Toe game.">
<polygon fill="#999999" stroke="transparent" points="141.5,-146 22.5,-146 22.5,0 141.5,0 141.5,-146"/>
<text text-anchor="start" x="28" y="-134" font-family="Helvetica,sans-Serif" font-size="10.00">sophia::monte_carlo</text>
<text text-anchor="start" x="28" y="-123" font-family="Helvetica,sans-Serif" font-size="10.00">::tic_tac_toe::factories</text>
<text text-anchor="start" x="38.5" y="-112" font-family="Helvetica,sans-Serif" font-size="10.00">::TicTacToeFactory</text>
<text text-anchor="start" x="29.5" y="-97" font-family="Helvetica,sans-Serif" font-size="10.00">&#45;</text>
<text text-anchor="start" x="40" y="-97" font-family="Helvetica,sans-Serif" font-size="10.00">you_</text>
<text text-anchor="start" x="27" y="-82" font-family="Helvetica,sans-Serif" font-size="10.00">+</text>
<text text-anchor="start" x="40" y="-82" font-family="Helvetica,sans-Serif" font-size="10.00">TicTacToeFactory()</text>
<text text-anchor="start" x="27" y="-67" font-family="Helvetica,sans-Serif" font-size="10.00">+</text>
<text text-anchor="start" x="40" y="-67" font-family="Helvetica,sans-Serif" font-size="10.00">~TicTacToeFactory()</text>
<text text-anchor="start" x="27" y="-52" font-family="Helvetica,sans-Serif" font-size="10.00">+</text>
<text text-anchor="start" x="40" y="-52" font-family="Helvetica,sans-Serif" font-size="10.00">CreateNode()</text>
<text text-anchor="start" x="27" y="-37" font-family="Helvetica,sans-Serif" font-size="10.00">+</text>
<text text-anchor="start" x="40" y="-37" font-family="Helvetica,sans-Serif" font-size="10.00">CreateNode()</text>
<text text-anchor="start" x="27" y="-22" font-family="Helvetica,sans-Serif" font-size="10.00">+</text>
<text text-anchor="start" x="40" y="-22" font-family="Helvetica,sans-Serif" font-size="10.00">CreateAction()</text>
<text text-anchor="start" x="27" y="-7" font-family="Helvetica,sans-Serif" font-size="10.00">+</text>
<text text-anchor="start" x="40" y="-7" font-family="Helvetica,sans-Serif" font-size="10.00">CreateStrategy()</text>
<polygon fill="#666666" stroke="#666666" points="23,-107 23,-107 142,-107 142,-107 23,-107"/>
<polygon fill="#666666" stroke="#666666" points="23,-92 23,-92 38,-92 38,-92 23,-92"/>
<polygon fill="#666666" stroke="#666666" points="38,-92 38,-92 142,-92 142,-92 38,-92"/>
<polygon fill="none" stroke="#666666" points="22.5,0 22.5,-146 141.5,-146 141.5,0 22.5,0"/>
</a>
</g>
</g>
<!-- Node2 -->
<g id="Node000002" class="node">
<title>Node2</title>
<g id="a_Node000002"><a xlink:href="classsophia_1_1monte__carlo_1_1factories_1_1TreeFactoryBase.html" target="_top" xlink:title=" ">
<polygon fill="white" stroke="transparent" points="162.5,-324 1.5,-324 1.5,-182 162.5,-182 162.5,-324"/>
<text text-anchor="start" x="7" y="-312" font-family="Helvetica,sans-Serif" font-size="10.00">sophia::monte_carlo</text>
<text text-anchor="start" x="7" y="-301" font-family="Helvetica,sans-Serif" font-size="10.00">::factories::TreeFactoryBase</text>
<text text-anchor="start" x="7" y="-290" font-family="Helvetica,sans-Serif" font-size="10.00">&lt; models::GameState, models</text>
<text text-anchor="start" x="54" y="-279" font-family="Helvetica,sans-Serif" font-size="10.00">::Position &gt;</text>
<text text-anchor="start" x="80.5" y="-264" font-family="Helvetica,sans-Serif" font-size="10.00"> </text>
<text text-anchor="start" x="17" y="-249" font-family="Helvetica,sans-Serif" font-size="10.00">+</text>
<text text-anchor="start" x="41" y="-249" font-family="Helvetica,sans-Serif" font-size="10.00">~TreeFactoryBase()</text>
<text text-anchor="start" x="17" y="-234" font-family="Helvetica,sans-Serif" font-size="10.00">+</text>
<text text-anchor="start" x="41" y="-234" font-family="Helvetica,sans-Serif" font-size="10.00">CreateNode()</text>
<text text-anchor="start" x="17" y="-219" font-family="Helvetica,sans-Serif" font-size="10.00">+</text>
<text text-anchor="start" x="41" y="-219" font-family="Helvetica,sans-Serif" font-size="10.00">CreateNode()</text>
<text text-anchor="start" x="17" y="-204" font-family="Helvetica,sans-Serif" font-size="10.00">+</text>
<text text-anchor="start" x="41" y="-204" font-family="Helvetica,sans-Serif" font-size="10.00">CreateAction()</text>
<text text-anchor="start" x="17" y="-189" font-family="Helvetica,sans-Serif" font-size="10.00">+</text>
<text text-anchor="start" x="41" y="-189" font-family="Helvetica,sans-Serif" font-size="10.00">CreateStrategy()</text>
<polygon fill="#666666" stroke="#666666" points="2,-274 2,-274 163,-274 163,-274 2,-274"/>
<polygon fill="#666666" stroke="#666666" points="2,-259 2,-259 163,-259 163,-259 2,-259"/>
<polygon fill="none" stroke="#666666" points="1.5,-182 1.5,-324 162.5,-324 162.5,-182 1.5,-182"/>
</a>
</g>
</g>
<!-- Node2&#45;&gt;Node1 -->
<g id="edge1_Node000001_Node000002" class="edge">
<title>Node2&#45;&gt;Node1</title>
<g id="a_edge1_Node000001_Node000002"><a xlink:title=" ">
<path fill="none" stroke="#63b8ff" d="M82,-171.88C82,-163.28 82,-154.57 82,-146.08"/>
<polygon fill="none" stroke="#63b8ff" points="78.5,-171.91 82,-181.91 85.5,-171.91 78.5,-171.91"/>
</a>
</g>
</g>
<!-- Node3 -->
<g id="Node000003" class="node">
<title>Node3</title>
<g id="a_Node000003"><a xlink:title=" ">
<polygon fill="white" stroke="transparent" points="164,-442 0,-442 0,-360 164,-360 164,-442"/>
<text text-anchor="start" x="5" y="-430" font-family="Helvetica,sans-Serif" font-size="10.00">std::enable_shared</text>
<text text-anchor="start" x="5" y="-419" font-family="Helvetica,sans-Serif" font-size="10.00">_from_this&lt; TreeFactoryBase</text>
<text text-anchor="start" x="5" y="-408" font-family="Helvetica,sans-Serif" font-size="10.00">&lt; models::GameState , models</text>
<text text-anchor="start" x="46.5" y="-397" font-family="Helvetica,sans-Serif" font-size="10.00">::Position &#160;&gt; &gt;</text>
<text text-anchor="start" x="80" y="-382" font-family="Helvetica,sans-Serif" font-size="10.00"> </text>
<text text-anchor="start" x="80" y="-367" font-family="Helvetica,sans-Serif" font-size="10.00"> </text>
<polygon fill="#666666" stroke="#666666" points="0,-392 0,-392 164,-392 164,-392 0,-392"/>
<polygon fill="#666666" stroke="#666666" points="0,-377 0,-377 164,-377 164,-377 0,-377"/>
<polygon fill="none" stroke="#666666" points="0,-360 0,-442 164,-442 164,-360 0,-360"/>
</a>
</g>
</g>
<!-- Node3&#45;&gt;Node2 -->
<g id="edge2_Node000002_Node000003" class="edge">
<title>Node3&#45;&gt;Node2</title>
<g id="a_edge2_Node000002_Node000003"><a xlink:title=" ">
<path fill="none" stroke="#63b8ff" d="M82,-349.57C82,-341.36 82,-332.72 82,-324.13"/>
<polygon fill="none" stroke="#63b8ff" points="78.5,-349.72 82,-359.72 85.5,-349.72 78.5,-349.72"/>
</a>
</g>
</g>
</g>
</svg>
