<?xml version="1.0" encoding="UTF-8" standalone="no"?>
<!DOCTYPE svg PUBLIC "-//W3C//DTD SVG 1.1//EN"
 "http://www.w3.org/Graphics/SVG/1.1/DTD/svg11.dtd">
<!-- Generated by graphviz version 2.43.0 (0)
 -->
<!-- Title: sophia::monte_carlo::models::Action Pages: 1 -->
<svg width="151pt" height="436pt"
 viewBox="0.00 0.00 151.00 436.00" xmlns="http://www.w3.org/2000/svg" xmlns:xlink="http://www.w3.org/1999/xlink">
<g id="graph0" class="graph" transform="scale(1 1) rotate(0) translate(4 432)">
<title>sophia::monte_carlo::models::Action</title>
<!-- Node1 -->
<g id="Node000001" class="node">
<title>Node1</title>
<g id="a_Node000001"><a xlink:title=" ">
<polygon fill="#999999" stroke="transparent" points="143,-332 0,-332 0,-182 143,-182 143,-332"/>
<text text-anchor="start" x="22" y="-320" font-family="Helvetica,sans-Serif" font-size="10.00">sophia::monte_carlo</text>
<text text-anchor="start" x="32.5" y="-309" font-family="Helvetica,sans-Serif" font-size="10.00">::models::Action</text>
<text text-anchor="start" x="70" y="-294" font-family="Helvetica,sans-Serif" font-size="10.00"> </text>
<text text-anchor="start" x="4.5" y="-279" font-family="Helvetica,sans-Serif" font-size="10.00">+</text>
<text text-anchor="start" x="17.5" y="-279" font-family="Helvetica,sans-Serif" font-size="10.00">Action()</text>
<text text-anchor="start" x="4.5" y="-264" font-family="Helvetica,sans-Serif" font-size="10.00">+</text>
<text text-anchor="start" x="17.5" y="-264" font-family="Helvetica,sans-Serif" font-size="10.00">~Action()</text>
<text text-anchor="start" x="4.5" y="-249" font-family="Helvetica,sans-Serif" font-size="10.00">+</text>
<text text-anchor="start" x="17.5" y="-249" font-family="Helvetica,sans-Serif" font-size="10.00">Name()</text>
<text text-anchor="start" x="4.5" y="-234" font-family="Helvetica,sans-Serif" font-size="10.00">+</text>
<text text-anchor="start" x="17.5" y="-234" font-family="Helvetica,sans-Serif" font-size="10.00">UpperConfidenceBound()</text>
<text text-anchor="start" x="4.5" y="-219" font-family="Helvetica,sans-Serif" font-size="10.00">+</text>
<text text-anchor="start" x="17.5" y="-219" font-family="Helvetica,sans-Serif" font-size="10.00">Generate()</text>
<text text-anchor="start" x="4.5" y="-204" font-family="Helvetica,sans-Serif" font-size="10.00">+</text>
<text text-anchor="start" x="17.5" y="-204" font-family="Helvetica,sans-Serif" font-size="10.00">Source()</text>
<text text-anchor="start" x="4.5" y="-189" font-family="Helvetica,sans-Serif" font-size="10.00">+</text>
<text text-anchor="start" x="17.5" y="-189" font-family="Helvetica,sans-Serif" font-size="10.00">Target()</text>
<polygon fill="#666666" stroke="#666666" points="0.5,-304 0.5,-304 143.5,-304 143.5,-304 0.5,-304"/>
<polygon fill="#666666" stroke="#666666" points="0.5,-289 0.5,-289 143.5,-289 143.5,-289 0.5,-289"/>
<polygon fill="none" stroke="#666666" points="0,-182 0,-332 143,-332 143,-182 0,-182"/>
</a>
</g>
</g>
<!-- Node3 -->
<g id="Node000003" class="node">
<title>Node3</title>
<g id="a_Node000003"><a xlink:href="classsophia_1_1monte__carlo_1_1models_1_1ActionBase.html" target="_top" xlink:title=" ">
<polygon fill="white" stroke="transparent" points="128,-146 15,-146 15,0 128,0 128,-146"/>
<text text-anchor="start" x="20.5" y="-134" font-family="Helvetica,sans-Serif" font-size="10.00">sophia::monte_carlo</text>
<text text-anchor="start" x="20.5" y="-123" font-family="Helvetica,sans-Serif" font-size="10.00">::models::ActionBase</text>
<text text-anchor="start" x="20.5" y="-112" font-family="Helvetica,sans-Serif" font-size="10.00">&lt; TState, TChange &gt;</text>
<text text-anchor="start" x="26.5" y="-97" font-family="Helvetica,sans-Serif" font-size="10.00">#</text>
<text text-anchor="start" x="46.5" y="-97" font-family="Helvetica,sans-Serif" font-size="10.00">m_factory_</text>
<text text-anchor="start" x="26.5" y="-82" font-family="Helvetica,sans-Serif" font-size="10.00">#</text>
<text text-anchor="start" x="46.5" y="-82" font-family="Helvetica,sans-Serif" font-size="10.00">m_source_</text>
<text text-anchor="start" x="26.5" y="-67" font-family="Helvetica,sans-Serif" font-size="10.00">#</text>
<text text-anchor="start" x="46.5" y="-67" font-family="Helvetica,sans-Serif" font-size="10.00">m_target_</text>
<text text-anchor="start" x="26.5" y="-52" font-family="Helvetica,sans-Serif" font-size="10.00">#</text>
<text text-anchor="start" x="46.5" y="-52" font-family="Helvetica,sans-Serif" font-size="10.00">m_change_</text>
<text text-anchor="start" x="26.5" y="-37" font-family="Helvetica,sans-Serif" font-size="10.00">+</text>
<text text-anchor="start" x="46.5" y="-37" font-family="Helvetica,sans-Serif" font-size="10.00">ActionBase()</text>
<text text-anchor="start" x="26.5" y="-22" font-family="Helvetica,sans-Serif" font-size="10.00">+</text>
<text text-anchor="start" x="46.5" y="-22" font-family="Helvetica,sans-Serif" font-size="10.00">Source()</text>
<text text-anchor="start" x="26.5" y="-7" font-family="Helvetica,sans-Serif" font-size="10.00">+</text>
<text text-anchor="start" x="46.5" y="-7" font-family="Helvetica,sans-Serif" font-size="10.00">Target()</text>
<polygon fill="#666666" stroke="#666666" points="15.5,-107 15.5,-107 128.5,-107 128.5,-107 15.5,-107"/>
<polygon fill="#666666" stroke="#666666" points="15.5,-47 15.5,-47 44.5,-47 44.5,-47 15.5,-47"/>
<polygon fill="#666666" stroke="#666666" points="44.5,-47 44.5,-47 128.5,-47 128.5,-47 44.5,-47"/>
<polygon fill="none" stroke="#666666" points="15,0 15,-146 128,-146 128,0 15,0"/>
</a>
</g>
</g>
<!-- Node1&#45;&gt;Node3 -->
<g id="edge2_Node000001_Node000003" class="edge">
<title>Node1&#45;&gt;Node3</title>
<g id="a_edge2_Node000001_Node000003"><a xlink:title=" ">
<path fill="none" stroke="#63b8ff" d="M71.5,-171.93C71.5,-163.33 71.5,-154.65 71.5,-146.19"/>
<polygon fill="none" stroke="#63b8ff" points="68,-171.97 71.5,-181.97 75,-171.97 68,-171.97"/>
</a>
</g>
</g>
<!-- Node2 -->
<g id="Node000002" class="node">
<title>Node2</title>
<g id="a_Node000002"><a xlink:title=" ">
<polygon fill="white" stroke="transparent" points="129.5,-428 13.5,-428 13.5,-368 129.5,-368 129.5,-428"/>
<text text-anchor="start" x="18.5" y="-416" font-family="Helvetica,sans-Serif" font-size="10.00">std::enable_shared</text>
<text text-anchor="start" x="18.5" y="-405" font-family="Helvetica,sans-Serif" font-size="10.00">_from_this&lt; Action &gt;</text>
<text text-anchor="start" x="69.5" y="-390" font-family="Helvetica,sans-Serif" font-size="10.00"> </text>
<text text-anchor="start" x="69.5" y="-375" font-family="Helvetica,sans-Serif" font-size="10.00"> </text>
<polygon fill="#666666" stroke="#666666" points="13.5,-400 13.5,-400 129.5,-400 129.5,-400 13.5,-400"/>
<polygon fill="#666666" stroke="#666666" points="13.5,-385 13.5,-385 129.5,-385 129.5,-385 13.5,-385"/>
<polygon fill="none" stroke="#666666" points="13.5,-368 13.5,-428 129.5,-428 129.5,-368 13.5,-368"/>
</a>
</g>
</g>
<!-- Node2&#45;&gt;Node1 -->
<g id="edge1_Node000001_Node000002" class="edge">
<title>Node2&#45;&gt;Node1</title>
<g id="a_edge1_Node000001_Node000002"><a xlink:title=" ">
<path fill="none" stroke="#63b8ff" d="M71.5,-357.7C71.5,-349.64 71.5,-340.9 71.5,-332.07"/>
<polygon fill="none" stroke="#63b8ff" points="68,-357.86 71.5,-367.86 75,-357.86 68,-357.86"/>
</a>
</g>
</g>
</g>
</svg>
