<?xml version="1.0" encoding="UTF-8" standalone="no"?>
<!DOCTYPE svg PUBLIC "-//W3C//DTD SVG 1.1//EN"
 "http://www.w3.org/Graphics/SVG/1.1/DTD/svg11.dtd">
<!-- Generated by graphviz version 2.43.0 (0)
 -->
<!-- Title: sophia::monte_carlo::models::Node::Rollout Pages: 1 -->
<svg width="347pt" height="301pt"
 viewBox="0.00 0.00 347.00 300.50" xmlns="http://www.w3.org/2000/svg" xmlns:xlink="http://www.w3.org/1999/xlink">

<svg id="main" version="1.1" xmlns="http://www.w3.org/2000/svg" xmlns:xlink="http://www.w3.org/1999/xlink" xml:space="preserve" onload="init(evt)">
<style type="text/css"><![CDATA[
.node, .edge {opacity: 0.7;}
.node.selected, .edge.selected {opacity: 1;}
.edge:hover path { stroke: red; }
.edge:hover polygon { stroke: red; fill: red; }
]]></style>
<script type="application/ecmascript" xlink:href="svg.min.js"/>
<svg id="graph" class="graph">
<g id="graph0" class="graph" transform="scale(1 1) rotate(0) translate(4 296.5)">
<title>sophia::monte_carlo::models::Node::Rollout</title>
<!-- Node1 -->
<g id="Node000001" class="node">
<title>Node1</title>
<g id="a_Node000001"><a xlink:title=" ">
<polygon fill="#999999" stroke="#666666" points="131,-150 0,-150 0,-120 131,-120 131,-150"/>
<text text-anchor="start" x="8" y="-138" font-family="Helvetica,sans-Serif" font-size="10.00">sophia::monte_carlo</text>
<text text-anchor="middle" x="65.5" y="-127" font-family="Helvetica,sans-Serif" font-size="10.00">::models::Node::Rollout</text>
</a>
</g>
</g>
<!-- Node1&#45;&gt;Node1 -->
<g id="edge5_Node000001_Node000001" class="edge">
<title>Node1&#45;&gt;Node1</title>
<g id="a_edge5_Node000001_Node000001"><a xlink:title=" ">
<path fill="none" stroke="#63b8ff" d="M32.8,-150.28C25.54,-159.41 36.44,-168 65.5,-168 82.76,-168 93.61,-164.97 98.06,-160.6"/>
<polygon fill="#63b8ff" stroke="#63b8ff" points="101.56,-160.32 98.2,-150.28 94.56,-160.23 101.56,-160.32"/>
</a>
</g>
</g>
<!-- Node2 -->
<g id="Node000002" class="node">
<title>Node2</title>
<g id="a_Node000002"><a xlink:href="classsophia_1_1monte__carlo_1_1models_1_1Node.html#ab435a2663c9ac64279b9ee684436e7f2" target="_top" xlink:title=" ">
<polygon fill="white" stroke="#666666" points="332,-292.5 174,-292.5 174,-251.5 332,-251.5 332,-292.5"/>
<text text-anchor="start" x="182" y="-280.5" font-family="Helvetica,sans-Serif" font-size="10.00">sophia::monte_carlo</text>
<text text-anchor="start" x="182" y="-269.5" font-family="Helvetica,sans-Serif" font-size="10.00">::models::Node::GetAvailable</text>
<text text-anchor="middle" x="253" y="-258.5" font-family="Helvetica,sans-Serif" font-size="10.00">Actions</text>
</a>
</g>
</g>
<!-- Node1&#45;&gt;Node2 -->
<g id="edge1_Node000001_Node000002" class="edge">
<title>Node1&#45;&gt;Node2</title>
<g id="a_edge1_Node000001_Node000002"><a xlink:title=" ">
<path fill="none" stroke="#63b8ff" d="M76.76,-150.12C93.21,-173.27 127.67,-217.51 167,-243 168.91,-244.24 170.89,-245.43 172.9,-246.58"/>
<polygon fill="#63b8ff" stroke="#63b8ff" points="171.52,-249.81 182.01,-251.32 174.75,-243.6 171.52,-249.81"/>
</a>
</g>
</g>
<!-- Node3 -->
<g id="Node000003" class="node">
<title>Node3</title>
<g id="a_Node000003"><a xlink:href="classsophia_1_1monte__carlo_1_1models_1_1Node.html#a3b57c4db3bce104f80944bca5558fa4d" target="_top" xlink:title=" ">
<polygon fill="white" stroke="#666666" points="326,-233.5 180,-233.5 180,-192.5 326,-192.5 326,-233.5"/>
<text text-anchor="start" x="188" y="-221.5" font-family="Helvetica,sans-Serif" font-size="10.00">sophia::monte_carlo</text>
<text text-anchor="start" x="188" y="-210.5" font-family="Helvetica,sans-Serif" font-size="10.00">::models::Node::IsTerminal</text>
<text text-anchor="middle" x="253" y="-199.5" font-family="Helvetica,sans-Serif" font-size="10.00">State</text>
</a>
</g>
</g>
<!-- Node1&#45;&gt;Node3 -->
<g id="edge2_Node000001_Node000003" class="edge">
<title>Node1&#45;&gt;Node3</title>
<g id="a_edge2_Node000001_Node000003"><a xlink:title=" ">
<path fill="none" stroke="#63b8ff" d="M96.03,-150.12C115.86,-160.02 142.7,-172.94 167,-183 171.76,-184.97 176.7,-186.93 181.69,-188.85"/>
<polygon fill="#63b8ff" stroke="#63b8ff" points="180.74,-192.23 191.34,-192.48 183.21,-185.68 180.74,-192.23"/>
</a>
</g>
</g>
<!-- Node4 -->
<g id="Node000004" class="node">
<title>Node4</title>
<g id="a_Node000004"><a xlink:href="classsophia_1_1monte__carlo_1_1models_1_1Node.html#a839863194c78433b294b3c11dcf746c2" target="_top" xlink:title=" ">
<polygon fill="white" stroke="#666666" points="315.5,-174 190.5,-174 190.5,-144 315.5,-144 315.5,-174"/>
<text text-anchor="start" x="198.5" y="-162" font-family="Helvetica,sans-Serif" font-size="10.00">sophia::monte_carlo</text>
<text text-anchor="middle" x="253" y="-151" font-family="Helvetica,sans-Serif" font-size="10.00">::models::Node::Name</text>
</a>
</g>
</g>
<!-- Node1&#45;&gt;Node4 -->
<g id="edge3_Node000001_Node000004" class="edge">
<title>Node1&#45;&gt;Node4</title>
<g id="a_edge3_Node000001_Node000004"><a xlink:title=" ">
<path fill="none" stroke="#63b8ff" d="M131.12,-143.36C147.05,-145.42 164.21,-147.64 180.45,-149.74"/>
<polygon fill="#63b8ff" stroke="#63b8ff" points="180.05,-153.22 190.42,-151.03 180.95,-146.28 180.05,-153.22"/>
</a>
</g>
</g>
<!-- Node5 -->
<g id="Node000005" class="node">
<title>Node5</title>
<g id="a_Node000005"><a xlink:href="classsophia_1_1monte__carlo_1_1models_1_1Node.html#a8ade2b382a86e4c36a60caefc196ad82" target="_top" xlink:title=" ">
<polygon fill="white" stroke="#666666" points="312.5,-126 193.5,-126 193.5,-96 312.5,-96 312.5,-126"/>
<text text-anchor="start" x="201.5" y="-114" font-family="Helvetica,sans-Serif" font-size="10.00">sophia::monte_carlo</text>
<text text-anchor="middle" x="253" y="-103" font-family="Helvetica,sans-Serif" font-size="10.00">::models::Node::Print</text>
</a>
</g>
</g>
<!-- Node1&#45;&gt;Node5 -->
<g id="edge4_Node000001_Node000005" class="edge">
<title>Node1&#45;&gt;Node5</title>
<g id="a_edge4_Node000001_Node000005"><a xlink:title=" ">
<path fill="none" stroke="#63b8ff" d="M131.12,-126.64C147.83,-124.48 165.89,-122.14 182.82,-119.95"/>
<polygon fill="#63b8ff" stroke="#63b8ff" points="183.73,-123.36 193.2,-118.61 182.83,-116.42 183.73,-123.36"/>
</a>
</g>
</g>
<!-- Node6 -->
<g id="Node000006" class="node">
<title>Node6</title>
<g id="a_Node000006"><a xlink:href="classsophia_1_1monte__carlo_1_1models_1_1Node.html#a5a6b97bf4237e24d26a19027e24e8a55" target="_top" xlink:title=" ">
<polygon fill="white" stroke="#666666" points="339,-78 167,-78 167,-48 339,-48 339,-78"/>
<text text-anchor="start" x="175" y="-66" font-family="Helvetica,sans-Serif" font-size="10.00">sophia::monte_carlo</text>
<text text-anchor="middle" x="253" y="-55" font-family="Helvetica,sans-Serif" font-size="10.00">::models::Node::RolloutStrategy</text>
</a>
</g>
</g>
<!-- Node1&#45;&gt;Node6 -->
<g id="edge6_Node000001_Node000006" class="edge">
<title>Node1&#45;&gt;Node6</title>
<g id="a_edge6_Node000001_Node000006"><a xlink:title=" ">
<path fill="none" stroke="#63b8ff" d="M94.96,-119.8C114.78,-109.62 142.03,-96.41 167,-87 172.42,-84.96 178.1,-82.99 183.83,-81.13"/>
<polygon fill="#63b8ff" stroke="#63b8ff" points="185.01,-84.43 193.5,-78.1 182.91,-77.75 185.01,-84.43"/>
</a>
</g>
</g>
<!-- Node7 -->
<g id="Node000007" class="node">
<title>Node7</title>
<g id="a_Node000007"><a xlink:href="classsophia_1_1monte__carlo_1_1models_1_1Node.html#a48e865e8df5b298f3111c7d372327656" target="_top" xlink:title=" ">
<polygon fill="white" stroke="#666666" points="314.5,-30 191.5,-30 191.5,0 314.5,0 314.5,-30"/>
<text text-anchor="start" x="199.5" y="-18" font-family="Helvetica,sans-Serif" font-size="10.00">sophia::monte_carlo</text>
<text text-anchor="middle" x="253" y="-7" font-family="Helvetica,sans-Serif" font-size="10.00">::models::Node::Value</text>
</a>
</g>
</g>
<!-- Node1&#45;&gt;Node7 -->
<g id="edge7_Node000001_Node000007" class="edge">
<title>Node1&#45;&gt;Node7</title>
<g id="a_edge7_Node000001_Node000007"><a xlink:title=" ">
<path fill="none" stroke="#63b8ff" d="M78.13,-119.98C95.3,-98.82 129.49,-60.42 167,-39 171.54,-36.41 176.39,-34.08 181.37,-31.99"/>
<polygon fill="#63b8ff" stroke="#63b8ff" points="183,-35.11 191.08,-28.26 180.49,-28.58 183,-35.11"/>
</a>
</g>
</g>
</g>
</svg>
</svg>

<style type='text/css'>
<![CDATA[
[data-mouse-over-selected='false'] { opacity: 0.7; }
[data-mouse-over-selected='true']  { opacity: 1.0; }
]]>
</style>
<script type="application/ecmascript"><![CDATA[
document.addEventListener('DOMContentLoaded', (event) => {
  highlightEdges();
  highlightAdjacentNodes();
});
]]></script>
</svg>
