<?xml version="1.0" encoding="UTF-8" standalone="no"?>
<!DOCTYPE svg PUBLIC "-//W3C//DTD SVG 1.1//EN"
 "http://www.w3.org/Graphics/SVG/1.1/DTD/svg11.dtd">
<!-- Generated by graphviz version 2.43.0 (0)
 -->
<!-- Title: sophia::monte_carlo::tic_tac_toe::models::Bot Pages: 1 -->
<svg width="262pt" height="387pt"
 viewBox="0.00 0.00 261.50 387.00" xmlns="http://www.w3.org/2000/svg" xmlns:xlink="http://www.w3.org/1999/xlink">
<g id="graph0" class="graph" transform="scale(1 1) rotate(0) translate(4 383)">
<title>sophia::monte_carlo::tic_tac_toe::models::Bot</title>
<!-- Node1 -->
<g id="Node000001" class="node">
<title>Node1</title>
<g id="a_Node000001"><a xlink:title="A non&#45;human Tic Tac Toe Player.">
<polygon fill="#999999" stroke="transparent" points="193,-105 59,-105 59,0 193,0 193,-105"/>
<text text-anchor="start" x="64" y="-92.5" font-family="Helvetica,sans-Serif" font-size="10.00">sophia::monte_carlo</text>
<text text-anchor="start" x="64" y="-81.5" font-family="Helvetica,sans-Serif" font-size="10.00">::tic_tac_toe::models::Bot</text>
<text text-anchor="start" x="79" y="-66.5" font-family="Helvetica,sans-Serif" font-size="10.00">&#45;</text>
<text text-anchor="start" x="103" y="-66.5" font-family="Helvetica,sans-Serif" font-size="10.00">node_</text>
<text text-anchor="start" x="79" y="-51.5" font-family="Helvetica,sans-Serif" font-size="10.00">&#45;</text>
<text text-anchor="start" x="103" y="-51.5" font-family="Helvetica,sans-Serif" font-size="10.00">iterations_</text>
<text text-anchor="start" x="76.5" y="-36.5" font-family="Helvetica,sans-Serif" font-size="10.00">+</text>
<text text-anchor="start" x="103" y="-36.5" font-family="Helvetica,sans-Serif" font-size="10.00">Bot()</text>
<text text-anchor="start" x="76.5" y="-21.5" font-family="Helvetica,sans-Serif" font-size="10.00">+</text>
<text text-anchor="start" x="103" y="-21.5" font-family="Helvetica,sans-Serif" font-size="10.00">NextMove()</text>
<text text-anchor="start" x="76.5" y="-6.5" font-family="Helvetica,sans-Serif" font-size="10.00">+</text>
<text text-anchor="start" x="103" y="-6.5" font-family="Helvetica,sans-Serif" font-size="10.00">Update()</text>
<polygon fill="#666666" stroke="#666666" points="59,-76.5 59,-76.5 193,-76.5 193,-76.5 59,-76.5"/>
<polygon fill="#666666" stroke="#666666" points="59,-46.5 59,-46.5 101,-46.5 101,-46.5 59,-46.5"/>
<polygon fill="#666666" stroke="#666666" points="101,-46.5 101,-46.5 193,-46.5 193,-46.5 101,-46.5"/>
<polygon fill="none" stroke="#666666" points="59,0 59,-105 193,-105 193,0 59,0"/>
</a>
</g>
</g>
<!-- Node2 -->
<g id="Node000002" class="node">
<title>Node2</title>
<g id="a_Node000002"><a xlink:href="classsophia_1_1monte__carlo_1_1tic__tac__toe_1_1models_1_1Player.html" target="_top" xlink:title="A Player in a Tic Tac Toe Game.">
<polygon fill="white" stroke="transparent" points="183,-272 69,-272 69,-141 183,-141 183,-272"/>
<text text-anchor="start" x="75" y="-259.5" font-family="Helvetica,sans-Serif" font-size="10.00">sophia::monte_carlo</text>
<text text-anchor="start" x="75" y="-248.5" font-family="Helvetica,sans-Serif" font-size="10.00">::tic_tac_toe::models</text>
<text text-anchor="start" x="107.5" y="-237.5" font-family="Helvetica,sans-Serif" font-size="10.00">::Player</text>
<text text-anchor="start" x="73" y="-222.5" font-family="Helvetica,sans-Serif" font-size="10.00">#</text>
<text text-anchor="start" x="86" y="-222.5" font-family="Helvetica,sans-Serif" font-size="10.00">m_player_symbol_</text>
<text text-anchor="start" x="73" y="-207.5" font-family="Helvetica,sans-Serif" font-size="10.00">+</text>
<text text-anchor="start" x="86" y="-207.5" font-family="Helvetica,sans-Serif" font-size="10.00">Player()</text>
<text text-anchor="start" x="73" y="-192.5" font-family="Helvetica,sans-Serif" font-size="10.00">+</text>
<text text-anchor="start" x="86" y="-192.5" font-family="Helvetica,sans-Serif" font-size="10.00">~Player()</text>
<text text-anchor="start" x="73" y="-177.5" font-family="Helvetica,sans-Serif" font-size="10.00">+</text>
<text text-anchor="start" x="86" y="-177.5" font-family="Helvetica,sans-Serif" font-size="10.00">symbol()</text>
<text text-anchor="start" x="73" y="-162.5" font-family="Helvetica,sans-Serif" font-size="10.00">+</text>
<text text-anchor="start" x="86" y="-162.5" font-family="Helvetica,sans-Serif" font-size="10.00">NextMove()</text>
<text text-anchor="start" x="73" y="-147.5" font-family="Helvetica,sans-Serif" font-size="10.00">+</text>
<text text-anchor="start" x="86" y="-147.5" font-family="Helvetica,sans-Serif" font-size="10.00">Value()</text>
<polygon fill="#666666" stroke="#666666" points="69,-232.5 69,-232.5 183,-232.5 183,-232.5 69,-232.5"/>
<polygon fill="#666666" stroke="#666666" points="69,-217.5 69,-217.5 84,-217.5 84,-217.5 69,-217.5"/>
<polygon fill="#666666" stroke="#666666" points="84,-217.5 84,-217.5 183,-217.5 183,-217.5 84,-217.5"/>
<polygon fill="none" stroke="#666666" points="69,-141 69,-272 183,-272 183,-141 69,-141"/>
</a>
</g>
</g>
<!-- Node2&#45;&gt;Node1 -->
<g id="edge1_Node000001_Node000002" class="edge">
<title>Node2&#45;&gt;Node1</title>
<g id="a_edge1_Node000001_Node000002"><a xlink:title=" ">
<path fill="none" stroke="#63b8ff" d="M126,-130.6C126,-122.05 126,-113.48 126,-105.33"/>
<polygon fill="none" stroke="#63b8ff" points="122.5,-130.6 126,-140.6 129.5,-130.6 122.5,-130.6"/>
</a>
</g>
</g>
<!-- Node3 -->
<g id="Node000003" class="node">
<title>Node3</title>
<g id="a_Node000003"><a xlink:title=" ">
<polygon fill="white" stroke="transparent" points="116,-373.5 0,-373.5 0,-313.5 116,-313.5 116,-373.5"/>
<text text-anchor="start" x="5" y="-361.5" font-family="Helvetica,sans-Serif" font-size="10.00">std::enable_shared</text>
<text text-anchor="start" x="5" y="-350.5" font-family="Helvetica,sans-Serif" font-size="10.00">_from_this&lt; Player &gt;</text>
<text text-anchor="start" x="56" y="-335.5" font-family="Helvetica,sans-Serif" font-size="10.00"> </text>
<text text-anchor="start" x="56" y="-320.5" font-family="Helvetica,sans-Serif" font-size="10.00"> </text>
<polygon fill="#666666" stroke="#666666" points="0,-345.5 0,-345.5 116,-345.5 116,-345.5 0,-345.5"/>
<polygon fill="#666666" stroke="#666666" points="0,-330.5 0,-330.5 116,-330.5 116,-330.5 0,-330.5"/>
<polygon fill="none" stroke="#666666" points="0,-313.5 0,-373.5 116,-373.5 116,-313.5 0,-313.5"/>
</a>
</g>
</g>
<!-- Node3&#45;&gt;Node2 -->
<g id="edge2_Node000002_Node000003" class="edge">
<title>Node3&#45;&gt;Node2</title>
<g id="a_edge2_Node000002_Node000003"><a xlink:title=" ">
<path fill="none" stroke="#63b8ff" d="M77.38,-304.02C82.39,-294.08 87.92,-283.09 93.41,-272.2"/>
<polygon fill="none" stroke="#63b8ff" points="74.13,-302.7 72.75,-313.21 80.38,-305.85 74.13,-302.7"/>
</a>
</g>
</g>
<!-- Node4 -->
<g id="Node000004" class="node">
<title>Node4</title>
<g id="a_Node000004"><a xlink:href="classsophia_1_1monte__carlo_1_1tic__tac__toe_1_1observer_1_1Observer.html" target="_top" xlink:title="The Observer in an Observer pattern.">
<polygon fill="white" stroke="transparent" points="253.5,-379 134.5,-379 134.5,-308 253.5,-308 253.5,-379"/>
<text text-anchor="start" x="140" y="-366.5" font-family="Helvetica,sans-Serif" font-size="10.00">sophia::monte_carlo</text>
<text text-anchor="start" x="140" y="-355.5" font-family="Helvetica,sans-Serif" font-size="10.00">::tic_tac_toe::observer</text>
<text text-anchor="start" x="169" y="-344.5" font-family="Helvetica,sans-Serif" font-size="10.00">::Observer</text>
<text text-anchor="start" x="192.5" y="-329.5" font-family="Helvetica,sans-Serif" font-size="10.00"> </text>
<text text-anchor="start" x="152.5" y="-314.5" font-family="Helvetica,sans-Serif" font-size="10.00">+</text>
<text text-anchor="start" x="179" y="-314.5" font-family="Helvetica,sans-Serif" font-size="10.00">Update()</text>
<polygon fill="#666666" stroke="#666666" points="135,-339.5 135,-339.5 254,-339.5 254,-339.5 135,-339.5"/>
<polygon fill="#666666" stroke="#666666" points="135,-324.5 135,-324.5 254,-324.5 254,-324.5 135,-324.5"/>
<polygon fill="none" stroke="#666666" points="134.5,-308 134.5,-379 253.5,-379 253.5,-308 134.5,-308"/>
</a>
</g>
</g>
<!-- Node4&#45;&gt;Node2 -->
<g id="edge3_Node000002_Node000004" class="edge">
<title>Node4&#45;&gt;Node2</title>
<g id="a_edge3_Node000002_Node000004"><a xlink:title=" ">
<path fill="none" stroke="#63b8ff" d="M171.95,-298.73C167.65,-290.19 163.06,-281.07 158.5,-272.03"/>
<polygon fill="none" stroke="#63b8ff" points="168.86,-300.38 176.49,-307.73 175.12,-297.23 168.86,-300.38"/>
</a>
</g>
</g>
</g>
</svg>
