<?xml version="1.0" encoding="UTF-8" standalone="no"?>
<!DOCTYPE svg PUBLIC "-//W3C//DTD SVG 1.1//EN"
 "http://www.w3.org/Graphics/SVG/1.1/DTD/svg11.dtd">
<!-- Generated by graphviz version 2.43.0 (0)
 -->
<!-- Title: sophia::monte_carlo::tic_tac_toe::models::Position::State Pages: 1 -->
<svg width="454pt" height="108pt"
 viewBox="0.00 0.00 454.00 108.00" xmlns="http://www.w3.org/2000/svg" xmlns:xlink="http://www.w3.org/1999/xlink">
<g id="graph0" class="graph" transform="scale(1 1) rotate(0) translate(4 104)">
<title>sophia::monte_carlo::tic_tac_toe::models::Position::State</title>
<!-- Node1 -->
<g id="Node000001" class="node">
<title>Node1</title>
<g id="a_Node000001"><a xlink:title=" ">
<polygon fill="#999999" stroke="#666666" points="446,-70 328,-70 328,-29 446,-29 446,-70"/>
<text text-anchor="start" x="336" y="-58" font-family="Helvetica,sans-Serif" font-size="10.00">sophia::monte_carlo</text>
<text text-anchor="start" x="336" y="-47" font-family="Helvetica,sans-Serif" font-size="10.00">::tic_tac_toe::models</text>
<text text-anchor="middle" x="387" y="-36" font-family="Helvetica,sans-Serif" font-size="10.00">::Position::State</text>
</a>
</g>
</g>
<!-- Node2 -->
<g id="Node000002" class="node">
<title>Node2</title>
<g id="a_Node000002"><a xlink:href="classsophia_1_1monte__carlo_1_1tic__tac__toe_1_1models_1_1GameState.html#a6dc854b0b8d20bf45c7c369747bd8ead" target="_top" xlink:title="Creates a copy of the GameState with the given move applied.">
<polygon fill="white" stroke="#666666" points="292,-100 154,-100 154,-59 292,-59 292,-100"/>
<text text-anchor="start" x="162" y="-88" font-family="Helvetica,sans-Serif" font-size="10.00">sophia::monte_carlo</text>
<text text-anchor="start" x="162" y="-77" font-family="Helvetica,sans-Serif" font-size="10.00">::tic_tac_toe::models</text>
<text text-anchor="middle" x="223" y="-66" font-family="Helvetica,sans-Serif" font-size="10.00">::GameState::ApplyMove</text>
</a>
</g>
</g>
<!-- Node1&#45;&gt;Node2 -->
<g id="edge1_Node000001_Node000002" class="edge">
<title>Node1&#45;&gt;Node2</title>
<g id="a_edge1_Node000001_Node000002"><a xlink:title=" ">
<path fill="none" stroke="#63b8ff" d="M318.03,-62.09C309.46,-63.67 300.69,-65.3 292.12,-66.89"/>
<polygon fill="#63b8ff" stroke="#63b8ff" points="318.78,-65.51 327.97,-60.25 317.5,-58.63 318.78,-65.51"/>
</a>
</g>
</g>
<!-- Node3 -->
<g id="Node000003" class="node">
<title>Node3</title>
<g id="a_Node000003"><a xlink:href="classsophia_1_1monte__carlo_1_1tic__tac__toe_1_1models_1_1Board.html#a96c3c35f4cb92fe134ab6fcfe302279d" target="_top" xlink:title="Set a position.">
<polygon fill="white" stroke="#666666" points="282,-41 164,-41 164,0 282,0 282,-41"/>
<text text-anchor="start" x="172" y="-29" font-family="Helvetica,sans-Serif" font-size="10.00">sophia::monte_carlo</text>
<text text-anchor="start" x="172" y="-18" font-family="Helvetica,sans-Serif" font-size="10.00">::tic_tac_toe::models</text>
<text text-anchor="middle" x="223" y="-7" font-family="Helvetica,sans-Serif" font-size="10.00">::Board::SetPosition</text>
</a>
</g>
</g>
<!-- Node1&#45;&gt;Node3 -->
<g id="edge2_Node000001_Node000003" class="edge">
<title>Node1&#45;&gt;Node3</title>
<g id="a_edge2_Node000001_Node000003"><a xlink:title=" ">
<path fill="none" stroke="#63b8ff" d="M318.06,-37.34C306.13,-35.2 293.81,-33 282.17,-30.91"/>
<polygon fill="#63b8ff" stroke="#63b8ff" points="317.51,-40.8 327.97,-39.11 318.75,-33.9 317.51,-40.8"/>
</a>
</g>
</g>
<!-- Node4 -->
<g id="Node000004" class="node">
<title>Node4</title>
<g id="a_Node000004"><a xlink:href="classsophia_1_1monte__carlo_1_1tic__tac__toe_1_1models_1_1Board.html#a880a1297b0d80d79382483845b40c516" target="_top" xlink:title="Creates a copy of the board with the given move applied.">
<polygon fill="white" stroke="#666666" points="118,-41 0,-41 0,0 118,0 118,-41"/>
<text text-anchor="start" x="8" y="-29" font-family="Helvetica,sans-Serif" font-size="10.00">sophia::monte_carlo</text>
<text text-anchor="start" x="8" y="-18" font-family="Helvetica,sans-Serif" font-size="10.00">::tic_tac_toe::models</text>
<text text-anchor="middle" x="59" y="-7" font-family="Helvetica,sans-Serif" font-size="10.00">::Board::WithMove</text>
</a>
</g>
</g>
<!-- Node3&#45;&gt;Node4 -->
<g id="edge3_Node000003_Node000004" class="edge">
<title>Node3&#45;&gt;Node4</title>
<g id="a_edge3_Node000003_Node000004"><a xlink:title=" ">
<path fill="none" stroke="#63b8ff" d="M153.7,-20.5C141.88,-20.5 129.69,-20.5 118.17,-20.5"/>
<polygon fill="#63b8ff" stroke="#63b8ff" points="153.97,-24 163.97,-20.5 153.97,-17 153.97,-24"/>
</a>
</g>
</g>
</g>
</svg>
