<?xml version="1.0" encoding="UTF-8" standalone="no"?>
<!DOCTYPE svg PUBLIC "-//W3C//DTD SVG 1.1//EN"
 "http://www.w3.org/Graphics/SVG/1.1/DTD/svg11.dtd">
<!-- Generated by graphviz version 2.43.0 (0)
 -->
<!-- Title: sophia::monte_carlo::models::Node Pages: 1 -->
<svg width="198pt" height="400pt"
 viewBox="0.00 0.00 198.00 400.00" xmlns="http://www.w3.org/2000/svg" xmlns:xlink="http://www.w3.org/1999/xlink">

<svg id="main" version="1.1" xmlns="http://www.w3.org/2000/svg" xmlns:xlink="http://www.w3.org/1999/xlink" xml:space="preserve" onload="init(evt)">
<style type="text/css"><![CDATA[
.node, .edge {opacity: 0.7;}
.node.selected, .edge.selected {opacity: 1;}
.edge:hover path { stroke: red; }
.edge:hover polygon { stroke: red; fill: red; }
]]></style>
<script type="application/ecmascript" xlink:href="svg.min.js"/>
<svg id="graph" class="graph">
<g id="graph0" class="graph" transform="scale(1 1) rotate(0) translate(4 396)">
<title>sophia::monte_carlo::models::Node</title>
<!-- Node1 -->
<g id="Node000001" class="node">
<title>Node1</title>
<g id="a_Node000001"><a xlink:title=" ">
<polygon fill="#999999" stroke="transparent" points="172.5,-285 29.5,-285 29.5,0 172.5,0 172.5,-285"/>
<text text-anchor="start" x="51.5" y="-272.5" font-family="Helvetica,sans-Serif" font-size="10.00">sophia::monte_carlo</text>
<text text-anchor="start" x="64.5" y="-261.5" font-family="Helvetica,sans-Serif" font-size="10.00">::models::Node</text>
<text text-anchor="start" x="34" y="-246.5" font-family="Helvetica,sans-Serif" font-size="10.00">#</text>
<text text-anchor="start" x="47" y="-246.5" font-family="Helvetica,sans-Serif" font-size="10.00">m_parent_action_</text>
<text text-anchor="start" x="34" y="-231.5" font-family="Helvetica,sans-Serif" font-size="10.00">#</text>
<text text-anchor="start" x="47" y="-231.5" font-family="Helvetica,sans-Serif" font-size="10.00">m_child_action_</text>
<text text-anchor="start" x="34" y="-216.5" font-family="Helvetica,sans-Serif" font-size="10.00">#</text>
<text text-anchor="start" x="47" y="-216.5" font-family="Helvetica,sans-Serif" font-size="10.00">m_visit_count_</text>
<text text-anchor="start" x="34" y="-201.5" font-family="Helvetica,sans-Serif" font-size="10.00">#</text>
<text text-anchor="start" x="47" y="-201.5" font-family="Helvetica,sans-Serif" font-size="10.00">m_total_reward_</text>
<text text-anchor="start" x="34" y="-186.5" font-family="Helvetica,sans-Serif" font-size="10.00">+</text>
<text text-anchor="start" x="47" y="-186.5" font-family="Helvetica,sans-Serif" font-size="10.00">Node()</text>
<text text-anchor="start" x="34" y="-171.5" font-family="Helvetica,sans-Serif" font-size="10.00">+</text>
<text text-anchor="start" x="47" y="-171.5" font-family="Helvetica,sans-Serif" font-size="10.00">~Node()</text>
<text text-anchor="start" x="34" y="-156.5" font-family="Helvetica,sans-Serif" font-size="10.00">+</text>
<text text-anchor="start" x="47" y="-156.5" font-family="Helvetica,sans-Serif" font-size="10.00">SetParent()</text>
<text text-anchor="start" x="34" y="-141.5" font-family="Helvetica,sans-Serif" font-size="10.00">+</text>
<text text-anchor="start" x="47" y="-141.5" font-family="Helvetica,sans-Serif" font-size="10.00">SelectBestAction()</text>
<text text-anchor="start" x="34" y="-126.5" font-family="Helvetica,sans-Serif" font-size="10.00">+</text>
<text text-anchor="start" x="47" y="-126.5" font-family="Helvetica,sans-Serif" font-size="10.00">Expand()</text>
<text text-anchor="start" x="34" y="-111.5" font-family="Helvetica,sans-Serif" font-size="10.00">+</text>
<text text-anchor="start" x="47" y="-111.5" font-family="Helvetica,sans-Serif" font-size="10.00">Rollout()</text>
<text text-anchor="start" x="34" y="-96.5" font-family="Helvetica,sans-Serif" font-size="10.00">+</text>
<text text-anchor="start" x="47" y="-96.5" font-family="Helvetica,sans-Serif" font-size="10.00">Backpropagate()</text>
<text text-anchor="start" x="34" y="-81.5" font-family="Helvetica,sans-Serif" font-size="10.00">+</text>
<text text-anchor="start" x="47" y="-81.5" font-family="Helvetica,sans-Serif" font-size="10.00">Name()</text>
<text text-anchor="start" x="34" y="-66.5" font-family="Helvetica,sans-Serif" font-size="10.00">+</text>
<text text-anchor="start" x="47" y="-66.5" font-family="Helvetica,sans-Serif" font-size="10.00">UpperConfidenceBound()</text>
<text text-anchor="start" x="34" y="-51.5" font-family="Helvetica,sans-Serif" font-size="10.00">+</text>
<text text-anchor="start" x="47" y="-51.5" font-family="Helvetica,sans-Serif" font-size="10.00">IsLeafNode()</text>
<text text-anchor="start" x="47" y="-36.5" font-family="Helvetica,sans-Serif" font-size="10.00">and 8 more...</text>
<text text-anchor="start" x="34" y="-21.5" font-family="Helvetica,sans-Serif" font-size="10.00">#</text>
<text text-anchor="start" x="47" y="-21.5" font-family="Helvetica,sans-Serif" font-size="10.00">GetAvailableActions()</text>
<text text-anchor="start" x="34" y="-6.5" font-family="Helvetica,sans-Serif" font-size="10.00">#</text>
<text text-anchor="start" x="47" y="-6.5" font-family="Helvetica,sans-Serif" font-size="10.00">RolloutStrategy()</text>
<polygon fill="#666666" stroke="#666666" points="30,-256.5 30,-256.5 173,-256.5 173,-256.5 30,-256.5"/>
<polygon fill="#666666" stroke="#666666" points="30,-196.5 30,-196.5 45,-196.5 45,-196.5 30,-196.5"/>
<polygon fill="#666666" stroke="#666666" points="45,-196.5 45,-196.5 173,-196.5 173,-196.5 45,-196.5"/>
<polygon fill="none" stroke="#666666" points="29.5,0 29.5,-285 172.5,-285 172.5,0 29.5,0"/>
</a>
</g>
</g>
<!-- Node2 -->
<g id="Node000002" class="node">
<title>Node2</title>
<g id="a_Node000002"><a xlink:title=" ">
<polygon fill="white" stroke="transparent" points="110,-392 0,-392 0,-332 110,-332 110,-392"/>
<text text-anchor="start" x="5" y="-380" font-family="Helvetica,sans-Serif" font-size="10.00">std::enable_shared</text>
<text text-anchor="start" x="5" y="-369" font-family="Helvetica,sans-Serif" font-size="10.00">_from_this&lt; Node &gt;</text>
<text text-anchor="start" x="53" y="-354" font-family="Helvetica,sans-Serif" font-size="10.00"> </text>
<text text-anchor="start" x="53" y="-339" font-family="Helvetica,sans-Serif" font-size="10.00"> </text>
<polygon fill="#666666" stroke="#666666" points="0,-364 0,-364 110,-364 110,-364 0,-364"/>
<polygon fill="#666666" stroke="#666666" points="0,-349 0,-349 110,-349 110,-349 0,-349"/>
<polygon fill="none" stroke="#666666" points="0,-332 0,-392 110,-392 110,-332 0,-332"/>
</a>
</g>
</g>
<!-- Node2&#45;&gt;Node1 -->
<g id="edge1_Node000001_Node000002" class="edge">
<title>Node2&#45;&gt;Node1</title>
<g id="a_edge1_Node000001_Node000002"><a xlink:title=" ">
<path fill="none" stroke="#63b8ff" d="M63.3,-321.77C65.59,-310.91 68.23,-298.45 71.01,-285.28"/>
<polygon fill="none" stroke="#63b8ff" points="59.85,-321.16 61.2,-331.67 66.7,-322.61 59.85,-321.16"/>
</a>
</g>
</g>
<!-- Node3 -->
<g id="Node000003" class="node">
<title>Node3</title>
<g id="a_Node000003"><a xlink:title=" ">
<polygon fill="white" stroke="transparent" points="166,-386.5 128,-386.5 128,-337.5 166,-337.5 166,-386.5"/>
<text text-anchor="start" x="133" y="-374" font-family="Helvetica,sans-Serif" font-size="10.00">string</text>
<text text-anchor="start" x="145" y="-359" font-family="Helvetica,sans-Serif" font-size="10.00"> </text>
<text text-anchor="start" x="145" y="-344" font-family="Helvetica,sans-Serif" font-size="10.00"> </text>
<polygon fill="#666666" stroke="#666666" points="128,-369 128,-369 166,-369 166,-369 128,-369"/>
<polygon fill="#666666" stroke="#666666" points="128,-354 128,-354 166,-354 166,-354 128,-354"/>
<polygon fill="none" stroke="#666666" points="128,-337.5 128,-386.5 166,-386.5 166,-337.5 128,-337.5"/>
</a>
</g>
</g>
<!-- Node3&#45;&gt;Node1 -->
<g id="edge2_Node000001_Node000003" class="edge">
<title>Node3&#45;&gt;Node1</title>
<g id="a_edge2_Node000001_Node000003"><a xlink:title=" ">
<path fill="none" stroke="#63b8ff" d="M141.99,-337.31C139.69,-326.43 136.75,-312.53 133.5,-297.18"/>
<polygon fill="none" stroke="#63b8ff" points="133.45,-296.93 128.3,-291.89 130.97,-285.19 136.12,-290.23 133.45,-296.93"/>
</a>
</g>
<text text-anchor="middle" x="162.5" y="-306" font-family="Helvetica,sans-Serif" font-size="10.00" fill="grey"> &#45;m_name_</text>
</g>
</g>
</svg>
</svg>

<style type='text/css'>
<![CDATA[
[data-mouse-over-selected='false'] { opacity: 0.7; }
[data-mouse-over-selected='true']  { opacity: 1.0; }
]]>
</style>
<script type="application/ecmascript"><![CDATA[
document.addEventListener('DOMContentLoaded', (event) => {
  highlightEdges();
  highlightAdjacentNodes();
});
]]></script>
</svg>
