<?xml version="1.0" encoding="UTF-8" standalone="no"?>
<!DOCTYPE svg PUBLIC "-//W3C//DTD SVG 1.1//EN"
 "http://www.w3.org/Graphics/SVG/1.1/DTD/svg11.dtd">
<!-- Generated by graphviz version 2.43.0 (0)
 -->
<!-- Title: sophia::monte_carlo::tic_tac_toe::observer::Subject Pages: 1 -->
<svg width="155pt" height="325pt"
 viewBox="0.00 0.00 155.00 325.00" xmlns="http://www.w3.org/2000/svg" xmlns:xlink="http://www.w3.org/1999/xlink">

<svg id="main" version="1.1" xmlns="http://www.w3.org/2000/svg" xmlns:xlink="http://www.w3.org/1999/xlink" xml:space="preserve" onload="init(evt)">
<style type="text/css"><![CDATA[
.node, .edge {opacity: 0.7;}
.node.selected, .edge.selected {opacity: 1;}
.edge:hover path { stroke: red; }
.edge:hover polygon { stroke: red; fill: red; }
]]></style>
<script type="application/ecmascript" xlink:href="svg.min.js"/>
<svg id="graph" class="graph">
<g id="graph0" class="graph" transform="scale(1 1) rotate(0) translate(4 321)">
<title>sophia::monte_carlo::tic_tac_toe::observer::Subject</title>
<!-- Node1 -->
<g id="Node000001" class="node">
<title>Node1</title>
<g id="a_Node000001"><a xlink:title="The subject in an observer pattern.">
<polygon fill="#999999" stroke="transparent" points="133,-317 14,-317 14,-231 133,-231 133,-317"/>
<text text-anchor="start" x="19.5" y="-305" font-family="Helvetica,sans-Serif" font-size="10.00">sophia::monte_carlo</text>
<text text-anchor="start" x="19.5" y="-294" font-family="Helvetica,sans-Serif" font-size="10.00">::tic_tac_toe::observer</text>
<text text-anchor="start" x="52.5" y="-283" font-family="Helvetica,sans-Serif" font-size="10.00">::Subject</text>
<text text-anchor="start" x="27" y="-268" font-family="Helvetica,sans-Serif" font-size="10.00">&#45;</text>
<text text-anchor="start" x="43.5" y="-268" font-family="Helvetica,sans-Serif" font-size="10.00">observers_</text>
<text text-anchor="start" x="24.5" y="-253" font-family="Helvetica,sans-Serif" font-size="10.00">+</text>
<text text-anchor="start" x="43.5" y="-253" font-family="Helvetica,sans-Serif" font-size="10.00">add_observer()</text>
<text text-anchor="start" x="24.5" y="-238" font-family="Helvetica,sans-Serif" font-size="10.00">+</text>
<text text-anchor="start" x="43.5" y="-238" font-family="Helvetica,sans-Serif" font-size="10.00">notify()</text>
<polygon fill="#666666" stroke="#666666" points="14.5,-278 14.5,-278 133.5,-278 133.5,-278 14.5,-278"/>
<polygon fill="#666666" stroke="#666666" points="14.5,-263 14.5,-263 41.5,-263 41.5,-263 14.5,-263"/>
<polygon fill="#666666" stroke="#666666" points="41.5,-263 41.5,-263 133.5,-263 133.5,-263 41.5,-263"/>
<polygon fill="none" stroke="#666666" points="14,-231 14,-317 133,-317 133,-231 14,-231"/>
</a>
</g>
</g>
<!-- Node2 -->
<g id="Node000002" class="node">
<title>Node2</title>
<g id="a_Node000002"><a xlink:href="classsophia_1_1monte__carlo_1_1tic__tac__toe_1_1models_1_1Game.html" target="_top" xlink:title="A Tic Tac Toe game.">
<polygon fill="white" stroke="transparent" points="147,-195 0,-195 0,0 147,0 147,-195"/>
<text text-anchor="start" x="5.5" y="-182.5" font-family="Helvetica,sans-Serif" font-size="10.00">sophia::monte_carlo</text>
<text text-anchor="start" x="5.5" y="-171.5" font-family="Helvetica,sans-Serif" font-size="10.00">::tic_tac_toe::models::Game</text>
<text text-anchor="start" x="20" y="-156.5" font-family="Helvetica,sans-Serif" font-size="10.00">&#45;</text>
<text text-anchor="start" x="43.5" y="-156.5" font-family="Helvetica,sans-Serif" font-size="10.00">x_</text>
<text text-anchor="start" x="20" y="-141.5" font-family="Helvetica,sans-Serif" font-size="10.00">&#45;</text>
<text text-anchor="start" x="43.5" y="-141.5" font-family="Helvetica,sans-Serif" font-size="10.00">o_</text>
<text text-anchor="start" x="20" y="-126.5" font-family="Helvetica,sans-Serif" font-size="10.00">&#45;</text>
<text text-anchor="start" x="43.5" y="-126.5" font-family="Helvetica,sans-Serif" font-size="10.00">game_states_</text>
<text text-anchor="start" x="17.5" y="-111.5" font-family="Helvetica,sans-Serif" font-size="10.00">+</text>
<text text-anchor="start" x="43.5" y="-111.5" font-family="Helvetica,sans-Serif" font-size="10.00">Game()</text>
<text text-anchor="start" x="17.5" y="-96.5" font-family="Helvetica,sans-Serif" font-size="10.00">+</text>
<text text-anchor="start" x="43.5" y="-96.5" font-family="Helvetica,sans-Serif" font-size="10.00">~Game()</text>
<text text-anchor="start" x="17.5" y="-81.5" font-family="Helvetica,sans-Serif" font-size="10.00">+</text>
<text text-anchor="start" x="43.5" y="-81.5" font-family="Helvetica,sans-Serif" font-size="10.00">Assign()</text>
<text text-anchor="start" x="17.5" y="-66.5" font-family="Helvetica,sans-Serif" font-size="10.00">+</text>
<text text-anchor="start" x="43.5" y="-66.5" font-family="Helvetica,sans-Serif" font-size="10.00">game_over()</text>
<text text-anchor="start" x="17.5" y="-51.5" font-family="Helvetica,sans-Serif" font-size="10.00">+</text>
<text text-anchor="start" x="43.5" y="-51.5" font-family="Helvetica,sans-Serif" font-size="10.00">active_player()</text>
<text text-anchor="start" x="17.5" y="-36.5" font-family="Helvetica,sans-Serif" font-size="10.00">+</text>
<text text-anchor="start" x="43.5" y="-36.5" font-family="Helvetica,sans-Serif" font-size="10.00">accept_move()</text>
<text text-anchor="start" x="17.5" y="-21.5" font-family="Helvetica,sans-Serif" font-size="10.00">+</text>
<text text-anchor="start" x="43.5" y="-21.5" font-family="Helvetica,sans-Serif" font-size="10.00">print()</text>
<text text-anchor="start" x="17.5" y="-6.5" font-family="Helvetica,sans-Serif" font-size="10.00">+</text>
<text text-anchor="start" x="43.5" y="-6.5" font-family="Helvetica,sans-Serif" font-size="10.00">Assign()</text>
<polygon fill="#666666" stroke="#666666" points="0.5,-166.5 0.5,-166.5 147.5,-166.5 147.5,-166.5 0.5,-166.5"/>
<polygon fill="#666666" stroke="#666666" points="0.5,-121.5 0.5,-121.5 41.5,-121.5 41.5,-121.5 0.5,-121.5"/>
<polygon fill="#666666" stroke="#666666" points="41.5,-121.5 41.5,-121.5 147.5,-121.5 147.5,-121.5 41.5,-121.5"/>
<polygon fill="none" stroke="#666666" points="0,0 0,-195 147,-195 147,0 0,0"/>
</a>
</g>
</g>
<!-- Node1&#45;&gt;Node2 -->
<g id="edge1_Node000001_Node000002" class="edge">
<title>Node1&#45;&gt;Node2</title>
<g id="a_edge1_Node000001_Node000002"><a xlink:title=" ">
<path fill="none" stroke="#8b1a1a" d="M73.5,-220.74C73.5,-212.61 73.5,-203.99 73.5,-195.24"/>
<polygon fill="none" stroke="#8b1a1a" points="70,-220.76 73.5,-230.76 77,-220.76 70,-220.76"/>
</a>
</g>
</g>
</g>
</svg>
</svg>

<style type='text/css'>
<![CDATA[
[data-mouse-over-selected='false'] { opacity: 0.7; }
[data-mouse-over-selected='true']  { opacity: 1.0; }
]]>
</style>
<script type="application/ecmascript"><![CDATA[
document.addEventListener('DOMContentLoaded', (event) => {
  highlightEdges();
  highlightAdjacentNodes();
});
]]></script>
</svg>
