<?xml version="1.0" encoding="UTF-8" standalone="no"?>
<!DOCTYPE svg PUBLIC "-//W3C//DTD SVG 1.1//EN"
 "http://www.w3.org/Graphics/SVG/1.1/DTD/svg11.dtd">
<!-- Generated by graphviz version 2.43.0 (0)
 -->
<!-- Title: sophia::monte_carlo::models::Node Pages: 1 -->
<!--zoomable 556 -->

<svg id="main" version="1.1" xmlns="http://www.w3.org/2000/svg" xmlns:xlink="http://www.w3.org/1999/xlink" xml:space="preserve" onload="init(evt)">
<style type="text/css"><![CDATA[
.node, .edge {opacity: 0.7;}
.node.selected, .edge.selected {opacity: 1;}
.edge:hover path { stroke: red; }
.edge:hover polygon { stroke: red; fill: red; }
]]></style>

<defs>
  <circle id="rim" cx="0" cy="0" r="7"/>
  <circle id="rim2" cx="0" cy="0" r="3.5"/>
  <g id="zoomPlus">
    <use xlink:href="#rim" fill="#404040"><set attributeName="fill" to="#808080" begin="zoomplus.mouseover" end="zoomplus.mouseout"/></use>
    <path d="M-4,0h8M0,-4v8" fill="none" stroke="white" stroke-width="1.5" pointer-events="none"/>
  </g>
  <g id="zoomMin">
    <use xlink:href="#rim" fill="#404040"><set attributeName="fill" to="#808080" begin="zoomminus.mouseover" end="zoomminus.mouseout"/></use>
    <path d="M-4,0h8" fill="none" stroke="white" stroke-width="1.5" pointer-events="none"/>
  </g>
  <g id="arrowUp" transform="translate(30 24)">
    <use xlink:href="#rim"/>
    <path pointer-events="none" fill="none" stroke="white" stroke-width="1.5" d="M0,-3.0v7 M-2.5,-0.5L0,-3.0L2.5,-0.5"/>
  </g>
  <g id="arrowRight" transform="rotate(90) translate(36 -43)">
    <use xlink:href="#rim"/>
    <path pointer-events="none" fill="none" stroke="white" stroke-width="1.5" d="M0,-3.0v7 M-2.5,-0.5L0,-3.0L2.5,-0.5"/>
  </g>
  <g id="arrowDown" transform="rotate(180) translate(-30 -48)">
    <use xlink:href="#rim"/>
    <path pointer-events="none" fill="none" stroke="white" stroke-width="1.5" d="M0,-3.0v7 M-2.5,-0.5L0,-3.0L2.5,-0.5"/>
  </g>
  <g id="arrowLeft" transform="rotate(270) translate(-36 17)">
    <use xlink:href="#rim"/>
    <path pointer-events="none" fill="none" stroke="white" stroke-width="1.5" d="M0,-3.0v7 M-2.5,-0.5L0,-3.0L2.5,-0.5"/>
  </g>
  <g id="resetDef">
    <use xlink:href="#rim2" fill="#404040"><set attributeName="fill" to="#808080" begin="reset.mouseover" end="reset.mouseout"/></use>
  </g>
</defs>
<script type="application/ecmascript">
var viewWidth = 151;
var viewHeight = 556;
var sectionId = 'dynsection-0';
</script>
<script type="application/ecmascript" xlink:href="svg.min.js"/>
<svg id="graph" class="graph">
<g id="viewport">
<title>sophia::monte_carlo::models::Node</title>
<!-- Node1 -->
<g id="Node000001" class="node">
<title>Node1</title>
<g id="a_Node000001"><a xlink:title=" ">
<polygon fill="#999999" stroke="transparent" points="143,-452 0,-452 0,-152 143,-152 143,-452"/>
<text text-anchor="start" x="22" y="-440" font-family="Helvetica,sans-Serif" font-size="10.00">sophia::monte_carlo</text>
<text text-anchor="start" x="35" y="-429" font-family="Helvetica,sans-Serif" font-size="10.00">::models::Node</text>
<text text-anchor="start" x="4.5" y="-414" font-family="Helvetica,sans-Serif" font-size="10.00">#</text>
<text text-anchor="start" x="17.5" y="-414" font-family="Helvetica,sans-Serif" font-size="10.00">m_parent_action_</text>
<text text-anchor="start" x="4.5" y="-399" font-family="Helvetica,sans-Serif" font-size="10.00">#</text>
<text text-anchor="start" x="17.5" y="-399" font-family="Helvetica,sans-Serif" font-size="10.00">m_child_action_</text>
<text text-anchor="start" x="4.5" y="-384" font-family="Helvetica,sans-Serif" font-size="10.00">#</text>
<text text-anchor="start" x="17.5" y="-384" font-family="Helvetica,sans-Serif" font-size="10.00">m_visit_count_</text>
<text text-anchor="start" x="4.5" y="-369" font-family="Helvetica,sans-Serif" font-size="10.00">#</text>
<text text-anchor="start" x="17.5" y="-369" font-family="Helvetica,sans-Serif" font-size="10.00">m_total_reward_</text>
<text text-anchor="start" x="7" y="-354" font-family="Helvetica,sans-Serif" font-size="10.00">&#45;</text>
<text text-anchor="start" x="17.5" y="-354" font-family="Helvetica,sans-Serif" font-size="10.00">m_name_</text>
<text text-anchor="start" x="4.5" y="-339" font-family="Helvetica,sans-Serif" font-size="10.00">+</text>
<text text-anchor="start" x="17.5" y="-339" font-family="Helvetica,sans-Serif" font-size="10.00">Node()</text>
<text text-anchor="start" x="4.5" y="-324" font-family="Helvetica,sans-Serif" font-size="10.00">+</text>
<text text-anchor="start" x="17.5" y="-324" font-family="Helvetica,sans-Serif" font-size="10.00">~Node()</text>
<text text-anchor="start" x="4.5" y="-309" font-family="Helvetica,sans-Serif" font-size="10.00">+</text>
<text text-anchor="start" x="17.5" y="-309" font-family="Helvetica,sans-Serif" font-size="10.00">SetParent()</text>
<text text-anchor="start" x="4.5" y="-294" font-family="Helvetica,sans-Serif" font-size="10.00">+</text>
<text text-anchor="start" x="17.5" y="-294" font-family="Helvetica,sans-Serif" font-size="10.00">SelectBestAction()</text>
<text text-anchor="start" x="4.5" y="-279" font-family="Helvetica,sans-Serif" font-size="10.00">+</text>
<text text-anchor="start" x="17.5" y="-279" font-family="Helvetica,sans-Serif" font-size="10.00">Expand()</text>
<text text-anchor="start" x="4.5" y="-264" font-family="Helvetica,sans-Serif" font-size="10.00">+</text>
<text text-anchor="start" x="17.5" y="-264" font-family="Helvetica,sans-Serif" font-size="10.00">Rollout()</text>
<text text-anchor="start" x="4.5" y="-249" font-family="Helvetica,sans-Serif" font-size="10.00">+</text>
<text text-anchor="start" x="17.5" y="-249" font-family="Helvetica,sans-Serif" font-size="10.00">Backpropagate()</text>
<text text-anchor="start" x="4.5" y="-234" font-family="Helvetica,sans-Serif" font-size="10.00">+</text>
<text text-anchor="start" x="17.5" y="-234" font-family="Helvetica,sans-Serif" font-size="10.00">Name()</text>
<text text-anchor="start" x="4.5" y="-219" font-family="Helvetica,sans-Serif" font-size="10.00">+</text>
<text text-anchor="start" x="17.5" y="-219" font-family="Helvetica,sans-Serif" font-size="10.00">UpperConfidenceBound()</text>
<text text-anchor="start" x="4.5" y="-204" font-family="Helvetica,sans-Serif" font-size="10.00">+</text>
<text text-anchor="start" x="17.5" y="-204" font-family="Helvetica,sans-Serif" font-size="10.00">IsLeafNode()</text>
<text text-anchor="start" x="17.5" y="-189" font-family="Helvetica,sans-Serif" font-size="10.00">and 8 more...</text>
<text text-anchor="start" x="4.5" y="-174" font-family="Helvetica,sans-Serif" font-size="10.00">#</text>
<text text-anchor="start" x="17.5" y="-174" font-family="Helvetica,sans-Serif" font-size="10.00">GetAvailableActions()</text>
<text text-anchor="start" x="4.5" y="-159" font-family="Helvetica,sans-Serif" font-size="10.00">#</text>
<text text-anchor="start" x="17.5" y="-159" font-family="Helvetica,sans-Serif" font-size="10.00">RolloutStrategy()</text>
<polygon fill="#666666" stroke="#666666" points="0.5,-424 0.5,-424 143.5,-424 143.5,-424 0.5,-424"/>
<polygon fill="#666666" stroke="#666666" points="0.5,-349 0.5,-349 15.5,-349 15.5,-349 0.5,-349"/>
<polygon fill="#666666" stroke="#666666" points="15.5,-349 15.5,-349 143.5,-349 143.5,-349 15.5,-349"/>
<polygon fill="none" stroke="#666666" points="0,-152 0,-452 143,-452 143,-152 0,-152"/>
</a>
</g>
</g>
<!-- Node3 -->
<g id="Node000003" class="node">
<title>Node3</title>
<g id="a_Node000003"><a xlink:href="classsophia_1_1monte__carlo_1_1models_1_1NodeBase.html" target="_top" xlink:title=" ">
<polygon fill="white" stroke="transparent" points="129.5,-116 13.5,-116 13.5,0 129.5,0 129.5,-116"/>
<text text-anchor="start" x="18.5" y="-104" font-family="Helvetica,sans-Serif" font-size="10.00">sophia::monte_carlo</text>
<text text-anchor="start" x="18.5" y="-93" font-family="Helvetica,sans-Serif" font-size="10.00">::models::NodeBase&lt;</text>
<text text-anchor="start" x="24.5" y="-82" font-family="Helvetica,sans-Serif" font-size="10.00"> TState, TChange &gt;</text>
<text text-anchor="start" x="20" y="-67" font-family="Helvetica,sans-Serif" font-size="10.00">#</text>
<text text-anchor="start" x="35.5" y="-67" font-family="Helvetica,sans-Serif" font-size="10.00">m_factory_</text>
<text text-anchor="start" x="20" y="-52" font-family="Helvetica,sans-Serif" font-size="10.00">#</text>
<text text-anchor="start" x="35.5" y="-52" font-family="Helvetica,sans-Serif" font-size="10.00">m_state_</text>
<text text-anchor="start" x="20" y="-37" font-family="Helvetica,sans-Serif" font-size="10.00">+</text>
<text text-anchor="start" x="35.5" y="-37" font-family="Helvetica,sans-Serif" font-size="10.00">NodeBase()</text>
<text text-anchor="start" x="20" y="-22" font-family="Helvetica,sans-Serif" font-size="10.00">+</text>
<text text-anchor="start" x="35.5" y="-22" font-family="Helvetica,sans-Serif" font-size="10.00">GetState()</text>
<text text-anchor="start" x="20" y="-7" font-family="Helvetica,sans-Serif" font-size="10.00">#</text>
<text text-anchor="start" x="35.5" y="-7" font-family="Helvetica,sans-Serif" font-size="10.00">RolloutStrategy()</text>
<polygon fill="#666666" stroke="#666666" points="13.5,-77 13.5,-77 129.5,-77 129.5,-77 13.5,-77"/>
<polygon fill="#666666" stroke="#666666" points="13.5,-47 13.5,-47 33.5,-47 33.5,-47 13.5,-47"/>
<polygon fill="#666666" stroke="#666666" points="33.5,-47 33.5,-47 129.5,-47 129.5,-47 33.5,-47"/>
<polygon fill="none" stroke="#666666" points="13.5,0 13.5,-116 129.5,-116 129.5,0 13.5,0"/>
</a>
</g>
</g>
<!-- Node1&#45;&gt;Node3 -->
<g id="edge2_Node000001_Node000003" class="edge">
<title>Node1&#45;&gt;Node3</title>
<g id="a_edge2_Node000001_Node000003"><a xlink:title=" ">
<path fill="none" stroke="#63b8ff" d="M71.5,-141.69C71.5,-132.77 71.5,-124.17 71.5,-116.09"/>
<polygon fill="none" stroke="#63b8ff" points="68,-141.87 71.5,-151.87 75,-141.87 68,-141.87"/>
</a>
</g>
</g>
<!-- Node2 -->
<g id="Node000002" class="node">
<title>Node2</title>
<g id="a_Node000002"><a xlink:title=" ">
<polygon fill="white" stroke="transparent" points="126.5,-548 16.5,-548 16.5,-488 126.5,-488 126.5,-548"/>
<text text-anchor="start" x="21.5" y="-536" font-family="Helvetica,sans-Serif" font-size="10.00">std::enable_shared</text>
<text text-anchor="start" x="21.5" y="-525" font-family="Helvetica,sans-Serif" font-size="10.00">_from_this&lt; Node &gt;</text>
<text text-anchor="start" x="69.5" y="-510" font-family="Helvetica,sans-Serif" font-size="10.00"> </text>
<text text-anchor="start" x="69.5" y="-495" font-family="Helvetica,sans-Serif" font-size="10.00"> </text>
<polygon fill="#666666" stroke="#666666" points="16.5,-520 16.5,-520 126.5,-520 126.5,-520 16.5,-520"/>
<polygon fill="#666666" stroke="#666666" points="16.5,-505 16.5,-505 126.5,-505 126.5,-505 16.5,-505"/>
<polygon fill="none" stroke="#666666" points="16.5,-488 16.5,-548 126.5,-548 126.5,-488 16.5,-488"/>
</a>
</g>
</g>
<!-- Node2&#45;&gt;Node1 -->
<g id="edge1_Node000001_Node000002" class="edge">
<title>Node2&#45;&gt;Node1</title>
<g id="a_edge1_Node000001_Node000002"><a xlink:title=" ">
<path fill="none" stroke="#63b8ff" d="M71.5,-477.58C71.5,-469.76 71.5,-461.14 71.5,-452.03"/>
<polygon fill="none" stroke="#63b8ff" points="68,-477.69 71.5,-487.69 75,-477.69 68,-477.69"/>
</a>
</g>
</g>
</g>
</svg>

<g id="navigator" transform="translate(0 0)" fill="#404254">
  <rect fill="#f2f5e9" fill-opacity="0.5" stroke="#606060" stroke-width=".5" x="0" y="0" width="60" height="60"/>
  <use id="zoomplus" xlink:href="#zoomPlus" x="17" y="9" onmousedown="handleZoom(evt,'in')"/>
  <use id="zoomminus" xlink:href="#zoomMin" x="42" y="9" onmousedown="handleZoom(evt,'out')"/>
  <use id="reset" xlink:href="#resetDef" x="30" y="36" onmousedown="handleReset()"/>
   <use id="arrowup" xlink:href="#arrowUp" x="0" y="0" onmousedown="handlePan(0,-1)"/>
  <use id="arrowright" xlink:href="#arrowRight" x="0" y="0" onmousedown="handlePan(1,0)"/>
  <use id="arrowdown" xlink:href="#arrowDown" x="0" y="0" onmousedown="handlePan(0,1)"/>
  <use id="arrowleft" xlink:href="#arrowLeft" x="0" y="0" onmousedown="handlePan(-1,0)"/>
</g>
<svg viewBox="0 0 15 15" width="100%" height="30px" preserveAspectRatio="xMaxYMin meet">
 <g id="arrow_out" transform="scale(0.3 0.3)">
  <a xlink:href="classsophia_1_1monte__carlo_1_1models_1_1Node__inherit__graph_org.svg" target="_base">
   <rect id="button" ry="5" rx="5" y="6" x="6" height="38" width="38"
        fill="#f2f5e9" fill-opacity="0.5" stroke="#606060" stroke-width="1.0"/>
   <path id="arrow"
     d="M 11.500037,31.436501 C 11.940474,20.09759 22.043105,11.32322 32.158766,21.979434 L 37.068811,17.246167 C 37.068811,17.246167 37.088388,32 37.088388,32 L 22.160133,31.978069 C 22.160133,31.978069 26.997745,27.140456 26.997745,27.140456 C 18.528582,18.264221 13.291696,25.230495 11.500037,31.436501 z"
     style="fill:#404040;"/>
  </a>
 </g>
</svg>

<style type='text/css'>
<![CDATA[
[data-mouse-over-selected='false'] { opacity: 0.7; }
[data-mouse-over-selected='true']  { opacity: 1.0; }
]]>
</style>
<script type="application/ecmascript"><![CDATA[
document.addEventListener('DOMContentLoaded', (event) => {
  highlightEdges();
  highlightAdjacentNodes();
});
]]></script>
</svg>
