<?xml version="1.0" encoding="UTF-8" standalone="no"?>
<!DOCTYPE svg PUBLIC "-//W3C//DTD SVG 1.1//EN"
 "http://www.w3.org/Graphics/SVG/1.1/DTD/svg11.dtd">
<!-- Generated by graphviz version 2.43.0 (0)
 -->
<!-- Title: sophia::monte_carlo::tic_tac_toe::models::Human Pages: 1 -->
<svg width="262pt" height="383pt"
 viewBox="0.00 0.00 261.50 383.00" xmlns="http://www.w3.org/2000/svg" xmlns:xlink="http://www.w3.org/1999/xlink">
<g id="graph0" class="graph" transform="scale(1 1) rotate(0) translate(4 379)">
<title>sophia::monte_carlo::tic_tac_toe::models::Human</title>
<!-- Node1 -->
<g id="Node000001" class="node">
<title>Node1</title>
<g id="a_Node000001"><a xlink:title="A human Tic Tac Toe Player.">
<polygon fill="#999999" stroke="transparent" points="182,-101 70,-101 70,0 182,0 182,-101"/>
<text text-anchor="start" x="75" y="-88.5" font-family="Helvetica,sans-Serif" font-size="10.00">sophia::monte_carlo</text>
<text text-anchor="start" x="75" y="-77.5" font-family="Helvetica,sans-Serif" font-size="10.00">::tic_tac_toe::models</text>
<text text-anchor="start" x="105" y="-66.5" font-family="Helvetica,sans-Serif" font-size="10.00">::Human</text>
<text text-anchor="start" x="124" y="-51.5" font-family="Helvetica,sans-Serif" font-size="10.00"> </text>
<text text-anchor="start" x="82" y="-36.5" font-family="Helvetica,sans-Serif" font-size="10.00">+</text>
<text text-anchor="start" x="103" y="-36.5" font-family="Helvetica,sans-Serif" font-size="10.00">Human()</text>
<text text-anchor="start" x="82" y="-21.5" font-family="Helvetica,sans-Serif" font-size="10.00">+</text>
<text text-anchor="start" x="103" y="-21.5" font-family="Helvetica,sans-Serif" font-size="10.00">NextMove()</text>
<text text-anchor="start" x="82" y="-6.5" font-family="Helvetica,sans-Serif" font-size="10.00">+</text>
<text text-anchor="start" x="103" y="-6.5" font-family="Helvetica,sans-Serif" font-size="10.00">Update()</text>
<polygon fill="#666666" stroke="#666666" points="70,-61.5 70,-61.5 182,-61.5 182,-61.5 70,-61.5"/>
<polygon fill="#666666" stroke="#666666" points="70,-46.5 70,-46.5 182,-46.5 182,-46.5 70,-46.5"/>
<polygon fill="none" stroke="#666666" points="70,0 70,-101 182,-101 182,0 70,0"/>
</a>
</g>
</g>
<!-- Node2 -->
<g id="Node000002" class="node">
<title>Node2</title>
<g id="a_Node000002"><a xlink:href="classsophia_1_1monte__carlo_1_1tic__tac__toe_1_1models_1_1Player.html" target="_top" xlink:title="A Player in a Tic Tac Toe Game.">
<polygon fill="white" stroke="transparent" points="183,-268 69,-268 69,-137 183,-137 183,-268"/>
<text text-anchor="start" x="75" y="-255.5" font-family="Helvetica,sans-Serif" font-size="10.00">sophia::monte_carlo</text>
<text text-anchor="start" x="75" y="-244.5" font-family="Helvetica,sans-Serif" font-size="10.00">::tic_tac_toe::models</text>
<text text-anchor="start" x="107.5" y="-233.5" font-family="Helvetica,sans-Serif" font-size="10.00">::Player</text>
<text text-anchor="start" x="73" y="-218.5" font-family="Helvetica,sans-Serif" font-size="10.00">#</text>
<text text-anchor="start" x="86" y="-218.5" font-family="Helvetica,sans-Serif" font-size="10.00">m_player_symbol_</text>
<text text-anchor="start" x="73" y="-203.5" font-family="Helvetica,sans-Serif" font-size="10.00">+</text>
<text text-anchor="start" x="86" y="-203.5" font-family="Helvetica,sans-Serif" font-size="10.00">Player()</text>
<text text-anchor="start" x="73" y="-188.5" font-family="Helvetica,sans-Serif" font-size="10.00">+</text>
<text text-anchor="start" x="86" y="-188.5" font-family="Helvetica,sans-Serif" font-size="10.00">~Player()</text>
<text text-anchor="start" x="73" y="-173.5" font-family="Helvetica,sans-Serif" font-size="10.00">+</text>
<text text-anchor="start" x="86" y="-173.5" font-family="Helvetica,sans-Serif" font-size="10.00">symbol()</text>
<text text-anchor="start" x="73" y="-158.5" font-family="Helvetica,sans-Serif" font-size="10.00">+</text>
<text text-anchor="start" x="86" y="-158.5" font-family="Helvetica,sans-Serif" font-size="10.00">NextMove()</text>
<text text-anchor="start" x="73" y="-143.5" font-family="Helvetica,sans-Serif" font-size="10.00">+</text>
<text text-anchor="start" x="86" y="-143.5" font-family="Helvetica,sans-Serif" font-size="10.00">Value()</text>
<polygon fill="#666666" stroke="#666666" points="69,-228.5 69,-228.5 183,-228.5 183,-228.5 69,-228.5"/>
<polygon fill="#666666" stroke="#666666" points="69,-213.5 69,-213.5 84,-213.5 84,-213.5 69,-213.5"/>
<polygon fill="#666666" stroke="#666666" points="84,-213.5 84,-213.5 183,-213.5 183,-213.5 84,-213.5"/>
<polygon fill="none" stroke="#666666" points="69,-137 69,-268 183,-268 183,-137 69,-137"/>
</a>
</g>
</g>
<!-- Node2&#45;&gt;Node1 -->
<g id="edge1_Node000001_Node000002" class="edge">
<title>Node2&#45;&gt;Node1</title>
<g id="a_edge1_Node000001_Node000002"><a xlink:title=" ">
<path fill="none" stroke="#63b8ff" d="M126,-126.5C126,-117.9 126,-109.29 126,-101.14"/>
<polygon fill="none" stroke="#63b8ff" points="122.5,-126.58 126,-136.58 129.5,-126.58 122.5,-126.58"/>
</a>
</g>
</g>
<!-- Node3 -->
<g id="Node000003" class="node">
<title>Node3</title>
<g id="a_Node000003"><a xlink:title=" ">
<polygon fill="white" stroke="transparent" points="116,-369.5 0,-369.5 0,-309.5 116,-309.5 116,-369.5"/>
<text text-anchor="start" x="5" y="-357.5" font-family="Helvetica,sans-Serif" font-size="10.00">std::enable_shared</text>
<text text-anchor="start" x="5" y="-346.5" font-family="Helvetica,sans-Serif" font-size="10.00">_from_this&lt; Player &gt;</text>
<text text-anchor="start" x="56" y="-331.5" font-family="Helvetica,sans-Serif" font-size="10.00"> </text>
<text text-anchor="start" x="56" y="-316.5" font-family="Helvetica,sans-Serif" font-size="10.00"> </text>
<polygon fill="#666666" stroke="#666666" points="0,-341.5 0,-341.5 116,-341.5 116,-341.5 0,-341.5"/>
<polygon fill="#666666" stroke="#666666" points="0,-326.5 0,-326.5 116,-326.5 116,-326.5 0,-326.5"/>
<polygon fill="none" stroke="#666666" points="0,-309.5 0,-369.5 116,-369.5 116,-309.5 0,-309.5"/>
</a>
</g>
</g>
<!-- Node3&#45;&gt;Node2 -->
<g id="edge2_Node000002_Node000003" class="edge">
<title>Node3&#45;&gt;Node2</title>
<g id="a_edge2_Node000002_Node000003"><a xlink:title=" ">
<path fill="none" stroke="#63b8ff" d="M77.38,-300.02C82.39,-290.08 87.92,-279.09 93.41,-268.2"/>
<polygon fill="none" stroke="#63b8ff" points="74.13,-298.7 72.75,-309.21 80.38,-301.85 74.13,-298.7"/>
</a>
</g>
</g>
<!-- Node4 -->
<g id="Node000004" class="node">
<title>Node4</title>
<g id="a_Node000004"><a xlink:href="classsophia_1_1monte__carlo_1_1tic__tac__toe_1_1observer_1_1Observer.html" target="_top" xlink:title="The Observer in an Observer pattern.">
<polygon fill="white" stroke="transparent" points="253.5,-375 134.5,-375 134.5,-304 253.5,-304 253.5,-375"/>
<text text-anchor="start" x="140" y="-362.5" font-family="Helvetica,sans-Serif" font-size="10.00">sophia::monte_carlo</text>
<text text-anchor="start" x="140" y="-351.5" font-family="Helvetica,sans-Serif" font-size="10.00">::tic_tac_toe::observer</text>
<text text-anchor="start" x="169" y="-340.5" font-family="Helvetica,sans-Serif" font-size="10.00">::Observer</text>
<text text-anchor="start" x="192.5" y="-325.5" font-family="Helvetica,sans-Serif" font-size="10.00"> </text>
<text text-anchor="start" x="152.5" y="-310.5" font-family="Helvetica,sans-Serif" font-size="10.00">+</text>
<text text-anchor="start" x="179" y="-310.5" font-family="Helvetica,sans-Serif" font-size="10.00">Update()</text>
<polygon fill="#666666" stroke="#666666" points="135,-335.5 135,-335.5 254,-335.5 254,-335.5 135,-335.5"/>
<polygon fill="#666666" stroke="#666666" points="135,-320.5 135,-320.5 254,-320.5 254,-320.5 135,-320.5"/>
<polygon fill="none" stroke="#666666" points="134.5,-304 134.5,-375 253.5,-375 253.5,-304 134.5,-304"/>
</a>
</g>
</g>
<!-- Node4&#45;&gt;Node2 -->
<g id="edge3_Node000002_Node000004" class="edge">
<title>Node4&#45;&gt;Node2</title>
<g id="a_edge3_Node000002_Node000004"><a xlink:title=" ">
<path fill="none" stroke="#63b8ff" d="M171.95,-294.73C167.65,-286.19 163.06,-277.07 158.5,-268.03"/>
<polygon fill="none" stroke="#63b8ff" points="168.86,-296.38 176.49,-303.73 175.12,-293.23 168.86,-296.38"/>
</a>
</g>
</g>
</g>
</svg>
