<?xml version="1.0" encoding="UTF-8" standalone="no"?>
<!DOCTYPE svg PUBLIC "-//W3C//DTD SVG 1.1//EN"
 "http://www.w3.org/Graphics/SVG/1.1/DTD/svg11.dtd">
<!-- Generated by graphviz version 2.43.0 (0)
 -->
<!-- Title: sophia::monte_carlo::tic_tac_toe::models::Board::WithMove Pages: 1 -->
<svg width="442pt" height="108pt"
 viewBox="0.00 0.00 442.00 108.00" xmlns="http://www.w3.org/2000/svg" xmlns:xlink="http://www.w3.org/1999/xlink">
<g id="graph0" class="graph" transform="scale(1 1) rotate(0) translate(4 104)">
<title>sophia::monte_carlo::tic_tac_toe::models::Board::WithMove</title>
<!-- Node1 -->
<g id="Node000001" class="node">
<title>Node1</title>
<g id="a_Node000001"><a xlink:title="Creates a copy of the board with the given move applied.">
<polygon fill="#999999" stroke="#666666" points="118,-70 0,-70 0,-29 118,-29 118,-70"/>
<text text-anchor="start" x="8" y="-58" font-family="Helvetica,sans-Serif" font-size="10.00">sophia::monte_carlo</text>
<text text-anchor="start" x="8" y="-47" font-family="Helvetica,sans-Serif" font-size="10.00">::tic_tac_toe::models</text>
<text text-anchor="middle" x="59" y="-36" font-family="Helvetica,sans-Serif" font-size="10.00">::Board::WithMove</text>
</a>
</g>
</g>
<!-- Node2 -->
<g id="Node000002" class="node">
<title>Node2</title>
<g id="a_Node000002"><a xlink:href="classsophia_1_1monte__carlo_1_1tic__tac__toe_1_1models_1_1Board.html#a96c3c35f4cb92fe134ab6fcfe302279d" target="_top" xlink:title="Set a position.">
<polygon fill="white" stroke="#666666" points="272,-70 154,-70 154,-29 272,-29 272,-70"/>
<text text-anchor="start" x="162" y="-58" font-family="Helvetica,sans-Serif" font-size="10.00">sophia::monte_carlo</text>
<text text-anchor="start" x="162" y="-47" font-family="Helvetica,sans-Serif" font-size="10.00">::tic_tac_toe::models</text>
<text text-anchor="middle" x="213" y="-36" font-family="Helvetica,sans-Serif" font-size="10.00">::Board::SetPosition</text>
</a>
</g>
</g>
<!-- Node1&#45;&gt;Node2 -->
<g id="edge1_Node000001_Node000002" class="edge">
<title>Node1&#45;&gt;Node2</title>
<g id="a_edge1_Node000001_Node000002"><a xlink:title=" ">
<path fill="none" stroke="#63b8ff" d="M118.33,-49.5C126.61,-49.5 135.17,-49.5 143.62,-49.5"/>
<polygon fill="#63b8ff" stroke="#63b8ff" points="143.82,-53 153.82,-49.5 143.82,-46 143.82,-53"/>
</a>
</g>
</g>
<!-- Node3 -->
<g id="Node000003" class="node">
<title>Node3</title>
<g id="a_Node000003"><a xlink:href="classsophia_1_1monte__carlo_1_1tic__tac__toe_1_1models_1_1Position.html#a782a06b17216cd642969ef7c62fc6c88" target="_top" xlink:title=" ">
<polygon fill="white" stroke="#666666" points="434,-100 308,-100 308,-59 434,-59 434,-100"/>
<text text-anchor="start" x="316" y="-88" font-family="Helvetica,sans-Serif" font-size="10.00">sophia::monte_carlo</text>
<text text-anchor="start" x="316" y="-77" font-family="Helvetica,sans-Serif" font-size="10.00">::tic_tac_toe::models</text>
<text text-anchor="middle" x="371" y="-66" font-family="Helvetica,sans-Serif" font-size="10.00">::Position::Coordinates</text>
</a>
</g>
</g>
<!-- Node2&#45;&gt;Node3 -->
<g id="edge2_Node000002_Node000003" class="edge">
<title>Node2&#45;&gt;Node3</title>
<g id="a_edge2_Node000002_Node000003"><a xlink:title=" ">
<path fill="none" stroke="#63b8ff" d="M272.09,-60.67C280.49,-62.29 289.23,-63.97 297.87,-65.63"/>
<polygon fill="#63b8ff" stroke="#63b8ff" points="297.46,-69.11 307.94,-67.57 298.78,-62.24 297.46,-69.11"/>
</a>
</g>
</g>
<!-- Node4 -->
<g id="Node000004" class="node">
<title>Node4</title>
<g id="a_Node000004"><a xlink:href="classsophia_1_1monte__carlo_1_1tic__tac__toe_1_1models_1_1Position.html#a996a0a412a8dd6a0700fcffba6b1de70" target="_top" xlink:title=" ">
<polygon fill="white" stroke="#666666" points="430,-41 312,-41 312,0 430,0 430,-41"/>
<text text-anchor="start" x="320" y="-29" font-family="Helvetica,sans-Serif" font-size="10.00">sophia::monte_carlo</text>
<text text-anchor="start" x="320" y="-18" font-family="Helvetica,sans-Serif" font-size="10.00">::tic_tac_toe::models</text>
<text text-anchor="middle" x="371" y="-7" font-family="Helvetica,sans-Serif" font-size="10.00">::Position::State</text>
</a>
</g>
</g>
<!-- Node2&#45;&gt;Node4 -->
<g id="edge3_Node000002_Node000004" class="edge">
<title>Node2&#45;&gt;Node4</title>
<g id="a_edge3_Node000002_Node000004"><a xlink:title=" ">
<path fill="none" stroke="#63b8ff" d="M272.09,-38.7C281.83,-36.89 292.02,-35 301.99,-33.14"/>
<polygon fill="#63b8ff" stroke="#63b8ff" points="302.67,-36.58 311.86,-31.31 301.39,-29.69 302.67,-36.58"/>
</a>
</g>
</g>
</g>
</svg>
