<?xml version="1.0" encoding="UTF-8" standalone="no"?>
<!DOCTYPE svg PUBLIC "-//W3C//DTD SVG 1.1//EN"
 "http://www.w3.org/Graphics/SVG/1.1/DTD/svg11.dtd">
<!-- Generated by graphviz version 2.43.0 (0)
 -->
<!-- Title: sophia::monte_carlo::models::NodeBase&lt; TState, TChange &gt; Pages: 1 -->
<svg width="198pt" height="553pt"
 viewBox="0.00 0.00 198.00 553.00" xmlns="http://www.w3.org/2000/svg" xmlns:xlink="http://www.w3.org/1999/xlink">
<g id="graph0" class="graph" transform="scale(1 1) rotate(0) translate(4 549)">
<title>sophia::monte_carlo::models::NodeBase&lt; TState, TChange &gt;</title>
<!-- Node1 -->
<g id="Node000001" class="node">
<title>Node1</title>
<g id="a_Node000001"><a xlink:title=" ">
<polygon fill="#999999" stroke="transparent" points="159,-116 43,-116 43,0 159,0 159,-116"/>
<text text-anchor="start" x="48" y="-104" font-family="Helvetica,sans-Serif" font-size="10.00">sophia::monte_carlo</text>
<text text-anchor="start" x="48" y="-93" font-family="Helvetica,sans-Serif" font-size="10.00">::models::NodeBase&lt;</text>
<text text-anchor="start" x="54" y="-82" font-family="Helvetica,sans-Serif" font-size="10.00"> TState, TChange &gt;</text>
<text text-anchor="start" x="49.5" y="-67" font-family="Helvetica,sans-Serif" font-size="10.00">#</text>
<text text-anchor="start" x="65" y="-67" font-family="Helvetica,sans-Serif" font-size="10.00">m_factory_</text>
<text text-anchor="start" x="49.5" y="-52" font-family="Helvetica,sans-Serif" font-size="10.00">#</text>
<text text-anchor="start" x="65" y="-52" font-family="Helvetica,sans-Serif" font-size="10.00">m_state_</text>
<text text-anchor="start" x="49.5" y="-37" font-family="Helvetica,sans-Serif" font-size="10.00">+</text>
<text text-anchor="start" x="65" y="-37" font-family="Helvetica,sans-Serif" font-size="10.00">NodeBase()</text>
<text text-anchor="start" x="49.5" y="-22" font-family="Helvetica,sans-Serif" font-size="10.00">+</text>
<text text-anchor="start" x="65" y="-22" font-family="Helvetica,sans-Serif" font-size="10.00">GetState()</text>
<text text-anchor="start" x="49.5" y="-7" font-family="Helvetica,sans-Serif" font-size="10.00">#</text>
<text text-anchor="start" x="65" y="-7" font-family="Helvetica,sans-Serif" font-size="10.00">RolloutStrategy()</text>
<polygon fill="#666666" stroke="#666666" points="43,-77 43,-77 159,-77 159,-77 43,-77"/>
<polygon fill="#666666" stroke="#666666" points="43,-47 43,-47 63,-47 63,-47 43,-47"/>
<polygon fill="#666666" stroke="#666666" points="63,-47 63,-47 159,-47 159,-47 63,-47"/>
<polygon fill="none" stroke="#666666" points="43,0 43,-116 159,-116 159,0 43,0"/>
</a>
</g>
</g>
<!-- Node2 -->
<g id="Node000002" class="node">
<title>Node2</title>
<g id="a_Node000002"><a xlink:href="classsophia_1_1monte__carlo_1_1models_1_1Node.html" target="_top" xlink:title=" ">
<polygon fill="white" stroke="transparent" points="172.5,-438 29.5,-438 29.5,-153 172.5,-153 172.5,-438"/>
<text text-anchor="start" x="51.5" y="-425.5" font-family="Helvetica,sans-Serif" font-size="10.00">sophia::monte_carlo</text>
<text text-anchor="start" x="64.5" y="-414.5" font-family="Helvetica,sans-Serif" font-size="10.00">::models::Node</text>
<text text-anchor="start" x="34" y="-399.5" font-family="Helvetica,sans-Serif" font-size="10.00">#</text>
<text text-anchor="start" x="47" y="-399.5" font-family="Helvetica,sans-Serif" font-size="10.00">m_parent_action_</text>
<text text-anchor="start" x="34" y="-384.5" font-family="Helvetica,sans-Serif" font-size="10.00">#</text>
<text text-anchor="start" x="47" y="-384.5" font-family="Helvetica,sans-Serif" font-size="10.00">m_child_action_</text>
<text text-anchor="start" x="34" y="-369.5" font-family="Helvetica,sans-Serif" font-size="10.00">#</text>
<text text-anchor="start" x="47" y="-369.5" font-family="Helvetica,sans-Serif" font-size="10.00">m_visit_count_</text>
<text text-anchor="start" x="34" y="-354.5" font-family="Helvetica,sans-Serif" font-size="10.00">#</text>
<text text-anchor="start" x="47" y="-354.5" font-family="Helvetica,sans-Serif" font-size="10.00">m_total_reward_</text>
<text text-anchor="start" x="34" y="-339.5" font-family="Helvetica,sans-Serif" font-size="10.00">+</text>
<text text-anchor="start" x="47" y="-339.5" font-family="Helvetica,sans-Serif" font-size="10.00">Node()</text>
<text text-anchor="start" x="34" y="-324.5" font-family="Helvetica,sans-Serif" font-size="10.00">+</text>
<text text-anchor="start" x="47" y="-324.5" font-family="Helvetica,sans-Serif" font-size="10.00">~Node()</text>
<text text-anchor="start" x="34" y="-309.5" font-family="Helvetica,sans-Serif" font-size="10.00">+</text>
<text text-anchor="start" x="47" y="-309.5" font-family="Helvetica,sans-Serif" font-size="10.00">SetParent()</text>
<text text-anchor="start" x="34" y="-294.5" font-family="Helvetica,sans-Serif" font-size="10.00">+</text>
<text text-anchor="start" x="47" y="-294.5" font-family="Helvetica,sans-Serif" font-size="10.00">SelectBestAction()</text>
<text text-anchor="start" x="34" y="-279.5" font-family="Helvetica,sans-Serif" font-size="10.00">+</text>
<text text-anchor="start" x="47" y="-279.5" font-family="Helvetica,sans-Serif" font-size="10.00">Expand()</text>
<text text-anchor="start" x="34" y="-264.5" font-family="Helvetica,sans-Serif" font-size="10.00">+</text>
<text text-anchor="start" x="47" y="-264.5" font-family="Helvetica,sans-Serif" font-size="10.00">Rollout()</text>
<text text-anchor="start" x="34" y="-249.5" font-family="Helvetica,sans-Serif" font-size="10.00">+</text>
<text text-anchor="start" x="47" y="-249.5" font-family="Helvetica,sans-Serif" font-size="10.00">Backpropagate()</text>
<text text-anchor="start" x="34" y="-234.5" font-family="Helvetica,sans-Serif" font-size="10.00">+</text>
<text text-anchor="start" x="47" y="-234.5" font-family="Helvetica,sans-Serif" font-size="10.00">Name()</text>
<text text-anchor="start" x="34" y="-219.5" font-family="Helvetica,sans-Serif" font-size="10.00">+</text>
<text text-anchor="start" x="47" y="-219.5" font-family="Helvetica,sans-Serif" font-size="10.00">UpperConfidenceBound()</text>
<text text-anchor="start" x="34" y="-204.5" font-family="Helvetica,sans-Serif" font-size="10.00">+</text>
<text text-anchor="start" x="47" y="-204.5" font-family="Helvetica,sans-Serif" font-size="10.00">IsLeafNode()</text>
<text text-anchor="start" x="47" y="-189.5" font-family="Helvetica,sans-Serif" font-size="10.00">and 8 more...</text>
<text text-anchor="start" x="34" y="-174.5" font-family="Helvetica,sans-Serif" font-size="10.00">#</text>
<text text-anchor="start" x="47" y="-174.5" font-family="Helvetica,sans-Serif" font-size="10.00">GetAvailableActions()</text>
<text text-anchor="start" x="34" y="-159.5" font-family="Helvetica,sans-Serif" font-size="10.00">#</text>
<text text-anchor="start" x="47" y="-159.5" font-family="Helvetica,sans-Serif" font-size="10.00">RolloutStrategy()</text>
<polygon fill="#666666" stroke="#666666" points="30,-409.5 30,-409.5 173,-409.5 173,-409.5 30,-409.5"/>
<polygon fill="#666666" stroke="#666666" points="30,-349.5 30,-349.5 45,-349.5 45,-349.5 30,-349.5"/>
<polygon fill="#666666" stroke="#666666" points="45,-349.5 45,-349.5 173,-349.5 173,-349.5 45,-349.5"/>
<polygon fill="none" stroke="#666666" points="29.5,-153 29.5,-438 172.5,-438 172.5,-153 29.5,-153"/>
</a>
</g>
</g>
<!-- Node2&#45;&gt;Node1 -->
<g id="edge1_Node000001_Node000002" class="edge">
<title>Node2&#45;&gt;Node1</title>
<g id="a_edge1_Node000001_Node000002"><a xlink:title=" ">
<path fill="none" stroke="#63b8ff" d="M101,-142.6C101,-133.35 101,-124.4 101,-116.02"/>
<polygon fill="none" stroke="#63b8ff" points="97.5,-142.75 101,-152.75 104.5,-142.75 97.5,-142.75"/>
</a>
</g>
</g>
<!-- Node3 -->
<g id="Node000003" class="node">
<title>Node3</title>
<g id="a_Node000003"><a xlink:title=" ">
<polygon fill="white" stroke="transparent" points="110,-545 0,-545 0,-485 110,-485 110,-545"/>
<text text-anchor="start" x="5" y="-533" font-family="Helvetica,sans-Serif" font-size="10.00">std::enable_shared</text>
<text text-anchor="start" x="5" y="-522" font-family="Helvetica,sans-Serif" font-size="10.00">_from_this&lt; Node &gt;</text>
<text text-anchor="start" x="53" y="-507" font-family="Helvetica,sans-Serif" font-size="10.00"> </text>
<text text-anchor="start" x="53" y="-492" font-family="Helvetica,sans-Serif" font-size="10.00"> </text>
<polygon fill="#666666" stroke="#666666" points="0,-517 0,-517 110,-517 110,-517 0,-517"/>
<polygon fill="#666666" stroke="#666666" points="0,-502 0,-502 110,-502 110,-502 0,-502"/>
<polygon fill="none" stroke="#666666" points="0,-485 0,-545 110,-545 110,-485 0,-485"/>
</a>
</g>
</g>
<!-- Node3&#45;&gt;Node2 -->
<g id="edge2_Node000002_Node000003" class="edge">
<title>Node3&#45;&gt;Node2</title>
<g id="a_edge2_Node000002_Node000003"><a xlink:title=" ">
<path fill="none" stroke="#63b8ff" d="M63.3,-474.77C65.59,-463.91 68.23,-451.45 71.01,-438.28"/>
<polygon fill="none" stroke="#63b8ff" points="59.85,-474.16 61.2,-484.67 66.7,-475.61 59.85,-474.16"/>
</a>
</g>
</g>
<!-- Node4 -->
<g id="Node000004" class="node">
<title>Node4</title>
<g id="a_Node000004"><a xlink:title=" ">
<polygon fill="white" stroke="transparent" points="166,-539.5 128,-539.5 128,-490.5 166,-490.5 166,-539.5"/>
<text text-anchor="start" x="133" y="-527" font-family="Helvetica,sans-Serif" font-size="10.00">string</text>
<text text-anchor="start" x="145" y="-512" font-family="Helvetica,sans-Serif" font-size="10.00"> </text>
<text text-anchor="start" x="145" y="-497" font-family="Helvetica,sans-Serif" font-size="10.00"> </text>
<polygon fill="#666666" stroke="#666666" points="128,-522 128,-522 166,-522 166,-522 128,-522"/>
<polygon fill="#666666" stroke="#666666" points="128,-507 128,-507 166,-507 166,-507 128,-507"/>
<polygon fill="none" stroke="#666666" points="128,-490.5 128,-539.5 166,-539.5 166,-490.5 128,-490.5"/>
</a>
</g>
</g>
<!-- Node4&#45;&gt;Node2 -->
<g id="edge3_Node000002_Node000004" class="edge">
<title>Node4&#45;&gt;Node2</title>
<g id="a_edge3_Node000002_Node000004"><a xlink:title=" ">
<path fill="none" stroke="#63b8ff" d="M141.99,-490.31C139.69,-479.43 136.75,-465.53 133.5,-450.18"/>
<polygon fill="none" stroke="#63b8ff" points="133.45,-449.93 128.3,-444.89 130.97,-438.19 136.12,-443.23 133.45,-449.93"/>
</a>
</g>
<text text-anchor="middle" x="162.5" y="-459" font-family="Helvetica,sans-Serif" font-size="10.00" fill="grey"> &#45;m_name_</text>
</g>
</g>
</svg>
