<?xml version="1.0" encoding="UTF-8" standalone="no"?>
<!DOCTYPE svg PUBLIC "-//W3C//DTD SVG 1.1//EN"
 "http://www.w3.org/Graphics/SVG/1.1/DTD/svg11.dtd">
<!-- Generated by graphviz version 2.43.0 (0)
 -->
<!-- Title: sophia::monte_carlo::models::Node::VisitCount Pages: 1 -->
<svg width="590pt" height="157pt"
 viewBox="0.00 0.00 590.00 156.50" xmlns="http://www.w3.org/2000/svg" xmlns:xlink="http://www.w3.org/1999/xlink">
<g id="graph0" class="graph" transform="scale(1 1) rotate(0) translate(4 152.5)">
<title>sophia::monte_carlo::models::Node::VisitCount</title>
<!-- Node1 -->
<g id="Node000001" class="node">
<title>Node1</title>
<g id="a_Node000001"><a xlink:title=" ">
<polygon fill="#999999" stroke="#666666" points="582,-94.5 436,-94.5 436,-64.5 582,-64.5 582,-94.5"/>
<text text-anchor="start" x="444" y="-82.5" font-family="Helvetica,sans-Serif" font-size="10.00">sophia::monte_carlo</text>
<text text-anchor="middle" x="509" y="-71.5" font-family="Helvetica,sans-Serif" font-size="10.00">::models::Node::VisitCount</text>
</a>
</g>
</g>
<!-- Node2 -->
<g id="Node000002" class="node">
<title>Node2</title>
<g id="a_Node000002"><a xlink:href="classsophia_1_1monte__carlo_1_1models_1_1Node.html#a731a6c2e925df83e28eb1cdb117e2351" target="_top" xlink:title=" ">
<polygon fill="white" stroke="#666666" points="400,-100 221,-100 221,-59 400,-59 400,-100"/>
<text text-anchor="start" x="229" y="-88" font-family="Helvetica,sans-Serif" font-size="10.00">sophia::monte_carlo</text>
<text text-anchor="start" x="229" y="-77" font-family="Helvetica,sans-Serif" font-size="10.00">::models::Node::UpperConfidence</text>
<text text-anchor="middle" x="310.5" y="-66" font-family="Helvetica,sans-Serif" font-size="10.00">Bound</text>
</a>
</g>
</g>
<!-- Node1&#45;&gt;Node2 -->
<g id="edge1_Node000001_Node000002" class="edge">
<title>Node1&#45;&gt;Node2</title>
<g id="a_edge1_Node000001_Node000002"><a xlink:title=" ">
<path fill="none" stroke="#63b8ff" d="M425.76,-79.5C417.33,-79.5 408.75,-79.5 400.25,-79.5"/>
<polygon fill="#63b8ff" stroke="#63b8ff" points="425.95,-83 435.95,-79.5 425.95,-76 425.95,-83"/>
</a>
</g>
</g>
<!-- Node3 -->
<g id="Node000003" class="node">
<title>Node3</title>
<g id="a_Node000003"><a xlink:href="classsophia_1_1monte__carlo_1_1models_1_1Node.html#a404072a810c1cf1e201c82e539e0b721" target="_top" xlink:title=" ">
<polygon fill="white" stroke="#666666" points="171,-148.5 14,-148.5 14,-118.5 171,-118.5 171,-148.5"/>
<text text-anchor="start" x="22" y="-136.5" font-family="Helvetica,sans-Serif" font-size="10.00">sophia::monte_carlo</text>
<text text-anchor="middle" x="92.5" y="-125.5" font-family="Helvetica,sans-Serif" font-size="10.00">::models::Node::SelectAction</text>
</a>
</g>
</g>
<!-- Node2&#45;&gt;Node3 -->
<g id="edge2_Node000002_Node000003" class="edge">
<title>Node2&#45;&gt;Node3</title>
<g id="a_edge2_Node000002_Node000003"><a xlink:title=" ">
<path fill="none" stroke="#63b8ff" d="M217.4,-102.53C195.86,-107.91 173.45,-113.51 153.72,-118.45"/>
<polygon fill="#63b8ff" stroke="#63b8ff" points="218.37,-105.89 227.22,-100.07 216.67,-99.1 218.37,-105.89"/>
</a>
</g>
</g>
<!-- Node4 -->
<g id="Node000004" class="node">
<title>Node4</title>
<g id="a_Node000004"><a xlink:href="classsophia_1_1monte__carlo_1_1models_1_1Node.html#a8ce0f76debcad38090914219a5598221" target="_top" xlink:title=" ">
<polygon fill="white" stroke="#666666" points="166.5,-100 18.5,-100 18.5,-59 166.5,-59 166.5,-100"/>
<text text-anchor="start" x="26.5" y="-88" font-family="Helvetica,sans-Serif" font-size="10.00">sophia::monte_carlo</text>
<text text-anchor="start" x="26.5" y="-77" font-family="Helvetica,sans-Serif" font-size="10.00">::models::Node::SelectBest</text>
<text text-anchor="middle" x="92.5" y="-66" font-family="Helvetica,sans-Serif" font-size="10.00">Action</text>
</a>
</g>
</g>
<!-- Node2&#45;&gt;Node4 -->
<g id="edge3_Node000002_Node000004" class="edge">
<title>Node2&#45;&gt;Node4</title>
<g id="a_edge3_Node000002_Node000004"><a xlink:title=" ">
<path fill="none" stroke="#63b8ff" d="M210.57,-79.5C195.84,-79.5 180.89,-79.5 166.82,-79.5"/>
<polygon fill="#63b8ff" stroke="#63b8ff" points="210.71,-83 220.71,-79.5 210.71,-76 210.71,-83"/>
</a>
</g>
</g>
<!-- Node5 -->
<g id="Node000005" class="node">
<title>Node5</title>
<g id="a_Node000005"><a xlink:href="classsophia_1_1monte__carlo_1_1models_1_1Action.html#a227a49dcfd5971ca79b5193ecabf580b" target="_top" xlink:title=" ">
<polygon fill="white" stroke="#666666" points="185,-41 0,-41 0,0 185,0 185,-41"/>
<text text-anchor="start" x="8" y="-29" font-family="Helvetica,sans-Serif" font-size="10.00">sophia::monte_carlo</text>
<text text-anchor="start" x="8" y="-18" font-family="Helvetica,sans-Serif" font-size="10.00">::models::Action::UpperConfidence</text>
<text text-anchor="middle" x="92.5" y="-7" font-family="Helvetica,sans-Serif" font-size="10.00">Bound</text>
</a>
</g>
</g>
<!-- Node2&#45;&gt;Node5 -->
<g id="edge4_Node000002_Node000005" class="edge">
<title>Node2&#45;&gt;Node5</title>
<g id="a_edge4_Node000002_Node000005"><a xlink:title=" ">
<path fill="none" stroke="#63b8ff" d="M224.46,-56.27C206.09,-51.25 186.8,-45.99 168.84,-41.08"/>
<polygon fill="#63b8ff" stroke="#63b8ff" points="223.69,-59.69 234.26,-58.95 225.53,-52.94 223.69,-59.69"/>
</a>
</g>
</g>
</g>
</svg>
