<?xml version="1.0" encoding="UTF-8" standalone="no"?>
<!DOCTYPE svg PUBLIC "-//W3C//DTD SVG 1.1//EN"
 "http://www.w3.org/Graphics/SVG/1.1/DTD/svg11.dtd">
<!-- Generated by graphviz version 2.43.0 (0)
 -->
<!-- Title: sophia::monte_carlo::tic_tac_toe::models::Player Pages: 1 -->
<svg width="262pt" height="246pt"
 viewBox="0.00 0.00 261.50 246.00" xmlns="http://www.w3.org/2000/svg" xmlns:xlink="http://www.w3.org/1999/xlink">

<svg id="main" version="1.1" xmlns="http://www.w3.org/2000/svg" xmlns:xlink="http://www.w3.org/1999/xlink" xml:space="preserve" onload="init(evt)">
<style type="text/css"><![CDATA[
.node, .edge {opacity: 0.7;}
.node.selected, .edge.selected {opacity: 1;}
.edge:hover path { stroke: red; }
.edge:hover polygon { stroke: red; fill: red; }
]]></style>
<script type="application/ecmascript" xlink:href="svg.min.js"/>
<svg id="graph" class="graph">
<g id="graph0" class="graph" transform="scale(1 1) rotate(0) translate(4 242)">
<title>sophia::monte_carlo::tic_tac_toe::models::Player</title>
<!-- Node1 -->
<g id="Node000001" class="node">
<title>Node1</title>
<g id="a_Node000001"><a xlink:title="A Player in a Tic Tac Toe Game.">
<polygon fill="#999999" stroke="transparent" points="183,-131 69,-131 69,0 183,0 183,-131"/>
<text text-anchor="start" x="75" y="-118.5" font-family="Helvetica,sans-Serif" font-size="10.00">sophia::monte_carlo</text>
<text text-anchor="start" x="75" y="-107.5" font-family="Helvetica,sans-Serif" font-size="10.00">::tic_tac_toe::models</text>
<text text-anchor="start" x="107.5" y="-96.5" font-family="Helvetica,sans-Serif" font-size="10.00">::Player</text>
<text text-anchor="start" x="73" y="-81.5" font-family="Helvetica,sans-Serif" font-size="10.00">#</text>
<text text-anchor="start" x="86" y="-81.5" font-family="Helvetica,sans-Serif" font-size="10.00">m_player_symbol_</text>
<text text-anchor="start" x="73" y="-66.5" font-family="Helvetica,sans-Serif" font-size="10.00">+</text>
<text text-anchor="start" x="86" y="-66.5" font-family="Helvetica,sans-Serif" font-size="10.00">Player()</text>
<text text-anchor="start" x="73" y="-51.5" font-family="Helvetica,sans-Serif" font-size="10.00">+</text>
<text text-anchor="start" x="86" y="-51.5" font-family="Helvetica,sans-Serif" font-size="10.00">~Player()</text>
<text text-anchor="start" x="73" y="-36.5" font-family="Helvetica,sans-Serif" font-size="10.00">+</text>
<text text-anchor="start" x="86" y="-36.5" font-family="Helvetica,sans-Serif" font-size="10.00">symbol()</text>
<text text-anchor="start" x="73" y="-21.5" font-family="Helvetica,sans-Serif" font-size="10.00">+</text>
<text text-anchor="start" x="86" y="-21.5" font-family="Helvetica,sans-Serif" font-size="10.00">NextMove()</text>
<text text-anchor="start" x="73" y="-6.5" font-family="Helvetica,sans-Serif" font-size="10.00">+</text>
<text text-anchor="start" x="86" y="-6.5" font-family="Helvetica,sans-Serif" font-size="10.00">Value()</text>
<polygon fill="#666666" stroke="#666666" points="69,-91.5 69,-91.5 183,-91.5 183,-91.5 69,-91.5"/>
<polygon fill="#666666" stroke="#666666" points="69,-76.5 69,-76.5 84,-76.5 84,-76.5 69,-76.5"/>
<polygon fill="#666666" stroke="#666666" points="84,-76.5 84,-76.5 183,-76.5 183,-76.5 84,-76.5"/>
<polygon fill="none" stroke="#666666" points="69,0 69,-131 183,-131 183,0 69,0"/>
</a>
</g>
</g>
<!-- Node2 -->
<g id="Node000002" class="node">
<title>Node2</title>
<g id="a_Node000002"><a xlink:title=" ">
<polygon fill="white" stroke="transparent" points="116,-232.5 0,-232.5 0,-172.5 116,-172.5 116,-232.5"/>
<text text-anchor="start" x="5" y="-220.5" font-family="Helvetica,sans-Serif" font-size="10.00">std::enable_shared</text>
<text text-anchor="start" x="5" y="-209.5" font-family="Helvetica,sans-Serif" font-size="10.00">_from_this&lt; Player &gt;</text>
<text text-anchor="start" x="56" y="-194.5" font-family="Helvetica,sans-Serif" font-size="10.00"> </text>
<text text-anchor="start" x="56" y="-179.5" font-family="Helvetica,sans-Serif" font-size="10.00"> </text>
<polygon fill="#666666" stroke="#666666" points="0,-204.5 0,-204.5 116,-204.5 116,-204.5 0,-204.5"/>
<polygon fill="#666666" stroke="#666666" points="0,-189.5 0,-189.5 116,-189.5 116,-189.5 0,-189.5"/>
<polygon fill="none" stroke="#666666" points="0,-172.5 0,-232.5 116,-232.5 116,-172.5 0,-172.5"/>
</a>
</g>
</g>
<!-- Node2&#45;&gt;Node1 -->
<g id="edge1_Node000001_Node000002" class="edge">
<title>Node2&#45;&gt;Node1</title>
<g id="a_edge1_Node000001_Node000002"><a xlink:title=" ">
<path fill="none" stroke="#63b8ff" d="M77.38,-163.02C82.39,-153.08 87.92,-142.09 93.41,-131.2"/>
<polygon fill="none" stroke="#63b8ff" points="74.13,-161.7 72.75,-172.21 80.38,-164.85 74.13,-161.7"/>
</a>
</g>
</g>
<!-- Node3 -->
<g id="Node000003" class="node">
<title>Node3</title>
<g id="a_Node000003"><a xlink:href="classsophia_1_1monte__carlo_1_1tic__tac__toe_1_1observer_1_1Observer.html" target="_top" xlink:title="The Observer in an Observer pattern.">
<polygon fill="white" stroke="transparent" points="253.5,-238 134.5,-238 134.5,-167 253.5,-167 253.5,-238"/>
<text text-anchor="start" x="140" y="-225.5" font-family="Helvetica,sans-Serif" font-size="10.00">sophia::monte_carlo</text>
<text text-anchor="start" x="140" y="-214.5" font-family="Helvetica,sans-Serif" font-size="10.00">::tic_tac_toe::observer</text>
<text text-anchor="start" x="169" y="-203.5" font-family="Helvetica,sans-Serif" font-size="10.00">::Observer</text>
<text text-anchor="start" x="192.5" y="-188.5" font-family="Helvetica,sans-Serif" font-size="10.00"> </text>
<text text-anchor="start" x="152.5" y="-173.5" font-family="Helvetica,sans-Serif" font-size="10.00">+</text>
<text text-anchor="start" x="179" y="-173.5" font-family="Helvetica,sans-Serif" font-size="10.00">Update()</text>
<polygon fill="#666666" stroke="#666666" points="135,-198.5 135,-198.5 254,-198.5 254,-198.5 135,-198.5"/>
<polygon fill="#666666" stroke="#666666" points="135,-183.5 135,-183.5 254,-183.5 254,-183.5 135,-183.5"/>
<polygon fill="none" stroke="#666666" points="134.5,-167 134.5,-238 253.5,-238 253.5,-167 134.5,-167"/>
</a>
</g>
</g>
<!-- Node3&#45;&gt;Node1 -->
<g id="edge2_Node000001_Node000003" class="edge">
<title>Node3&#45;&gt;Node1</title>
<g id="a_edge2_Node000001_Node000003"><a xlink:title=" ">
<path fill="none" stroke="#63b8ff" d="M171.95,-157.73C167.65,-149.19 163.06,-140.07 158.5,-131.03"/>
<polygon fill="none" stroke="#63b8ff" points="168.86,-159.38 176.49,-166.73 175.12,-156.23 168.86,-159.38"/>
</a>
</g>
</g>
</g>
</svg>
</svg>

<style type='text/css'>
<![CDATA[
[data-mouse-over-selected='false'] { opacity: 0.7; }
[data-mouse-over-selected='true']  { opacity: 1.0; }
]]>
</style>
<script type="application/ecmascript"><![CDATA[
document.addEventListener('DOMContentLoaded', (event) => {
  highlightEdges();
  highlightAdjacentNodes();
});
]]></script>
</svg>
