<?xml version="1.0" encoding="UTF-8" standalone="no"?>
<!DOCTYPE svg PUBLIC "-//W3C//DTD SVG 1.1//EN"
 "http://www.w3.org/Graphics/SVG/1.1/DTD/svg11.dtd">
<!-- Generated by graphviz version 2.43.0 (0)
 -->
<!-- Title: sophia::monte_carlo::factories::TreeFactoryBase&lt; TState, TChange &gt; Pages: 1 -->
<svg width="161pt" height="246pt"
 viewBox="0.00 0.00 161.00 246.00" xmlns="http://www.w3.org/2000/svg" xmlns:xlink="http://www.w3.org/1999/xlink">
<g id="graph0" class="graph" transform="scale(1 1) rotate(0) translate(4 242)">
<title>sophia::monte_carlo::factories::TreeFactoryBase&lt; TState, TChange &gt;</title>
<!-- Node1 -->
<g id="Node000001" class="node">
<title>Node1</title>
<g id="a_Node000001"><a xlink:title=" ">
<polygon fill="#999999" stroke="transparent" points="149,-131 4,-131 4,0 149,0 149,-131"/>
<text text-anchor="start" x="9.5" y="-118.5" font-family="Helvetica,sans-Serif" font-size="10.00">sophia::monte_carlo</text>
<text text-anchor="start" x="9.5" y="-107.5" font-family="Helvetica,sans-Serif" font-size="10.00">::factories::TreeFactoryBase</text>
<text text-anchor="start" x="25.5" y="-96.5" font-family="Helvetica,sans-Serif" font-size="10.00">&lt; TState, TChange &gt;</text>
<text text-anchor="start" x="75" y="-81.5" font-family="Helvetica,sans-Serif" font-size="10.00"> </text>
<text text-anchor="start" x="15.5" y="-66.5" font-family="Helvetica,sans-Serif" font-size="10.00">+</text>
<text text-anchor="start" x="35.5" y="-66.5" font-family="Helvetica,sans-Serif" font-size="10.00">~TreeFactoryBase()</text>
<text text-anchor="start" x="15.5" y="-51.5" font-family="Helvetica,sans-Serif" font-size="10.00">+</text>
<text text-anchor="start" x="35.5" y="-51.5" font-family="Helvetica,sans-Serif" font-size="10.00">CreateNode()</text>
<text text-anchor="start" x="15.5" y="-36.5" font-family="Helvetica,sans-Serif" font-size="10.00">+</text>
<text text-anchor="start" x="35.5" y="-36.5" font-family="Helvetica,sans-Serif" font-size="10.00">CreateNode()</text>
<text text-anchor="start" x="15.5" y="-21.5" font-family="Helvetica,sans-Serif" font-size="10.00">+</text>
<text text-anchor="start" x="35.5" y="-21.5" font-family="Helvetica,sans-Serif" font-size="10.00">CreateAction()</text>
<text text-anchor="start" x="15.5" y="-6.5" font-family="Helvetica,sans-Serif" font-size="10.00">+</text>
<text text-anchor="start" x="35.5" y="-6.5" font-family="Helvetica,sans-Serif" font-size="10.00">CreateStrategy()</text>
<polygon fill="#666666" stroke="#666666" points="4.5,-91.5 4.5,-91.5 149.5,-91.5 149.5,-91.5 4.5,-91.5"/>
<polygon fill="#666666" stroke="#666666" points="4.5,-76.5 4.5,-76.5 149.5,-76.5 149.5,-76.5 4.5,-76.5"/>
<polygon fill="none" stroke="#666666" points="4,0 4,-131 149,-131 149,0 4,0"/>
</a>
</g>
</g>
<!-- Node2 -->
<g id="Node000002" class="node">
<title>Node2</title>
<g id="a_Node000002"><a xlink:title=" ">
<polygon fill="white" stroke="transparent" points="153,-238 0,-238 0,-167 153,-167 153,-238"/>
<text text-anchor="start" x="5.5" y="-225.5" font-family="Helvetica,sans-Serif" font-size="10.00">std::enable_shared</text>
<text text-anchor="start" x="5.5" y="-214.5" font-family="Helvetica,sans-Serif" font-size="10.00">_from_this&lt; TreeFactoryBase</text>
<text text-anchor="start" x="20" y="-203.5" font-family="Helvetica,sans-Serif" font-size="10.00">&lt; TState, TChange &gt; &gt;</text>
<text text-anchor="start" x="75" y="-188.5" font-family="Helvetica,sans-Serif" font-size="10.00"> </text>
<text text-anchor="start" x="75" y="-173.5" font-family="Helvetica,sans-Serif" font-size="10.00"> </text>
<polygon fill="#666666" stroke="#666666" points="0.5,-198.5 0.5,-198.5 153.5,-198.5 153.5,-198.5 0.5,-198.5"/>
<polygon fill="#666666" stroke="#666666" points="0.5,-183.5 0.5,-183.5 153.5,-183.5 153.5,-183.5 0.5,-183.5"/>
<polygon fill="none" stroke="#666666" points="0,-167 0,-238 153,-238 153,-167 0,-167"/>
</a>
</g>
</g>
<!-- Node2&#45;&gt;Node1 -->
<g id="edge1_Node000001_Node000002" class="edge">
<title>Node2&#45;&gt;Node1</title>
<g id="a_edge1_Node000001_Node000002"><a xlink:title=" ">
<path fill="none" stroke="#63b8ff" d="M76.5,-156.64C76.5,-148.42 76.5,-139.69 76.5,-131.03"/>
<polygon fill="none" stroke="#63b8ff" points="73,-156.73 76.5,-166.73 80,-156.73 73,-156.73"/>
</a>
</g>
</g>
</g>
</svg>
