<?xml version="1.0" encoding="UTF-8" standalone="no"?>
<!DOCTYPE svg PUBLIC "-//W3C//DTD SVG 1.1//EN"
 "http://www.w3.org/Graphics/SVG/1.1/DTD/svg11.dtd">
<!-- Generated by graphviz version 2.43.0 (0)
 -->
<!-- Title: examples/monte_carlo/tic_tac_toe Pages: 1 -->
<svg width="235pt" height="180pt"
 viewBox="0.00 0.00 235.00 180.00" xmlns="http://www.w3.org/2000/svg" xmlns:xlink="http://www.w3.org/1999/xlink">
<g id="graph0" class="graph" transform="scale(1 1) rotate(0) translate(4 176)">
<title>examples/monte_carlo/tic_tac_toe</title>
<g id="clust1" class="cluster">
<title>clusterdir_29c0e445d4b882cd0562f0657f2ff942</title>
<g id="a_clust1"><a xlink:href="dir_29c0e445d4b882cd0562f0657f2ff942.html" target="_top" xlink:title="monte_carlo">
<polygon fill="#edf0f7" stroke="#7f7f7f" stroke-dasharray="5,2" points="8,-39 8,-164 219,-164 219,-39 8,-39"/>
<text text-anchor="middle" x="113.5" y="-152" font-family="Helvetica,sans-Serif" font-size="10.00">monte_carlo</text>
</a>
</g>
</g>
<g id="clust2" class="cluster">
<title>clusterdir_9b5fc5c7c88e565369b38a220826950d</title>
<g id="a_clust2"><a xlink:href="dir_9b5fc5c7c88e565369b38a220826950d.html" target="_top">
<polygon fill="#edf0f7" stroke="#404040" stroke-width="2" points="16,-47 16,-137 211,-137 211,-47 16,-47"/>
</a>
</g>
</g>
<!-- dir_9b5fc5c7c88e565369b38a220826950d -->
<g id="node1" class="node">
<title>dir_9b5fc5c7c88e565369b38a220826950d</title>
<text text-anchor="middle" x="168" y="-117" font-family="Helvetica,sans-Serif" font-size="10.00">tic_tac_toe</text>
</g>
<!-- dir_4ac5b90547e73adc726b00a33f76b6b6 -->
<g id="node2" class="node">
<title>dir_4ac5b90547e73adc726b00a33f76b6b6</title>
<g id="a_node2"><a xlink:href="dir_4ac5b90547e73adc726b00a33f76b6b6.html" target="_top" xlink:title="include">
<polygon fill="#a2b4d6" stroke="#404040" points="76,-74 24,-74 24,-55 76,-55 76,-74"/>
<text text-anchor="middle" x="50" y="-62" font-family="Helvetica,sans-Serif" font-size="10.00">include</text>
</a>
</g>
</g>
<!-- dir_d44c64559bbebec7f509842c48db8b23 -->
<g id="node5" class="node">
<title>dir_d44c64559bbebec7f509842c48db8b23</title>
<g id="a_node5"><a xlink:href="dir_d44c64559bbebec7f509842c48db8b23.html" target="_top" xlink:title="include">
<polygon fill="#edf0f7" stroke="red" points="130,-19 78,-19 78,0 130,0 130,-19"/>
<text text-anchor="middle" x="104" y="-7" font-family="Helvetica,sans-Serif" font-size="10.00">include</text>
</a>
</g>
</g>
<!-- dir_4ac5b90547e73adc726b00a33f76b6b6&#45;&gt;dir_d44c64559bbebec7f509842c48db8b23 -->
<g id="edge1" class="edge">
<title>dir_4ac5b90547e73adc726b00a33f76b6b6&#45;&gt;dir_d44c64559bbebec7f509842c48db8b23</title>
<g id="a_edge1"><a xlink:href="dir_000006_000007.html" target="_top">
<path fill="none" stroke="#63b8ff" d="M58.92,-54.75C66.78,-47.03 78.43,-35.6 87.92,-26.28"/>
<polygon fill="#63b8ff" stroke="#63b8ff" points="90.56,-28.59 95.25,-19.09 85.66,-23.6 90.56,-28.59"/>
</a>
</g>
<g id="a_edge1&#45;headlabel"><a xlink:href="dir_000006_000007.html" target="_top" xlink:title="7">
<text text-anchor="middle" x="89.99" y="-30.64" font-family="Helvetica,sans-Serif" font-size="10.00" fill="#63b8ff">7</text>
</a>
</g>
</g>
<!-- dir_d82f86ccd3f83a2068f162aae422b29c -->
<g id="node3" class="node">
<title>dir_d82f86ccd3f83a2068f162aae422b29c</title>
<g id="a_node3"><a xlink:href="dir_d82f86ccd3f83a2068f162aae422b29c.html" target="_top" xlink:title="src">
<polygon fill="#a2b4d6" stroke="#404040" points="55.5,-129 24.5,-129 24.5,-110 55.5,-110 55.5,-129"/>
<text text-anchor="middle" x="40" y="-117" font-family="Helvetica,sans-Serif" font-size="10.00">src</text>
</a>
</g>
</g>
<!-- dir_d82f86ccd3f83a2068f162aae422b29c&#45;&gt;dir_4ac5b90547e73adc726b00a33f76b6b6 -->
<g id="edge2" class="edge">
<title>dir_d82f86ccd3f83a2068f162aae422b29c&#45;&gt;dir_4ac5b90547e73adc726b00a33f76b6b6</title>
<g id="a_edge2"><a xlink:href="dir_000018_000006.html" target="_top">
<path fill="none" stroke="#63b8ff" d="M41.65,-109.75C42.96,-102.8 44.84,-92.85 46.48,-84.13"/>
<polygon fill="#63b8ff" stroke="#63b8ff" points="49.96,-84.56 48.38,-74.09 43.09,-83.27 49.96,-84.56"/>
</a>
</g>
<g id="a_edge2&#45;headlabel"><a xlink:href="dir_000018_000006.html" target="_top" xlink:title="28">
<text text-anchor="middle" x="52.09" y="-86.12" font-family="Helvetica,sans-Serif" font-size="10.00" fill="#63b8ff">28</text>
</a>
</g>
</g>
<!-- dir_d82f86ccd3f83a2068f162aae422b29c&#45;&gt;dir_d44c64559bbebec7f509842c48db8b23 -->
<g id="edge3" class="edge">
<title>dir_d82f86ccd3f83a2068f162aae422b29c&#45;&gt;dir_d44c64559bbebec7f509842c48db8b23</title>
<g id="a_edge3"><a xlink:href="dir_000018_000007.html" target="_top">
<path fill="none" stroke="#63b8ff" d="M51.59,-109.84C61.77,-101.66 76.29,-88.51 85,-74 93.33,-60.13 98.24,-42.33 100.98,-29.11"/>
<polygon fill="#63b8ff" stroke="#63b8ff" points="104.42,-29.74 102.79,-19.27 97.54,-28.47 104.42,-29.74"/>
</a>
</g>
<g id="a_edge3&#45;headlabel"><a xlink:href="dir_000018_000007.html" target="_top" xlink:title="8">
<text text-anchor="middle" x="106.56" y="-31.29" font-family="Helvetica,sans-Serif" font-size="10.00" fill="#63b8ff">8</text>
</a>
</g>
</g>
<!-- dir_0cebf3d37342b2cb3944189466bc8973 -->
<g id="node4" class="node">
<title>dir_0cebf3d37342b2cb3944189466bc8973</title>
<g id="a_node4"><a xlink:href="dir_0cebf3d37342b2cb3944189466bc8973.html" target="_top" xlink:title="tests">
<polygon fill="#a2b4d6" stroke="#404040" points="114.5,-129 73.5,-129 73.5,-110 114.5,-110 114.5,-129"/>
<text text-anchor="middle" x="94" y="-117" font-family="Helvetica,sans-Serif" font-size="10.00">tests</text>
</a>
</g>
</g>
<!-- dir_0cebf3d37342b2cb3944189466bc8973&#45;&gt;dir_4ac5b90547e73adc726b00a33f76b6b6 -->
<g id="edge4" class="edge">
<title>dir_0cebf3d37342b2cb3944189466bc8973&#45;&gt;dir_4ac5b90547e73adc726b00a33f76b6b6</title>
<g id="a_edge4"><a xlink:href="dir_000020_000006.html" target="_top">
<path fill="none" stroke="#63b8ff" d="M86.73,-109.75C80.46,-102.18 71.21,-91.05 63.57,-81.84"/>
<polygon fill="#63b8ff" stroke="#63b8ff" points="66.21,-79.55 57.13,-74.09 60.83,-84.02 66.21,-79.55"/>
</a>
</g>
<g id="a_edge4&#45;headlabel"><a xlink:href="dir_000020_000006.html" target="_top" xlink:title="4">
<text text-anchor="middle" x="70.69" y="-78" font-family="Helvetica,sans-Serif" font-size="10.00" fill="#63b8ff">4</text>
</a>
</g>
</g>
<!-- dir_0cebf3d37342b2cb3944189466bc8973&#45;&gt;dir_d44c64559bbebec7f509842c48db8b23 -->
<g id="edge5" class="edge">
<title>dir_0cebf3d37342b2cb3944189466bc8973&#45;&gt;dir_d44c64559bbebec7f509842c48db8b23</title>
<g id="a_edge5"><a xlink:href="dir_000020_000007.html" target="_top">
<path fill="none" stroke="#63b8ff" d="M100.37,-109.84C106.26,-101.25 114.61,-87.45 118,-74 121.81,-58.92 121.52,-54.15 118,-39 117.15,-35.35 115.76,-31.62 114.18,-28.12"/>
<polygon fill="#63b8ff" stroke="#63b8ff" points="117.22,-26.37 109.51,-19.09 111,-29.58 117.22,-26.37"/>
</a>
</g>
<g id="a_edge5&#45;headlabel"><a xlink:href="dir_000020_000007.html" target="_top" xlink:title="3">
<text text-anchor="middle" x="121.39" y="-25.75" font-family="Helvetica,sans-Serif" font-size="10.00" fill="#63b8ff">3</text>
</a>
</g>
</g>
</g>
</svg>
