<?xml version="1.0" encoding="UTF-8" standalone="no"?>
<!DOCTYPE svg PUBLIC "-//W3C//DTD SVG 1.1//EN"
 "http://www.w3.org/Graphics/SVG/1.1/DTD/svg11.dtd">
<!-- Generated by graphviz version 2.43.0 (0)
 -->
<!-- Title: examples/monte_carlo/tic_tac_toe/include/tic_tac_toe/models/game_state.h Pages: 1 -->
<svg width="491pt" height="379pt"
 viewBox="0.00 0.00 490.50 379.00" xmlns="http://www.w3.org/2000/svg" xmlns:xlink="http://www.w3.org/1999/xlink">

<svg id="main" version="1.1" xmlns="http://www.w3.org/2000/svg" xmlns:xlink="http://www.w3.org/1999/xlink" xml:space="preserve" onload="init(evt)">
<style type="text/css"><![CDATA[
.node, .edge {opacity: 0.7;}
.node.selected, .edge.selected {opacity: 1;}
.edge:hover path { stroke: red; }
.edge:hover polygon { stroke: red; fill: red; }
]]></style>
<script type="application/ecmascript" xlink:href="svg.min.js"/>
<svg id="graph" class="graph">
<g id="graph0" class="graph" transform="scale(1 1) rotate(0) translate(4 375)">
<title>examples/monte_carlo/tic_tac_toe/include/tic_tac_toe/models/game_state.h</title>
<!-- Node1 -->
<g id="Node000001" class="node">
<title>Node1</title>
<g id="a_Node000001"><a xlink:title=" ">
<polygon fill="#999999" stroke="#666666" points="410,-371 267,-371 267,-319 410,-319 410,-371"/>
<text text-anchor="start" x="275" y="-359" font-family="Helvetica,sans-Serif" font-size="10.00">examples/monte_carlo</text>
<text text-anchor="start" x="275" y="-348" font-family="Helvetica,sans-Serif" font-size="10.00">/tic_tac_toe/include</text>
<text text-anchor="start" x="275" y="-337" font-family="Helvetica,sans-Serif" font-size="10.00">/tic_tac_toe/models/game</text>
<text text-anchor="middle" x="338.5" y="-326" font-family="Helvetica,sans-Serif" font-size="10.00">_state.h</text>
</a>
</g>
</g>
<!-- Node2 -->
<g id="Node000002" class="node">
<title>Node2</title>
<g id="a_Node000002"><a xlink:title=" ">
<polygon fill="#e0e0e0" stroke="#999999" points="482.5,-145.5 424.5,-145.5 424.5,-126.5 482.5,-126.5 482.5,-145.5"/>
<text text-anchor="middle" x="453.5" y="-133.5" font-family="Helvetica,sans-Serif" font-size="10.00">memory</text>
</a>
</g>
</g>
<!-- Node1&#45;&gt;Node2 -->
<g id="edge1_Node000001_Node000002" class="edge">
<title>Node1&#45;&gt;Node2</title>
<g id="a_edge1_Node000001_Node000002"><a xlink:title=" ">
<path fill="none" stroke="#63b8ff" d="M373.38,-318.78C401.81,-295.88 439.88,-259.3 456.5,-217 464.26,-197.24 461.69,-172.58 458.36,-155.9"/>
<polygon fill="#63b8ff" stroke="#63b8ff" points="461.69,-154.75 456.04,-145.79 454.86,-156.32 461.69,-154.75"/>
</a>
</g>
</g>
<!-- Node3 -->
<g id="Node000003" class="node">
<title>Node3</title>
<g id="a_Node000003"><a xlink:href="board_8h.html" target="_top" xlink:title=" ">
<polygon fill="white" stroke="#666666" points="319,-283 210,-283 210,-253 319,-253 319,-283"/>
<text text-anchor="start" x="218" y="-271" font-family="Helvetica,sans-Serif" font-size="10.00">tic_tac_toe/models</text>
<text text-anchor="middle" x="264.5" y="-260" font-family="Helvetica,sans-Serif" font-size="10.00">/board.h</text>
</a>
</g>
</g>
<!-- Node1&#45;&gt;Node3 -->
<g id="edge2_Node000001_Node000003" class="edge">
<title>Node1&#45;&gt;Node3</title>
<g id="a_edge2_Node000001_Node000003"><a xlink:title=" ">
<path fill="none" stroke="#63b8ff" d="M313.45,-318.61C304.5,-309.54 294.5,-299.41 285.89,-290.68"/>
<polygon fill="#63b8ff" stroke="#63b8ff" points="288.25,-288.09 278.74,-283.43 283.27,-293 288.25,-288.09"/>
</a>
</g>
</g>
<!-- Node3&#45;&gt;Node2 -->
<g id="edge15_Node000003_Node000002" class="edge">
<title>Node3&#45;&gt;Node2</title>
<g id="a_edge15_Node000003_Node000002"><a xlink:title=" ">
<path fill="none" stroke="#63b8ff" d="M319.35,-265C357.15,-260.65 405.76,-248.68 435.5,-217 450.92,-200.57 454.15,-173.89 454.38,-155.9"/>
<polygon fill="#63b8ff" stroke="#63b8ff" points="457.87,-155.7 454.2,-145.76 450.87,-155.82 457.87,-155.7"/>
</a>
</g>
</g>
<!-- Node4 -->
<g id="Node000004" class="node">
<title>Node4</title>
<g id="a_Node000004"><a xlink:title=" ">
<polygon fill="#e0e0e0" stroke="#999999" points="114,-211.5 67,-211.5 67,-192.5 114,-192.5 114,-211.5"/>
<text text-anchor="middle" x="90.5" y="-199.5" font-family="Helvetica,sans-Serif" font-size="10.00">vector</text>
</a>
</g>
</g>
<!-- Node3&#45;&gt;Node4 -->
<g id="edge3_Node000003_Node000004" class="edge">
<title>Node3&#45;&gt;Node4</title>
<g id="a_edge3_Node000003_Node000004"><a xlink:title=" ">
<path fill="none" stroke="#63b8ff" d="M222.92,-252.99C194.71,-243.31 156.66,-229.9 123.5,-217 122.29,-216.53 121.06,-216.04 119.82,-215.55"/>
<polygon fill="#63b8ff" stroke="#63b8ff" points="120.89,-212.2 110.31,-211.64 118.23,-218.68 120.89,-212.2"/>
</a>
</g>
</g>
<!-- Node5 -->
<g id="Node000005" class="node">
<title>Node5</title>
<g id="a_Node000005"><a xlink:href="player_8h.html" target="_top" xlink:title=" ">
<polygon fill="white" stroke="#666666" points="241,-217 132,-217 132,-187 241,-187 241,-217"/>
<text text-anchor="start" x="140" y="-205" font-family="Helvetica,sans-Serif" font-size="10.00">tic_tac_toe/models</text>
<text text-anchor="middle" x="186.5" y="-194" font-family="Helvetica,sans-Serif" font-size="10.00">/player.h</text>
</a>
</g>
</g>
<!-- Node3&#45;&gt;Node5 -->
<g id="edge4_Node000003_Node000005" class="edge">
<title>Node3&#45;&gt;Node5</title>
<g id="a_edge4_Node000003_Node000005"><a xlink:title=" ">
<path fill="none" stroke="#63b8ff" d="M247.19,-252.8C236.79,-244.26 223.37,-233.25 211.79,-223.75"/>
<polygon fill="#63b8ff" stroke="#63b8ff" points="213.71,-220.8 203.76,-217.16 209.27,-226.21 213.71,-220.8"/>
</a>
</g>
</g>
<!-- Node6 -->
<g id="Node000006" class="node">
<title>Node6</title>
<g id="a_Node000006"><a xlink:href="position_8h.html" target="_top" xlink:title=" ">
<polygon fill="white" stroke="#666666" points="109,-151 0,-151 0,-121 109,-121 109,-151"/>
<text text-anchor="start" x="8" y="-139" font-family="Helvetica,sans-Serif" font-size="10.00">tic_tac_toe/models</text>
<text text-anchor="middle" x="54.5" y="-128" font-family="Helvetica,sans-Serif" font-size="10.00">/position.h</text>
</a>
</g>
</g>
<!-- Node3&#45;&gt;Node6 -->
<g id="edge13_Node000003_Node000006" class="edge">
<title>Node3&#45;&gt;Node6</title>
<g id="a_edge13_Node000003_Node000006"><a xlink:title=" ">
<path fill="none" stroke="#63b8ff" d="M209.95,-261.23C155.28,-254.22 76.58,-240.32 57.5,-217 44.97,-201.68 45.45,-178.64 48.35,-161.22"/>
<polygon fill="#63b8ff" stroke="#63b8ff" points="51.82,-161.71 50.37,-151.21 44.96,-160.32 51.82,-161.71"/>
</a>
</g>
</g>
<!-- Node11 -->
<g id="Node000011" class="node">
<title>Node11</title>
<g id="a_Node000011"><a xlink:href="alignment_8h.html" target="_top" xlink:title=" ">
<polygon fill="white" stroke="#666666" points="426,-211.5 259,-211.5 259,-192.5 426,-192.5 426,-211.5"/>
<text text-anchor="middle" x="342.5" y="-199.5" font-family="Helvetica,sans-Serif" font-size="10.00">tic_tac_toe/enums/alignment.h</text>
</a>
</g>
</g>
<!-- Node3&#45;&gt;Node11 -->
<g id="edge14_Node000003_Node000011" class="edge">
<title>Node3&#45;&gt;Node11</title>
<g id="a_edge14_Node000003_Node000011"><a xlink:title=" ">
<path fill="none" stroke="#63b8ff" d="M281.81,-252.8C294.21,-242.62 310.9,-228.93 323.63,-218.48"/>
<polygon fill="#63b8ff" stroke="#63b8ff" points="326.21,-220.89 331.72,-211.84 321.77,-215.48 326.21,-220.89"/>
</a>
</g>
</g>
<!-- Node5&#45;&gt;Node2 -->
<g id="edge5_Node000005_Node000002" class="edge">
<title>Node5&#45;&gt;Node2</title>
<g id="a_edge5_Node000005_Node000002"><a xlink:title=" ">
<path fill="none" stroke="#63b8ff" d="M241.18,-187.89C292.81,-175.52 368.94,-157.27 414.63,-146.32"/>
<polygon fill="#63b8ff" stroke="#63b8ff" points="415.55,-149.7 424.45,-143.96 413.91,-142.89 415.55,-149.7"/>
</a>
</g>
</g>
<!-- Node5&#45;&gt;Node6 -->
<g id="edge6_Node000005_Node000006" class="edge">
<title>Node5&#45;&gt;Node6</title>
<g id="a_edge6_Node000005_Node000006"><a xlink:title=" ">
<path fill="none" stroke="#63b8ff" d="M157.53,-186.95C138.45,-177.7 113.25,-165.49 92.56,-155.45"/>
<polygon fill="#63b8ff" stroke="#63b8ff" points="93.93,-152.23 83.4,-151.01 90.87,-158.52 93.93,-152.23"/>
</a>
</g>
</g>
<!-- Node8 -->
<g id="Node000008" class="node">
<title>Node8</title>
<g id="a_Node000008"><a xlink:href="symbol_8h.html" target="_top" xlink:title=" ">
<polygon fill="white" stroke="#666666" points="232.5,-79.5 78.5,-79.5 78.5,-60.5 232.5,-60.5 232.5,-79.5"/>
<text text-anchor="middle" x="155.5" y="-67.5" font-family="Helvetica,sans-Serif" font-size="10.00">tic_tac_toe/enums/symbol.h</text>
</a>
</g>
</g>
<!-- Node5&#45;&gt;Node8 -->
<g id="edge10_Node000005_Node000008" class="edge">
<title>Node5&#45;&gt;Node8</title>
<g id="a_edge10_Node000005_Node000008"><a xlink:title=" ">
<path fill="none" stroke="#63b8ff" d="M183.12,-186.84C177.49,-163.23 166.19,-115.83 159.93,-89.58"/>
<polygon fill="#63b8ff" stroke="#63b8ff" points="163.31,-88.66 157.59,-79.75 156.5,-90.29 163.31,-88.66"/>
</a>
</g>
</g>
<!-- Node10 -->
<g id="Node000010" class="node">
<title>Node10</title>
<g id="a_Node000010"><a xlink:href="observer_8h.html" target="_top" xlink:title=" ">
<polygon fill="white" stroke="#666666" points="366.5,-85 250.5,-85 250.5,-55 366.5,-55 366.5,-85"/>
<text text-anchor="start" x="258.5" y="-73" font-family="Helvetica,sans-Serif" font-size="10.00">tic_tac_toe/observer</text>
<text text-anchor="middle" x="308.5" y="-62" font-family="Helvetica,sans-Serif" font-size="10.00">/observer.h</text>
</a>
</g>
</g>
<!-- Node5&#45;&gt;Node10 -->
<g id="edge11_Node000005_Node000010" class="edge">
<title>Node5&#45;&gt;Node10</title>
<g id="a_edge11_Node000005_Node000010"><a xlink:title=" ">
<path fill="none" stroke="#63b8ff" d="M199.79,-186.84C221.15,-164.08 263.26,-119.21 288.34,-92.49"/>
<polygon fill="#63b8ff" stroke="#63b8ff" points="290.94,-94.83 295.23,-85.14 285.83,-90.04 290.94,-94.83"/>
</a>
</g>
</g>
<!-- Node7 -->
<g id="Node000007" class="node">
<title>Node7</title>
<g id="a_Node000007"><a xlink:title=" ">
<polygon fill="#e0e0e0" stroke="#999999" points="60,-79.5 15,-79.5 15,-60.5 60,-60.5 60,-79.5"/>
<text text-anchor="middle" x="37.5" y="-67.5" font-family="Helvetica,sans-Serif" font-size="10.00">utility</text>
</a>
</g>
</g>
<!-- Node6&#45;&gt;Node7 -->
<g id="edge7_Node000006_Node000007" class="edge">
<title>Node6&#45;&gt;Node7</title>
<g id="a_edge7_Node000006_Node000007"><a xlink:title=" ">
<path fill="none" stroke="#63b8ff" d="M50.73,-120.8C48.28,-111.6 45.08,-99.53 42.43,-89.58"/>
<polygon fill="#63b8ff" stroke="#63b8ff" points="45.8,-88.61 39.85,-79.84 39.03,-90.41 45.8,-88.61"/>
</a>
</g>
</g>
<!-- Node6&#45;&gt;Node8 -->
<g id="edge8_Node000006_Node000008" class="edge">
<title>Node6&#45;&gt;Node8</title>
<g id="a_edge8_Node000006_Node000008"><a xlink:title=" ">
<path fill="none" stroke="#63b8ff" d="M76.92,-120.8C93.69,-110.17 116.51,-95.7 133.25,-85.1"/>
<polygon fill="#63b8ff" stroke="#63b8ff" points="135.26,-87.97 141.84,-79.66 131.52,-82.05 135.26,-87.97"/>
</a>
</g>
</g>
<!-- Node9 -->
<g id="Node000009" class="node">
<title>Node9</title>
<g id="a_Node000009"><a xlink:title=" ">
<polygon fill="#e0e0e0" stroke="#999999" points="253.5,-19 209.5,-19 209.5,0 253.5,0 253.5,-19"/>
<text text-anchor="middle" x="231.5" y="-7" font-family="Helvetica,sans-Serif" font-size="10.00">string</text>
</a>
</g>
</g>
<!-- Node8&#45;&gt;Node9 -->
<g id="edge9_Node000008_Node000009" class="edge">
<title>Node8&#45;&gt;Node9</title>
<g id="a_edge9_Node000008_Node000009"><a xlink:title=" ">
<path fill="none" stroke="#63b8ff" d="M166.71,-60.37C178.61,-51.21 197.64,-36.56 212.01,-25.51"/>
<polygon fill="#63b8ff" stroke="#63b8ff" points="214.45,-28.04 220.24,-19.17 210.18,-22.49 214.45,-28.04"/>
</a>
</g>
</g>
<!-- Node10&#45;&gt;Node9 -->
<g id="edge12_Node000010_Node000009" class="edge">
<title>Node10&#45;&gt;Node9</title>
<g id="a_edge12_Node000010_Node000009"><a xlink:title=" ">
<path fill="none" stroke="#63b8ff" d="M289.86,-54.84C278.11,-45.91 262.97,-34.41 251.05,-25.35"/>
<polygon fill="#63b8ff" stroke="#63b8ff" points="253.12,-22.53 243.04,-19.27 248.88,-28.1 253.12,-22.53"/>
</a>
</g>
</g>
</g>
</svg>
</svg>

<style type='text/css'>
<![CDATA[
[data-mouse-over-selected='false'] { opacity: 0.7; }
[data-mouse-over-selected='true']  { opacity: 1.0; }
]]>
</style>
<script type="application/ecmascript"><![CDATA[
document.addEventListener('DOMContentLoaded', (event) => {
  highlightEdges();
  highlightAdjacentNodes();
});
]]></script>
</svg>
