<?xml version="1.0" encoding="UTF-8" standalone="no"?>
<!DOCTYPE svg PUBLIC "-//W3C//DTD SVG 1.1//EN"
 "http://www.w3.org/Graphics/SVG/1.1/DTD/svg11.dtd">
<!-- Generated by graphviz version 2.43.0 (0)
 -->
<!-- Title: examples/monte_carlo/tic_tac_toe/src/models/game.cpp Pages: 1 -->
<svg width="718pt" height="423pt"
 viewBox="0.00 0.00 717.61 423.00" xmlns="http://www.w3.org/2000/svg" xmlns:xlink="http://www.w3.org/1999/xlink">
<g id="graph0" class="graph" transform="scale(1 1) rotate(0) translate(4 419)">
<title>examples/monte_carlo/tic_tac_toe/src/models/game.cpp</title>
<!-- Node1 -->
<g id="Node000001" class="node">
<title>Node1</title>
<g id="a_Node000001"><a xlink:title=" ">
<polygon fill="#999999" stroke="#666666" points="615,-415 486,-415 486,-374 615,-374 615,-415"/>
<text text-anchor="start" x="494" y="-403" font-family="Helvetica,sans-Serif" font-size="10.00">examples/monte_carlo</text>
<text text-anchor="start" x="494" y="-392" font-family="Helvetica,sans-Serif" font-size="10.00">/tic_tac_toe/src/models</text>
<text text-anchor="middle" x="550.5" y="-381" font-family="Helvetica,sans-Serif" font-size="10.00">/game.cpp</text>
</a>
</g>
</g>
<!-- Node2 -->
<g id="Node000002" class="node">
<title>Node2</title>
<g id="a_Node000002"><a xlink:href="game_8h.html" target="_top" xlink:title=" ">
<polygon fill="white" stroke="#666666" points="669,-338 560,-338 560,-308 669,-308 669,-338"/>
<text text-anchor="start" x="568" y="-326" font-family="Helvetica,sans-Serif" font-size="10.00">tic_tac_toe/models</text>
<text text-anchor="middle" x="614.5" y="-315" font-family="Helvetica,sans-Serif" font-size="10.00">/game.h</text>
</a>
</g>
</g>
<!-- Node1&#45;&gt;Node2 -->
<g id="edge1_Node000001_Node000002" class="edge">
<title>Node1&#45;&gt;Node2</title>
<g id="a_edge1_Node000001_Node000002"><a xlink:title=" ">
<path fill="none" stroke="#63b8ff" d="M568.67,-373.77C576.79,-364.95 586.37,-354.54 594.68,-345.53"/>
<polygon fill="#63b8ff" stroke="#63b8ff" points="597.37,-347.77 601.57,-338.04 592.22,-343.02 597.37,-347.77"/>
</a>
</g>
</g>
<!-- Node3 -->
<g id="Node000003" class="node">
<title>Node3</title>
<g id="a_Node000003"><a xlink:href="board_8h.html" target="_top" xlink:title=" ">
<polygon fill="white" stroke="#666666" points="425,-272 316,-272 316,-242 425,-242 425,-272"/>
<text text-anchor="start" x="324" y="-260" font-family="Helvetica,sans-Serif" font-size="10.00">tic_tac_toe/models</text>
<text text-anchor="middle" x="370.5" y="-249" font-family="Helvetica,sans-Serif" font-size="10.00">/board.h</text>
</a>
</g>
</g>
<!-- Node1&#45;&gt;Node3 -->
<g id="edge22_Node000001_Node000003" class="edge">
<title>Node1&#45;&gt;Node3</title>
<g id="a_edge22_Node000001_Node000003"><a xlink:title=" ">
<path fill="none" stroke="#63b8ff" d="M486.69,-373.9C465.1,-365.22 441.83,-353.4 423.5,-338 404.99,-322.45 390.43,-298.82 381.3,-281.27"/>
<polygon fill="#63b8ff" stroke="#63b8ff" points="384.39,-279.62 376.79,-272.23 378.12,-282.74 384.39,-279.62"/>
</a>
</g>
</g>
<!-- Node6 -->
<g id="Node000006" class="node">
<title>Node6</title>
<g id="a_Node000006"><a xlink:title=" ">
<polygon fill="#e0e0e0" stroke="#999999" points="597.5,-134.5 539.5,-134.5 539.5,-115.5 597.5,-115.5 597.5,-134.5"/>
<text text-anchor="middle" x="568.5" y="-122.5" font-family="Helvetica,sans-Serif" font-size="10.00">memory</text>
</a>
</g>
</g>
<!-- Node1&#45;&gt;Node6 -->
<g id="edge23_Node000001_Node000006" class="edge">
<title>Node1&#45;&gt;Node6</title>
<g id="a_edge23_Node000001_Node000006"><a xlink:title=" ">
<path fill="none" stroke="#63b8ff" d="M615.17,-376.33C637.48,-367.79 661.18,-355.45 678.5,-338 700.94,-315.38 700.15,-303.22 706.5,-272 715.68,-226.87 701.12,-207.47 667.5,-176 649.5,-159.15 624.74,-146.65 604.48,-138.36"/>
<polygon fill="#63b8ff" stroke="#63b8ff" points="605.54,-135.01 594.95,-134.63 602.99,-141.53 605.54,-135.01"/>
</a>
</g>
</g>
<!-- Node15 -->
<g id="Node000015" class="node">
<title>Node15</title>
<g id="a_Node000015"><a xlink:href="game__state_8h.html" target="_top" xlink:title=" ">
<polygon fill="white" stroke="#666666" points="542,-338 433,-338 433,-308 542,-308 542,-338"/>
<text text-anchor="start" x="441" y="-326" font-family="Helvetica,sans-Serif" font-size="10.00">tic_tac_toe/models</text>
<text text-anchor="middle" x="487.5" y="-315" font-family="Helvetica,sans-Serif" font-size="10.00">/game_state.h</text>
</a>
</g>
</g>
<!-- Node1&#45;&gt;Node15 -->
<g id="edge24_Node000001_Node000015" class="edge">
<title>Node1&#45;&gt;Node15</title>
<g id="a_edge24_Node000001_Node000015"><a xlink:title=" ">
<path fill="none" stroke="#63b8ff" d="M532.62,-373.77C524.62,-364.95 515.19,-354.54 507.01,-345.53"/>
<polygon fill="#63b8ff" stroke="#63b8ff" points="509.53,-343.1 500.23,-338.04 504.35,-347.8 509.53,-343.1"/>
</a>
</g>
</g>
<!-- Node2&#45;&gt;Node3 -->
<g id="edge2_Node000002_Node000003" class="edge">
<title>Node2&#45;&gt;Node3</title>
<g id="a_edge2_Node000002_Node000003"><a xlink:title=" ">
<path fill="none" stroke="#63b8ff" d="M560.95,-307.95C523.45,-298.12 473.18,-284.93 433.71,-274.58"/>
<polygon fill="#63b8ff" stroke="#63b8ff" points="434.48,-271.16 423.92,-272.01 432.71,-277.93 434.48,-271.16"/>
</a>
</g>
</g>
<!-- Node2&#45;&gt;Node6 -->
<g id="edge20_Node000002_Node000006" class="edge">
<title>Node2&#45;&gt;Node6</title>
<g id="a_edge20_Node000002_Node000006"><a xlink:title=" ">
<path fill="none" stroke="#63b8ff" d="M650.03,-307.96C665.39,-299.9 681.81,-288.13 690.5,-272 696.83,-260.26 695.76,-254.25 690.5,-242 670.64,-195.71 622.22,-159.17 592.7,-140.24"/>
<polygon fill="#63b8ff" stroke="#63b8ff" points="594.18,-137.03 583.84,-134.72 590.48,-142.97 594.18,-137.03"/>
</a>
</g>
</g>
<!-- Node13 -->
<g id="Node000013" class="node">
<title>Node13</title>
<g id="a_Node000013"><a xlink:href="subject_8h.html" target="_top" xlink:title=" ">
<polygon fill="white" stroke="#666666" points="559.5,-272 443.5,-272 443.5,-242 559.5,-242 559.5,-272"/>
<text text-anchor="start" x="451.5" y="-260" font-family="Helvetica,sans-Serif" font-size="10.00">tic_tac_toe/observer</text>
<text text-anchor="middle" x="501.5" y="-249" font-family="Helvetica,sans-Serif" font-size="10.00">/subject.h</text>
</a>
</g>
</g>
<!-- Node2&#45;&gt;Node13 -->
<g id="edge16_Node000002_Node000013" class="edge">
<title>Node2&#45;&gt;Node13</title>
<g id="a_edge16_Node000002_Node000013"><a xlink:title=" ">
<path fill="none" stroke="#63b8ff" d="M589.7,-307.95C573.66,-298.87 552.57,-286.93 535.04,-277"/>
<polygon fill="#63b8ff" stroke="#63b8ff" points="536.67,-273.9 526.24,-272.01 533.22,-279.99 536.67,-273.9"/>
</a>
</g>
</g>
<!-- Node14 -->
<g id="Node000014" class="node">
<title>Node14</title>
<g id="a_Node000014"><a xlink:title=" ">
<polygon fill="#e0e0e0" stroke="#999999" points="681,-266.5 616,-266.5 616,-247.5 681,-247.5 681,-266.5"/>
<text text-anchor="middle" x="648.5" y="-254.5" font-family="Helvetica,sans-Serif" font-size="10.00">stdexcept</text>
</a>
</g>
</g>
<!-- Node2&#45;&gt;Node14 -->
<g id="edge21_Node000002_Node000014" class="edge">
<title>Node2&#45;&gt;Node14</title>
<g id="a_edge21_Node000002_Node000014"><a xlink:title=" ">
<path fill="none" stroke="#63b8ff" d="M622.05,-307.8C627.03,-298.41 633.62,-286.02 638.97,-275.95"/>
<polygon fill="#63b8ff" stroke="#63b8ff" points="642.2,-277.32 643.8,-266.84 636.02,-274.03 642.2,-277.32"/>
</a>
</g>
</g>
<!-- Node4 -->
<g id="Node000004" class="node">
<title>Node4</title>
<g id="a_Node000004"><a xlink:title=" ">
<polygon fill="#e0e0e0" stroke="#999999" points="483,-200.5 436,-200.5 436,-181.5 483,-181.5 483,-200.5"/>
<text text-anchor="middle" x="459.5" y="-188.5" font-family="Helvetica,sans-Serif" font-size="10.00">vector</text>
</a>
</g>
</g>
<!-- Node3&#45;&gt;Node4 -->
<g id="edge3_Node000003_Node000004" class="edge">
<title>Node3&#45;&gt;Node4</title>
<g id="a_edge3_Node000003_Node000004"><a xlink:title=" ">
<path fill="none" stroke="#63b8ff" d="M390.25,-241.8C404.76,-231.37 424.4,-217.24 439.06,-206.69"/>
<polygon fill="#63b8ff" stroke="#63b8ff" points="441.38,-209.34 447.46,-200.66 437.3,-203.66 441.38,-209.34"/>
</a>
</g>
</g>
<!-- Node5 -->
<g id="Node000005" class="node">
<title>Node5</title>
<g id="a_Node000005"><a xlink:href="player_8h.html" target="_top" xlink:title=" ">
<polygon fill="white" stroke="#666666" points="195,-206 86,-206 86,-176 195,-176 195,-206"/>
<text text-anchor="start" x="94" y="-194" font-family="Helvetica,sans-Serif" font-size="10.00">tic_tac_toe/models</text>
<text text-anchor="middle" x="140.5" y="-183" font-family="Helvetica,sans-Serif" font-size="10.00">/player.h</text>
</a>
</g>
</g>
<!-- Node3&#45;&gt;Node5 -->
<g id="edge4_Node000003_Node000005" class="edge">
<title>Node3&#45;&gt;Node5</title>
<g id="a_edge4_Node000003_Node000005"><a xlink:title=" ">
<path fill="none" stroke="#63b8ff" d="M320.03,-241.95C284.82,-232.16 237.69,-219.05 200.56,-208.71"/>
<polygon fill="#63b8ff" stroke="#63b8ff" points="201.43,-205.32 190.86,-206.01 199.55,-212.07 201.43,-205.32"/>
</a>
</g>
</g>
<!-- Node3&#45;&gt;Node6 -->
<g id="edge15_Node000003_Node000006" class="edge">
<title>Node3&#45;&gt;Node6</title>
<g id="a_edge15_Node000003_Node000006"><a xlink:title=" ">
<path fill="none" stroke="#63b8ff" d="M376.98,-241.82C385.78,-224.03 403.14,-193.73 426.5,-176 456.99,-152.86 499.06,-139.83 529.49,-132.92"/>
<polygon fill="#63b8ff" stroke="#63b8ff" points="530.29,-136.33 539.33,-130.8 528.82,-129.48 530.29,-136.33"/>
</a>
</g>
</g>
<!-- Node7 -->
<g id="Node000007" class="node">
<title>Node7</title>
<g id="a_Node000007"><a xlink:href="position_8h.html" target="_top" xlink:title=" ">
<polygon fill="white" stroke="#666666" points="112,-140 3,-140 3,-110 112,-110 112,-140"/>
<text text-anchor="start" x="11" y="-128" font-family="Helvetica,sans-Serif" font-size="10.00">tic_tac_toe/models</text>
<text text-anchor="middle" x="57.5" y="-117" font-family="Helvetica,sans-Serif" font-size="10.00">/position.h</text>
</a>
</g>
</g>
<!-- Node3&#45;&gt;Node7 -->
<g id="edge13_Node000003_Node000007" class="edge">
<title>Node3&#45;&gt;Node7</title>
<g id="a_edge13_Node000003_Node000007"><a xlink:title=" ">
<path fill="none" stroke="#63b8ff" d="M315.88,-253.75C240.58,-249.51 110.31,-237.69 76.5,-206 61.42,-191.87 57.32,-168.13 56.6,-150.18"/>
<polygon fill="#63b8ff" stroke="#63b8ff" points="60.1,-150.11 56.52,-140.14 53.1,-150.17 60.1,-150.11"/>
</a>
</g>
</g>
<!-- Node12 -->
<g id="Node000012" class="node">
<title>Node12</title>
<g id="a_Node000012"><a xlink:href="alignment_8h.html" target="_top" xlink:title=" ">
<polygon fill="white" stroke="#666666" points="380,-200.5 213,-200.5 213,-181.5 380,-181.5 380,-200.5"/>
<text text-anchor="middle" x="296.5" y="-188.5" font-family="Helvetica,sans-Serif" font-size="10.00">tic_tac_toe/enums/alignment.h</text>
</a>
</g>
</g>
<!-- Node3&#45;&gt;Node12 -->
<g id="edge14_Node000003_Node000012" class="edge">
<title>Node3&#45;&gt;Node12</title>
<g id="a_edge14_Node000003_Node000012"><a xlink:title=" ">
<path fill="none" stroke="#63b8ff" d="M354.08,-241.8C342.31,-231.62 326.48,-217.93 314.4,-207.48"/>
<polygon fill="#63b8ff" stroke="#63b8ff" points="316.58,-204.74 306.73,-200.84 312,-210.03 316.58,-204.74"/>
</a>
</g>
</g>
<!-- Node5&#45;&gt;Node6 -->
<g id="edge5_Node000005_Node000006" class="edge">
<title>Node5&#45;&gt;Node6</title>
<g id="a_edge5_Node000005_Node000006"><a xlink:title=" ">
<path fill="none" stroke="#63b8ff" d="M195.08,-177.58C197.92,-177.03 200.74,-176.49 203.5,-176 321.23,-154.89 461.72,-137.94 528.9,-130.34"/>
<polygon fill="#63b8ff" stroke="#63b8ff" points="529.49,-133.79 539.04,-129.2 528.71,-126.84 529.49,-133.79"/>
</a>
</g>
</g>
<!-- Node5&#45;&gt;Node7 -->
<g id="edge6_Node000005_Node000007" class="edge">
<title>Node5&#45;&gt;Node7</title>
<g id="a_edge6_Node000005_Node000007"><a xlink:title=" ">
<path fill="none" stroke="#63b8ff" d="M122.08,-175.8C110.9,-167.18 96.45,-156.04 84.06,-146.48"/>
<polygon fill="#63b8ff" stroke="#63b8ff" points="85.93,-143.5 75.87,-140.16 81.65,-149.04 85.93,-143.5"/>
</a>
</g>
</g>
<!-- Node9 -->
<g id="Node000009" class="node">
<title>Node9</title>
<g id="a_Node000009"><a xlink:href="symbol_8h.html" target="_top" xlink:title=" ">
<polygon fill="white" stroke="#666666" points="217.5,-74 63.5,-74 63.5,-55 217.5,-55 217.5,-74"/>
<text text-anchor="middle" x="140.5" y="-62" font-family="Helvetica,sans-Serif" font-size="10.00">tic_tac_toe/enums/symbol.h</text>
</a>
</g>
</g>
<!-- Node5&#45;&gt;Node9 -->
<g id="edge10_Node000005_Node000009" class="edge">
<title>Node5&#45;&gt;Node9</title>
<g id="a_edge10_Node000005_Node000009"><a xlink:title=" ">
<path fill="none" stroke="#63b8ff" d="M140.5,-175.72C140.5,-153.12 140.5,-109.12 140.5,-84.09"/>
<polygon fill="#63b8ff" stroke="#63b8ff" points="144,-84.07 140.5,-74.07 137,-84.07 144,-84.07"/>
</a>
</g>
</g>
<!-- Node11 -->
<g id="Node000011" class="node">
<title>Node11</title>
<g id="a_Node000011"><a xlink:href="observer_8h.html" target="_top" xlink:title=" ">
<polygon fill="white" stroke="#666666" points="303.5,-140 187.5,-140 187.5,-110 303.5,-110 303.5,-140"/>
<text text-anchor="start" x="195.5" y="-128" font-family="Helvetica,sans-Serif" font-size="10.00">tic_tac_toe/observer</text>
<text text-anchor="middle" x="245.5" y="-117" font-family="Helvetica,sans-Serif" font-size="10.00">/observer.h</text>
</a>
</g>
</g>
<!-- Node5&#45;&gt;Node11 -->
<g id="edge11_Node000005_Node000011" class="edge">
<title>Node5&#45;&gt;Node11</title>
<g id="a_edge11_Node000005_Node000011"><a xlink:title=" ">
<path fill="none" stroke="#63b8ff" d="M163.54,-175.95C178.31,-166.95 197.69,-155.14 213.89,-145.27"/>
<polygon fill="#63b8ff" stroke="#63b8ff" points="215.79,-148.21 222.51,-140.01 212.15,-142.23 215.79,-148.21"/>
</a>
</g>
</g>
<!-- Node8 -->
<g id="Node000008" class="node">
<title>Node8</title>
<g id="a_Node000008"><a xlink:title=" ">
<polygon fill="#e0e0e0" stroke="#999999" points="45,-74 0,-74 0,-55 45,-55 45,-74"/>
<text text-anchor="middle" x="22.5" y="-62" font-family="Helvetica,sans-Serif" font-size="10.00">utility</text>
</a>
</g>
</g>
<!-- Node7&#45;&gt;Node8 -->
<g id="edge7_Node000007_Node000008" class="edge">
<title>Node7&#45;&gt;Node8</title>
<g id="a_edge7_Node000007_Node000008"><a xlink:title=" ">
<path fill="none" stroke="#63b8ff" d="M49.03,-109.84C44.21,-101.78 38.13,-91.62 33,-83.06"/>
<polygon fill="#63b8ff" stroke="#63b8ff" points="35.88,-81.05 27.74,-74.27 29.88,-84.64 35.88,-81.05"/>
</a>
</g>
</g>
<!-- Node7&#45;&gt;Node9 -->
<g id="edge8_Node000007_Node000009" class="edge">
<title>Node7&#45;&gt;Node9</title>
<g id="a_edge8_Node000007_Node000009"><a xlink:title=" ">
<path fill="none" stroke="#63b8ff" d="M77.59,-109.84C90.38,-100.83 106.9,-89.18 119.8,-80.09"/>
<polygon fill="#63b8ff" stroke="#63b8ff" points="121.91,-82.89 128.06,-74.27 117.87,-77.17 121.91,-82.89"/>
</a>
</g>
</g>
<!-- Node10 -->
<g id="Node000010" class="node">
<title>Node10</title>
<g id="a_Node000010"><a xlink:title=" ">
<polygon fill="#e0e0e0" stroke="#999999" points="214.5,-19 170.5,-19 170.5,0 214.5,0 214.5,-19"/>
<text text-anchor="middle" x="192.5" y="-7" font-family="Helvetica,sans-Serif" font-size="10.00">string</text>
</a>
</g>
</g>
<!-- Node9&#45;&gt;Node10 -->
<g id="edge9_Node000009_Node000010" class="edge">
<title>Node9&#45;&gt;Node10</title>
<g id="a_edge9_Node000009_Node000010"><a xlink:title=" ">
<path fill="none" stroke="#63b8ff" d="M149.09,-54.75C156.66,-47.03 167.88,-35.6 177.01,-26.28"/>
<polygon fill="#63b8ff" stroke="#63b8ff" points="179.57,-28.68 184.07,-19.09 174.57,-23.78 179.57,-28.68"/>
</a>
</g>
</g>
<!-- Node11&#45;&gt;Node10 -->
<g id="edge12_Node000011_Node000010" class="edge">
<title>Node11&#45;&gt;Node10</title>
<g id="a_edge12_Node000011_Node000010"><a xlink:title=" ">
<path fill="none" stroke="#63b8ff" d="M243.27,-109.95C240.61,-95.59 235.39,-72.92 226.5,-55 221.49,-44.89 214.03,-34.81 207.38,-26.8"/>
<polygon fill="#63b8ff" stroke="#63b8ff" points="209.83,-24.28 200.63,-19.02 204.54,-28.87 209.83,-24.28"/>
</a>
</g>
</g>
<!-- Node13&#45;&gt;Node4 -->
<g id="edge19_Node000013_Node000004" class="edge">
<title>Node13&#45;&gt;Node4</title>
<g id="a_edge19_Node000013_Node000004"><a xlink:title=" ">
<path fill="none" stroke="#63b8ff" d="M492.18,-241.8C485.89,-232.21 477.55,-219.5 470.87,-209.32"/>
<polygon fill="#63b8ff" stroke="#63b8ff" points="473.72,-207.28 465.3,-200.84 467.86,-211.13 473.72,-207.28"/>
</a>
</g>
</g>
<!-- Node13&#45;&gt;Node6 -->
<g id="edge18_Node000013_Node000006" class="edge">
<title>Node13&#45;&gt;Node6</title>
<g id="a_edge18_Node000013_Node000006"><a xlink:title=" ">
<path fill="none" stroke="#63b8ff" d="M508.8,-241.84C521.07,-218.02 545.83,-169.99 559.29,-143.88"/>
<polygon fill="#63b8ff" stroke="#63b8ff" points="562.52,-145.24 563.99,-134.75 556.3,-142.03 562.52,-145.24"/>
</a>
</g>
</g>
<!-- Node13&#45;&gt;Node11 -->
<g id="edge17_Node000013_Node000011" class="edge">
<title>Node13&#45;&gt;Node11</title>
<g id="a_edge17_Node000013_Node000011"><a xlink:title=" ">
<path fill="none" stroke="#63b8ff" d="M504.43,-241.85C507.2,-224.1 508.83,-193.83 492.5,-176 468.87,-150.2 378.35,-137.12 313.75,-130.94"/>
<polygon fill="#63b8ff" stroke="#63b8ff" points="313.9,-127.44 303.62,-130 313.25,-134.41 313.9,-127.44"/>
</a>
</g>
</g>
<!-- Node15&#45;&gt;Node3 -->
<g id="edge26_Node000015_Node000003" class="edge">
<title>Node15&#45;&gt;Node3</title>
<g id="a_edge26_Node000015_Node000003"><a xlink:title=" ">
<path fill="none" stroke="#63b8ff" d="M461.82,-307.95C445.21,-298.87 423.38,-286.93 405.23,-277"/>
<polygon fill="#63b8ff" stroke="#63b8ff" points="406.57,-273.74 396.12,-272.01 403.21,-279.88 406.57,-273.74"/>
</a>
</g>
</g>
<!-- Node15&#45;&gt;Node6 -->
<g id="edge25_Node000015_Node000006" class="edge">
<title>Node15&#45;&gt;Node6</title>
<g id="a_edge25_Node000015_Node000006"><a xlink:title=" ">
<path fill="none" stroke="#63b8ff" d="M526.57,-307.89C542.55,-299.96 559.4,-288.31 568.5,-272 591.28,-231.17 581.23,-173.39 573.84,-144.28"/>
<polygon fill="#63b8ff" stroke="#63b8ff" points="577.21,-143.35 571.21,-134.62 570.46,-145.19 577.21,-143.35"/>
</a>
</g>
</g>
</g>
</svg>
