<?xml version="1.0" encoding="UTF-8" standalone="no"?>
<!DOCTYPE svg PUBLIC "-//W3C//DTD SVG 1.1//EN"
 "http://www.w3.org/Graphics/SVG/1.1/DTD/svg11.dtd">
<!-- Generated by graphviz version 2.43.0 (0)
 -->
<!-- Title: examples/monte_carlo/tic_tac_toe/include/tic_tac_toe/models/game_state.h Pages: 1 -->
<svg width="1308pt" height="225pt"
 viewBox="0.00 0.00 1307.50 225.00" xmlns="http://www.w3.org/2000/svg" xmlns:xlink="http://www.w3.org/1999/xlink">
<g id="graph0" class="graph" transform="scale(1 1) rotate(0) translate(4 221)">
<title>examples/monte_carlo/tic_tac_toe/include/tic_tac_toe/models/game_state.h</title>
<!-- Node1 -->
<g id="Node000001" class="node">
<title>Node1</title>
<g id="a_Node000001"><a xlink:title=" ">
<polygon fill="#999999" stroke="#666666" points="1002.5,-217 859.5,-217 859.5,-165 1002.5,-165 1002.5,-217"/>
<text text-anchor="start" x="867.5" y="-205" font-family="Helvetica,sans-Serif" font-size="10.00">examples/monte_carlo</text>
<text text-anchor="start" x="867.5" y="-194" font-family="Helvetica,sans-Serif" font-size="10.00">/tic_tac_toe/include</text>
<text text-anchor="start" x="867.5" y="-183" font-family="Helvetica,sans-Serif" font-size="10.00">/tic_tac_toe/models/game</text>
<text text-anchor="middle" x="931" y="-172" font-family="Helvetica,sans-Serif" font-size="10.00">_state.h</text>
</a>
</g>
</g>
<!-- Node2 -->
<g id="Node000002" class="node">
<title>Node2</title>
<g id="a_Node000002"><a xlink:href="tic__tac__toe__factory_8h.html" target="_top" xlink:title=" ">
<polygon fill="white" stroke="#666666" points="517,-129 389,-129 389,-77 517,-77 517,-129"/>
<text text-anchor="start" x="397" y="-117" font-family="Helvetica,sans-Serif" font-size="10.00">examples/monte_carlo</text>
<text text-anchor="start" x="397" y="-106" font-family="Helvetica,sans-Serif" font-size="10.00">/tic_tac_toe/include</text>
<text text-anchor="start" x="397" y="-95" font-family="Helvetica,sans-Serif" font-size="10.00">/tic_tac_toe/factories</text>
<text text-anchor="middle" x="453" y="-84" font-family="Helvetica,sans-Serif" font-size="10.00">/tic_tac_toe_factory.h</text>
</a>
</g>
</g>
<!-- Node1&#45;&gt;Node2 -->
<g id="edge1_Node000001_Node000002" class="edge">
<title>Node1&#45;&gt;Node2</title>
<g id="a_edge1_Node000001_Node000002"><a xlink:title=" ">
<path fill="none" stroke="#63b8ff" d="M849.4,-175.32C755.39,-158.4 602.86,-130.96 517.01,-115.52"/>
<polygon fill="#63b8ff" stroke="#63b8ff" points="848.98,-178.8 859.44,-177.12 850.22,-171.91 848.98,-178.8"/>
</a>
</g>
</g>
<!-- Node8 -->
<g id="Node000008" class="node">
<title>Node8</title>
<g id="a_Node000008"><a xlink:href="move_8h.html" target="_top" xlink:title=" ">
<polygon fill="white" stroke="#666666" points="838,-123.5 686,-123.5 686,-82.5 838,-82.5 838,-123.5"/>
<text text-anchor="start" x="694" y="-111.5" font-family="Helvetica,sans-Serif" font-size="10.00">examples/monte_carlo</text>
<text text-anchor="start" x="694" y="-100.5" font-family="Helvetica,sans-Serif" font-size="10.00">/tic_tac_toe/include</text>
<text text-anchor="middle" x="762" y="-89.5" font-family="Helvetica,sans-Serif" font-size="10.00">/tic_tac_toe/models/move.h</text>
</a>
</g>
</g>
<!-- Node1&#45;&gt;Node8 -->
<g id="edge7_Node000001_Node000008" class="edge">
<title>Node1&#45;&gt;Node8</title>
<g id="a_edge7_Node000001_Node000008"><a xlink:title=" ">
<path fill="none" stroke="#63b8ff" d="M872.67,-160.32C848.75,-148.15 821.73,-134.4 800.38,-123.53"/>
<polygon fill="#63b8ff" stroke="#63b8ff" points="871.16,-163.48 881.66,-164.89 874.34,-157.24 871.16,-163.48"/>
</a>
</g>
</g>
<!-- Node10 -->
<g id="Node000010" class="node">
<title>Node10</title>
<g id="a_Node000010"><a xlink:href="state_8h.html" target="_top" xlink:title=" ">
<polygon fill="white" stroke="#666666" points="1005.5,-123.5 856.5,-123.5 856.5,-82.5 1005.5,-82.5 1005.5,-123.5"/>
<text text-anchor="start" x="864.5" y="-111.5" font-family="Helvetica,sans-Serif" font-size="10.00">examples/monte_carlo</text>
<text text-anchor="start" x="864.5" y="-100.5" font-family="Helvetica,sans-Serif" font-size="10.00">/tic_tac_toe/include</text>
<text text-anchor="middle" x="931" y="-89.5" font-family="Helvetica,sans-Serif" font-size="10.00">/tic_tac_toe/models/state.h</text>
</a>
</g>
</g>
<!-- Node1&#45;&gt;Node10 -->
<g id="edge10_Node000001_Node000010" class="edge">
<title>Node1&#45;&gt;Node10</title>
<g id="a_edge10_Node000001_Node000010"><a xlink:title=" ">
<path fill="none" stroke="#63b8ff" d="M931,-154.45C931,-143.94 931,-132.82 931,-123.7"/>
<polygon fill="#63b8ff" stroke="#63b8ff" points="927.5,-154.66 931,-164.66 934.5,-154.66 927.5,-154.66"/>
</a>
</g>
</g>
<!-- Node13 -->
<g id="Node000013" class="node">
<title>Node13</title>
<g id="a_Node000013"><a xlink:href="game_8cpp.html" target="_top" xlink:title=" ">
<polygon fill="white" stroke="#666666" points="1152.5,-123.5 1023.5,-123.5 1023.5,-82.5 1152.5,-82.5 1152.5,-123.5"/>
<text text-anchor="start" x="1031.5" y="-111.5" font-family="Helvetica,sans-Serif" font-size="10.00">examples/monte_carlo</text>
<text text-anchor="start" x="1031.5" y="-100.5" font-family="Helvetica,sans-Serif" font-size="10.00">/tic_tac_toe/src/models</text>
<text text-anchor="middle" x="1088" y="-89.5" font-family="Helvetica,sans-Serif" font-size="10.00">/game.cpp</text>
</a>
</g>
</g>
<!-- Node1&#45;&gt;Node13 -->
<g id="edge14_Node000001_Node000013" class="edge">
<title>Node1&#45;&gt;Node13</title>
<g id="a_edge14_Node000001_Node000013"><a xlink:title=" ">
<path fill="none" stroke="#63b8ff" d="M985.78,-159.99C1007.85,-147.9 1032.68,-134.3 1052.35,-123.53"/>
<polygon fill="#63b8ff" stroke="#63b8ff" points="983.92,-157.02 976.83,-164.89 987.28,-163.16 983.92,-157.02"/>
</a>
</g>
</g>
<!-- Node14 -->
<g id="Node000014" class="node">
<title>Node14</title>
<g id="a_Node000014"><a xlink:href="game__state_8cpp.html" target="_top" xlink:title=" ">
<polygon fill="white" stroke="#666666" points="1299.5,-123.5 1170.5,-123.5 1170.5,-82.5 1299.5,-82.5 1299.5,-123.5"/>
<text text-anchor="start" x="1178.5" y="-111.5" font-family="Helvetica,sans-Serif" font-size="10.00">examples/monte_carlo</text>
<text text-anchor="start" x="1178.5" y="-100.5" font-family="Helvetica,sans-Serif" font-size="10.00">/tic_tac_toe/src/models</text>
<text text-anchor="middle" x="1235" y="-89.5" font-family="Helvetica,sans-Serif" font-size="10.00">/game_state.cpp</text>
</a>
</g>
</g>
<!-- Node1&#45;&gt;Node14 -->
<g id="edge15_Node000001_Node000014" class="edge">
<title>Node1&#45;&gt;Node14</title>
<g id="a_edge15_Node000001_Node000014"><a xlink:title=" ">
<path fill="none" stroke="#63b8ff" d="M1012.53,-169.99C1056.94,-158.71 1112.73,-143.92 1162,-129 1167.64,-127.29 1173.5,-125.43 1179.33,-123.52"/>
<polygon fill="#63b8ff" stroke="#63b8ff" points="1011.49,-166.64 1002.65,-172.49 1013.21,-173.43 1011.49,-166.64"/>
</a>
</g>
</g>
<!-- Node3 -->
<g id="Node000003" class="node">
<title>Node3</title>
<g id="a_Node000003"><a xlink:href="tic__tac__toe__factory_8cpp.html" target="_top" xlink:title=" ">
<polygon fill="white" stroke="#666666" points="766,-41 630,-41 630,0 766,0 766,-41"/>
<text text-anchor="start" x="638" y="-29" font-family="Helvetica,sans-Serif" font-size="10.00">examples/monte_carlo</text>
<text text-anchor="start" x="638" y="-18" font-family="Helvetica,sans-Serif" font-size="10.00">/tic_tac_toe/src/factories</text>
<text text-anchor="middle" x="698" y="-7" font-family="Helvetica,sans-Serif" font-size="10.00">/tic_tac_toe_factory.cpp</text>
</a>
</g>
</g>
<!-- Node2&#45;&gt;Node3 -->
<g id="edge2_Node000002_Node000003" class="edge">
<title>Node2&#45;&gt;Node3</title>
<g id="a_edge2_Node000002_Node000003"><a xlink:title=" ">
<path fill="none" stroke="#63b8ff" d="M526.94,-77.71C562.65,-65.97 604.93,-52.08 638.53,-41.04"/>
<polygon fill="#63b8ff" stroke="#63b8ff" points="525.46,-74.51 517.05,-80.95 527.64,-81.16 525.46,-74.51"/>
</a>
</g>
</g>
<!-- Node4 -->
<g id="Node000004" class="node">
<title>Node4</title>
<g id="a_Node000004"><a xlink:href="main_8cpp.html" target="_top" xlink:title=" ">
<polygon fill="white" stroke="#666666" points="138,-35.5 0,-35.5 0,-5.5 138,-5.5 138,-35.5"/>
<text text-anchor="start" x="8" y="-23.5" font-family="Helvetica,sans-Serif" font-size="10.00">examples/monte_carlo</text>
<text text-anchor="middle" x="69" y="-12.5" font-family="Helvetica,sans-Serif" font-size="10.00">/tic_tac_toe/src/main.cpp</text>
</a>
</g>
</g>
<!-- Node2&#45;&gt;Node4 -->
<g id="edge3_Node000002_Node000004" class="edge">
<title>Node2&#45;&gt;Node4</title>
<g id="a_edge3_Node000002_Node000004"><a xlink:title=" ">
<path fill="none" stroke="#63b8ff" d="M378.83,-88.25C316.73,-76.49 225.86,-58.71 147,-41 139.51,-39.32 131.64,-37.46 123.89,-35.58"/>
<polygon fill="#63b8ff" stroke="#63b8ff" points="378.45,-91.74 388.93,-90.16 379.75,-84.86 378.45,-91.74"/>
</a>
</g>
</g>
<!-- Node5 -->
<g id="Node000005" class="node">
<title>Node5</title>
<g id="a_Node000005"><a xlink:href="bot_8cpp.html" target="_top" xlink:title=" ">
<polygon fill="white" stroke="#666666" points="285.5,-41 156.5,-41 156.5,0 285.5,0 285.5,-41"/>
<text text-anchor="start" x="164.5" y="-29" font-family="Helvetica,sans-Serif" font-size="10.00">examples/monte_carlo</text>
<text text-anchor="start" x="164.5" y="-18" font-family="Helvetica,sans-Serif" font-size="10.00">/tic_tac_toe/src/models</text>
<text text-anchor="middle" x="221" y="-7" font-family="Helvetica,sans-Serif" font-size="10.00">/bot.cpp</text>
</a>
</g>
</g>
<!-- Node2&#45;&gt;Node5 -->
<g id="edge4_Node000002_Node000005" class="edge">
<title>Node2&#45;&gt;Node5</title>
<g id="a_edge4_Node000002_Node000005"><a xlink:title=" ">
<path fill="none" stroke="#63b8ff" d="M379.38,-76.45C346.34,-64.99 307.98,-51.68 277.3,-41.03"/>
<polygon fill="#63b8ff" stroke="#63b8ff" points="378.4,-79.82 388.99,-79.79 380.69,-73.21 378.4,-79.82"/>
</a>
</g>
</g>
<!-- Node6 -->
<g id="Node000006" class="node">
<title>Node6</title>
<g id="a_Node000006"><a xlink:href="state__tests_8cpp.html" target="_top" xlink:title=" ">
<polygon fill="white" stroke="#666666" points="438,-41 304,-41 304,0 438,0 438,-41"/>
<text text-anchor="start" x="312" y="-29" font-family="Helvetica,sans-Serif" font-size="10.00">examples/monte_carlo</text>
<text text-anchor="start" x="312" y="-18" font-family="Helvetica,sans-Serif" font-size="10.00">/tic_tac_toe/tests/model</text>
<text text-anchor="middle" x="371" y="-7" font-family="Helvetica,sans-Serif" font-size="10.00">_tests/state_tests.cpp</text>
</a>
</g>
</g>
<!-- Node2&#45;&gt;Node6 -->
<g id="edge5_Node000002_Node000006" class="edge">
<title>Node2&#45;&gt;Node6</title>
<g id="a_edge5_Node000002_Node000006"><a xlink:title=" ">
<path fill="none" stroke="#63b8ff" d="M420.13,-69.74C410.28,-60.06 399.77,-49.74 391.01,-41.15"/>
<polygon fill="#63b8ff" stroke="#63b8ff" points="417.92,-72.46 427.5,-76.97 422.82,-67.47 417.92,-72.46"/>
</a>
</g>
</g>
<!-- Node7 -->
<g id="Node000007" class="node">
<title>Node7</title>
<g id="a_Node000007"><a xlink:href="simulation__tests_8cpp.html" target="_top" xlink:title=" ">
<polygon fill="white" stroke="#666666" points="611.5,-41 456.5,-41 456.5,0 611.5,0 611.5,-41"/>
<text text-anchor="start" x="464.5" y="-29" font-family="Helvetica,sans-Serif" font-size="10.00">examples/monte_carlo</text>
<text text-anchor="start" x="464.5" y="-18" font-family="Helvetica,sans-Serif" font-size="10.00">/tic_tac_toe/tests/simulation</text>
<text text-anchor="middle" x="534" y="-7" font-family="Helvetica,sans-Serif" font-size="10.00">_tests.cpp</text>
</a>
</g>
</g>
<!-- Node2&#45;&gt;Node7 -->
<g id="edge6_Node000002_Node000007" class="edge">
<title>Node2&#45;&gt;Node7</title>
<g id="a_edge6_Node000002_Node000007"><a xlink:title=" ">
<path fill="none" stroke="#63b8ff" d="M485.46,-69.74C495.2,-60.06 505.58,-49.74 514.23,-41.15"/>
<polygon fill="#63b8ff" stroke="#63b8ff" points="482.81,-67.44 478.18,-76.97 487.75,-72.4 482.81,-67.44"/>
</a>
</g>
</g>
<!-- Node8&#45;&gt;Node3 -->
<g id="edge8_Node000008_Node000003" class="edge">
<title>Node8&#45;&gt;Node3</title>
<g id="a_edge8_Node000008_Node000003"><a xlink:title=" ">
<path fill="none" stroke="#63b8ff" d="M739.83,-74.12C731.2,-63.26 721.52,-51.08 713.64,-41.17"/>
<polygon fill="#63b8ff" stroke="#63b8ff" points="737.22,-76.45 746.18,-82.1 742.7,-72.1 737.22,-76.45"/>
</a>
</g>
</g>
<!-- Node9 -->
<g id="Node000009" class="node">
<title>Node9</title>
<g id="a_Node000009"><a xlink:href="move_8cpp.html" target="_top" xlink:title=" ">
<polygon fill="white" stroke="#666666" points="913.5,-41 784.5,-41 784.5,0 913.5,0 913.5,-41"/>
<text text-anchor="start" x="792.5" y="-29" font-family="Helvetica,sans-Serif" font-size="10.00">examples/monte_carlo</text>
<text text-anchor="start" x="792.5" y="-18" font-family="Helvetica,sans-Serif" font-size="10.00">/tic_tac_toe/src/models</text>
<text text-anchor="middle" x="849" y="-7" font-family="Helvetica,sans-Serif" font-size="10.00">/move.cpp</text>
</a>
</g>
</g>
<!-- Node8&#45;&gt;Node9 -->
<g id="edge9_Node000008_Node000009" class="edge">
<title>Node8&#45;&gt;Node9</title>
<g id="a_edge9_Node000008_Node000009"><a xlink:title=" ">
<path fill="none" stroke="#63b8ff" d="M791.1,-75.07C803.09,-63.98 816.72,-51.37 827.74,-41.17"/>
<polygon fill="#63b8ff" stroke="#63b8ff" points="788.47,-72.74 783.51,-82.1 793.22,-77.88 788.47,-72.74"/>
</a>
</g>
</g>
<!-- Node10&#45;&gt;Node3 -->
<g id="edge11_Node000010_Node000003" class="edge">
<title>Node10&#45;&gt;Node3</title>
<g id="a_edge11_Node000010_Node000003"><a xlink:title=" ">
<path fill="none" stroke="#63b8ff" d="M864.7,-79.09C829.92,-67.08 787.77,-52.51 754.55,-41.04"/>
<polygon fill="#63b8ff" stroke="#63b8ff" points="863.7,-82.45 874.3,-82.41 865.99,-75.84 863.7,-82.45"/>
</a>
</g>
</g>
<!-- Node11 -->
<g id="Node000011" class="node">
<title>Node11</title>
<g id="a_Node000011"><a xlink:href="position_8cpp.html" target="_top" xlink:title=" ">
<polygon fill="white" stroke="#666666" points="1060.5,-41 931.5,-41 931.5,0 1060.5,0 1060.5,-41"/>
<text text-anchor="start" x="939.5" y="-29" font-family="Helvetica,sans-Serif" font-size="10.00">examples/monte_carlo</text>
<text text-anchor="start" x="939.5" y="-18" font-family="Helvetica,sans-Serif" font-size="10.00">/tic_tac_toe/src/models</text>
<text text-anchor="middle" x="996" y="-7" font-family="Helvetica,sans-Serif" font-size="10.00">/position.cpp</text>
</a>
</g>
</g>
<!-- Node10&#45;&gt;Node11 -->
<g id="edge12_Node000010_Node000011" class="edge">
<title>Node10&#45;&gt;Node11</title>
<g id="a_edge12_Node000010_Node000011"><a xlink:title=" ">
<path fill="none" stroke="#63b8ff" d="M953.51,-74.12C962.28,-63.26 972.12,-51.08 980.12,-41.17"/>
<polygon fill="#63b8ff" stroke="#63b8ff" points="950.63,-72.12 947.07,-82.1 956.07,-76.52 950.63,-72.12"/>
</a>
</g>
</g>
<!-- Node12 -->
<g id="Node000012" class="node">
<title>Node12</title>
<g id="a_Node000012"><a xlink:href="state_8cpp.html" target="_top" xlink:title=" ">
<polygon fill="white" stroke="#666666" points="1207.5,-41 1078.5,-41 1078.5,0 1207.5,0 1207.5,-41"/>
<text text-anchor="start" x="1086.5" y="-29" font-family="Helvetica,sans-Serif" font-size="10.00">examples/monte_carlo</text>
<text text-anchor="start" x="1086.5" y="-18" font-family="Helvetica,sans-Serif" font-size="10.00">/tic_tac_toe/src/models</text>
<text text-anchor="middle" x="1143" y="-7" font-family="Helvetica,sans-Serif" font-size="10.00">/state.cpp</text>
</a>
</g>
</g>
<!-- Node10&#45;&gt;Node12 -->
<g id="edge13_Node000010_Node000012" class="edge">
<title>Node10&#45;&gt;Node12</title>
<g id="a_edge13_Node000010_Node000012"><a xlink:title=" ">
<path fill="none" stroke="#63b8ff" d="M992.14,-78.79C1023.62,-66.83 1061.58,-52.42 1091.55,-41.04"/>
<polygon fill="#63b8ff" stroke="#63b8ff" points="990.7,-75.59 982.59,-82.41 993.18,-82.13 990.7,-75.59"/>
</a>
</g>
</g>
</g>
</svg>
