<?xml version="1.0" encoding="UTF-8" standalone="no"?>
<!DOCTYPE svg PUBLIC "-//W3C//DTD SVG 1.1//EN"
 "http://www.w3.org/Graphics/SVG/1.1/DTD/svg11.dtd">
<!-- Generated by graphviz version 2.43.0 (0)
 -->
<!-- Title: examples/monte_carlo/tic_tac_toe/include/tic_tac_toe/models/game.h Pages: 1 -->
<svg width="521pt" height="357pt"
 viewBox="0.00 0.00 521.07 357.00" xmlns="http://www.w3.org/2000/svg" xmlns:xlink="http://www.w3.org/1999/xlink">
<g id="graph0" class="graph" transform="scale(1 1) rotate(0) translate(4 353)">
<title>examples/monte_carlo/tic_tac_toe/include/tic_tac_toe/models/game.h</title>
<!-- Node1 -->
<g id="Node000001" class="node">
<title>Node1</title>
<g id="a_Node000001"><a xlink:title=" ">
<polygon fill="#999999" stroke="#666666" points="219.99,-349 67.99,-349 67.99,-308 219.99,-308 219.99,-349"/>
<text text-anchor="start" x="75.99" y="-337" font-family="Helvetica,sans-Serif" font-size="10.00">examples/monte_carlo</text>
<text text-anchor="start" x="75.99" y="-326" font-family="Helvetica,sans-Serif" font-size="10.00">/tic_tac_toe/include</text>
<text text-anchor="middle" x="143.99" y="-315" font-family="Helvetica,sans-Serif" font-size="10.00">/tic_tac_toe/models/game.h</text>
</a>
</g>
</g>
<!-- Node2 -->
<g id="Node000002" class="node">
<title>Node2</title>
<g id="a_Node000002"><a xlink:href="board_8h.html" target="_top" xlink:title=" ">
<polygon fill="white" stroke="#666666" points="264.49,-272 155.49,-272 155.49,-242 264.49,-242 264.49,-272"/>
<text text-anchor="start" x="163.49" y="-260" font-family="Helvetica,sans-Serif" font-size="10.00">tic_tac_toe/models</text>
<text text-anchor="middle" x="209.99" y="-249" font-family="Helvetica,sans-Serif" font-size="10.00">/board.h</text>
</a>
</g>
</g>
<!-- Node1&#45;&gt;Node2 -->
<g id="edge1_Node000001_Node000002" class="edge">
<title>Node1&#45;&gt;Node2</title>
<g id="a_edge1_Node000001_Node000002"><a xlink:title=" ">
<path fill="none" stroke="#63b8ff" d="M162.72,-307.77C171.09,-298.95 180.98,-288.54 189.54,-279.53"/>
<polygon fill="#63b8ff" stroke="#63b8ff" points="192.31,-281.7 196.66,-272.04 187.23,-276.88 192.31,-281.7"/>
</a>
</g>
</g>
<!-- Node5 -->
<g id="Node000005" class="node">
<title>Node5</title>
<g id="a_Node000005"><a xlink:title=" ">
<polygon fill="#e0e0e0" stroke="#999999" points="67.99,-134.5 9.99,-134.5 9.99,-115.5 67.99,-115.5 67.99,-134.5"/>
<text text-anchor="middle" x="38.99" y="-122.5" font-family="Helvetica,sans-Serif" font-size="10.00">memory</text>
</a>
</g>
</g>
<!-- Node1&#45;&gt;Node5 -->
<g id="edge19_Node000001_Node000005" class="edge">
<title>Node1&#45;&gt;Node5</title>
<g id="a_edge19_Node000001_Node000005"><a xlink:title=" ">
<path fill="none" stroke="#63b8ff" d="M67.84,-312.34C46.15,-304.12 24.92,-291.46 11.99,-272 -14.67,-231.88 11.98,-172.53 28.31,-143.41"/>
<polygon fill="#63b8ff" stroke="#63b8ff" points="31.34,-145.16 33.37,-134.76 25.3,-141.63 31.34,-145.16"/>
</a>
</g>
</g>
<!-- Node12 -->
<g id="Node000012" class="node">
<title>Node12</title>
<g id="a_Node000012"><a xlink:href="subject_8h.html" target="_top" xlink:title=" ">
<polygon fill="white" stroke="#666666" points="136.99,-272 20.99,-272 20.99,-242 136.99,-242 136.99,-272"/>
<text text-anchor="start" x="28.99" y="-260" font-family="Helvetica,sans-Serif" font-size="10.00">tic_tac_toe/observer</text>
<text text-anchor="middle" x="78.99" y="-249" font-family="Helvetica,sans-Serif" font-size="10.00">/subject.h</text>
</a>
</g>
</g>
<!-- Node1&#45;&gt;Node12 -->
<g id="edge15_Node000001_Node000012" class="edge">
<title>Node1&#45;&gt;Node12</title>
<g id="a_edge15_Node000001_Node000012"><a xlink:title=" ">
<path fill="none" stroke="#63b8ff" d="M125.53,-307.77C117.29,-298.95 107.55,-288.54 99.12,-279.53"/>
<polygon fill="#63b8ff" stroke="#63b8ff" points="101.5,-276.95 92.12,-272.04 96.39,-281.73 101.5,-276.95"/>
</a>
</g>
</g>
<!-- Node13 -->
<g id="Node000013" class="node">
<title>Node13</title>
<g id="a_Node000013"><a xlink:title=" ">
<polygon fill="#e0e0e0" stroke="#999999" points="347.49,-266.5 282.49,-266.5 282.49,-247.5 347.49,-247.5 347.49,-266.5"/>
<text text-anchor="middle" x="314.99" y="-254.5" font-family="Helvetica,sans-Serif" font-size="10.00">stdexcept</text>
</a>
</g>
</g>
<!-- Node1&#45;&gt;Node13 -->
<g id="edge20_Node000001_Node000013" class="edge">
<title>Node1&#45;&gt;Node13</title>
<g id="a_edge20_Node000001_Node000013"><a xlink:title=" ">
<path fill="none" stroke="#63b8ff" d="M192.07,-307.96C221.73,-295.9 258.85,-280.81 284.5,-270.39"/>
<polygon fill="#63b8ff" stroke="#63b8ff" points="286.12,-273.51 294.06,-266.5 283.48,-267.03 286.12,-273.51"/>
</a>
</g>
</g>
<!-- Node3 -->
<g id="Node000003" class="node">
<title>Node3</title>
<g id="a_Node000003"><a xlink:title=" ">
<polygon fill="#e0e0e0" stroke="#999999" points="144.49,-200.5 97.49,-200.5 97.49,-181.5 144.49,-181.5 144.49,-200.5"/>
<text text-anchor="middle" x="120.99" y="-188.5" font-family="Helvetica,sans-Serif" font-size="10.00">vector</text>
</a>
</g>
</g>
<!-- Node2&#45;&gt;Node3 -->
<g id="edge2_Node000002_Node000003" class="edge">
<title>Node2&#45;&gt;Node3</title>
<g id="a_edge2_Node000002_Node000003"><a xlink:title=" ">
<path fill="none" stroke="#63b8ff" d="M190.23,-241.8C175.73,-231.37 156.08,-217.24 141.42,-206.69"/>
<polygon fill="#63b8ff" stroke="#63b8ff" points="143.19,-203.66 133.03,-200.66 139.1,-209.34 143.19,-203.66"/>
</a>
</g>
</g>
<!-- Node4 -->
<g id="Node000004" class="node">
<title>Node4</title>
<g id="a_Node000004"><a xlink:href="player_8h.html" target="_top" xlink:title=" ">
<polygon fill="white" stroke="#666666" points="310.49,-206 201.49,-206 201.49,-176 310.49,-176 310.49,-206"/>
<text text-anchor="start" x="209.49" y="-194" font-family="Helvetica,sans-Serif" font-size="10.00">tic_tac_toe/models</text>
<text text-anchor="middle" x="255.99" y="-183" font-family="Helvetica,sans-Serif" font-size="10.00">/player.h</text>
</a>
</g>
</g>
<!-- Node2&#45;&gt;Node4 -->
<g id="edge3_Node000002_Node000004" class="edge">
<title>Node2&#45;&gt;Node4</title>
<g id="a_edge3_Node000002_Node000004"><a xlink:title=" ">
<path fill="none" stroke="#63b8ff" d="M220.2,-241.8C225.97,-233.76 233.33,-223.53 239.87,-214.43"/>
<polygon fill="#63b8ff" stroke="#63b8ff" points="242.81,-216.33 245.81,-206.16 237.13,-212.24 242.81,-216.33"/>
</a>
</g>
</g>
<!-- Node2&#45;&gt;Node5 -->
<g id="edge14_Node000002_Node000005" class="edge">
<title>Node2&#45;&gt;Node5</title>
<g id="a_edge14_Node000002_Node000005"><a xlink:title=" ">
<path fill="none" stroke="#63b8ff" d="M202.95,-241.79C193.65,-224.25 175.75,-194.5 152.99,-176 140.01,-165.45 101.06,-149.39 72.29,-138.33"/>
<polygon fill="#63b8ff" stroke="#63b8ff" points="73.18,-134.92 62.59,-134.64 70.7,-141.47 73.18,-134.92"/>
</a>
</g>
</g>
<!-- Node6 -->
<g id="Node000006" class="node">
<title>Node6</title>
<g id="a_Node000006"><a xlink:href="position_8h.html" target="_top" xlink:title=" ">
<polygon fill="white" stroke="#666666" points="411.49,-140 302.49,-140 302.49,-110 411.49,-110 411.49,-140"/>
<text text-anchor="start" x="310.49" y="-128" font-family="Helvetica,sans-Serif" font-size="10.00">tic_tac_toe/models</text>
<text text-anchor="middle" x="356.99" y="-117" font-family="Helvetica,sans-Serif" font-size="10.00">/position.h</text>
</a>
</g>
</g>
<!-- Node2&#45;&gt;Node6 -->
<g id="edge12_Node000002_Node000006" class="edge">
<title>Node2&#45;&gt;Node6</title>
<g id="a_edge12_Node000002_Node000006"><a xlink:title=" ">
<path fill="none" stroke="#63b8ff" d="M264.75,-243.79C267.87,-243.17 270.97,-242.56 273.99,-242 325.05,-232.44 471.2,-245.46 504.99,-206 534.43,-171.61 473.96,-149.53 421.66,-137.47"/>
<polygon fill="#63b8ff" stroke="#63b8ff" points="422.2,-134 411.68,-135.26 420.68,-140.84 422.2,-134"/>
</a>
</g>
</g>
<!-- Node11 -->
<g id="Node000011" class="node">
<title>Node11</title>
<g id="a_Node000011"><a xlink:href="alignment_8h.html" target="_top" xlink:title=" ">
<polygon fill="white" stroke="#666666" points="495.49,-200.5 328.49,-200.5 328.49,-181.5 495.49,-181.5 495.49,-200.5"/>
<text text-anchor="middle" x="411.99" y="-188.5" font-family="Helvetica,sans-Serif" font-size="10.00">tic_tac_toe/enums/alignment.h</text>
</a>
</g>
</g>
<!-- Node2&#45;&gt;Node11 -->
<g id="edge13_Node000002_Node000011" class="edge">
<title>Node2&#45;&gt;Node11</title>
<g id="a_edge13_Node000002_Node000011"><a xlink:title=" ">
<path fill="none" stroke="#63b8ff" d="M254.32,-241.95C290.68,-230.43 341.53,-214.32 375.55,-203.54"/>
<polygon fill="#63b8ff" stroke="#63b8ff" points="376.63,-206.87 385.1,-200.52 374.51,-200.2 376.63,-206.87"/>
</a>
</g>
</g>
<!-- Node4&#45;&gt;Node5 -->
<g id="edge4_Node000004_Node000005" class="edge">
<title>Node4&#45;&gt;Node5</title>
<g id="a_edge4_Node000004_Node000005"><a xlink:title=" ">
<path fill="none" stroke="#63b8ff" d="M206.61,-175.91C172.19,-166.03 125.23,-152.41 83.99,-140 81.36,-139.21 78.65,-138.39 75.92,-137.55"/>
<polygon fill="#63b8ff" stroke="#63b8ff" points="76.68,-134.12 66.09,-134.52 74.61,-140.81 76.68,-134.12"/>
</a>
</g>
</g>
<!-- Node4&#45;&gt;Node6 -->
<g id="edge5_Node000004_Node000006" class="edge">
<title>Node4&#45;&gt;Node6</title>
<g id="a_edge5_Node000004_Node000006"><a xlink:title=" ">
<path fill="none" stroke="#63b8ff" d="M278.4,-175.8C292.39,-166.93 310.6,-155.39 325.97,-145.66"/>
<polygon fill="#63b8ff" stroke="#63b8ff" points="328.06,-148.47 334.63,-140.16 324.31,-142.56 328.06,-148.47"/>
</a>
</g>
</g>
<!-- Node8 -->
<g id="Node000008" class="node">
<title>Node8</title>
<g id="a_Node000008"><a xlink:href="symbol_8h.html" target="_top" xlink:title=" ">
<polygon fill="white" stroke="#666666" points="332.99,-74 178.99,-74 178.99,-55 332.99,-55 332.99,-74"/>
<text text-anchor="middle" x="255.99" y="-62" font-family="Helvetica,sans-Serif" font-size="10.00">tic_tac_toe/enums/symbol.h</text>
</a>
</g>
</g>
<!-- Node4&#45;&gt;Node8 -->
<g id="edge9_Node000004_Node000008" class="edge">
<title>Node4&#45;&gt;Node8</title>
<g id="a_edge9_Node000004_Node000008"><a xlink:title=" ">
<path fill="none" stroke="#63b8ff" d="M255.99,-175.72C255.99,-153.12 255.99,-109.12 255.99,-84.09"/>
<polygon fill="#63b8ff" stroke="#63b8ff" points="259.49,-84.07 255.99,-74.07 252.49,-84.07 259.49,-84.07"/>
</a>
</g>
</g>
<!-- Node10 -->
<g id="Node000010" class="node">
<title>Node10</title>
<g id="a_Node000010"><a xlink:href="observer_8h.html" target="_top" xlink:title=" ">
<polygon fill="white" stroke="#666666" points="208.99,-140 92.99,-140 92.99,-110 208.99,-110 208.99,-140"/>
<text text-anchor="start" x="100.99" y="-128" font-family="Helvetica,sans-Serif" font-size="10.00">tic_tac_toe/observer</text>
<text text-anchor="middle" x="150.99" y="-117" font-family="Helvetica,sans-Serif" font-size="10.00">/observer.h</text>
</a>
</g>
</g>
<!-- Node4&#45;&gt;Node10 -->
<g id="edge10_Node000004_Node000010" class="edge">
<title>Node4&#45;&gt;Node10</title>
<g id="a_edge10_Node000004_Node000010"><a xlink:title=" ">
<path fill="none" stroke="#63b8ff" d="M232.94,-175.95C218.17,-166.95 198.8,-155.14 182.6,-145.27"/>
<polygon fill="#63b8ff" stroke="#63b8ff" points="184.34,-142.23 173.98,-140.01 180.69,-148.21 184.34,-142.23"/>
</a>
</g>
</g>
<!-- Node7 -->
<g id="Node000007" class="node">
<title>Node7</title>
<g id="a_Node000007"><a xlink:title=" ">
<polygon fill="#e0e0e0" stroke="#999999" points="396.49,-74 351.49,-74 351.49,-55 396.49,-55 396.49,-74"/>
<text text-anchor="middle" x="373.99" y="-62" font-family="Helvetica,sans-Serif" font-size="10.00">utility</text>
</a>
</g>
</g>
<!-- Node6&#45;&gt;Node7 -->
<g id="edge6_Node000006_Node000007" class="edge">
<title>Node6&#45;&gt;Node7</title>
<g id="a_edge6_Node000006_Node000007"><a xlink:title=" ">
<path fill="none" stroke="#63b8ff" d="M361.1,-109.84C363.37,-102.04 366.21,-92.27 368.64,-83.89"/>
<polygon fill="#63b8ff" stroke="#63b8ff" points="372.01,-84.85 371.44,-74.27 365.29,-82.89 372.01,-84.85"/>
</a>
</g>
</g>
<!-- Node6&#45;&gt;Node8 -->
<g id="edge7_Node000006_Node000008" class="edge">
<title>Node6&#45;&gt;Node8</title>
<g id="a_edge7_Node000006_Node000008"><a xlink:title=" ">
<path fill="none" stroke="#63b8ff" d="M332.79,-109.99C316.7,-100.66 295.65,-88.47 279.66,-79.21"/>
<polygon fill="#63b8ff" stroke="#63b8ff" points="281.31,-76.12 270.9,-74.14 277.8,-82.18 281.31,-76.12"/>
</a>
</g>
</g>
<!-- Node9 -->
<g id="Node000009" class="node">
<title>Node9</title>
<g id="a_Node000009"><a xlink:title=" ">
<polygon fill="#e0e0e0" stroke="#999999" points="224.99,-19 180.99,-19 180.99,0 224.99,0 224.99,-19"/>
<text text-anchor="middle" x="202.99" y="-7" font-family="Helvetica,sans-Serif" font-size="10.00">string</text>
</a>
</g>
</g>
<!-- Node8&#45;&gt;Node9 -->
<g id="edge8_Node000008_Node000009" class="edge">
<title>Node8&#45;&gt;Node9</title>
<g id="a_edge8_Node000008_Node000009"><a xlink:title=" ">
<path fill="none" stroke="#63b8ff" d="M247.23,-54.75C239.52,-47.03 228.08,-35.6 218.77,-26.28"/>
<polygon fill="#63b8ff" stroke="#63b8ff" points="221.12,-23.69 211.58,-19.09 216.17,-28.64 221.12,-23.69"/>
</a>
</g>
</g>
<!-- Node10&#45;&gt;Node9 -->
<g id="edge11_Node000010_Node000009" class="edge">
<title>Node10&#45;&gt;Node9</title>
<g id="a_edge11_Node000010_Node000009"><a xlink:title=" ">
<path fill="none" stroke="#63b8ff" d="M153.27,-109.98C155.97,-95.64 161.22,-72.98 169.99,-55 174.87,-44.97 182.11,-34.89 188.56,-26.86"/>
<polygon fill="#63b8ff" stroke="#63b8ff" points="191.36,-28.98 195.11,-19.06 186,-24.48 191.36,-28.98"/>
</a>
</g>
</g>
<!-- Node12&#45;&gt;Node3 -->
<g id="edge18_Node000012_Node000003" class="edge">
<title>Node12&#45;&gt;Node3</title>
<g id="a_edge18_Node000012_Node000003"><a xlink:title=" ">
<path fill="none" stroke="#63b8ff" d="M88.31,-241.8C94.6,-232.21 102.94,-219.5 109.62,-209.32"/>
<polygon fill="#63b8ff" stroke="#63b8ff" points="112.62,-211.13 115.18,-200.84 106.77,-207.28 112.62,-211.13"/>
</a>
</g>
</g>
<!-- Node12&#45;&gt;Node5 -->
<g id="edge17_Node000012_Node000005" class="edge">
<title>Node12&#45;&gt;Node5</title>
<g id="a_edge17_Node000012_Node000005"><a xlink:title=" ">
<path fill="none" stroke="#63b8ff" d="M71.07,-241.96C65.84,-232.15 59.2,-218.6 54.99,-206 48.13,-185.48 43.76,-160.97 41.35,-144.53"/>
<polygon fill="#63b8ff" stroke="#63b8ff" points="44.81,-144.02 39.99,-134.59 37.88,-144.97 44.81,-144.02"/>
</a>
</g>
</g>
<!-- Node12&#45;&gt;Node10 -->
<g id="edge16_Node000012_Node000010" class="edge">
<title>Node12&#45;&gt;Node10</title>
<g id="a_edge16_Node000012_Node000010"><a xlink:title=" ">
<path fill="none" stroke="#63b8ff" d="M77.43,-241.72C76.28,-224.91 76.54,-196.66 87.99,-176 94.61,-164.05 105.37,-153.93 116.14,-145.99"/>
<polygon fill="#63b8ff" stroke="#63b8ff" points="118.45,-148.65 124.7,-140.09 114.48,-142.88 118.45,-148.65"/>
</a>
</g>
</g>
</g>
</svg>
