<?xml version="1.0" encoding="UTF-8" standalone="no"?>
<!DOCTYPE svg PUBLIC "-//W3C//DTD SVG 1.1//EN"
 "http://www.w3.org/Graphics/SVG/1.1/DTD/svg11.dtd">
<!-- Generated by graphviz version 2.43.0 (0)
 -->
<!-- Title: examples/monte_carlo/tic_tac_toe/src/models/game_state.cpp Pages: 1 -->
<svg width="513pt" height="434pt"
 viewBox="0.00 0.00 512.50 434.00" xmlns="http://www.w3.org/2000/svg" xmlns:xlink="http://www.w3.org/1999/xlink">
<g id="graph0" class="graph" transform="scale(1 1) rotate(0) translate(4 430)">
<title>examples/monte_carlo/tic_tac_toe/src/models/game_state.cpp</title>
<!-- Node1 -->
<g id="Node000001" class="node">
<title>Node1</title>
<g id="a_Node000001"><a xlink:title=" ">
<polygon fill="#999999" stroke="#666666" points="453.5,-426 324.5,-426 324.5,-385 453.5,-385 453.5,-426"/>
<text text-anchor="start" x="332.5" y="-414" font-family="Helvetica,sans-Serif" font-size="10.00">examples/monte_carlo</text>
<text text-anchor="start" x="332.5" y="-403" font-family="Helvetica,sans-Serif" font-size="10.00">/tic_tac_toe/src/models</text>
<text text-anchor="middle" x="389" y="-392" font-family="Helvetica,sans-Serif" font-size="10.00">/game_state.cpp</text>
</a>
</g>
</g>
<!-- Node2 -->
<g id="Node000002" class="node">
<title>Node2</title>
<g id="a_Node000002"><a xlink:href="game__state_8h.html" target="_top" xlink:title=" ">
<polygon fill="white" stroke="#666666" points="350.5,-349 241.5,-349 241.5,-319 350.5,-319 350.5,-349"/>
<text text-anchor="start" x="249.5" y="-337" font-family="Helvetica,sans-Serif" font-size="10.00">tic_tac_toe/models</text>
<text text-anchor="middle" x="296" y="-326" font-family="Helvetica,sans-Serif" font-size="10.00">/game_state.h</text>
</a>
</g>
</g>
<!-- Node1&#45;&gt;Node2 -->
<g id="edge1_Node000001_Node000002" class="edge">
<title>Node1&#45;&gt;Node2</title>
<g id="a_edge1_Node000001_Node000002"><a xlink:title=" ">
<path fill="none" stroke="#63b8ff" d="M362.6,-384.77C350.21,-375.51 335.46,-364.49 322.99,-355.17"/>
<polygon fill="#63b8ff" stroke="#63b8ff" points="324.89,-352.22 314.78,-349.04 320.7,-357.83 324.89,-352.22"/>
</a>
</g>
</g>
<!-- Node8 -->
<g id="Node000008" class="node">
<title>Node8</title>
<g id="a_Node000008"><a xlink:title=" ">
<polygon fill="#e0e0e0" stroke="#999999" points="504.5,-79.5 459.5,-79.5 459.5,-60.5 504.5,-60.5 504.5,-79.5"/>
<text text-anchor="middle" x="482" y="-67.5" font-family="Helvetica,sans-Serif" font-size="10.00">utility</text>
</a>
</g>
</g>
<!-- Node1&#45;&gt;Node8 -->
<g id="edge17_Node000001_Node000008" class="edge">
<title>Node1&#45;&gt;Node8</title>
<g id="a_edge17_Node000001_Node000008"><a xlink:title=" ">
<path fill="none" stroke="#63b8ff" d="M413.92,-384.9C441.47,-360.83 482,-317.22 482,-269 482,-269 482,-269 482,-201 482,-161.45 482,-115.13 482,-89.84"/>
<polygon fill="#63b8ff" stroke="#63b8ff" points="485.5,-89.52 482,-79.52 478.5,-89.52 485.5,-89.52"/>
</a>
</g>
</g>
<!-- Node3 -->
<g id="Node000003" class="node">
<title>Node3</title>
<g id="a_Node000003"><a xlink:title=" ">
<polygon fill="#e0e0e0" stroke="#999999" points="58,-145.5 0,-145.5 0,-126.5 58,-126.5 58,-145.5"/>
<text text-anchor="middle" x="29" y="-133.5" font-family="Helvetica,sans-Serif" font-size="10.00">memory</text>
</a>
</g>
</g>
<!-- Node2&#45;&gt;Node3 -->
<g id="edge2_Node000002_Node000003" class="edge">
<title>Node2&#45;&gt;Node3</title>
<g id="a_edge2_Node000002_Node000003"><a xlink:title=" ">
<path fill="none" stroke="#63b8ff" d="M241.32,-326.87C177.67,-316.47 75.25,-288.93 28,-217 16.05,-198.81 19.1,-172.92 23.27,-155.57"/>
<polygon fill="#63b8ff" stroke="#63b8ff" points="26.74,-156.13 26.02,-145.56 19.99,-154.28 26.74,-156.13"/>
</a>
</g>
</g>
<!-- Node4 -->
<g id="Node000004" class="node">
<title>Node4</title>
<g id="a_Node000004"><a xlink:href="board_8h.html" target="_top" xlink:title=" ">
<polygon fill="white" stroke="#666666" points="350.5,-283 241.5,-283 241.5,-253 350.5,-253 350.5,-283"/>
<text text-anchor="start" x="249.5" y="-271" font-family="Helvetica,sans-Serif" font-size="10.00">tic_tac_toe/models</text>
<text text-anchor="middle" x="296" y="-260" font-family="Helvetica,sans-Serif" font-size="10.00">/board.h</text>
</a>
</g>
</g>
<!-- Node2&#45;&gt;Node4 -->
<g id="edge3_Node000002_Node000004" class="edge">
<title>Node2&#45;&gt;Node4</title>
<g id="a_edge3_Node000002_Node000004"><a xlink:title=" ">
<path fill="none" stroke="#63b8ff" d="M296,-318.8C296,-311.34 296,-301.99 296,-293.41"/>
<polygon fill="#63b8ff" stroke="#63b8ff" points="299.5,-293.16 296,-283.16 292.5,-293.16 299.5,-293.16"/>
</a>
</g>
</g>
<!-- Node4&#45;&gt;Node3 -->
<g id="edge16_Node000004_Node000003" class="edge">
<title>Node4&#45;&gt;Node3</title>
<g id="a_edge16_Node000004_Node000003"><a xlink:title=" ">
<path fill="none" stroke="#63b8ff" d="M241.36,-262.89C176.6,-256.88 74.04,-243.42 47,-217 30.81,-201.18 27.79,-174.15 27.82,-155.94"/>
<polygon fill="#63b8ff" stroke="#63b8ff" points="31.32,-156.03 28.15,-145.92 24.32,-155.8 31.32,-156.03"/>
</a>
</g>
</g>
<!-- Node5 -->
<g id="Node000005" class="node">
<title>Node5</title>
<g id="a_Node000005"><a xlink:title=" ">
<polygon fill="#e0e0e0" stroke="#999999" points="415.5,-211.5 368.5,-211.5 368.5,-192.5 415.5,-192.5 415.5,-211.5"/>
<text text-anchor="middle" x="392" y="-199.5" font-family="Helvetica,sans-Serif" font-size="10.00">vector</text>
</a>
</g>
</g>
<!-- Node4&#45;&gt;Node5 -->
<g id="edge4_Node000004_Node000005" class="edge">
<title>Node4&#45;&gt;Node5</title>
<g id="a_edge4_Node000004_Node000005"><a xlink:title=" ">
<path fill="none" stroke="#63b8ff" d="M317.31,-252.8C333.1,-242.27 354.54,-227.97 370.4,-217.4"/>
<polygon fill="#63b8ff" stroke="#63b8ff" points="372.63,-220.12 379.01,-211.66 368.75,-214.29 372.63,-220.12"/>
</a>
</g>
</g>
<!-- Node6 -->
<g id="Node000006" class="node">
<title>Node6</title>
<g id="a_Node000006"><a xlink:href="player_8h.html" target="_top" xlink:title=" ">
<polygon fill="white" stroke="#666666" points="350.5,-217 241.5,-217 241.5,-187 350.5,-187 350.5,-217"/>
<text text-anchor="start" x="249.5" y="-205" font-family="Helvetica,sans-Serif" font-size="10.00">tic_tac_toe/models</text>
<text text-anchor="middle" x="296" y="-194" font-family="Helvetica,sans-Serif" font-size="10.00">/player.h</text>
</a>
</g>
</g>
<!-- Node4&#45;&gt;Node6 -->
<g id="edge5_Node000004_Node000006" class="edge">
<title>Node4&#45;&gt;Node6</title>
<g id="a_edge5_Node000004_Node000006"><a xlink:title=" ">
<path fill="none" stroke="#63b8ff" d="M296,-252.8C296,-245.34 296,-235.99 296,-227.41"/>
<polygon fill="#63b8ff" stroke="#63b8ff" points="299.5,-227.16 296,-217.16 292.5,-227.16 299.5,-227.16"/>
</a>
</g>
</g>
<!-- Node7 -->
<g id="Node000007" class="node">
<title>Node7</title>
<g id="a_Node000007"><a xlink:href="position_8h.html" target="_top" xlink:title=" ">
<polygon fill="white" stroke="#666666" points="443.5,-151 334.5,-151 334.5,-121 443.5,-121 443.5,-151"/>
<text text-anchor="start" x="342.5" y="-139" font-family="Helvetica,sans-Serif" font-size="10.00">tic_tac_toe/models</text>
<text text-anchor="middle" x="389" y="-128" font-family="Helvetica,sans-Serif" font-size="10.00">/position.h</text>
</a>
</g>
</g>
<!-- Node4&#45;&gt;Node7 -->
<g id="edge14_Node000004_Node000007" class="edge">
<title>Node4&#45;&gt;Node7</title>
<g id="a_edge14_Node000004_Node000007"><a xlink:title=" ">
<path fill="none" stroke="#63b8ff" d="M350.76,-260.27C377.87,-253.87 408.31,-241.37 425,-217 437.5,-198.75 424.23,-175.46 410.41,-158.72"/>
<polygon fill="#63b8ff" stroke="#63b8ff" points="412.92,-156.28 403.69,-151.08 407.66,-160.9 412.92,-156.28"/>
</a>
</g>
</g>
<!-- Node12 -->
<g id="Node000012" class="node">
<title>Node12</title>
<g id="a_Node000012"><a xlink:href="alignment_8h.html" target="_top" xlink:title=" ">
<polygon fill="white" stroke="#666666" points="223.5,-211.5 56.5,-211.5 56.5,-192.5 223.5,-192.5 223.5,-211.5"/>
<text text-anchor="middle" x="140" y="-199.5" font-family="Helvetica,sans-Serif" font-size="10.00">tic_tac_toe/enums/alignment.h</text>
</a>
</g>
</g>
<!-- Node4&#45;&gt;Node12 -->
<g id="edge15_Node000004_Node000012" class="edge">
<title>Node4&#45;&gt;Node12</title>
<g id="a_edge15_Node000004_Node000012"><a xlink:title=" ">
<path fill="none" stroke="#63b8ff" d="M261.77,-252.95C234.41,-241.73 196.43,-226.15 170.19,-215.39"/>
<polygon fill="#63b8ff" stroke="#63b8ff" points="171.34,-212.07 160.76,-211.52 168.68,-218.55 171.34,-212.07"/>
</a>
</g>
</g>
<!-- Node6&#45;&gt;Node3 -->
<g id="edge6_Node000006_Node000003" class="edge">
<title>Node6&#45;&gt;Node3</title>
<g id="a_edge6_Node000006_Node000003"><a xlink:title=" ">
<path fill="none" stroke="#63b8ff" d="M241.32,-187.89C189.69,-175.52 113.56,-157.27 67.87,-146.32"/>
<polygon fill="#63b8ff" stroke="#63b8ff" points="68.59,-142.89 58.05,-143.96 66.95,-149.7 68.59,-142.89"/>
</a>
</g>
</g>
<!-- Node6&#45;&gt;Node7 -->
<g id="edge7_Node000006_Node000007" class="edge">
<title>Node6&#45;&gt;Node7</title>
<g id="a_edge7_Node000006_Node000007"><a xlink:title=" ">
<path fill="none" stroke="#63b8ff" d="M316.64,-186.8C329.4,-178.01 345.98,-166.61 360.04,-156.93"/>
<polygon fill="#63b8ff" stroke="#63b8ff" points="362.16,-159.72 368.42,-151.16 358.2,-153.95 362.16,-159.72"/>
</a>
</g>
</g>
<!-- Node9 -->
<g id="Node000009" class="node">
<title>Node9</title>
<g id="a_Node000009"><a xlink:href="symbol_8h.html" target="_top" xlink:title=" ">
<polygon fill="white" stroke="#666666" points="441,-79.5 287,-79.5 287,-60.5 441,-60.5 441,-79.5"/>
<text text-anchor="middle" x="364" y="-67.5" font-family="Helvetica,sans-Serif" font-size="10.00">tic_tac_toe/enums/symbol.h</text>
</a>
</g>
</g>
<!-- Node6&#45;&gt;Node9 -->
<g id="edge11_Node000006_Node000009" class="edge">
<title>Node6&#45;&gt;Node9</title>
<g id="a_edge11_Node000006_Node000009"><a xlink:title=" ">
<path fill="none" stroke="#63b8ff" d="M299.93,-186.87C304.8,-170.45 313.96,-142.82 326,-121 332.62,-109.01 341.88,-96.76 349.61,-87.38"/>
<polygon fill="#63b8ff" stroke="#63b8ff" points="352.35,-89.56 356.15,-79.67 347.01,-85.03 352.35,-89.56"/>
</a>
</g>
</g>
<!-- Node11 -->
<g id="Node000011" class="node">
<title>Node11</title>
<g id="a_Node000011"><a xlink:href="observer_8h.html" target="_top" xlink:title=" ">
<polygon fill="white" stroke="#666666" points="269,-85 153,-85 153,-55 269,-55 269,-85"/>
<text text-anchor="start" x="161" y="-73" font-family="Helvetica,sans-Serif" font-size="10.00">tic_tac_toe/observer</text>
<text text-anchor="middle" x="211" y="-62" font-family="Helvetica,sans-Serif" font-size="10.00">/observer.h</text>
</a>
</g>
</g>
<!-- Node6&#45;&gt;Node11 -->
<g id="edge12_Node000006_Node000011" class="edge">
<title>Node6&#45;&gt;Node11</title>
<g id="a_edge12_Node000006_Node000011"><a xlink:title=" ">
<path fill="none" stroke="#63b8ff" d="M286.74,-186.84C272.05,-164.37 243.28,-120.36 225.73,-93.53"/>
<polygon fill="#63b8ff" stroke="#63b8ff" points="228.65,-91.6 220.25,-85.14 222.79,-95.43 228.65,-91.6"/>
</a>
</g>
</g>
<!-- Node7&#45;&gt;Node8 -->
<g id="edge8_Node000007_Node000008" class="edge">
<title>Node7&#45;&gt;Node8</title>
<g id="a_edge8_Node000007_Node000008"><a xlink:title=" ">
<path fill="none" stroke="#63b8ff" d="M409.64,-120.8C424.94,-110.27 445.71,-95.97 461.08,-85.4"/>
<polygon fill="#63b8ff" stroke="#63b8ff" points="463.16,-88.21 469.42,-79.66 459.2,-82.44 463.16,-88.21"/>
</a>
</g>
</g>
<!-- Node7&#45;&gt;Node9 -->
<g id="edge9_Node000007_Node000009" class="edge">
<title>Node7&#45;&gt;Node9</title>
<g id="a_edge9_Node000007_Node000009"><a xlink:title=" ">
<path fill="none" stroke="#63b8ff" d="M383.45,-120.8C379.82,-111.5 375.04,-99.27 371.13,-89.26"/>
<polygon fill="#63b8ff" stroke="#63b8ff" points="374.35,-87.89 367.45,-79.84 367.83,-90.43 374.35,-87.89"/>
</a>
</g>
</g>
<!-- Node10 -->
<g id="Node000010" class="node">
<title>Node10</title>
<g id="a_Node000010"><a xlink:title=" ">
<polygon fill="#e0e0e0" stroke="#999999" points="309,-19 265,-19 265,0 309,0 309,-19"/>
<text text-anchor="middle" x="287" y="-7" font-family="Helvetica,sans-Serif" font-size="10.00">string</text>
</a>
</g>
</g>
<!-- Node9&#45;&gt;Node10 -->
<g id="edge10_Node000009_Node000010" class="edge">
<title>Node9&#45;&gt;Node10</title>
<g id="a_edge10_Node000009_Node000010"><a xlink:title=" ">
<path fill="none" stroke="#63b8ff" d="M352.64,-60.37C340.58,-51.21 321.3,-36.56 306.75,-25.51"/>
<polygon fill="#63b8ff" stroke="#63b8ff" points="308.49,-22.43 298.41,-19.17 304.25,-28 308.49,-22.43"/>
</a>
</g>
</g>
<!-- Node11&#45;&gt;Node10 -->
<g id="edge13_Node000011_Node000010" class="edge">
<title>Node11&#45;&gt;Node10</title>
<g id="a_edge13_Node000011_Node000010"><a xlink:title=" ">
<path fill="none" stroke="#63b8ff" d="M229.4,-54.84C240.88,-46 255.65,-34.63 267.36,-25.62"/>
<polygon fill="#63b8ff" stroke="#63b8ff" points="269.82,-28.14 275.61,-19.27 265.55,-22.59 269.82,-28.14"/>
</a>
</g>
</g>
</g>
</svg>
