<?xml version="1.0" encoding="UTF-8" standalone="no"?>
<!DOCTYPE svg PUBLIC "-//W3C//DTD SVG 1.1//EN"
 "http://www.w3.org/Graphics/SVG/1.1/DTD/svg11.dtd">
<!-- Generated by graphviz version 2.43.0 (0)
 -->
<!-- Title: process_player_move Pages: 1 -->
<svg width="288pt" height="108pt"
 viewBox="0.00 0.00 288.00 108.00" xmlns="http://www.w3.org/2000/svg" xmlns:xlink="http://www.w3.org/1999/xlink">
<g id="graph0" class="graph" transform="scale(1 1) rotate(0) translate(4 104)">
<title>process_player_move</title>
<!-- Node1 -->
<g id="Node000001" class="node">
<title>Node1</title>
<g id="a_Node000001"><a xlink:title=" ">
<polygon fill="#999999" stroke="#666666" points="123,-59 0,-59 0,-40 123,-40 123,-59"/>
<text text-anchor="middle" x="61.5" y="-47" font-family="Helvetica,sans-Serif" font-size="10.00">process_player_move</text>
</a>
</g>
</g>
<!-- Node2 -->
<g id="Node000002" class="node">
<title>Node2</title>
<g id="a_Node000002"><a xlink:href="classsophia_1_1monte__carlo_1_1tic__tac__toe_1_1models_1_1Position.html#aff4ed9535dba02b7d62a36a98213cad6" target="_top" xlink:title="Determines if the given move name can be successfully parsed.">
<polygon fill="white" stroke="#666666" points="278.5,-100 160.5,-100 160.5,-59 278.5,-59 278.5,-100"/>
<text text-anchor="start" x="168.5" y="-88" font-family="Helvetica,sans-Serif" font-size="10.00">sophia::monte_carlo</text>
<text text-anchor="start" x="168.5" y="-77" font-family="Helvetica,sans-Serif" font-size="10.00">::tic_tac_toe::models</text>
<text text-anchor="middle" x="219.5" y="-66" font-family="Helvetica,sans-Serif" font-size="10.00">::Position::IsValid</text>
</a>
</g>
</g>
<!-- Node1&#45;&gt;Node2 -->
<g id="edge1_Node000001_Node000002" class="edge">
<title>Node1&#45;&gt;Node2</title>
<g id="a_edge1_Node000001_Node000002"><a xlink:title=" ">
<path fill="none" stroke="#63b8ff" d="M112.29,-59.07C124.39,-61.4 137.54,-63.93 150.33,-66.39"/>
<polygon fill="#63b8ff" stroke="#63b8ff" points="150,-69.89 160.48,-68.34 151.33,-63.02 150,-69.89"/>
</a>
</g>
</g>
<!-- Node3 -->
<g id="Node000003" class="node">
<title>Node3</title>
<g id="a_Node000003"><a xlink:href="classsophia_1_1monte__carlo_1_1tic__tac__toe_1_1models_1_1Position.html#a73f2bf0b7a04018d686d3dd392712a90" target="_top" xlink:title="Parses a move from a Move name.">
<polygon fill="white" stroke="#666666" points="280,-41 159,-41 159,0 280,0 280,-41"/>
<text text-anchor="start" x="167" y="-29" font-family="Helvetica,sans-Serif" font-size="10.00">sophia::monte_carlo</text>
<text text-anchor="start" x="167" y="-18" font-family="Helvetica,sans-Serif" font-size="10.00">::tic_tac_toe::models</text>
<text text-anchor="middle" x="219.5" y="-7" font-family="Helvetica,sans-Serif" font-size="10.00">::Position::ParseMove</text>
</a>
</g>
</g>
<!-- Node1&#45;&gt;Node3 -->
<g id="edge2_Node000001_Node000003" class="edge">
<title>Node1&#45;&gt;Node3</title>
<g id="a_edge2_Node000001_Node000003"><a xlink:title=" ">
<path fill="none" stroke="#63b8ff" d="M114.01,-39.92C125.13,-37.86 137.07,-35.64 148.75,-33.47"/>
<polygon fill="#63b8ff" stroke="#63b8ff" points="149.74,-36.84 158.93,-31.57 148.46,-29.96 149.74,-36.84"/>
</a>
</g>
</g>
</g>
</svg>
