<?xml version="1.0" encoding="UTF-8" standalone="no"?>
<!DOCTYPE svg PUBLIC "-//W3C//DTD SVG 1.1//EN"
 "http://www.w3.org/Graphics/SVG/1.1/DTD/svg11.dtd">
<!-- Generated by graphviz version 2.43.0 (0)
 -->
<!-- Title: examples/monte_carlo/tic_tac_toe/include/tic_tac_toe/models/human.h Pages: 1 -->
<svg width="503pt" height="368pt"
 viewBox="0.00 0.00 502.50 368.00" xmlns="http://www.w3.org/2000/svg" xmlns:xlink="http://www.w3.org/1999/xlink">
<g id="graph0" class="graph" transform="scale(1 1) rotate(0) translate(4 364)">
<title>examples/monte_carlo/tic_tac_toe/include/tic_tac_toe/models/human.h</title>
<!-- Node1 -->
<g id="Node000001" class="node">
<title>Node1</title>
<g id="a_Node000001"><a xlink:title=" ">
<polygon fill="#999999" stroke="#666666" points="326,-360 168,-360 168,-319 326,-319 326,-360"/>
<text text-anchor="start" x="176" y="-348" font-family="Helvetica,sans-Serif" font-size="10.00">examples/monte_carlo</text>
<text text-anchor="start" x="176" y="-337" font-family="Helvetica,sans-Serif" font-size="10.00">/tic_tac_toe/include</text>
<text text-anchor="middle" x="247" y="-326" font-family="Helvetica,sans-Serif" font-size="10.00">/tic_tac_toe/models/human.h</text>
</a>
</g>
</g>
<!-- Node2 -->
<g id="Node000002" class="node">
<title>Node2</title>
<g id="a_Node000002"><a xlink:href="player_8h.html" target="_top" xlink:title=" ">
<polygon fill="white" stroke="#666666" points="168.5,-217 59.5,-217 59.5,-187 168.5,-187 168.5,-217"/>
<text text-anchor="start" x="67.5" y="-205" font-family="Helvetica,sans-Serif" font-size="10.00">tic_tac_toe/models</text>
<text text-anchor="middle" x="114" y="-194" font-family="Helvetica,sans-Serif" font-size="10.00">/player.h</text>
</a>
</g>
</g>
<!-- Node1&#45;&gt;Node2 -->
<g id="edge1_Node000001_Node000002" class="edge">
<title>Node1&#45;&gt;Node2</title>
<g id="a_edge1_Node000001_Node000002"><a xlink:title=" ">
<path fill="none" stroke="#63b8ff" d="M227.66,-318.8C203.01,-293.68 160.53,-250.41 135.07,-224.47"/>
<polygon fill="#63b8ff" stroke="#63b8ff" points="137.57,-222.01 128.06,-217.33 132.57,-226.92 137.57,-222.01"/>
</a>
</g>
</g>
<!-- Node9 -->
<g id="Node000009" class="node">
<title>Node9</title>
<g id="a_Node000009"><a xlink:href="board_8h.html" target="_top" xlink:title=" ">
<polygon fill="white" stroke="#666666" points="379.5,-283 270.5,-283 270.5,-253 379.5,-253 379.5,-283"/>
<text text-anchor="start" x="278.5" y="-271" font-family="Helvetica,sans-Serif" font-size="10.00">tic_tac_toe/models</text>
<text text-anchor="middle" x="325" y="-260" font-family="Helvetica,sans-Serif" font-size="10.00">/board.h</text>
</a>
</g>
</g>
<!-- Node1&#45;&gt;Node9 -->
<g id="edge10_Node000001_Node000009" class="edge">
<title>Node1&#45;&gt;Node9</title>
<g id="a_edge10_Node000001_Node000009"><a xlink:title=" ">
<path fill="none" stroke="#63b8ff" d="M269.14,-318.77C279.34,-309.69 291.43,-298.91 301.76,-289.71"/>
<polygon fill="#63b8ff" stroke="#63b8ff" points="304.11,-292.3 309.24,-283.04 299.45,-287.08 304.11,-292.3"/>
</a>
</g>
</g>
<!-- Node3 -->
<g id="Node000003" class="node">
<title>Node3</title>
<g id="a_Node000003"><a xlink:title=" ">
<polygon fill="#e0e0e0" stroke="#999999" points="246,-145.5 188,-145.5 188,-126.5 246,-126.5 246,-145.5"/>
<text text-anchor="middle" x="217" y="-133.5" font-family="Helvetica,sans-Serif" font-size="10.00">memory</text>
</a>
</g>
</g>
<!-- Node2&#45;&gt;Node3 -->
<g id="edge2_Node000002_Node000003" class="edge">
<title>Node2&#45;&gt;Node3</title>
<g id="a_edge2_Node000002_Node000003"><a xlink:title=" ">
<path fill="none" stroke="#63b8ff" d="M136.6,-186.95C153.79,-176.27 177.33,-161.65 194.49,-150.98"/>
<polygon fill="#63b8ff" stroke="#63b8ff" points="196.65,-153.77 203.29,-145.52 192.95,-147.82 196.65,-153.77"/>
</a>
</g>
</g>
<!-- Node4 -->
<g id="Node000004" class="node">
<title>Node4</title>
<g id="a_Node000004"><a xlink:href="position_8h.html" target="_top" xlink:title=" ">
<polygon fill="white" stroke="#666666" points="378.5,-151 269.5,-151 269.5,-121 378.5,-121 378.5,-151"/>
<text text-anchor="start" x="277.5" y="-139" font-family="Helvetica,sans-Serif" font-size="10.00">tic_tac_toe/models</text>
<text text-anchor="middle" x="324" y="-128" font-family="Helvetica,sans-Serif" font-size="10.00">/position.h</text>
</a>
</g>
</g>
<!-- Node2&#45;&gt;Node4 -->
<g id="edge3_Node000002_Node000004" class="edge">
<title>Node2&#45;&gt;Node4</title>
<g id="a_edge3_Node000002_Node000004"><a xlink:title=" ">
<path fill="none" stroke="#63b8ff" d="M160.09,-186.95C191.95,-177.24 234.53,-164.27 268.3,-153.98"/>
<polygon fill="#63b8ff" stroke="#63b8ff" points="269.48,-157.28 278.02,-151.01 267.44,-150.58 269.48,-157.28"/>
</a>
</g>
</g>
<!-- Node6 -->
<g id="Node000006" class="node">
<title>Node6</title>
<g id="a_Node000006"><a xlink:href="symbol_8h.html" target="_top" xlink:title=" ">
<polygon fill="white" stroke="#666666" points="288,-79.5 134,-79.5 134,-60.5 288,-60.5 288,-79.5"/>
<text text-anchor="middle" x="211" y="-67.5" font-family="Helvetica,sans-Serif" font-size="10.00">tic_tac_toe/enums/symbol.h</text>
</a>
</g>
</g>
<!-- Node2&#45;&gt;Node6 -->
<g id="edge7_Node000002_Node000006" class="edge">
<title>Node2&#45;&gt;Node6</title>
<g id="a_edge7_Node000002_Node000006"><a xlink:title=" ">
<path fill="none" stroke="#63b8ff" d="M124.57,-186.84C142.57,-162.71 179.13,-113.71 198.43,-87.85"/>
<polygon fill="#63b8ff" stroke="#63b8ff" points="201.3,-89.86 204.47,-79.75 195.69,-85.67 201.3,-89.86"/>
</a>
</g>
</g>
<!-- Node8 -->
<g id="Node000008" class="node">
<title>Node8</title>
<g id="a_Node000008"><a xlink:href="observer_8h.html" target="_top" xlink:title=" ">
<polygon fill="white" stroke="#666666" points="116,-85 0,-85 0,-55 116,-55 116,-85"/>
<text text-anchor="start" x="8" y="-73" font-family="Helvetica,sans-Serif" font-size="10.00">tic_tac_toe/observer</text>
<text text-anchor="middle" x="58" y="-62" font-family="Helvetica,sans-Serif" font-size="10.00">/observer.h</text>
</a>
</g>
</g>
<!-- Node2&#45;&gt;Node8 -->
<g id="edge8_Node000002_Node000008" class="edge">
<title>Node2&#45;&gt;Node8</title>
<g id="a_edge8_Node000002_Node000008"><a xlink:title=" ">
<path fill="none" stroke="#63b8ff" d="M107.9,-186.84C98.35,-164.67 79.76,-121.51 68.16,-94.59"/>
<polygon fill="#63b8ff" stroke="#63b8ff" points="71.26,-92.94 64.09,-85.14 64.83,-95.71 71.26,-92.94"/>
</a>
</g>
</g>
<!-- Node5 -->
<g id="Node000005" class="node">
<title>Node5</title>
<g id="a_Node000005"><a xlink:title=" ">
<polygon fill="#e0e0e0" stroke="#999999" points="351.5,-79.5 306.5,-79.5 306.5,-60.5 351.5,-60.5 351.5,-79.5"/>
<text text-anchor="middle" x="329" y="-67.5" font-family="Helvetica,sans-Serif" font-size="10.00">utility</text>
</a>
</g>
</g>
<!-- Node4&#45;&gt;Node5 -->
<g id="edge4_Node000004_Node000005" class="edge">
<title>Node4&#45;&gt;Node5</title>
<g id="a_edge4_Node000004_Node000005"><a xlink:title=" ">
<path fill="none" stroke="#63b8ff" d="M325.11,-120.8C325.82,-111.7 326.75,-99.79 327.52,-89.9"/>
<polygon fill="#63b8ff" stroke="#63b8ff" points="331.02,-90.09 328.31,-79.84 324.04,-89.54 331.02,-90.09"/>
</a>
</g>
</g>
<!-- Node4&#45;&gt;Node6 -->
<g id="edge5_Node000004_Node000006" class="edge">
<title>Node4&#45;&gt;Node6</title>
<g id="a_edge5_Node000004_Node000006"><a xlink:title=" ">
<path fill="none" stroke="#63b8ff" d="M299.2,-120.95C280.08,-110.13 253.8,-95.24 234.91,-84.54"/>
<polygon fill="#63b8ff" stroke="#63b8ff" points="236.46,-81.4 226.04,-79.52 233.01,-87.49 236.46,-81.4"/>
</a>
</g>
</g>
<!-- Node7 -->
<g id="Node000007" class="node">
<title>Node7</title>
<g id="a_Node000007"><a xlink:title=" ">
<polygon fill="#e0e0e0" stroke="#999999" points="156,-19 112,-19 112,0 156,0 156,-19"/>
<text text-anchor="middle" x="134" y="-7" font-family="Helvetica,sans-Serif" font-size="10.00">string</text>
</a>
</g>
</g>
<!-- Node6&#45;&gt;Node7 -->
<g id="edge6_Node000006_Node000007" class="edge">
<title>Node6&#45;&gt;Node7</title>
<g id="a_edge6_Node000006_Node000007"><a xlink:title=" ">
<path fill="none" stroke="#63b8ff" d="M199.64,-60.37C187.58,-51.21 168.3,-36.56 153.75,-25.51"/>
<polygon fill="#63b8ff" stroke="#63b8ff" points="155.49,-22.43 145.41,-19.17 151.25,-28 155.49,-22.43"/>
</a>
</g>
</g>
<!-- Node8&#45;&gt;Node7 -->
<g id="edge9_Node000008_Node000007" class="edge">
<title>Node8&#45;&gt;Node7</title>
<g id="a_edge9_Node000008_Node000007"><a xlink:title=" ">
<path fill="none" stroke="#63b8ff" d="M76.4,-54.84C87.88,-46 102.65,-34.63 114.36,-25.62"/>
<polygon fill="#63b8ff" stroke="#63b8ff" points="116.82,-28.14 122.61,-19.27 112.55,-22.59 116.82,-28.14"/>
</a>
</g>
</g>
<!-- Node9&#45;&gt;Node2 -->
<g id="edge12_Node000009_Node000002" class="edge">
<title>Node9&#45;&gt;Node2</title>
<g id="a_edge12_Node000009_Node000002"><a xlink:title=" ">
<path fill="none" stroke="#63b8ff" d="M278.7,-252.95C246.68,-243.24 203.9,-230.27 169.97,-219.98"/>
<polygon fill="#63b8ff" stroke="#63b8ff" points="170.78,-216.57 160.2,-217.01 168.75,-223.26 170.78,-216.57"/>
</a>
</g>
</g>
<!-- Node9&#45;&gt;Node3 -->
<g id="edge15_Node000009_Node000003" class="edge">
<title>Node9&#45;&gt;Node3</title>
<g id="a_edge15_Node000009_Node000003"><a xlink:title=" ">
<path fill="none" stroke="#63b8ff" d="M340.42,-252.89C356.71,-236.23 378.11,-208.14 363,-187 361.32,-184.65 295.57,-162.75 252.89,-148.72"/>
<polygon fill="#63b8ff" stroke="#63b8ff" points="253.97,-145.39 243.37,-145.6 251.78,-152.05 253.97,-145.39"/>
</a>
</g>
</g>
<!-- Node9&#45;&gt;Node4 -->
<g id="edge13_Node000009_Node000004" class="edge">
<title>Node9&#45;&gt;Node4</title>
<g id="a_edge13_Node000009_Node000004"><a xlink:title=" ">
<path fill="none" stroke="#63b8ff" d="M356.7,-252.94C371.17,-244.72 386.87,-232.8 395,-217 401.1,-205.14 401.14,-198.84 395,-187 388.41,-174.29 376.94,-164.13 365.11,-156.38"/>
<polygon fill="#63b8ff" stroke="#63b8ff" points="366.87,-153.35 356.51,-151.16 363.24,-159.34 366.87,-153.35"/>
</a>
</g>
</g>
<!-- Node10 -->
<g id="Node000010" class="node">
<title>Node10</title>
<g id="a_Node000010"><a xlink:title=" ">
<polygon fill="#e0e0e0" stroke="#999999" points="494.5,-211.5 447.5,-211.5 447.5,-192.5 494.5,-192.5 494.5,-211.5"/>
<text text-anchor="middle" x="471" y="-199.5" font-family="Helvetica,sans-Serif" font-size="10.00">vector</text>
</a>
</g>
</g>
<!-- Node9&#45;&gt;Node10 -->
<g id="edge11_Node000009_Node000010" class="edge">
<title>Node9&#45;&gt;Node10</title>
<g id="a_edge11_Node000009_Node000010"><a xlink:title=" ">
<path fill="none" stroke="#63b8ff" d="M357.04,-252.95C382.42,-241.83 417.56,-226.42 442.09,-215.67"/>
<polygon fill="#63b8ff" stroke="#63b8ff" points="443.82,-218.74 451.57,-211.52 441.01,-212.33 443.82,-218.74"/>
</a>
</g>
</g>
<!-- Node11 -->
<g id="Node000011" class="node">
<title>Node11</title>
<g id="a_Node000011"><a xlink:href="alignment_8h.html" target="_top" xlink:title=" ">
<polygon fill="white" stroke="#666666" points="353.5,-211.5 186.5,-211.5 186.5,-192.5 353.5,-192.5 353.5,-211.5"/>
<text text-anchor="middle" x="270" y="-199.5" font-family="Helvetica,sans-Serif" font-size="10.00">tic_tac_toe/enums/alignment.h</text>
</a>
</g>
</g>
<!-- Node9&#45;&gt;Node11 -->
<g id="edge14_Node000009_Node000011" class="edge">
<title>Node9&#45;&gt;Node11</title>
<g id="a_edge14_Node000009_Node000011"><a xlink:title=" ">
<path fill="none" stroke="#63b8ff" d="M312.79,-252.8C304.39,-243.01 293.19,-229.98 284.35,-219.7"/>
<polygon fill="#63b8ff" stroke="#63b8ff" points="286.77,-217.15 277.6,-211.84 281.46,-221.71 286.77,-217.15"/>
</a>
</g>
</g>
</g>
</svg>
