<?xml version="1.0" encoding="UTF-8" standalone="no"?>
<!DOCTYPE svg PUBLIC "-//W3C//DTD SVG 1.1//EN"
 "http://www.w3.org/Graphics/SVG/1.1/DTD/svg11.dtd">
<!-- Generated by graphviz version 2.43.0 (0)
 -->
<!-- Title: Graphical Class Hierarchy Pages: 1 -->
<svg width="512pt" height="330pt"
 viewBox="0.00 0.00 512.00 329.50" xmlns="http://www.w3.org/2000/svg" xmlns:xlink="http://www.w3.org/1999/xlink">
<g id="graph0" class="graph" transform="scale(1 1) rotate(0) translate(4 325.5)">
<title>Graphical Class Hierarchy</title>
<!-- Node0 -->
<g id="Node000000" class="node">
<title>Node0</title>
<g id="a_Node000000"><a xlink:title=" ">
<polygon fill="#e0e0e0" stroke="#999999" points="117,-191.5 8,-191.5 8,-161.5 117,-161.5 117,-191.5"/>
<text text-anchor="start" x="16" y="-179.5" font-family="Helvetica,sans-Serif" font-size="10.00">std::enable_shared</text>
<text text-anchor="middle" x="62.5" y="-168.5" font-family="Helvetica,sans-Serif" font-size="10.00">_from_this</text>
</a>
</g>
</g>
<!-- Node1 -->
<g id="Node000001" class="node">
<title>Node1</title>
<g id="a_Node000001"><a xlink:href="classsophia_1_1monte__carlo_1_1factories_1_1TreeFactoryBase.html" target="_top" xlink:title=" ">
<polygon fill="white" stroke="#666666" points="328,-321.5 161,-321.5 161,-269.5 328,-269.5 328,-321.5"/>
<text text-anchor="start" x="169" y="-309.5" font-family="Helvetica,sans-Serif" font-size="10.00">sophia::monte_carlo</text>
<text text-anchor="start" x="169" y="-298.5" font-family="Helvetica,sans-Serif" font-size="10.00">::factories::TreeFactoryBase</text>
<text text-anchor="start" x="169" y="-287.5" font-family="Helvetica,sans-Serif" font-size="10.00">&lt; models::GameState, models</text>
<text text-anchor="middle" x="244.5" y="-276.5" font-family="Helvetica,sans-Serif" font-size="10.00">::Position &gt;</text>
</a>
</g>
</g>
<!-- Node0&#45;&gt;Node1 -->
<g id="edge5_Node000000_Node000001" class="edge">
<title>Node0&#45;&gt;Node1</title>
<g id="a_edge5_Node000000_Node000001"><a xlink:title=" ">
<path fill="none" stroke="#63b8ff" d="M85.64,-199.14C104.43,-217.44 132.77,-242.95 161,-260.5 166.02,-263.62 171.37,-266.59 176.84,-269.38"/>
<polygon fill="#63b8ff" stroke="#63b8ff" points="87.77,-196.32 78.2,-191.78 82.85,-201.3 87.77,-196.32"/>
</a>
</g>
</g>
<!-- Node3 -->
<g id="Node000003" class="node">
<title>Node3</title>
<g id="a_Node000003"><a xlink:href="classsophia_1_1monte__carlo_1_1factories_1_1TreeFactoryBase.html" target="_top" xlink:title=" ">
<polygon fill="white" stroke="#666666" points="320,-251 169,-251 169,-210 320,-210 320,-251"/>
<text text-anchor="start" x="177" y="-239" font-family="Helvetica,sans-Serif" font-size="10.00">sophia::monte_carlo</text>
<text text-anchor="start" x="177" y="-228" font-family="Helvetica,sans-Serif" font-size="10.00">::factories::TreeFactoryBase</text>
<text text-anchor="middle" x="244.5" y="-217" font-family="Helvetica,sans-Serif" font-size="10.00">&lt; TState, TChange &gt;</text>
</a>
</g>
</g>
<!-- Node0&#45;&gt;Node3 -->
<g id="edge7_Node000000_Node000003" class="edge">
<title>Node0&#45;&gt;Node3</title>
<g id="a_edge7_Node000000_Node000003"><a xlink:title=" ">
<path fill="none" stroke="#63b8ff" d="M123.23,-194.42C139.86,-199.41 158.05,-204.86 175.13,-209.99"/>
<polygon fill="#63b8ff" stroke="#63b8ff" points="124.22,-191.06 113.64,-191.54 122.21,-197.77 124.22,-191.06"/>
</a>
</g>
</g>
<!-- Node4 -->
<g id="Node000004" class="node">
<title>Node4</title>
<g id="a_Node000004"><a xlink:href="classsophia_1_1monte__carlo_1_1models_1_1Action.html" target="_top" xlink:title=" ">
<polygon fill="white" stroke="#666666" points="302.5,-191.5 186.5,-191.5 186.5,-161.5 302.5,-161.5 302.5,-191.5"/>
<text text-anchor="start" x="194.5" y="-179.5" font-family="Helvetica,sans-Serif" font-size="10.00">sophia::monte_carlo</text>
<text text-anchor="middle" x="244.5" y="-168.5" font-family="Helvetica,sans-Serif" font-size="10.00">::models::Action</text>
</a>
</g>
</g>
<!-- Node0&#45;&gt;Node4 -->
<g id="edge8_Node000000_Node000004" class="edge">
<title>Node0&#45;&gt;Node4</title>
<g id="a_edge8_Node000000_Node000004"><a xlink:title=" ">
<path fill="none" stroke="#63b8ff" d="M127.23,-176.5C146.53,-176.5 167.59,-176.5 186.43,-176.5"/>
<polygon fill="#63b8ff" stroke="#63b8ff" points="127.02,-173 117.02,-176.5 127.02,-180 127.02,-173"/>
</a>
</g>
</g>
<!-- Node6 -->
<g id="Node000006" class="node">
<title>Node6</title>
<g id="a_Node000006"><a xlink:href="classsophia_1_1monte__carlo_1_1models_1_1Node.html" target="_top" xlink:title=" ">
<polygon fill="white" stroke="#666666" points="302.5,-143.5 186.5,-143.5 186.5,-113.5 302.5,-113.5 302.5,-143.5"/>
<text text-anchor="start" x="194.5" y="-131.5" font-family="Helvetica,sans-Serif" font-size="10.00">sophia::monte_carlo</text>
<text text-anchor="middle" x="244.5" y="-120.5" font-family="Helvetica,sans-Serif" font-size="10.00">::models::Node</text>
</a>
</g>
</g>
<!-- Node0&#45;&gt;Node6 -->
<g id="edge10_Node000000_Node000006" class="edge">
<title>Node0&#45;&gt;Node6</title>
<g id="a_edge10_Node000000_Node000006"><a xlink:title=" ">
<path fill="none" stroke="#63b8ff" d="M126.79,-159.62C146.42,-154.39 167.92,-148.65 187.06,-143.55"/>
<polygon fill="#63b8ff" stroke="#63b8ff" points="125.78,-156.27 117.02,-162.23 127.58,-163.03 125.78,-156.27"/>
</a>
</g>
</g>
<!-- Node8 -->
<g id="Node000008" class="node">
<title>Node8</title>
<g id="a_Node000008"><a xlink:href="classsophia_1_1monte__carlo_1_1tic__tac__toe_1_1models_1_1Player.html" target="_top" xlink:title="A Player in a Tic Tac Toe Game.">
<polygon fill="white" stroke="#666666" points="303.5,-95 185.5,-95 185.5,-54 303.5,-54 303.5,-95"/>
<text text-anchor="start" x="193.5" y="-83" font-family="Helvetica,sans-Serif" font-size="10.00">sophia::monte_carlo</text>
<text text-anchor="start" x="193.5" y="-72" font-family="Helvetica,sans-Serif" font-size="10.00">::tic_tac_toe::models</text>
<text text-anchor="middle" x="244.5" y="-61" font-family="Helvetica,sans-Serif" font-size="10.00">::Player</text>
</a>
</g>
</g>
<!-- Node0&#45;&gt;Node8 -->
<g id="edge12_Node000000_Node000008" class="edge">
<title>Node0&#45;&gt;Node8</title>
<g id="a_edge12_Node000000_Node000008"><a xlink:title=" ">
<path fill="none" stroke="#63b8ff" d="M88.62,-154.78C107.56,-139.23 134.67,-118.62 161,-104.5 168.65,-100.39 176.99,-96.63 185.33,-93.26"/>
<polygon fill="#63b8ff" stroke="#63b8ff" points="86.23,-152.23 80.79,-161.32 90.71,-157.6 86.23,-152.23"/>
</a>
</g>
</g>
<!-- Node2 -->
<g id="Node000002" class="node">
<title>Node2</title>
<g id="a_Node000002"><a xlink:href="classsophia_1_1monte__carlo_1_1tic__tac__toe_1_1factories_1_1TicTacToeFactory.html" target="_top" xlink:title="Creates simulation nodes and actions for a Tic Tac Toe game.">
<polygon fill="white" stroke="#666666" points="496.5,-316 371.5,-316 371.5,-275 496.5,-275 496.5,-316"/>
<text text-anchor="start" x="379.5" y="-304" font-family="Helvetica,sans-Serif" font-size="10.00">sophia::monte_carlo</text>
<text text-anchor="start" x="379.5" y="-293" font-family="Helvetica,sans-Serif" font-size="10.00">::tic_tac_toe::factories</text>
<text text-anchor="middle" x="434" y="-282" font-family="Helvetica,sans-Serif" font-size="10.00">::TicTacToeFactory</text>
</a>
</g>
</g>
<!-- Node1&#45;&gt;Node2 -->
<g id="edge6_Node000001_Node000002" class="edge">
<title>Node1&#45;&gt;Node2</title>
<g id="a_edge6_Node000001_Node000002"><a xlink:title=" ">
<path fill="none" stroke="#63b8ff" d="M338.28,-295.5C349.48,-295.5 360.71,-295.5 371.31,-295.5"/>
<polygon fill="#63b8ff" stroke="#63b8ff" points="338.01,-292 328.01,-295.5 338.01,-299 338.01,-292"/>
</a>
</g>
</g>
<!-- Node5 -->
<g id="Node000005" class="node">
<title>Node5</title>
<g id="a_Node000005"><a xlink:href="classsophia_1_1monte__carlo_1_1models_1_1ActionBase.html" target="_top" xlink:title=" ">
<polygon fill="white" stroke="#666666" points="493.5,-208 374.5,-208 374.5,-167 493.5,-167 493.5,-208"/>
<text text-anchor="start" x="382.5" y="-196" font-family="Helvetica,sans-Serif" font-size="10.00">sophia::monte_carlo</text>
<text text-anchor="start" x="382.5" y="-185" font-family="Helvetica,sans-Serif" font-size="10.00">::models::ActionBase</text>
<text text-anchor="middle" x="434" y="-174" font-family="Helvetica,sans-Serif" font-size="10.00">&lt; TState, TChange &gt;</text>
</a>
</g>
</g>
<!-- Node4&#45;&gt;Node5 -->
<g id="edge9_Node000004_Node000005" class="edge">
<title>Node4&#45;&gt;Node5</title>
<g id="a_edge9_Node000004_Node000005"><a xlink:title=" ">
<path fill="none" stroke="#63b8ff" d="M312.57,-180.43C332.75,-181.62 354.72,-182.91 374.31,-184.06"/>
<polygon fill="#63b8ff" stroke="#63b8ff" points="312.71,-176.94 302.52,-179.85 312.3,-183.92 312.71,-176.94"/>
</a>
</g>
</g>
<!-- Node7 -->
<g id="Node000007" class="node">
<title>Node7</title>
<g id="a_Node000007"><a xlink:href="classsophia_1_1monte__carlo_1_1models_1_1NodeBase.html" target="_top" xlink:title=" ">
<polygon fill="white" stroke="#666666" points="495,-149 373,-149 373,-108 495,-108 495,-149"/>
<text text-anchor="start" x="381" y="-137" font-family="Helvetica,sans-Serif" font-size="10.00">sophia::monte_carlo</text>
<text text-anchor="start" x="381" y="-126" font-family="Helvetica,sans-Serif" font-size="10.00">::models::NodeBase&lt;</text>
<text text-anchor="middle" x="434" y="-115" font-family="Helvetica,sans-Serif" font-size="10.00"> TState, TChange &gt;</text>
</a>
</g>
</g>
<!-- Node6&#45;&gt;Node7 -->
<g id="edge11_Node000006_Node000007" class="edge">
<title>Node6&#45;&gt;Node7</title>
<g id="a_edge11_Node000006_Node000007"><a xlink:title=" ">
<path fill="none" stroke="#63b8ff" d="M312.6,-128.5C332.21,-128.5 353.51,-128.5 372.67,-128.5"/>
<polygon fill="#63b8ff" stroke="#63b8ff" points="312.52,-125 302.52,-128.5 312.52,-132 312.52,-125"/>
</a>
</g>
</g>
<!-- Node9 -->
<g id="Node000009" class="node">
<title>Node9</title>
<g id="a_Node000009"><a xlink:href="classsophia_1_1monte__carlo_1_1tic__tac__toe_1_1models_1_1Bot.html" target="_top" xlink:title="A non&#45;human Tic Tac Toe Player.">
<polygon fill="white" stroke="#666666" points="504,-89.5 364,-89.5 364,-59.5 504,-59.5 504,-89.5"/>
<text text-anchor="start" x="372" y="-77.5" font-family="Helvetica,sans-Serif" font-size="10.00">sophia::monte_carlo</text>
<text text-anchor="middle" x="434" y="-66.5" font-family="Helvetica,sans-Serif" font-size="10.00">::tic_tac_toe::models::Bot</text>
</a>
</g>
</g>
<!-- Node8&#45;&gt;Node9 -->
<g id="edge13_Node000008_Node000009" class="edge">
<title>Node8&#45;&gt;Node9</title>
<g id="a_edge13_Node000008_Node000009"><a xlink:title=" ">
<path fill="none" stroke="#63b8ff" d="M313.54,-74.5C329.87,-74.5 347.33,-74.5 363.71,-74.5"/>
<polygon fill="#63b8ff" stroke="#63b8ff" points="313.54,-71 303.54,-74.5 313.54,-78 313.54,-71"/>
</a>
</g>
</g>
<!-- Node10 -->
<g id="Node000010" class="node">
<title>Node10</title>
<g id="a_Node000010"><a xlink:href="classsophia_1_1monte__carlo_1_1tic__tac__toe_1_1models_1_1Human.html" target="_top" xlink:title="A human Tic Tac Toe Player.">
<polygon fill="white" stroke="#666666" points="493,-41 375,-41 375,0 493,0 493,-41"/>
<text text-anchor="start" x="383" y="-29" font-family="Helvetica,sans-Serif" font-size="10.00">sophia::monte_carlo</text>
<text text-anchor="start" x="383" y="-18" font-family="Helvetica,sans-Serif" font-size="10.00">::tic_tac_toe::models</text>
<text text-anchor="middle" x="434" y="-7" font-family="Helvetica,sans-Serif" font-size="10.00">::Human</text>
</a>
</g>
</g>
<!-- Node8&#45;&gt;Node10 -->
<g id="edge14_Node000008_Node000010" class="edge">
<title>Node8&#45;&gt;Node10</title>
<g id="a_edge14_Node000008_Node000010"><a xlink:title=" ">
<path fill="none" stroke="#63b8ff" d="M313.29,-54.98C333.48,-49.16 355.4,-42.85 374.91,-37.23"/>
<polygon fill="#63b8ff" stroke="#63b8ff" points="312.18,-51.65 303.54,-57.78 314.12,-58.38 312.18,-51.65"/>
</a>
</g>
</g>
<!-- Node11 -->
<g id="Node000011" class="node">
<title>Node11</title>
<g id="a_Node000011"><a xlink:href="classsophia_1_1monte__carlo_1_1tic__tac__toe_1_1observer_1_1Observer.html" target="_top" xlink:title="The Observer in an Observer pattern.">
<polygon fill="white" stroke="#666666" points="125,-95 0,-95 0,-54 125,-54 125,-95"/>
<text text-anchor="start" x="8" y="-83" font-family="Helvetica,sans-Serif" font-size="10.00">sophia::monte_carlo</text>
<text text-anchor="start" x="8" y="-72" font-family="Helvetica,sans-Serif" font-size="10.00">::tic_tac_toe::observer</text>
<text text-anchor="middle" x="62.5" y="-61" font-family="Helvetica,sans-Serif" font-size="10.00">::Observer</text>
</a>
</g>
</g>
<!-- Node11&#45;&gt;Node8 -->
<g id="edge15_Node000011_Node000008" class="edge">
<title>Node11&#45;&gt;Node8</title>
<g id="a_edge15_Node000011_Node000008"><a xlink:title=" ">
<path fill="none" stroke="#63b8ff" d="M135.37,-74.5C151.92,-74.5 169.33,-74.5 185.22,-74.5"/>
<polygon fill="#63b8ff" stroke="#63b8ff" points="135.19,-71 125.19,-74.5 135.19,-78 135.19,-71"/>
</a>
</g>
</g>
</g>
</svg>
