<?xml version="1.0" encoding="UTF-8" standalone="no"?>
<!DOCTYPE svg PUBLIC "-//W3C//DTD SVG 1.1//EN"
 "http://www.w3.org/Graphics/SVG/1.1/DTD/svg11.dtd">
<!-- Generated by graphviz version 2.43.0 (0)
 -->
<!-- Title: main Pages: 1 -->
<svg width="393pt" height="157pt"
 viewBox="0.00 0.00 393.00 156.50" xmlns="http://www.w3.org/2000/svg" xmlns:xlink="http://www.w3.org/1999/xlink">
<g id="graph0" class="graph" transform="scale(1 1) rotate(0) translate(4 152.5)">
<title>main</title>
<!-- Node1 -->
<g id="Node000001" class="node">
<title>Node1</title>
<g id="a_Node000001"><a xlink:title=" ">
<polygon fill="#999999" stroke="#666666" points="41,-78.5 0,-78.5 0,-59.5 41,-59.5 41,-78.5"/>
<text text-anchor="middle" x="20.5" y="-66.5" font-family="Helvetica,sans-Serif" font-size="10.00">main</text>
</a>
</g>
</g>
<!-- Node2 -->
<g id="Node000002" class="node">
<title>Node2</title>
<g id="a_Node000002"><a xlink:href="classsophia_1_1monte__carlo_1_1tic__tac__toe_1_1models_1_1Bot.html#a1740b1e423571b8883c6948650b0dea1" target="_top" xlink:title="Prompts the bot to make its next move.">
<polygon fill="white" stroke="#666666" points="195,-89.5 77,-89.5 77,-48.5 195,-48.5 195,-89.5"/>
<text text-anchor="start" x="85" y="-77.5" font-family="Helvetica,sans-Serif" font-size="10.00">sophia::monte_carlo</text>
<text text-anchor="start" x="85" y="-66.5" font-family="Helvetica,sans-Serif" font-size="10.00">::tic_tac_toe::models</text>
<text text-anchor="middle" x="136" y="-55.5" font-family="Helvetica,sans-Serif" font-size="10.00">::Bot::NextMove</text>
</a>
</g>
</g>
<!-- Node1&#45;&gt;Node2 -->
<g id="edge1_Node000001_Node000002" class="edge">
<title>Node1&#45;&gt;Node2</title>
<g id="a_edge1_Node000001_Node000002"><a xlink:title=" ">
<path fill="none" stroke="#63b8ff" d="M41.01,-69C48.37,-69 57.21,-69 66.5,-69"/>
<polygon fill="#63b8ff" stroke="#63b8ff" points="66.7,-72.5 76.7,-69 66.7,-65.5 66.7,-72.5"/>
</a>
</g>
</g>
<!-- Node3 -->
<g id="Node000003" class="node">
<title>Node3</title>
<g id="a_Node000003"><a xlink:href="classsophia_1_1monte__carlo_1_1tic__tac__toe_1_1models_1_1Position.html#aff4ed9535dba02b7d62a36a98213cad6" target="_top" xlink:title="Determines if the given move name can be successfully parsed.">
<polygon fill="white" stroke="#666666" points="367,-148.5 249,-148.5 249,-107.5 367,-107.5 367,-148.5"/>
<text text-anchor="start" x="257" y="-136.5" font-family="Helvetica,sans-Serif" font-size="10.00">sophia::monte_carlo</text>
<text text-anchor="start" x="257" y="-125.5" font-family="Helvetica,sans-Serif" font-size="10.00">::tic_tac_toe::models</text>
<text text-anchor="middle" x="308" y="-114.5" font-family="Helvetica,sans-Serif" font-size="10.00">::Position::IsValid</text>
</a>
</g>
</g>
<!-- Node2&#45;&gt;Node3 -->
<g id="edge2_Node000002_Node000003" class="edge">
<title>Node2&#45;&gt;Node3</title>
<g id="a_edge2_Node000002_Node000003"><a xlink:title=" ">
<path fill="none" stroke="#63b8ff" d="M195.03,-89.14C209.31,-94.1 224.73,-99.45 239.41,-104.54"/>
<polygon fill="#63b8ff" stroke="#63b8ff" points="238.35,-107.88 248.94,-107.85 240.64,-101.27 238.35,-107.88"/>
</a>
</g>
</g>
<!-- Node4 -->
<g id="Node000004" class="node">
<title>Node4</title>
<g id="a_Node000004"><a xlink:href="classsophia_1_1monte__carlo_1_1tic__tac__toe_1_1models_1_1Position.html#a73f2bf0b7a04018d686d3dd392712a90" target="_top" xlink:title="Parses a move from a Move name.">
<polygon fill="white" stroke="#666666" points="368.5,-89.5 247.5,-89.5 247.5,-48.5 368.5,-48.5 368.5,-89.5"/>
<text text-anchor="start" x="255.5" y="-77.5" font-family="Helvetica,sans-Serif" font-size="10.00">sophia::monte_carlo</text>
<text text-anchor="start" x="255.5" y="-66.5" font-family="Helvetica,sans-Serif" font-size="10.00">::tic_tac_toe::models</text>
<text text-anchor="middle" x="308" y="-55.5" font-family="Helvetica,sans-Serif" font-size="10.00">::Position::ParseMove</text>
</a>
</g>
</g>
<!-- Node2&#45;&gt;Node4 -->
<g id="edge3_Node000002_Node000004" class="edge">
<title>Node2&#45;&gt;Node4</title>
<g id="a_edge3_Node000002_Node000004"><a xlink:title=" ">
<path fill="none" stroke="#63b8ff" d="M195.03,-69C208.65,-69 223.3,-69 237.38,-69"/>
<polygon fill="#63b8ff" stroke="#63b8ff" points="237.5,-72.5 247.5,-69 237.5,-65.5 237.5,-72.5"/>
</a>
</g>
</g>
<!-- Node5 -->
<g id="Node000005" class="node">
<title>Node5</title>
<g id="a_Node000005"><a xlink:href="classsophia_1_1monte__carlo_1_1MonteCarloTreeSearch.html#add75e8e0fa2db2b5c6ed1d10d5b1b2a4" target="_top" xlink:title="Runs the Monte Carlo Search algorithm.">
<polygon fill="white" stroke="#666666" points="385,-30 231,-30 231,0 385,0 385,-30"/>
<text text-anchor="start" x="239" y="-18" font-family="Helvetica,sans-Serif" font-size="10.00">sophia::monte_carlo</text>
<text text-anchor="middle" x="308" y="-7" font-family="Helvetica,sans-Serif" font-size="10.00">::MonteCarloTreeSearch::run</text>
</a>
</g>
</g>
<!-- Node2&#45;&gt;Node5 -->
<g id="edge4_Node000002_Node000005" class="edge">
<title>Node2&#45;&gt;Node5</title>
<g id="a_edge4_Node000002_Node000005"><a xlink:title=" ">
<path fill="none" stroke="#63b8ff" d="M195.03,-50.57C212.8,-44.92 232.33,-38.72 250.03,-33.1"/>
<polygon fill="#63b8ff" stroke="#63b8ff" points="251.19,-36.4 259.66,-30.04 249.07,-29.73 251.19,-36.4"/>
</a>
</g>
</g>
</g>
</svg>
