<?xml version="1.0" encoding="UTF-8" standalone="no"?>
<!DOCTYPE svg PUBLIC "-//W3C//DTD SVG 1.1//EN"
 "http://www.w3.org/Graphics/SVG/1.1/DTD/svg11.dtd">
<!-- Generated by graphviz version 2.43.0 (0)
 -->
<!-- Title: examples/monte_carlo/tic_tac_toe/src/main.cpp Pages: 1 -->
<!--zoomable 478 -->

<svg id="main" version="1.1" xmlns="http://www.w3.org/2000/svg" xmlns:xlink="http://www.w3.org/1999/xlink" xml:space="preserve" onload="init(evt)">
<style type="text/css"><![CDATA[
.node, .edge {opacity: 0.7;}
.node.selected, .edge.selected {opacity: 1;}
.edge:hover path { stroke: red; }
.edge:hover polygon { stroke: red; fill: red; }
]]></style>

<defs>
  <circle id="rim" cx="0" cy="0" r="7"/>
  <circle id="rim2" cx="0" cy="0" r="3.5"/>
  <g id="zoomPlus">
    <use xlink:href="#rim" fill="#404040"><set attributeName="fill" to="#808080" begin="zoomplus.mouseover" end="zoomplus.mouseout"/></use>
    <path d="M-4,0h8M0,-4v8" fill="none" stroke="white" stroke-width="1.5" pointer-events="none"/>
  </g>
  <g id="zoomMin">
    <use xlink:href="#rim" fill="#404040"><set attributeName="fill" to="#808080" begin="zoomminus.mouseover" end="zoomminus.mouseout"/></use>
    <path d="M-4,0h8" fill="none" stroke="white" stroke-width="1.5" pointer-events="none"/>
  </g>
  <g id="arrowUp" transform="translate(30 24)">
    <use xlink:href="#rim"/>
    <path pointer-events="none" fill="none" stroke="white" stroke-width="1.5" d="M0,-3.0v7 M-2.5,-0.5L0,-3.0L2.5,-0.5"/>
  </g>
  <g id="arrowRight" transform="rotate(90) translate(36 -43)">
    <use xlink:href="#rim"/>
    <path pointer-events="none" fill="none" stroke="white" stroke-width="1.5" d="M0,-3.0v7 M-2.5,-0.5L0,-3.0L2.5,-0.5"/>
  </g>
  <g id="arrowDown" transform="rotate(180) translate(-30 -48)">
    <use xlink:href="#rim"/>
    <path pointer-events="none" fill="none" stroke="white" stroke-width="1.5" d="M0,-3.0v7 M-2.5,-0.5L0,-3.0L2.5,-0.5"/>
  </g>
  <g id="arrowLeft" transform="rotate(270) translate(-36 17)">
    <use xlink:href="#rim"/>
    <path pointer-events="none" fill="none" stroke="white" stroke-width="1.5" d="M0,-3.0v7 M-2.5,-0.5L0,-3.0L2.5,-0.5"/>
  </g>
  <g id="resetDef">
    <use xlink:href="#rim2" fill="#404040"><set attributeName="fill" to="#808080" begin="reset.mouseover" end="reset.mouseout"/></use>
  </g>
</defs>
<script type="application/ecmascript">
var viewWidth = 1266;
var viewHeight = 478;
var sectionId = 'dynsection-0';
</script>
<script type="application/ecmascript" xlink:href="svg.min.js"/>
<svg id="graph" class="graph">
<g id="viewport">
<title>examples/monte_carlo/tic_tac_toe/src/main.cpp</title>
<!-- Node1 -->
<g id="Node000001" class="node">
<title>Node1</title>
<g id="a_Node000001"><a xlink:title=" ">
<polygon fill="#999999" stroke="#666666" points="826.9,-470 688.9,-470 688.9,-440 826.9,-440 826.9,-470"/>
<text text-anchor="start" x="696.9" y="-458" font-family="Helvetica,sans-Serif" font-size="10.00">examples/monte_carlo</text>
<text text-anchor="middle" x="757.9" y="-447" font-family="Helvetica,sans-Serif" font-size="10.00">/tic_tac_toe/src/main.cpp</text>
</a>
</g>
</g>
<!-- Node2 -->
<g id="Node000002" class="node">
<title>Node2</title>
<g id="a_Node000002"><a xlink:href="tic__tac__toe__factory_8h.html" target="_top" xlink:title=" ">
<polygon fill="white" stroke="#666666" points="573.9,-404 453.9,-404 453.9,-374 573.9,-374 573.9,-404"/>
<text text-anchor="start" x="461.9" y="-392" font-family="Helvetica,sans-Serif" font-size="10.00">tic_tac_toe/factories</text>
<text text-anchor="middle" x="513.9" y="-381" font-family="Helvetica,sans-Serif" font-size="10.00">/tic_tac_toe_factory.h</text>
</a>
</g>
</g>
<!-- Node1&#45;&gt;Node2 -->
<g id="edge1_Node000001_Node000002" class="edge">
<title>Node1&#45;&gt;Node2</title>
<g id="a_edge1_Node000001_Node000002"><a xlink:title=" ">
<path fill="none" stroke="#63b8ff" d="M704.35,-439.95C666.84,-430.12 616.58,-416.93 577.11,-406.58"/>
<polygon fill="#63b8ff" stroke="#63b8ff" points="577.88,-403.16 567.32,-404.01 576.1,-409.93 577.88,-403.16"/>
</a>
</g>
</g>
<!-- Node4 -->
<g id="Node000004" class="node">
<title>Node4</title>
<g id="a_Node000004"><a xlink:title=" ">
<polygon fill="#e0e0e0" stroke="#999999" points="596.9,-74 538.9,-74 538.9,-55 596.9,-55 596.9,-74"/>
<text text-anchor="middle" x="567.9" y="-62" font-family="Helvetica,sans-Serif" font-size="10.00">memory</text>
</a>
</g>
</g>
<!-- Node1&#45;&gt;Node4 -->
<g id="edge54_Node000001_Node000004" class="edge">
<title>Node1&#45;&gt;Node4</title>
<g id="a_edge54_Node000001_Node000004"><a xlink:title=" ">
<path fill="none" stroke="#63b8ff" d="M759.56,-439.88C763.09,-404.74 768.76,-311.22 738.9,-242 706.82,-167.65 628.32,-106.54 589.86,-79.89"/>
<polygon fill="#63b8ff" stroke="#63b8ff" points="591.66,-76.89 581.43,-74.16 587.73,-82.68 591.66,-76.89"/>
</a>
</g>
</g>
<!-- Node9 -->
<g id="Node000009" class="node">
<title>Node9</title>
<g id="a_Node000009"><a xlink:title=" ">
<polygon fill="#e0e0e0" stroke="#999999" points="1256.4,-74 1211.4,-74 1211.4,-55 1256.4,-55 1256.4,-74"/>
<text text-anchor="middle" x="1233.9" y="-62" font-family="Helvetica,sans-Serif" font-size="10.00">utility</text>
</a>
</g>
</g>
<!-- Node1&#45;&gt;Node9 -->
<g id="edge55_Node000001_Node000009" class="edge">
<title>Node1&#45;&gt;Node9</title>
<g id="a_edge55_Node000001_Node000009"><a xlink:title=" ">
<path fill="none" stroke="#63b8ff" d="M827.16,-450.43C964.43,-441.44 1257.9,-411.95 1257.9,-324 1257.9,-324 1257.9,-324 1257.9,-190 1257.9,-151.63 1246.77,-107.79 1239.67,-83.72"/>
<polygon fill="#63b8ff" stroke="#63b8ff" points="1243.01,-82.69 1236.74,-74.14 1236.32,-84.73 1243.01,-82.69"/>
</a>
</g>
</g>
<!-- Node20 -->
<g id="Node000020" class="node">
<title>Node20</title>
<g id="a_Node000020"><a xlink:title=" ">
<polygon fill="#e0e0e0" stroke="#999999" points="147.9,-134.5 87.9,-134.5 87.9,-115.5 147.9,-115.5 147.9,-134.5"/>
<text text-anchor="middle" x="117.9" y="-122.5" font-family="Helvetica,sans-Serif" font-size="10.00">iostream</text>
</a>
</g>
</g>
<!-- Node1&#45;&gt;Node20 -->
<g id="edge53_Node000001_Node000020" class="edge">
<title>Node1&#45;&gt;Node20</title>
<g id="a_edge53_Node000001_Node000020"><a xlink:title=" ">
<path fill="none" stroke="#63b8ff" d="M688.71,-449.36C501.84,-435.93 0.9,-393.42 0.9,-324 0.9,-324 0.9,-324 0.9,-256 0.9,-219.46 -2.69,-204.73 19.9,-176 34.5,-157.42 57.89,-145.12 78.15,-137.37"/>
<polygon fill="#63b8ff" stroke="#63b8ff" points="79.56,-140.58 87.79,-133.92 77.2,-133.99 79.56,-140.58"/>
</a>
</g>
</g>
<!-- Node22 -->
<g id="Node000022" class="node">
<title>Node22</title>
<g id="a_Node000022"><a xlink:href="human_8h.html" target="_top" xlink:title=" ">
<polygon fill="white" stroke="#666666" points="1022.4,-338 913.4,-338 913.4,-308 1022.4,-308 1022.4,-338"/>
<text text-anchor="start" x="921.4" y="-326" font-family="Helvetica,sans-Serif" font-size="10.00">tic_tac_toe/models</text>
<text text-anchor="middle" x="967.9" y="-315" font-family="Helvetica,sans-Serif" font-size="10.00">/human.h</text>
</a>
</g>
</g>
<!-- Node1&#45;&gt;Node22 -->
<g id="edge36_Node000001_Node000022" class="edge">
<title>Node1&#45;&gt;Node22</title>
<g id="a_edge36_Node000001_Node000022"><a xlink:title=" ">
<path fill="none" stroke="#63b8ff" d="M780.77,-439.84C818.48,-416.49 893.77,-369.88 936.46,-343.46"/>
<polygon fill="#63b8ff" stroke="#63b8ff" points="938.39,-346.38 945.05,-338.14 934.71,-340.43 938.39,-346.38"/>
</a>
</g>
</g>
<!-- Node23 -->
<g id="Node000023" class="node">
<title>Node23</title>
<g id="a_Node000023"><a xlink:href="bot_8h.html" target="_top" xlink:title=" ">
<polygon fill="white" stroke="#666666" points="895.4,-338 786.4,-338 786.4,-308 895.4,-308 895.4,-338"/>
<text text-anchor="start" x="794.4" y="-326" font-family="Helvetica,sans-Serif" font-size="10.00">tic_tac_toe/models</text>
<text text-anchor="middle" x="840.9" y="-315" font-family="Helvetica,sans-Serif" font-size="10.00">/bot.h</text>
</a>
</g>
</g>
<!-- Node1&#45;&gt;Node23 -->
<g id="edge39_Node000001_Node000023" class="edge">
<title>Node1&#45;&gt;Node23</title>
<g id="a_edge39_Node000001_Node000023"><a xlink:title=" ">
<path fill="none" stroke="#63b8ff" d="M766.94,-439.84C781.22,-417.47 809.14,-373.74 826.29,-346.88"/>
<polygon fill="#63b8ff" stroke="#63b8ff" points="829.43,-348.45 831.87,-338.14 823.53,-344.69 829.43,-348.45"/>
</a>
</g>
</g>
<!-- Node24 -->
<g id="Node000024" class="node">
<title>Node24</title>
<g id="a_Node000024"><a xlink:href="game_8h.html" target="_top" xlink:title=" ">
<polygon fill="white" stroke="#666666" points="729.4,-338 620.4,-338 620.4,-308 729.4,-308 729.4,-338"/>
<text text-anchor="start" x="628.4" y="-326" font-family="Helvetica,sans-Serif" font-size="10.00">tic_tac_toe/models</text>
<text text-anchor="middle" x="674.9" y="-315" font-family="Helvetica,sans-Serif" font-size="10.00">/game.h</text>
</a>
</g>
</g>
<!-- Node1&#45;&gt;Node24 -->
<g id="edge45_Node000001_Node000024" class="edge">
<title>Node1&#45;&gt;Node24</title>
<g id="a_edge45_Node000001_Node000024"><a xlink:title=" ">
<path fill="none" stroke="#63b8ff" d="M748.85,-439.84C734.57,-417.47 706.66,-373.74 689.5,-346.88"/>
<polygon fill="#63b8ff" stroke="#63b8ff" points="692.26,-344.69 683.92,-338.14 686.36,-348.45 692.26,-344.69"/>
</a>
</g>
</g>
<!-- Node3 -->
<g id="Node000003" class="node">
<title>Node3</title>
<g id="a_Node000003"><a xlink:href="game__state_8h.html" target="_top" xlink:title=" ">
<polygon fill="white" stroke="#666666" points="568.4,-338 459.4,-338 459.4,-308 568.4,-308 568.4,-338"/>
<text text-anchor="start" x="467.4" y="-326" font-family="Helvetica,sans-Serif" font-size="10.00">tic_tac_toe/models</text>
<text text-anchor="middle" x="513.9" y="-315" font-family="Helvetica,sans-Serif" font-size="10.00">/game_state.h</text>
</a>
</g>
</g>
<!-- Node2&#45;&gt;Node3 -->
<g id="edge2_Node000002_Node000003" class="edge">
<title>Node2&#45;&gt;Node3</title>
<g id="a_edge2_Node000002_Node000003"><a xlink:title=" ">
<path fill="none" stroke="#63b8ff" d="M513.9,-373.8C513.9,-366.34 513.9,-356.99 513.9,-348.41"/>
<polygon fill="#63b8ff" stroke="#63b8ff" points="517.4,-348.16 513.9,-338.16 510.4,-348.16 517.4,-348.16"/>
</a>
</g>
</g>
<!-- Node8 -->
<g id="Node000008" class="node">
<title>Node8</title>
<g id="a_Node000008"><a xlink:href="position_8h.html" target="_top" xlink:title=" ">
<polygon fill="white" stroke="#666666" points="1229.4,-140 1120.4,-140 1120.4,-110 1229.4,-110 1229.4,-140"/>
<text text-anchor="start" x="1128.4" y="-128" font-family="Helvetica,sans-Serif" font-size="10.00">tic_tac_toe/models</text>
<text text-anchor="middle" x="1174.9" y="-117" font-family="Helvetica,sans-Serif" font-size="10.00">/position.h</text>
</a>
</g>
</g>
<!-- Node2&#45;&gt;Node8 -->
<g id="edge18_Node000002_Node000008" class="edge">
<title>Node2&#45;&gt;Node8</title>
<g id="a_edge18_Node000002_Node000008"><a xlink:title=" ">
<path fill="none" stroke="#63b8ff" d="M574.11,-387.3C692.78,-385.09 952.27,-375.94 1031.9,-338 1106.23,-302.58 1124.65,-279.43 1161.9,-206 1170.64,-188.77 1173.74,-167.01 1174.74,-150.53"/>
<polygon fill="#63b8ff" stroke="#63b8ff" points="1178.25,-150.22 1175.14,-140.09 1171.26,-149.95 1178.25,-150.22"/>
</a>
</g>
</g>
<!-- Node14 -->
<g id="Node000014" class="node">
<title>Node14</title>
<g id="a_Node000014"><a xlink:href="tree__factory__interface_8h.html" target="_top" xlink:title=" ">
<polygon fill="white" stroke="#666666" points="166.4,-206 29.4,-206 29.4,-176 166.4,-176 166.4,-206"/>
<text text-anchor="start" x="37.4" y="-194" font-family="Helvetica,sans-Serif" font-size="10.00">monte_carlo/factories</text>
<text text-anchor="middle" x="97.9" y="-183" font-family="Helvetica,sans-Serif" font-size="10.00">/tree_factory_interface.h</text>
</a>
</g>
</g>
<!-- Node2&#45;&gt;Node14 -->
<g id="edge19_Node000002_Node000014" class="edge">
<title>Node2&#45;&gt;Node14</title>
<g id="a_edge19_Node000002_Node000014"><a xlink:title=" ">
<path fill="none" stroke="#63b8ff" d="M453.86,-384.74C398.52,-379.89 315.16,-367.86 248.9,-338 188.16,-310.63 137.22,-247.98 113.02,-214.34"/>
<polygon fill="#63b8ff" stroke="#63b8ff" points="115.8,-212.21 107.18,-206.06 110.08,-216.25 115.8,-212.21"/>
</a>
</g>
</g>
<!-- Node15 -->
<g id="Node000015" class="node">
<title>Node15</title>
<g id="a_Node000015"><a xlink:href="node__base_8h.html" target="_top" xlink:title=" ">
<polygon fill="white" stroke="#666666" points="373.9,-338 257.9,-338 257.9,-308 373.9,-308 373.9,-338"/>
<text text-anchor="start" x="265.9" y="-326" font-family="Helvetica,sans-Serif" font-size="10.00">monte_carlo/models</text>
<text text-anchor="middle" x="315.9" y="-315" font-family="Helvetica,sans-Serif" font-size="10.00">/node_base.h</text>
</a>
</g>
</g>
<!-- Node2&#45;&gt;Node15 -->
<g id="edge22_Node000002_Node000015" class="edge">
<title>Node2&#45;&gt;Node15</title>
<g id="a_edge22_Node000002_Node000015"><a xlink:title=" ">
<path fill="none" stroke="#63b8ff" d="M470.44,-373.95C440.53,-364.28 400.6,-351.38 368.83,-341.11"/>
<polygon fill="#63b8ff" stroke="#63b8ff" points="369.84,-337.76 359.25,-338.01 367.68,-344.42 369.84,-337.76"/>
</a>
</g>
</g>
<!-- Node3&#45;&gt;Node4 -->
<g id="edge3_Node000003_Node000004" class="edge">
<title>Node3&#45;&gt;Node4</title>
<g id="a_edge3_Node000003_Node000004"><a xlink:title=" ">
<path fill="none" stroke="#63b8ff" d="M459.31,-314.88C432.77,-308.37 403.17,-295.89 386.9,-272 379.39,-260.98 384.76,-255.16 386.9,-242 396.8,-180.96 387,-153.56 430.9,-110 456.94,-84.16 498.12,-73.32 528.54,-68.78"/>
<polygon fill="#63b8ff" stroke="#63b8ff" points="529.36,-72.2 538.81,-67.42 528.44,-65.26 529.36,-72.2"/>
</a>
</g>
</g>
<!-- Node5 -->
<g id="Node000005" class="node">
<title>Node5</title>
<g id="a_Node000005"><a xlink:href="board_8h.html" target="_top" xlink:title=" ">
<polygon fill="white" stroke="#666666" points="895.4,-272 786.4,-272 786.4,-242 895.4,-242 895.4,-272"/>
<text text-anchor="start" x="794.4" y="-260" font-family="Helvetica,sans-Serif" font-size="10.00">tic_tac_toe/models</text>
<text text-anchor="middle" x="840.9" y="-249" font-family="Helvetica,sans-Serif" font-size="10.00">/board.h</text>
</a>
</g>
</g>
<!-- Node3&#45;&gt;Node5 -->
<g id="edge4_Node000003_Node000005" class="edge">
<title>Node3&#45;&gt;Node5</title>
<g id="a_edge4_Node000003_Node000005"><a xlink:title=" ">
<path fill="none" stroke="#63b8ff" d="M568.63,-311.29C625.89,-300.08 715.74,-282.5 776.41,-270.62"/>
<polygon fill="#63b8ff" stroke="#63b8ff" points="777.12,-274.05 786.26,-268.69 775.77,-267.18 777.12,-274.05"/>
</a>
</g>
</g>
<!-- Node5&#45;&gt;Node4 -->
<g id="edge17_Node000005_Node000004" class="edge">
<title>Node5&#45;&gt;Node4</title>
<g id="a_edge17_Node000005_Node000004"><a xlink:title=" ">
<path fill="none" stroke="#63b8ff" d="M802.22,-241.8C784.16,-233.59 763.47,-221.74 748.9,-206 717.13,-171.7 740.71,-141.21 705.9,-110 678.48,-85.43 637.35,-74.41 607.12,-69.47"/>
<polygon fill="#63b8ff" stroke="#63b8ff" points="607.33,-65.97 596.92,-67.97 606.31,-72.89 607.33,-65.97"/>
</a>
</g>
</g>
<!-- Node6 -->
<g id="Node000006" class="node">
<title>Node6</title>
<g id="a_Node000006"><a xlink:title=" ">
<polygon fill="#e0e0e0" stroke="#999999" points="502.4,-134.5 455.4,-134.5 455.4,-115.5 502.4,-115.5 502.4,-134.5"/>
<text text-anchor="middle" x="478.9" y="-122.5" font-family="Helvetica,sans-Serif" font-size="10.00">vector</text>
</a>
</g>
</g>
<!-- Node5&#45;&gt;Node6 -->
<g id="edge5_Node000005_Node000006" class="edge">
<title>Node5&#45;&gt;Node6</title>
<g id="a_edge5_Node000005_Node000006"><a xlink:title=" ">
<path fill="none" stroke="#63b8ff" d="M786.03,-248.32C690.53,-234.89 503.56,-208.35 500.9,-206 483.56,-190.67 479.32,-163.07 478.56,-144.64"/>
<polygon fill="#63b8ff" stroke="#63b8ff" points="482.06,-144.51 478.46,-134.55 475.06,-144.58 482.06,-144.51"/>
</a>
</g>
</g>
<!-- Node7 -->
<g id="Node000007" class="node">
<title>Node7</title>
<g id="a_Node000007"><a xlink:href="player_8h.html" target="_top" xlink:title=" ">
<polygon fill="white" stroke="#666666" points="1127.4,-206 1018.4,-206 1018.4,-176 1127.4,-176 1127.4,-206"/>
<text text-anchor="start" x="1026.4" y="-194" font-family="Helvetica,sans-Serif" font-size="10.00">tic_tac_toe/models</text>
<text text-anchor="middle" x="1072.9" y="-183" font-family="Helvetica,sans-Serif" font-size="10.00">/player.h</text>
</a>
</g>
</g>
<!-- Node5&#45;&gt;Node7 -->
<g id="edge6_Node000005_Node000007" class="edge">
<title>Node5&#45;&gt;Node7</title>
<g id="a_edge6_Node000005_Node000007"><a xlink:title=" ">
<path fill="none" stroke="#63b8ff" d="M891.81,-241.95C927.32,-232.16 974.86,-219.05 1012.32,-208.71"/>
<polygon fill="#63b8ff" stroke="#63b8ff" points="1013.39,-212.05 1022.1,-206.01 1011.53,-205.3 1013.39,-212.05"/>
</a>
</g>
</g>
<!-- Node5&#45;&gt;Node8 -->
<g id="edge15_Node000005_Node000008" class="edge">
<title>Node5&#45;&gt;Node8</title>
<g id="a_edge15_Node000005_Node000008"><a xlink:title=" ">
<path fill="none" stroke="#63b8ff" d="M895.65,-252.74C970.52,-247.29 1099.79,-234.05 1136.9,-206 1154.84,-192.43 1164.68,-168.25 1169.83,-150.01"/>
<polygon fill="#63b8ff" stroke="#63b8ff" points="1173.28,-150.64 1172.34,-140.09 1166.49,-148.92 1173.28,-150.64"/>
</a>
</g>
</g>
<!-- Node13 -->
<g id="Node000013" class="node">
<title>Node13</title>
<g id="a_Node000013"><a xlink:href="alignment_8h.html" target="_top" xlink:title=" ">
<polygon fill="white" stroke="#666666" points="924.4,-200.5 757.4,-200.5 757.4,-181.5 924.4,-181.5 924.4,-200.5"/>
<text text-anchor="middle" x="840.9" y="-188.5" font-family="Helvetica,sans-Serif" font-size="10.00">tic_tac_toe/enums/alignment.h</text>
</a>
</g>
</g>
<!-- Node5&#45;&gt;Node13 -->
<g id="edge16_Node000005_Node000013" class="edge">
<title>Node5&#45;&gt;Node13</title>
<g id="a_edge16_Node000005_Node000013"><a xlink:title=" ">
<path fill="none" stroke="#63b8ff" d="M840.9,-241.8C840.9,-232.7 840.9,-220.79 840.9,-210.9"/>
<polygon fill="#63b8ff" stroke="#63b8ff" points="844.4,-210.84 840.9,-200.84 837.4,-210.84 844.4,-210.84"/>
</a>
</g>
</g>
<!-- Node7&#45;&gt;Node4 -->
<g id="edge7_Node000007_Node000004" class="edge">
<title>Node7&#45;&gt;Node4</title>
<g id="a_edge7_Node000007_Node000004"><a xlink:title=" ">
<path fill="none" stroke="#63b8ff" d="M1070.58,-175.99C1066.71,-157.52 1057.06,-125.53 1034.9,-110 1000.19,-85.69 713.31,-71.5 607.18,-67.04"/>
<polygon fill="#63b8ff" stroke="#63b8ff" points="607.03,-63.53 596.9,-66.61 606.75,-70.52 607.03,-63.53"/>
</a>
</g>
</g>
<!-- Node7&#45;&gt;Node8 -->
<g id="edge8_Node000007_Node000008" class="edge">
<title>Node7&#45;&gt;Node8</title>
<g id="a_edge8_Node000007_Node000008"><a xlink:title=" ">
<path fill="none" stroke="#63b8ff" d="M1095.28,-175.95C1109.5,-167.03 1128.1,-155.36 1143.75,-145.54"/>
<polygon fill="#63b8ff" stroke="#63b8ff" points="1145.95,-148.29 1152.56,-140.01 1142.23,-142.36 1145.95,-148.29"/>
</a>
</g>
</g>
<!-- Node10 -->
<g id="Node000010" class="node">
<title>Node10</title>
<g id="a_Node000010"><a xlink:href="symbol_8h.html" target="_top" xlink:title=" ">
<polygon fill="white" stroke="#666666" points="1168.9,-74 1014.9,-74 1014.9,-55 1168.9,-55 1168.9,-74"/>
<text text-anchor="middle" x="1091.9" y="-62" font-family="Helvetica,sans-Serif" font-size="10.00">tic_tac_toe/enums/symbol.h</text>
</a>
</g>
</g>
<!-- Node7&#45;&gt;Node10 -->
<g id="edge12_Node000007_Node000010" class="edge">
<title>Node7&#45;&gt;Node10</title>
<g id="a_edge12_Node000007_Node000010"><a xlink:title=" ">
<path fill="none" stroke="#63b8ff" d="M1075.07,-175.72C1078.52,-153.12 1085.24,-109.12 1089.06,-84.09"/>
<polygon fill="#63b8ff" stroke="#63b8ff" points="1092.54,-84.48 1090.59,-74.07 1085.62,-83.43 1092.54,-84.48"/>
</a>
</g>
</g>
<!-- Node12 -->
<g id="Node000012" class="node">
<title>Node12</title>
<g id="a_Node000012"><a xlink:href="observer_8h.html" target="_top" xlink:title=" ">
<polygon fill="white" stroke="#666666" points="1025.9,-140 909.9,-140 909.9,-110 1025.9,-110 1025.9,-140"/>
<text text-anchor="start" x="917.9" y="-128" font-family="Helvetica,sans-Serif" font-size="10.00">tic_tac_toe/observer</text>
<text text-anchor="middle" x="967.9" y="-117" font-family="Helvetica,sans-Serif" font-size="10.00">/observer.h</text>
</a>
</g>
</g>
<!-- Node7&#45;&gt;Node12 -->
<g id="edge13_Node000007_Node000012" class="edge">
<title>Node7&#45;&gt;Node12</title>
<g id="a_edge13_Node000007_Node000012"><a xlink:title=" ">
<path fill="none" stroke="#63b8ff" d="M1049.85,-175.95C1035.08,-166.95 1015.71,-155.14 999.51,-145.27"/>
<polygon fill="#63b8ff" stroke="#63b8ff" points="1001.24,-142.23 990.88,-140.01 997.6,-148.21 1001.24,-142.23"/>
</a>
</g>
</g>
<!-- Node8&#45;&gt;Node9 -->
<g id="edge9_Node000008_Node000009" class="edge">
<title>Node8&#45;&gt;Node9</title>
<g id="a_edge9_Node000008_Node000009"><a xlink:title=" ">
<path fill="none" stroke="#63b8ff" d="M1189.18,-109.84C1197.83,-101.26 1208.89,-90.3 1217.84,-81.42"/>
<polygon fill="#63b8ff" stroke="#63b8ff" points="1220.42,-83.79 1225.05,-74.27 1215.49,-78.82 1220.42,-83.79"/>
</a>
</g>
</g>
<!-- Node8&#45;&gt;Node10 -->
<g id="edge10_Node000008_Node000010" class="edge">
<title>Node8&#45;&gt;Node10</title>
<g id="a_edge10_Node000008_Node000010"><a xlink:title=" ">
<path fill="none" stroke="#63b8ff" d="M1154.8,-109.84C1142.02,-100.83 1125.5,-89.18 1112.6,-80.09"/>
<polygon fill="#63b8ff" stroke="#63b8ff" points="1114.52,-77.17 1104.33,-74.27 1110.49,-82.89 1114.52,-77.17"/>
</a>
</g>
</g>
<!-- Node11 -->
<g id="Node000011" class="node">
<title>Node11</title>
<g id="a_Node000011"><a xlink:title=" ">
<polygon fill="#e0e0e0" stroke="#999999" points="989.9,-19 945.9,-19 945.9,0 989.9,0 989.9,-19"/>
<text text-anchor="middle" x="967.9" y="-7" font-family="Helvetica,sans-Serif" font-size="10.00">string</text>
</a>
</g>
</g>
<!-- Node10&#45;&gt;Node11 -->
<g id="edge11_Node000010_Node000011" class="edge">
<title>Node10&#45;&gt;Node11</title>
<g id="a_edge11_Node000010_Node000011"><a xlink:title=" ">
<path fill="none" stroke="#63b8ff" d="M1071.97,-54.98C1051.85,-46.38 1020.52,-32.99 997.49,-23.15"/>
<polygon fill="#63b8ff" stroke="#63b8ff" points="998.75,-19.88 988.18,-19.17 996,-26.32 998.75,-19.88"/>
</a>
</g>
</g>
<!-- Node12&#45;&gt;Node11 -->
<g id="edge14_Node000012_Node000011" class="edge">
<title>Node12&#45;&gt;Node11</title>
<g id="a_edge14_Node000012_Node000011"><a xlink:title=" ">
<path fill="none" stroke="#63b8ff" d="M967.9,-109.63C967.9,-89.21 967.9,-51.81 967.9,-29.24"/>
<polygon fill="#63b8ff" stroke="#63b8ff" points="971.4,-29.23 967.9,-19.23 964.4,-29.23 971.4,-29.23"/>
</a>
</g>
</g>
<!-- Node14&#45;&gt;Node4 -->
<g id="edge20_Node000014_Node000004" class="edge">
<title>Node14&#45;&gt;Node4</title>
<g id="a_edge20_Node000014_Node000004"><a xlink:title=" ">
<path fill="none" stroke="#63b8ff" d="M87.95,-175.98C76.77,-158.36 62.24,-128.24 78.9,-110 109.04,-76.99 418.01,-68.2 528.71,-66.1"/>
<polygon fill="#63b8ff" stroke="#63b8ff" points="528.85,-69.6 538.78,-65.92 528.72,-62.6 528.85,-69.6"/>
</a>
</g>
</g>
<!-- Node14&#45;&gt;Node11 -->
<g id="edge21_Node000014_Node000011" class="edge">
<title>Node14&#45;&gt;Node11</title>
<g id="a_edge21_Node000014_Node000011"><a xlink:title=" ">
<path fill="none" stroke="#63b8ff" d="M85.24,-175.92C71.91,-159.29 54.57,-131.23 67.9,-110 97.81,-62.36 127.43,-69.08 181.9,-55 327.98,-17.23 806.75,-11.51 935.67,-10.65"/>
<polygon fill="#63b8ff" stroke="#63b8ff" points="935.72,-14.15 945.7,-10.59 935.68,-7.15 935.72,-14.15"/>
</a>
</g>
</g>
<!-- Node15&#45;&gt;Node14 -->
<g id="edge34_Node000015_Node000014" class="edge">
<title>Node15&#45;&gt;Node14</title>
<g id="a_edge34_Node000015_Node000014"><a xlink:title=" ">
<path fill="none" stroke="#63b8ff" d="M284.81,-307.99C264.53,-298.52 237.69,-285.35 214.9,-272 183.07,-253.37 148.42,-229.14 125.15,-212.25"/>
<polygon fill="#63b8ff" stroke="#63b8ff" points="126.95,-209.23 116.82,-206.16 122.82,-214.88 126.95,-209.23"/>
</a>
</g>
</g>
<!-- Node16 -->
<g id="Node000016" class="node">
<title>Node16</title>
<g id="a_Node000016"><a xlink:href="node_8h.html" target="_top" xlink:title=" ">
<polygon fill="white" stroke="#666666" points="511.9,-272 395.9,-272 395.9,-242 511.9,-242 511.9,-272"/>
<text text-anchor="start" x="403.9" y="-260" font-family="Helvetica,sans-Serif" font-size="10.00">monte_carlo/models</text>
<text text-anchor="middle" x="453.9" y="-249" font-family="Helvetica,sans-Serif" font-size="10.00">/node.h</text>
</a>
</g>
</g>
<!-- Node15&#45;&gt;Node16 -->
<g id="edge23_Node000015_Node000016" class="edge">
<title>Node15&#45;&gt;Node16</title>
<g id="a_edge23_Node000015_Node000016"><a xlink:title=" ">
<path fill="none" stroke="#63b8ff" d="M346.18,-307.95C366.22,-298.66 392.71,-286.38 414.4,-276.32"/>
<polygon fill="#63b8ff" stroke="#63b8ff" points="416.08,-279.39 423.68,-272.01 413.14,-273.04 416.08,-279.39"/>
</a>
</g>
</g>
<!-- Node21 -->
<g id="Node000021" class="node">
<title>Node21</title>
<g id="a_Node000021"><a xlink:title=" ">
<polygon fill="#e0e0e0" stroke="#999999" points="339.9,-272 223.9,-272 223.9,-242 339.9,-242 339.9,-272"/>
<text text-anchor="start" x="231.9" y="-260" font-family="Helvetica,sans-Serif" font-size="10.00">monte_carlo/models</text>
<text text-anchor="middle" x="281.9" y="-249" font-family="Helvetica,sans-Serif" font-size="10.00">/node_base.tpp</text>
</a>
</g>
</g>
<!-- Node15&#45;&gt;Node21 -->
<g id="edge35_Node000015_Node000021" class="edge">
<title>Node15&#45;&gt;Node21</title>
<g id="a_edge35_Node000015_Node000021"><a xlink:title=" ">
<path fill="none" stroke="#63b8ff" d="M308.35,-307.8C304.21,-300.01 298.98,-290.16 294.26,-281.28"/>
<polygon fill="#63b8ff" stroke="#63b8ff" points="297.2,-279.35 289.42,-272.16 291.02,-282.64 297.2,-279.35"/>
</a>
</g>
</g>
<!-- Node16&#45;&gt;Node4 -->
<g id="edge33_Node000016_Node000004" class="edge">
<title>Node16&#45;&gt;Node4</title>
<g id="a_edge33_Node000016_Node000004"><a xlink:title=" ">
<path fill="none" stroke="#63b8ff" d="M448.07,-241.99C437.46,-214.05 418.58,-150.58 446.9,-110 465.18,-83.79 500.7,-72.98 528.55,-68.54"/>
<polygon fill="#63b8ff" stroke="#63b8ff" points="529.36,-71.96 538.79,-67.13 528.41,-65.02 529.36,-71.96"/>
</a>
</g>
</g>
<!-- Node16&#45;&gt;Node6 -->
<g id="edge32_Node000016_Node000006" class="edge">
<title>Node16&#45;&gt;Node6</title>
<g id="a_edge32_Node000016_Node000006"><a xlink:title=" ">
<path fill="none" stroke="#63b8ff" d="M456.19,-241.8C458.82,-225.78 463.36,-198.96 467.9,-176 469.95,-165.6 472.48,-154.03 474.59,-144.64"/>
<polygon fill="#63b8ff" stroke="#63b8ff" points="478.02,-145.36 476.83,-134.83 471.2,-143.8 478.02,-145.36"/>
</a>
</g>
</g>
<!-- Node17 -->
<g id="Node000017" class="node">
<title>Node17</title>
<g id="a_Node000017"><a xlink:href="rollout__strategy__interface_8h.html" target="_top" xlink:title=" ">
<polygon fill="white" stroke="#666666" points="339.4,-206 184.4,-206 184.4,-176 339.4,-176 339.4,-206"/>
<text text-anchor="start" x="192.4" y="-194" font-family="Helvetica,sans-Serif" font-size="10.00">monte_carlo/models</text>
<text text-anchor="middle" x="261.9" y="-183" font-family="Helvetica,sans-Serif" font-size="10.00">/rollout_strategy_interface.h</text>
</a>
</g>
</g>
<!-- Node16&#45;&gt;Node17 -->
<g id="edge24_Node000016_Node000017" class="edge">
<title>Node16&#45;&gt;Node17</title>
<g id="a_edge24_Node000016_Node000017"><a xlink:title=" ">
<path fill="none" stroke="#63b8ff" d="M411.76,-241.95C382.87,-232.33 344.37,-219.49 313.62,-209.24"/>
<polygon fill="#63b8ff" stroke="#63b8ff" points="314.53,-205.85 303.93,-206.01 312.31,-212.5 314.53,-205.85"/>
</a>
</g>
</g>
<!-- Node17&#45;&gt;Node4 -->
<g id="edge29_Node000017_Node000004" class="edge">
<title>Node17&#45;&gt;Node4</title>
<g id="a_edge29_Node000017_Node000004"><a xlink:title=" ">
<path fill="none" stroke="#63b8ff" d="M280.95,-175.84C311.09,-153.47 366.9,-112.27 371.9,-110 423.34,-86.65 488.11,-75.04 528.77,-69.65"/>
<polygon fill="#63b8ff" stroke="#63b8ff" points="529.34,-73.11 538.82,-68.39 528.46,-66.17 529.34,-73.11"/>
</a>
</g>
</g>
<!-- Node17&#45;&gt;Node6 -->
<g id="edge31_Node000017_Node000006" class="edge">
<title>Node17&#45;&gt;Node6</title>
<g id="a_edge31_Node000017_Node000006"><a xlink:title=" ">
<path fill="none" stroke="#63b8ff" d="M309.52,-175.95C350.69,-163.81 409.14,-146.57 445.5,-135.85"/>
<polygon fill="#63b8ff" stroke="#63b8ff" points="446.54,-139.19 455.14,-133.01 444.56,-132.48 446.54,-139.19"/>
</a>
</g>
</g>
<!-- Node18 -->
<g id="Node000018" class="node">
<title>Node18</title>
<g id="a_Node000018"><a xlink:href="action_8h.html" target="_top" xlink:title=" ">
<polygon fill="white" stroke="#666666" points="319.9,-140 203.9,-140 203.9,-110 319.9,-110 319.9,-140"/>
<text text-anchor="start" x="211.9" y="-128" font-family="Helvetica,sans-Serif" font-size="10.00">monte_carlo/models</text>
<text text-anchor="middle" x="261.9" y="-117" font-family="Helvetica,sans-Serif" font-size="10.00">/action.h</text>
</a>
</g>
</g>
<!-- Node17&#45;&gt;Node18 -->
<g id="edge25_Node000017_Node000018" class="edge">
<title>Node17&#45;&gt;Node18</title>
<g id="a_edge25_Node000017_Node000018"><a xlink:title=" ">
<path fill="none" stroke="#63b8ff" d="M261.9,-175.8C261.9,-168.34 261.9,-158.99 261.9,-150.41"/>
<polygon fill="#63b8ff" stroke="#63b8ff" points="265.4,-150.16 261.9,-140.16 258.4,-150.16 265.4,-150.16"/>
</a>
</g>
</g>
<!-- Node19 -->
<g id="Node000019" class="node">
<title>Node19</title>
<g id="a_Node000019"><a xlink:title=" ">
<polygon fill="#e0e0e0" stroke="#999999" points="247.4,-74 190.4,-74 190.4,-55 247.4,-55 247.4,-74"/>
<text text-anchor="middle" x="218.9" y="-62" font-family="Helvetica,sans-Serif" font-size="10.00">ostream</text>
</a>
</g>
</g>
<!-- Node17&#45;&gt;Node19 -->
<g id="edge30_Node000017_Node000019" class="edge">
<title>Node17&#45;&gt;Node19</title>
<g id="a_edge30_Node000017_Node000019"><a xlink:title=" ">
<path fill="none" stroke="#63b8ff" d="M231.87,-175.84C217.91,-167.53 202.7,-155.57 194.9,-140 185.51,-121.29 196.11,-98.12 206.04,-82.64"/>
<polygon fill="#63b8ff" stroke="#63b8ff" points="209.14,-84.31 211.95,-74.1 203.38,-80.33 209.14,-84.31"/>
</a>
</g>
</g>
<!-- Node17&#45;&gt;Node20 -->
<g id="edge28_Node000017_Node000020" class="edge">
<title>Node17&#45;&gt;Node20</title>
<g id="a_edge28_Node000017_Node000020"><a xlink:title=" ">
<path fill="none" stroke="#63b8ff" d="M230.29,-175.95C205.26,-164.83 170.6,-149.42 146.41,-138.67"/>
<polygon fill="#63b8ff" stroke="#63b8ff" points="147.62,-135.38 137.06,-134.52 144.78,-141.78 147.62,-135.38"/>
</a>
</g>
</g>
<!-- Node18&#45;&gt;Node4 -->
<g id="edge26_Node000018_Node000004" class="edge">
<title>Node18&#45;&gt;Node4</title>
<g id="a_edge26_Node000018_Node000004"><a xlink:title=" ">
<path fill="none" stroke="#63b8ff" d="M320.05,-112.67C324.73,-111.76 329.39,-110.87 333.9,-110 402.42,-96.82 482.27,-81.68 528.75,-72.89"/>
<polygon fill="#63b8ff" stroke="#63b8ff" points="529.53,-76.31 538.7,-71.01 528.23,-69.43 529.53,-76.31"/>
</a>
</g>
</g>
<!-- Node18&#45;&gt;Node19 -->
<g id="edge27_Node000018_Node000019" class="edge">
<title>Node18&#45;&gt;Node19</title>
<g id="a_edge27_Node000018_Node000019"><a xlink:title=" ">
<path fill="none" stroke="#63b8ff" d="M251.49,-109.84C245.44,-101.61 237.77,-91.18 231.4,-82.51"/>
<polygon fill="#63b8ff" stroke="#63b8ff" points="234.08,-80.25 225.34,-74.27 228.44,-84.4 234.08,-80.25"/>
</a>
</g>
</g>
<!-- Node22&#45;&gt;Node5 -->
<g id="edge38_Node000022_Node000005" class="edge">
<title>Node22&#45;&gt;Node5</title>
<g id="a_edge38_Node000022_Node000005"><a xlink:title=" ">
<path fill="none" stroke="#63b8ff" d="M940.02,-307.95C921.74,-298.74 897.64,-286.6 877.78,-276.59"/>
<polygon fill="#63b8ff" stroke="#63b8ff" points="879.21,-273.39 868.7,-272.01 876.06,-279.64 879.21,-273.39"/>
</a>
</g>
</g>
<!-- Node22&#45;&gt;Node7 -->
<g id="edge37_Node000022_Node000007" class="edge">
<title>Node22&#45;&gt;Node7</title>
<g id="a_edge37_Node000022_Node000007"><a xlink:title=" ">
<path fill="none" stroke="#63b8ff" d="M999.23,-307.81C1014.83,-299.37 1032.88,-287.29 1044.9,-272 1057.64,-255.77 1064.83,-233.3 1068.72,-216.31"/>
<polygon fill="#63b8ff" stroke="#63b8ff" points="1072.24,-216.56 1070.83,-206.06 1065.39,-215.15 1072.24,-216.56"/>
</a>
</g>
</g>
<!-- Node23&#45;&gt;Node4 -->
<g id="edge43_Node000023_Node000004" class="edge">
<title>Node23&#45;&gt;Node4</title>
<g id="a_edge43_Node000023_Node000004"><a xlink:title=" ">
<path fill="none" stroke="#63b8ff" d="M864.28,-307.9C877.57,-298.94 893.73,-286.36 904.9,-272 932.25,-236.81 960.14,-212.02 933.9,-176 894.79,-122.32 693.17,-85.04 607.01,-71.32"/>
<polygon fill="#63b8ff" stroke="#63b8ff" points="607.52,-67.86 597.1,-69.77 606.43,-74.78 607.52,-67.86"/>
</a>
</g>
</g>
<!-- Node23&#45;&gt;Node5 -->
<g id="edge44_Node000023_Node000005" class="edge">
<title>Node23&#45;&gt;Node5</title>
<g id="a_edge44_Node000023_Node000005"><a xlink:title=" ">
<path fill="none" stroke="#63b8ff" d="M840.9,-307.8C840.9,-300.34 840.9,-290.99 840.9,-282.41"/>
<polygon fill="#63b8ff" stroke="#63b8ff" points="844.4,-282.16 840.9,-272.16 837.4,-282.16 844.4,-282.16"/>
</a>
</g>
</g>
<!-- Node23&#45;&gt;Node7 -->
<g id="edge40_Node000023_Node000007" class="edge">
<title>Node23&#45;&gt;Node7</title>
<g id="a_edge40_Node000023_Node000007"><a xlink:title=" ">
<path fill="none" stroke="#63b8ff" d="M895.71,-308.67C935.67,-298.31 985.86,-283.77 1003.9,-272 1026.52,-257.23 1045.96,-232.97 1058.38,-215.03"/>
<polygon fill="#63b8ff" stroke="#63b8ff" points="1061.56,-216.56 1064.22,-206.31 1055.75,-212.67 1061.56,-216.56"/>
</a>
</g>
</g>
<!-- Node23&#45;&gt;Node12 -->
<g id="edge42_Node000023_Node000012" class="edge">
<title>Node23&#45;&gt;Node12</title>
<g id="a_edge42_Node000023_Node000012"><a xlink:title=" ">
<path fill="none" stroke="#63b8ff" d="M891.61,-307.98C922.18,-298.39 956.9,-285.1 965.9,-272 990.81,-235.74 982.86,-181.55 975.16,-150.4"/>
<polygon fill="#63b8ff" stroke="#63b8ff" points="978.46,-149.17 972.5,-140.41 971.69,-150.97 978.46,-149.17"/>
</a>
</g>
</g>
<!-- Node23&#45;&gt;Node16 -->
<g id="edge41_Node000023_Node000016" class="edge">
<title>Node23&#45;&gt;Node16</title>
<g id="a_edge41_Node000023_Node000016"><a xlink:title=" ">
<path fill="none" stroke="#63b8ff" d="M786.27,-312.97C717.02,-301.51 597.61,-281.77 522.35,-269.32"/>
<polygon fill="#63b8ff" stroke="#63b8ff" points="522.47,-265.79 512.04,-267.61 521.33,-272.7 522.47,-265.79"/>
</a>
</g>
</g>
<!-- Node24&#45;&gt;Node4 -->
<g id="edge51_Node000024_Node000004" class="edge">
<title>Node24&#45;&gt;Node4</title>
<g id="a_edge51_Node000024_Node000004"><a xlink:title=" ">
<path fill="none" stroke="#63b8ff" d="M668.84,-307.75C664.79,-297.85 659.55,-284.28 655.9,-272 643.44,-230.14 651.1,-216.56 634.9,-176 620.68,-140.43 595.62,-103.16 580.51,-82.27"/>
<polygon fill="#63b8ff" stroke="#63b8ff" points="583.27,-80.11 574.52,-74.14 577.63,-84.26 583.27,-80.11"/>
</a>
</g>
</g>
<!-- Node24&#45;&gt;Node5 -->
<g id="edge46_Node000024_Node000005" class="edge">
<title>Node24&#45;&gt;Node5</title>
<g id="a_edge46_Node000024_Node000005"><a xlink:title=" ">
<path fill="none" stroke="#63b8ff" d="M711.32,-307.95C735.97,-298.45 768.73,-285.82 795.14,-275.64"/>
<polygon fill="#63b8ff" stroke="#63b8ff" points="796.48,-278.88 804.55,-272.01 793.96,-272.34 796.48,-278.88"/>
</a>
</g>
</g>
<!-- Node25 -->
<g id="Node000025" class="node">
<title>Node25</title>
<g id="a_Node000025"><a xlink:href="subject_8h.html" target="_top" xlink:title=" ">
<polygon fill="white" stroke="#666666" points="625.9,-206 509.9,-206 509.9,-176 625.9,-176 625.9,-206"/>
<text text-anchor="start" x="517.9" y="-194" font-family="Helvetica,sans-Serif" font-size="10.00">tic_tac_toe/observer</text>
<text text-anchor="middle" x="567.9" y="-183" font-family="Helvetica,sans-Serif" font-size="10.00">/subject.h</text>
</a>
</g>
</g>
<!-- Node24&#45;&gt;Node25 -->
<g id="edge47_Node000024_Node000025" class="edge">
<title>Node24&#45;&gt;Node25</title>
<g id="a_edge47_Node000024_Node000025"><a xlink:title=" ">
<path fill="none" stroke="#63b8ff" d="M658.22,-307.98C647.29,-298.4 633.03,-285.11 621.9,-272 606.66,-254.06 591.89,-231.73 581.66,-215.22"/>
<polygon fill="#63b8ff" stroke="#63b8ff" points="584.38,-212.97 576.19,-206.25 578.41,-216.61 584.38,-212.97"/>
</a>
</g>
</g>
<!-- Node26 -->
<g id="Node000026" class="node">
<title>Node26</title>
<g id="a_Node000026"><a xlink:title=" ">
<polygon fill="#e0e0e0" stroke="#999999" points="729.4,-266.5 664.4,-266.5 664.4,-247.5 729.4,-247.5 729.4,-266.5"/>
<text text-anchor="middle" x="696.9" y="-254.5" font-family="Helvetica,sans-Serif" font-size="10.00">stdexcept</text>
</a>
</g>
</g>
<!-- Node24&#45;&gt;Node26 -->
<g id="edge52_Node000024_Node000026" class="edge">
<title>Node24&#45;&gt;Node26</title>
<g id="a_edge52_Node000024_Node000026"><a xlink:title=" ">
<path fill="none" stroke="#63b8ff" d="M679.78,-307.8C682.94,-298.6 687.09,-286.53 690.51,-276.58"/>
<polygon fill="#63b8ff" stroke="#63b8ff" points="693.91,-277.44 693.86,-266.84 687.29,-275.16 693.91,-277.44"/>
</a>
</g>
</g>
<!-- Node25&#45;&gt;Node4 -->
<g id="edge49_Node000025_Node000004" class="edge">
<title>Node25&#45;&gt;Node4</title>
<g id="a_edge49_Node000025_Node000004"><a xlink:title=" ">
<path fill="none" stroke="#63b8ff" d="M567.9,-175.72C567.9,-153.12 567.9,-109.12 567.9,-84.09"/>
<polygon fill="#63b8ff" stroke="#63b8ff" points="571.4,-84.07 567.9,-74.07 564.4,-84.07 571.4,-84.07"/>
</a>
</g>
</g>
<!-- Node25&#45;&gt;Node6 -->
<g id="edge50_Node000025_Node000006" class="edge">
<title>Node25&#45;&gt;Node6</title>
<g id="a_edge50_Node000025_Node000006"><a xlink:title=" ">
<path fill="none" stroke="#63b8ff" d="M548.14,-175.8C533.64,-165.37 513.99,-151.24 499.33,-140.69"/>
<polygon fill="#63b8ff" stroke="#63b8ff" points="501.1,-137.66 490.94,-134.66 497.01,-143.34 501.1,-137.66"/>
</a>
</g>
</g>
<!-- Node25&#45;&gt;Node12 -->
<g id="edge48_Node000025_Node000012" class="edge">
<title>Node25&#45;&gt;Node12</title>
<g id="a_edge48_Node000025_Node000012"><a xlink:title=" ">
<path fill="none" stroke="#63b8ff" d="M626.06,-180.69C698.64,-169.08 822.56,-149.25 899.58,-136.93"/>
<polygon fill="#63b8ff" stroke="#63b8ff" points="900.34,-140.35 909.66,-135.32 899.23,-133.44 900.34,-140.35"/>
</a>
</g>
</g>
</g>
</svg>

<g id="navigator" transform="translate(0 0)" fill="#404254">
  <rect fill="#f2f5e9" fill-opacity="0.5" stroke="#606060" stroke-width=".5" x="0" y="0" width="60" height="60"/>
  <use id="zoomplus" xlink:href="#zoomPlus" x="17" y="9" onmousedown="handleZoom(evt,'in')"/>
  <use id="zoomminus" xlink:href="#zoomMin" x="42" y="9" onmousedown="handleZoom(evt,'out')"/>
  <use id="reset" xlink:href="#resetDef" x="30" y="36" onmousedown="handleReset()"/>
   <use id="arrowup" xlink:href="#arrowUp" x="0" y="0" onmousedown="handlePan(0,-1)"/>
  <use id="arrowright" xlink:href="#arrowRight" x="0" y="0" onmousedown="handlePan(1,0)"/>
  <use id="arrowdown" xlink:href="#arrowDown" x="0" y="0" onmousedown="handlePan(0,1)"/>
  <use id="arrowleft" xlink:href="#arrowLeft" x="0" y="0" onmousedown="handlePan(-1,0)"/>
</g>
<svg viewBox="0 0 15 15" width="100%" height="30px" preserveAspectRatio="xMaxYMin meet">
 <g id="arrow_out" transform="scale(0.3 0.3)">
  <a xlink:href="main_8cpp__incl_org.svg" target="_base">
   <rect id="button" ry="5" rx="5" y="6" x="6" height="38" width="38"
        fill="#f2f5e9" fill-opacity="0.5" stroke="#606060" stroke-width="1.0"/>
   <path id="arrow"
     d="M 11.500037,31.436501 C 11.940474,20.09759 22.043105,11.32322 32.158766,21.979434 L 37.068811,17.246167 C 37.068811,17.246167 37.088388,32 37.088388,32 L 22.160133,31.978069 C 22.160133,31.978069 26.997745,27.140456 26.997745,27.140456 C 18.528582,18.264221 13.291696,25.230495 11.500037,31.436501 z"
     style="fill:#404040;"/>
  </a>
 </g>
</svg>

<style type='text/css'>
<![CDATA[
[data-mouse-over-selected='false'] { opacity: 0.7; }
[data-mouse-over-selected='true']  { opacity: 1.0; }
]]>
</style>
<script type="application/ecmascript"><![CDATA[
document.addEventListener('DOMContentLoaded', (event) => {
  highlightEdges();
  highlightAdjacentNodes();
});
]]></script>
</svg>
