<?xml version="1.0" encoding="UTF-8" standalone="no"?>
<!DOCTYPE svg PUBLIC "-//W3C//DTD SVG 1.1//EN"
 "http://www.w3.org/Graphics/SVG/1.1/DTD/svg11.dtd">
<!-- Generated by graphviz version 2.43.0 (0)
 -->
<!-- Title: examples/monte_carlo/tic_tac_toe/include/tic_tac_toe/models/move.h Pages: 1 -->
<!--zoomable 566 -->

<svg id="main" version="1.1" xmlns="http://www.w3.org/2000/svg" xmlns:xlink="http://www.w3.org/1999/xlink" xml:space="preserve" onload="init(evt)">
<style type="text/css"><![CDATA[
.node, .edge {opacity: 0.7;}
.node.selected, .edge.selected {opacity: 1;}
.edge:hover path { stroke: red; }
.edge:hover polygon { stroke: red; fill: red; }
]]></style>

<defs>
  <circle id="rim" cx="0" cy="0" r="7"/>
  <circle id="rim2" cx="0" cy="0" r="3.5"/>
  <g id="zoomPlus">
    <use xlink:href="#rim" fill="#404040"><set attributeName="fill" to="#808080" begin="zoomplus.mouseover" end="zoomplus.mouseout"/></use>
    <path d="M-4,0h8M0,-4v8" fill="none" stroke="white" stroke-width="1.5" pointer-events="none"/>
  </g>
  <g id="zoomMin">
    <use xlink:href="#rim" fill="#404040"><set attributeName="fill" to="#808080" begin="zoomminus.mouseover" end="zoomminus.mouseout"/></use>
    <path d="M-4,0h8" fill="none" stroke="white" stroke-width="1.5" pointer-events="none"/>
  </g>
  <g id="arrowUp" transform="translate(30 24)">
    <use xlink:href="#rim"/>
    <path pointer-events="none" fill="none" stroke="white" stroke-width="1.5" d="M0,-3.0v7 M-2.5,-0.5L0,-3.0L2.5,-0.5"/>
  </g>
  <g id="arrowRight" transform="rotate(90) translate(36 -43)">
    <use xlink:href="#rim"/>
    <path pointer-events="none" fill="none" stroke="white" stroke-width="1.5" d="M0,-3.0v7 M-2.5,-0.5L0,-3.0L2.5,-0.5"/>
  </g>
  <g id="arrowDown" transform="rotate(180) translate(-30 -48)">
    <use xlink:href="#rim"/>
    <path pointer-events="none" fill="none" stroke="white" stroke-width="1.5" d="M0,-3.0v7 M-2.5,-0.5L0,-3.0L2.5,-0.5"/>
  </g>
  <g id="arrowLeft" transform="rotate(270) translate(-36 17)">
    <use xlink:href="#rim"/>
    <path pointer-events="none" fill="none" stroke="white" stroke-width="1.5" d="M0,-3.0v7 M-2.5,-0.5L0,-3.0L2.5,-0.5"/>
  </g>
  <g id="resetDef">
    <use xlink:href="#rim2" fill="#404040"><set attributeName="fill" to="#808080" begin="reset.mouseover" end="reset.mouseout"/></use>
  </g>
</defs>
<script type="application/ecmascript">
var viewWidth = 978;
var viewHeight = 566;
var sectionId = 'dynsection-0';
</script>
<script type="application/ecmascript" xlink:href="svg.min.js"/>
<svg id="graph" class="graph">
<g id="viewport">
<title>examples/monte_carlo/tic_tac_toe/include/tic_tac_toe/models/move.h</title>
<!-- Node1 -->
<g id="Node000001" class="node">
<title>Node1</title>
<g id="a_Node000001"><a xlink:title=" ">
<polygon fill="#999999" stroke="#666666" points="642.27,-558 490.27,-558 490.27,-517 642.27,-517 642.27,-558"/>
<text text-anchor="start" x="498.27" y="-546" font-family="Helvetica,sans-Serif" font-size="10.00">examples/monte_carlo</text>
<text text-anchor="start" x="498.27" y="-535" font-family="Helvetica,sans-Serif" font-size="10.00">/tic_tac_toe/include</text>
<text text-anchor="middle" x="566.27" y="-524" font-family="Helvetica,sans-Serif" font-size="10.00">/tic_tac_toe/models/move.h</text>
</a>
</g>
</g>
<!-- Node2 -->
<g id="Node000002" class="node">
<title>Node2</title>
<g id="a_Node000002"><a xlink:href="action__base_8h.html" target="_top" xlink:title=" ">
<polygon fill="white" stroke="#666666" points="409.27,-481 293.27,-481 293.27,-451 409.27,-451 409.27,-481"/>
<text text-anchor="start" x="301.27" y="-469" font-family="Helvetica,sans-Serif" font-size="10.00">monte_carlo/models</text>
<text text-anchor="middle" x="351.27" y="-458" font-family="Helvetica,sans-Serif" font-size="10.00">/action_base.h</text>
</a>
</g>
</g>
<!-- Node1&#45;&gt;Node2 -->
<g id="edge1_Node000001_Node000002" class="edge">
<title>Node1&#45;&gt;Node2</title>
<g id="a_edge1_Node000001_Node000002"><a xlink:title=" ">
<path fill="none" stroke="#63b8ff" d="M505.81,-516.96C473.87,-506.63 435.02,-494.07 404.27,-484.13"/>
<polygon fill="#63b8ff" stroke="#63b8ff" points="405.18,-480.75 394.59,-481 403.03,-487.41 405.18,-480.75"/>
</a>
</g>
</g>
<!-- Node6 -->
<g id="Node000006" class="node">
<title>Node6</title>
<g id="a_Node000006"><a xlink:href="tree__factory__interface_8h.html" target="_top" xlink:title=" ">
<polygon fill="white" stroke="#666666" points="477.77,-349 340.77,-349 340.77,-319 477.77,-319 477.77,-349"/>
<text text-anchor="start" x="348.77" y="-337" font-family="Helvetica,sans-Serif" font-size="10.00">monte_carlo/factories</text>
<text text-anchor="middle" x="409.27" y="-326" font-family="Helvetica,sans-Serif" font-size="10.00">/tree_factory_interface.h</text>
</a>
</g>
</g>
<!-- Node1&#45;&gt;Node6 -->
<g id="edge23_Node000001_Node000006" class="edge">
<title>Node1&#45;&gt;Node6</title>
<g id="a_edge23_Node000001_Node000006"><a xlink:title=" ">
<path fill="none" stroke="#63b8ff" d="M550.93,-516.81C521.59,-479.16 457.7,-397.15 426.75,-357.44"/>
<polygon fill="#63b8ff" stroke="#63b8ff" points="429.24,-354.93 420.33,-349.2 423.71,-359.24 429.24,-354.93"/>
</a>
</g>
</g>
<!-- Node15 -->
<g id="Node000015" class="node">
<title>Node15</title>
<g id="a_Node000015"><a xlink:href="game__state_8h.html" target="_top" xlink:title=" ">
<polygon fill="white" stroke="#666666" points="643.77,-349 534.77,-349 534.77,-319 643.77,-319 643.77,-349"/>
<text text-anchor="start" x="542.77" y="-337" font-family="Helvetica,sans-Serif" font-size="10.00">tic_tac_toe/models</text>
<text text-anchor="middle" x="589.27" y="-326" font-family="Helvetica,sans-Serif" font-size="10.00">/game_state.h</text>
</a>
</g>
</g>
<!-- Node1&#45;&gt;Node15 -->
<g id="edge24_Node000001_Node000015" class="edge">
<title>Node1&#45;&gt;Node15</title>
<g id="a_edge24_Node000001_Node000015"><a xlink:title=" ">
<path fill="none" stroke="#63b8ff" d="M568.51,-516.81C572.75,-479.71 581.9,-399.56 586.5,-359.22"/>
<polygon fill="#63b8ff" stroke="#63b8ff" points="589.99,-359.53 587.65,-349.2 583.04,-358.73 589.99,-359.53"/>
</a>
</g>
</g>
<!-- Node18 -->
<g id="Node000018" class="node">
<title>Node18</title>
<g id="a_Node000018"><a xlink:href="position_8h.html" target="_top" xlink:title=" ">
<polygon fill="white" stroke="#666666" points="964.77,-151 855.77,-151 855.77,-121 964.77,-121 964.77,-151"/>
<text text-anchor="start" x="863.77" y="-139" font-family="Helvetica,sans-Serif" font-size="10.00">tic_tac_toe/models</text>
<text text-anchor="middle" x="910.27" y="-128" font-family="Helvetica,sans-Serif" font-size="10.00">/position.h</text>
</a>
</g>
</g>
<!-- Node1&#45;&gt;Node18 -->
<g id="edge40_Node000001_Node000018" class="edge">
<title>Node1&#45;&gt;Node18</title>
<g id="a_edge40_Node000001_Node000018"><a xlink:title=" ">
<path fill="none" stroke="#63b8ff" d="M642.73,-526.73C759.86,-509.61 970.27,-469.34 970.27,-401 970.27,-401 970.27,-401 970.27,-267 970.27,-226.27 945.68,-184.41 927.99,-159.56"/>
<polygon fill="#63b8ff" stroke="#63b8ff" points="930.58,-157.19 921.84,-151.21 924.95,-161.34 930.58,-157.19"/>
</a>
</g>
</g>
<!-- Node3 -->
<g id="Node000003" class="node">
<title>Node3</title>
<g id="a_Node000003"><a xlink:title=" ">
<polygon fill="#e0e0e0" stroke="#999999" points="516.27,-145.5 458.27,-145.5 458.27,-126.5 516.27,-126.5 516.27,-145.5"/>
<text text-anchor="middle" x="487.27" y="-133.5" font-family="Helvetica,sans-Serif" font-size="10.00">memory</text>
</a>
</g>
</g>
<!-- Node2&#45;&gt;Node3 -->
<g id="edge2_Node000002_Node000003" class="edge">
<title>Node2&#45;&gt;Node3</title>
<g id="a_edge2_Node000002_Node000003"><a xlink:title=" ">
<path fill="none" stroke="#63b8ff" d="M392.4,-450.89C438.32,-432.22 506.27,-394.53 506.27,-335 506.27,-335 506.27,-335 506.27,-267 506.27,-227.04 497.37,-180.9 491.75,-155.75"/>
<polygon fill="#63b8ff" stroke="#63b8ff" points="495.11,-154.72 489.45,-145.76 488.29,-156.29 495.11,-154.72"/>
</a>
</g>
</g>
<!-- Node4 -->
<g id="Node000004" class="node">
<title>Node4</title>
<g id="a_Node000004"><a xlink:title=" ">
<polygon fill="#e0e0e0" stroke="#999999" points="114.77,-145.5 57.77,-145.5 57.77,-126.5 114.77,-126.5 114.77,-145.5"/>
<text text-anchor="middle" x="86.27" y="-133.5" font-family="Helvetica,sans-Serif" font-size="10.00">ostream</text>
</a>
</g>
</g>
<!-- Node2&#45;&gt;Node4 -->
<g id="edge3_Node000002_Node000004" class="edge">
<title>Node2&#45;&gt;Node4</title>
<g id="a_edge3_Node000002_Node000004"><a xlink:title=" ">
<path fill="none" stroke="#63b8ff" d="M293.25,-462.7C238.42,-458.54 155.13,-446.97 90.27,-415 42.26,-391.34 0.27,-388.52 0.27,-335 0.27,-335 0.27,-335 0.27,-267 0.27,-230.46 -0.8,-217.54 19.27,-187 29.34,-171.68 45.78,-159.3 59.86,-150.7"/>
<polygon fill="#63b8ff" stroke="#63b8ff" points="61.78,-153.63 68.68,-145.59 58.27,-147.57 61.78,-153.63"/>
</a>
</g>
</g>
<!-- Node5 -->
<g id="Node000005" class="node">
<title>Node5</title>
<g id="a_Node000005"><a xlink:href="action_8h.html" target="_top" xlink:title=" ">
<polygon fill="white" stroke="#666666" points="144.27,-217 28.27,-217 28.27,-187 144.27,-187 144.27,-217"/>
<text text-anchor="start" x="36.27" y="-205" font-family="Helvetica,sans-Serif" font-size="10.00">monte_carlo/models</text>
<text text-anchor="middle" x="86.27" y="-194" font-family="Helvetica,sans-Serif" font-size="10.00">/action.h</text>
</a>
</g>
</g>
<!-- Node2&#45;&gt;Node5 -->
<g id="edge4_Node000002_Node000005" class="edge">
<title>Node2&#45;&gt;Node5</title>
<g id="a_edge4_Node000002_Node000005"><a xlink:title=" ">
<path fill="none" stroke="#63b8ff" d="M293.14,-461.27C223.7,-453.25 110.93,-428.06 63.27,-349 40.08,-310.53 59.36,-256.4 73.87,-226.02"/>
<polygon fill="#63b8ff" stroke="#63b8ff" points="77.02,-227.55 78.35,-217.04 70.75,-224.42 77.02,-227.55"/>
</a>
</g>
</g>
<!-- Node2&#45;&gt;Node6 -->
<g id="edge7_Node000002_Node000006" class="edge">
<title>Node2&#45;&gt;Node6</title>
<g id="a_edge7_Node000002_Node000006"><a xlink:title=" ">
<path fill="none" stroke="#63b8ff" d="M381.29,-450.84C395.25,-442.53 410.46,-430.57 418.27,-415 427.04,-397.51 423.53,-375.24 418.54,-358.63"/>
<polygon fill="#63b8ff" stroke="#63b8ff" points="421.85,-357.49 415.35,-349.12 415.22,-359.72 421.85,-357.49"/>
</a>
</g>
</g>
<!-- Node8 -->
<g id="Node000008" class="node">
<title>Node8</title>
<g id="a_Node000008"><a xlink:href="node__base_8h.html" target="_top" xlink:title=" ">
<polygon fill="white" stroke="#666666" points="275.27,-409.5 197.27,-409.5 197.27,-390.5 275.27,-390.5 275.27,-409.5"/>
<text text-anchor="middle" x="236.27" y="-397.5" font-family="Helvetica,sans-Serif" font-size="10.00">node_base.h</text>
</a>
</g>
</g>
<!-- Node2&#45;&gt;Node8 -->
<g id="edge10_Node000002_Node000008" class="edge">
<title>Node2&#45;&gt;Node8</title>
<g id="a_edge10_Node000002_Node000008"><a xlink:title=" ">
<path fill="none" stroke="#63b8ff" d="M326.03,-450.95C306.48,-440.08 279.58,-425.11 260.34,-414.4"/>
<polygon fill="#63b8ff" stroke="#63b8ff" points="262.01,-411.32 251.57,-409.52 258.61,-417.44 262.01,-411.32"/>
</a>
</g>
</g>
<!-- Node14 -->
<g id="Node000014" class="node">
<title>Node14</title>
<g id="a_Node000014"><a xlink:title=" ">
<polygon fill="#e0e0e0" stroke="#999999" points="409.27,-415 293.27,-415 293.27,-385 409.27,-385 409.27,-415"/>
<text text-anchor="start" x="301.27" y="-403" font-family="Helvetica,sans-Serif" font-size="10.00">monte_carlo/models</text>
<text text-anchor="middle" x="351.27" y="-392" font-family="Helvetica,sans-Serif" font-size="10.00">/action_base.tpp</text>
</a>
</g>
</g>
<!-- Node2&#45;&gt;Node14 -->
<g id="edge22_Node000002_Node000014" class="edge">
<title>Node2&#45;&gt;Node14</title>
<g id="a_edge22_Node000002_Node000014"><a xlink:title=" ">
<path fill="none" stroke="#63b8ff" d="M351.27,-450.8C351.27,-443.34 351.27,-433.99 351.27,-425.41"/>
<polygon fill="#63b8ff" stroke="#63b8ff" points="354.77,-425.16 351.27,-415.16 347.77,-425.16 354.77,-425.16"/>
</a>
</g>
</g>
<!-- Node5&#45;&gt;Node3 -->
<g id="edge5_Node000005_Node000003" class="edge">
<title>Node5&#45;&gt;Node3</title>
<g id="a_edge5_Node000005_Node000003"><a xlink:title=" ">
<path fill="none" stroke="#63b8ff" d="M144.58,-191.69C227.43,-178.47 377.02,-154.6 447.93,-143.28"/>
<polygon fill="#63b8ff" stroke="#63b8ff" points="448.89,-146.67 458.21,-141.64 447.79,-139.76 448.89,-146.67"/>
</a>
</g>
</g>
<!-- Node5&#45;&gt;Node4 -->
<g id="edge6_Node000005_Node000004" class="edge">
<title>Node5&#45;&gt;Node4</title>
<g id="a_edge6_Node000005_Node000004"><a xlink:title=" ">
<path fill="none" stroke="#63b8ff" d="M86.27,-186.8C86.27,-177.7 86.27,-165.79 86.27,-155.9"/>
<polygon fill="#63b8ff" stroke="#63b8ff" points="89.77,-155.84 86.27,-145.84 82.77,-155.84 89.77,-155.84"/>
</a>
</g>
</g>
<!-- Node6&#45;&gt;Node3 -->
<g id="edge8_Node000006_Node000003" class="edge">
<title>Node6&#45;&gt;Node3</title>
<g id="a_edge8_Node000006_Node000003"><a xlink:title=" ">
<path fill="none" stroke="#63b8ff" d="M421.01,-318.9C428.53,-309.28 438.02,-295.98 444.27,-283 465.12,-239.68 478.05,-184.2 483.79,-155.71"/>
<polygon fill="#63b8ff" stroke="#63b8ff" points="487.28,-156.07 485.75,-145.58 480.41,-154.73 487.28,-156.07"/>
</a>
</g>
</g>
<!-- Node7 -->
<g id="Node000007" class="node">
<title>Node7</title>
<g id="a_Node000007"><a xlink:title=" ">
<polygon fill="#e0e0e0" stroke="#999999" points="587.27,-19 543.27,-19 543.27,0 587.27,0 587.27,-19"/>
<text text-anchor="middle" x="565.27" y="-7" font-family="Helvetica,sans-Serif" font-size="10.00">string</text>
</a>
</g>
</g>
<!-- Node6&#45;&gt;Node7 -->
<g id="edge9_Node000006_Node000007" class="edge">
<title>Node6&#45;&gt;Node7</title>
<g id="a_edge9_Node000006_Node000007"><a xlink:title=" ">
<path fill="none" stroke="#63b8ff" d="M406.15,-318.65C401.24,-294.78 392.27,-245.34 392.27,-203 392.27,-203 392.27,-203 392.27,-135 392.27,-66.28 483.3,-31.75 533.3,-17.96"/>
<polygon fill="#63b8ff" stroke="#63b8ff" points="534.23,-21.34 543.01,-15.4 532.44,-14.57 534.23,-21.34"/>
</a>
</g>
</g>
<!-- Node8&#45;&gt;Node6 -->
<g id="edge20_Node000008_Node000006" class="edge">
<title>Node8&#45;&gt;Node6</title>
<g id="a_edge20_Node000008_Node000006"><a xlink:title=" ">
<path fill="none" stroke="#63b8ff" d="M259.6,-390.37C285.62,-380.74 328.42,-364.91 361.59,-352.64"/>
<polygon fill="#63b8ff" stroke="#63b8ff" points="362.95,-355.87 371.11,-349.12 360.52,-349.3 362.95,-355.87"/>
</a>
</g>
</g>
<!-- Node9 -->
<g id="Node000009" class="node">
<title>Node9</title>
<g id="a_Node000009"><a xlink:href="node_8h.html" target="_top" xlink:title=" ">
<polygon fill="white" stroke="#666666" points="322.27,-349 206.27,-349 206.27,-319 322.27,-319 322.27,-349"/>
<text text-anchor="start" x="214.27" y="-337" font-family="Helvetica,sans-Serif" font-size="10.00">monte_carlo/models</text>
<text text-anchor="middle" x="264.27" y="-326" font-family="Helvetica,sans-Serif" font-size="10.00">/node.h</text>
</a>
</g>
</g>
<!-- Node8&#45;&gt;Node9 -->
<g id="edge11_Node000008_Node000009" class="edge">
<title>Node8&#45;&gt;Node9</title>
<g id="a_edge11_Node000008_Node000009"><a xlink:title=" ">
<path fill="none" stroke="#63b8ff" d="M240.04,-390.37C243.6,-382.24 249.09,-369.69 253.95,-358.59"/>
<polygon fill="#63b8ff" stroke="#63b8ff" points="257.18,-359.92 257.99,-349.36 250.77,-357.12 257.18,-359.92"/>
</a>
</g>
</g>
<!-- Node13 -->
<g id="Node000013" class="node">
<title>Node13</title>
<g id="a_Node000013"><a xlink:title=" ">
<polygon fill="#e0e0e0" stroke="#999999" points="188.27,-349 72.27,-349 72.27,-319 188.27,-319 188.27,-349"/>
<text text-anchor="start" x="80.27" y="-337" font-family="Helvetica,sans-Serif" font-size="10.00">monte_carlo/models</text>
<text text-anchor="middle" x="130.27" y="-326" font-family="Helvetica,sans-Serif" font-size="10.00">/node_base.tpp</text>
</a>
</g>
</g>
<!-- Node8&#45;&gt;Node13 -->
<g id="edge21_Node000008_Node000013" class="edge">
<title>Node8&#45;&gt;Node13</title>
<g id="a_edge21_Node000008_Node000013"><a xlink:title=" ">
<path fill="none" stroke="#63b8ff" d="M221.97,-390.37C206.78,-381.2 182.26,-366.39 162.4,-354.4"/>
<polygon fill="#63b8ff" stroke="#63b8ff" points="164.02,-351.29 153.65,-349.12 160.4,-357.28 164.02,-351.29"/>
</a>
</g>
</g>
<!-- Node9&#45;&gt;Node3 -->
<g id="edge19_Node000009_Node000003" class="edge">
<title>Node9&#45;&gt;Node3</title>
<g id="a_edge19_Node000009_Node000003"><a xlink:title=" ">
<path fill="none" stroke="#63b8ff" d="M287.37,-318.92C302.36,-309.42 322.05,-296.24 338.27,-283 390.89,-240.03 446.4,-181.64 472.31,-153.5"/>
<polygon fill="#63b8ff" stroke="#63b8ff" points="475.2,-155.53 479.36,-145.79 470.03,-150.8 475.2,-155.53"/>
</a>
</g>
</g>
<!-- Node10 -->
<g id="Node000010" class="node">
<title>Node10</title>
<g id="a_Node000010"><a xlink:href="rollout__strategy__interface_8h.html" target="_top" xlink:title=" ">
<polygon fill="white" stroke="#666666" points="308.77,-283 153.77,-283 153.77,-253 308.77,-253 308.77,-283"/>
<text text-anchor="start" x="161.77" y="-271" font-family="Helvetica,sans-Serif" font-size="10.00">monte_carlo/models</text>
<text text-anchor="middle" x="231.27" y="-260" font-family="Helvetica,sans-Serif" font-size="10.00">/rollout_strategy_interface.h</text>
</a>
</g>
</g>
<!-- Node9&#45;&gt;Node10 -->
<g id="edge12_Node000009_Node000010" class="edge">
<title>Node9&#45;&gt;Node10</title>
<g id="a_edge12_Node000009_Node000010"><a xlink:title=" ">
<path fill="none" stroke="#63b8ff" d="M256.94,-318.8C252.93,-311.01 247.85,-301.16 243.27,-292.28"/>
<polygon fill="#63b8ff" stroke="#63b8ff" points="246.26,-290.45 238.57,-283.16 240.04,-293.66 246.26,-290.45"/>
</a>
</g>
</g>
<!-- Node12 -->
<g id="Node000012" class="node">
<title>Node12</title>
<g id="a_Node000012"><a xlink:title=" ">
<polygon fill="#e0e0e0" stroke="#999999" points="363.77,-211.5 316.77,-211.5 316.77,-192.5 363.77,-192.5 363.77,-211.5"/>
<text text-anchor="middle" x="340.27" y="-199.5" font-family="Helvetica,sans-Serif" font-size="10.00">vector</text>
</a>
</g>
</g>
<!-- Node9&#45;&gt;Node12 -->
<g id="edge18_Node000009_Node000012" class="edge">
<title>Node9&#45;&gt;Node12</title>
<g id="a_edge18_Node000009_Node000012"><a xlink:title=" ">
<path fill="none" stroke="#63b8ff" d="M284.37,-318.9C295.85,-309.87 309.64,-297.19 318.27,-283 329.82,-264 335.44,-238.82 338.08,-221.83"/>
<polygon fill="#63b8ff" stroke="#63b8ff" points="341.6,-221.93 339.47,-211.55 334.66,-220.99 341.6,-221.93"/>
</a>
</g>
</g>
<!-- Node10&#45;&gt;Node3 -->
<g id="edge15_Node000010_Node000003" class="edge">
<title>Node10&#45;&gt;Node3</title>
<g id="a_edge15_Node000010_Node000003"><a xlink:title=" ">
<path fill="none" stroke="#63b8ff" d="M241.04,-252.93C254.25,-234.98 279.47,-204.2 308.27,-187 352.07,-160.84 410.06,-147.92 447.99,-141.86"/>
<polygon fill="#63b8ff" stroke="#63b8ff" points="448.77,-145.29 458.13,-140.33 447.72,-138.36 448.77,-145.29"/>
</a>
</g>
</g>
<!-- Node10&#45;&gt;Node4 -->
<g id="edge16_Node000010_Node000004" class="edge">
<title>Node10&#45;&gt;Node4</title>
<g id="a_edge16_Node000010_Node000004"><a xlink:title=" ">
<path fill="none" stroke="#63b8ff" d="M218.64,-252.75C203.71,-236.22 177.78,-208.48 153.27,-187 138.58,-174.13 120.83,-160.98 107.29,-151.4"/>
<polygon fill="#63b8ff" stroke="#63b8ff" points="109.27,-148.51 99.07,-145.65 105.26,-154.25 109.27,-148.51"/>
</a>
</g>
</g>
<!-- Node10&#45;&gt;Node5 -->
<g id="edge13_Node000010_Node000005" class="edge">
<title>Node10&#45;&gt;Node5</title>
<g id="a_edge13_Node000010_Node000005"><a xlink:title=" ">
<path fill="none" stroke="#63b8ff" d="M199.45,-252.95C178.29,-243.62 150.31,-231.27 127.46,-221.18"/>
<polygon fill="#63b8ff" stroke="#63b8ff" points="128.58,-217.85 118.01,-217.01 125.75,-224.25 128.58,-217.85"/>
</a>
</g>
</g>
<!-- Node11 -->
<g id="Node000011" class="node">
<title>Node11</title>
<g id="a_Node000011"><a xlink:title=" ">
<polygon fill="#e0e0e0" stroke="#999999" points="260.27,-211.5 200.27,-211.5 200.27,-192.5 260.27,-192.5 260.27,-211.5"/>
<text text-anchor="middle" x="230.27" y="-199.5" font-family="Helvetica,sans-Serif" font-size="10.00">iostream</text>
</a>
</g>
</g>
<!-- Node10&#45;&gt;Node11 -->
<g id="edge14_Node000010_Node000011" class="edge">
<title>Node10&#45;&gt;Node11</title>
<g id="a_edge14_Node000010_Node000011"><a xlink:title=" ">
<path fill="none" stroke="#63b8ff" d="M231.05,-252.8C230.9,-243.7 230.72,-231.79 230.56,-221.9"/>
<polygon fill="#63b8ff" stroke="#63b8ff" points="234.06,-221.79 230.41,-211.84 227.06,-221.9 234.06,-221.79"/>
</a>
</g>
</g>
<!-- Node10&#45;&gt;Node12 -->
<g id="edge17_Node000010_Node000012" class="edge">
<title>Node10&#45;&gt;Node12</title>
<g id="a_edge17_Node000010_Node000012"><a xlink:title=" ">
<path fill="none" stroke="#63b8ff" d="M255.19,-252.95C273.55,-242.18 298.75,-227.38 316.95,-216.69"/>
<polygon fill="#63b8ff" stroke="#63b8ff" points="318.91,-219.6 325.76,-211.52 315.37,-213.56 318.91,-219.6"/>
</a>
</g>
</g>
<!-- Node15&#45;&gt;Node3 -->
<g id="edge25_Node000015_Node000003" class="edge">
<title>Node15&#45;&gt;Node3</title>
<g id="a_edge25_Node000015_Node000003"><a xlink:title=" ">
<path fill="none" stroke="#63b8ff" d="M583.43,-318.98C572.28,-292.58 546.66,-233.91 520.27,-187 513.92,-175.71 505.94,-163.58 499.42,-154.09"/>
<polygon fill="#63b8ff" stroke="#63b8ff" points="502.09,-151.81 493.5,-145.61 496.35,-155.82 502.09,-151.81"/>
</a>
</g>
</g>
<!-- Node16 -->
<g id="Node000016" class="node">
<title>Node16</title>
<g id="a_Node000016"><a xlink:href="board_8h.html" target="_top" xlink:title=" ">
<polygon fill="white" stroke="#666666" points="700.77,-283 591.77,-283 591.77,-253 700.77,-253 700.77,-283"/>
<text text-anchor="start" x="599.77" y="-271" font-family="Helvetica,sans-Serif" font-size="10.00">tic_tac_toe/models</text>
<text text-anchor="middle" x="646.27" y="-260" font-family="Helvetica,sans-Serif" font-size="10.00">/board.h</text>
</a>
</g>
</g>
<!-- Node15&#45;&gt;Node16 -->
<g id="edge26_Node000015_Node000016" class="edge">
<title>Node15&#45;&gt;Node16</title>
<g id="a_edge26_Node000015_Node000016"><a xlink:title=" ">
<path fill="none" stroke="#63b8ff" d="M601.92,-318.8C609.22,-310.59 618.57,-300.1 626.79,-290.87"/>
<polygon fill="#63b8ff" stroke="#63b8ff" points="629.62,-292.96 633.65,-283.16 624.39,-288.3 629.62,-292.96"/>
</a>
</g>
</g>
<!-- Node16&#45;&gt;Node3 -->
<g id="edge39_Node000016_Node000003" class="edge">
<title>Node16&#45;&gt;Node3</title>
<g id="a_edge39_Node000016_Node000003"><a xlink:title=" ">
<path fill="none" stroke="#63b8ff" d="M631.82,-252.83C614.77,-236.37 585.33,-208.69 558.27,-187 542.35,-174.24 523.41,-160.99 509.1,-151.34"/>
<polygon fill="#63b8ff" stroke="#63b8ff" points="510.71,-148.21 500.45,-145.56 506.82,-154.03 510.71,-148.21"/>
</a>
</g>
</g>
<!-- Node16&#45;&gt;Node12 -->
<g id="edge27_Node000016_Node000012" class="edge">
<title>Node16&#45;&gt;Node12</title>
<g id="a_edge27_Node000016_Node000012"><a xlink:title=" ">
<path fill="none" stroke="#63b8ff" d="M591.56,-255.56C528.39,-242.34 426.44,-221.02 373.92,-210.04"/>
<polygon fill="#63b8ff" stroke="#63b8ff" points="374.61,-206.61 364.1,-207.99 373.18,-213.46 374.61,-206.61"/>
</a>
</g>
</g>
<!-- Node17 -->
<g id="Node000017" class="node">
<title>Node17</title>
<g id="a_Node000017"><a xlink:href="player_8h.html" target="_top" xlink:title=" ">
<polygon fill="white" stroke="#666666" points="719.77,-217 610.77,-217 610.77,-187 719.77,-187 719.77,-217"/>
<text text-anchor="start" x="618.77" y="-205" font-family="Helvetica,sans-Serif" font-size="10.00">tic_tac_toe/models</text>
<text text-anchor="middle" x="665.27" y="-194" font-family="Helvetica,sans-Serif" font-size="10.00">/player.h</text>
</a>
</g>
</g>
<!-- Node16&#45;&gt;Node17 -->
<g id="edge28_Node000016_Node000017" class="edge">
<title>Node16&#45;&gt;Node17</title>
<g id="a_edge28_Node000016_Node000017"><a xlink:title=" ">
<path fill="none" stroke="#63b8ff" d="M650.48,-252.8C652.75,-245.17 655.6,-235.57 658.19,-226.84"/>
<polygon fill="#63b8ff" stroke="#63b8ff" points="661.57,-227.75 661.06,-217.16 654.86,-225.75 661.57,-227.75"/>
</a>
</g>
</g>
<!-- Node16&#45;&gt;Node18 -->
<g id="edge37_Node000016_Node000018" class="edge">
<title>Node16&#45;&gt;Node18</title>
<g id="a_edge37_Node000016_Node000018"><a xlink:title=" ">
<path fill="none" stroke="#63b8ff" d="M700.93,-264.77C771.29,-260.62 887.69,-248.99 914.27,-217 927.04,-201.62 924.21,-178.28 919.26,-160.77"/>
<polygon fill="#63b8ff" stroke="#63b8ff" points="922.6,-159.7 916.21,-151.24 915.93,-161.84 922.6,-159.7"/>
</a>
</g>
</g>
<!-- Node22 -->
<g id="Node000022" class="node">
<title>Node22</title>
<g id="a_Node000022"><a xlink:href="alignment_8h.html" target="_top" xlink:title=" ">
<polygon fill="white" stroke="#666666" points="904.77,-211.5 737.77,-211.5 737.77,-192.5 904.77,-192.5 904.77,-211.5"/>
<text text-anchor="middle" x="821.27" y="-199.5" font-family="Helvetica,sans-Serif" font-size="10.00">tic_tac_toe/enums/alignment.h</text>
</a>
</g>
</g>
<!-- Node16&#45;&gt;Node22 -->
<g id="edge38_Node000016_Node000022" class="edge">
<title>Node16&#45;&gt;Node22</title>
<g id="a_edge38_Node000016_Node000022"><a xlink:title=" ">
<path fill="none" stroke="#63b8ff" d="M684.67,-252.95C715.77,-241.58 759.1,-225.74 788.56,-214.96"/>
<polygon fill="#63b8ff" stroke="#63b8ff" points="789.79,-218.24 797.98,-211.52 787.38,-211.66 789.79,-218.24"/>
</a>
</g>
</g>
<!-- Node17&#45;&gt;Node3 -->
<g id="edge29_Node000017_Node000003" class="edge">
<title>Node17&#45;&gt;Node3</title>
<g id="a_edge29_Node000017_Node000003"><a xlink:title=" ">
<path fill="none" stroke="#63b8ff" d="M626.2,-186.95C594.58,-175.58 550.51,-159.74 520.54,-148.96"/>
<polygon fill="#63b8ff" stroke="#63b8ff" points="521.55,-145.61 510.96,-145.52 519.18,-152.19 521.55,-145.61"/>
</a>
</g>
</g>
<!-- Node17&#45;&gt;Node18 -->
<g id="edge30_Node000017_Node000018" class="edge">
<title>Node17&#45;&gt;Node18</title>
<g id="a_edge30_Node000017_Node000018"><a xlink:title=" ">
<path fill="none" stroke="#63b8ff" d="M719.03,-186.95C756.69,-177.12 807.16,-163.93 846.8,-153.58"/>
<polygon fill="#63b8ff" stroke="#63b8ff" points="847.84,-156.93 856.63,-151.01 846.07,-150.15 847.84,-156.93"/>
</a>
</g>
</g>
<!-- Node20 -->
<g id="Node000020" class="node">
<title>Node20</title>
<g id="a_Node000020"><a xlink:href="symbol_8h.html" target="_top" xlink:title=" ">
<polygon fill="white" stroke="#666666" points="795.27,-79.5 641.27,-79.5 641.27,-60.5 795.27,-60.5 795.27,-79.5"/>
<text text-anchor="middle" x="718.27" y="-67.5" font-family="Helvetica,sans-Serif" font-size="10.00">tic_tac_toe/enums/symbol.h</text>
</a>
</g>
</g>
<!-- Node17&#45;&gt;Node20 -->
<g id="edge34_Node000017_Node000020" class="edge">
<title>Node17&#45;&gt;Node20</title>
<g id="a_edge34_Node000017_Node000020"><a xlink:title=" ">
<path fill="none" stroke="#63b8ff" d="M671.04,-186.84C680.71,-163.13 700.16,-115.41 710.84,-89.23"/>
<polygon fill="#63b8ff" stroke="#63b8ff" points="714.17,-90.33 714.7,-79.75 707.68,-87.69 714.17,-90.33"/>
</a>
</g>
</g>
<!-- Node21 -->
<g id="Node000021" class="node">
<title>Node21</title>
<g id="a_Node000021"><a xlink:href="observer_8h.html" target="_top" xlink:title=" ">
<polygon fill="white" stroke="#666666" points="623.27,-85 507.27,-85 507.27,-55 623.27,-55 623.27,-85"/>
<text text-anchor="start" x="515.27" y="-73" font-family="Helvetica,sans-Serif" font-size="10.00">tic_tac_toe/observer</text>
<text text-anchor="middle" x="565.27" y="-62" font-family="Helvetica,sans-Serif" font-size="10.00">/observer.h</text>
</a>
</g>
</g>
<!-- Node17&#45;&gt;Node21 -->
<g id="edge35_Node000017_Node000021" class="edge">
<title>Node17&#45;&gt;Node21</title>
<g id="a_edge35_Node000017_Node000021"><a xlink:title=" ">
<path fill="none" stroke="#63b8ff" d="M654.38,-186.84C637.02,-164.28 602.94,-119.98 582.33,-93.18"/>
<polygon fill="#63b8ff" stroke="#63b8ff" points="585.02,-90.93 576.15,-85.14 579.47,-95.2 585.02,-90.93"/>
</a>
</g>
</g>
<!-- Node19 -->
<g id="Node000019" class="node">
<title>Node19</title>
<g id="a_Node000019"><a xlink:title=" ">
<polygon fill="#e0e0e0" stroke="#999999" points="932.77,-79.5 887.77,-79.5 887.77,-60.5 932.77,-60.5 932.77,-79.5"/>
<text text-anchor="middle" x="910.27" y="-67.5" font-family="Helvetica,sans-Serif" font-size="10.00">utility</text>
</a>
</g>
</g>
<!-- Node18&#45;&gt;Node19 -->
<g id="edge31_Node000018_Node000019" class="edge">
<title>Node18&#45;&gt;Node19</title>
<g id="a_edge31_Node000018_Node000019"><a xlink:title=" ">
<path fill="none" stroke="#63b8ff" d="M910.27,-120.8C910.27,-111.7 910.27,-99.79 910.27,-89.9"/>
<polygon fill="#63b8ff" stroke="#63b8ff" points="913.77,-89.84 910.27,-79.84 906.77,-89.84 913.77,-89.84"/>
</a>
</g>
</g>
<!-- Node18&#45;&gt;Node20 -->
<g id="edge32_Node000018_Node000020" class="edge">
<title>Node18&#45;&gt;Node20</title>
<g id="a_edge32_Node000018_Node000020"><a xlink:title=" ">
<path fill="none" stroke="#63b8ff" d="M868.13,-120.95C833.72,-109.48 785.65,-93.46 753.32,-82.68"/>
<polygon fill="#63b8ff" stroke="#63b8ff" points="754.41,-79.36 743.82,-79.52 752.2,-86 754.41,-79.36"/>
</a>
</g>
</g>
<!-- Node20&#45;&gt;Node7 -->
<g id="edge33_Node000020_Node000007" class="edge">
<title>Node20&#45;&gt;Node7</title>
<g id="a_edge33_Node000020_Node000007"><a xlink:title=" ">
<path fill="none" stroke="#63b8ff" d="M696.02,-60.49C669.96,-50.53 626.59,-33.95 597,-22.63"/>
<polygon fill="#63b8ff" stroke="#63b8ff" points="598.13,-19.32 587.54,-19.02 595.63,-25.86 598.13,-19.32"/>
</a>
</g>
</g>
<!-- Node21&#45;&gt;Node7 -->
<g id="edge36_Node000021_Node000007" class="edge">
<title>Node21&#45;&gt;Node7</title>
<g id="a_edge36_Node000021_Node000007"><a xlink:title=" ">
<path fill="none" stroke="#63b8ff" d="M565.27,-54.84C565.27,-47.21 565.27,-37.7 565.27,-29.45"/>
<polygon fill="#63b8ff" stroke="#63b8ff" points="568.77,-29.27 565.27,-19.27 561.77,-29.27 568.77,-29.27"/>
</a>
</g>
</g>
</g>
</svg>

<g id="navigator" transform="translate(0 0)" fill="#404254">
  <rect fill="#f2f5e9" fill-opacity="0.5" stroke="#606060" stroke-width=".5" x="0" y="0" width="60" height="60"/>
  <use id="zoomplus" xlink:href="#zoomPlus" x="17" y="9" onmousedown="handleZoom(evt,'in')"/>
  <use id="zoomminus" xlink:href="#zoomMin" x="42" y="9" onmousedown="handleZoom(evt,'out')"/>
  <use id="reset" xlink:href="#resetDef" x="30" y="36" onmousedown="handleReset()"/>
   <use id="arrowup" xlink:href="#arrowUp" x="0" y="0" onmousedown="handlePan(0,-1)"/>
  <use id="arrowright" xlink:href="#arrowRight" x="0" y="0" onmousedown="handlePan(1,0)"/>
  <use id="arrowdown" xlink:href="#arrowDown" x="0" y="0" onmousedown="handlePan(0,1)"/>
  <use id="arrowleft" xlink:href="#arrowLeft" x="0" y="0" onmousedown="handlePan(-1,0)"/>
</g>
<svg viewBox="0 0 15 15" width="100%" height="30px" preserveAspectRatio="xMaxYMin meet">
 <g id="arrow_out" transform="scale(0.3 0.3)">
  <a xlink:href="move_8h__incl_org.svg" target="_base">
   <rect id="button" ry="5" rx="5" y="6" x="6" height="38" width="38"
        fill="#f2f5e9" fill-opacity="0.5" stroke="#606060" stroke-width="1.0"/>
   <path id="arrow"
     d="M 11.500037,31.436501 C 11.940474,20.09759 22.043105,11.32322 32.158766,21.979434 L 37.068811,17.246167 C 37.068811,17.246167 37.088388,32 37.088388,32 L 22.160133,31.978069 C 22.160133,31.978069 26.997745,27.140456 26.997745,27.140456 C 18.528582,18.264221 13.291696,25.230495 11.500037,31.436501 z"
     style="fill:#404040;"/>
  </a>
 </g>
</svg>

<style type='text/css'>
<![CDATA[
[data-mouse-over-selected='false'] { opacity: 0.7; }
[data-mouse-over-selected='true']  { opacity: 1.0; }
]]>
</style>
<script type="application/ecmascript"><![CDATA[
document.addEventListener('DOMContentLoaded', (event) => {
  highlightEdges();
  highlightAdjacentNodes();
});
]]></script>
</svg>
