<?xml version="1.0" encoding="UTF-8" standalone="no"?>
<!DOCTYPE svg PUBLIC "-//W3C//DTD SVG 1.1//EN"
 "http://www.w3.org/Graphics/SVG/1.1/DTD/svg11.dtd">
<!-- Generated by graphviz version 2.43.0 (0)
 -->
<!-- Title: examples/monte_carlo/tic_tac_toe/src/models/move.cpp Pages: 1 -->
<svg width="1125pt" height="500pt"
 viewBox="0.00 0.00 1125.48 500.00" xmlns="http://www.w3.org/2000/svg" xmlns:xlink="http://www.w3.org/1999/xlink">
<g id="graph0" class="graph" transform="scale(1 1) rotate(0) translate(4 496)">
<title>examples/monte_carlo/tic_tac_toe/src/models/move.cpp</title>
<!-- Node1 -->
<g id="Node000001" class="node">
<title>Node1</title>
<g id="a_Node000001"><a xlink:title=" ">
<polygon fill="#999999" stroke="#666666" points="884.98,-492 755.98,-492 755.98,-451 884.98,-451 884.98,-492"/>
<text text-anchor="start" x="763.98" y="-480" font-family="Helvetica,sans-Serif" font-size="10.00">examples/monte_carlo</text>
<text text-anchor="start" x="763.98" y="-469" font-family="Helvetica,sans-Serif" font-size="10.00">/tic_tac_toe/src/models</text>
<text text-anchor="middle" x="820.48" y="-458" font-family="Helvetica,sans-Serif" font-size="10.00">/move.cpp</text>
</a>
</g>
</g>
<!-- Node2 -->
<g id="Node000002" class="node">
<title>Node2</title>
<g id="a_Node000002"><a xlink:href="move_8h.html" target="_top" xlink:title=" ">
<polygon fill="white" stroke="#666666" points="757.98,-415 648.98,-415 648.98,-385 757.98,-385 757.98,-415"/>
<text text-anchor="start" x="656.98" y="-403" font-family="Helvetica,sans-Serif" font-size="10.00">tic_tac_toe/models</text>
<text text-anchor="middle" x="703.48" y="-392" font-family="Helvetica,sans-Serif" font-size="10.00">/move.h</text>
</a>
</g>
</g>
<!-- Node1&#45;&gt;Node2 -->
<g id="edge1_Node000001_Node000002" class="edge">
<title>Node1&#45;&gt;Node2</title>
<g id="a_edge1_Node000001_Node000002"><a xlink:title=" ">
<path fill="none" stroke="#63b8ff" d="M787.57,-450.96C771.53,-441.42 752.28,-429.99 736.25,-420.47"/>
<polygon fill="#63b8ff" stroke="#63b8ff" points="737.62,-417.21 727.23,-415.11 734.04,-423.23 737.62,-417.21"/>
</a>
</g>
</g>
<!-- Node7 -->
<g id="Node000007" class="node">
<title>Node7</title>
<g id="a_Node000007"><a xlink:href="tree__factory__interface_8h.html" target="_top" xlink:title=" ">
<polygon fill="white" stroke="#666666" points="624.98,-217 487.98,-217 487.98,-187 624.98,-187 624.98,-217"/>
<text text-anchor="start" x="495.98" y="-205" font-family="Helvetica,sans-Serif" font-size="10.00">monte_carlo/factories</text>
<text text-anchor="middle" x="556.48" y="-194" font-family="Helvetica,sans-Serif" font-size="10.00">/tree_factory_interface.h</text>
</a>
</g>
</g>
<!-- Node1&#45;&gt;Node7 -->
<g id="edge43_Node000001_Node000007" class="edge">
<title>Node1&#45;&gt;Node7</title>
<g id="a_edge43_Node000001_Node000007"><a xlink:title=" ">
<path fill="none" stroke="#63b8ff" d="M810.08,-450.69C787.28,-408.93 729,-310.94 655.48,-253 639.52,-240.43 619.91,-229.73 602.37,-221.49"/>
<polygon fill="#63b8ff" stroke="#63b8ff" points="603.42,-218.13 592.86,-217.18 600.52,-224.5 603.42,-218.13"/>
</a>
</g>
</g>
<!-- Node20 -->
<g id="Node000020" class="node">
<title>Node20</title>
<g id="a_Node000020"><a xlink:title=" ">
<polygon fill="#e0e0e0" stroke="#999999" points="1097.98,-79.5 1052.98,-79.5 1052.98,-60.5 1097.98,-60.5 1097.98,-79.5"/>
<text text-anchor="middle" x="1075.48" y="-67.5" font-family="Helvetica,sans-Serif" font-size="10.00">utility</text>
</a>
</g>
</g>
<!-- Node1&#45;&gt;Node20 -->
<g id="edge42_Node000001_Node000020" class="edge">
<title>Node1&#45;&gt;Node20</title>
<g id="a_edge42_Node000001_Node000020"><a xlink:title=" ">
<path fill="none" stroke="#63b8ff" d="M885.29,-468.61C972.68,-462.2 1117.48,-436.31 1117.48,-335 1117.48,-335 1117.48,-335 1117.48,-201 1117.48,-159.08 1097.45,-113.07 1085.06,-88.61"/>
<polygon fill="#63b8ff" stroke="#63b8ff" points="1088.04,-86.75 1080.29,-79.52 1081.84,-90 1088.04,-86.75"/>
</a>
</g>
</g>
<!-- Node3 -->
<g id="Node000003" class="node">
<title>Node3</title>
<g id="a_Node000003"><a xlink:href="action__base_8h.html" target="_top" xlink:title=" ">
<polygon fill="white" stroke="#666666" points="451.48,-349 335.48,-349 335.48,-319 451.48,-319 451.48,-349"/>
<text text-anchor="start" x="343.48" y="-337" font-family="Helvetica,sans-Serif" font-size="10.00">monte_carlo/models</text>
<text text-anchor="middle" x="393.48" y="-326" font-family="Helvetica,sans-Serif" font-size="10.00">/action_base.h</text>
</a>
</g>
</g>
<!-- Node2&#45;&gt;Node3 -->
<g id="edge2_Node000002_Node000003" class="edge">
<title>Node2&#45;&gt;Node3</title>
<g id="a_edge2_Node000002_Node000003"><a xlink:title=" ">
<path fill="none" stroke="#63b8ff" d="M648.77,-387.71C596.54,-376.92 517.7,-360.65 461.46,-349.04"/>
<polygon fill="#63b8ff" stroke="#63b8ff" points="462.08,-345.59 451.58,-347 460.67,-352.45 462.08,-345.59"/>
</a>
</g>
</g>
<!-- Node2&#45;&gt;Node7 -->
<g id="edge24_Node000002_Node000007" class="edge">
<title>Node2&#45;&gt;Node7</title>
<g id="a_edge24_Node000002_Node000007"><a xlink:title=" ">
<path fill="none" stroke="#63b8ff" d="M702.49,-384.84C700.8,-368.15 696.32,-340.02 684.48,-319 661.16,-277.62 617.71,-243.05 587.95,-222.69"/>
<polygon fill="#63b8ff" stroke="#63b8ff" points="589.83,-219.74 579.58,-217.09 585.94,-225.56 589.83,-219.74"/>
</a>
</g>
</g>
<!-- Node16 -->
<g id="Node000016" class="node">
<title>Node16</title>
<g id="a_Node000016"><a xlink:href="game__state_8h.html" target="_top" xlink:title=" ">
<polygon fill="white" stroke="#666666" points="674.98,-349 565.98,-349 565.98,-319 674.98,-319 674.98,-349"/>
<text text-anchor="start" x="573.98" y="-337" font-family="Helvetica,sans-Serif" font-size="10.00">tic_tac_toe/models</text>
<text text-anchor="middle" x="620.48" y="-326" font-family="Helvetica,sans-Serif" font-size="10.00">/game_state.h</text>
</a>
</g>
</g>
<!-- Node2&#45;&gt;Node16 -->
<g id="edge25_Node000002_Node000016" class="edge">
<title>Node2&#45;&gt;Node16</title>
<g id="a_edge25_Node000002_Node000016"><a xlink:title=" ">
<path fill="none" stroke="#63b8ff" d="M685.05,-384.8C673.88,-376.18 659.43,-365.04 647.03,-355.48"/>
<polygon fill="#63b8ff" stroke="#63b8ff" points="648.9,-352.5 638.84,-349.16 644.63,-358.04 648.9,-352.5"/>
</a>
</g>
</g>
<!-- Node19 -->
<g id="Node000019" class="node">
<title>Node19</title>
<g id="a_Node000019"><a xlink:href="position_8h.html" target="_top" xlink:title=" ">
<polygon fill="white" stroke="#666666" points="1088.98,-151 979.98,-151 979.98,-121 1088.98,-121 1088.98,-151"/>
<text text-anchor="start" x="987.98" y="-139" font-family="Helvetica,sans-Serif" font-size="10.00">tic_tac_toe/models</text>
<text text-anchor="middle" x="1034.48" y="-128" font-family="Helvetica,sans-Serif" font-size="10.00">/position.h</text>
</a>
</g>
</g>
<!-- Node2&#45;&gt;Node19 -->
<g id="edge41_Node000002_Node000019" class="edge">
<title>Node2&#45;&gt;Node19</title>
<g id="a_edge41_Node000002_Node000019"><a xlink:title=" ">
<path fill="none" stroke="#63b8ff" d="M745.66,-384.94C799.47,-366.02 894.31,-329.34 967.48,-283 1005.27,-259.06 1024.91,-257.7 1043.48,-217 1051.47,-199.47 1048.25,-177.63 1043.57,-161.2"/>
<polygon fill="#63b8ff" stroke="#63b8ff" points="1046.78,-159.74 1040.39,-151.29 1040.11,-161.88 1046.78,-159.74"/>
</a>
</g>
</g>
<!-- Node4 -->
<g id="Node000004" class="node">
<title>Node4</title>
<g id="a_Node000004"><a xlink:title=" ">
<polygon fill="#e0e0e0" stroke="#999999" points="497.48,-19 439.48,-19 439.48,0 497.48,0 497.48,-19"/>
<text text-anchor="middle" x="468.48" y="-7" font-family="Helvetica,sans-Serif" font-size="10.00">memory</text>
</a>
</g>
</g>
<!-- Node3&#45;&gt;Node4 -->
<g id="edge3_Node000003_Node000004" class="edge">
<title>Node3&#45;&gt;Node4</title>
<g id="a_edge3_Node000003_Node000004"><a xlink:title=" ">
<path fill="none" stroke="#63b8ff" d="M396.79,-318.73C408.89,-266.73 450.58,-87.43 464.16,-29.04"/>
<polygon fill="#63b8ff" stroke="#63b8ff" points="467.63,-29.58 466.49,-19.05 460.81,-27.99 467.63,-29.58"/>
</a>
</g>
</g>
<!-- Node5 -->
<g id="Node000005" class="node">
<title>Node5</title>
<g id="a_Node000005"><a xlink:title=" ">
<polygon fill="#e0e0e0" stroke="#999999" points="114.98,-19 57.98,-19 57.98,0 114.98,0 114.98,-19"/>
<text text-anchor="middle" x="86.48" y="-7" font-family="Helvetica,sans-Serif" font-size="10.00">ostream</text>
</a>
</g>
</g>
<!-- Node3&#45;&gt;Node5 -->
<g id="edge4_Node000003_Node000005" class="edge">
<title>Node3&#45;&gt;Node5</title>
<g id="a_edge4_Node000003_Node000005"><a xlink:title=" ">
<path fill="none" stroke="#63b8ff" d="M335.06,-326.03C225.59,-311.32 0.48,-272.62 0.48,-203 0.48,-203 0.48,-203 0.48,-135 0.48,-98.46 -1.43,-84.98 19.48,-55 28.82,-41.6 43.62,-31.15 56.93,-23.76"/>
<polygon fill="#63b8ff" stroke="#63b8ff" points="58.57,-26.85 65.83,-19.13 55.34,-20.64 58.57,-26.85"/>
</a>
</g>
</g>
<!-- Node6 -->
<g id="Node000006" class="node">
<title>Node6</title>
<g id="a_Node000006"><a xlink:href="action_8h.html" target="_top" xlink:title=" ">
<polygon fill="white" stroke="#666666" points="144.48,-85 28.48,-85 28.48,-55 144.48,-55 144.48,-85"/>
<text text-anchor="start" x="36.48" y="-73" font-family="Helvetica,sans-Serif" font-size="10.00">monte_carlo/models</text>
<text text-anchor="middle" x="86.48" y="-62" font-family="Helvetica,sans-Serif" font-size="10.00">/action.h</text>
</a>
</g>
</g>
<!-- Node3&#45;&gt;Node6 -->
<g id="edge5_Node000003_Node000006" class="edge">
<title>Node3&#45;&gt;Node6</title>
<g id="a_edge5_Node000003_Node000006"><a xlink:title=" ">
<path fill="none" stroke="#63b8ff" d="M335.33,-321.5C276.7,-306.97 187.5,-276.33 134.48,-217 103.46,-182.3 92.43,-127.1 88.54,-95.45"/>
<polygon fill="#63b8ff" stroke="#63b8ff" points="92,-94.88 87.45,-85.31 85.04,-95.63 92,-94.88"/>
</a>
</g>
</g>
<!-- Node3&#45;&gt;Node7 -->
<g id="edge8_Node000003_Node000007" class="edge">
<title>Node3&#45;&gt;Node7</title>
<g id="a_edge8_Node000003_Node000007"><a xlink:title=" ">
<path fill="none" stroke="#63b8ff" d="M451.76,-328.89C484.57,-323.39 523.45,-310.92 546.48,-283 559.16,-267.62 560.83,-244.59 559.81,-227.18"/>
<polygon fill="#63b8ff" stroke="#63b8ff" points="563.29,-226.83 558.9,-217.19 556.32,-227.46 563.29,-226.83"/>
</a>
</g>
</g>
<!-- Node9 -->
<g id="Node000009" class="node">
<title>Node9</title>
<g id="a_Node000009"><a xlink:href="node__base_8h.html" target="_top" xlink:title=" ">
<polygon fill="white" stroke="#666666" points="365.48,-277.5 287.48,-277.5 287.48,-258.5 365.48,-258.5 365.48,-277.5"/>
<text text-anchor="middle" x="326.48" y="-265.5" font-family="Helvetica,sans-Serif" font-size="10.00">node_base.h</text>
</a>
</g>
</g>
<!-- Node3&#45;&gt;Node9 -->
<g id="edge11_Node000003_Node000009" class="edge">
<title>Node3&#45;&gt;Node9</title>
<g id="a_edge11_Node000003_Node000009"><a xlink:title=" ">
<path fill="none" stroke="#63b8ff" d="M378.61,-318.8C368.06,-308.72 353.9,-295.19 343,-284.78"/>
<polygon fill="#63b8ff" stroke="#63b8ff" points="345.38,-282.22 335.73,-277.84 340.55,-287.28 345.38,-282.22"/>
</a>
</g>
</g>
<!-- Node15 -->
<g id="Node000015" class="node">
<title>Node15</title>
<g id="a_Node000015"><a xlink:title=" ">
<polygon fill="#e0e0e0" stroke="#999999" points="537.48,-283 421.48,-283 421.48,-253 537.48,-253 537.48,-283"/>
<text text-anchor="start" x="429.48" y="-271" font-family="Helvetica,sans-Serif" font-size="10.00">monte_carlo/models</text>
<text text-anchor="middle" x="479.48" y="-260" font-family="Helvetica,sans-Serif" font-size="10.00">/action_base.tpp</text>
</a>
</g>
</g>
<!-- Node3&#45;&gt;Node15 -->
<g id="edge23_Node000003_Node000015" class="edge">
<title>Node3&#45;&gt;Node15</title>
<g id="a_edge23_Node000003_Node000015"><a xlink:title=" ">
<path fill="none" stroke="#63b8ff" d="M412.56,-318.8C424.25,-310.1 439.4,-298.82 452.33,-289.2"/>
<polygon fill="#63b8ff" stroke="#63b8ff" points="454.51,-291.94 460.44,-283.16 450.33,-286.33 454.51,-291.94"/>
</a>
</g>
</g>
<!-- Node6&#45;&gt;Node4 -->
<g id="edge6_Node000006_Node000004" class="edge">
<title>Node6&#45;&gt;Node4</title>
<g id="a_edge6_Node000006_Node000004"><a xlink:title=" ">
<path fill="none" stroke="#63b8ff" d="M144.49,-60.12C223.15,-48.07 361.53,-26.88 429.11,-16.53"/>
<polygon fill="#63b8ff" stroke="#63b8ff" points="429.97,-19.94 439.32,-14.96 428.91,-13.02 429.97,-19.94"/>
</a>
</g>
</g>
<!-- Node6&#45;&gt;Node5 -->
<g id="edge7_Node000006_Node000005" class="edge">
<title>Node6&#45;&gt;Node5</title>
<g id="a_edge7_Node000006_Node000005"><a xlink:title=" ">
<path fill="none" stroke="#63b8ff" d="M86.48,-54.84C86.48,-47.21 86.48,-37.7 86.48,-29.45"/>
<polygon fill="#63b8ff" stroke="#63b8ff" points="89.98,-29.27 86.48,-19.27 82.98,-29.27 89.98,-29.27"/>
</a>
</g>
</g>
<!-- Node7&#45;&gt;Node4 -->
<g id="edge9_Node000007_Node000004" class="edge">
<title>Node7&#45;&gt;Node4</title>
<g id="a_edge9_Node000007_Node000004"><a xlink:title=" ">
<path fill="none" stroke="#63b8ff" d="M555.81,-186.62C553.95,-159.09 546.91,-97.89 520.48,-55 513.17,-43.15 501.66,-32.82 491.32,-25.11"/>
<polygon fill="#63b8ff" stroke="#63b8ff" points="493.22,-22.16 483.03,-19.27 489.19,-27.89 493.22,-22.16"/>
</a>
</g>
</g>
<!-- Node8 -->
<g id="Node000008" class="node">
<title>Node8</title>
<g id="a_Node000008"><a xlink:title=" ">
<polygon fill="#e0e0e0" stroke="#999999" points="832.48,-19 788.48,-19 788.48,0 832.48,0 832.48,-19"/>
<text text-anchor="middle" x="810.48" y="-7" font-family="Helvetica,sans-Serif" font-size="10.00">string</text>
</a>
</g>
</g>
<!-- Node7&#45;&gt;Node8 -->
<g id="edge10_Node000007_Node000008" class="edge">
<title>Node7&#45;&gt;Node8</title>
<g id="a_edge10_Node000007_Node000008"><a xlink:title=" ">
<path fill="none" stroke="#63b8ff" d="M575.15,-186.99C621.76,-152.04 742.85,-61.22 790.65,-25.37"/>
<polygon fill="#63b8ff" stroke="#63b8ff" points="793.04,-27.95 798.94,-19.15 788.84,-22.35 793.04,-27.95"/>
</a>
</g>
</g>
<!-- Node9&#45;&gt;Node7 -->
<g id="edge21_Node000009_Node000007" class="edge">
<title>Node9&#45;&gt;Node7</title>
<g id="a_edge21_Node000009_Node000007"><a xlink:title=" ">
<path fill="none" stroke="#63b8ff" d="M357.49,-258.37C392.83,-248.54 451.44,-232.23 495.91,-219.85"/>
<polygon fill="#63b8ff" stroke="#63b8ff" points="497.05,-223.17 505.75,-217.12 495.17,-216.42 497.05,-223.17"/>
</a>
</g>
</g>
<!-- Node10 -->
<g id="Node000010" class="node">
<title>Node10</title>
<g id="a_Node000010"><a xlink:href="node_8h.html" target="_top" xlink:title=" ">
<polygon fill="white" stroke="#666666" points="393.48,-217 277.48,-217 277.48,-187 393.48,-187 393.48,-217"/>
<text text-anchor="start" x="285.48" y="-205" font-family="Helvetica,sans-Serif" font-size="10.00">monte_carlo/models</text>
<text text-anchor="middle" x="335.48" y="-194" font-family="Helvetica,sans-Serif" font-size="10.00">/node.h</text>
</a>
</g>
</g>
<!-- Node9&#45;&gt;Node10 -->
<g id="edge12_Node000009_Node000010" class="edge">
<title>Node9&#45;&gt;Node10</title>
<g id="a_edge12_Node000009_Node000010"><a xlink:title=" ">
<path fill="none" stroke="#63b8ff" d="M327.69,-258.37C328.81,-250.4 330.53,-238.2 332.06,-227.27"/>
<polygon fill="#63b8ff" stroke="#63b8ff" points="335.53,-227.75 333.46,-217.36 328.6,-226.78 335.53,-227.75"/>
</a>
</g>
</g>
<!-- Node14 -->
<g id="Node000014" class="node">
<title>Node14</title>
<g id="a_Node000014"><a xlink:title=" ">
<polygon fill="#e0e0e0" stroke="#999999" points="259.48,-217 143.48,-217 143.48,-187 259.48,-187 259.48,-217"/>
<text text-anchor="start" x="151.48" y="-205" font-family="Helvetica,sans-Serif" font-size="10.00">monte_carlo/models</text>
<text text-anchor="middle" x="201.48" y="-194" font-family="Helvetica,sans-Serif" font-size="10.00">/node_base.tpp</text>
</a>
</g>
</g>
<!-- Node9&#45;&gt;Node14 -->
<g id="edge22_Node000009_Node000014" class="edge">
<title>Node9&#45;&gt;Node14</title>
<g id="a_edge22_Node000009_Node000014"><a xlink:title=" ">
<path fill="none" stroke="#63b8ff" d="M309.62,-258.37C291.38,-249.03 261.74,-233.86 238.1,-221.75"/>
<polygon fill="#63b8ff" stroke="#63b8ff" points="239.54,-218.56 229.04,-217.12 236.35,-224.79 239.54,-218.56"/>
</a>
</g>
</g>
<!-- Node10&#45;&gt;Node4 -->
<g id="edge20_Node000010_Node000004" class="edge">
<title>Node10&#45;&gt;Node4</title>
<g id="a_edge20_Node000010_Node000004"><a xlink:title=" ">
<path fill="none" stroke="#63b8ff" d="M341.35,-186.7C353.02,-159.31 381.09,-98.33 416.48,-55 425.52,-43.93 437.55,-33.43 447.76,-25.42"/>
<polygon fill="#63b8ff" stroke="#63b8ff" points="449.95,-28.15 455.8,-19.31 445.72,-22.57 449.95,-28.15"/>
</a>
</g>
</g>
<!-- Node11 -->
<g id="Node000011" class="node">
<title>Node11</title>
<g id="a_Node000011"><a xlink:href="rollout__strategy__interface_8h.html" target="_top" xlink:title=" ">
<polygon fill="white" stroke="#666666" points="308.98,-151 153.98,-151 153.98,-121 308.98,-121 308.98,-151"/>
<text text-anchor="start" x="161.98" y="-139" font-family="Helvetica,sans-Serif" font-size="10.00">monte_carlo/models</text>
<text text-anchor="middle" x="231.48" y="-128" font-family="Helvetica,sans-Serif" font-size="10.00">/rollout_strategy_interface.h</text>
</a>
</g>
</g>
<!-- Node10&#45;&gt;Node11 -->
<g id="edge13_Node000010_Node000011" class="edge">
<title>Node10&#45;&gt;Node11</title>
<g id="a_edge13_Node000010_Node000011"><a xlink:title=" ">
<path fill="none" stroke="#63b8ff" d="M312.65,-186.95C298.02,-177.95 278.83,-166.14 262.79,-156.27"/>
<polygon fill="#63b8ff" stroke="#63b8ff" points="264.6,-153.27 254.25,-151.01 260.93,-159.23 264.6,-153.27"/>
</a>
</g>
</g>
<!-- Node13 -->
<g id="Node000013" class="node">
<title>Node13</title>
<g id="a_Node000013"><a xlink:title=" ">
<polygon fill="#e0e0e0" stroke="#999999" points="363.98,-79.5 316.98,-79.5 316.98,-60.5 363.98,-60.5 363.98,-79.5"/>
<text text-anchor="middle" x="340.48" y="-67.5" font-family="Helvetica,sans-Serif" font-size="10.00">vector</text>
</a>
</g>
</g>
<!-- Node10&#45;&gt;Node13 -->
<g id="edge19_Node000010_Node000013" class="edge">
<title>Node10&#45;&gt;Node13</title>
<g id="a_edge19_Node000010_Node000013"><a xlink:title=" ">
<path fill="none" stroke="#63b8ff" d="M336.02,-186.84C336.92,-163.34 338.73,-116.26 339.75,-89.93"/>
<polygon fill="#63b8ff" stroke="#63b8ff" points="343.25,-89.88 340.14,-79.75 336.26,-89.61 343.25,-89.88"/>
</a>
</g>
</g>
<!-- Node11&#45;&gt;Node4 -->
<g id="edge16_Node000011_Node000004" class="edge">
<title>Node11&#45;&gt;Node4</title>
<g id="a_edge16_Node000011_Node000004"><a xlink:title=" ">
<path fill="none" stroke="#63b8ff" d="M241.25,-120.92C254.45,-102.97 279.67,-72.18 308.48,-55 346.06,-32.58 395.33,-21.1 429.21,-15.47"/>
<polygon fill="#63b8ff" stroke="#63b8ff" points="429.86,-18.91 439.2,-13.91 428.78,-12 429.86,-18.91"/>
</a>
</g>
</g>
<!-- Node11&#45;&gt;Node5 -->
<g id="edge17_Node000011_Node000005" class="edge">
<title>Node11&#45;&gt;Node5</title>
<g id="a_edge17_Node000011_Node000005"><a xlink:title=" ">
<path fill="none" stroke="#63b8ff" d="M219.32,-120.81C204.62,-104.08 178.71,-75.92 153.48,-55 139.76,-43.63 123.08,-32.54 109.79,-24.28"/>
<polygon fill="#63b8ff" stroke="#63b8ff" points="111.57,-21.27 101.21,-19.04 107.92,-27.24 111.57,-21.27"/>
</a>
</g>
</g>
<!-- Node11&#45;&gt;Node6 -->
<g id="edge14_Node000011_Node000006" class="edge">
<title>Node11&#45;&gt;Node6</title>
<g id="a_edge14_Node000011_Node000006"><a xlink:title=" ">
<path fill="none" stroke="#63b8ff" d="M199.65,-120.95C178.5,-111.62 150.51,-99.27 127.67,-89.18"/>
<polygon fill="#63b8ff" stroke="#63b8ff" points="128.78,-85.85 118.22,-85.01 125.96,-92.25 128.78,-85.85"/>
</a>
</g>
</g>
<!-- Node12 -->
<g id="Node000012" class="node">
<title>Node12</title>
<g id="a_Node000012"><a xlink:title=" ">
<polygon fill="#e0e0e0" stroke="#999999" points="260.48,-79.5 200.48,-79.5 200.48,-60.5 260.48,-60.5 260.48,-79.5"/>
<text text-anchor="middle" x="230.48" y="-67.5" font-family="Helvetica,sans-Serif" font-size="10.00">iostream</text>
</a>
</g>
</g>
<!-- Node11&#45;&gt;Node12 -->
<g id="edge15_Node000011_Node000012" class="edge">
<title>Node11&#45;&gt;Node12</title>
<g id="a_edge15_Node000011_Node000012"><a xlink:title=" ">
<path fill="none" stroke="#63b8ff" d="M231.25,-120.8C231.11,-111.7 230.92,-99.79 230.77,-89.9"/>
<polygon fill="#63b8ff" stroke="#63b8ff" points="234.27,-89.79 230.61,-79.84 227.27,-89.9 234.27,-89.79"/>
</a>
</g>
</g>
<!-- Node11&#45;&gt;Node13 -->
<g id="edge18_Node000011_Node000013" class="edge">
<title>Node11&#45;&gt;Node13</title>
<g id="a_edge18_Node000011_Node000013"><a xlink:title=" ">
<path fill="none" stroke="#63b8ff" d="M255.4,-120.95C273.75,-110.18 298.96,-95.38 317.16,-84.69"/>
<polygon fill="#63b8ff" stroke="#63b8ff" points="319.12,-87.6 325.97,-79.52 315.57,-81.56 319.12,-87.6"/>
</a>
</g>
</g>
<!-- Node16&#45;&gt;Node4 -->
<g id="edge26_Node000016_Node000004" class="edge">
<title>Node16&#45;&gt;Node4</title>
<g id="a_edge26_Node000016_Node000004"><a xlink:title=" ">
<path fill="none" stroke="#63b8ff" d="M609.88,-318.95C596.48,-301.84 572.06,-272.8 546.48,-253 519.74,-232.31 497.59,-245.54 479.48,-217 469.57,-201.39 468.48,-77.17 468.44,-29.26"/>
<polygon fill="#63b8ff" stroke="#63b8ff" points="471.94,-29.07 468.44,-19.07 464.94,-29.07 471.94,-29.07"/>
</a>
</g>
</g>
<!-- Node17 -->
<g id="Node000017" class="node">
<title>Node17</title>
<g id="a_Node000017"><a xlink:href="board_8h.html" target="_top" xlink:title=" ">
<polygon fill="white" stroke="#666666" points="957.98,-283 848.98,-283 848.98,-253 957.98,-253 957.98,-283"/>
<text text-anchor="start" x="856.98" y="-271" font-family="Helvetica,sans-Serif" font-size="10.00">tic_tac_toe/models</text>
<text text-anchor="middle" x="903.48" y="-260" font-family="Helvetica,sans-Serif" font-size="10.00">/board.h</text>
</a>
</g>
</g>
<!-- Node16&#45;&gt;Node17 -->
<g id="edge27_Node000016_Node000017" class="edge">
<title>Node16&#45;&gt;Node17</title>
<g id="a_edge27_Node000016_Node000017"><a xlink:title=" ">
<path fill="none" stroke="#63b8ff" d="M675.04,-320.66C721.77,-310.09 789.16,-294.85 838.64,-283.66"/>
<polygon fill="#63b8ff" stroke="#63b8ff" points="839.61,-287.03 848.6,-281.41 838.07,-280.2 839.61,-287.03"/>
</a>
</g>
</g>
<!-- Node17&#45;&gt;Node4 -->
<g id="edge40_Node000017_Node000004" class="edge">
<title>Node17&#45;&gt;Node4</title>
<g id="a_edge40_Node000017_Node000004"><a xlink:title=" ">
<path fill="none" stroke="#63b8ff" d="M848.59,-260.24C808.61,-253.58 754.21,-240.79 711.48,-217 665.88,-191.61 582.88,-86.76 541.48,-55 526.4,-43.44 508.16,-32.32 493.68,-24.08"/>
<polygon fill="#63b8ff" stroke="#63b8ff" points="495.22,-20.93 484.78,-19.11 491.81,-27.04 495.22,-20.93"/>
</a>
</g>
</g>
<!-- Node17&#45;&gt;Node13 -->
<g id="edge28_Node000017_Node000013" class="edge">
<title>Node17&#45;&gt;Node13</title>
<g id="a_edge28_Node000017_Node000013"><a xlink:title=" ">
<path fill="none" stroke="#63b8ff" d="M848.72,-255.44C784.4,-241.79 685.38,-220.47 677.48,-217 656.14,-207.64 655.01,-198.02 634.48,-187 544.35,-138.64 429.6,-99.21 373.87,-81.34"/>
<polygon fill="#63b8ff" stroke="#63b8ff" points="374.76,-77.95 364.17,-78.25 372.64,-84.62 374.76,-77.95"/>
</a>
</g>
</g>
<!-- Node18 -->
<g id="Node000018" class="node">
<title>Node18</title>
<g id="a_Node000018"><a xlink:href="player_8h.html" target="_top" xlink:title=" ">
<polygon fill="white" stroke="#666666" points="828.98,-217 719.98,-217 719.98,-187 828.98,-187 828.98,-217"/>
<text text-anchor="start" x="727.98" y="-205" font-family="Helvetica,sans-Serif" font-size="10.00">tic_tac_toe/models</text>
<text text-anchor="middle" x="774.48" y="-194" font-family="Helvetica,sans-Serif" font-size="10.00">/player.h</text>
</a>
</g>
</g>
<!-- Node17&#45;&gt;Node18 -->
<g id="edge29_Node000017_Node000018" class="edge">
<title>Node17&#45;&gt;Node18</title>
<g id="a_edge29_Node000017_Node000018"><a xlink:title=" ">
<path fill="none" stroke="#63b8ff" d="M875.17,-252.95C856.6,-243.74 832.11,-231.6 811.94,-221.59"/>
<polygon fill="#63b8ff" stroke="#63b8ff" points="813.23,-218.32 802.72,-217.01 810.12,-224.59 813.23,-218.32"/>
</a>
</g>
</g>
<!-- Node17&#45;&gt;Node19 -->
<g id="edge38_Node000017_Node000019" class="edge">
<title>Node17&#45;&gt;Node19</title>
<g id="a_edge38_Node000017_Node000019"><a xlink:title=" ">
<path fill="none" stroke="#63b8ff" d="M958.17,-256.92C981.81,-249.74 1007.64,-237.56 1023.48,-217 1035.55,-201.33 1037.65,-178.63 1037.11,-161.41"/>
<polygon fill="#63b8ff" stroke="#63b8ff" points="1040.58,-160.78 1036.45,-151.02 1033.59,-161.22 1040.58,-160.78"/>
</a>
</g>
</g>
<!-- Node23 -->
<g id="Node000023" class="node">
<title>Node23</title>
<g id="a_Node000023"><a xlink:href="alignment_8h.html" target="_top" xlink:title=" ">
<polygon fill="white" stroke="#666666" points="1013.98,-211.5 846.98,-211.5 846.98,-192.5 1013.98,-192.5 1013.98,-211.5"/>
<text text-anchor="middle" x="930.48" y="-199.5" font-family="Helvetica,sans-Serif" font-size="10.00">tic_tac_toe/enums/alignment.h</text>
</a>
</g>
</g>
<!-- Node17&#45;&gt;Node23 -->
<g id="edge39_Node000017_Node000023" class="edge">
<title>Node17&#45;&gt;Node23</title>
<g id="a_edge39_Node000017_Node000023"><a xlink:title=" ">
<path fill="none" stroke="#63b8ff" d="M909.47,-252.8C913.39,-243.5 918.55,-231.27 922.77,-221.26"/>
<polygon fill="#63b8ff" stroke="#63b8ff" points="926.08,-222.42 926.74,-211.84 919.63,-219.7 926.08,-222.42"/>
</a>
</g>
</g>
<!-- Node18&#45;&gt;Node4 -->
<g id="edge30_Node000018_Node000004" class="edge">
<title>Node18&#45;&gt;Node4</title>
<g id="a_edge30_Node000018_Node000004"><a xlink:title=" ">
<path fill="none" stroke="#63b8ff" d="M766.74,-186.67C761.45,-176.74 754.35,-163.16 748.48,-151 728.13,-108.91 742.19,-83.95 705.48,-55 675.39,-31.28 567.2,-18.73 507.95,-13.51"/>
<polygon fill="#63b8ff" stroke="#63b8ff" points="508.1,-10.01 497.83,-12.64 507.5,-16.98 508.1,-10.01"/>
</a>
</g>
</g>
<!-- Node18&#45;&gt;Node19 -->
<g id="edge31_Node000018_Node000019" class="edge">
<title>Node18&#45;&gt;Node19</title>
<g id="a_edge31_Node000018_Node000019"><a xlink:title=" ">
<path fill="none" stroke="#63b8ff" d="M828.98,-187.58C870.01,-177.48 926.39,-163.61 969.72,-152.94"/>
<polygon fill="#63b8ff" stroke="#63b8ff" points="970.72,-156.3 979.6,-150.51 969.05,-149.5 970.72,-156.3"/>
</a>
</g>
</g>
<!-- Node21 -->
<g id="Node000021" class="node">
<title>Node21</title>
<g id="a_Node000021"><a xlink:href="symbol_8h.html" target="_top" xlink:title=" ">
<polygon fill="white" stroke="#666666" points="992.48,-79.5 838.48,-79.5 838.48,-60.5 992.48,-60.5 992.48,-79.5"/>
<text text-anchor="middle" x="915.48" y="-67.5" font-family="Helvetica,sans-Serif" font-size="10.00">tic_tac_toe/enums/symbol.h</text>
</a>
</g>
</g>
<!-- Node18&#45;&gt;Node21 -->
<g id="edge35_Node000018_Node000021" class="edge">
<title>Node18&#45;&gt;Node21</title>
<g id="a_edge35_Node000018_Node000021"><a xlink:title=" ">
<path fill="none" stroke="#63b8ff" d="M823.9,-186.98C844.19,-179.16 866.6,-167.56 882.48,-151 898.93,-133.84 907.65,-107.32 911.91,-89.58"/>
<polygon fill="#63b8ff" stroke="#63b8ff" points="915.38,-90.11 914.06,-79.6 908.53,-88.63 915.38,-90.11"/>
</a>
</g>
</g>
<!-- Node22 -->
<g id="Node000022" class="node">
<title>Node22</title>
<g id="a_Node000022"><a xlink:href="observer_8h.html" target="_top" xlink:title=" ">
<polygon fill="white" stroke="#666666" points="873.48,-151 757.48,-151 757.48,-121 873.48,-121 873.48,-151"/>
<text text-anchor="start" x="765.48" y="-139" font-family="Helvetica,sans-Serif" font-size="10.00">tic_tac_toe/observer</text>
<text text-anchor="middle" x="815.48" y="-128" font-family="Helvetica,sans-Serif" font-size="10.00">/observer.h</text>
</a>
</g>
</g>
<!-- Node18&#45;&gt;Node22 -->
<g id="edge36_Node000018_Node000022" class="edge">
<title>Node18&#45;&gt;Node22</title>
<g id="a_edge36_Node000018_Node000022"><a xlink:title=" ">
<path fill="none" stroke="#63b8ff" d="M783.57,-186.8C788.67,-178.84 795.14,-168.74 800.93,-159.71"/>
<polygon fill="#63b8ff" stroke="#63b8ff" points="803.95,-161.47 806.4,-151.16 798.06,-157.7 803.95,-161.47"/>
</a>
</g>
</g>
<!-- Node19&#45;&gt;Node20 -->
<g id="edge32_Node000019_Node000020" class="edge">
<title>Node19&#45;&gt;Node20</title>
<g id="a_edge32_Node000019_Node000020"><a xlink:title=" ">
<path fill="none" stroke="#63b8ff" d="M1043.57,-120.8C1049.72,-111.21 1057.86,-98.5 1064.38,-88.32"/>
<polygon fill="#63b8ff" stroke="#63b8ff" points="1067.36,-90.15 1069.81,-79.84 1061.47,-86.38 1067.36,-90.15"/>
</a>
</g>
</g>
<!-- Node19&#45;&gt;Node21 -->
<g id="edge33_Node000019_Node000021" class="edge">
<title>Node19&#45;&gt;Node21</title>
<g id="a_edge33_Node000019_Node000021"><a xlink:title=" ">
<path fill="none" stroke="#63b8ff" d="M1008.36,-120.95C988.13,-110.08 960.3,-95.11 940.38,-84.4"/>
<polygon fill="#63b8ff" stroke="#63b8ff" points="941.78,-81.17 931.31,-79.52 938.46,-87.34 941.78,-81.17"/>
</a>
</g>
</g>
<!-- Node21&#45;&gt;Node8 -->
<g id="edge34_Node000021_Node000008" class="edge">
<title>Node21&#45;&gt;Node8</title>
<g id="a_edge34_Node000021_Node000008"><a xlink:title=" ">
<path fill="none" stroke="#63b8ff" d="M899.98,-60.37C882.84,-50.82 855,-35.31 834.92,-24.12"/>
<polygon fill="#63b8ff" stroke="#63b8ff" points="836.47,-20.98 826.03,-19.17 833.06,-27.09 836.47,-20.98"/>
</a>
</g>
</g>
<!-- Node22&#45;&gt;Node8 -->
<g id="edge37_Node000022_Node000008" class="edge">
<title>Node22&#45;&gt;Node8</title>
<g id="a_edge37_Node000022_Node000008"><a xlink:title=" ">
<path fill="none" stroke="#63b8ff" d="M814.9,-120.72C813.99,-98.12 812.23,-54.12 811.22,-29.09"/>
<polygon fill="#63b8ff" stroke="#63b8ff" points="814.72,-28.92 810.82,-19.07 807.72,-29.2 814.72,-28.92"/>
</a>
</g>
</g>
</g>
</svg>
