<?xml version="1.0" encoding="UTF-8" standalone="no"?>
<!DOCTYPE svg PUBLIC "-//W3C//DTD SVG 1.1//EN"
 "http://www.w3.org/Graphics/SVG/1.1/DTD/svg11.dtd">
<!-- Generated by graphviz version 2.43.0 (0)
 -->
<!-- Title: include/monte_carlo/models/node_base.h Pages: 1 -->
<svg width="642pt" height="291pt"
 viewBox="0.00 0.00 641.80 291.00" xmlns="http://www.w3.org/2000/svg" xmlns:xlink="http://www.w3.org/1999/xlink">
<g id="graph0" class="graph" transform="scale(1 1) rotate(0) translate(4 287)">
<title>include/monte_carlo/models/node_base.h</title>
<!-- Node1 -->
<g id="Node000001" class="node">
<title>Node1</title>
<g id="a_Node000001"><a xlink:title=" ">
<polygon fill="#999999" stroke="#666666" points="490.8,-283 370.8,-283 370.8,-253 490.8,-253 490.8,-283"/>
<text text-anchor="start" x="378.8" y="-271" font-family="Helvetica,sans-Serif" font-size="10.00">include/monte_carlo</text>
<text text-anchor="middle" x="430.8" y="-260" font-family="Helvetica,sans-Serif" font-size="10.00">/models/node_base.h</text>
</a>
</g>
</g>
<!-- Node2 -->
<g id="Node000002" class="node">
<title>Node2</title>
<g id="a_Node000002"><a xlink:href="node_8h.html" target="_top" xlink:title=" ">
<polygon fill="white" stroke="#666666" points="343.8,-217 227.8,-217 227.8,-187 343.8,-187 343.8,-217"/>
<text text-anchor="start" x="235.8" y="-205" font-family="Helvetica,sans-Serif" font-size="10.00">monte_carlo/models</text>
<text text-anchor="middle" x="285.8" y="-194" font-family="Helvetica,sans-Serif" font-size="10.00">/node.h</text>
</a>
</g>
</g>
<!-- Node1&#45;&gt;Node2 -->
<g id="edge1_Node000001_Node000002" class="edge">
<title>Node1&#45;&gt;Node2</title>
<g id="a_edge1_Node000001_Node000002"><a xlink:title=" ">
<path fill="none" stroke="#63b8ff" d="M398.98,-252.95C377.83,-243.62 349.84,-231.27 326.99,-221.18"/>
<polygon fill="#63b8ff" stroke="#63b8ff" points="328.11,-217.85 317.55,-217.01 325.28,-224.25 328.11,-217.85"/>
</a>
</g>
</g>
<!-- Node9 -->
<g id="Node000009" class="node">
<title>Node9</title>
<g id="a_Node000009"><a xlink:href="tree__factory__interface_8h.html" target="_top" xlink:title=" ">
<polygon fill="white" stroke="#666666" points="499.3,-217 362.3,-217 362.3,-187 499.3,-187 499.3,-217"/>
<text text-anchor="start" x="370.3" y="-205" font-family="Helvetica,sans-Serif" font-size="10.00">monte_carlo/factories</text>
<text text-anchor="middle" x="430.8" y="-194" font-family="Helvetica,sans-Serif" font-size="10.00">/tree_factory_interface.h</text>
</a>
</g>
</g>
<!-- Node1&#45;&gt;Node9 -->
<g id="edge12_Node000001_Node000009" class="edge">
<title>Node1&#45;&gt;Node9</title>
<g id="a_edge12_Node000001_Node000009"><a xlink:title=" ">
<path fill="none" stroke="#63b8ff" d="M430.8,-252.8C430.8,-245.34 430.8,-235.99 430.8,-227.41"/>
<polygon fill="#63b8ff" stroke="#63b8ff" points="434.3,-227.16 430.8,-217.16 427.3,-227.16 434.3,-227.16"/>
</a>
</g>
</g>
<!-- Node11 -->
<g id="Node000011" class="node">
<title>Node11</title>
<g id="a_Node000011"><a xlink:title=" ">
<polygon fill="#e0e0e0" stroke="#999999" points="633.8,-217 517.8,-217 517.8,-187 633.8,-187 633.8,-217"/>
<text text-anchor="start" x="525.8" y="-205" font-family="Helvetica,sans-Serif" font-size="10.00">monte_carlo/models</text>
<text text-anchor="middle" x="575.8" y="-194" font-family="Helvetica,sans-Serif" font-size="10.00">/node_base.tpp</text>
</a>
</g>
</g>
<!-- Node1&#45;&gt;Node11 -->
<g id="edge15_Node000001_Node000011" class="edge">
<title>Node1&#45;&gt;Node11</title>
<g id="a_edge15_Node000001_Node000011"><a xlink:title=" ">
<path fill="none" stroke="#63b8ff" d="M462.62,-252.95C483.78,-243.62 511.76,-231.27 534.61,-221.18"/>
<polygon fill="#63b8ff" stroke="#63b8ff" points="536.32,-224.25 544.06,-217.01 533.49,-217.85 536.32,-224.25"/>
</a>
</g>
</g>
<!-- Node3 -->
<g id="Node000003" class="node">
<title>Node3</title>
<g id="a_Node000003"><a xlink:href="rollout__strategy__interface_8h.html" target="_top" xlink:title=" ">
<polygon fill="white" stroke="#666666" points="247.3,-151 92.3,-151 92.3,-121 247.3,-121 247.3,-151"/>
<text text-anchor="start" x="100.3" y="-139" font-family="Helvetica,sans-Serif" font-size="10.00">monte_carlo/models</text>
<text text-anchor="middle" x="169.8" y="-128" font-family="Helvetica,sans-Serif" font-size="10.00">/rollout_strategy_interface.h</text>
</a>
</g>
</g>
<!-- Node2&#45;&gt;Node3 -->
<g id="edge2_Node000002_Node000003" class="edge">
<title>Node2&#45;&gt;Node3</title>
<g id="a_edge2_Node000002_Node000003"><a xlink:title=" ">
<path fill="none" stroke="#63b8ff" d="M260.35,-186.95C243.88,-177.87 222.23,-165.93 204.23,-156"/>
<polygon fill="#63b8ff" stroke="#63b8ff" points="205.65,-152.78 195.2,-151.01 202.26,-158.91 205.65,-152.78"/>
</a>
</g>
</g>
<!-- Node5 -->
<g id="Node000005" class="node">
<title>Node5</title>
<g id="a_Node000005"><a xlink:title=" ">
<polygon fill="#e0e0e0" stroke="#999999" points="278.8,-19 220.8,-19 220.8,0 278.8,0 278.8,-19"/>
<text text-anchor="middle" x="249.8" y="-7" font-family="Helvetica,sans-Serif" font-size="10.00">memory</text>
</a>
</g>
</g>
<!-- Node2&#45;&gt;Node5 -->
<g id="edge11_Node000002_Node000005" class="edge">
<title>Node2&#45;&gt;Node5</title>
<g id="a_edge11_Node000002_Node000005"><a xlink:title=" ">
<path fill="none" stroke="#63b8ff" d="M295.73,-186.82C313.42,-159.64 346.34,-99.01 321.8,-55 313.76,-40.58 298.9,-30.24 284.77,-23.18"/>
<polygon fill="#63b8ff" stroke="#63b8ff" points="286.21,-19.99 275.66,-19.01 283.29,-26.36 286.21,-19.99"/>
</a>
</g>
</g>
<!-- Node8 -->
<g id="Node000008" class="node">
<title>Node8</title>
<g id="a_Node000008"><a xlink:title=" ">
<polygon fill="#e0e0e0" stroke="#999999" points="312.3,-79.5 265.3,-79.5 265.3,-60.5 312.3,-60.5 312.3,-79.5"/>
<text text-anchor="middle" x="288.8" y="-67.5" font-family="Helvetica,sans-Serif" font-size="10.00">vector</text>
</a>
</g>
</g>
<!-- Node2&#45;&gt;Node8 -->
<g id="edge10_Node000002_Node000008" class="edge">
<title>Node2&#45;&gt;Node8</title>
<g id="a_edge10_Node000002_Node000008"><a xlink:title=" ">
<path fill="none" stroke="#63b8ff" d="M286.13,-186.84C286.67,-163.34 287.76,-116.26 288.37,-89.93"/>
<polygon fill="#63b8ff" stroke="#63b8ff" points="291.87,-89.83 288.6,-79.75 284.87,-89.66 291.87,-89.83"/>
</a>
</g>
</g>
<!-- Node4 -->
<g id="Node000004" class="node">
<title>Node4</title>
<g id="a_Node000004"><a xlink:href="action_8h.html" target="_top" xlink:title=" ">
<polygon fill="white" stroke="#666666" points="130.8,-85 14.8,-85 14.8,-55 130.8,-55 130.8,-85"/>
<text text-anchor="start" x="22.8" y="-73" font-family="Helvetica,sans-Serif" font-size="10.00">monte_carlo/models</text>
<text text-anchor="middle" x="72.8" y="-62" font-family="Helvetica,sans-Serif" font-size="10.00">/action.h</text>
</a>
</g>
</g>
<!-- Node3&#45;&gt;Node4 -->
<g id="edge3_Node000003_Node000004" class="edge">
<title>Node3&#45;&gt;Node4</title>
<g id="a_edge3_Node000003_Node000004"><a xlink:title=" ">
<path fill="none" stroke="#63b8ff" d="M148.28,-120.8C134.96,-112.01 117.68,-100.61 103.01,-90.93"/>
<polygon fill="#63b8ff" stroke="#63b8ff" points="104.54,-87.75 94.27,-85.16 100.69,-93.59 104.54,-87.75"/>
</a>
</g>
</g>
<!-- Node3&#45;&gt;Node5 -->
<g id="edge7_Node000003_Node000005" class="edge">
<title>Node3&#45;&gt;Node5</title>
<g id="a_edge7_Node000003_Node000005"><a xlink:title=" ">
<path fill="none" stroke="#63b8ff" d="M167.65,-120.79C165.83,-103.8 165.23,-75.12 177.8,-55 186.68,-40.79 201.93,-30.41 216.12,-23.27"/>
<polygon fill="#63b8ff" stroke="#63b8ff" points="217.63,-26.43 225.21,-19.03 214.67,-20.08 217.63,-26.43"/>
</a>
</g>
</g>
<!-- Node6 -->
<g id="Node000006" class="node">
<title>Node6</title>
<g id="a_Node000006"><a xlink:title=" ">
<polygon fill="#e0e0e0" stroke="#999999" points="58.3,-19 1.3,-19 1.3,0 58.3,0 58.3,-19"/>
<text text-anchor="middle" x="29.8" y="-7" font-family="Helvetica,sans-Serif" font-size="10.00">ostream</text>
</a>
</g>
</g>
<!-- Node3&#45;&gt;Node6 -->
<g id="edge8_Node000003_Node000006" class="edge">
<title>Node3&#45;&gt;Node6</title>
<g id="a_edge8_Node000003_Node000006"><a xlink:title=" ">
<path fill="none" stroke="#63b8ff" d="M92.19,-130.93C60.12,-124.94 25.82,-112.03 5.8,-85 -6.91,-67.84 5.03,-43.67 16.15,-27.57"/>
<polygon fill="#63b8ff" stroke="#63b8ff" points="19.26,-29.25 22.4,-19.13 13.64,-25.08 19.26,-29.25"/>
</a>
</g>
</g>
<!-- Node7 -->
<g id="Node000007" class="node">
<title>Node7</title>
<g id="a_Node000007"><a xlink:title=" ">
<polygon fill="#e0e0e0" stroke="#999999" points="246.8,-79.5 186.8,-79.5 186.8,-60.5 246.8,-60.5 246.8,-79.5"/>
<text text-anchor="middle" x="216.8" y="-67.5" font-family="Helvetica,sans-Serif" font-size="10.00">iostream</text>
</a>
</g>
</g>
<!-- Node3&#45;&gt;Node7 -->
<g id="edge6_Node000003_Node000007" class="edge">
<title>Node3&#45;&gt;Node7</title>
<g id="a_edge6_Node000003_Node000007"><a xlink:title=" ">
<path fill="none" stroke="#63b8ff" d="M180.23,-120.8C187.35,-111.11 196.8,-98.24 204.31,-88.01"/>
<polygon fill="#63b8ff" stroke="#63b8ff" points="207.21,-89.98 210.31,-79.84 201.57,-85.83 207.21,-89.98"/>
</a>
</g>
</g>
<!-- Node3&#45;&gt;Node8 -->
<g id="edge9_Node000003_Node000008" class="edge">
<title>Node3&#45;&gt;Node8</title>
<g id="a_edge9_Node000003_Node000008"><a xlink:title=" ">
<path fill="none" stroke="#63b8ff" d="M195.92,-120.95C216.14,-110.08 243.98,-95.11 263.89,-84.4"/>
<polygon fill="#63b8ff" stroke="#63b8ff" points="265.82,-87.34 272.97,-79.52 262.5,-81.17 265.82,-87.34"/>
</a>
</g>
</g>
<!-- Node4&#45;&gt;Node5 -->
<g id="edge4_Node000004_Node000005" class="edge">
<title>Node4&#45;&gt;Node5</title>
<g id="a_edge4_Node000004_Node000005"><a xlink:title=" ">
<path fill="none" stroke="#63b8ff" d="M115.2,-54.99C145.48,-44.98 185.75,-31.67 214.34,-22.22"/>
<polygon fill="#63b8ff" stroke="#63b8ff" points="215.53,-25.52 223.92,-19.05 213.33,-18.87 215.53,-25.52"/>
</a>
</g>
</g>
<!-- Node4&#45;&gt;Node6 -->
<g id="edge5_Node000004_Node000006" class="edge">
<title>Node4&#45;&gt;Node6</title>
<g id="a_edge5_Node000004_Node000006"><a xlink:title=" ">
<path fill="none" stroke="#63b8ff" d="M62.39,-54.84C56.34,-46.61 48.68,-36.18 42.3,-27.51"/>
<polygon fill="#63b8ff" stroke="#63b8ff" points="44.99,-25.25 36.25,-19.27 39.35,-29.4 44.99,-25.25"/>
</a>
</g>
</g>
<!-- Node9&#45;&gt;Node5 -->
<g id="edge13_Node000009_Node000005" class="edge">
<title>Node9&#45;&gt;Node5</title>
<g id="a_edge13_Node000009_Node000005"><a xlink:title=" ">
<path fill="none" stroke="#63b8ff" d="M421.99,-186.81C399.29,-150.25 340.52,-55.65 339.8,-55 324.22,-40.88 303.33,-30.18 285.6,-22.82"/>
<polygon fill="#63b8ff" stroke="#63b8ff" points="286.72,-19.5 276.13,-19.07 284.14,-26.01 286.72,-19.5"/>
</a>
</g>
</g>
<!-- Node10 -->
<g id="Node000010" class="node">
<title>Node10</title>
<g id="a_Node000010"><a xlink:title=" ">
<polygon fill="#e0e0e0" stroke="#999999" points="452.8,-145.5 408.8,-145.5 408.8,-126.5 452.8,-126.5 452.8,-145.5"/>
<text text-anchor="middle" x="430.8" y="-133.5" font-family="Helvetica,sans-Serif" font-size="10.00">string</text>
</a>
</g>
</g>
<!-- Node9&#45;&gt;Node10 -->
<g id="edge14_Node000009_Node000010" class="edge">
<title>Node9&#45;&gt;Node10</title>
<g id="a_edge14_Node000009_Node000010"><a xlink:title=" ">
<path fill="none" stroke="#63b8ff" d="M430.8,-186.8C430.8,-177.7 430.8,-165.79 430.8,-155.9"/>
<polygon fill="#63b8ff" stroke="#63b8ff" points="434.3,-155.84 430.8,-145.84 427.3,-155.84 434.3,-155.84"/>
</a>
</g>
</g>
</g>
</svg>
