<?xml version="1.0" encoding="UTF-8" standalone="no"?>
<!DOCTYPE svg PUBLIC "-//W3C//DTD SVG 1.1//EN"
 "http://www.w3.org/Graphics/SVG/1.1/DTD/svg11.dtd">
<!-- Generated by graphviz version 2.43.0 (0)
 -->
<!-- Title: include/monte_carlo/models/node.h Pages: 1 -->
<!--zoomable 357 -->

<svg id="main" version="1.1" xmlns="http://www.w3.org/2000/svg" xmlns:xlink="http://www.w3.org/1999/xlink" xml:space="preserve" onload="init(evt)">
<style type="text/css"><![CDATA[
.node, .edge {opacity: 0.7;}
.node.selected, .edge.selected {opacity: 1;}
.edge:hover path { stroke: red; }
.edge:hover polygon { stroke: red; fill: red; }
]]></style>

<defs>
  <circle id="rim" cx="0" cy="0" r="7"/>
  <circle id="rim2" cx="0" cy="0" r="3.5"/>
  <g id="zoomPlus">
    <use xlink:href="#rim" fill="#404040"><set attributeName="fill" to="#808080" begin="zoomplus.mouseover" end="zoomplus.mouseout"/></use>
    <path d="M-4,0h8M0,-4v8" fill="none" stroke="white" stroke-width="1.5" pointer-events="none"/>
  </g>
  <g id="zoomMin">
    <use xlink:href="#rim" fill="#404040"><set attributeName="fill" to="#808080" begin="zoomminus.mouseover" end="zoomminus.mouseout"/></use>
    <path d="M-4,0h8" fill="none" stroke="white" stroke-width="1.5" pointer-events="none"/>
  </g>
  <g id="arrowUp" transform="translate(30 24)">
    <use xlink:href="#rim"/>
    <path pointer-events="none" fill="none" stroke="white" stroke-width="1.5" d="M0,-3.0v7 M-2.5,-0.5L0,-3.0L2.5,-0.5"/>
  </g>
  <g id="arrowRight" transform="rotate(90) translate(36 -43)">
    <use xlink:href="#rim"/>
    <path pointer-events="none" fill="none" stroke="white" stroke-width="1.5" d="M0,-3.0v7 M-2.5,-0.5L0,-3.0L2.5,-0.5"/>
  </g>
  <g id="arrowDown" transform="rotate(180) translate(-30 -48)">
    <use xlink:href="#rim"/>
    <path pointer-events="none" fill="none" stroke="white" stroke-width="1.5" d="M0,-3.0v7 M-2.5,-0.5L0,-3.0L2.5,-0.5"/>
  </g>
  <g id="arrowLeft" transform="rotate(270) translate(-36 17)">
    <use xlink:href="#rim"/>
    <path pointer-events="none" fill="none" stroke="white" stroke-width="1.5" d="M0,-3.0v7 M-2.5,-0.5L0,-3.0L2.5,-0.5"/>
  </g>
  <g id="resetDef">
    <use xlink:href="#rim2" fill="#404040"><set attributeName="fill" to="#808080" begin="reset.mouseover" end="reset.mouseout"/></use>
  </g>
</defs>
<script type="application/ecmascript">
var viewWidth = 1447;
var viewHeight = 357;
var sectionId = 'dynsection-1';
</script>
<script type="application/ecmascript" xlink:href="svg.min.js"/>
<svg id="graph" class="graph">
<g id="viewport">
<title>include/monte_carlo/models/node.h</title>
<!-- Node1 -->
<g id="Node000001" class="node">
<title>Node1</title>
<g id="a_Node000001"><a xlink:title=" ">
<polygon fill="#999999" stroke="#666666" points="815.5,-349 699.5,-349 699.5,-319 815.5,-319 815.5,-349"/>
<text text-anchor="start" x="707.5" y="-337" font-family="Helvetica,sans-Serif" font-size="10.00">include/monte_carlo</text>
<text text-anchor="middle" x="757.5" y="-326" font-family="Helvetica,sans-Serif" font-size="10.00">/models/node.h</text>
</a>
</g>
</g>
<!-- Node2 -->
<g id="Node000002" class="node">
<title>Node2</title>
<g id="a_Node000002"><a xlink:href="bot_8h.html" target="_top" xlink:title=" ">
<polygon fill="white" stroke="#666666" points="651.5,-200.5 511.5,-200.5 511.5,-159.5 651.5,-159.5 651.5,-200.5"/>
<text text-anchor="start" x="519.5" y="-188.5" font-family="Helvetica,sans-Serif" font-size="10.00">examples/monte_carlo</text>
<text text-anchor="start" x="519.5" y="-177.5" font-family="Helvetica,sans-Serif" font-size="10.00">/tic_tac_toe/include</text>
<text text-anchor="middle" x="581.5" y="-166.5" font-family="Helvetica,sans-Serif" font-size="10.00">/tic_tac_toe/models/bot.h</text>
</a>
</g>
</g>
<!-- Node1&#45;&gt;Node2 -->
<g id="edge1_Node000001_Node000002" class="edge">
<title>Node1&#45;&gt;Node2</title>
<g id="a_edge1_Node000001_Node000002"><a xlink:title=" ">
<path fill="none" stroke="#63b8ff" d="M733.67,-312.47C723.18,-303.43 710.73,-292.69 699.5,-283 666.29,-254.33 627.86,-221.1 604.11,-200.56"/>
<polygon fill="#63b8ff" stroke="#63b8ff" points="731.38,-315.12 741.24,-319 735.95,-309.82 731.38,-315.12"/>
</a>
</g>
</g>
<!-- Node6 -->
<g id="Node000006" class="node">
<title>Node6</title>
<g id="a_Node000006"><a xlink:href="state__tests_8cpp.html" target="_top" xlink:title=" ">
<polygon fill="white" stroke="#666666" points="649.5,-118 515.5,-118 515.5,-77 649.5,-77 649.5,-118"/>
<text text-anchor="start" x="523.5" y="-106" font-family="Helvetica,sans-Serif" font-size="10.00">examples/monte_carlo</text>
<text text-anchor="start" x="523.5" y="-95" font-family="Helvetica,sans-Serif" font-size="10.00">/tic_tac_toe/tests/model</text>
<text text-anchor="middle" x="582.5" y="-84" font-family="Helvetica,sans-Serif" font-size="10.00">_tests/state_tests.cpp</text>
</a>
</g>
</g>
<!-- Node1&#45;&gt;Node6 -->
<g id="edge9_Node000001_Node000006" class="edge">
<title>Node1&#45;&gt;Node6</title>
<g id="a_edge9_Node000001_Node000006"><a xlink:title=" ">
<path fill="none" stroke="#63b8ff" d="M745.61,-309.68C722.32,-264.19 671.93,-166.92 660.5,-154 648.16,-140.06 631.69,-127.7 617.06,-118.19"/>
<polygon fill="#63b8ff" stroke="#63b8ff" points="742.61,-311.49 750.28,-318.8 748.84,-308.3 742.61,-311.49"/>
</a>
</g>
</g>
<!-- Node7 -->
<g id="Node000007" class="node">
<title>Node7</title>
<g id="a_Node000007"><a xlink:href="simulation__tests_8cpp.html" target="_top" xlink:title=" ">
<polygon fill="white" stroke="#666666" points="155,-118 0,-118 0,-77 155,-77 155,-118"/>
<text text-anchor="start" x="8" y="-106" font-family="Helvetica,sans-Serif" font-size="10.00">examples/monte_carlo</text>
<text text-anchor="start" x="8" y="-95" font-family="Helvetica,sans-Serif" font-size="10.00">/tic_tac_toe/tests/simulation</text>
<text text-anchor="middle" x="77.5" y="-84" font-family="Helvetica,sans-Serif" font-size="10.00">_tests.cpp</text>
</a>
</g>
</g>
<!-- Node1&#45;&gt;Node7 -->
<g id="edge10_Node000001_Node000007" class="edge">
<title>Node1&#45;&gt;Node7</title>
<g id="a_edge10_Node000001_Node000007"><a xlink:title=" ">
<path fill="none" stroke="#63b8ff" d="M689.24,-330.92C543.5,-325.96 211.66,-311.63 169.5,-283 111.76,-243.79 88.6,-157.26 80.85,-118.26"/>
<polygon fill="#63b8ff" stroke="#63b8ff" points="689.3,-334.43 699.41,-331.27 689.53,-327.43 689.3,-334.43"/>
</a>
</g>
</g>
<!-- Node8 -->
<g id="Node000008" class="node">
<title>Node8</title>
<g id="a_Node000008"><a xlink:href="tic__tac__toe__factory_8cpp.html" target="_top" xlink:title=" ">
<polygon fill="white" stroke="#666666" points="1063.5,-41 927.5,-41 927.5,0 1063.5,0 1063.5,-41"/>
<text text-anchor="start" x="935.5" y="-29" font-family="Helvetica,sans-Serif" font-size="10.00">examples/monte_carlo</text>
<text text-anchor="start" x="935.5" y="-18" font-family="Helvetica,sans-Serif" font-size="10.00">/tic_tac_toe/src/factories</text>
<text text-anchor="middle" x="995.5" y="-7" font-family="Helvetica,sans-Serif" font-size="10.00">/tic_tac_toe_factory.cpp</text>
</a>
</g>
</g>
<!-- Node1&#45;&gt;Node8 -->
<g id="edge7_Node000001_Node000008" class="edge">
<title>Node1&#45;&gt;Node8</title>
<g id="a_edge7_Node000001_Node000008"><a xlink:title=" ">
<path fill="none" stroke="#63b8ff" d="M806.94,-315.42C882.89,-287.99 1024.27,-235.13 1069.5,-206 1117.34,-175.19 1140,-170.27 1162.5,-118 1169.71,-101.26 1173.16,-91.78 1162.5,-77 1139.98,-45.78 1099.17,-31.85 1063.53,-25.75"/>
<polygon fill="#63b8ff" stroke="#63b8ff" points="805.34,-312.28 797.12,-318.96 807.71,-318.86 805.34,-312.28"/>
</a>
</g>
</g>
<!-- Node9 -->
<g id="Node000009" class="node">
<title>Node9</title>
<g id="a_Node000009"><a xlink:href="human_8cpp.html" target="_top" xlink:title=" ">
<polygon fill="white" stroke="#666666" points="1134,-283 1005,-283 1005,-242 1134,-242 1134,-283"/>
<text text-anchor="start" x="1013" y="-271" font-family="Helvetica,sans-Serif" font-size="10.00">examples/monte_carlo</text>
<text text-anchor="start" x="1013" y="-260" font-family="Helvetica,sans-Serif" font-size="10.00">/tic_tac_toe/src/models</text>
<text text-anchor="middle" x="1069.5" y="-249" font-family="Helvetica,sans-Serif" font-size="10.00">/human.cpp</text>
</a>
</g>
</g>
<!-- Node1&#45;&gt;Node9 -->
<g id="edge8_Node000001_Node000009" class="edge">
<title>Node1&#45;&gt;Node9</title>
<g id="a_edge8_Node000001_Node000009"><a xlink:title=" ">
<path fill="none" stroke="#63b8ff" d="M825.51,-318.98C872.04,-309.24 935.1,-295.78 990.5,-283 995.18,-281.92 1000.01,-280.78 1004.87,-279.62"/>
<polygon fill="#63b8ff" stroke="#63b8ff" points="824.61,-315.59 815.54,-321.06 826.04,-322.44 824.61,-315.59"/>
</a>
</g>
</g>
<!-- Node10 -->
<g id="Node000010" class="node">
<title>Node10</title>
<g id="a_Node000010"><a xlink:href="node__base_8h.html" target="_top" xlink:title=" ">
<polygon fill="white" stroke="#666666" points="862.5,-277.5 742.5,-277.5 742.5,-247.5 862.5,-247.5 862.5,-277.5"/>
<text text-anchor="start" x="750.5" y="-265.5" font-family="Helvetica,sans-Serif" font-size="10.00">include/monte_carlo</text>
<text text-anchor="middle" x="802.5" y="-254.5" font-family="Helvetica,sans-Serif" font-size="10.00">/models/node_base.h</text>
</a>
</g>
</g>
<!-- Node1&#45;&gt;Node10 -->
<g id="edge11_Node000001_Node000010" class="edge">
<title>Node1&#45;&gt;Node10</title>
<g id="a_edge11_Node000001_Node000010"><a xlink:title=" ">
<path fill="none" stroke="#63b8ff" d="M772.14,-310.38C779.15,-299.57 787.31,-286.96 793.41,-277.54"/>
<polygon fill="#63b8ff" stroke="#63b8ff" points="769.1,-308.64 766.61,-318.94 774.98,-312.44 769.1,-308.64"/>
</a>
</g>
</g>
<!-- Node17 -->
<g id="Node000017" class="node">
<title>Node17</title>
<g id="a_Node000017"><a xlink:href="tree__search__algorithm_8h.html" target="_top" xlink:title=" ">
<polygon fill="white" stroke="#666666" points="316.5,-277.5 178.5,-277.5 178.5,-247.5 316.5,-247.5 316.5,-277.5"/>
<text text-anchor="start" x="186.5" y="-265.5" font-family="Helvetica,sans-Serif" font-size="10.00">include/monte_carlo</text>
<text text-anchor="middle" x="247.5" y="-254.5" font-family="Helvetica,sans-Serif" font-size="10.00">/tree_search_algorithm.h</text>
</a>
</g>
</g>
<!-- Node1&#45;&gt;Node17 -->
<g id="edge26_Node000001_Node000017" class="edge">
<title>Node1&#45;&gt;Node17</title>
<g id="a_edge26_Node000001_Node000017"><a xlink:title=" ">
<path fill="none" stroke="#63b8ff" d="M689.49,-323.73C592.31,-310.49 414.7,-286.29 316.82,-272.95"/>
<polygon fill="#63b8ff" stroke="#63b8ff" points="689.11,-327.21 699.49,-325.1 690.06,-320.28 689.11,-327.21"/>
</a>
</g>
</g>
<!-- Node18 -->
<g id="Node000018" class="node">
<title>Node18</title>
<g id="a_Node000018"><a xlink:href="tree__search__algorithm_8cpp.html" target="_top" xlink:title=" ">
<polygon fill="white" stroke="#666666" points="346,-195 219,-195 219,-165 346,-165 346,-195"/>
<text text-anchor="start" x="227" y="-183" font-family="Helvetica,sans-Serif" font-size="10.00">src/monte_carlo/tree</text>
<text text-anchor="middle" x="282.5" y="-172" font-family="Helvetica,sans-Serif" font-size="10.00">_search_algorithm.cpp</text>
</a>
</g>
</g>
<!-- Node1&#45;&gt;Node18 -->
<g id="edge32_Node000001_Node000018" class="edge">
<title>Node1&#45;&gt;Node18</title>
<g id="a_edge32_Node000001_Node000018"><a xlink:title=" ">
<path fill="none" stroke="#63b8ff" d="M702.29,-316.02C624.69,-292.04 479.01,-246.65 355.5,-206 344.94,-202.52 333.55,-198.67 322.99,-195.06"/>
<polygon fill="#63b8ff" stroke="#63b8ff" points="701.28,-319.37 711.87,-318.97 703.35,-312.68 701.28,-319.37"/>
</a>
</g>
</g>
<!-- Node19 -->
<g id="Node000019" class="node">
<title>Node19</title>
<g id="a_Node000019"><a xlink:href="action_8cpp.html" target="_top" xlink:title=" ">
<polygon fill="white" stroke="#666666" points="1286.5,-277.5 1152.5,-277.5 1152.5,-247.5 1286.5,-247.5 1286.5,-277.5"/>
<text text-anchor="start" x="1160.5" y="-265.5" font-family="Helvetica,sans-Serif" font-size="10.00">src/monte_carlo/models</text>
<text text-anchor="middle" x="1219.5" y="-254.5" font-family="Helvetica,sans-Serif" font-size="10.00">/action.cpp</text>
</a>
</g>
</g>
<!-- Node1&#45;&gt;Node19 -->
<g id="edge30_Node000001_Node000019" class="edge">
<title>Node1&#45;&gt;Node19</title>
<g id="a_edge30_Node000001_Node000019"><a xlink:title=" ">
<path fill="none" stroke="#63b8ff" d="M825.84,-326.7C903.3,-318.97 1033.16,-304.22 1143.5,-283 1151.53,-281.46 1159.96,-279.57 1168.18,-277.57"/>
<polygon fill="#63b8ff" stroke="#63b8ff" points="825.33,-323.23 815.73,-327.7 826.02,-330.2 825.33,-323.23"/>
</a>
</g>
</g>
<!-- Node20 -->
<g id="Node000020" class="node">
<title>Node20</title>
<g id="a_Node000020"><a xlink:href="node_8cpp.html" target="_top" xlink:title=" ">
<polygon fill="white" stroke="#666666" points="1438.5,-277.5 1304.5,-277.5 1304.5,-247.5 1438.5,-247.5 1438.5,-277.5"/>
<text text-anchor="start" x="1312.5" y="-265.5" font-family="Helvetica,sans-Serif" font-size="10.00">src/monte_carlo/models</text>
<text text-anchor="middle" x="1371.5" y="-254.5" font-family="Helvetica,sans-Serif" font-size="10.00">/node.cpp</text>
</a>
</g>
</g>
<!-- Node1&#45;&gt;Node20 -->
<g id="edge31_Node000001_Node000020" class="edge">
<title>Node1&#45;&gt;Node20</title>
<g id="a_edge31_Node000001_Node000020"><a xlink:title=" ">
<path fill="none" stroke="#63b8ff" d="M825.84,-330.12C928.47,-325.02 1128.19,-312.05 1295.5,-283 1303.96,-281.53 1312.85,-279.61 1321.46,-277.54"/>
<polygon fill="#63b8ff" stroke="#63b8ff" points="825.44,-326.64 815.62,-330.62 825.78,-333.63 825.44,-326.64"/>
</a>
</g>
</g>
<!-- Node3 -->
<g id="Node000003" class="node">
<title>Node3</title>
<g id="a_Node000003"><a xlink:href="main_8cpp.html" target="_top" xlink:title=" ">
<polygon fill="white" stroke="#666666" points="497.5,-112.5 359.5,-112.5 359.5,-82.5 497.5,-82.5 497.5,-112.5"/>
<text text-anchor="start" x="367.5" y="-100.5" font-family="Helvetica,sans-Serif" font-size="10.00">examples/monte_carlo</text>
<text text-anchor="middle" x="428.5" y="-89.5" font-family="Helvetica,sans-Serif" font-size="10.00">/tic_tac_toe/src/main.cpp</text>
</a>
</g>
</g>
<!-- Node2&#45;&gt;Node3 -->
<g id="edge2_Node000002_Node000003" class="edge">
<title>Node2&#45;&gt;Node3</title>
<g id="a_edge2_Node000002_Node000003"><a xlink:title=" ">
<path fill="none" stroke="#63b8ff" d="M535.11,-154.59C509.06,-140.89 477.47,-124.27 455.47,-112.69"/>
<polygon fill="#63b8ff" stroke="#63b8ff" points="533.59,-157.75 544.07,-159.31 536.85,-151.55 533.59,-157.75"/>
</a>
</g>
</g>
<!-- Node4 -->
<g id="Node000004" class="node">
<title>Node4</title>
<g id="a_Node000004"><a xlink:href="bot_8cpp.html" target="_top" xlink:title=" ">
<polygon fill="white" stroke="#666666" points="341,-118 212,-118 212,-77 341,-77 341,-118"/>
<text text-anchor="start" x="220" y="-106" font-family="Helvetica,sans-Serif" font-size="10.00">examples/monte_carlo</text>
<text text-anchor="start" x="220" y="-95" font-family="Helvetica,sans-Serif" font-size="10.00">/tic_tac_toe/src/models</text>
<text text-anchor="middle" x="276.5" y="-84" font-family="Helvetica,sans-Serif" font-size="10.00">/bot.cpp</text>
</a>
</g>
</g>
<!-- Node2&#45;&gt;Node4 -->
<g id="edge3_Node000002_Node000004" class="edge">
<title>Node2&#45;&gt;Node4</title>
<g id="a_edge3_Node000002_Node000004"><a xlink:title=" ">
<path fill="none" stroke="#63b8ff" d="M510.61,-156.56C507.54,-155.68 504.49,-154.82 501.5,-154 434.98,-135.7 417.42,-134.79 350.5,-118 347.41,-117.22 344.24,-116.42 341.05,-115.61"/>
<polygon fill="#63b8ff" stroke="#63b8ff" points="509.9,-160 520.48,-159.46 511.87,-153.29 509.9,-160"/>
</a>
</g>
</g>
<!-- Node5 -->
<g id="Node000005" class="node">
<title>Node5</title>
<g id="a_Node000005"><a xlink:href="state_8cpp.html" target="_top" xlink:title=" ">
<polygon fill="white" stroke="#666666" points="797,-118 668,-118 668,-77 797,-77 797,-118"/>
<text text-anchor="start" x="676" y="-106" font-family="Helvetica,sans-Serif" font-size="10.00">examples/monte_carlo</text>
<text text-anchor="start" x="676" y="-95" font-family="Helvetica,sans-Serif" font-size="10.00">/tic_tac_toe/src/models</text>
<text text-anchor="middle" x="732.5" y="-84" font-family="Helvetica,sans-Serif" font-size="10.00">/state.cpp</text>
</a>
</g>
</g>
<!-- Node2&#45;&gt;Node5 -->
<g id="edge4_Node000002_Node000005" class="edge">
<title>Node2&#45;&gt;Node5</title>
<g id="a_edge4_Node000002_Node000005"><a xlink:title=" ">
<path fill="none" stroke="#63b8ff" d="M627.54,-154.46C649.39,-142.81 675.15,-129.07 695.68,-118.13"/>
<polygon fill="#63b8ff" stroke="#63b8ff" points="625.62,-151.51 618.44,-159.31 628.91,-157.69 625.62,-151.51"/>
</a>
</g>
</g>
<!-- Node2&#45;&gt;Node6 -->
<g id="edge5_Node000002_Node000006" class="edge">
<title>Node2&#45;&gt;Node6</title>
<g id="a_edge5_Node000002_Node000006"><a xlink:title=" ">
<path fill="none" stroke="#63b8ff" d="M581.87,-148.87C582,-138.6 582.14,-127.4 582.26,-118.17"/>
<polygon fill="#63b8ff" stroke="#63b8ff" points="578.37,-149.06 581.75,-159.1 585.37,-149.15 578.37,-149.06"/>
</a>
</g>
</g>
<!-- Node2&#45;&gt;Node7 -->
<g id="edge6_Node000002_Node000007" class="edge">
<title>Node2&#45;&gt;Node7</title>
<g id="a_edge6_Node000002_Node000007"><a xlink:title=" ">
<path fill="none" stroke="#63b8ff" d="M513.35,-156.79C509.36,-155.78 505.39,-154.83 501.5,-154 370.63,-125.92 335.09,-136.32 202.5,-118 187.16,-115.88 170.79,-113.45 155.12,-111.04"/>
<polygon fill="#63b8ff" stroke="#63b8ff" points="512.72,-160.25 523.28,-159.45 514.53,-153.48 512.72,-160.25"/>
</a>
</g>
</g>
<!-- Node11 -->
<g id="Node000011" class="node">
<title>Node11</title>
<g id="a_Node000011"><a xlink:href="tic__tac__toe__factory_8h.html" target="_top" xlink:title=" ">
<polygon fill="white" stroke="#666666" points="492.5,-206 364.5,-206 364.5,-154 492.5,-154 492.5,-206"/>
<text text-anchor="start" x="372.5" y="-194" font-family="Helvetica,sans-Serif" font-size="10.00">examples/monte_carlo</text>
<text text-anchor="start" x="372.5" y="-183" font-family="Helvetica,sans-Serif" font-size="10.00">/tic_tac_toe/include</text>
<text text-anchor="start" x="372.5" y="-172" font-family="Helvetica,sans-Serif" font-size="10.00">/tic_tac_toe/factories</text>
<text text-anchor="middle" x="428.5" y="-161" font-family="Helvetica,sans-Serif" font-size="10.00">/tic_tac_toe_factory.h</text>
</a>
</g>
</g>
<!-- Node10&#45;&gt;Node11 -->
<g id="edge12_Node000010_Node000011" class="edge">
<title>Node10&#45;&gt;Node11</title>
<g id="a_edge12_Node000010_Node000011"><a xlink:title=" ">
<path fill="none" stroke="#63b8ff" d="M732.53,-251.46C671.33,-241.98 580.32,-226.23 502.5,-206 499.22,-205.15 495.87,-204.22 492.51,-203.25"/>
<polygon fill="#63b8ff" stroke="#63b8ff" points="732.05,-254.92 742.47,-252.98 733.11,-248 732.05,-254.92"/>
</a>
</g>
</g>
<!-- Node12 -->
<g id="Node000012" class="node">
<title>Node12</title>
<g id="a_Node000012"><a xlink:href="state_8h.html" target="_top" xlink:title=" ">
<polygon fill="white" stroke="#666666" points="1061,-200.5 912,-200.5 912,-159.5 1061,-159.5 1061,-200.5"/>
<text text-anchor="start" x="920" y="-188.5" font-family="Helvetica,sans-Serif" font-size="10.00">examples/monte_carlo</text>
<text text-anchor="start" x="920" y="-177.5" font-family="Helvetica,sans-Serif" font-size="10.00">/tic_tac_toe/include</text>
<text text-anchor="middle" x="986.5" y="-166.5" font-family="Helvetica,sans-Serif" font-size="10.00">/tic_tac_toe/models/state.h</text>
</a>
</g>
</g>
<!-- Node10&#45;&gt;Node12 -->
<g id="edge18_Node000010_Node000012" class="edge">
<title>Node10&#45;&gt;Node12</title>
<g id="a_edge18_Node000010_Node000012"><a xlink:title=" ">
<path fill="none" stroke="#63b8ff" d="M844.01,-243.34C873.1,-230.61 911.94,-213.62 941.72,-200.59"/>
<polygon fill="#63b8ff" stroke="#63b8ff" points="842.31,-240.26 834.55,-247.48 845.11,-246.68 842.31,-240.26"/>
</a>
</g>
</g>
<!-- Node14 -->
<g id="Node000014" class="node">
<title>Node14</title>
<g id="a_Node000014"><a xlink:href="action__base_8h.html" target="_top" xlink:title=" ">
<polygon fill="white" stroke="#666666" points="884.5,-195 758.5,-195 758.5,-165 884.5,-165 884.5,-195"/>
<text text-anchor="start" x="766.5" y="-183" font-family="Helvetica,sans-Serif" font-size="10.00">include/monte_carlo</text>
<text text-anchor="middle" x="821.5" y="-172" font-family="Helvetica,sans-Serif" font-size="10.00">/models/action_base.h</text>
</a>
</g>
</g>
<!-- Node10&#45;&gt;Node14 -->
<g id="edge22_Node000010_Node000014" class="edge">
<title>Node10&#45;&gt;Node14</title>
<g id="a_edge22_Node000010_Node000014"><a xlink:title=" ">
<path fill="none" stroke="#63b8ff" d="M808.13,-237.65C811.39,-223.81 815.39,-206.87 818.16,-195.13"/>
<polygon fill="#63b8ff" stroke="#63b8ff" points="804.7,-236.94 805.81,-247.48 811.51,-238.55 804.7,-236.94"/>
</a>
</g>
</g>
<!-- Node11&#45;&gt;Node3 -->
<g id="edge14_Node000011_Node000003" class="edge">
<title>Node11&#45;&gt;Node3</title>
<g id="a_edge14_Node000011_Node000003"><a xlink:title=" ">
<path fill="none" stroke="#63b8ff" d="M428.5,-143.81C428.5,-132.95 428.5,-121.59 428.5,-112.96"/>
<polygon fill="#63b8ff" stroke="#63b8ff" points="425,-143.97 428.5,-153.97 432,-143.97 425,-143.97"/>
</a>
</g>
</g>
<!-- Node11&#45;&gt;Node4 -->
<g id="edge15_Node000011_Node000004" class="edge">
<title>Node11&#45;&gt;Node4</title>
<g id="a_edge15_Node000011_Node000004"><a xlink:title=" ">
<path fill="none" stroke="#63b8ff" d="M372.38,-149.28C352.77,-138.89 331.26,-127.5 313.6,-118.15"/>
<polygon fill="#63b8ff" stroke="#63b8ff" points="370.76,-152.38 381.24,-153.97 374.04,-146.2 370.76,-152.38"/>
</a>
</g>
</g>
<!-- Node11&#45;&gt;Node6 -->
<g id="edge16_Node000011_Node000006" class="edge">
<title>Node11&#45;&gt;Node6</title>
<g id="a_edge16_Node000011_Node000006"><a xlink:title=" ">
<path fill="none" stroke="#63b8ff" d="M485.35,-149.28C505.22,-138.89 527.02,-127.5 544.92,-118.15"/>
<polygon fill="#63b8ff" stroke="#63b8ff" points="483.62,-146.24 476.38,-153.97 486.87,-152.44 483.62,-146.24"/>
</a>
</g>
</g>
<!-- Node11&#45;&gt;Node7 -->
<g id="edge17_Node000011_Node000007" class="edge">
<title>Node11&#45;&gt;Node7</title>
<g id="a_edge17_Node000011_Node000007"><a xlink:title=" ">
<path fill="none" stroke="#63b8ff" d="M354.81,-154.08C354.7,-154.05 354.6,-154.03 354.5,-154 273.53,-132.55 251.59,-134.68 169.5,-118 164.86,-117.06 160.09,-116.08 155.28,-115.08"/>
<polygon fill="#63b8ff" stroke="#63b8ff" points="353.91,-157.47 364.48,-156.79 355.8,-150.72 353.91,-157.47"/>
</a>
</g>
</g>
<!-- Node11&#45;&gt;Node8 -->
<g id="edge13_Node000011_Node000008" class="edge">
<title>Node11&#45;&gt;Node8</title>
<g id="a_edge13_Node000011_Node000008"><a xlink:title=" ">
<path fill="none" stroke="#63b8ff" d="M354.81,-154.09C354.7,-154.06 354.6,-154.03 354.5,-154 287.76,-134.87 245.56,-172.45 202.5,-118 191.2,-103.71 189.94,-90.21 202.5,-77 257.31,-19.36 838.82,-52.7 917.5,-41 920.68,-40.53 923.91,-39.98 927.17,-39.38"/>
<polygon fill="#63b8ff" stroke="#63b8ff" points="353.86,-157.46 364.44,-156.95 355.85,-150.75 353.86,-157.46"/>
</a>
</g>
</g>
<!-- Node12&#45;&gt;Node5 -->
<g id="edge21_Node000012_Node000005" class="edge">
<title>Node12&#45;&gt;Node5</title>
<g id="a_edge21_Node000012_Node000005"><a xlink:title=" ">
<path fill="none" stroke="#63b8ff" d="M914.71,-156.25C876.71,-144.2 830.51,-129.56 794.15,-118.04"/>
<polygon fill="#63b8ff" stroke="#63b8ff" points="914.1,-159.73 924.69,-159.41 916.21,-153.05 914.1,-159.73"/>
</a>
</g>
</g>
<!-- Node12&#45;&gt;Node8 -->
<g id="edge19_Node000012_Node000008" class="edge">
<title>Node12&#45;&gt;Node8</title>
<g id="a_edge19_Node000012_Node000008"><a xlink:title=" ">
<path fill="none" stroke="#63b8ff" d="M988.22,-148.97C990.02,-117.37 992.81,-68.51 994.36,-41.38"/>
<polygon fill="#63b8ff" stroke="#63b8ff" points="984.7,-149.19 987.62,-159.37 991.69,-149.59 984.7,-149.19"/>
</a>
</g>
</g>
<!-- Node13 -->
<g id="Node000013" class="node">
<title>Node13</title>
<g id="a_Node000013"><a xlink:href="position_8cpp.html" target="_top" xlink:title=" ">
<polygon fill="white" stroke="#666666" points="1153,-118 1024,-118 1024,-77 1153,-77 1153,-118"/>
<text text-anchor="start" x="1032" y="-106" font-family="Helvetica,sans-Serif" font-size="10.00">examples/monte_carlo</text>
<text text-anchor="start" x="1032" y="-95" font-family="Helvetica,sans-Serif" font-size="10.00">/tic_tac_toe/src/models</text>
<text text-anchor="middle" x="1088.5" y="-84" font-family="Helvetica,sans-Serif" font-size="10.00">/position.cpp</text>
</a>
</g>
</g>
<!-- Node12&#45;&gt;Node13 -->
<g id="edge20_Node000012_Node000013" class="edge">
<title>Node12&#45;&gt;Node13</title>
<g id="a_edge20_Node000012_Node000013"><a xlink:title=" ">
<path fill="none" stroke="#63b8ff" d="M1019.56,-152.91C1033.82,-141.65 1050.22,-128.71 1063.45,-118.27"/>
<polygon fill="#63b8ff" stroke="#63b8ff" points="1017.13,-150.36 1011.45,-159.31 1021.47,-155.86 1017.13,-150.36"/>
</a>
</g>
</g>
<!-- Node15 -->
<g id="Node000015" class="node">
<title>Node15</title>
<g id="a_Node000015"><a xlink:href="move_8h.html" target="_top" xlink:title=" ">
<polygon fill="white" stroke="#666666" points="967.5,-118 815.5,-118 815.5,-77 967.5,-77 967.5,-118"/>
<text text-anchor="start" x="823.5" y="-106" font-family="Helvetica,sans-Serif" font-size="10.00">examples/monte_carlo</text>
<text text-anchor="start" x="823.5" y="-95" font-family="Helvetica,sans-Serif" font-size="10.00">/tic_tac_toe/include</text>
<text text-anchor="middle" x="891.5" y="-84" font-family="Helvetica,sans-Serif" font-size="10.00">/tic_tac_toe/models/move.h</text>
</a>
</g>
</g>
<!-- Node14&#45;&gt;Node15 -->
<g id="edge23_Node000014_Node000015" class="edge">
<title>Node14&#45;&gt;Node15</title>
<g id="a_edge23_Node000014_Node000015"><a xlink:title=" ">
<path fill="none" stroke="#63b8ff" d="M840.26,-157.43C850.9,-145.19 864.12,-129.99 874.47,-118.09"/>
<polygon fill="#63b8ff" stroke="#63b8ff" points="837.61,-155.14 833.69,-164.98 842.9,-159.73 837.61,-155.14"/>
</a>
</g>
</g>
<!-- Node15&#45;&gt;Node8 -->
<g id="edge24_Node000015_Node000008" class="edge">
<title>Node15&#45;&gt;Node8</title>
<g id="a_edge24_Node000015_Node000008"><a xlink:title=" ">
<path fill="none" stroke="#63b8ff" d="M926.73,-71.09C940.28,-61.32 955.53,-50.32 968.22,-41.17"/>
<polygon fill="#63b8ff" stroke="#63b8ff" points="924.62,-68.3 918.55,-76.99 928.71,-73.98 924.62,-68.3"/>
</a>
</g>
</g>
<!-- Node16 -->
<g id="Node000016" class="node">
<title>Node16</title>
<g id="a_Node000016"><a xlink:href="move_8cpp.html" target="_top" xlink:title=" ">
<polygon fill="white" stroke="#666666" points="909,-41 780,-41 780,0 909,0 909,-41"/>
<text text-anchor="start" x="788" y="-29" font-family="Helvetica,sans-Serif" font-size="10.00">examples/monte_carlo</text>
<text text-anchor="start" x="788" y="-18" font-family="Helvetica,sans-Serif" font-size="10.00">/tic_tac_toe/src/models</text>
<text text-anchor="middle" x="844.5" y="-7" font-family="Helvetica,sans-Serif" font-size="10.00">/move.cpp</text>
</a>
</g>
</g>
<!-- Node15&#45;&gt;Node16 -->
<g id="edge25_Node000015_Node000016" class="edge">
<title>Node15&#45;&gt;Node16</title>
<g id="a_edge25_Node000015_Node000016"><a xlink:title=" ">
<path fill="none" stroke="#63b8ff" d="M873.71,-68.11C868.06,-59.09 861.94,-49.33 856.77,-41.07"/>
<polygon fill="#63b8ff" stroke="#63b8ff" points="870.88,-70.18 879.15,-76.79 876.81,-66.46 870.88,-70.18"/>
</a>
</g>
</g>
<!-- Node17&#45;&gt;Node4 -->
<g id="edge27_Node000017_Node000004" class="edge">
<title>Node17&#45;&gt;Node4</title>
<g id="a_edge27_Node000017_Node000004"><a xlink:title=" ">
<path fill="none" stroke="#63b8ff" d="M227.88,-239.45C220.61,-229.87 213.24,-218.08 209.5,-206 202.67,-183.92 199.67,-174.91 209.5,-154 216.38,-139.37 229.21,-127.28 241.82,-118.15"/>
<polygon fill="#63b8ff" stroke="#63b8ff" points="225.15,-241.65 234.14,-247.26 230.61,-237.27 225.15,-241.65"/>
</a>
</g>
</g>
<!-- Node17&#45;&gt;Node7 -->
<g id="edge28_Node000017_Node000007" class="edge">
<title>Node17&#45;&gt;Node7</title>
<g id="a_edge28_Node000017_Node000007"><a xlink:title=" ">
<path fill="none" stroke="#63b8ff" d="M225.33,-240.25C192.22,-208.49 130.29,-149.11 98.11,-118.26"/>
<polygon fill="#63b8ff" stroke="#63b8ff" points="223.07,-242.93 232.71,-247.32 227.92,-237.87 223.07,-242.93"/>
</a>
</g>
</g>
<!-- Node17&#45;&gt;Node18 -->
<g id="edge29_Node000017_Node000018" class="edge">
<title>Node17&#45;&gt;Node18</title>
<g id="a_edge29_Node000017_Node000018"><a xlink:title=" ">
<path fill="none" stroke="#63b8ff" d="M257.69,-238.05C263.74,-224.15 271.2,-206.98 276.36,-195.13"/>
<polygon fill="#63b8ff" stroke="#63b8ff" points="254.37,-236.91 253.6,-247.48 260.79,-239.7 254.37,-236.91"/>
</a>
</g>
</g>
</g>
</svg>

<g id="navigator" transform="translate(0 0)" fill="#404254">
  <rect fill="#f2f5e9" fill-opacity="0.5" stroke="#606060" stroke-width=".5" x="0" y="0" width="60" height="60"/>
  <use id="zoomplus" xlink:href="#zoomPlus" x="17" y="9" onmousedown="handleZoom(evt,'in')"/>
  <use id="zoomminus" xlink:href="#zoomMin" x="42" y="9" onmousedown="handleZoom(evt,'out')"/>
  <use id="reset" xlink:href="#resetDef" x="30" y="36" onmousedown="handleReset()"/>
   <use id="arrowup" xlink:href="#arrowUp" x="0" y="0" onmousedown="handlePan(0,-1)"/>
  <use id="arrowright" xlink:href="#arrowRight" x="0" y="0" onmousedown="handlePan(1,0)"/>
  <use id="arrowdown" xlink:href="#arrowDown" x="0" y="0" onmousedown="handlePan(0,1)"/>
  <use id="arrowleft" xlink:href="#arrowLeft" x="0" y="0" onmousedown="handlePan(-1,0)"/>
</g>
<svg viewBox="0 0 15 15" width="100%" height="30px" preserveAspectRatio="xMaxYMin meet">
 <g id="arrow_out" transform="scale(0.3 0.3)">
  <a xlink:href="node_8h__dep__incl_org.svg" target="_base">
   <rect id="button" ry="5" rx="5" y="6" x="6" height="38" width="38"
        fill="#f2f5e9" fill-opacity="0.5" stroke="#606060" stroke-width="1.0"/>
   <path id="arrow"
     d="M 11.500037,31.436501 C 11.940474,20.09759 22.043105,11.32322 32.158766,21.979434 L 37.068811,17.246167 C 37.068811,17.246167 37.088388,32 37.088388,32 L 22.160133,31.978069 C 22.160133,31.978069 26.997745,27.140456 26.997745,27.140456 C 18.528582,18.264221 13.291696,25.230495 11.500037,31.436501 z"
     style="fill:#404040;"/>
  </a>
 </g>
</svg>

<style type='text/css'>
<![CDATA[
[data-mouse-over-selected='false'] { opacity: 0.7; }
[data-mouse-over-selected='true']  { opacity: 1.0; }
]]>
</style>
<script type="application/ecmascript"><![CDATA[
document.addEventListener('DOMContentLoaded', (event) => {
  highlightEdges();
  highlightAdjacentNodes();
});
]]></script>
</svg>
