<?xml version="1.0" encoding="UTF-8" standalone="no"?>
<!DOCTYPE svg PUBLIC "-//W3C//DTD SVG 1.1//EN"
 "http://www.w3.org/Graphics/SVG/1.1/DTD/svg11.dtd">
<!-- Generated by graphviz version 2.43.0 (0)
 -->
<!-- Title: include/monte_carlo/models/node_base.h Pages: 1 -->
<svg width="1147pt" height="280pt"
 viewBox="0.00 0.00 1147.29 280.00" xmlns="http://www.w3.org/2000/svg" xmlns:xlink="http://www.w3.org/1999/xlink">
<g id="graph0" class="graph" transform="scale(1 1) rotate(0) translate(4 276)">
<title>include/monte_carlo/models/node_base.h</title>
<!-- Node1 -->
<g id="Node000001" class="node">
<title>Node1</title>
<g id="a_Node000001"><a xlink:title=" ">
<polygon fill="#999999" stroke="#666666" points="817.29,-272 697.29,-272 697.29,-242 817.29,-242 817.29,-272"/>
<text text-anchor="start" x="705.29" y="-260" font-family="Helvetica,sans-Serif" font-size="10.00">include/monte_carlo</text>
<text text-anchor="middle" x="757.29" y="-249" font-family="Helvetica,sans-Serif" font-size="10.00">/models/node_base.h</text>
</a>
</g>
</g>
<!-- Node2 -->
<g id="Node000002" class="node">
<title>Node2</title>
<g id="a_Node000002"><a xlink:href="tic__tac__toe__factory_8h.html" target="_top" xlink:title=" ">
<polygon fill="white" stroke="#666666" points="384.29,-206 256.29,-206 256.29,-154 384.29,-154 384.29,-206"/>
<text text-anchor="start" x="264.29" y="-194" font-family="Helvetica,sans-Serif" font-size="10.00">examples/monte_carlo</text>
<text text-anchor="start" x="264.29" y="-183" font-family="Helvetica,sans-Serif" font-size="10.00">/tic_tac_toe/include</text>
<text text-anchor="start" x="264.29" y="-172" font-family="Helvetica,sans-Serif" font-size="10.00">/tic_tac_toe/factories</text>
<text text-anchor="middle" x="320.29" y="-161" font-family="Helvetica,sans-Serif" font-size="10.00">/tic_tac_toe_factory.h</text>
</a>
</g>
</g>
<!-- Node1&#45;&gt;Node2 -->
<g id="edge1_Node000001_Node000002" class="edge">
<title>Node1&#45;&gt;Node2</title>
<g id="a_edge1_Node000001_Node000002"><a xlink:title=" ">
<path fill="none" stroke="#63b8ff" d="M687.08,-243.95C603.59,-229.62 465.39,-205.9 384.59,-192.04"/>
<polygon fill="#63b8ff" stroke="#63b8ff" points="686.54,-247.41 696.99,-245.65 687.72,-240.51 686.54,-247.41"/>
</a>
</g>
</g>
<!-- Node8 -->
<g id="Node000008" class="node">
<title>Node8</title>
<g id="a_Node000008"><a xlink:href="state_8h.html" target="_top" xlink:title=" ">
<polygon fill="white" stroke="#666666" points="831.79,-200.5 682.79,-200.5 682.79,-159.5 831.79,-159.5 831.79,-200.5"/>
<text text-anchor="start" x="690.79" y="-188.5" font-family="Helvetica,sans-Serif" font-size="10.00">examples/monte_carlo</text>
<text text-anchor="start" x="690.79" y="-177.5" font-family="Helvetica,sans-Serif" font-size="10.00">/tic_tac_toe/include</text>
<text text-anchor="middle" x="757.29" y="-166.5" font-family="Helvetica,sans-Serif" font-size="10.00">/tic_tac_toe/models/state.h</text>
</a>
</g>
</g>
<!-- Node1&#45;&gt;Node8 -->
<g id="edge7_Node000001_Node000008" class="edge">
<title>Node1&#45;&gt;Node8</title>
<g id="a_edge7_Node000001_Node000008"><a xlink:title=" ">
<path fill="none" stroke="#63b8ff" d="M757.29,-231.73C757.29,-221.7 757.29,-210.21 757.29,-200.7"/>
<polygon fill="#63b8ff" stroke="#63b8ff" points="753.79,-231.89 757.29,-241.89 760.79,-231.89 753.79,-231.89"/>
</a>
</g>
</g>
<!-- Node11 -->
<g id="Node000011" class="node">
<title>Node11</title>
<g id="a_Node000011"><a xlink:href="action__base_8h.html" target="_top" xlink:title=" ">
<polygon fill="white" stroke="#666666" points="1051.29,-195 925.29,-195 925.29,-165 1051.29,-165 1051.29,-195"/>
<text text-anchor="start" x="933.29" y="-183" font-family="Helvetica,sans-Serif" font-size="10.00">include/monte_carlo</text>
<text text-anchor="middle" x="988.29" y="-172" font-family="Helvetica,sans-Serif" font-size="10.00">/models/action_base.h</text>
</a>
</g>
</g>
<!-- Node1&#45;&gt;Node11 -->
<g id="edge11_Node000001_Node000011" class="edge">
<title>Node1&#45;&gt;Node11</title>
<g id="a_edge11_Node000001_Node000011"><a xlink:title=" ">
<path fill="none" stroke="#63b8ff" d="M809.98,-238.89C850.8,-225.64 906.67,-207.5 944.93,-195.08"/>
<polygon fill="#63b8ff" stroke="#63b8ff" points="808.9,-235.56 800.47,-241.98 811.06,-242.22 808.9,-235.56"/>
</a>
</g>
</g>
<!-- Node3 -->
<g id="Node000003" class="node">
<title>Node3</title>
<g id="a_Node000003"><a xlink:href="tic__tac__toe__factory_8cpp.html" target="_top" xlink:title=" ">
<polygon fill="white" stroke="#666666" points="732.29,-41 596.29,-41 596.29,0 732.29,0 732.29,-41"/>
<text text-anchor="start" x="604.29" y="-29" font-family="Helvetica,sans-Serif" font-size="10.00">examples/monte_carlo</text>
<text text-anchor="start" x="604.29" y="-18" font-family="Helvetica,sans-Serif" font-size="10.00">/tic_tac_toe/src/factories</text>
<text text-anchor="middle" x="664.29" y="-7" font-family="Helvetica,sans-Serif" font-size="10.00">/tic_tac_toe_factory.cpp</text>
</a>
</g>
</g>
<!-- Node2&#45;&gt;Node3 -->
<g id="edge2_Node000002_Node000003" class="edge">
<title>Node2&#45;&gt;Node3</title>
<g id="a_edge2_Node000002_Node000003"><a xlink:title=" ">
<path fill="none" stroke="#63b8ff" d="M245.88,-177.33C134.77,-172.37 -54.38,-152.88 15.29,-77 54.01,-34.83 437.56,-24.65 596.18,-22.23"/>
<polygon fill="#63b8ff" stroke="#63b8ff" points="245.91,-180.84 256.05,-177.76 246.2,-173.84 245.91,-180.84"/>
</a>
</g>
</g>
<!-- Node4 -->
<g id="Node000004" class="node">
<title>Node4</title>
<g id="a_Node000004"><a xlink:href="main_8cpp.html" target="_top" xlink:title=" ">
<polygon fill="white" stroke="#666666" points="162.29,-112.5 24.29,-112.5 24.29,-82.5 162.29,-82.5 162.29,-112.5"/>
<text text-anchor="start" x="32.29" y="-100.5" font-family="Helvetica,sans-Serif" font-size="10.00">examples/monte_carlo</text>
<text text-anchor="middle" x="93.29" y="-89.5" font-family="Helvetica,sans-Serif" font-size="10.00">/tic_tac_toe/src/main.cpp</text>
</a>
</g>
</g>
<!-- Node2&#45;&gt;Node4 -->
<g id="edge3_Node000002_Node000004" class="edge">
<title>Node2&#45;&gt;Node4</title>
<g id="a_edge3_Node000002_Node000004"><a xlink:title=" ">
<path fill="none" stroke="#63b8ff" d="M246.7,-152.9C208.91,-139.5 164.35,-123.7 133.03,-112.59"/>
<polygon fill="#63b8ff" stroke="#63b8ff" points="245.56,-156.21 256.15,-156.25 247.9,-149.61 245.56,-156.21"/>
</a>
</g>
</g>
<!-- Node5 -->
<g id="Node000005" class="node">
<title>Node5</title>
<g id="a_Node000005"><a xlink:href="bot_8cpp.html" target="_top" xlink:title=" ">
<polygon fill="white" stroke="#666666" points="309.79,-118 180.79,-118 180.79,-77 309.79,-77 309.79,-118"/>
<text text-anchor="start" x="188.79" y="-106" font-family="Helvetica,sans-Serif" font-size="10.00">examples/monte_carlo</text>
<text text-anchor="start" x="188.79" y="-95" font-family="Helvetica,sans-Serif" font-size="10.00">/tic_tac_toe/src/models</text>
<text text-anchor="middle" x="245.29" y="-84" font-family="Helvetica,sans-Serif" font-size="10.00">/bot.cpp</text>
</a>
</g>
</g>
<!-- Node2&#45;&gt;Node5 -->
<g id="edge4_Node000002_Node000005" class="edge">
<title>Node2&#45;&gt;Node5</title>
<g id="a_edge4_Node000002_Node000005"><a xlink:title=" ">
<path fill="none" stroke="#63b8ff" d="M289.96,-146.45C281.03,-136.86 271.53,-126.66 263.59,-118.15"/>
<polygon fill="#63b8ff" stroke="#63b8ff" points="287.59,-149.04 296.97,-153.97 292.71,-144.27 287.59,-149.04"/>
</a>
</g>
</g>
<!-- Node6 -->
<g id="Node000006" class="node">
<title>Node6</title>
<g id="a_Node000006"><a xlink:href="state__tests_8cpp.html" target="_top" xlink:title=" ">
<polygon fill="white" stroke="#666666" points="462.29,-118 328.29,-118 328.29,-77 462.29,-77 462.29,-118"/>
<text text-anchor="start" x="336.29" y="-106" font-family="Helvetica,sans-Serif" font-size="10.00">examples/monte_carlo</text>
<text text-anchor="start" x="336.29" y="-95" font-family="Helvetica,sans-Serif" font-size="10.00">/tic_tac_toe/tests/model</text>
<text text-anchor="middle" x="395.29" y="-84" font-family="Helvetica,sans-Serif" font-size="10.00">_tests/state_tests.cpp</text>
</a>
</g>
</g>
<!-- Node2&#45;&gt;Node6 -->
<g id="edge5_Node000002_Node000006" class="edge">
<title>Node2&#45;&gt;Node6</title>
<g id="a_edge5_Node000002_Node000006"><a xlink:title=" ">
<path fill="none" stroke="#63b8ff" d="M350.61,-146.45C359.55,-136.86 369.05,-126.66 376.99,-118.15"/>
<polygon fill="#63b8ff" stroke="#63b8ff" points="347.86,-144.27 343.61,-153.97 352.99,-149.04 347.86,-144.27"/>
</a>
</g>
</g>
<!-- Node7 -->
<g id="Node000007" class="node">
<title>Node7</title>
<g id="a_Node000007"><a xlink:href="simulation__tests_8cpp.html" target="_top" xlink:title=" ">
<polygon fill="white" stroke="#666666" points="635.79,-118 480.79,-118 480.79,-77 635.79,-77 635.79,-118"/>
<text text-anchor="start" x="488.79" y="-106" font-family="Helvetica,sans-Serif" font-size="10.00">examples/monte_carlo</text>
<text text-anchor="start" x="488.79" y="-95" font-family="Helvetica,sans-Serif" font-size="10.00">/tic_tac_toe/tests/simulation</text>
<text text-anchor="middle" x="558.29" y="-84" font-family="Helvetica,sans-Serif" font-size="10.00">_tests.cpp</text>
</a>
</g>
</g>
<!-- Node2&#45;&gt;Node7 -->
<g id="edge6_Node000002_Node000007" class="edge">
<title>Node2&#45;&gt;Node7</title>
<g id="a_edge6_Node000002_Node000007"><a xlink:title=" ">
<path fill="none" stroke="#63b8ff" d="M393.9,-154.1C428.24,-142.49 468.51,-128.87 500.59,-118.01"/>
<polygon fill="#63b8ff" stroke="#63b8ff" points="392.73,-150.8 384.38,-157.32 394.98,-157.43 392.73,-150.8"/>
</a>
</g>
</g>
<!-- Node8&#45;&gt;Node3 -->
<g id="edge8_Node000008_Node000003" class="edge">
<title>Node8&#45;&gt;Node3</title>
<g id="a_edge8_Node000008_Node000003"><a xlink:title=" ">
<path fill="none" stroke="#63b8ff" d="M716.29,-153.38C703.93,-143.73 691.48,-131.72 683.29,-118 669.12,-94.24 665.27,-61.91 664.36,-41.37"/>
<polygon fill="#63b8ff" stroke="#63b8ff" points="714.24,-156.22 724.36,-159.37 718.42,-150.6 714.24,-156.22"/>
</a>
</g>
</g>
<!-- Node9 -->
<g id="Node000009" class="node">
<title>Node9</title>
<g id="a_Node000009"><a xlink:href="position_8cpp.html" target="_top" xlink:title=" ">
<polygon fill="white" stroke="#666666" points="821.79,-118 692.79,-118 692.79,-77 821.79,-77 821.79,-118"/>
<text text-anchor="start" x="700.79" y="-106" font-family="Helvetica,sans-Serif" font-size="10.00">examples/monte_carlo</text>
<text text-anchor="start" x="700.79" y="-95" font-family="Helvetica,sans-Serif" font-size="10.00">/tic_tac_toe/src/models</text>
<text text-anchor="middle" x="757.29" y="-84" font-family="Helvetica,sans-Serif" font-size="10.00">/position.cpp</text>
</a>
</g>
</g>
<!-- Node8&#45;&gt;Node9 -->
<g id="edge9_Node000008_Node000009" class="edge">
<title>Node8&#45;&gt;Node9</title>
<g id="a_edge9_Node000008_Node000009"><a xlink:title=" ">
<path fill="none" stroke="#63b8ff" d="M757.29,-148.87C757.29,-138.6 757.29,-127.4 757.29,-118.17"/>
<polygon fill="#63b8ff" stroke="#63b8ff" points="753.79,-149.1 757.29,-159.1 760.79,-149.1 753.79,-149.1"/>
</a>
</g>
</g>
<!-- Node10 -->
<g id="Node000010" class="node">
<title>Node10</title>
<g id="a_Node000010"><a xlink:href="state_8cpp.html" target="_top" xlink:title=" ">
<polygon fill="white" stroke="#666666" points="968.79,-118 839.79,-118 839.79,-77 968.79,-77 968.79,-118"/>
<text text-anchor="start" x="847.79" y="-106" font-family="Helvetica,sans-Serif" font-size="10.00">examples/monte_carlo</text>
<text text-anchor="start" x="847.79" y="-95" font-family="Helvetica,sans-Serif" font-size="10.00">/tic_tac_toe/src/models</text>
<text text-anchor="middle" x="904.29" y="-84" font-family="Helvetica,sans-Serif" font-size="10.00">/state.cpp</text>
</a>
</g>
</g>
<!-- Node8&#45;&gt;Node10 -->
<g id="edge10_Node000008_Node000010" class="edge">
<title>Node8&#45;&gt;Node10</title>
<g id="a_edge10_Node000008_Node000010"><a xlink:title=" ">
<path fill="none" stroke="#63b8ff" d="M802.11,-154.46C823.38,-142.81 848.46,-129.07 868.45,-118.13"/>
<polygon fill="#63b8ff" stroke="#63b8ff" points="800.34,-151.43 793.25,-159.31 803.7,-157.57 800.34,-151.43"/>
</a>
</g>
</g>
<!-- Node12 -->
<g id="Node000012" class="node">
<title>Node12</title>
<g id="a_Node000012"><a xlink:href="move_8h.html" target="_top" xlink:title=" ">
<polygon fill="white" stroke="#666666" points="1139.29,-118 987.29,-118 987.29,-77 1139.29,-77 1139.29,-118"/>
<text text-anchor="start" x="995.29" y="-106" font-family="Helvetica,sans-Serif" font-size="10.00">examples/monte_carlo</text>
<text text-anchor="start" x="995.29" y="-95" font-family="Helvetica,sans-Serif" font-size="10.00">/tic_tac_toe/include</text>
<text text-anchor="middle" x="1063.29" y="-84" font-family="Helvetica,sans-Serif" font-size="10.00">/tic_tac_toe/models/move.h</text>
</a>
</g>
</g>
<!-- Node11&#45;&gt;Node12 -->
<g id="edge12_Node000011_Node000012" class="edge">
<title>Node11&#45;&gt;Node12</title>
<g id="a_edge12_Node000011_Node000012"><a xlink:title=" ">
<path fill="none" stroke="#63b8ff" d="M1008.39,-157.43C1019.79,-145.19 1033.95,-129.99 1045.04,-118.09"/>
<polygon fill="#63b8ff" stroke="#63b8ff" points="1005.61,-155.28 1001.35,-164.98 1010.73,-160.05 1005.61,-155.28"/>
</a>
</g>
</g>
<!-- Node12&#45;&gt;Node3 -->
<g id="edge13_Node000012_Node000003" class="edge">
<title>Node12&#45;&gt;Node3</title>
<g id="a_edge13_Node000012_Node000003"><a xlink:title=" ">
<path fill="none" stroke="#63b8ff" d="M977.05,-76.79C887.1,-58.71 793.96,-42.71 732.47,-32.53"/>
<polygon fill="#63b8ff" stroke="#63b8ff" points="976.38,-80.23 986.87,-78.78 977.77,-73.37 976.38,-80.23"/>
</a>
</g>
</g>
<!-- Node13 -->
<g id="Node000013" class="node">
<title>Node13</title>
<g id="a_Node000013"><a xlink:href="move_8cpp.html" target="_top" xlink:title=" ">
<polygon fill="white" stroke="#666666" points="1127.79,-41 998.79,-41 998.79,0 1127.79,0 1127.79,-41"/>
<text text-anchor="start" x="1006.79" y="-29" font-family="Helvetica,sans-Serif" font-size="10.00">examples/monte_carlo</text>
<text text-anchor="start" x="1006.79" y="-18" font-family="Helvetica,sans-Serif" font-size="10.00">/tic_tac_toe/src/models</text>
<text text-anchor="middle" x="1063.29" y="-7" font-family="Helvetica,sans-Serif" font-size="10.00">/move.cpp</text>
</a>
</g>
</g>
<!-- Node12&#45;&gt;Node13 -->
<g id="edge14_Node000012_Node000013" class="edge">
<title>Node12&#45;&gt;Node13</title>
<g id="a_edge14_Node000012_Node000013"><a xlink:title=" ">
<path fill="none" stroke="#63b8ff" d="M1063.29,-66.69C1063.29,-58.08 1063.29,-48.9 1063.29,-41.07"/>
<polygon fill="#63b8ff" stroke="#63b8ff" points="1059.79,-66.79 1063.29,-76.79 1066.79,-66.79 1059.79,-66.79"/>
</a>
</g>
</g>
</g>
</svg>
