<?xml version="1.0" encoding="UTF-8" standalone="no"?>
<!DOCTYPE svg PUBLIC "-//W3C//DTD SVG 1.1//EN"
 "http://www.w3.org/Graphics/SVG/1.1/DTD/svg11.dtd">
<!-- Generated by graphviz version 2.43.0 (0)
 -->
<!-- Title: examples/monte_carlo/tic_tac_toe/include/tic_tac_toe/observer/observer.h Pages: 1 -->
<!--zoomable 478 -->

<svg id="main" version="1.1" xmlns="http://www.w3.org/2000/svg" xmlns:xlink="http://www.w3.org/1999/xlink" xml:space="preserve" onload="init(evt)">
<style type="text/css"><![CDATA[
.node, .edge {opacity: 0.7;}
.node.selected, .edge.selected {opacity: 1;}
.edge:hover path { stroke: red; }
.edge:hover polygon { stroke: red; fill: red; }
]]></style>

<defs>
  <circle id="rim" cx="0" cy="0" r="7"/>
  <circle id="rim2" cx="0" cy="0" r="3.5"/>
  <g id="zoomPlus">
    <use xlink:href="#rim" fill="#404040"><set attributeName="fill" to="#808080" begin="zoomplus.mouseover" end="zoomplus.mouseout"/></use>
    <path d="M-4,0h8M0,-4v8" fill="none" stroke="white" stroke-width="1.5" pointer-events="none"/>
  </g>
  <g id="zoomMin">
    <use xlink:href="#rim" fill="#404040"><set attributeName="fill" to="#808080" begin="zoomminus.mouseover" end="zoomminus.mouseout"/></use>
    <path d="M-4,0h8" fill="none" stroke="white" stroke-width="1.5" pointer-events="none"/>
  </g>
  <g id="arrowUp" transform="translate(30 24)">
    <use xlink:href="#rim"/>
    <path pointer-events="none" fill="none" stroke="white" stroke-width="1.5" d="M0,-3.0v7 M-2.5,-0.5L0,-3.0L2.5,-0.5"/>
  </g>
  <g id="arrowRight" transform="rotate(90) translate(36 -43)">
    <use xlink:href="#rim"/>
    <path pointer-events="none" fill="none" stroke="white" stroke-width="1.5" d="M0,-3.0v7 M-2.5,-0.5L0,-3.0L2.5,-0.5"/>
  </g>
  <g id="arrowDown" transform="rotate(180) translate(-30 -48)">
    <use xlink:href="#rim"/>
    <path pointer-events="none" fill="none" stroke="white" stroke-width="1.5" d="M0,-3.0v7 M-2.5,-0.5L0,-3.0L2.5,-0.5"/>
  </g>
  <g id="arrowLeft" transform="rotate(270) translate(-36 17)">
    <use xlink:href="#rim"/>
    <path pointer-events="none" fill="none" stroke="white" stroke-width="1.5" d="M0,-3.0v7 M-2.5,-0.5L0,-3.0L2.5,-0.5"/>
  </g>
  <g id="resetDef">
    <use xlink:href="#rim2" fill="#404040"><set attributeName="fill" to="#808080" begin="reset.mouseover" end="reset.mouseout"/></use>
  </g>
</defs>
<script type="application/ecmascript">
var viewWidth = 1262;
var viewHeight = 478;
var sectionId = 'dynsection-1';
</script>
<script type="application/ecmascript" xlink:href="svg.min.js"/>
<svg id="graph" class="graph">
<g id="viewport">
<title>examples/monte_carlo/tic_tac_toe/include/tic_tac_toe/observer/observer.h</title>
<!-- Node1 -->
<g id="Node000001" class="node">
<title>Node1</title>
<g id="a_Node000001"><a xlink:title=" ">
<polygon fill="#999999" stroke="#666666" points="549.5,-470 421.5,-470 421.5,-418 549.5,-418 549.5,-470"/>
<text text-anchor="start" x="429.5" y="-458" font-family="Helvetica,sans-Serif" font-size="10.00">examples/monte_carlo</text>
<text text-anchor="start" x="429.5" y="-447" font-family="Helvetica,sans-Serif" font-size="10.00">/tic_tac_toe/include</text>
<text text-anchor="start" x="429.5" y="-436" font-family="Helvetica,sans-Serif" font-size="10.00">/tic_tac_toe/observer</text>
<text text-anchor="middle" x="485.5" y="-425" font-family="Helvetica,sans-Serif" font-size="10.00">/observer.h</text>
</a>
</g>
</g>
<!-- Node2 -->
<g id="Node000002" class="node">
<title>Node2</title>
<g id="a_Node000002"><a xlink:href="bot_8h.html" target="_top" xlink:title=" ">
<polygon fill="white" stroke="#666666" points="230.5,-123.5 90.5,-123.5 90.5,-82.5 230.5,-82.5 230.5,-123.5"/>
<text text-anchor="start" x="98.5" y="-111.5" font-family="Helvetica,sans-Serif" font-size="10.00">examples/monte_carlo</text>
<text text-anchor="start" x="98.5" y="-100.5" font-family="Helvetica,sans-Serif" font-size="10.00">/tic_tac_toe/include</text>
<text text-anchor="middle" x="160.5" y="-89.5" font-family="Helvetica,sans-Serif" font-size="10.00">/tic_tac_toe/models/bot.h</text>
</a>
</g>
</g>
<!-- Node1&#45;&gt;Node2 -->
<g id="edge1_Node000001_Node000002" class="edge">
<title>Node1&#45;&gt;Node2</title>
<g id="a_edge1_Node000001_Node000002"><a xlink:title=" ">
<path fill="none" stroke="#63b8ff" d="M411.04,-441.87C310.65,-435.85 135.09,-408.45 53.5,-294 11.75,-235.43 90.91,-159.14 134.51,-123.7"/>
<polygon fill="#63b8ff" stroke="#63b8ff" points="410.94,-445.37 421.11,-442.42 411.32,-438.38 410.94,-445.37"/>
</a>
</g>
</g>
<!-- Node8 -->
<g id="Node000008" class="node">
<title>Node8</title>
<g id="a_Node000008"><a xlink:href="player_8h.html" target="_top" xlink:title=" ">
<polygon fill="white" stroke="#666666" points="645.5,-376.5 491.5,-376.5 491.5,-335.5 645.5,-335.5 645.5,-376.5"/>
<text text-anchor="start" x="499.5" y="-364.5" font-family="Helvetica,sans-Serif" font-size="10.00">examples/monte_carlo</text>
<text text-anchor="start" x="499.5" y="-353.5" font-family="Helvetica,sans-Serif" font-size="10.00">/tic_tac_toe/include</text>
<text text-anchor="middle" x="568.5" y="-342.5" font-family="Helvetica,sans-Serif" font-size="10.00">/tic_tac_toe/models/player.h</text>
</a>
</g>
</g>
<!-- Node1&#45;&gt;Node8 -->
<g id="edge7_Node000001_Node000008" class="edge">
<title>Node1&#45;&gt;Node8</title>
<g id="a_edge7_Node000001_Node000008"><a xlink:title=" ">
<path fill="none" stroke="#63b8ff" d="M516.97,-410.39C527.92,-399.05 539.86,-386.68 549.48,-376.7"/>
<polygon fill="#63b8ff" stroke="#63b8ff" points="514.38,-408.04 509.95,-417.66 519.42,-412.9 514.38,-408.04"/>
</a>
</g>
</g>
<!-- Node24 -->
<g id="Node000024" class="node">
<title>Node24</title>
<g id="a_Node000024"><a xlink:href="subject_8h.html" target="_top" xlink:title=" ">
<polygon fill="white" stroke="#666666" points="470.5,-382 342.5,-382 342.5,-330 470.5,-330 470.5,-382"/>
<text text-anchor="start" x="350.5" y="-370" font-family="Helvetica,sans-Serif" font-size="10.00">examples/monte_carlo</text>
<text text-anchor="start" x="350.5" y="-359" font-family="Helvetica,sans-Serif" font-size="10.00">/tic_tac_toe/include</text>
<text text-anchor="start" x="350.5" y="-348" font-family="Helvetica,sans-Serif" font-size="10.00">/tic_tac_toe/observer</text>
<text text-anchor="middle" x="406.5" y="-337" font-family="Helvetica,sans-Serif" font-size="10.00">/subject.h</text>
</a>
</g>
</g>
<!-- Node1&#45;&gt;Node24 -->
<g id="edge41_Node000001_Node000024" class="edge">
<title>Node1&#45;&gt;Node24</title>
<g id="a_edge41_Node000001_Node000024"><a xlink:title=" ">
<path fill="none" stroke="#63b8ff" d="M455.26,-410.08C446.75,-400.81 437.63,-390.89 429.61,-382.16"/>
<polygon fill="#63b8ff" stroke="#63b8ff" points="452.88,-412.67 462.22,-417.66 458.04,-407.93 452.88,-412.67"/>
</a>
</g>
</g>
<!-- Node26 -->
<g id="Node000026" class="node">
<title>Node26</title>
<g id="a_Node000026"><a xlink:href="observer_8cpp.html" target="_top" xlink:title=" ">
<polygon fill="white" stroke="#666666" points="799.5,-376.5 663.5,-376.5 663.5,-335.5 799.5,-335.5 799.5,-376.5"/>
<text text-anchor="start" x="671.5" y="-364.5" font-family="Helvetica,sans-Serif" font-size="10.00">examples/monte_carlo</text>
<text text-anchor="start" x="671.5" y="-353.5" font-family="Helvetica,sans-Serif" font-size="10.00">/tic_tac_toe/src/observer</text>
<text text-anchor="middle" x="731.5" y="-342.5" font-family="Helvetica,sans-Serif" font-size="10.00">/observer.cpp</text>
</a>
</g>
</g>
<!-- Node1&#45;&gt;Node26 -->
<g id="edge44_Node000001_Node000026" class="edge">
<title>Node1&#45;&gt;Node26</title>
<g id="a_edge44_Node000001_Node000026"><a xlink:title=" ">
<path fill="none" stroke="#63b8ff" d="M559.61,-417.09C596.83,-404.08 641.18,-388.58 675.51,-376.57"/>
<polygon fill="#63b8ff" stroke="#63b8ff" points="558.1,-413.91 549.81,-420.52 560.41,-420.52 558.1,-413.91"/>
</a>
</g>
</g>
<!-- Node3 -->
<g id="Node000003" class="node">
<title>Node3</title>
<g id="a_Node000003"><a xlink:href="main_8cpp.html" target="_top" xlink:title=" ">
<polygon fill="white" stroke="#666666" points="610.5,-35.5 472.5,-35.5 472.5,-5.5 610.5,-5.5 610.5,-35.5"/>
<text text-anchor="start" x="480.5" y="-23.5" font-family="Helvetica,sans-Serif" font-size="10.00">examples/monte_carlo</text>
<text text-anchor="middle" x="541.5" y="-12.5" font-family="Helvetica,sans-Serif" font-size="10.00">/tic_tac_toe/src/main.cpp</text>
</a>
</g>
</g>
<!-- Node2&#45;&gt;Node3 -->
<g id="edge2_Node000002_Node000003" class="edge">
<title>Node2&#45;&gt;Node3</title>
<g id="a_edge2_Node000002_Node000003"><a xlink:title=" ">
<path fill="none" stroke="#63b8ff" d="M229.49,-79.77C233.2,-78.78 236.89,-77.85 240.5,-77 338.22,-53.97 365.16,-61.19 463.5,-41 471.43,-39.37 479.77,-37.48 487.93,-35.53"/>
<polygon fill="#63b8ff" stroke="#63b8ff" points="228.36,-76.45 219.65,-82.48 230.22,-83.19 228.36,-76.45"/>
</a>
</g>
</g>
<!-- Node4 -->
<g id="Node000004" class="node">
<title>Node4</title>
<g id="a_Node000004"><a xlink:href="bot_8cpp.html" target="_top" xlink:title=" ">
<polygon fill="white" stroke="#666666" points="129,-41 0,-41 0,0 129,0 129,-41"/>
<text text-anchor="start" x="8" y="-29" font-family="Helvetica,sans-Serif" font-size="10.00">examples/monte_carlo</text>
<text text-anchor="start" x="8" y="-18" font-family="Helvetica,sans-Serif" font-size="10.00">/tic_tac_toe/src/models</text>
<text text-anchor="middle" x="64.5" y="-7" font-family="Helvetica,sans-Serif" font-size="10.00">/bot.cpp</text>
</a>
</g>
</g>
<!-- Node2&#45;&gt;Node4 -->
<g id="edge3_Node000002_Node000004" class="edge">
<title>Node2&#45;&gt;Node4</title>
<g id="a_edge3_Node000002_Node000004"><a xlink:title=" ">
<path fill="none" stroke="#63b8ff" d="M128.77,-75.39C115.45,-64.22 100.24,-51.47 87.96,-41.17"/>
<polygon fill="#63b8ff" stroke="#63b8ff" points="126.86,-78.36 136.77,-82.1 131.36,-72.99 126.86,-78.36"/>
</a>
</g>
</g>
<!-- Node5 -->
<g id="Node000005" class="node">
<title>Node5</title>
<g id="a_Node000005"><a xlink:href="state_8cpp.html" target="_top" xlink:title=" ">
<polygon fill="white" stroke="#666666" points="758,-41 629,-41 629,0 758,0 758,-41"/>
<text text-anchor="start" x="637" y="-29" font-family="Helvetica,sans-Serif" font-size="10.00">examples/monte_carlo</text>
<text text-anchor="start" x="637" y="-18" font-family="Helvetica,sans-Serif" font-size="10.00">/tic_tac_toe/src/models</text>
<text text-anchor="middle" x="693.5" y="-7" font-family="Helvetica,sans-Serif" font-size="10.00">/state.cpp</text>
</a>
</g>
</g>
<!-- Node2&#45;&gt;Node5 -->
<g id="edge4_Node000002_Node000005" class="edge">
<title>Node2&#45;&gt;Node5</title>
<g id="a_edge4_Node000002_Node000005"><a xlink:title=" ">
<path fill="none" stroke="#63b8ff" d="M228.03,-79.82C232.23,-78.78 236.41,-77.82 240.5,-77 406.37,-43.58 452.92,-70.66 619.5,-41 622.51,-40.46 625.57,-39.87 628.66,-39.23"/>
<polygon fill="#63b8ff" stroke="#63b8ff" points="227.02,-76.47 218.24,-82.4 228.81,-83.24 227.02,-76.47"/>
</a>
</g>
</g>
<!-- Node6 -->
<g id="Node000006" class="node">
<title>Node6</title>
<g id="a_Node000006"><a xlink:href="state__tests_8cpp.html" target="_top" xlink:title=" ">
<polygon fill="white" stroke="#666666" points="454.5,-41 320.5,-41 320.5,0 454.5,0 454.5,-41"/>
<text text-anchor="start" x="328.5" y="-29" font-family="Helvetica,sans-Serif" font-size="10.00">examples/monte_carlo</text>
<text text-anchor="start" x="328.5" y="-18" font-family="Helvetica,sans-Serif" font-size="10.00">/tic_tac_toe/tests/model</text>
<text text-anchor="middle" x="387.5" y="-7" font-family="Helvetica,sans-Serif" font-size="10.00">_tests/state_tests.cpp</text>
</a>
</g>
</g>
<!-- Node2&#45;&gt;Node6 -->
<g id="edge5_Node000002_Node000006" class="edge">
<title>Node2&#45;&gt;Node6</title>
<g id="a_edge5_Node000002_Node000006"><a xlink:title=" ">
<path fill="none" stroke="#63b8ff" d="M225.53,-78.94C259.32,-66.95 300.18,-52.47 332.41,-41.04"/>
<polygon fill="#63b8ff" stroke="#63b8ff" points="224,-75.77 215.74,-82.41 226.33,-82.37 224,-75.77"/>
</a>
</g>
</g>
<!-- Node7 -->
<g id="Node000007" class="node">
<title>Node7</title>
<g id="a_Node000007"><a xlink:href="simulation__tests_8cpp.html" target="_top" xlink:title=" ">
<polygon fill="white" stroke="#666666" points="302,-41 147,-41 147,0 302,0 302,-41"/>
<text text-anchor="start" x="155" y="-29" font-family="Helvetica,sans-Serif" font-size="10.00">examples/monte_carlo</text>
<text text-anchor="start" x="155" y="-18" font-family="Helvetica,sans-Serif" font-size="10.00">/tic_tac_toe/tests/simulation</text>
<text text-anchor="middle" x="224.5" y="-7" font-family="Helvetica,sans-Serif" font-size="10.00">_tests.cpp</text>
</a>
</g>
</g>
<!-- Node2&#45;&gt;Node7 -->
<g id="edge6_Node000002_Node000007" class="edge">
<title>Node2&#45;&gt;Node7</title>
<g id="a_edge6_Node000002_Node000007"><a xlink:title=" ">
<path fill="none" stroke="#63b8ff" d="M182.67,-74.12C191.3,-63.26 200.98,-51.08 208.86,-41.17"/>
<polygon fill="#63b8ff" stroke="#63b8ff" points="179.8,-72.1 176.32,-82.1 185.28,-76.45 179.8,-72.1"/>
</a>
</g>
</g>
<!-- Node8&#45;&gt;Node2 -->
<g id="edge38_Node000008_Node000002" class="edge">
<title>Node8&#45;&gt;Node2</title>
<g id="a_edge38_Node000008_Node000002"><a xlink:title=" ">
<path fill="none" stroke="#63b8ff" d="M502.15,-332.01C419.04,-302.37 282.44,-250.67 240.5,-217 208.07,-190.97 182.94,-148.51 170.05,-123.72"/>
<polygon fill="#63b8ff" stroke="#63b8ff" points="501.17,-335.37 511.76,-335.42 503.51,-328.77 501.17,-335.37"/>
</a>
</g>
</g>
<!-- Node9 -->
<g id="Node000009" class="node">
<title>Node9</title>
<g id="a_Node000009"><a xlink:href="board_8h.html" target="_top" xlink:title=" ">
<polygon fill="white" stroke="#666666" points="646.5,-294 494.5,-294 494.5,-253 646.5,-253 646.5,-294"/>
<text text-anchor="start" x="502.5" y="-282" font-family="Helvetica,sans-Serif" font-size="10.00">examples/monte_carlo</text>
<text text-anchor="start" x="502.5" y="-271" font-family="Helvetica,sans-Serif" font-size="10.00">/tic_tac_toe/include</text>
<text text-anchor="middle" x="570.5" y="-260" font-family="Helvetica,sans-Serif" font-size="10.00">/tic_tac_toe/models/board.h</text>
</a>
</g>
</g>
<!-- Node8&#45;&gt;Node9 -->
<g id="edge8_Node000008_Node000009" class="edge">
<title>Node8&#45;&gt;Node9</title>
<g id="a_edge8_Node000008_Node000009"><a xlink:title=" ">
<path fill="none" stroke="#63b8ff" d="M569.25,-324.87C569.5,-314.6 569.78,-303.4 570.01,-294.17"/>
<polygon fill="#63b8ff" stroke="#63b8ff" points="565.74,-325.02 568.99,-335.1 572.74,-325.19 565.74,-325.02"/>
</a>
</g>
</g>
<!-- Node20 -->
<g id="Node000020" class="node">
<title>Node20</title>
<g id="a_Node000020"><a xlink:href="human_8h.html" target="_top" xlink:title=" ">
<polygon fill="white" stroke="#666666" points="1005.5,-211.5 847.5,-211.5 847.5,-170.5 1005.5,-170.5 1005.5,-211.5"/>
<text text-anchor="start" x="855.5" y="-199.5" font-family="Helvetica,sans-Serif" font-size="10.00">examples/monte_carlo</text>
<text text-anchor="start" x="855.5" y="-188.5" font-family="Helvetica,sans-Serif" font-size="10.00">/tic_tac_toe/include</text>
<text text-anchor="middle" x="926.5" y="-177.5" font-family="Helvetica,sans-Serif" font-size="10.00">/tic_tac_toe/models/human.h</text>
</a>
</g>
</g>
<!-- Node8&#45;&gt;Node20 -->
<g id="edge39_Node000008_Node000020" class="edge">
<title>Node8&#45;&gt;Node20</title>
<g id="a_edge39_Node000008_Node000020"><a xlink:title=" ">
<path fill="none" stroke="#63b8ff" d="M620.92,-331.13C691.98,-298.78 817.58,-241.59 883.44,-211.6"/>
<polygon fill="#63b8ff" stroke="#63b8ff" points="619.33,-328.01 611.68,-335.34 622.23,-334.38 619.33,-328.01"/>
</a>
</g>
</g>
<!-- Node23 -->
<g id="Node000023" class="node">
<title>Node23</title>
<g id="a_Node000023"><a xlink:href="player_8cpp.html" target="_top" xlink:title=" ">
<polygon fill="white" stroke="#666666" points="1153,-211.5 1024,-211.5 1024,-170.5 1153,-170.5 1153,-211.5"/>
<text text-anchor="start" x="1032" y="-199.5" font-family="Helvetica,sans-Serif" font-size="10.00">examples/monte_carlo</text>
<text text-anchor="start" x="1032" y="-188.5" font-family="Helvetica,sans-Serif" font-size="10.00">/tic_tac_toe/src/models</text>
<text text-anchor="middle" x="1088.5" y="-177.5" font-family="Helvetica,sans-Serif" font-size="10.00">/player.cpp</text>
</a>
</g>
</g>
<!-- Node8&#45;&gt;Node23 -->
<g id="edge40_Node000008_Node000023" class="edge">
<title>Node8&#45;&gt;Node23</title>
<g id="a_edge40_Node000008_Node000023"><a xlink:title=" ">
<path fill="none" stroke="#63b8ff" d="M643.37,-332.48C732.13,-305.62 884.42,-259.09 1014.5,-217 1019.92,-215.25 1025.55,-213.4 1031.18,-211.53"/>
<polygon fill="#63b8ff" stroke="#63b8ff" points="642.22,-329.17 633.66,-335.41 644.25,-335.87 642.22,-329.17"/>
</a>
</g>
</g>
<!-- Node9&#45;&gt;Node2 -->
<g id="edge9_Node000009_Node000002" class="edge">
<title>Node9&#45;&gt;Node2</title>
<g id="a_edge9_Node000009_Node000002"><a xlink:title=" ">
<path fill="none" stroke="#63b8ff" d="M484.35,-266.06C429.45,-259.28 358.07,-245.41 300.5,-217 268.86,-201.38 267.88,-187.26 240.5,-165 223.02,-150.78 202.84,-135.41 187.13,-123.65"/>
<polygon fill="#63b8ff" stroke="#63b8ff" points="484.06,-269.55 494.4,-267.24 484.88,-262.6 484.06,-269.55"/>
</a>
</g>
</g>
<!-- Node9&#45;&gt;Node4 -->
<g id="edge34_Node000009_Node000004" class="edge">
<title>Node9&#45;&gt;Node4</title>
<g id="a_edge34_Node000009_Node000004"><a xlink:title=" ">
<path fill="none" stroke="#63b8ff" d="M483.98,-266.51C415.29,-259.77 317.66,-245.76 236.5,-217 161.83,-190.54 126.6,-194.13 81.5,-129 63.32,-102.75 61.74,-64.31 62.76,-41.21"/>
<polygon fill="#63b8ff" stroke="#63b8ff" points="484.03,-270.03 494.32,-267.49 484.69,-263.06 484.03,-270.03"/>
</a>
</g>
</g>
<!-- Node10 -->
<g id="Node000010" class="node">
<title>Node10</title>
<g id="a_Node000010"><a xlink:href="game_8h.html" target="_top" xlink:title=" ">
<polygon fill="white" stroke="#666666" points="482.5,-211.5 330.5,-211.5 330.5,-170.5 482.5,-170.5 482.5,-211.5"/>
<text text-anchor="start" x="338.5" y="-199.5" font-family="Helvetica,sans-Serif" font-size="10.00">examples/monte_carlo</text>
<text text-anchor="start" x="338.5" y="-188.5" font-family="Helvetica,sans-Serif" font-size="10.00">/tic_tac_toe/include</text>
<text text-anchor="middle" x="406.5" y="-177.5" font-family="Helvetica,sans-Serif" font-size="10.00">/tic_tac_toe/models/game.h</text>
</a>
</g>
</g>
<!-- Node9&#45;&gt;Node10 -->
<g id="edge10_Node000009_Node000010" class="edge">
<title>Node9&#45;&gt;Node10</title>
<g id="a_edge10_Node000009_Node000010"><a xlink:title=" ">
<path fill="none" stroke="#63b8ff" d="M521.13,-248.27C497.26,-236.55 468.99,-222.67 446.49,-211.63"/>
<polygon fill="#63b8ff" stroke="#63b8ff" points="519.86,-251.54 530.38,-252.81 522.95,-245.26 519.86,-251.54"/>
</a>
</g>
</g>
<!-- Node11 -->
<g id="Node000011" class="node">
<title>Node11</title>
<g id="a_Node000011"><a xlink:href="game_8cpp.html" target="_top" xlink:title=" ">
<polygon fill="white" stroke="#666666" points="378,-123.5 249,-123.5 249,-82.5 378,-82.5 378,-123.5"/>
<text text-anchor="start" x="257" y="-111.5" font-family="Helvetica,sans-Serif" font-size="10.00">examples/monte_carlo</text>
<text text-anchor="start" x="257" y="-100.5" font-family="Helvetica,sans-Serif" font-size="10.00">/tic_tac_toe/src/models</text>
<text text-anchor="middle" x="313.5" y="-89.5" font-family="Helvetica,sans-Serif" font-size="10.00">/game.cpp</text>
</a>
</g>
</g>
<!-- Node9&#45;&gt;Node11 -->
<g id="edge35_Node000009_Node000011" class="edge">
<title>Node9&#45;&gt;Node11</title>
<g id="a_edge35_Node000009_Node000011"><a xlink:title=" ">
<path fill="none" stroke="#63b8ff" d="M484.32,-264.2C421.07,-256.19 342.66,-241.57 321.5,-217 299.29,-191.22 303.45,-148.68 308.47,-123.8"/>
<polygon fill="#63b8ff" stroke="#63b8ff" points="483.97,-267.69 494.33,-265.43 484.83,-260.74 483.97,-267.69"/>
</a>
</g>
</g>
<!-- Node12 -->
<g id="Node000012" class="node">
<title>Node12</title>
<g id="a_Node000012"><a xlink:href="game__state_8h.html" target="_top" xlink:title=" ">
<polygon fill="white" stroke="#666666" points="644,-217 501,-217 501,-165 644,-165 644,-217"/>
<text text-anchor="start" x="509" y="-205" font-family="Helvetica,sans-Serif" font-size="10.00">examples/monte_carlo</text>
<text text-anchor="start" x="509" y="-194" font-family="Helvetica,sans-Serif" font-size="10.00">/tic_tac_toe/include</text>
<text text-anchor="start" x="509" y="-183" font-family="Helvetica,sans-Serif" font-size="10.00">/tic_tac_toe/models/game</text>
<text text-anchor="middle" x="572.5" y="-172" font-family="Helvetica,sans-Serif" font-size="10.00">_state.h</text>
</a>
</g>
</g>
<!-- Node9&#45;&gt;Node12 -->
<g id="edge13_Node000009_Node000012" class="edge">
<title>Node9&#45;&gt;Node12</title>
<g id="a_edge13_Node000009_Node000012"><a xlink:title=" ">
<path fill="none" stroke="#63b8ff" d="M571.25,-242.49C571.45,-234.15 571.68,-225.19 571.88,-217.16"/>
<polygon fill="#63b8ff" stroke="#63b8ff" points="567.74,-242.52 570.99,-252.6 574.74,-242.69 567.74,-242.52"/>
</a>
</g>
</g>
<!-- Node9&#45;&gt;Node20 -->
<g id="edge29_Node000009_Node000020" class="edge">
<title>Node9&#45;&gt;Node20</title>
<g id="a_edge29_Node000009_Node000020"><a xlink:title=" ">
<path fill="none" stroke="#63b8ff" d="M656.79,-255.53C708.25,-245.1 774.79,-231.07 833.5,-217 840.65,-215.29 848.1,-213.42 855.52,-211.51"/>
<polygon fill="#63b8ff" stroke="#63b8ff" points="655.81,-252.15 646.71,-257.56 657.2,-259.02 655.81,-252.15"/>
</a>
</g>
</g>
<!-- Node21 -->
<g id="Node000021" class="node">
<title>Node21</title>
<g id="a_Node000021"><a xlink:href="human_8cpp.html" target="_top" xlink:title=" ">
<polygon fill="white" stroke="#666666" points="1233,-123.5 1104,-123.5 1104,-82.5 1233,-82.5 1233,-123.5"/>
<text text-anchor="start" x="1112" y="-111.5" font-family="Helvetica,sans-Serif" font-size="10.00">examples/monte_carlo</text>
<text text-anchor="start" x="1112" y="-100.5" font-family="Helvetica,sans-Serif" font-size="10.00">/tic_tac_toe/src/models</text>
<text text-anchor="middle" x="1168.5" y="-89.5" font-family="Helvetica,sans-Serif" font-size="10.00">/human.cpp</text>
</a>
</g>
</g>
<!-- Node9&#45;&gt;Node21 -->
<g id="edge36_Node000009_Node000021" class="edge">
<title>Node9&#45;&gt;Node21</title>
<g id="a_edge36_Node000009_Node000021"><a xlink:title=" ">
<path fill="none" stroke="#63b8ff" d="M656.84,-258.05C711.79,-247.66 776.9,-232.74 800.5,-217 824.31,-201.12 813.94,-179.71 838.5,-165 937.07,-105.96 982.7,-155.5 1094.5,-129 1100.97,-127.47 1107.67,-125.61 1114.28,-123.6"/>
<polygon fill="#63b8ff" stroke="#63b8ff" points="655.9,-254.67 646.71,-259.94 657.18,-261.55 655.9,-254.67"/>
</a>
</g>
</g>
<!-- Node22 -->
<g id="Node000022" class="node">
<title>Node22</title>
<g id="a_Node000022"><a xlink:href="board_8cpp.html" target="_top" xlink:title=" ">
<polygon fill="white" stroke="#666666" points="791,-211.5 662,-211.5 662,-170.5 791,-170.5 791,-211.5"/>
<text text-anchor="start" x="670" y="-199.5" font-family="Helvetica,sans-Serif" font-size="10.00">examples/monte_carlo</text>
<text text-anchor="start" x="670" y="-188.5" font-family="Helvetica,sans-Serif" font-size="10.00">/tic_tac_toe/src/models</text>
<text text-anchor="middle" x="726.5" y="-177.5" font-family="Helvetica,sans-Serif" font-size="10.00">/board.cpp</text>
</a>
</g>
</g>
<!-- Node9&#45;&gt;Node22 -->
<g id="edge33_Node000009_Node000022" class="edge">
<title>Node9&#45;&gt;Node22</title>
<g id="a_edge33_Node000009_Node000022"><a xlink:title=" ">
<path fill="none" stroke="#63b8ff" d="M617.76,-248.11C640.4,-236.43 667.16,-222.62 688.46,-211.63"/>
<polygon fill="#63b8ff" stroke="#63b8ff" points="615.94,-245.11 608.66,-252.81 619.15,-251.33 615.94,-245.11"/>
</a>
</g>
</g>
<!-- Node9&#45;&gt;Node23 -->
<g id="edge37_Node000009_Node000023" class="edge">
<title>Node9&#45;&gt;Node23</title>
<g id="a_edge37_Node000009_Node000023"><a xlink:title=" ">
<path fill="none" stroke="#63b8ff" d="M656.9,-266.88C747.03,-259.81 892,-245.05 1014.5,-217 1021.11,-215.49 1027.96,-213.61 1034.7,-211.57"/>
<polygon fill="#63b8ff" stroke="#63b8ff" points="656.43,-263.4 646.73,-267.66 656.97,-270.38 656.43,-263.4"/>
</a>
</g>
</g>
<!-- Node10&#45;&gt;Node3 -->
<g id="edge11_Node000010_Node000003" class="edge">
<title>Node10&#45;&gt;Node3</title>
<g id="a_edge11_Node000010_Node000003"><a xlink:title=" ">
<path fill="none" stroke="#63b8ff" d="M488.38,-166.09C505.92,-157.2 522.47,-145.17 533.5,-129 552.8,-100.71 548.59,-57.93 544.63,-35.84"/>
<polygon fill="#63b8ff" stroke="#63b8ff" points="486.68,-163.01 479.14,-170.45 489.68,-169.34 486.68,-163.01"/>
</a>
</g>
</g>
<!-- Node10&#45;&gt;Node11 -->
<g id="edge12_Node000010_Node000011" class="edge">
<title>Node10&#45;&gt;Node11</title>
<g id="a_edge12_Node000010_Node000011"><a xlink:title=" ">
<path fill="none" stroke="#63b8ff" d="M377.97,-163.62C364.07,-150.77 347.64,-135.57 334.84,-123.74"/>
<polygon fill="#63b8ff" stroke="#63b8ff" points="375.68,-166.27 385.4,-170.49 380.43,-161.13 375.68,-166.27"/>
</a>
</g>
</g>
<!-- Node12&#45;&gt;Node11 -->
<g id="edge27_Node000012_Node000011" class="edge">
<title>Node12&#45;&gt;Node11</title>
<g id="a_edge27_Node000012_Node000011"><a xlink:title=" ">
<path fill="none" stroke="#63b8ff" d="M491.02,-163.28C458.77,-152.66 421.37,-140.3 387.5,-129 382.23,-127.24 376.74,-125.4 371.25,-123.56"/>
<polygon fill="#63b8ff" stroke="#63b8ff" points="490.27,-166.71 500.86,-166.51 492.45,-160.06 490.27,-166.71"/>
</a>
</g>
</g>
<!-- Node13 -->
<g id="Node000013" class="node">
<title>Node13</title>
<g id="a_Node000013"><a xlink:href="tic__tac__toe__factory_8h.html" target="_top" xlink:title=" ">
<polygon fill="white" stroke="#666666" points="524.5,-129 396.5,-129 396.5,-77 524.5,-77 524.5,-129"/>
<text text-anchor="start" x="404.5" y="-117" font-family="Helvetica,sans-Serif" font-size="10.00">examples/monte_carlo</text>
<text text-anchor="start" x="404.5" y="-106" font-family="Helvetica,sans-Serif" font-size="10.00">/tic_tac_toe/include</text>
<text text-anchor="start" x="404.5" y="-95" font-family="Helvetica,sans-Serif" font-size="10.00">/tic_tac_toe/factories</text>
<text text-anchor="middle" x="460.5" y="-84" font-family="Helvetica,sans-Serif" font-size="10.00">/tic_tac_toe_factory.h</text>
</a>
</g>
</g>
<!-- Node12&#45;&gt;Node13 -->
<g id="edge14_Node000012_Node000013" class="edge">
<title>Node12&#45;&gt;Node13</title>
<g id="a_edge14_Node000012_Node000013"><a xlink:title=" ">
<path fill="none" stroke="#63b8ff" d="M531.72,-158.69C519.13,-149.02 505.42,-138.49 493.43,-129.29"/>
<polygon fill="#63b8ff" stroke="#63b8ff" points="529.74,-161.58 539.8,-164.89 534,-156.03 529.74,-161.58"/>
</a>
</g>
</g>
<!-- Node15 -->
<g id="Node000015" class="node">
<title>Node15</title>
<g id="a_Node000015"><a xlink:href="move_8h.html" target="_top" xlink:title=" ">
<polygon fill="white" stroke="#666666" points="1085.5,-123.5 933.5,-123.5 933.5,-82.5 1085.5,-82.5 1085.5,-123.5"/>
<text text-anchor="start" x="941.5" y="-111.5" font-family="Helvetica,sans-Serif" font-size="10.00">examples/monte_carlo</text>
<text text-anchor="start" x="941.5" y="-100.5" font-family="Helvetica,sans-Serif" font-size="10.00">/tic_tac_toe/include</text>
<text text-anchor="middle" x="1009.5" y="-89.5" font-family="Helvetica,sans-Serif" font-size="10.00">/tic_tac_toe/models/move.h</text>
</a>
</g>
</g>
<!-- Node12&#45;&gt;Node15 -->
<g id="edge20_Node000012_Node000015" class="edge">
<title>Node12&#45;&gt;Node15</title>
<g id="a_edge20_Node000012_Node000015"><a xlink:title=" ">
<path fill="none" stroke="#63b8ff" d="M654.24,-165.01C774.01,-139.77 808.78,-153.55 924.5,-129 931.87,-127.44 939.54,-125.55 947.11,-123.53"/>
<polygon fill="#63b8ff" stroke="#63b8ff" points="653.36,-161.62 644.32,-167.15 654.84,-168.46 653.36,-161.62"/>
</a>
</g>
</g>
<!-- Node17 -->
<g id="Node000017" class="node">
<title>Node17</title>
<g id="a_Node000017"><a xlink:href="state_8h.html" target="_top" xlink:title=" ">
<polygon fill="white" stroke="#666666" points="915,-123.5 766,-123.5 766,-82.5 915,-82.5 915,-123.5"/>
<text text-anchor="start" x="774" y="-111.5" font-family="Helvetica,sans-Serif" font-size="10.00">examples/monte_carlo</text>
<text text-anchor="start" x="774" y="-100.5" font-family="Helvetica,sans-Serif" font-size="10.00">/tic_tac_toe/include</text>
<text text-anchor="middle" x="840.5" y="-89.5" font-family="Helvetica,sans-Serif" font-size="10.00">/tic_tac_toe/models/state.h</text>
</a>
</g>
</g>
<!-- Node12&#45;&gt;Node17 -->
<g id="edge23_Node000012_Node000017" class="edge">
<title>Node12&#45;&gt;Node17</title>
<g id="a_edge23_Node000012_Node000017"><a xlink:title=" ">
<path fill="none" stroke="#63b8ff" d="M653.87,-163.89C694.25,-150.93 742.21,-135.54 779.39,-123.61"/>
<polygon fill="#63b8ff" stroke="#63b8ff" points="652.77,-160.57 644.32,-166.95 654.91,-167.23 652.77,-160.57"/>
</a>
</g>
</g>
<!-- Node19 -->
<g id="Node000019" class="node">
<title>Node19</title>
<g id="a_Node000019"><a xlink:href="game__state_8cpp.html" target="_top" xlink:title=" ">
<polygon fill="white" stroke="#666666" points="710,-123.5 581,-123.5 581,-82.5 710,-82.5 710,-123.5"/>
<text text-anchor="start" x="589" y="-111.5" font-family="Helvetica,sans-Serif" font-size="10.00">examples/monte_carlo</text>
<text text-anchor="start" x="589" y="-100.5" font-family="Helvetica,sans-Serif" font-size="10.00">/tic_tac_toe/src/models</text>
<text text-anchor="middle" x="645.5" y="-89.5" font-family="Helvetica,sans-Serif" font-size="10.00">/game_state.cpp</text>
</a>
</g>
</g>
<!-- Node12&#45;&gt;Node19 -->
<g id="edge28_Node000012_Node000019" class="edge">
<title>Node12&#45;&gt;Node19</title>
<g id="a_edge28_Node000012_Node000019"><a xlink:title=" ">
<path fill="none" stroke="#63b8ff" d="M600.73,-156.74C610.21,-145.58 620.47,-133.49 628.78,-123.7"/>
<polygon fill="#63b8ff" stroke="#63b8ff" points="597.81,-154.77 594.01,-164.66 603.15,-159.3 597.81,-154.77"/>
</a>
</g>
</g>
<!-- Node13&#45;&gt;Node3 -->
<g id="edge16_Node000013_Node000003" class="edge">
<title>Node13&#45;&gt;Node3</title>
<g id="a_edge16_Node000013_Node000003"><a xlink:title=" ">
<path fill="none" stroke="#63b8ff" d="M492.88,-69.82C504.69,-58.08 517.46,-45.39 526.95,-35.96"/>
<polygon fill="#63b8ff" stroke="#63b8ff" points="490.31,-67.44 485.68,-76.97 495.25,-72.4 490.31,-67.44"/>
</a>
</g>
</g>
<!-- Node13&#45;&gt;Node4 -->
<g id="edge17_Node000013_Node000004" class="edge">
<title>Node13&#45;&gt;Node4</title>
<g id="a_edge17_Node000013_Node000004"><a xlink:title=" ">
<path fill="none" stroke="#63b8ff" d="M386.44,-76.93C277,-51.45 244.97,-62.65 138.5,-41 135.51,-40.39 132.45,-39.73 129.37,-39.04"/>
<polygon fill="#63b8ff" stroke="#63b8ff" points="385.67,-80.35 396.21,-79.25 387.29,-73.54 385.67,-80.35"/>
</a>
</g>
</g>
<!-- Node13&#45;&gt;Node6 -->
<g id="edge18_Node000013_Node000006" class="edge">
<title>Node13&#45;&gt;Node6</title>
<g id="a_edge18_Node000013_Node000006"><a xlink:title=" ">
<path fill="none" stroke="#63b8ff" d="M430.98,-69.45C422.29,-59.86 413.04,-49.66 405.32,-41.15"/>
<polygon fill="#63b8ff" stroke="#63b8ff" points="428.49,-71.91 437.8,-76.97 433.68,-67.21 428.49,-71.91"/>
</a>
</g>
</g>
<!-- Node13&#45;&gt;Node7 -->
<g id="edge19_Node000013_Node000007" class="edge">
<title>Node13&#45;&gt;Node7</title>
<g id="a_edge19_Node000013_Node000007"><a xlink:title=" ">
<path fill="none" stroke="#63b8ff" d="M386.72,-76.74C346.79,-63.1 311.08,-50.95 282.22,-41.12"/>
<polygon fill="#63b8ff" stroke="#63b8ff" points="385.81,-80.12 396.41,-80.04 388.08,-73.5 385.81,-80.12"/>
</a>
</g>
</g>
<!-- Node14 -->
<g id="Node000014" class="node">
<title>Node14</title>
<g id="a_Node000014"><a xlink:href="tic__tac__toe__factory_8cpp.html" target="_top" xlink:title=" ">
<polygon fill="white" stroke="#666666" points="1059.5,-41 923.5,-41 923.5,0 1059.5,0 1059.5,-41"/>
<text text-anchor="start" x="931.5" y="-29" font-family="Helvetica,sans-Serif" font-size="10.00">examples/monte_carlo</text>
<text text-anchor="start" x="931.5" y="-18" font-family="Helvetica,sans-Serif" font-size="10.00">/tic_tac_toe/src/factories</text>
<text text-anchor="middle" x="991.5" y="-7" font-family="Helvetica,sans-Serif" font-size="10.00">/tic_tac_toe_factory.cpp</text>
</a>
</g>
</g>
<!-- Node13&#45;&gt;Node14 -->
<g id="edge15_Node000013_Node000014" class="edge">
<title>Node13&#45;&gt;Node14</title>
<g id="a_edge15_Node000013_Node000014"><a xlink:title=" ">
<path fill="none" stroke="#63b8ff" d="M534.53,-84.22C547.15,-81.55 560.17,-79.02 572.5,-77 723.33,-52.31 764.03,-67.83 914.5,-41 917.35,-40.49 920.25,-39.94 923.18,-39.34"/>
<polygon fill="#63b8ff" stroke="#63b8ff" points="533.55,-80.85 524.51,-86.38 535.03,-87.69 533.55,-80.85"/>
</a>
</g>
</g>
<!-- Node15&#45;&gt;Node14 -->
<g id="edge21_Node000015_Node000014" class="edge">
<title>Node15&#45;&gt;Node14</title>
<g id="a_edge21_Node000015_Node000014"><a xlink:title=" ">
<path fill="none" stroke="#63b8ff" d="M1002.83,-72.19C1000.52,-61.84 997.98,-50.5 995.9,-41.17"/>
<polygon fill="#63b8ff" stroke="#63b8ff" points="999.45,-73.11 1005.05,-82.1 1006.28,-71.58 999.45,-73.11"/>
</a>
</g>
</g>
<!-- Node16 -->
<g id="Node000016" class="node">
<title>Node16</title>
<g id="a_Node000016"><a xlink:href="move_8cpp.html" target="_top" xlink:title=" ">
<polygon fill="white" stroke="#666666" points="1207,-41 1078,-41 1078,0 1207,0 1207,-41"/>
<text text-anchor="start" x="1086" y="-29" font-family="Helvetica,sans-Serif" font-size="10.00">examples/monte_carlo</text>
<text text-anchor="start" x="1086" y="-18" font-family="Helvetica,sans-Serif" font-size="10.00">/tic_tac_toe/src/models</text>
<text text-anchor="middle" x="1142.5" y="-7" font-family="Helvetica,sans-Serif" font-size="10.00">/move.cpp</text>
</a>
</g>
</g>
<!-- Node15&#45;&gt;Node16 -->
<g id="edge22_Node000015_Node000016" class="edge">
<title>Node15&#45;&gt;Node16</title>
<g id="a_edge22_Node000015_Node000016"><a xlink:title=" ">
<path fill="none" stroke="#63b8ff" d="M1050.79,-77.01C1069.8,-65.5 1092.03,-52.05 1109.84,-41.27"/>
<polygon fill="#63b8ff" stroke="#63b8ff" points="1048.78,-74.14 1042.04,-82.31 1052.4,-80.12 1048.78,-74.14"/>
</a>
</g>
</g>
<!-- Node17&#45;&gt;Node5 -->
<g id="edge26_Node000017_Node000005" class="edge">
<title>Node17&#45;&gt;Node5</title>
<g id="a_edge26_Node000017_Node000005"><a xlink:title=" ">
<path fill="none" stroke="#63b8ff" d="M795.68,-77.46C774.41,-65.81 749.33,-52.07 729.34,-41.13"/>
<polygon fill="#63b8ff" stroke="#63b8ff" points="794.09,-80.57 804.54,-82.31 797.45,-74.43 794.09,-80.57"/>
</a>
</g>
</g>
<!-- Node17&#45;&gt;Node14 -->
<g id="edge24_Node000017_Node000014" class="edge">
<title>Node17&#45;&gt;Node14</title>
<g id="a_edge24_Node000017_Node000014"><a xlink:title=" ">
<path fill="none" stroke="#63b8ff" d="M886.54,-77.46C908.39,-65.81 934.15,-52.07 954.68,-41.13"/>
<polygon fill="#63b8ff" stroke="#63b8ff" points="884.62,-74.51 877.44,-82.31 887.91,-80.69 884.62,-74.51"/>
</a>
</g>
</g>
<!-- Node18 -->
<g id="Node000018" class="node">
<title>Node18</title>
<g id="a_Node000018"><a xlink:href="position_8cpp.html" target="_top" xlink:title=" ">
<polygon fill="white" stroke="#666666" points="905,-41 776,-41 776,0 905,0 905,-41"/>
<text text-anchor="start" x="784" y="-29" font-family="Helvetica,sans-Serif" font-size="10.00">examples/monte_carlo</text>
<text text-anchor="start" x="784" y="-18" font-family="Helvetica,sans-Serif" font-size="10.00">/tic_tac_toe/src/models</text>
<text text-anchor="middle" x="840.5" y="-7" font-family="Helvetica,sans-Serif" font-size="10.00">/position.cpp</text>
</a>
</g>
</g>
<!-- Node17&#45;&gt;Node18 -->
<g id="edge25_Node000017_Node000018" class="edge">
<title>Node17&#45;&gt;Node18</title>
<g id="a_edge25_Node000017_Node000018"><a xlink:title=" ">
<path fill="none" stroke="#63b8ff" d="M840.5,-71.87C840.5,-61.6 840.5,-50.4 840.5,-41.17"/>
<polygon fill="#63b8ff" stroke="#63b8ff" points="837,-72.1 840.5,-82.1 844,-72.1 837,-72.1"/>
</a>
</g>
</g>
<!-- Node20&#45;&gt;Node3 -->
<g id="edge30_Node000020_Node000003" class="edge">
<title>Node20&#45;&gt;Node3</title>
<g id="a_edge30_Node000020_Node000003"><a xlink:title=" ">
<path fill="none" stroke="#63b8ff" d="M837.64,-168.87C810.21,-159.58 781.06,-146.65 757.5,-129 734.59,-111.84 742.78,-93.65 719.5,-77 708.9,-69.42 641.23,-49.42 592.47,-35.62"/>
<polygon fill="#63b8ff" stroke="#63b8ff" points="836.66,-172.23 847.26,-172 838.83,-165.57 836.66,-172.23"/>
</a>
</g>
</g>
<!-- Node20&#45;&gt;Node5 -->
<g id="edge32_Node000020_Node000005" class="edge">
<title>Node20&#45;&gt;Node5</title>
<g id="a_edge32_Node000020_Node000005"><a xlink:title=" ">
<path fill="none" stroke="#63b8ff" d="M1002.85,-167.93C1007.12,-166.89 1011.36,-165.91 1015.5,-165 1065.39,-154.08 1209.33,-167.84 1242.5,-129 1257.51,-111.42 1258.21,-93.95 1242.5,-77 1206.52,-38.18 819.7,-49.78 767.5,-41 764.49,-40.49 761.42,-39.92 758.33,-39.3"/>
<polygon fill="#63b8ff" stroke="#63b8ff" points="1001.71,-164.61 992.87,-170.44 1003.42,-171.4 1001.71,-164.61"/>
</a>
</g>
</g>
<!-- Node20&#45;&gt;Node21 -->
<g id="edge31_Node000020_Node000021" class="edge">
<title>Node20&#45;&gt;Node21</title>
<g id="a_edge31_Node000020_Node000021"><a xlink:title=" ">
<path fill="none" stroke="#63b8ff" d="M990.9,-167.11C1029.08,-153.55 1076.96,-136.53 1113.39,-123.59"/>
<polygon fill="#63b8ff" stroke="#63b8ff" points="989.66,-163.84 981.41,-170.49 992.01,-170.43 989.66,-163.84"/>
</a>
</g>
</g>
<!-- Node24&#45;&gt;Node10 -->
<g id="edge42_Node000024_Node000010" class="edge">
<title>Node24&#45;&gt;Node10</title>
<g id="a_edge42_Node000024_Node000010"><a xlink:title=" ">
<path fill="none" stroke="#63b8ff" d="M406.5,-319.74C406.5,-286.7 406.5,-238.51 406.5,-211.76"/>
<polygon fill="#63b8ff" stroke="#63b8ff" points="403,-319.89 406.5,-329.89 410,-319.89 403,-319.89"/>
</a>
</g>
</g>
<!-- Node25 -->
<g id="Node000025" class="node">
<title>Node25</title>
<g id="a_Node000025"><a xlink:href="subject_8cpp.html" target="_top" xlink:title=" ">
<polygon fill="white" stroke="#666666" points="198.5,-294 62.5,-294 62.5,-253 198.5,-253 198.5,-294"/>
<text text-anchor="start" x="70.5" y="-282" font-family="Helvetica,sans-Serif" font-size="10.00">examples/monte_carlo</text>
<text text-anchor="start" x="70.5" y="-271" font-family="Helvetica,sans-Serif" font-size="10.00">/tic_tac_toe/src/observer</text>
<text text-anchor="middle" x="130.5" y="-260" font-family="Helvetica,sans-Serif" font-size="10.00">/subject.cpp</text>
</a>
</g>
</g>
<!-- Node24&#45;&gt;Node25 -->
<g id="edge43_Node000024_Node000025" class="edge">
<title>Node24&#45;&gt;Node25</title>
<g id="a_edge43_Node000024_Node000025"><a xlink:title=" ">
<path fill="none" stroke="#63b8ff" d="M332.85,-333.52C290.79,-321.25 238.44,-305.98 197.53,-294.05"/>
<polygon fill="#63b8ff" stroke="#63b8ff" points="331.91,-336.89 342.49,-336.33 333.87,-330.17 331.91,-336.89"/>
</a>
</g>
</g>
</g>
</svg>

<g id="navigator" transform="translate(0 0)" fill="#404254">
  <rect fill="#f2f5e9" fill-opacity="0.5" stroke="#606060" stroke-width=".5" x="0" y="0" width="60" height="60"/>
  <use id="zoomplus" xlink:href="#zoomPlus" x="17" y="9" onmousedown="handleZoom(evt,'in')"/>
  <use id="zoomminus" xlink:href="#zoomMin" x="42" y="9" onmousedown="handleZoom(evt,'out')"/>
  <use id="reset" xlink:href="#resetDef" x="30" y="36" onmousedown="handleReset()"/>
   <use id="arrowup" xlink:href="#arrowUp" x="0" y="0" onmousedown="handlePan(0,-1)"/>
  <use id="arrowright" xlink:href="#arrowRight" x="0" y="0" onmousedown="handlePan(1,0)"/>
  <use id="arrowdown" xlink:href="#arrowDown" x="0" y="0" onmousedown="handlePan(0,1)"/>
  <use id="arrowleft" xlink:href="#arrowLeft" x="0" y="0" onmousedown="handlePan(-1,0)"/>
</g>
<svg viewBox="0 0 15 15" width="100%" height="30px" preserveAspectRatio="xMaxYMin meet">
 <g id="arrow_out" transform="scale(0.3 0.3)">
  <a xlink:href="observer_8h__dep__incl_org.svg" target="_base">
   <rect id="button" ry="5" rx="5" y="6" x="6" height="38" width="38"
        fill="#f2f5e9" fill-opacity="0.5" stroke="#606060" stroke-width="1.0"/>
   <path id="arrow"
     d="M 11.500037,31.436501 C 11.940474,20.09759 22.043105,11.32322 32.158766,21.979434 L 37.068811,17.246167 C 37.068811,17.246167 37.088388,32 37.088388,32 L 22.160133,31.978069 C 22.160133,31.978069 26.997745,27.140456 26.997745,27.140456 C 18.528582,18.264221 13.291696,25.230495 11.500037,31.436501 z"
     style="fill:#404040;"/>
  </a>
 </g>
</svg>

<style type='text/css'>
<![CDATA[
[data-mouse-over-selected='false'] { opacity: 0.7; }
[data-mouse-over-selected='true']  { opacity: 1.0; }
]]>
</style>
<script type="application/ecmascript"><![CDATA[
document.addEventListener('DOMContentLoaded', (event) => {
  highlightEdges();
  highlightAdjacentNodes();
});
]]></script>
</svg>
