<?xml version="1.0" encoding="UTF-8" standalone="no"?>
<!DOCTYPE svg PUBLIC "-//W3C//DTD SVG 1.1//EN"
 "http://www.w3.org/Graphics/SVG/1.1/DTD/svg11.dtd">
<!-- Generated by graphviz version 2.43.0 (0)
 -->
<!-- Title: examples/monte_carlo/tic_tac_toe/include/tic_tac_toe/models/player.h Pages: 1 -->
<svg width="1492pt" height="379pt"
 viewBox="0.00 0.00 1492.00 379.00" xmlns="http://www.w3.org/2000/svg" xmlns:xlink="http://www.w3.org/1999/xlink">
<g id="graph0" class="graph" transform="scale(1 1) rotate(0) translate(4 375)">
<title>examples/monte_carlo/tic_tac_toe/include/tic_tac_toe/models/player.h</title>
<!-- Node1 -->
<g id="Node000001" class="node">
<title>Node1</title>
<g id="a_Node000001"><a xlink:title=" ">
<polygon fill="#999999" stroke="#666666" points="1080.5,-371 926.5,-371 926.5,-330 1080.5,-330 1080.5,-371"/>
<text text-anchor="start" x="934.5" y="-359" font-family="Helvetica,sans-Serif" font-size="10.00">examples/monte_carlo</text>
<text text-anchor="start" x="934.5" y="-348" font-family="Helvetica,sans-Serif" font-size="10.00">/tic_tac_toe/include</text>
<text text-anchor="middle" x="1003.5" y="-337" font-family="Helvetica,sans-Serif" font-size="10.00">/tic_tac_toe/models/player.h</text>
</a>
</g>
</g>
<!-- Node2 -->
<g id="Node000002" class="node">
<title>Node2</title>
<g id="a_Node000002"><a xlink:href="board_8h.html" target="_top" xlink:title=" ">
<polygon fill="white" stroke="#666666" points="1027.5,-294 875.5,-294 875.5,-253 1027.5,-253 1027.5,-294"/>
<text text-anchor="start" x="883.5" y="-282" font-family="Helvetica,sans-Serif" font-size="10.00">examples/monte_carlo</text>
<text text-anchor="start" x="883.5" y="-271" font-family="Helvetica,sans-Serif" font-size="10.00">/tic_tac_toe/include</text>
<text text-anchor="middle" x="951.5" y="-260" font-family="Helvetica,sans-Serif" font-size="10.00">/tic_tac_toe/models/board.h</text>
</a>
</g>
</g>
<!-- Node1&#45;&gt;Node2 -->
<g id="edge1_Node000001_Node000002" class="edge">
<title>Node1&#45;&gt;Node2</title>
<g id="a_edge1_Node000001_Node000002"><a xlink:title=" ">
<path fill="none" stroke="#63b8ff" d="M984.01,-321.39C977.7,-312.3 970.85,-302.41 965.07,-294.07"/>
<polygon fill="#63b8ff" stroke="#63b8ff" points="981.26,-323.57 989.84,-329.79 987.02,-319.58 981.26,-323.57"/>
</a>
</g>
</g>
<!-- Node3 -->
<g id="Node000003" class="node">
<title>Node3</title>
<g id="a_Node000003"><a xlink:href="bot_8h.html" target="_top" xlink:title=" ">
<polygon fill="white" stroke="#666666" points="895.5,-123.5 755.5,-123.5 755.5,-82.5 895.5,-82.5 895.5,-123.5"/>
<text text-anchor="start" x="763.5" y="-111.5" font-family="Helvetica,sans-Serif" font-size="10.00">examples/monte_carlo</text>
<text text-anchor="start" x="763.5" y="-100.5" font-family="Helvetica,sans-Serif" font-size="10.00">/tic_tac_toe/include</text>
<text text-anchor="middle" x="825.5" y="-89.5" font-family="Helvetica,sans-Serif" font-size="10.00">/tic_tac_toe/models/bot.h</text>
</a>
</g>
</g>
<!-- Node1&#45;&gt;Node3 -->
<g id="edge36_Node000001_Node000003" class="edge">
<title>Node1&#45;&gt;Node3</title>
<g id="a_edge36_Node000001_Node000003"><a xlink:title=" ">
<path fill="none" stroke="#63b8ff" d="M923.09,-326.44C872.21,-306.81 811.78,-272.7 788.5,-217 779.59,-195.68 782.28,-187.26 788.5,-165 792.7,-149.97 801.73,-134.96 809.82,-123.59"/>
<polygon fill="#63b8ff" stroke="#63b8ff" points="921.88,-329.73 932.47,-329.94 924.33,-323.17 921.88,-329.73"/>
</a>
</g>
</g>
<!-- Node19 -->
<g id="Node000019" class="node">
<title>Node19</title>
<g id="a_Node000019"><a xlink:href="human_8h.html" target="_top" xlink:title=" ">
<polygon fill="white" stroke="#666666" points="1336.5,-211.5 1178.5,-211.5 1178.5,-170.5 1336.5,-170.5 1336.5,-211.5"/>
<text text-anchor="start" x="1186.5" y="-199.5" font-family="Helvetica,sans-Serif" font-size="10.00">examples/monte_carlo</text>
<text text-anchor="start" x="1186.5" y="-188.5" font-family="Helvetica,sans-Serif" font-size="10.00">/tic_tac_toe/include</text>
<text text-anchor="middle" x="1257.5" y="-177.5" font-family="Helvetica,sans-Serif" font-size="10.00">/tic_tac_toe/models/human.h</text>
</a>
</g>
</g>
<!-- Node1&#45;&gt;Node19 -->
<g id="edge37_Node000001_Node000019" class="edge">
<title>Node1&#45;&gt;Node19</title>
<g id="a_edge37_Node000001_Node000019"><a xlink:title=" ">
<path fill="none" stroke="#63b8ff" d="M1043.86,-324.47C1094.36,-293.16 1179.8,-240.18 1225.85,-211.63"/>
<polygon fill="#63b8ff" stroke="#63b8ff" points="1041.81,-321.63 1035.16,-329.87 1045.5,-327.58 1041.81,-321.63"/>
</a>
</g>
</g>
<!-- Node22 -->
<g id="Node000022" class="node">
<title>Node22</title>
<g id="a_Node000022"><a xlink:href="player_8cpp.html" target="_top" xlink:title=" ">
<polygon fill="white" stroke="#666666" points="1484,-211.5 1355,-211.5 1355,-170.5 1484,-170.5 1484,-211.5"/>
<text text-anchor="start" x="1363" y="-199.5" font-family="Helvetica,sans-Serif" font-size="10.00">examples/monte_carlo</text>
<text text-anchor="start" x="1363" y="-188.5" font-family="Helvetica,sans-Serif" font-size="10.00">/tic_tac_toe/src/models</text>
<text text-anchor="middle" x="1419.5" y="-177.5" font-family="Helvetica,sans-Serif" font-size="10.00">/player.cpp</text>
</a>
</g>
</g>
<!-- Node1&#45;&gt;Node22 -->
<g id="edge38_Node000001_Node000022" class="edge">
<title>Node1&#45;&gt;Node22</title>
<g id="a_edge38_Node000001_Node000022"><a xlink:title=" ">
<path fill="none" stroke="#63b8ff" d="M1065.05,-326.2C1147.21,-295.09 1291.26,-240.55 1367.98,-211.5"/>
<polygon fill="#63b8ff" stroke="#63b8ff" points="1063.46,-323.06 1055.35,-329.87 1065.94,-329.6 1063.46,-323.06"/>
</a>
</g>
</g>
<!-- Node2&#45;&gt;Node3 -->
<g id="edge2_Node000002_Node000003" class="edge">
<title>Node2&#45;&gt;Node3</title>
<g id="a_edge2_Node000002_Node000003"><a xlink:title=" ">
<path fill="none" stroke="#63b8ff" d="M865.72,-260.16C840.56,-252.1 815.74,-238.83 800.5,-217 780.84,-188.82 798.6,-147.87 812.56,-123.78"/>
<polygon fill="#63b8ff" stroke="#63b8ff" points="864.78,-263.53 875.36,-263 866.76,-256.81 864.78,-263.53"/>
</a>
</g>
</g>
<!-- Node5 -->
<g id="Node000005" class="node">
<title>Node5</title>
<g id="a_Node000005"><a xlink:href="bot_8cpp.html" target="_top" xlink:title=" ">
<polygon fill="white" stroke="#666666" points="578,-41 449,-41 449,0 578,0 578,-41"/>
<text text-anchor="start" x="457" y="-29" font-family="Helvetica,sans-Serif" font-size="10.00">examples/monte_carlo</text>
<text text-anchor="start" x="457" y="-18" font-family="Helvetica,sans-Serif" font-size="10.00">/tic_tac_toe/src/models</text>
<text text-anchor="middle" x="513.5" y="-7" font-family="Helvetica,sans-Serif" font-size="10.00">/bot.cpp</text>
</a>
</g>
</g>
<!-- Node2&#45;&gt;Node5 -->
<g id="edge32_Node000002_Node000005" class="edge">
<title>Node2&#45;&gt;Node5</title>
<g id="a_edge32_Node000002_Node000005"><a xlink:title=" ">
<path fill="none" stroke="#63b8ff" d="M865.26,-252.51C789.29,-231.57 678.85,-192.69 600.5,-129 578.08,-110.78 579.63,-99.49 561.5,-77 551.75,-64.9 540.39,-51.73 531.17,-41.25"/>
<polygon fill="#63b8ff" stroke="#63b8ff" points="864.71,-255.98 875.28,-255.22 866.54,-249.23 864.71,-255.98"/>
</a>
</g>
</g>
<!-- Node9 -->
<g id="Node000009" class="node">
<title>Node9</title>
<g id="a_Node000009"><a xlink:href="game_8h.html" target="_top" xlink:title=" ">
<polygon fill="white" stroke="#666666" points="1122.5,-211.5 970.5,-211.5 970.5,-170.5 1122.5,-170.5 1122.5,-211.5"/>
<text text-anchor="start" x="978.5" y="-199.5" font-family="Helvetica,sans-Serif" font-size="10.00">examples/monte_carlo</text>
<text text-anchor="start" x="978.5" y="-188.5" font-family="Helvetica,sans-Serif" font-size="10.00">/tic_tac_toe/include</text>
<text text-anchor="middle" x="1046.5" y="-177.5" font-family="Helvetica,sans-Serif" font-size="10.00">/tic_tac_toe/models/game.h</text>
</a>
</g>
</g>
<!-- Node2&#45;&gt;Node9 -->
<g id="edge8_Node000002_Node000009" class="edge">
<title>Node2&#45;&gt;Node9</title>
<g id="a_edge8_Node000002_Node000009"><a xlink:title=" ">
<path fill="none" stroke="#63b8ff" d="M982.9,-245.89C996.08,-234.72 1011.14,-221.97 1023.29,-211.67"/>
<polygon fill="#63b8ff" stroke="#63b8ff" points="980.35,-243.47 974.98,-252.6 984.88,-248.81 980.35,-243.47"/>
</a>
</g>
</g>
<!-- Node10 -->
<g id="Node000010" class="node">
<title>Node10</title>
<g id="a_Node000010"><a xlink:href="game_8cpp.html" target="_top" xlink:title=" ">
<polygon fill="white" stroke="#666666" points="1043,-123.5 914,-123.5 914,-82.5 1043,-82.5 1043,-123.5"/>
<text text-anchor="start" x="922" y="-111.5" font-family="Helvetica,sans-Serif" font-size="10.00">examples/monte_carlo</text>
<text text-anchor="start" x="922" y="-100.5" font-family="Helvetica,sans-Serif" font-size="10.00">/tic_tac_toe/src/models</text>
<text text-anchor="middle" x="978.5" y="-89.5" font-family="Helvetica,sans-Serif" font-size="10.00">/game.cpp</text>
</a>
</g>
</g>
<!-- Node2&#45;&gt;Node10 -->
<g id="edge33_Node000002_Node000010" class="edge">
<title>Node2&#45;&gt;Node10</title>
<g id="a_edge33_Node000002_Node000010"><a xlink:title=" ">
<path fill="none" stroke="#63b8ff" d="M865.79,-255.76C845.32,-247.54 825.85,-235.28 813.5,-217 800.56,-197.85 800.29,-183.96 813.5,-165 816.83,-160.22 874.74,-139.49 921.03,-123.51"/>
<polygon fill="#63b8ff" stroke="#63b8ff" points="864.65,-259.07 875.24,-259.26 867.08,-252.5 864.65,-259.07"/>
</a>
</g>
</g>
<!-- Node11 -->
<g id="Node000011" class="node">
<title>Node11</title>
<g id="a_Node000011"><a xlink:href="game__state_8h.html" target="_top" xlink:title=" ">
<polygon fill="white" stroke="#666666" points="560,-217 417,-217 417,-165 560,-165 560,-217"/>
<text text-anchor="start" x="425" y="-205" font-family="Helvetica,sans-Serif" font-size="10.00">examples/monte_carlo</text>
<text text-anchor="start" x="425" y="-194" font-family="Helvetica,sans-Serif" font-size="10.00">/tic_tac_toe/include</text>
<text text-anchor="start" x="425" y="-183" font-family="Helvetica,sans-Serif" font-size="10.00">/tic_tac_toe/models/game</text>
<text text-anchor="middle" x="488.5" y="-172" font-family="Helvetica,sans-Serif" font-size="10.00">_state.h</text>
</a>
</g>
</g>
<!-- Node2&#45;&gt;Node11 -->
<g id="edge11_Node000002_Node000011" class="edge">
<title>Node2&#45;&gt;Node11</title>
<g id="a_edge11_Node000002_Node000011"><a xlink:title=" ">
<path fill="none" stroke="#63b8ff" d="M865.39,-259.3C796.78,-248.56 698.33,-232.67 612.5,-217 595.54,-213.9 577.32,-210.36 560.21,-206.92"/>
<polygon fill="#63b8ff" stroke="#63b8ff" points="864.87,-262.76 875.29,-260.84 865.95,-255.84 864.87,-262.76"/>
</a>
</g>
</g>
<!-- Node2&#45;&gt;Node19 -->
<g id="edge27_Node000002_Node000019" class="edge">
<title>Node2&#45;&gt;Node19</title>
<g id="a_edge27_Node000002_Node000019"><a xlink:title=" ">
<path fill="none" stroke="#63b8ff" d="M1036.68,-250.46C1075.66,-240.34 1122.44,-228.13 1164.5,-217 1171.21,-215.22 1178.18,-213.37 1185.17,-211.5"/>
<polygon fill="#63b8ff" stroke="#63b8ff" points="1035.75,-247.09 1026.95,-252.99 1037.51,-253.87 1035.75,-247.09"/>
</a>
</g>
</g>
<!-- Node20 -->
<g id="Node000020" class="node">
<title>Node20</title>
<g id="a_Node000020"><a xlink:href="human_8cpp.html" target="_top" xlink:title=" ">
<polygon fill="white" stroke="#666666" points="1229,-123.5 1100,-123.5 1100,-82.5 1229,-82.5 1229,-123.5"/>
<text text-anchor="start" x="1108" y="-111.5" font-family="Helvetica,sans-Serif" font-size="10.00">examples/monte_carlo</text>
<text text-anchor="start" x="1108" y="-100.5" font-family="Helvetica,sans-Serif" font-size="10.00">/tic_tac_toe/src/models</text>
<text text-anchor="middle" x="1164.5" y="-89.5" font-family="Helvetica,sans-Serif" font-size="10.00">/human.cpp</text>
</a>
</g>
</g>
<!-- Node2&#45;&gt;Node20 -->
<g id="edge34_Node000002_Node000020" class="edge">
<title>Node2&#45;&gt;Node20</title>
<g id="a_edge34_Node000002_Node000020"><a xlink:title=" ">
<path fill="none" stroke="#63b8ff" d="M1037.71,-263.49C1070.91,-255.93 1106.75,-242.12 1131.5,-217 1156.46,-191.67 1162.73,-148.57 1164.19,-123.56"/>
<polygon fill="#63b8ff" stroke="#63b8ff" points="1036.57,-260.16 1027.51,-265.65 1038.02,-267.01 1036.57,-260.16"/>
</a>
</g>
</g>
<!-- Node21 -->
<g id="Node000021" class="node">
<title>Node21</title>
<g id="a_Node000021"><a xlink:href="board_8cpp.html" target="_top" xlink:title=" ">
<polygon fill="white" stroke="#666666" points="952,-211.5 823,-211.5 823,-170.5 952,-170.5 952,-211.5"/>
<text text-anchor="start" x="831" y="-199.5" font-family="Helvetica,sans-Serif" font-size="10.00">examples/monte_carlo</text>
<text text-anchor="start" x="831" y="-188.5" font-family="Helvetica,sans-Serif" font-size="10.00">/tic_tac_toe/src/models</text>
<text text-anchor="middle" x="887.5" y="-177.5" font-family="Helvetica,sans-Serif" font-size="10.00">/board.cpp</text>
</a>
</g>
</g>
<!-- Node2&#45;&gt;Node21 -->
<g id="edge31_Node000002_Node000021" class="edge">
<title>Node2&#45;&gt;Node21</title>
<g id="a_edge31_Node000002_Node000021"><a xlink:title=" ">
<path fill="none" stroke="#63b8ff" d="M929.33,-244.62C920.7,-233.76 911.02,-221.58 903.14,-211.67"/>
<polygon fill="#63b8ff" stroke="#63b8ff" points="926.72,-246.95 935.68,-252.6 932.2,-242.6 926.72,-246.95"/>
</a>
</g>
</g>
<!-- Node2&#45;&gt;Node22 -->
<g id="edge35_Node000002_Node000022" class="edge">
<title>Node2&#45;&gt;Node22</title>
<g id="a_edge35_Node000002_Node000022"><a xlink:title=" ">
<path fill="none" stroke="#63b8ff" d="M1037.89,-264.99C1118.3,-256.91 1241.08,-241.77 1345.5,-217 1351.97,-215.47 1358.67,-213.6 1365.28,-211.6"/>
<polygon fill="#63b8ff" stroke="#63b8ff" points="1037.42,-261.52 1027.81,-265.99 1038.11,-268.49 1037.42,-261.52"/>
</a>
</g>
</g>
<!-- Node4 -->
<g id="Node000004" class="node">
<title>Node4</title>
<g id="a_Node000004"><a xlink:href="main_8cpp.html" target="_top" xlink:title=" ">
<polygon fill="white" stroke="#666666" points="1207.5,-35.5 1069.5,-35.5 1069.5,-5.5 1207.5,-5.5 1207.5,-35.5"/>
<text text-anchor="start" x="1077.5" y="-23.5" font-family="Helvetica,sans-Serif" font-size="10.00">examples/monte_carlo</text>
<text text-anchor="middle" x="1138.5" y="-12.5" font-family="Helvetica,sans-Serif" font-size="10.00">/tic_tac_toe/src/main.cpp</text>
</a>
</g>
</g>
<!-- Node3&#45;&gt;Node4 -->
<g id="edge3_Node000003_Node000004" class="edge">
<title>Node3&#45;&gt;Node4</title>
<g id="a_edge3_Node000003_Node000004"><a xlink:title=" ">
<path fill="none" stroke="#63b8ff" d="M895.49,-79.53C898.53,-78.66 901.54,-77.81 904.5,-77 972.71,-58.32 990.72,-57.47 1059.5,-41 1066.78,-39.26 1074.43,-37.4 1081.99,-35.55"/>
<polygon fill="#63b8ff" stroke="#63b8ff" points="894.35,-76.22 885.74,-82.4 896.32,-82.94 894.35,-76.22"/>
</a>
</g>
</g>
<!-- Node3&#45;&gt;Node5 -->
<g id="edge4_Node000003_Node000005" class="edge">
<title>Node3&#45;&gt;Node5</title>
<g id="a_edge4_Node000003_Node000005"><a xlink:title=" ">
<path fill="none" stroke="#63b8ff" d="M756.02,-79.65C752.81,-78.73 749.62,-77.84 746.5,-77 676.13,-57.99 657.28,-58.41 586.5,-41 583.82,-40.34 581.1,-39.66 578.34,-38.96"/>
<polygon fill="#63b8ff" stroke="#63b8ff" points="755.12,-83.04 765.7,-82.49 757.09,-76.32 755.12,-83.04"/>
</a>
</g>
</g>
<!-- Node6 -->
<g id="Node000006" class="node">
<title>Node6</title>
<g id="a_Node000006"><a xlink:href="state_8cpp.html" target="_top" xlink:title=" ">
<polygon fill="white" stroke="#666666" points="1051,-41 922,-41 922,0 1051,0 1051,-41"/>
<text text-anchor="start" x="930" y="-29" font-family="Helvetica,sans-Serif" font-size="10.00">examples/monte_carlo</text>
<text text-anchor="start" x="930" y="-18" font-family="Helvetica,sans-Serif" font-size="10.00">/tic_tac_toe/src/models</text>
<text text-anchor="middle" x="986.5" y="-7" font-family="Helvetica,sans-Serif" font-size="10.00">/state.cpp</text>
</a>
</g>
</g>
<!-- Node3&#45;&gt;Node6 -->
<g id="edge5_Node000003_Node000006" class="edge">
<title>Node3&#45;&gt;Node6</title>
<g id="a_edge5_Node000003_Node000006"><a xlink:title=" ">
<path fill="none" stroke="#63b8ff" d="M873.96,-77.77C897.4,-66.05 925.16,-52.17 947.24,-41.13"/>
<polygon fill="#63b8ff" stroke="#63b8ff" points="872.26,-74.7 864.89,-82.31 875.39,-80.97 872.26,-74.7"/>
</a>
</g>
</g>
<!-- Node7 -->
<g id="Node000007" class="node">
<title>Node7</title>
<g id="a_Node000007"><a xlink:href="state__tests_8cpp.html" target="_top" xlink:title=" ">
<polygon fill="white" stroke="#666666" points="903.5,-41 769.5,-41 769.5,0 903.5,0 903.5,-41"/>
<text text-anchor="start" x="777.5" y="-29" font-family="Helvetica,sans-Serif" font-size="10.00">examples/monte_carlo</text>
<text text-anchor="start" x="777.5" y="-18" font-family="Helvetica,sans-Serif" font-size="10.00">/tic_tac_toe/tests/model</text>
<text text-anchor="middle" x="836.5" y="-7" font-family="Helvetica,sans-Serif" font-size="10.00">_tests/state_tests.cpp</text>
</a>
</g>
</g>
<!-- Node3&#45;&gt;Node7 -->
<g id="edge6_Node000003_Node000007" class="edge">
<title>Node3&#45;&gt;Node7</title>
<g id="a_edge6_Node000003_Node000007"><a xlink:title=" ">
<path fill="none" stroke="#63b8ff" d="M829.57,-72.19C830.99,-61.84 832.54,-50.5 833.81,-41.17"/>
<polygon fill="#63b8ff" stroke="#63b8ff" points="826.11,-71.72 828.22,-82.1 833.04,-72.67 826.11,-71.72"/>
</a>
</g>
</g>
<!-- Node8 -->
<g id="Node000008" class="node">
<title>Node8</title>
<g id="a_Node000008"><a xlink:href="simulation__tests_8cpp.html" target="_top" xlink:title=" ">
<polygon fill="white" stroke="#666666" points="751,-41 596,-41 596,0 751,0 751,-41"/>
<text text-anchor="start" x="604" y="-29" font-family="Helvetica,sans-Serif" font-size="10.00">examples/monte_carlo</text>
<text text-anchor="start" x="604" y="-18" font-family="Helvetica,sans-Serif" font-size="10.00">/tic_tac_toe/tests/simulation</text>
<text text-anchor="middle" x="673.5" y="-7" font-family="Helvetica,sans-Serif" font-size="10.00">_tests.cpp</text>
</a>
</g>
</g>
<!-- Node3&#45;&gt;Node8 -->
<g id="edge7_Node000003_Node000008" class="edge">
<title>Node3&#45;&gt;Node8</title>
<g id="a_edge7_Node000003_Node000008"><a xlink:title=" ">
<path fill="none" stroke="#63b8ff" d="M779.45,-77.61C757.39,-65.93 731.32,-52.12 710.56,-41.13"/>
<polygon fill="#63b8ff" stroke="#63b8ff" points="777.84,-80.72 788.32,-82.31 781.12,-74.53 777.84,-80.72"/>
</a>
</g>
</g>
<!-- Node9&#45;&gt;Node4 -->
<g id="edge9_Node000009_Node000004" class="edge">
<title>Node9&#45;&gt;Node4</title>
<g id="a_edge9_Node000009_Node000004"><a xlink:title=" ">
<path fill="none" stroke="#63b8ff" d="M1054.92,-160.51C1062.36,-136.93 1074.51,-103.55 1090.5,-77 1099.7,-61.72 1113.2,-46.56 1123.53,-35.95"/>
<polygon fill="#63b8ff" stroke="#63b8ff" points="1051.51,-159.69 1051.93,-170.28 1058.2,-161.74 1051.51,-159.69"/>
</a>
</g>
</g>
<!-- Node9&#45;&gt;Node10 -->
<g id="edge10_Node000009_Node000010" class="edge">
<title>Node9&#45;&gt;Node10</title>
<g id="a_edge10_Node000009_Node000010"><a xlink:title=" ">
<path fill="none" stroke="#63b8ff" d="M1024.79,-162.54C1014.81,-149.92 1003.2,-135.24 994.1,-123.74"/>
<polygon fill="#63b8ff" stroke="#63b8ff" points="1022.12,-164.81 1031.07,-170.49 1027.61,-160.47 1022.12,-164.81"/>
</a>
</g>
</g>
<!-- Node11&#45;&gt;Node10 -->
<g id="edge25_Node000011_Node000010" class="edge">
<title>Node11&#45;&gt;Node10</title>
<g id="a_edge25_Node000011_Node000010"><a xlink:title=" ">
<path fill="none" stroke="#63b8ff" d="M570.32,-182.4C654.82,-173.54 790.09,-156.48 904.5,-129 910.96,-127.45 917.66,-125.57 924.27,-123.56"/>
<polygon fill="#63b8ff" stroke="#63b8ff" points="569.86,-178.93 560.28,-183.44 570.58,-185.9 569.86,-178.93"/>
</a>
</g>
</g>
<!-- Node12 -->
<g id="Node000012" class="node">
<title>Node12</title>
<g id="a_Node000012"><a xlink:href="tic__tac__toe__factory_8h.html" target="_top" xlink:title=" ">
<polygon fill="white" stroke="#666666" points="737.5,-129 609.5,-129 609.5,-77 737.5,-77 737.5,-129"/>
<text text-anchor="start" x="617.5" y="-117" font-family="Helvetica,sans-Serif" font-size="10.00">examples/monte_carlo</text>
<text text-anchor="start" x="617.5" y="-106" font-family="Helvetica,sans-Serif" font-size="10.00">/tic_tac_toe/include</text>
<text text-anchor="start" x="617.5" y="-95" font-family="Helvetica,sans-Serif" font-size="10.00">/tic_tac_toe/factories</text>
<text text-anchor="middle" x="673.5" y="-84" font-family="Helvetica,sans-Serif" font-size="10.00">/tic_tac_toe_factory.h</text>
</a>
</g>
</g>
<!-- Node11&#45;&gt;Node12 -->
<g id="edge12_Node000011_Node000012" class="edge">
<title>Node11&#45;&gt;Node12</title>
<g id="a_edge12_Node000011_Node000012"><a xlink:title=" ">
<path fill="none" stroke="#63b8ff" d="M551.77,-160.59C573.77,-150.36 598.24,-138.99 619.43,-129.14"/>
<polygon fill="#63b8ff" stroke="#63b8ff" points="550.1,-157.5 542.51,-164.89 553.05,-163.85 550.1,-157.5"/>
</a>
</g>
</g>
<!-- Node14 -->
<g id="Node000014" class="node">
<title>Node14</title>
<g id="a_Node000014"><a xlink:href="move_8h.html" target="_top" xlink:title=" ">
<polygon fill="white" stroke="#666666" points="238.5,-123.5 86.5,-123.5 86.5,-82.5 238.5,-82.5 238.5,-123.5"/>
<text text-anchor="start" x="94.5" y="-111.5" font-family="Helvetica,sans-Serif" font-size="10.00">examples/monte_carlo</text>
<text text-anchor="start" x="94.5" y="-100.5" font-family="Helvetica,sans-Serif" font-size="10.00">/tic_tac_toe/include</text>
<text text-anchor="middle" x="162.5" y="-89.5" font-family="Helvetica,sans-Serif" font-size="10.00">/tic_tac_toe/models/move.h</text>
</a>
</g>
</g>
<!-- Node11&#45;&gt;Node14 -->
<g id="edge18_Node000011_Node000014" class="edge">
<title>Node11&#45;&gt;Node14</title>
<g id="a_edge18_Node000011_Node000014"><a xlink:title=" ">
<path fill="none" stroke="#63b8ff" d="M407.09,-170.21C360.29,-158.63 300.46,-143.48 247.5,-129 241.27,-127.3 234.79,-125.48 228.32,-123.63"/>
<polygon fill="#63b8ff" stroke="#63b8ff" points="406.32,-173.63 416.87,-172.63 408,-166.83 406.32,-173.63"/>
</a>
</g>
</g>
<!-- Node16 -->
<g id="Node000016" class="node">
<title>Node16</title>
<g id="a_Node000016"><a xlink:href="state_8h.html" target="_top" xlink:title=" ">
<polygon fill="white" stroke="#666666" points="406,-123.5 257,-123.5 257,-82.5 406,-82.5 406,-123.5"/>
<text text-anchor="start" x="265" y="-111.5" font-family="Helvetica,sans-Serif" font-size="10.00">examples/monte_carlo</text>
<text text-anchor="start" x="265" y="-100.5" font-family="Helvetica,sans-Serif" font-size="10.00">/tic_tac_toe/include</text>
<text text-anchor="middle" x="331.5" y="-89.5" font-family="Helvetica,sans-Serif" font-size="10.00">/tic_tac_toe/models/state.h</text>
</a>
</g>
</g>
<!-- Node11&#45;&gt;Node16 -->
<g id="edge21_Node000011_Node000016" class="edge">
<title>Node11&#45;&gt;Node16</title>
<g id="a_edge21_Node000011_Node000016"><a xlink:title=" ">
<path fill="none" stroke="#63b8ff" d="M433.72,-159.99C411.65,-147.9 386.82,-134.3 367.15,-123.53"/>
<polygon fill="#63b8ff" stroke="#63b8ff" points="432.22,-163.16 442.67,-164.89 435.58,-157.02 432.22,-163.16"/>
</a>
</g>
</g>
<!-- Node18 -->
<g id="Node000018" class="node">
<title>Node18</title>
<g id="a_Node000018"><a xlink:href="game__state_8cpp.html" target="_top" xlink:title=" ">
<polygon fill="white" stroke="#666666" points="553,-123.5 424,-123.5 424,-82.5 553,-82.5 553,-123.5"/>
<text text-anchor="start" x="432" y="-111.5" font-family="Helvetica,sans-Serif" font-size="10.00">examples/monte_carlo</text>
<text text-anchor="start" x="432" y="-100.5" font-family="Helvetica,sans-Serif" font-size="10.00">/tic_tac_toe/src/models</text>
<text text-anchor="middle" x="488.5" y="-89.5" font-family="Helvetica,sans-Serif" font-size="10.00">/game_state.cpp</text>
</a>
</g>
</g>
<!-- Node11&#45;&gt;Node18 -->
<g id="edge26_Node000011_Node000018" class="edge">
<title>Node11&#45;&gt;Node18</title>
<g id="a_edge26_Node000011_Node000018"><a xlink:title=" ">
<path fill="none" stroke="#63b8ff" d="M488.5,-154.45C488.5,-143.94 488.5,-132.82 488.5,-123.7"/>
<polygon fill="#63b8ff" stroke="#63b8ff" points="485,-154.66 488.5,-164.66 492,-154.66 485,-154.66"/>
</a>
</g>
</g>
<!-- Node12&#45;&gt;Node4 -->
<g id="edge14_Node000012_Node000004" class="edge">
<title>Node12&#45;&gt;Node4</title>
<g id="a_edge14_Node000012_Node000004"><a xlink:title=" ">
<path fill="none" stroke="#63b8ff" d="M747.81,-76.91C884.95,-47.04 924.92,-65.25 1059.5,-41 1067.98,-39.47 1076.91,-37.57 1085.58,-35.55"/>
<polygon fill="#63b8ff" stroke="#63b8ff" points="746.77,-73.56 737.77,-79.15 748.29,-80.39 746.77,-73.56"/>
</a>
</g>
</g>
<!-- Node12&#45;&gt;Node5 -->
<g id="edge15_Node000012_Node000005" class="edge">
<title>Node12&#45;&gt;Node5</title>
<g id="a_edge15_Node000012_Node000005"><a xlink:title=" ">
<path fill="none" stroke="#63b8ff" d="M614.67,-72.4C593.87,-61.94 571.01,-50.43 552.29,-41.02"/>
<polygon fill="#63b8ff" stroke="#63b8ff" points="613.25,-75.6 623.75,-76.97 616.39,-69.35 613.25,-75.6"/>
</a>
</g>
</g>
<!-- Node12&#45;&gt;Node7 -->
<g id="edge16_Node000012_Node000007" class="edge">
<title>Node12&#45;&gt;Node7</title>
<g id="a_edge16_Node000012_Node000007"><a xlink:title=" ">
<path fill="none" stroke="#63b8ff" d="M733.43,-72.4C754.62,-61.94 777.91,-50.43 796.98,-41.02"/>
<polygon fill="#63b8ff" stroke="#63b8ff" points="731.6,-69.4 724.18,-76.97 734.7,-75.68 731.6,-69.4"/>
</a>
</g>
</g>
<!-- Node12&#45;&gt;Node8 -->
<g id="edge17_Node000012_Node000008" class="edge">
<title>Node12&#45;&gt;Node8</title>
<g id="a_edge17_Node000012_Node000008"><a xlink:title=" ">
<path fill="none" stroke="#63b8ff" d="M673.5,-66.87C673.5,-58.05 673.5,-48.9 673.5,-41.15"/>
<polygon fill="#63b8ff" stroke="#63b8ff" points="670,-66.97 673.5,-76.97 677,-66.97 670,-66.97"/>
</a>
</g>
</g>
<!-- Node13 -->
<g id="Node000013" class="node">
<title>Node13</title>
<g id="a_Node000013"><a xlink:href="tic__tac__toe__factory_8cpp.html" target="_top" xlink:title=" ">
<polygon fill="white" stroke="#666666" points="283.5,-41 147.5,-41 147.5,0 283.5,0 283.5,-41"/>
<text text-anchor="start" x="155.5" y="-29" font-family="Helvetica,sans-Serif" font-size="10.00">examples/monte_carlo</text>
<text text-anchor="start" x="155.5" y="-18" font-family="Helvetica,sans-Serif" font-size="10.00">/tic_tac_toe/src/factories</text>
<text text-anchor="middle" x="215.5" y="-7" font-family="Helvetica,sans-Serif" font-size="10.00">/tic_tac_toe_factory.cpp</text>
</a>
</g>
</g>
<!-- Node12&#45;&gt;Node13 -->
<g id="edge13_Node000012_Node000013" class="edge">
<title>Node12&#45;&gt;Node13</title>
<g id="a_edge13_Node000012_Node000013"><a xlink:title=" ">
<path fill="none" stroke="#63b8ff" d="M599.42,-84.52C586.8,-81.81 573.8,-79.19 561.5,-77 442.75,-55.84 410.94,-63.84 292.5,-41 289.66,-40.45 286.76,-39.86 283.84,-39.24"/>
<polygon fill="#63b8ff" stroke="#63b8ff" points="598.92,-87.99 609.43,-86.7 600.41,-81.15 598.92,-87.99"/>
</a>
</g>
</g>
<!-- Node14&#45;&gt;Node13 -->
<g id="edge19_Node000014_Node000013" class="edge">
<title>Node14&#45;&gt;Node13</title>
<g id="a_edge19_Node000014_Node000013"><a xlink:title=" ">
<path fill="none" stroke="#63b8ff" d="M181.28,-73.48C188.32,-62.79 196.15,-50.88 202.55,-41.17"/>
<polygon fill="#63b8ff" stroke="#63b8ff" points="178.18,-71.82 175.6,-82.1 184.02,-75.67 178.18,-71.82"/>
</a>
</g>
</g>
<!-- Node15 -->
<g id="Node000015" class="node">
<title>Node15</title>
<g id="a_Node000015"><a xlink:href="move_8cpp.html" target="_top" xlink:title=" ">
<polygon fill="white" stroke="#666666" points="129,-41 0,-41 0,0 129,0 129,-41"/>
<text text-anchor="start" x="8" y="-29" font-family="Helvetica,sans-Serif" font-size="10.00">examples/monte_carlo</text>
<text text-anchor="start" x="8" y="-18" font-family="Helvetica,sans-Serif" font-size="10.00">/tic_tac_toe/src/models</text>
<text text-anchor="middle" x="64.5" y="-7" font-family="Helvetica,sans-Serif" font-size="10.00">/move.cpp</text>
</a>
</g>
</g>
<!-- Node14&#45;&gt;Node15 -->
<g id="edge20_Node000014_Node000015" class="edge">
<title>Node14&#45;&gt;Node15</title>
<g id="a_edge20_Node000014_Node000015"><a xlink:title=" ">
<path fill="none" stroke="#63b8ff" d="M130.74,-75.91C117.04,-64.65 101.28,-51.71 88.57,-41.27"/>
<polygon fill="#63b8ff" stroke="#63b8ff" points="128.58,-78.66 138.53,-82.31 133.02,-73.26 128.58,-78.66"/>
</a>
</g>
</g>
<!-- Node16&#45;&gt;Node6 -->
<g id="edge24_Node000016_Node000006" class="edge">
<title>Node16&#45;&gt;Node6</title>
<g id="a_edge24_Node000016_Node000006"><a xlink:title=" ">
<path fill="none" stroke="#63b8ff" d="M400.3,-80.02C405.08,-78.88 409.84,-77.86 414.5,-77 632.73,-36.76 693.6,-77.43 912.5,-41 915.51,-40.5 918.58,-39.93 921.68,-39.31"/>
<polygon fill="#63b8ff" stroke="#63b8ff" points="399.34,-76.65 390.5,-82.5 401.06,-83.44 399.34,-76.65"/>
</a>
</g>
</g>
<!-- Node16&#45;&gt;Node13 -->
<g id="edge22_Node000016_Node000013" class="edge">
<title>Node16&#45;&gt;Node13</title>
<g id="a_edge22_Node000016_Node000013"><a xlink:title=" ">
<path fill="none" stroke="#63b8ff" d="M294.81,-76.54C278.38,-65.14 259.31,-51.9 243.99,-41.27"/>
<polygon fill="#63b8ff" stroke="#63b8ff" points="292.91,-79.48 303.12,-82.31 296.9,-73.73 292.91,-79.48"/>
</a>
</g>
</g>
<!-- Node17 -->
<g id="Node000017" class="node">
<title>Node17</title>
<g id="a_Node000017"><a xlink:href="position_8cpp.html" target="_top" xlink:title=" ">
<polygon fill="white" stroke="#666666" points="431,-41 302,-41 302,0 431,0 431,-41"/>
<text text-anchor="start" x="310" y="-29" font-family="Helvetica,sans-Serif" font-size="10.00">examples/monte_carlo</text>
<text text-anchor="start" x="310" y="-18" font-family="Helvetica,sans-Serif" font-size="10.00">/tic_tac_toe/src/models</text>
<text text-anchor="middle" x="366.5" y="-7" font-family="Helvetica,sans-Serif" font-size="10.00">/position.cpp</text>
</a>
</g>
</g>
<!-- Node16&#45;&gt;Node17 -->
<g id="edge23_Node000016_Node000017" class="edge">
<title>Node16&#45;&gt;Node17</title>
<g id="a_edge23_Node000016_Node000017"><a xlink:title=" ">
<path fill="none" stroke="#63b8ff" d="M344.18,-72.84C348.76,-62.31 353.81,-50.69 357.95,-41.17"/>
<polygon fill="#63b8ff" stroke="#63b8ff" points="340.93,-71.53 340.15,-82.1 347.35,-74.33 340.93,-71.53"/>
</a>
</g>
</g>
<!-- Node19&#45;&gt;Node4 -->
<g id="edge28_Node000019_Node000004" class="edge">
<title>Node19&#45;&gt;Node4</title>
<g id="a_edge28_Node000019_Node000004"><a xlink:title=" ">
<path fill="none" stroke="#63b8ff" d="M1271.12,-160.76C1280.28,-136.37 1287.97,-101.72 1271.5,-77 1256.93,-55.14 1231.94,-41.87 1207.53,-33.83"/>
<polygon fill="#63b8ff" stroke="#63b8ff" points="1267.8,-159.62 1267.3,-170.2 1274.29,-162.24 1267.8,-159.62"/>
</a>
</g>
</g>
<!-- Node19&#45;&gt;Node6 -->
<g id="edge30_Node000019_Node000006" class="edge">
<title>Node19&#45;&gt;Node6</title>
<g id="a_edge30_Node000019_Node000006"><a xlink:title=" ">
<path fill="none" stroke="#63b8ff" d="M1261.04,-160.09C1262.29,-134.61 1259.56,-98.77 1238.5,-77 1182.38,-18.99 1139.11,-59.29 1060.5,-41 1057.39,-40.28 1054.22,-39.52 1051.02,-38.74"/>
<polygon fill="#63b8ff" stroke="#63b8ff" points="1257.54,-160.08 1260.31,-170.3 1264.52,-160.58 1257.54,-160.08"/>
</a>
</g>
</g>
<!-- Node19&#45;&gt;Node20 -->
<g id="edge29_Node000019_Node000020" class="edge">
<title>Node19&#45;&gt;Node20</title>
<g id="a_edge29_Node000019_Node000020"><a xlink:title=" ">
<path fill="none" stroke="#63b8ff" d="M1228.97,-163.62C1215.07,-150.77 1198.64,-135.57 1185.84,-123.74"/>
<polygon fill="#63b8ff" stroke="#63b8ff" points="1226.68,-166.27 1236.4,-170.49 1231.43,-161.13 1226.68,-166.27"/>
</a>
</g>
</g>
</g>
</svg>
