<?xml version="1.0" encoding="UTF-8" standalone="no"?>
<!DOCTYPE svg PUBLIC "-//W3C//DTD SVG 1.1//EN"
 "http://www.w3.org/Graphics/SVG/1.1/DTD/svg11.dtd">
<!-- Generated by graphviz version 2.43.0 (0)
 -->
<!-- Title: examples/monte_carlo/tic_tac_toe/include/tic_tac_toe/models/position.h Pages: 1 -->
<svg width="1506pt" height="456pt"
 viewBox="0.00 0.00 1505.50 456.00" xmlns="http://www.w3.org/2000/svg" xmlns:xlink="http://www.w3.org/1999/xlink">
<g id="graph0" class="graph" transform="scale(1 1) rotate(0) translate(4 452)">
<title>examples/monte_carlo/tic_tac_toe/include/tic_tac_toe/models/position.h</title>
<!-- Node1 -->
<g id="Node000001" class="node">
<title>Node1</title>
<g id="a_Node000001"><a xlink:title=" ">
<polygon fill="#999999" stroke="#666666" points="1055,-448 892,-448 892,-407 1055,-407 1055,-448"/>
<text text-anchor="start" x="900" y="-436" font-family="Helvetica,sans-Serif" font-size="10.00">examples/monte_carlo</text>
<text text-anchor="start" x="900" y="-425" font-family="Helvetica,sans-Serif" font-size="10.00">/tic_tac_toe/include</text>
<text text-anchor="middle" x="973.5" y="-414" font-family="Helvetica,sans-Serif" font-size="10.00">/tic_tac_toe/models/position.h</text>
</a>
</g>
</g>
<!-- Node2 -->
<g id="Node000002" class="node">
<title>Node2</title>
<g id="a_Node000002"><a xlink:href="tic__tac__toe__factory_8h.html" target="_top" xlink:title=" ">
<polygon fill="white" stroke="#666666" points="452.5,-129 324.5,-129 324.5,-77 452.5,-77 452.5,-129"/>
<text text-anchor="start" x="332.5" y="-117" font-family="Helvetica,sans-Serif" font-size="10.00">examples/monte_carlo</text>
<text text-anchor="start" x="332.5" y="-106" font-family="Helvetica,sans-Serif" font-size="10.00">/tic_tac_toe/include</text>
<text text-anchor="start" x="332.5" y="-95" font-family="Helvetica,sans-Serif" font-size="10.00">/tic_tac_toe/factories</text>
<text text-anchor="middle" x="388.5" y="-84" font-family="Helvetica,sans-Serif" font-size="10.00">/tic_tac_toe_factory.h</text>
</a>
</g>
</g>
<!-- Node1&#45;&gt;Node2 -->
<g id="edge1_Node000001_Node000002" class="edge">
<title>Node1&#45;&gt;Node2</title>
<g id="a_edge1_Node000001_Node000002"><a xlink:title=" ">
<path fill="none" stroke="#63b8ff" d="M885.02,-404.19C808.54,-382.67 696.72,-345.72 608.5,-294 528.18,-246.91 449.36,-169.01 411.6,-129.16"/>
<polygon fill="#63b8ff" stroke="#63b8ff" points="884.53,-407.69 895.11,-407 886.41,-400.95 884.53,-407.69"/>
</a>
</g>
</g>
<!-- Node8 -->
<g id="Node000008" class="node">
<title>Node8</title>
<g id="a_Node000008"><a xlink:href="board_8h.html" target="_top" xlink:title=" ">
<polygon fill="white" stroke="#666666" points="997.5,-294 845.5,-294 845.5,-253 997.5,-253 997.5,-294"/>
<text text-anchor="start" x="853.5" y="-282" font-family="Helvetica,sans-Serif" font-size="10.00">examples/monte_carlo</text>
<text text-anchor="start" x="853.5" y="-271" font-family="Helvetica,sans-Serif" font-size="10.00">/tic_tac_toe/include</text>
<text text-anchor="middle" x="921.5" y="-260" font-family="Helvetica,sans-Serif" font-size="10.00">/tic_tac_toe/models/board.h</text>
</a>
</g>
</g>
<!-- Node1&#45;&gt;Node8 -->
<g id="edge7_Node000001_Node000008" class="edge">
<title>Node1&#45;&gt;Node8</title>
<g id="a_edge7_Node000001_Node000008"><a xlink:title=" ">
<path fill="none" stroke="#63b8ff" d="M954.09,-398.11C949.04,-389.68 944.03,-380.23 940.5,-371 930.74,-345.48 925.76,-314.17 923.39,-294.27"/>
<polygon fill="#63b8ff" stroke="#63b8ff" points="951.25,-400.17 959.53,-406.79 957.19,-396.46 951.25,-400.17"/>
</a>
</g>
</g>
<!-- Node14 -->
<g id="Node000014" class="node">
<title>Node14</title>
<g id="a_Node000014"><a xlink:href="move_8h.html" target="_top" xlink:title=" ">
<polygon fill="white" stroke="#666666" points="268.5,-123.5 116.5,-123.5 116.5,-82.5 268.5,-82.5 268.5,-123.5"/>
<text text-anchor="start" x="124.5" y="-111.5" font-family="Helvetica,sans-Serif" font-size="10.00">examples/monte_carlo</text>
<text text-anchor="start" x="124.5" y="-100.5" font-family="Helvetica,sans-Serif" font-size="10.00">/tic_tac_toe/include</text>
<text text-anchor="middle" x="192.5" y="-89.5" font-family="Helvetica,sans-Serif" font-size="10.00">/tic_tac_toe/models/move.h</text>
</a>
</g>
</g>
<!-- Node1&#45;&gt;Node14 -->
<g id="edge37_Node000001_Node000014" class="edge">
<title>Node1&#45;&gt;Node14</title>
<g id="a_edge37_Node000001_Node000014"><a xlink:title=" ">
<path fill="none" stroke="#63b8ff" d="M881.78,-416.84C822.53,-408.76 744.47,-394.65 678.5,-371 492.72,-304.41 292.83,-173.25 220.56,-123.64"/>
<polygon fill="#63b8ff" stroke="#63b8ff" points="881.49,-420.33 891.86,-418.18 882.41,-413.39 881.49,-420.33"/>
</a>
</g>
</g>
<!-- Node17 -->
<g id="Node000017" class="node">
<title>Node17</title>
<g id="a_Node000017"><a xlink:href="position_8cpp.html" target="_top" xlink:title=" ">
<polygon fill="white" stroke="#666666" points="1354,-41 1225,-41 1225,0 1354,0 1354,-41"/>
<text text-anchor="start" x="1233" y="-29" font-family="Helvetica,sans-Serif" font-size="10.00">examples/monte_carlo</text>
<text text-anchor="start" x="1233" y="-18" font-family="Helvetica,sans-Serif" font-size="10.00">/tic_tac_toe/src/models</text>
<text text-anchor="middle" x="1289.5" y="-7" font-family="Helvetica,sans-Serif" font-size="10.00">/position.cpp</text>
</a>
</g>
</g>
<!-- Node1&#45;&gt;Node17 -->
<g id="edge44_Node000001_Node000017" class="edge">
<title>Node1&#45;&gt;Node17</title>
<g id="a_edge44_Node000001_Node000017"><a xlink:title=" ">
<path fill="none" stroke="#63b8ff" d="M1065.23,-418.82C1215.48,-403.7 1497.5,-363.45 1497.5,-274.5 1497.5,-274.5 1497.5,-274.5 1497.5,-190 1497.5,-113.2 1410.83,-65.34 1349.38,-41.06"/>
<polygon fill="#63b8ff" stroke="#63b8ff" points="1064.69,-415.36 1055.09,-419.83 1065.38,-422.33 1064.69,-415.36"/>
</a>
</g>
</g>
<!-- Node21 -->
<g id="Node000021" class="node">
<title>Node21</title>
<g id="a_Node000021"><a xlink:href="board_8cpp.html" target="_top" xlink:title=" ">
<polygon fill="white" stroke="#666666" points="1469,-211.5 1340,-211.5 1340,-170.5 1469,-170.5 1469,-211.5"/>
<text text-anchor="start" x="1348" y="-199.5" font-family="Helvetica,sans-Serif" font-size="10.00">examples/monte_carlo</text>
<text text-anchor="start" x="1348" y="-188.5" font-family="Helvetica,sans-Serif" font-size="10.00">/tic_tac_toe/src/models</text>
<text text-anchor="middle" x="1404.5" y="-177.5" font-family="Helvetica,sans-Serif" font-size="10.00">/board.cpp</text>
</a>
</g>
</g>
<!-- Node1&#45;&gt;Node21 -->
<g id="edge43_Node000001_Node000021" class="edge">
<title>Node1&#45;&gt;Node21</title>
<g id="a_edge43_Node000001_Node000021"><a xlink:title=" ">
<path fill="none" stroke="#63b8ff" d="M1038.2,-403.3C1061.95,-394.1 1088.82,-382.88 1112.5,-371 1213.22,-320.48 1324.83,-246.67 1376.01,-211.73"/>
<polygon fill="#63b8ff" stroke="#63b8ff" points="1036.66,-400.14 1028.57,-406.98 1039.16,-406.68 1036.66,-400.14"/>
</a>
</g>
</g>
<!-- Node23 -->
<g id="Node000023" class="node">
<title>Node23</title>
<g id="a_Node000023"><a xlink:href="player_8h.html" target="_top" xlink:title=" ">
<polygon fill="white" stroke="#666666" points="1103.5,-371 949.5,-371 949.5,-330 1103.5,-330 1103.5,-371"/>
<text text-anchor="start" x="957.5" y="-359" font-family="Helvetica,sans-Serif" font-size="10.00">examples/monte_carlo</text>
<text text-anchor="start" x="957.5" y="-348" font-family="Helvetica,sans-Serif" font-size="10.00">/tic_tac_toe/include</text>
<text text-anchor="middle" x="1026.5" y="-337" font-family="Helvetica,sans-Serif" font-size="10.00">/tic_tac_toe/models/player.h</text>
</a>
</g>
</g>
<!-- Node1&#45;&gt;Node23 -->
<g id="edge38_Node000001_Node000023" class="edge">
<title>Node1&#45;&gt;Node23</title>
<g id="a_edge38_Node000001_Node000023"><a xlink:title=" ">
<path fill="none" stroke="#63b8ff" d="M993.36,-398.39C999.79,-389.3 1006.78,-379.41 1012.67,-371.07"/>
<polygon fill="#63b8ff" stroke="#63b8ff" points="990.34,-396.61 987.43,-406.79 996.05,-400.65 990.34,-396.61"/>
</a>
</g>
</g>
<!-- Node3 -->
<g id="Node000003" class="node">
<title>Node3</title>
<g id="a_Node000003"><a xlink:href="tic__tac__toe__factory_8cpp.html" target="_top" xlink:title=" ">
<polygon fill="white" stroke="#666666" points="283.5,-41 147.5,-41 147.5,0 283.5,0 283.5,-41"/>
<text text-anchor="start" x="155.5" y="-29" font-family="Helvetica,sans-Serif" font-size="10.00">examples/monte_carlo</text>
<text text-anchor="start" x="155.5" y="-18" font-family="Helvetica,sans-Serif" font-size="10.00">/tic_tac_toe/src/factories</text>
<text text-anchor="middle" x="215.5" y="-7" font-family="Helvetica,sans-Serif" font-size="10.00">/tic_tac_toe_factory.cpp</text>
</a>
</g>
</g>
<!-- Node2&#45;&gt;Node3 -->
<g id="edge2_Node000002_Node000003" class="edge">
<title>Node2&#45;&gt;Node3</title>
<g id="a_edge2_Node000002_Node000003"><a xlink:title=" ">
<path fill="none" stroke="#63b8ff" d="M325.5,-72.68C302.84,-62.14 277.86,-50.52 257.44,-41.02"/>
<polygon fill="#63b8ff" stroke="#63b8ff" points="324.17,-75.92 334.71,-76.97 327.12,-69.58 324.17,-75.92"/>
</a>
</g>
</g>
<!-- Node4 -->
<g id="Node000004" class="node">
<title>Node4</title>
<g id="a_Node000004"><a xlink:href="main_8cpp.html" target="_top" xlink:title=" ">
<polygon fill="white" stroke="#666666" points="913.5,-35.5 775.5,-35.5 775.5,-5.5 913.5,-5.5 913.5,-35.5"/>
<text text-anchor="start" x="783.5" y="-23.5" font-family="Helvetica,sans-Serif" font-size="10.00">examples/monte_carlo</text>
<text text-anchor="middle" x="844.5" y="-12.5" font-family="Helvetica,sans-Serif" font-size="10.00">/tic_tac_toe/src/main.cpp</text>
</a>
</g>
</g>
<!-- Node2&#45;&gt;Node4 -->
<g id="edge3_Node000002_Node000004" class="edge">
<title>Node2&#45;&gt;Node4</title>
<g id="a_edge3_Node000002_Node000004"><a xlink:title=" ">
<path fill="none" stroke="#63b8ff" d="M462.55,-76.97C595.97,-47.64 634.78,-64.78 765.5,-41 773.98,-39.46 782.9,-37.54 791.58,-35.52"/>
<polygon fill="#63b8ff" stroke="#63b8ff" points="461.76,-73.56 452.77,-79.16 463.3,-80.39 461.76,-73.56"/>
</a>
</g>
</g>
<!-- Node5 -->
<g id="Node000005" class="node">
<title>Node5</title>
<g id="a_Node000005"><a xlink:href="bot_8cpp.html" target="_top" xlink:title=" ">
<polygon fill="white" stroke="#666666" points="431,-41 302,-41 302,0 431,0 431,-41"/>
<text text-anchor="start" x="310" y="-29" font-family="Helvetica,sans-Serif" font-size="10.00">examples/monte_carlo</text>
<text text-anchor="start" x="310" y="-18" font-family="Helvetica,sans-Serif" font-size="10.00">/tic_tac_toe/src/models</text>
<text text-anchor="middle" x="366.5" y="-7" font-family="Helvetica,sans-Serif" font-size="10.00">/bot.cpp</text>
</a>
</g>
</g>
<!-- Node2&#45;&gt;Node5 -->
<g id="edge4_Node000002_Node000005" class="edge">
<title>Node2&#45;&gt;Node5</title>
<g id="a_edge4_Node000002_Node000005"><a xlink:title=" ">
<path fill="none" stroke="#63b8ff" d="M378.98,-67.16C376.54,-58.25 374.01,-48.99 371.87,-41.15"/>
<polygon fill="#63b8ff" stroke="#63b8ff" points="375.65,-68.25 381.66,-76.97 382.4,-66.4 375.65,-68.25"/>
</a>
</g>
</g>
<!-- Node6 -->
<g id="Node000006" class="node">
<title>Node6</title>
<g id="a_Node000006"><a xlink:href="state__tests_8cpp.html" target="_top" xlink:title=" ">
<polygon fill="white" stroke="#666666" points="583.5,-41 449.5,-41 449.5,0 583.5,0 583.5,-41"/>
<text text-anchor="start" x="457.5" y="-29" font-family="Helvetica,sans-Serif" font-size="10.00">examples/monte_carlo</text>
<text text-anchor="start" x="457.5" y="-18" font-family="Helvetica,sans-Serif" font-size="10.00">/tic_tac_toe/tests/model</text>
<text text-anchor="middle" x="516.5" y="-7" font-family="Helvetica,sans-Serif" font-size="10.00">_tests/state_tests.cpp</text>
</a>
</g>
</g>
<!-- Node2&#45;&gt;Node6 -->
<g id="edge5_Node000002_Node000006" class="edge">
<title>Node2&#45;&gt;Node6</title>
<g id="a_edge5_Node000002_Node000006"><a xlink:title=" ">
<path fill="none" stroke="#63b8ff" d="M437.1,-71.44C453.25,-61.28 470.79,-50.25 485.26,-41.15"/>
<polygon fill="#63b8ff" stroke="#63b8ff" points="434.9,-68.68 428.3,-76.97 438.63,-74.61 434.9,-68.68"/>
</a>
</g>
</g>
<!-- Node7 -->
<g id="Node000007" class="node">
<title>Node7</title>
<g id="a_Node000007"><a xlink:href="simulation__tests_8cpp.html" target="_top" xlink:title=" ">
<polygon fill="white" stroke="#666666" points="757,-41 602,-41 602,0 757,0 757,-41"/>
<text text-anchor="start" x="610" y="-29" font-family="Helvetica,sans-Serif" font-size="10.00">examples/monte_carlo</text>
<text text-anchor="start" x="610" y="-18" font-family="Helvetica,sans-Serif" font-size="10.00">/tic_tac_toe/tests/simulation</text>
<text text-anchor="middle" x="679.5" y="-7" font-family="Helvetica,sans-Serif" font-size="10.00">_tests.cpp</text>
</a>
</g>
</g>
<!-- Node2&#45;&gt;Node7 -->
<g id="edge6_Node000002_Node000007" class="edge">
<title>Node2&#45;&gt;Node7</title>
<g id="a_edge6_Node000002_Node000007"><a xlink:title=" ">
<path fill="none" stroke="#63b8ff" d="M462.51,-76.78C513.82,-61.67 562.53,-49.23 601.9,-39.64"/>
<polygon fill="#63b8ff" stroke="#63b8ff" points="461.49,-73.43 452.9,-79.63 463.48,-80.14 461.49,-73.43"/>
</a>
</g>
</g>
<!-- Node8&#45;&gt;Node5 -->
<g id="edge33_Node000008_Node000005" class="edge">
<title>Node8&#45;&gt;Node5</title>
<g id="a_edge33_Node000008_Node000005"><a xlink:title=" ">
<path fill="none" stroke="#63b8ff" d="M834.96,-265.75C682.05,-251.74 374.6,-213.5 315.5,-129 302.25,-110.06 307.11,-98.53 315.5,-77 320.87,-63.22 331.44,-50.79 341.56,-41.21"/>
<polygon fill="#63b8ff" stroke="#63b8ff" points="834.98,-269.27 845.25,-266.68 835.61,-262.3 834.98,-269.27"/>
</a>
</g>
</g>
<!-- Node9 -->
<g id="Node000009" class="node">
<title>Node9</title>
<g id="a_Node000009"><a xlink:href="bot_8h.html" target="_top" xlink:title=" ">
<polygon fill="white" stroke="#666666" points="610.5,-123.5 470.5,-123.5 470.5,-82.5 610.5,-82.5 610.5,-123.5"/>
<text text-anchor="start" x="478.5" y="-111.5" font-family="Helvetica,sans-Serif" font-size="10.00">examples/monte_carlo</text>
<text text-anchor="start" x="478.5" y="-100.5" font-family="Helvetica,sans-Serif" font-size="10.00">/tic_tac_toe/include</text>
<text text-anchor="middle" x="540.5" y="-89.5" font-family="Helvetica,sans-Serif" font-size="10.00">/tic_tac_toe/models/bot.h</text>
</a>
</g>
</g>
<!-- Node8&#45;&gt;Node9 -->
<g id="edge8_Node000008_Node000009" class="edge">
<title>Node8&#45;&gt;Node9</title>
<g id="a_edge8_Node000008_Node000009"><a xlink:title=" ">
<path fill="none" stroke="#63b8ff" d="M835.26,-266.35C752.65,-258.94 635.26,-243.99 598.5,-217 567.4,-194.16 551.71,-149.74 544.9,-123.92"/>
<polygon fill="#63b8ff" stroke="#63b8ff" points="835.14,-269.85 845.41,-267.24 835.75,-262.88 835.14,-269.85"/>
</a>
</g>
</g>
<!-- Node11 -->
<g id="Node000011" class="node">
<title>Node11</title>
<g id="a_Node000011"><a xlink:href="game_8h.html" target="_top" xlink:title=" ">
<polygon fill="white" stroke="#666666" points="959.5,-211.5 807.5,-211.5 807.5,-170.5 959.5,-170.5 959.5,-211.5"/>
<text text-anchor="start" x="815.5" y="-199.5" font-family="Helvetica,sans-Serif" font-size="10.00">examples/monte_carlo</text>
<text text-anchor="start" x="815.5" y="-188.5" font-family="Helvetica,sans-Serif" font-size="10.00">/tic_tac_toe/include</text>
<text text-anchor="middle" x="883.5" y="-177.5" font-family="Helvetica,sans-Serif" font-size="10.00">/tic_tac_toe/models/game.h</text>
</a>
</g>
</g>
<!-- Node8&#45;&gt;Node11 -->
<g id="edge14_Node000008_Node000011" class="edge">
<title>Node8&#45;&gt;Node11</title>
<g id="a_edge14_Node000008_Node000011"><a xlink:title=" ">
<path fill="none" stroke="#63b8ff" d="M907.73,-243.34C902.76,-232.81 897.28,-221.19 892.79,-211.67"/>
<polygon fill="#63b8ff" stroke="#63b8ff" points="904.67,-245.05 912.11,-252.6 911,-242.06 904.67,-245.05"/>
</a>
</g>
</g>
<!-- Node12 -->
<g id="Node000012" class="node">
<title>Node12</title>
<g id="a_Node000012"><a xlink:href="game_8cpp.html" target="_top" xlink:title=" ">
<polygon fill="white" stroke="#666666" points="1072,-123.5 943,-123.5 943,-82.5 1072,-82.5 1072,-123.5"/>
<text text-anchor="start" x="951" y="-111.5" font-family="Helvetica,sans-Serif" font-size="10.00">examples/monte_carlo</text>
<text text-anchor="start" x="951" y="-100.5" font-family="Helvetica,sans-Serif" font-size="10.00">/tic_tac_toe/src/models</text>
<text text-anchor="middle" x="1007.5" y="-89.5" font-family="Helvetica,sans-Serif" font-size="10.00">/game.cpp</text>
</a>
</g>
</g>
<!-- Node8&#45;&gt;Node12 -->
<g id="edge34_Node000008_Node000012" class="edge">
<title>Node8&#45;&gt;Node12</title>
<g id="a_edge34_Node000008_Node000012"><a xlink:title=" ">
<path fill="none" stroke="#63b8ff" d="M835.91,-249.4C821.09,-241.53 807.55,-231.02 798.5,-217 785.96,-197.59 784.42,-183.33 798.5,-165 836.33,-115.76 874.05,-146.95 933.5,-129 939.08,-127.31 944.88,-125.49 950.66,-123.62"/>
<polygon fill="#63b8ff" stroke="#63b8ff" points="834.76,-252.73 845.28,-253.97 837.82,-246.44 834.76,-252.73"/>
</a>
</g>
</g>
<!-- Node13 -->
<g id="Node000013" class="node">
<title>Node13</title>
<g id="a_Node000013"><a xlink:href="game__state_8h.html" target="_top" xlink:title=" ">
<polygon fill="white" stroke="#666666" points="751,-217 608,-217 608,-165 751,-165 751,-217"/>
<text text-anchor="start" x="616" y="-205" font-family="Helvetica,sans-Serif" font-size="10.00">examples/monte_carlo</text>
<text text-anchor="start" x="616" y="-194" font-family="Helvetica,sans-Serif" font-size="10.00">/tic_tac_toe/include</text>
<text text-anchor="start" x="616" y="-183" font-family="Helvetica,sans-Serif" font-size="10.00">/tic_tac_toe/models/game</text>
<text text-anchor="middle" x="679.5" y="-172" font-family="Helvetica,sans-Serif" font-size="10.00">_state.h</text>
</a>
</g>
</g>
<!-- Node8&#45;&gt;Node13 -->
<g id="edge17_Node000008_Node000013" class="edge">
<title>Node8&#45;&gt;Node13</title>
<g id="a_edge17_Node000008_Node000013"><a xlink:title=" ">
<path fill="none" stroke="#63b8ff" d="M852.95,-249.7C821.15,-239.12 783.37,-226.55 751.2,-215.85"/>
<polygon fill="#63b8ff" stroke="#63b8ff" points="852.02,-253.08 862.61,-252.91 854.23,-246.43 852.02,-253.08"/>
</a>
</g>
</g>
<!-- Node19 -->
<g id="Node000019" class="node">
<title>Node19</title>
<g id="a_Node000019"><a xlink:href="human_8h.html" target="_top" xlink:title=" ">
<polygon fill="white" stroke="#666666" points="1321.5,-211.5 1163.5,-211.5 1163.5,-170.5 1321.5,-170.5 1321.5,-211.5"/>
<text text-anchor="start" x="1171.5" y="-199.5" font-family="Helvetica,sans-Serif" font-size="10.00">examples/monte_carlo</text>
<text text-anchor="start" x="1171.5" y="-188.5" font-family="Helvetica,sans-Serif" font-size="10.00">/tic_tac_toe/include</text>
<text text-anchor="middle" x="1242.5" y="-177.5" font-family="Helvetica,sans-Serif" font-size="10.00">/tic_tac_toe/models/human.h</text>
</a>
</g>
</g>
<!-- Node8&#45;&gt;Node19 -->
<g id="edge28_Node000008_Node000019" class="edge">
<title>Node8&#45;&gt;Node19</title>
<g id="a_edge28_Node000008_Node000019"><a xlink:title=" ">
<path fill="none" stroke="#63b8ff" d="M1007.34,-252.98C1051.44,-242.72 1105.97,-229.67 1154.5,-217 1161.11,-215.28 1167.98,-213.42 1174.84,-211.54"/>
<polygon fill="#63b8ff" stroke="#63b8ff" points="1006.47,-249.59 997.52,-255.26 1008.05,-256.41 1006.47,-249.59"/>
</a>
</g>
</g>
<!-- Node20 -->
<g id="Node000020" class="node">
<title>Node20</title>
<g id="a_Node000020"><a xlink:href="human_8cpp.html" target="_top" xlink:title=" ">
<polygon fill="white" stroke="#666666" points="1258,-123.5 1129,-123.5 1129,-82.5 1258,-82.5 1258,-123.5"/>
<text text-anchor="start" x="1137" y="-111.5" font-family="Helvetica,sans-Serif" font-size="10.00">examples/monte_carlo</text>
<text text-anchor="start" x="1137" y="-100.5" font-family="Helvetica,sans-Serif" font-size="10.00">/tic_tac_toe/src/models</text>
<text text-anchor="middle" x="1193.5" y="-89.5" font-family="Helvetica,sans-Serif" font-size="10.00">/human.cpp</text>
</a>
</g>
</g>
<!-- Node8&#45;&gt;Node20 -->
<g id="edge35_Node000008_Node000020" class="edge">
<title>Node8&#45;&gt;Node20</title>
<g id="a_edge35_Node000008_Node000020"><a xlink:title=" ">
<path fill="none" stroke="#63b8ff" d="M945.47,-244.99C952.98,-236.16 961.21,-226.27 968.5,-217 986.21,-194.51 983.33,-181.81 1006.5,-165 1016.85,-157.49 1079.08,-137.9 1128.95,-122.92"/>
<polygon fill="#63b8ff" stroke="#63b8ff" points="942.67,-242.88 938.82,-252.75 947.98,-247.43 942.67,-242.88"/>
</a>
</g>
</g>
<!-- Node8&#45;&gt;Node21 -->
<g id="edge32_Node000008_Node000021" class="edge">
<title>Node8&#45;&gt;Node21</title>
<g id="a_edge32_Node000008_Node000021"><a xlink:title=" ">
<path fill="none" stroke="#63b8ff" d="M1007.86,-265.61C1091.24,-257.82 1220.67,-242.76 1330.5,-217 1337.1,-215.45 1343.95,-213.56 1350.69,-211.5"/>
<polygon fill="#63b8ff" stroke="#63b8ff" points="1007.31,-262.14 997.67,-266.54 1007.95,-269.11 1007.31,-262.14"/>
</a>
</g>
</g>
<!-- Node22 -->
<g id="Node000022" class="node">
<title>Node22</title>
<g id="a_Node000022"><a xlink:href="player_8cpp.html" target="_top" xlink:title=" ">
<polygon fill="white" stroke="#666666" points="1145,-211.5 1016,-211.5 1016,-170.5 1145,-170.5 1145,-211.5"/>
<text text-anchor="start" x="1024" y="-199.5" font-family="Helvetica,sans-Serif" font-size="10.00">examples/monte_carlo</text>
<text text-anchor="start" x="1024" y="-188.5" font-family="Helvetica,sans-Serif" font-size="10.00">/tic_tac_toe/src/models</text>
<text text-anchor="middle" x="1080.5" y="-177.5" font-family="Helvetica,sans-Serif" font-size="10.00">/player.cpp</text>
</a>
</g>
</g>
<!-- Node8&#45;&gt;Node22 -->
<g id="edge36_Node000008_Node000022" class="edge">
<title>Node8&#45;&gt;Node22</title>
<g id="a_edge36_Node000008_Node000022"><a xlink:title=" ">
<path fill="none" stroke="#63b8ff" d="M969.36,-248.27C992.5,-236.55 1019.92,-222.67 1041.73,-211.63"/>
<polygon fill="#63b8ff" stroke="#63b8ff" points="967.74,-245.17 960.4,-252.81 970.9,-251.41 967.74,-245.17"/>
</a>
</g>
</g>
<!-- Node9&#45;&gt;Node4 -->
<g id="edge9_Node000009_Node000004" class="edge">
<title>Node9&#45;&gt;Node4</title>
<g id="a_edge9_Node000009_Node000004"><a xlink:title=" ">
<path fill="none" stroke="#63b8ff" d="M610.51,-79.58C613.54,-78.69 616.55,-77.83 619.5,-77 683.84,-58.91 700.61,-57.01 765.5,-41 772.63,-39.24 780.13,-37.39 787.54,-35.56"/>
<polygon fill="#63b8ff" stroke="#63b8ff" points="609.35,-76.28 600.76,-82.49 611.35,-82.98 609.35,-76.28"/>
</a>
</g>
</g>
<!-- Node9&#45;&gt;Node5 -->
<g id="edge10_Node000009_Node000005" class="edge">
<title>Node9&#45;&gt;Node5</title>
<g id="a_edge10_Node000009_Node000005"><a xlink:title=" ">
<path fill="none" stroke="#63b8ff" d="M488.79,-78.08C463.33,-66.3 433.01,-52.27 408.93,-41.13"/>
<polygon fill="#63b8ff" stroke="#63b8ff" points="487.39,-81.29 497.93,-82.31 490.33,-74.93 487.39,-81.29"/>
</a>
</g>
</g>
<!-- Node9&#45;&gt;Node6 -->
<g id="edge12_Node000009_Node000006" class="edge">
<title>Node9&#45;&gt;Node6</title>
<g id="a_edge12_Node000009_Node000006"><a xlink:title=" ">
<path fill="none" stroke="#63b8ff" d="M531.71,-72.51C528.6,-62.07 525.17,-50.59 522.36,-41.17"/>
<polygon fill="#63b8ff" stroke="#63b8ff" points="528.36,-73.52 534.57,-82.1 535.06,-71.52 528.36,-73.52"/>
</a>
</g>
</g>
<!-- Node9&#45;&gt;Node7 -->
<g id="edge13_Node000009_Node000007" class="edge">
<title>Node9&#45;&gt;Node7</title>
<g id="a_edge13_Node000009_Node000007"><a xlink:title=" ">
<path fill="none" stroke="#63b8ff" d="M583.39,-77.16C603.31,-65.63 626.67,-52.1 645.37,-41.27"/>
<polygon fill="#63b8ff" stroke="#63b8ff" points="581.4,-74.27 574.5,-82.31 584.91,-80.32 581.4,-74.27"/>
</a>
</g>
</g>
<!-- Node10 -->
<g id="Node000010" class="node">
<title>Node10</title>
<g id="a_Node000010"><a xlink:href="state_8cpp.html" target="_top" xlink:title=" ">
<polygon fill="white" stroke="#666666" points="1061,-41 932,-41 932,0 1061,0 1061,-41"/>
<text text-anchor="start" x="940" y="-29" font-family="Helvetica,sans-Serif" font-size="10.00">examples/monte_carlo</text>
<text text-anchor="start" x="940" y="-18" font-family="Helvetica,sans-Serif" font-size="10.00">/tic_tac_toe/src/models</text>
<text text-anchor="middle" x="996.5" y="-7" font-family="Helvetica,sans-Serif" font-size="10.00">/state.cpp</text>
</a>
</g>
</g>
<!-- Node9&#45;&gt;Node10 -->
<g id="edge11_Node000009_Node000010" class="edge">
<title>Node9&#45;&gt;Node10</title>
<g id="a_edge11_Node000009_Node000010"><a xlink:title=" ">
<path fill="none" stroke="#63b8ff" d="M607.79,-79.78C611.73,-78.77 615.65,-77.83 619.5,-77 752.07,-48.42 789.27,-66.34 922.5,-41 925.5,-40.43 928.56,-39.8 931.64,-39.14"/>
<polygon fill="#63b8ff" stroke="#63b8ff" points="606.72,-76.44 597.98,-82.43 608.54,-83.2 606.72,-76.44"/>
</a>
</g>
</g>
<!-- Node11&#45;&gt;Node4 -->
<g id="edge15_Node000011_Node000004" class="edge">
<title>Node11&#45;&gt;Node4</title>
<g id="a_edge15_Node000011_Node000004"><a xlink:title=" ">
<path fill="none" stroke="#63b8ff" d="M963.23,-167.65C1016.2,-152.42 1076.72,-134.13 1080.5,-129 1094.21,-110.4 1094.91,-95.07 1080.5,-77 1035.58,-20.7 992.55,-57.73 922.5,-41 915.3,-39.28 907.75,-37.44 900.28,-35.6"/>
<polygon fill="#63b8ff" stroke="#63b8ff" points="962.09,-164.34 953.44,-170.46 964.02,-171.07 962.09,-164.34"/>
</a>
</g>
</g>
<!-- Node11&#45;&gt;Node12 -->
<g id="edge16_Node000011_Node000012" class="edge">
<title>Node11&#45;&gt;Node12</title>
<g id="a_edge16_Node000011_Node000012"><a xlink:title=" ">
<path fill="none" stroke="#63b8ff" d="M920,-164.69C938.85,-151.61 961.51,-135.9 979.04,-123.74"/>
<polygon fill="#63b8ff" stroke="#63b8ff" points="917.86,-161.91 911.64,-170.49 921.85,-167.66 917.86,-161.91"/>
</a>
</g>
</g>
<!-- Node13&#45;&gt;Node2 -->
<g id="edge18_Node000013_Node000002" class="edge">
<title>Node13&#45;&gt;Node2</title>
<g id="a_edge18_Node000013_Node000002"><a xlink:title=" ">
<path fill="none" stroke="#63b8ff" d="M597.83,-168.34C556.77,-157.14 506.32,-142.93 461.5,-129 458.56,-128.09 455.55,-127.13 452.53,-126.16"/>
<polygon fill="#63b8ff" stroke="#63b8ff" points="596.95,-171.72 607.52,-170.97 598.79,-164.97 596.95,-171.72"/>
</a>
</g>
</g>
<!-- Node13&#45;&gt;Node12 -->
<g id="edge26_Node000013_Node000012" class="edge">
<title>Node13&#45;&gt;Node12</title>
<g id="a_edge26_Node000013_Node000012"><a xlink:title=" ">
<path fill="none" stroke="#63b8ff" d="M761.08,-166.13C762.57,-165.74 764.04,-165.37 765.5,-165 839.54,-146.33 859.87,-149.25 933.5,-129 939.51,-127.35 945.76,-125.48 951.95,-123.53"/>
<polygon fill="#63b8ff" stroke="#63b8ff" points="759.96,-162.8 751.19,-168.74 761.75,-169.57 759.96,-162.8"/>
</a>
</g>
</g>
<!-- Node13&#45;&gt;Node14 -->
<g id="edge19_Node000013_Node000014" class="edge">
<title>Node13&#45;&gt;Node14</title>
<g id="a_edge19_Node000013_Node000014"><a xlink:title=" ">
<path fill="none" stroke="#63b8ff" d="M597.72,-177.12C523.85,-165.29 412.23,-146.93 315.5,-129 300.29,-126.18 284.05,-123 268.53,-119.88"/>
<polygon fill="#63b8ff" stroke="#63b8ff" points="597.46,-180.62 607.89,-178.75 598.56,-173.71 597.46,-180.62"/>
</a>
</g>
</g>
<!-- Node16 -->
<g id="Node000016" class="node">
<title>Node16</title>
<g id="a_Node000016"><a xlink:href="state_8h.html" target="_top" xlink:title=" ">
<polygon fill="white" stroke="#666666" points="925,-123.5 776,-123.5 776,-82.5 925,-82.5 925,-123.5"/>
<text text-anchor="start" x="784" y="-111.5" font-family="Helvetica,sans-Serif" font-size="10.00">examples/monte_carlo</text>
<text text-anchor="start" x="784" y="-100.5" font-family="Helvetica,sans-Serif" font-size="10.00">/tic_tac_toe/include</text>
<text text-anchor="middle" x="850.5" y="-89.5" font-family="Helvetica,sans-Serif" font-size="10.00">/tic_tac_toe/models/state.h</text>
</a>
</g>
</g>
<!-- Node13&#45;&gt;Node16 -->
<g id="edge22_Node000013_Node000016" class="edge">
<title>Node13&#45;&gt;Node16</title>
<g id="a_edge22_Node000013_Node000016"><a xlink:title=" ">
<path fill="none" stroke="#63b8ff" d="M738.52,-160.32C762.72,-148.15 790.06,-134.4 811.67,-123.53"/>
<polygon fill="#63b8ff" stroke="#63b8ff" points="736.78,-157.27 729.42,-164.89 739.93,-163.53 736.78,-157.27"/>
</a>
</g>
</g>
<!-- Node18 -->
<g id="Node000018" class="node">
<title>Node18</title>
<g id="a_Node000018"><a xlink:href="game__state_8cpp.html" target="_top" xlink:title=" ">
<polygon fill="white" stroke="#666666" points="758,-123.5 629,-123.5 629,-82.5 758,-82.5 758,-123.5"/>
<text text-anchor="start" x="637" y="-111.5" font-family="Helvetica,sans-Serif" font-size="10.00">examples/monte_carlo</text>
<text text-anchor="start" x="637" y="-100.5" font-family="Helvetica,sans-Serif" font-size="10.00">/tic_tac_toe/src/models</text>
<text text-anchor="middle" x="693.5" y="-89.5" font-family="Helvetica,sans-Serif" font-size="10.00">/game_state.cpp</text>
</a>
</g>
</g>
<!-- Node13&#45;&gt;Node18 -->
<g id="edge27_Node000013_Node000018" class="edge">
<title>Node13&#45;&gt;Node18</title>
<g id="a_edge27_Node000013_Node000018"><a xlink:title=" ">
<path fill="none" stroke="#63b8ff" d="M685.23,-154.78C686.96,-144.18 688.79,-132.92 690.29,-123.7"/>
<polygon fill="#63b8ff" stroke="#63b8ff" points="681.78,-154.23 683.62,-164.66 688.69,-155.35 681.78,-154.23"/>
</a>
</g>
</g>
<!-- Node14&#45;&gt;Node3 -->
<g id="edge20_Node000014_Node000003" class="edge">
<title>Node14&#45;&gt;Node3</title>
<g id="a_edge20_Node000014_Node000003"><a xlink:title=" ">
<path fill="none" stroke="#63b8ff" d="M201.02,-72.19C203.97,-61.84 207.22,-50.5 209.88,-41.17"/>
<polygon fill="#63b8ff" stroke="#63b8ff" points="197.57,-71.52 198.19,-82.1 204.3,-73.45 197.57,-71.52"/>
</a>
</g>
</g>
<!-- Node15 -->
<g id="Node000015" class="node">
<title>Node15</title>
<g id="a_Node000015"><a xlink:href="move_8cpp.html" target="_top" xlink:title=" ">
<polygon fill="white" stroke="#666666" points="129,-41 0,-41 0,0 129,0 129,-41"/>
<text text-anchor="start" x="8" y="-29" font-family="Helvetica,sans-Serif" font-size="10.00">examples/monte_carlo</text>
<text text-anchor="start" x="8" y="-18" font-family="Helvetica,sans-Serif" font-size="10.00">/tic_tac_toe/src/models</text>
<text text-anchor="middle" x="64.5" y="-7" font-family="Helvetica,sans-Serif" font-size="10.00">/move.cpp</text>
</a>
</g>
</g>
<!-- Node14&#45;&gt;Node15 -->
<g id="edge21_Node000014_Node000015" class="edge">
<title>Node14&#45;&gt;Node15</title>
<g id="a_edge21_Node000014_Node000015"><a xlink:title=" ">
<path fill="none" stroke="#63b8ff" d="M152.51,-76.85C134.28,-65.38 113,-52 95.93,-41.27"/>
<polygon fill="#63b8ff" stroke="#63b8ff" points="150.86,-79.95 161.19,-82.31 154.59,-74.02 150.86,-79.95"/>
</a>
</g>
</g>
<!-- Node16&#45;&gt;Node3 -->
<g id="edge23_Node000016_Node000003" class="edge">
<title>Node16&#45;&gt;Node3</title>
<g id="a_edge23_Node000016_Node000003"><a xlink:title=" ">
<path fill="none" stroke="#63b8ff" d="M780.59,-79.98C775.85,-78.86 771.12,-77.85 766.5,-77 558.74,-38.65 501.01,-75.06 292.5,-41 289.64,-40.53 286.73,-40.01 283.81,-39.45"/>
<polygon fill="#63b8ff" stroke="#63b8ff" points="779.76,-83.38 790.31,-82.41 781.46,-76.59 779.76,-83.38"/>
</a>
</g>
</g>
<!-- Node16&#45;&gt;Node10 -->
<g id="edge25_Node000016_Node000010" class="edge">
<title>Node16&#45;&gt;Node10</title>
<g id="a_edge25_Node000016_Node000010"><a xlink:title=" ">
<path fill="none" stroke="#63b8ff" d="M895.01,-77.46C916.14,-65.81 941.05,-52.07 960.9,-41.13"/>
<polygon fill="#63b8ff" stroke="#63b8ff" points="893.28,-74.41 886.22,-82.31 896.66,-80.54 893.28,-74.41"/>
</a>
</g>
</g>
<!-- Node16&#45;&gt;Node17 -->
<g id="edge24_Node000016_Node000017" class="edge">
<title>Node16&#45;&gt;Node17</title>
<g id="a_edge24_Node000016_Node000017"><a xlink:title=" ">
<path fill="none" stroke="#63b8ff" d="M921.75,-79.85C925.71,-78.84 929.65,-77.88 933.5,-77 1034.14,-54.11 1152.94,-37.67 1224.68,-28.88"/>
<polygon fill="#63b8ff" stroke="#63b8ff" points="920.65,-76.52 911.89,-82.48 922.45,-83.29 920.65,-76.52"/>
</a>
</g>
</g>
<!-- Node19&#45;&gt;Node4 -->
<g id="edge29_Node000019_Node000004" class="edge">
<title>Node19&#45;&gt;Node4</title>
<g id="a_edge29_Node000019_Node000004"><a xlink:title=" ">
<path fill="none" stroke="#63b8ff" d="M1261.09,-161.46C1274.95,-136.25 1288.22,-100 1267.5,-77 1215.9,-19.74 998.41,-54.38 922.5,-41 913.98,-39.5 905.01,-37.58 896.31,-35.53"/>
<polygon fill="#63b8ff" stroke="#63b8ff" points="1258,-159.8 1256.02,-170.21 1264.06,-163.31 1258,-159.8"/>
</a>
</g>
</g>
<!-- Node19&#45;&gt;Node10 -->
<g id="edge31_Node000019_Node000010" class="edge">
<title>Node19&#45;&gt;Node10</title>
<g id="a_edge31_Node000019_Node000010"><a xlink:title=" ">
<path fill="none" stroke="#63b8ff" d="M1276.16,-163.45C1285.91,-153.77 1295.32,-141.98 1300.5,-129 1309.07,-107.54 1315.3,-94.75 1300.5,-77 1270.65,-41.21 1141.28,-28.43 1061.23,-23.92"/>
<polygon fill="#63b8ff" stroke="#63b8ff" points="1273.62,-161.04 1268.71,-170.43 1278.4,-166.15 1273.62,-161.04"/>
</a>
</g>
</g>
<!-- Node19&#45;&gt;Node20 -->
<g id="edge30_Node000019_Node000020" class="edge">
<title>Node19&#45;&gt;Node20</title>
<g id="a_edge30_Node000019_Node000020"><a xlink:title=" ">
<path fill="none" stroke="#63b8ff" d="M1226.24,-161.46C1219.19,-149.09 1211.11,-134.91 1204.74,-123.74"/>
<polygon fill="#63b8ff" stroke="#63b8ff" points="1223.39,-163.53 1231.38,-170.49 1229.47,-160.06 1223.39,-163.53"/>
</a>
</g>
</g>
<!-- Node23&#45;&gt;Node8 -->
<g id="edge39_Node000023_Node000008" class="edge">
<title>Node23&#45;&gt;Node8</title>
<g id="a_edge39_Node000023_Node000008"><a xlink:title=" ">
<path fill="none" stroke="#63b8ff" d="M990.93,-324.09C977.25,-314.32 961.85,-303.32 949.04,-294.17"/>
<polygon fill="#63b8ff" stroke="#63b8ff" points="989.01,-327.03 999.19,-329.99 993.08,-321.33 989.01,-327.03"/>
</a>
</g>
</g>
<!-- Node23&#45;&gt;Node9 -->
<g id="edge40_Node000023_Node000009" class="edge">
<title>Node23&#45;&gt;Node9</title>
<g id="a_edge40_Node000023_Node000009"><a xlink:title=" ">
<path fill="none" stroke="#63b8ff" d="M939,-336.41C817.39,-316.36 606.56,-274.27 556.5,-217 533.94,-191.19 534.56,-148.66 537.34,-123.79"/>
<polygon fill="#63b8ff" stroke="#63b8ff" points="938.6,-339.89 949.04,-338.05 939.73,-332.98 938.6,-339.89"/>
</a>
</g>
</g>
<!-- Node23&#45;&gt;Node19 -->
<g id="edge41_Node000023_Node000019" class="edge">
<title>Node23&#45;&gt;Node19</title>
<g id="a_edge41_Node000023_Node000019"><a xlink:title=" ">
<path fill="none" stroke="#63b8ff" d="M1057.65,-323.54C1081.94,-303.62 1116.76,-275.77 1148.5,-253 1168.73,-238.48 1192.23,-223.23 1210.67,-211.61"/>
<polygon fill="#63b8ff" stroke="#63b8ff" points="1055.34,-320.91 1049.84,-329.97 1059.78,-326.32 1055.34,-320.91"/>
</a>
</g>
</g>
<!-- Node23&#45;&gt;Node22 -->
<g id="edge42_Node000023_Node000022" class="edge">
<title>Node23&#45;&gt;Node22</title>
<g id="a_edge42_Node000023_Node000022"><a xlink:title=" ">
<path fill="none" stroke="#63b8ff" d="M1036.51,-320.3C1047.34,-288.72 1064.3,-239.24 1073.69,-211.88"/>
<polygon fill="#63b8ff" stroke="#63b8ff" points="1033.16,-319.28 1033.23,-329.87 1039.78,-321.55 1033.16,-319.28"/>
</a>
</g>
</g>
</g>
</svg>
