<?xml version="1.0" encoding="UTF-8" standalone="no"?>
<!DOCTYPE svg PUBLIC "-//W3C//DTD SVG 1.1//EN"
 "http://www.w3.org/Graphics/SVG/1.1/DTD/svg11.dtd">
<!-- Generated by graphviz version 2.43.0 (0)
 -->
<!-- Title: examples/monte_carlo/tic_tac_toe/src/models/position.cpp Pages: 1 -->
<!--zoomable 500 -->

<svg id="main" version="1.1" xmlns="http://www.w3.org/2000/svg" xmlns:xlink="http://www.w3.org/1999/xlink" xml:space="preserve" onload="init(evt)">
<style type="text/css"><![CDATA[
.node, .edge {opacity: 0.7;}
.node.selected, .edge.selected {opacity: 1;}
.edge:hover path { stroke: red; }
.edge:hover polygon { stroke: red; fill: red; }
]]></style>

<defs>
  <circle id="rim" cx="0" cy="0" r="7"/>
  <circle id="rim2" cx="0" cy="0" r="3.5"/>
  <g id="zoomPlus">
    <use xlink:href="#rim" fill="#404040"><set attributeName="fill" to="#808080" begin="zoomplus.mouseover" end="zoomplus.mouseout"/></use>
    <path d="M-4,0h8M0,-4v8" fill="none" stroke="white" stroke-width="1.5" pointer-events="none"/>
  </g>
  <g id="zoomMin">
    <use xlink:href="#rim" fill="#404040"><set attributeName="fill" to="#808080" begin="zoomminus.mouseover" end="zoomminus.mouseout"/></use>
    <path d="M-4,0h8" fill="none" stroke="white" stroke-width="1.5" pointer-events="none"/>
  </g>
  <g id="arrowUp" transform="translate(30 24)">
    <use xlink:href="#rim"/>
    <path pointer-events="none" fill="none" stroke="white" stroke-width="1.5" d="M0,-3.0v7 M-2.5,-0.5L0,-3.0L2.5,-0.5"/>
  </g>
  <g id="arrowRight" transform="rotate(90) translate(36 -43)">
    <use xlink:href="#rim"/>
    <path pointer-events="none" fill="none" stroke="white" stroke-width="1.5" d="M0,-3.0v7 M-2.5,-0.5L0,-3.0L2.5,-0.5"/>
  </g>
  <g id="arrowDown" transform="rotate(180) translate(-30 -48)">
    <use xlink:href="#rim"/>
    <path pointer-events="none" fill="none" stroke="white" stroke-width="1.5" d="M0,-3.0v7 M-2.5,-0.5L0,-3.0L2.5,-0.5"/>
  </g>
  <g id="arrowLeft" transform="rotate(270) translate(-36 17)">
    <use xlink:href="#rim"/>
    <path pointer-events="none" fill="none" stroke="white" stroke-width="1.5" d="M0,-3.0v7 M-2.5,-0.5L0,-3.0L2.5,-0.5"/>
  </g>
  <g id="resetDef">
    <use xlink:href="#rim2" fill="#404040"><set attributeName="fill" to="#808080" begin="reset.mouseover" end="reset.mouseout"/></use>
  </g>
</defs>
<script type="application/ecmascript">
var viewWidth = 997;
var viewHeight = 500;
var sectionId = 'dynsection-0';
</script>
<script type="application/ecmascript" xlink:href="svg.min.js"/>
<svg id="graph" class="graph">
<g id="viewport">
<title>examples/monte_carlo/tic_tac_toe/src/models/position.cpp</title>
<!-- Node1 -->
<g id="Node000001" class="node">
<title>Node1</title>
<g id="a_Node000001"><a xlink:title=" ">
<polygon fill="#999999" stroke="#666666" points="389,-492 260,-492 260,-451 389,-451 389,-492"/>
<text text-anchor="start" x="268" y="-480" font-family="Helvetica,sans-Serif" font-size="10.00">examples/monte_carlo</text>
<text text-anchor="start" x="268" y="-469" font-family="Helvetica,sans-Serif" font-size="10.00">/tic_tac_toe/src/models</text>
<text text-anchor="middle" x="324.5" y="-458" font-family="Helvetica,sans-Serif" font-size="10.00">/position.cpp</text>
</a>
</g>
</g>
<!-- Node2 -->
<g id="Node000002" class="node">
<title>Node2</title>
<g id="a_Node000002"><a xlink:href="position_8h.html" target="_top" xlink:title=" ">
<polygon fill="white" stroke="#666666" points="148,-151 39,-151 39,-121 148,-121 148,-151"/>
<text text-anchor="start" x="47" y="-139" font-family="Helvetica,sans-Serif" font-size="10.00">tic_tac_toe/models</text>
<text text-anchor="middle" x="93.5" y="-128" font-family="Helvetica,sans-Serif" font-size="10.00">/position.h</text>
</a>
</g>
</g>
<!-- Node1&#45;&gt;Node2 -->
<g id="edge1_Node000001_Node000002" class="edge">
<title>Node1&#45;&gt;Node2</title>
<g id="a_edge1_Node000001_Node000002"><a xlink:title=" ">
<path fill="none" stroke="#63b8ff" d="M259.75,-463.97C184.49,-452.4 70.5,-420.71 70.5,-335 70.5,-335 70.5,-335 70.5,-267 70.5,-229.53 79.88,-186.9 86.66,-160.99"/>
<polygon fill="#63b8ff" stroke="#63b8ff" points="90.05,-161.85 89.28,-151.28 83.29,-160.02 90.05,-161.85"/>
</a>
</g>
</g>
<!-- Node3 -->
<g id="Node000003" class="node">
<title>Node3</title>
<g id="a_Node000003"><a xlink:title=" ">
<polygon fill="#e0e0e0" stroke="#999999" points="45,-79.5 0,-79.5 0,-60.5 45,-60.5 45,-79.5"/>
<text text-anchor="middle" x="22.5" y="-67.5" font-family="Helvetica,sans-Serif" font-size="10.00">utility</text>
</a>
</g>
</g>
<!-- Node1&#45;&gt;Node3 -->
<g id="edge37_Node000001_Node000003" class="edge">
<title>Node1&#45;&gt;Node3</title>
<g id="a_edge37_Node000001_Node000003"><a xlink:title=" ">
<path fill="none" stroke="#63b8ff" d="M259.82,-470.11C167.9,-465.77 10.5,-442.61 10.5,-335 10.5,-335 10.5,-335 10.5,-201 10.5,-161.3 16.12,-115.06 19.67,-89.82"/>
<polygon fill="#63b8ff" stroke="#63b8ff" points="23.15,-90.2 21.12,-79.8 16.22,-89.19 23.15,-90.2"/>
</a>
</g>
</g>
<!-- Node6 -->
<g id="Node000006" class="node">
<title>Node6</title>
<g id="a_Node000006"><a xlink:href="state_8h.html" target="_top" xlink:title=" ">
<polygon fill="white" stroke="#666666" points="587,-415 478,-415 478,-385 587,-385 587,-415"/>
<text text-anchor="start" x="486" y="-403" font-family="Helvetica,sans-Serif" font-size="10.00">tic_tac_toe/models</text>
<text text-anchor="middle" x="532.5" y="-392" font-family="Helvetica,sans-Serif" font-size="10.00">/state.h</text>
</a>
</g>
</g>
<!-- Node1&#45;&gt;Node6 -->
<g id="edge5_Node000001_Node000006" class="edge">
<title>Node1&#45;&gt;Node6</title>
<g id="a_edge5_Node000001_Node000006"><a xlink:title=" ">
<path fill="none" stroke="#63b8ff" d="M382.99,-450.96C413.76,-440.68 451.15,-428.18 480.84,-418.26"/>
<polygon fill="#63b8ff" stroke="#63b8ff" points="482.21,-421.49 490.59,-415 480,-414.85 482.21,-421.49"/>
</a>
</g>
</g>
<!-- Node14 -->
<g id="Node000014" class="node">
<title>Node14</title>
<g id="a_Node000014"><a xlink:title=" ">
<polygon fill="#e0e0e0" stroke="#999999" points="989,-145.5 942,-145.5 942,-126.5 989,-126.5 989,-145.5"/>
<text text-anchor="middle" x="965.5" y="-133.5" font-family="Helvetica,sans-Serif" font-size="10.00">vector</text>
</a>
</g>
</g>
<!-- Node1&#45;&gt;Node14 -->
<g id="edge36_Node000001_Node000014" class="edge">
<title>Node1&#45;&gt;Node14</title>
<g id="a_edge36_Node000001_Node000014"><a xlink:title=" ">
<path fill="none" stroke="#63b8ff" d="M389.3,-470.68C554.51,-469.41 978.5,-454.5 978.5,-335 978.5,-335 978.5,-335 978.5,-267 978.5,-227.27 972.41,-181.04 968.57,-155.81"/>
<polygon fill="#63b8ff" stroke="#63b8ff" points="972.01,-155.13 966.99,-145.8 965.09,-156.22 972.01,-155.13"/>
</a>
</g>
</g>
<!-- Node2&#45;&gt;Node3 -->
<g id="edge2_Node000002_Node000003" class="edge">
<title>Node2&#45;&gt;Node3</title>
<g id="a_edge2_Node000002_Node000003"><a xlink:title=" ">
<path fill="none" stroke="#63b8ff" d="M77.74,-120.8C66.57,-110.72 51.56,-97.19 40.01,-86.78"/>
<polygon fill="#63b8ff" stroke="#63b8ff" points="42.08,-83.94 32.31,-79.84 37.4,-89.14 42.08,-83.94"/>
</a>
</g>
</g>
<!-- Node4 -->
<g id="Node000004" class="node">
<title>Node4</title>
<g id="a_Node000004"><a xlink:href="symbol_8h.html" target="_top" xlink:title=" ">
<polygon fill="white" stroke="#666666" points="241.5,-79.5 87.5,-79.5 87.5,-60.5 241.5,-60.5 241.5,-79.5"/>
<text text-anchor="middle" x="164.5" y="-67.5" font-family="Helvetica,sans-Serif" font-size="10.00">tic_tac_toe/enums/symbol.h</text>
</a>
</g>
</g>
<!-- Node2&#45;&gt;Node4 -->
<g id="edge3_Node000002_Node000004" class="edge">
<title>Node2&#45;&gt;Node4</title>
<g id="a_edge3_Node000002_Node000004"><a xlink:title=" ">
<path fill="none" stroke="#63b8ff" d="M109.26,-120.8C120.43,-110.72 135.44,-97.19 146.99,-86.78"/>
<polygon fill="#63b8ff" stroke="#63b8ff" points="149.6,-89.14 154.69,-79.84 144.92,-83.94 149.6,-89.14"/>
</a>
</g>
</g>
<!-- Node5 -->
<g id="Node000005" class="node">
<title>Node5</title>
<g id="a_Node000005"><a xlink:title=" ">
<polygon fill="#e0e0e0" stroke="#999999" points="339.5,-19 295.5,-19 295.5,0 339.5,0 339.5,-19"/>
<text text-anchor="middle" x="317.5" y="-7" font-family="Helvetica,sans-Serif" font-size="10.00">string</text>
</a>
</g>
</g>
<!-- Node4&#45;&gt;Node5 -->
<g id="edge4_Node000004_Node000005" class="edge">
<title>Node4&#45;&gt;Node5</title>
<g id="a_edge4_Node000004_Node000005"><a xlink:title=" ">
<path fill="none" stroke="#63b8ff" d="M186.75,-60.49C212.81,-50.53 256.18,-33.95 285.77,-22.63"/>
<polygon fill="#63b8ff" stroke="#63b8ff" points="287.14,-25.86 295.23,-19.02 284.64,-19.32 287.14,-25.86"/>
</a>
</g>
</g>
<!-- Node7 -->
<g id="Node000007" class="node">
<title>Node7</title>
<g id="a_Node000007"><a xlink:href="node__base_8h.html" target="_top" xlink:title=" ">
<polygon fill="white" stroke="#666666" points="736.5,-349 620.5,-349 620.5,-319 736.5,-319 736.5,-349"/>
<text text-anchor="start" x="628.5" y="-337" font-family="Helvetica,sans-Serif" font-size="10.00">monte_carlo/models</text>
<text text-anchor="middle" x="678.5" y="-326" font-family="Helvetica,sans-Serif" font-size="10.00">/node_base.h</text>
</a>
</g>
</g>
<!-- Node6&#45;&gt;Node7 -->
<g id="edge6_Node000006_Node000007" class="edge">
<title>Node6&#45;&gt;Node7</title>
<g id="a_edge6_Node000006_Node000007"><a xlink:title=" ">
<path fill="none" stroke="#63b8ff" d="M564.54,-384.95C585.94,-375.58 614.27,-363.16 637.33,-353.05"/>
<polygon fill="#63b8ff" stroke="#63b8ff" points="638.78,-356.23 646.53,-349.01 635.97,-349.82 638.78,-356.23"/>
</a>
</g>
</g>
<!-- Node15 -->
<g id="Node000015" class="node">
<title>Node15</title>
<g id="a_Node000015"><a xlink:href="tree__factory__interface_8h.html" target="_top" xlink:title=" ">
<polygon fill="white" stroke="#666666" points="662,-217 525,-217 525,-187 662,-187 662,-217"/>
<text text-anchor="start" x="533" y="-205" font-family="Helvetica,sans-Serif" font-size="10.00">monte_carlo/factories</text>
<text text-anchor="middle" x="593.5" y="-194" font-family="Helvetica,sans-Serif" font-size="10.00">/tree_factory_interface.h</text>
</a>
</g>
</g>
<!-- Node6&#45;&gt;Node15 -->
<g id="edge22_Node000006_Node000015" class="edge">
<title>Node6&#45;&gt;Node15</title>
<g id="a_edge22_Node000006_Node000015"><a xlink:title=" ">
<path fill="none" stroke="#63b8ff" d="M539.45,-384.79C544.11,-374.91 550.16,-361.35 554.5,-349 569.22,-307.08 581.54,-256.72 588.18,-227.44"/>
<polygon fill="#63b8ff" stroke="#63b8ff" points="591.68,-227.84 590.45,-217.31 584.85,-226.31 591.68,-227.84"/>
</a>
</g>
</g>
<!-- Node17 -->
<g id="Node000017" class="node">
<title>Node17</title>
<g id="a_Node000017"><a xlink:href="game__state_8h.html" target="_top" xlink:title=" ">
<polygon fill="white" stroke="#666666" points="545,-349 436,-349 436,-319 545,-319 545,-349"/>
<text text-anchor="start" x="444" y="-337" font-family="Helvetica,sans-Serif" font-size="10.00">tic_tac_toe/models</text>
<text text-anchor="middle" x="490.5" y="-326" font-family="Helvetica,sans-Serif" font-size="10.00">/game_state.h</text>
</a>
</g>
</g>
<!-- Node6&#45;&gt;Node17 -->
<g id="edge23_Node000006_Node000017" class="edge">
<title>Node6&#45;&gt;Node17</title>
<g id="a_edge23_Node000006_Node000017"><a xlink:title=" ">
<path fill="none" stroke="#63b8ff" d="M523.18,-384.8C517.96,-376.84 511.33,-366.74 505.4,-357.71"/>
<polygon fill="#63b8ff" stroke="#63b8ff" points="508.21,-355.6 499.8,-349.16 502.36,-359.44 508.21,-355.6"/>
</a>
</g>
</g>
<!-- Node8 -->
<g id="Node000008" class="node">
<title>Node8</title>
<g id="a_Node000008"><a xlink:href="node_8h.html" target="_top" xlink:title=" ">
<polygon fill="white" stroke="#666666" points="755.5,-283 639.5,-283 639.5,-253 755.5,-253 755.5,-283"/>
<text text-anchor="start" x="647.5" y="-271" font-family="Helvetica,sans-Serif" font-size="10.00">monte_carlo/models</text>
<text text-anchor="middle" x="697.5" y="-260" font-family="Helvetica,sans-Serif" font-size="10.00">/node.h</text>
</a>
</g>
</g>
<!-- Node7&#45;&gt;Node8 -->
<g id="edge7_Node000007_Node000008" class="edge">
<title>Node7&#45;&gt;Node8</title>
<g id="a_edge7_Node000007_Node000008"><a xlink:title=" ">
<path fill="none" stroke="#63b8ff" d="M682.72,-318.8C684.98,-311.17 687.83,-301.57 690.42,-292.84"/>
<polygon fill="#63b8ff" stroke="#63b8ff" points="693.8,-293.75 693.3,-283.16 687.09,-291.75 693.8,-293.75"/>
</a>
</g>
</g>
<!-- Node7&#45;&gt;Node15 -->
<g id="edge18_Node000007_Node000015" class="edge">
<title>Node7&#45;&gt;Node15</title>
<g id="a_edge18_Node000007_Node000015"><a xlink:title=" ">
<path fill="none" stroke="#63b8ff" d="M662.38,-318.83C652.32,-309.39 639.59,-296.32 630.5,-283 618.42,-265.31 608.49,-243.06 601.97,-226.51"/>
<polygon fill="#63b8ff" stroke="#63b8ff" points="605.19,-225.14 598.36,-217.04 598.65,-227.63 605.19,-225.14"/>
</a>
</g>
</g>
<!-- Node16 -->
<g id="Node000016" class="node">
<title>Node16</title>
<g id="a_Node000016"><a xlink:title=" ">
<polygon fill="#e0e0e0" stroke="#999999" points="889.5,-283 773.5,-283 773.5,-253 889.5,-253 889.5,-283"/>
<text text-anchor="start" x="781.5" y="-271" font-family="Helvetica,sans-Serif" font-size="10.00">monte_carlo/models</text>
<text text-anchor="middle" x="831.5" y="-260" font-family="Helvetica,sans-Serif" font-size="10.00">/node_base.tpp</text>
</a>
</g>
</g>
<!-- Node7&#45;&gt;Node16 -->
<g id="edge21_Node000007_Node000016" class="edge">
<title>Node7&#45;&gt;Node16</title>
<g id="a_edge21_Node000007_Node000016"><a xlink:title=" ">
<path fill="none" stroke="#63b8ff" d="M712.08,-318.95C734.6,-309.53 764.46,-297.04 788.68,-286.91"/>
<polygon fill="#63b8ff" stroke="#63b8ff" points="790.13,-290.1 798,-283.01 787.43,-283.64 790.13,-290.1"/>
</a>
</g>
</g>
<!-- Node9 -->
<g id="Node000009" class="node">
<title>Node9</title>
<g id="a_Node000009"><a xlink:href="rollout__strategy__interface_8h.html" target="_top" xlink:title=" ">
<polygon fill="white" stroke="#666666" points="874,-217 719,-217 719,-187 874,-187 874,-217"/>
<text text-anchor="start" x="727" y="-205" font-family="Helvetica,sans-Serif" font-size="10.00">monte_carlo/models</text>
<text text-anchor="middle" x="796.5" y="-194" font-family="Helvetica,sans-Serif" font-size="10.00">/rollout_strategy_interface.h</text>
</a>
</g>
</g>
<!-- Node8&#45;&gt;Node9 -->
<g id="edge8_Node000008_Node000009" class="edge">
<title>Node8&#45;&gt;Node9</title>
<g id="a_edge8_Node000008_Node000009"><a xlink:title=" ">
<path fill="none" stroke="#63b8ff" d="M719.47,-252.8C733.19,-243.93 751.03,-232.39 766.1,-222.66"/>
<polygon fill="#63b8ff" stroke="#63b8ff" points="768.09,-225.53 774.59,-217.16 764.29,-219.65 768.09,-225.53"/>
</a>
</g>
</g>
<!-- Node11 -->
<g id="Node000011" class="node">
<title>Node11</title>
<g id="a_Node000011"><a xlink:title=" ">
<polygon fill="#e0e0e0" stroke="#999999" points="559.5,-79.5 501.5,-79.5 501.5,-60.5 559.5,-60.5 559.5,-79.5"/>
<text text-anchor="middle" x="530.5" y="-67.5" font-family="Helvetica,sans-Serif" font-size="10.00">memory</text>
</a>
</g>
</g>
<!-- Node8&#45;&gt;Node11 -->
<g id="edge17_Node000008_Node000011" class="edge">
<title>Node8&#45;&gt;Node11</title>
<g id="a_edge17_Node000008_Node000011"><a xlink:title=" ">
<path fill="none" stroke="#63b8ff" d="M695.4,-252.93C692.36,-236.06 685.48,-207.51 671.5,-187 654.7,-162.36 586.41,-111.26 551.41,-85.92"/>
<polygon fill="#63b8ff" stroke="#63b8ff" points="553.04,-82.78 542.88,-79.78 548.95,-88.46 553.04,-82.78"/>
</a>
</g>
</g>
<!-- Node8&#45;&gt;Node14 -->
<g id="edge16_Node000008_Node000014" class="edge">
<title>Node8&#45;&gt;Node14</title>
<g id="a_edge16_Node000008_Node000014"><a xlink:title=" ">
<path fill="none" stroke="#63b8ff" d="M755.6,-254.31C819.34,-240.3 913.16,-219.4 916.5,-217 937.95,-201.59 951.89,-173.6 959.22,-155.15"/>
<polygon fill="#63b8ff" stroke="#63b8ff" points="962.59,-156.15 962.79,-145.56 956.02,-153.72 962.59,-156.15"/>
</a>
</g>
</g>
<!-- Node10 -->
<g id="Node000010" class="node">
<title>Node10</title>
<g id="a_Node000010"><a xlink:href="action_8h.html" target="_top" xlink:title=" ">
<polygon fill="white" stroke="#666666" points="885.5,-151 769.5,-151 769.5,-121 885.5,-121 885.5,-151"/>
<text text-anchor="start" x="777.5" y="-139" font-family="Helvetica,sans-Serif" font-size="10.00">monte_carlo/models</text>
<text text-anchor="middle" x="827.5" y="-128" font-family="Helvetica,sans-Serif" font-size="10.00">/action.h</text>
</a>
</g>
</g>
<!-- Node9&#45;&gt;Node10 -->
<g id="edge9_Node000009_Node000010" class="edge">
<title>Node9&#45;&gt;Node10</title>
<g id="a_edge9_Node000009_Node000010"><a xlink:title=" ">
<path fill="none" stroke="#63b8ff" d="M803.38,-186.8C807.15,-179.01 811.92,-169.16 816.23,-160.28"/>
<polygon fill="#63b8ff" stroke="#63b8ff" points="819.43,-161.69 820.64,-151.16 813.13,-158.64 819.43,-161.69"/>
</a>
</g>
</g>
<!-- Node9&#45;&gt;Node11 -->
<g id="edge13_Node000009_Node000011" class="edge">
<title>Node9&#45;&gt;Node11</title>
<g id="a_edge13_Node000009_Node000011"><a xlink:title=" ">
<path fill="none" stroke="#63b8ff" d="M759.68,-187C736.91,-177.81 707.38,-164.96 682.5,-151 662.18,-139.6 659.73,-132.57 639.5,-121 614.16,-106.5 583.87,-92.88 561.66,-83.53"/>
<polygon fill="#63b8ff" stroke="#63b8ff" points="562.95,-80.28 552.37,-79.67 560.26,-86.74 562.95,-80.28"/>
</a>
</g>
</g>
<!-- Node12 -->
<g id="Node000012" class="node">
<title>Node12</title>
<g id="a_Node000012"><a xlink:title=" ">
<polygon fill="#e0e0e0" stroke="#999999" points="899,-79.5 842,-79.5 842,-60.5 899,-60.5 899,-79.5"/>
<text text-anchor="middle" x="870.5" y="-67.5" font-family="Helvetica,sans-Serif" font-size="10.00">ostream</text>
</a>
</g>
</g>
<!-- Node9&#45;&gt;Node12 -->
<g id="edge14_Node000009_Node000012" class="edge">
<title>Node9&#45;&gt;Node12</title>
<g id="a_edge14_Node000009_Node000012"><a xlink:title=" ">
<path fill="none" stroke="#63b8ff" d="M848.15,-186.97C866.01,-179.37 884.13,-167.94 894.5,-151 906.64,-131.18 894.16,-104.81 883.14,-87.87"/>
<polygon fill="#63b8ff" stroke="#63b8ff" points="885.92,-85.73 877.33,-79.53 880.18,-89.73 885.92,-85.73"/>
</a>
</g>
</g>
<!-- Node13 -->
<g id="Node000013" class="node">
<title>Node13</title>
<g id="a_Node000013"><a xlink:title=" ">
<polygon fill="#e0e0e0" stroke="#999999" points="751.5,-145.5 691.5,-145.5 691.5,-126.5 751.5,-126.5 751.5,-145.5"/>
<text text-anchor="middle" x="721.5" y="-133.5" font-family="Helvetica,sans-Serif" font-size="10.00">iostream</text>
</a>
</g>
</g>
<!-- Node9&#45;&gt;Node13 -->
<g id="edge12_Node000009_Node000013" class="edge">
<title>Node9&#45;&gt;Node13</title>
<g id="a_edge12_Node000009_Node000013"><a xlink:title=" ">
<path fill="none" stroke="#63b8ff" d="M779.86,-186.8C767.93,-176.62 751.89,-162.93 739.64,-152.48"/>
<polygon fill="#63b8ff" stroke="#63b8ff" points="741.74,-149.67 731.86,-145.84 737.2,-155 741.74,-149.67"/>
</a>
</g>
</g>
<!-- Node9&#45;&gt;Node14 -->
<g id="edge15_Node000009_Node000014" class="edge">
<title>Node9&#45;&gt;Node14</title>
<g id="a_edge15_Node000009_Node000014"><a xlink:title=" ">
<path fill="none" stroke="#63b8ff" d="M833.59,-186.95C863.49,-175.63 905.1,-159.88 933.54,-149.1"/>
<polygon fill="#63b8ff" stroke="#63b8ff" points="934.9,-152.33 943.01,-145.52 932.42,-145.79 934.9,-152.33"/>
</a>
</g>
</g>
<!-- Node10&#45;&gt;Node11 -->
<g id="edge10_Node000010_Node000011" class="edge">
<title>Node10&#45;&gt;Node11</title>
<g id="a_edge10_Node000010_Node000011"><a xlink:title=" ">
<path fill="none" stroke="#63b8ff" d="M769.18,-122.43C710.23,-109.73 620.76,-90.45 569.76,-79.46"/>
<polygon fill="#63b8ff" stroke="#63b8ff" points="570.3,-76 559.79,-77.31 568.83,-82.84 570.3,-76"/>
</a>
</g>
</g>
<!-- Node10&#45;&gt;Node12 -->
<g id="edge11_Node000010_Node000012" class="edge">
<title>Node10&#45;&gt;Node12</title>
<g id="a_edge11_Node000010_Node000012"><a xlink:title=" ">
<path fill="none" stroke="#63b8ff" d="M837.04,-120.8C843.48,-111.21 852.02,-98.5 858.86,-88.32"/>
<polygon fill="#63b8ff" stroke="#63b8ff" points="861.89,-90.1 864.56,-79.84 856.08,-86.19 861.89,-90.1"/>
</a>
</g>
</g>
<!-- Node15&#45;&gt;Node5 -->
<g id="edge20_Node000015_Node000005" class="edge">
<title>Node15&#45;&gt;Node5</title>
<g id="a_edge20_Node000015_Node000005"><a xlink:title=" ">
<path fill="none" stroke="#63b8ff" d="M595.88,-186.59C599.81,-157.34 604.04,-90.75 568.5,-55 538.33,-24.65 410.51,-14.76 349.78,-11.74"/>
<polygon fill="#63b8ff" stroke="#63b8ff" points="349.76,-8.23 339.61,-11.26 349.43,-15.23 349.76,-8.23"/>
</a>
</g>
</g>
<!-- Node15&#45;&gt;Node11 -->
<g id="edge19_Node000015_Node000011" class="edge">
<title>Node15&#45;&gt;Node11</title>
<g id="a_edge19_Node000015_Node000011"><a xlink:title=" ">
<path fill="none" stroke="#63b8ff" d="M586.64,-186.84C575.09,-163.02 551.82,-114.99 539.16,-88.88"/>
<polygon fill="#63b8ff" stroke="#63b8ff" points="542.25,-87.22 534.74,-79.75 535.95,-90.27 542.25,-87.22"/>
</a>
</g>
</g>
<!-- Node17&#45;&gt;Node11 -->
<g id="edge24_Node000017_Node000011" class="edge">
<title>Node17&#45;&gt;Node11</title>
<g id="a_edge24_Node000017_Node000011"><a xlink:title=" ">
<path fill="none" stroke="#63b8ff" d="M492.65,-318.91C499.38,-274.84 520.04,-139.52 527.65,-89.68"/>
<polygon fill="#63b8ff" stroke="#63b8ff" points="531.13,-90.09 529.18,-79.68 524.21,-89.03 531.13,-90.09"/>
</a>
</g>
</g>
<!-- Node18 -->
<g id="Node000018" class="node">
<title>Node18</title>
<g id="a_Node000018"><a xlink:href="board_8h.html" target="_top" xlink:title=" ">
<polygon fill="white" stroke="#666666" points="384,-283 275,-283 275,-253 384,-253 384,-283"/>
<text text-anchor="start" x="283" y="-271" font-family="Helvetica,sans-Serif" font-size="10.00">tic_tac_toe/models</text>
<text text-anchor="middle" x="329.5" y="-260" font-family="Helvetica,sans-Serif" font-size="10.00">/board.h</text>
</a>
</g>
</g>
<!-- Node17&#45;&gt;Node18 -->
<g id="edge25_Node000017_Node000018" class="edge">
<title>Node17&#45;&gt;Node18</title>
<g id="a_edge25_Node000017_Node000018"><a xlink:title=" ">
<path fill="none" stroke="#63b8ff" d="M455.17,-318.95C431.37,-309.49 399.77,-296.93 374.22,-286.78"/>
<polygon fill="#63b8ff" stroke="#63b8ff" points="375.34,-283.45 364.75,-283.01 372.75,-289.96 375.34,-283.45"/>
</a>
</g>
</g>
<!-- Node18&#45;&gt;Node2 -->
<g id="edge33_Node000018_Node000002" class="edge">
<title>Node18&#45;&gt;Node2</title>
<g id="a_edge33_Node000018_Node000002"><a xlink:title=" ">
<path fill="none" stroke="#63b8ff" d="M274.6,-266.4C230.18,-263.13 168.47,-251.92 127.5,-217 110.79,-202.76 102.1,-178.88 97.7,-160.9"/>
<polygon fill="#63b8ff" stroke="#63b8ff" points="101.12,-160.16 95.58,-151.12 94.28,-161.64 101.12,-160.16"/>
</a>
</g>
</g>
<!-- Node18&#45;&gt;Node11 -->
<g id="edge35_Node000018_Node000011" class="edge">
<title>Node18&#45;&gt;Node11</title>
<g id="a_edge35_Node000018_Node000011"><a xlink:title=" ">
<path fill="none" stroke="#63b8ff" d="M314.56,-252.87C299.07,-236.44 278.87,-208.8 292.5,-187 336.22,-117.06 435.58,-88.17 491.1,-77.15"/>
<polygon fill="#63b8ff" stroke="#63b8ff" points="492.08,-80.53 501.26,-75.24 490.79,-73.65 492.08,-80.53"/>
</a>
</g>
</g>
<!-- Node18&#45;&gt;Node14 -->
<g id="edge26_Node000018_Node000014" class="edge">
<title>Node18&#45;&gt;Node14</title>
<g id="a_edge26_Node000018_Node000014"><a xlink:title=" ">
<path fill="none" stroke="#63b8ff" d="M384.21,-264.15C515.12,-257.02 838.87,-237.55 883.5,-217 887.6,-215.11 927.14,-175.65 949.78,-152.87"/>
<polygon fill="#63b8ff" stroke="#63b8ff" points="952.44,-155.16 957,-145.6 947.47,-150.23 952.44,-155.16"/>
</a>
</g>
</g>
<!-- Node19 -->
<g id="Node000019" class="node">
<title>Node19</title>
<g id="a_Node000019"><a xlink:href="player_8h.html" target="_top" xlink:title=" ">
<polygon fill="white" stroke="#666666" points="246,-217 137,-217 137,-187 246,-187 246,-217"/>
<text text-anchor="start" x="145" y="-205" font-family="Helvetica,sans-Serif" font-size="10.00">tic_tac_toe/models</text>
<text text-anchor="middle" x="191.5" y="-194" font-family="Helvetica,sans-Serif" font-size="10.00">/player.h</text>
</a>
</g>
</g>
<!-- Node18&#45;&gt;Node19 -->
<g id="edge27_Node000018_Node000019" class="edge">
<title>Node18&#45;&gt;Node19</title>
<g id="a_edge27_Node000018_Node000019"><a xlink:title=" ">
<path fill="none" stroke="#63b8ff" d="M299.22,-252.95C279.17,-243.66 252.69,-231.38 230.99,-221.32"/>
<polygon fill="#63b8ff" stroke="#63b8ff" points="232.26,-218.04 221.71,-217.01 229.31,-224.39 232.26,-218.04"/>
</a>
</g>
</g>
<!-- Node21 -->
<g id="Node000021" class="node">
<title>Node21</title>
<g id="a_Node000021"><a xlink:href="alignment_8h.html" target="_top" xlink:title=" ">
<polygon fill="white" stroke="#666666" points="469,-211.5 302,-211.5 302,-192.5 469,-192.5 469,-211.5"/>
<text text-anchor="middle" x="385.5" y="-199.5" font-family="Helvetica,sans-Serif" font-size="10.00">tic_tac_toe/enums/alignment.h</text>
</a>
</g>
</g>
<!-- Node18&#45;&gt;Node21 -->
<g id="edge34_Node000018_Node000021" class="edge">
<title>Node18&#45;&gt;Node21</title>
<g id="a_edge34_Node000018_Node000021"><a xlink:title=" ">
<path fill="none" stroke="#63b8ff" d="M341.93,-252.8C350.57,-242.92 362.12,-229.72 371.16,-219.39"/>
<polygon fill="#63b8ff" stroke="#63b8ff" points="373.81,-221.67 377.76,-211.84 368.54,-217.07 373.81,-221.67"/>
</a>
</g>
</g>
<!-- Node19&#45;&gt;Node2 -->
<g id="edge29_Node000019_Node000002" class="edge">
<title>Node19&#45;&gt;Node2</title>
<g id="a_edge29_Node000019_Node000002"><a xlink:title=" ">
<path fill="none" stroke="#63b8ff" d="M169.75,-186.8C156.17,-177.93 138.51,-166.39 123.6,-156.66"/>
<polygon fill="#63b8ff" stroke="#63b8ff" points="125.48,-153.7 115.19,-151.16 121.65,-159.56 125.48,-153.7"/>
</a>
</g>
</g>
<!-- Node19&#45;&gt;Node4 -->
<g id="edge30_Node000019_Node000004" class="edge">
<title>Node19&#45;&gt;Node4</title>
<g id="a_edge30_Node000019_Node000004"><a xlink:title=" ">
<path fill="none" stroke="#63b8ff" d="M188.56,-186.84C183.66,-163.23 173.81,-115.83 168.36,-89.58"/>
<polygon fill="#63b8ff" stroke="#63b8ff" points="171.78,-88.83 166.32,-79.75 164.92,-90.25 171.78,-88.83"/>
</a>
</g>
</g>
<!-- Node19&#45;&gt;Node11 -->
<g id="edge28_Node000019_Node000011" class="edge">
<title>Node19&#45;&gt;Node11</title>
<g id="a_edge28_Node000019_Node000011"><a xlink:title=" ">
<path fill="none" stroke="#63b8ff" d="M204.59,-186.92C224.06,-166.31 260.1,-129.43 276.5,-121 346.43,-85.06 439.41,-74.89 491.27,-72.05"/>
<polygon fill="#63b8ff" stroke="#63b8ff" points="491.56,-75.54 501.38,-71.57 491.22,-68.55 491.56,-75.54"/>
</a>
</g>
</g>
<!-- Node20 -->
<g id="Node000020" class="node">
<title>Node20</title>
<g id="a_Node000020"><a xlink:href="observer_8h.html" target="_top" xlink:title=" ">
<polygon fill="white" stroke="#666666" points="375.5,-85 259.5,-85 259.5,-55 375.5,-55 375.5,-85"/>
<text text-anchor="start" x="267.5" y="-73" font-family="Helvetica,sans-Serif" font-size="10.00">tic_tac_toe/observer</text>
<text text-anchor="middle" x="317.5" y="-62" font-family="Helvetica,sans-Serif" font-size="10.00">/observer.h</text>
</a>
</g>
</g>
<!-- Node19&#45;&gt;Node20 -->
<g id="edge31_Node000019_Node000020" class="edge">
<title>Node19&#45;&gt;Node20</title>
<g id="a_edge31_Node000019_Node000020"><a xlink:title=" ">
<path fill="none" stroke="#63b8ff" d="M197.27,-186.95C204.81,-169.84 219.35,-140.8 238.5,-121 250.26,-108.85 265.53,-98.3 279.51,-90.07"/>
<polygon fill="#63b8ff" stroke="#63b8ff" points="281.48,-92.98 288.46,-85.01 278.03,-86.89 281.48,-92.98"/>
</a>
</g>
</g>
<!-- Node20&#45;&gt;Node5 -->
<g id="edge32_Node000020_Node000005" class="edge">
<title>Node20&#45;&gt;Node5</title>
<g id="a_edge32_Node000020_Node000005"><a xlink:title=" ">
<path fill="none" stroke="#63b8ff" d="M317.5,-54.84C317.5,-47.21 317.5,-37.7 317.5,-29.45"/>
<polygon fill="#63b8ff" stroke="#63b8ff" points="321,-29.27 317.5,-19.27 314,-29.27 321,-29.27"/>
</a>
</g>
</g>
</g>
</svg>

<g id="navigator" transform="translate(0 0)" fill="#404254">
  <rect fill="#f2f5e9" fill-opacity="0.5" stroke="#606060" stroke-width=".5" x="0" y="0" width="60" height="60"/>
  <use id="zoomplus" xlink:href="#zoomPlus" x="17" y="9" onmousedown="handleZoom(evt,'in')"/>
  <use id="zoomminus" xlink:href="#zoomMin" x="42" y="9" onmousedown="handleZoom(evt,'out')"/>
  <use id="reset" xlink:href="#resetDef" x="30" y="36" onmousedown="handleReset()"/>
   <use id="arrowup" xlink:href="#arrowUp" x="0" y="0" onmousedown="handlePan(0,-1)"/>
  <use id="arrowright" xlink:href="#arrowRight" x="0" y="0" onmousedown="handlePan(1,0)"/>
  <use id="arrowdown" xlink:href="#arrowDown" x="0" y="0" onmousedown="handlePan(0,1)"/>
  <use id="arrowleft" xlink:href="#arrowLeft" x="0" y="0" onmousedown="handlePan(-1,0)"/>
</g>
<svg viewBox="0 0 15 15" width="100%" height="30px" preserveAspectRatio="xMaxYMin meet">
 <g id="arrow_out" transform="scale(0.3 0.3)">
  <a xlink:href="position_8cpp__incl_org.svg" target="_base">
   <rect id="button" ry="5" rx="5" y="6" x="6" height="38" width="38"
        fill="#f2f5e9" fill-opacity="0.5" stroke="#606060" stroke-width="1.0"/>
   <path id="arrow"
     d="M 11.500037,31.436501 C 11.940474,20.09759 22.043105,11.32322 32.158766,21.979434 L 37.068811,17.246167 C 37.068811,17.246167 37.088388,32 37.088388,32 L 22.160133,31.978069 C 22.160133,31.978069 26.997745,27.140456 26.997745,27.140456 C 18.528582,18.264221 13.291696,25.230495 11.500037,31.436501 z"
     style="fill:#404040;"/>
  </a>
 </g>
</svg>

<style type='text/css'>
<![CDATA[
[data-mouse-over-selected='false'] { opacity: 0.7; }
[data-mouse-over-selected='true']  { opacity: 1.0; }
]]>
</style>
<script type="application/ecmascript"><![CDATA[
document.addEventListener('DOMContentLoaded', (event) => {
  highlightEdges();
  highlightAdjacentNodes();
});
]]></script>
</svg>
