<?xml version="1.0" encoding="UTF-8" standalone="no"?>
<!DOCTYPE svg PUBLIC "-//W3C//DTD SVG 1.1//EN"
 "http://www.w3.org/Graphics/SVG/1.1/DTD/svg11.dtd">
<!-- Generated by graphviz version 2.43.0 (0)
 -->
<!-- Title: src/monte_carlo/models/random_action_strategy.cpp Pages: 1 -->
<svg width="320pt" height="280pt"
 viewBox="0.00 0.00 320.23 280.00" xmlns="http://www.w3.org/2000/svg" xmlns:xlink="http://www.w3.org/1999/xlink">
<g id="graph0" class="graph" transform="scale(1 1) rotate(0) translate(4 276)">
<title>src/monte_carlo/models/random_action_strategy.cpp</title>
<!-- Node1 -->
<g id="Node000001" class="node">
<title>Node1</title>
<g id="a_Node000001"><a xlink:title=" ">
<polygon fill="#999999" stroke="#666666" points="296.23,-272 139.23,-272 139.23,-242 296.23,-242 296.23,-272"/>
<text text-anchor="start" x="147.23" y="-260" font-family="Helvetica,sans-Serif" font-size="10.00">src/monte_carlo/models</text>
<text text-anchor="middle" x="217.73" y="-249" font-family="Helvetica,sans-Serif" font-size="10.00">/random_action_strategy.cpp</text>
</a>
</g>
</g>
<!-- Node2 -->
<g id="Node000002" class="node">
<title>Node2</title>
<g id="a_Node000002"><a xlink:href="random__rollout__strategy_8h.html" target="_top" xlink:title=" ">
<polygon fill="white" stroke="#666666" points="232.23,-206 85.23,-206 85.23,-176 232.23,-176 232.23,-206"/>
<text text-anchor="start" x="93.23" y="-194" font-family="Helvetica,sans-Serif" font-size="10.00">monte_carlo/models</text>
<text text-anchor="middle" x="158.73" y="-183" font-family="Helvetica,sans-Serif" font-size="10.00">/random_rollout_strategy.h</text>
</a>
</g>
</g>
<!-- Node1&#45;&gt;Node2 -->
<g id="edge1_Node000001_Node000002" class="edge">
<title>Node1&#45;&gt;Node2</title>
<g id="a_edge1_Node000001_Node000002"><a xlink:title=" ">
<path fill="none" stroke="#63b8ff" d="M204.64,-241.8C197,-233.51 187.21,-222.89 178.63,-213.59"/>
<polygon fill="#63b8ff" stroke="#63b8ff" points="181.14,-211.14 171.79,-206.16 175.99,-215.89 181.14,-211.14"/>
</a>
</g>
</g>
<!-- Node9 -->
<g id="Node000009" class="node">
<title>Node9</title>
<g id="a_Node000009"><a xlink:title=" ">
<polygon fill="#e0e0e0" stroke="#999999" points="304.73,-200.5 250.73,-200.5 250.73,-181.5 304.73,-181.5 304.73,-200.5"/>
<text text-anchor="middle" x="277.73" y="-188.5" font-family="Helvetica,sans-Serif" font-size="10.00">random</text>
</a>
</g>
</g>
<!-- Node1&#45;&gt;Node9 -->
<g id="edge10_Node000001_Node000009" class="edge">
<title>Node1&#45;&gt;Node9</title>
<g id="a_edge10_Node000001_Node000009"><a xlink:title=" ">
<path fill="none" stroke="#63b8ff" d="M231.05,-241.8C240.31,-231.92 252.68,-218.72 262.36,-208.39"/>
<polygon fill="#63b8ff" stroke="#63b8ff" points="265.15,-210.53 269.44,-200.84 260.05,-205.75 265.15,-210.53"/>
</a>
</g>
</g>
<!-- Node3 -->
<g id="Node000003" class="node">
<title>Node3</title>
<g id="a_Node000003"><a xlink:href="rollout__strategy__interface_8h.html" target="_top" xlink:title=" ">
<polygon fill="white" stroke="#666666" points="234.73,-140 82.73,-140 82.73,-121 234.73,-121 234.73,-140"/>
<text text-anchor="middle" x="158.73" y="-128" font-family="Helvetica,sans-Serif" font-size="10.00">rollout_strategy_interface.h</text>
</a>
</g>
</g>
<!-- Node2&#45;&gt;Node3 -->
<g id="edge2_Node000002_Node000003" class="edge">
<title>Node2&#45;&gt;Node3</title>
<g id="a_edge2_Node000002_Node000003"><a xlink:title=" ">
<path fill="none" stroke="#63b8ff" d="M158.73,-175.84C158.73,-168.21 158.73,-158.7 158.73,-150.45"/>
<polygon fill="#63b8ff" stroke="#63b8ff" points="162.23,-150.27 158.73,-140.27 155.23,-150.27 162.23,-150.27"/>
</a>
</g>
</g>
<!-- Node4 -->
<g id="Node000004" class="node">
<title>Node4</title>
<g id="a_Node000004"><a xlink:href="action_8h.html" target="_top" xlink:title=" ">
<polygon fill="white" stroke="#666666" points="130.73,-85 14.73,-85 14.73,-55 130.73,-55 130.73,-85"/>
<text text-anchor="start" x="22.73" y="-73" font-family="Helvetica,sans-Serif" font-size="10.00">monte_carlo/models</text>
<text text-anchor="middle" x="72.73" y="-62" font-family="Helvetica,sans-Serif" font-size="10.00">/action.h</text>
</a>
</g>
</g>
<!-- Node3&#45;&gt;Node4 -->
<g id="edge3_Node000003_Node000004" class="edge">
<title>Node3&#45;&gt;Node4</title>
<g id="a_edge3_Node000003_Node000004"><a xlink:title=" ">
<path fill="none" stroke="#63b8ff" d="M146.04,-120.87C134.48,-113 116.97,-101.09 101.96,-90.89"/>
<polygon fill="#63b8ff" stroke="#63b8ff" points="103.72,-87.85 93.48,-85.11 99.78,-93.63 103.72,-87.85"/>
</a>
</g>
</g>
<!-- Node5 -->
<g id="Node000005" class="node">
<title>Node5</title>
<g id="a_Node000005"><a xlink:title=" ">
<polygon fill="#e0e0e0" stroke="#999999" points="60.73,-19 2.73,-19 2.73,0 60.73,0 60.73,-19"/>
<text text-anchor="middle" x="31.73" y="-7" font-family="Helvetica,sans-Serif" font-size="10.00">memory</text>
</a>
</g>
</g>
<!-- Node3&#45;&gt;Node5 -->
<g id="edge7_Node000003_Node000005" class="edge">
<title>Node3&#45;&gt;Node5</title>
<g id="a_edge7_Node000003_Node000005"><a xlink:title=" ">
<path fill="none" stroke="#63b8ff" d="M105.38,-120.94C66.24,-113.44 17.89,-101.21 5.73,-85 -7.32,-67.62 5.79,-43.18 17.64,-27.09"/>
<polygon fill="#63b8ff" stroke="#63b8ff" points="20.49,-29.14 23.93,-19.12 14.99,-24.81 20.49,-29.14"/>
</a>
</g>
</g>
<!-- Node6 -->
<g id="Node000006" class="node">
<title>Node6</title>
<g id="a_Node000006"><a xlink:title=" ">
<polygon fill="#e0e0e0" stroke="#999999" points="141.23,-19 84.23,-19 84.23,0 141.23,0 141.23,-19"/>
<text text-anchor="middle" x="112.73" y="-7" font-family="Helvetica,sans-Serif" font-size="10.00">ostream</text>
</a>
</g>
</g>
<!-- Node3&#45;&gt;Node6 -->
<g id="edge8_Node000003_Node000006" class="edge">
<title>Node3&#45;&gt;Node6</title>
<g id="a_edge8_Node000003_Node000006"><a xlink:title=" ">
<path fill="none" stroke="#63b8ff" d="M157.4,-120.97C155.02,-106.85 149.34,-77.89 139.73,-55 135.76,-45.54 130,-35.71 124.81,-27.71"/>
<polygon fill="#63b8ff" stroke="#63b8ff" points="127.63,-25.62 119.14,-19.28 121.82,-29.53 127.63,-25.62"/>
</a>
</g>
</g>
<!-- Node7 -->
<g id="Node000007" class="node">
<title>Node7</title>
<g id="a_Node000007"><a xlink:title=" ">
<polygon fill="#e0e0e0" stroke="#999999" points="246.73,-79.5 186.73,-79.5 186.73,-60.5 246.73,-60.5 246.73,-79.5"/>
<text text-anchor="middle" x="216.73" y="-67.5" font-family="Helvetica,sans-Serif" font-size="10.00">iostream</text>
</a>
</g>
</g>
<!-- Node3&#45;&gt;Node7 -->
<g id="edge6_Node000003_Node000007" class="edge">
<title>Node3&#45;&gt;Node7</title>
<g id="a_edge6_Node000003_Node000007"><a xlink:title=" ">
<path fill="none" stroke="#63b8ff" d="M167.29,-120.87C176.11,-111.97 190.07,-97.89 200.91,-86.95"/>
<polygon fill="#63b8ff" stroke="#63b8ff" points="203.58,-89.23 208.14,-79.67 198.61,-84.3 203.58,-89.23"/>
</a>
</g>
</g>
<!-- Node8 -->
<g id="Node000008" class="node">
<title>Node8</title>
<g id="a_Node000008"><a xlink:title=" ">
<polygon fill="#e0e0e0" stroke="#999999" points="312.23,-79.5 265.23,-79.5 265.23,-60.5 312.23,-60.5 312.23,-79.5"/>
<text text-anchor="middle" x="288.73" y="-67.5" font-family="Helvetica,sans-Serif" font-size="10.00">vector</text>
</a>
</g>
</g>
<!-- Node3&#45;&gt;Node8 -->
<g id="edge9_Node000003_Node000008" class="edge">
<title>Node3&#45;&gt;Node8</title>
<g id="a_edge9_Node000003_Node000008"><a xlink:title=" ">
<path fill="none" stroke="#63b8ff" d="M177.63,-120.99C199.39,-111.2 235.35,-95.02 260.44,-83.73"/>
<polygon fill="#63b8ff" stroke="#63b8ff" points="262.12,-86.81 269.8,-79.52 259.25,-80.43 262.12,-86.81"/>
</a>
</g>
</g>
<!-- Node4&#45;&gt;Node5 -->
<g id="edge4_Node000004_Node000005" class="edge">
<title>Node4&#45;&gt;Node5</title>
<g id="a_edge4_Node000004_Node000005"><a xlink:title=" ">
<path fill="none" stroke="#63b8ff" d="M62.8,-54.84C57.04,-46.61 49.73,-36.18 43.65,-27.51"/>
<polygon fill="#63b8ff" stroke="#63b8ff" points="46.48,-25.45 37.87,-19.27 40.75,-29.46 46.48,-25.45"/>
</a>
</g>
</g>
<!-- Node4&#45;&gt;Node6 -->
<g id="edge5_Node000004_Node000006" class="edge">
<title>Node4&#45;&gt;Node6</title>
<g id="a_edge5_Node000004_Node000006"><a xlink:title=" ">
<path fill="none" stroke="#63b8ff" d="M82.41,-54.84C87.98,-46.69 95.02,-36.4 100.91,-27.78"/>
<polygon fill="#63b8ff" stroke="#63b8ff" points="103.98,-29.5 106.74,-19.27 98.2,-25.55 103.98,-29.5"/>
</a>
</g>
</g>
</g>
</svg>
