<?xml version="1.0" encoding="UTF-8" standalone="no"?>
<!DOCTYPE svg PUBLIC "-//W3C//DTD SVG 1.1//EN"
 "http://www.w3.org/Graphics/SVG/1.1/DTD/svg11.dtd">
<!-- Generated by graphviz version 2.43.0 (0)
 -->
<!-- Title: examples/monte_carlo/tic_tac_toe/include/tic_tac_toe/models/state.h Pages: 1 -->
<svg width="896pt" height="500pt"
 viewBox="0.00 0.00 895.67 500.00" xmlns="http://www.w3.org/2000/svg" xmlns:xlink="http://www.w3.org/1999/xlink">
<g id="graph0" class="graph" transform="scale(1 1) rotate(0) translate(4 496)">
<title>examples/monte_carlo/tic_tac_toe/include/tic_tac_toe/models/state.h</title>
<!-- Node1 -->
<g id="Node000001" class="node">
<title>Node1</title>
<g id="a_Node000001"><a xlink:title=" ">
<polygon fill="#999999" stroke="#666666" points="552.93,-492 403.93,-492 403.93,-451 552.93,-451 552.93,-492"/>
<text text-anchor="start" x="411.93" y="-480" font-family="Helvetica,sans-Serif" font-size="10.00">examples/monte_carlo</text>
<text text-anchor="start" x="411.93" y="-469" font-family="Helvetica,sans-Serif" font-size="10.00">/tic_tac_toe/include</text>
<text text-anchor="middle" x="478.43" y="-458" font-family="Helvetica,sans-Serif" font-size="10.00">/tic_tac_toe/models/state.h</text>
</a>
</g>
</g>
<!-- Node2 -->
<g id="Node000002" class="node">
<title>Node2</title>
<g id="a_Node000002"><a xlink:href="node__base_8h.html" target="_top" xlink:title=" ">
<polygon fill="white" stroke="#666666" points="428.43,-415 312.43,-415 312.43,-385 428.43,-385 428.43,-415"/>
<text text-anchor="start" x="320.43" y="-403" font-family="Helvetica,sans-Serif" font-size="10.00">monte_carlo/models</text>
<text text-anchor="middle" x="370.43" y="-392" font-family="Helvetica,sans-Serif" font-size="10.00">/node_base.h</text>
</a>
</g>
</g>
<!-- Node1&#45;&gt;Node2 -->
<g id="edge1_Node000001_Node000002" class="edge">
<title>Node1&#45;&gt;Node2</title>
<g id="a_edge1_Node000001_Node000002"><a xlink:title=" ">
<path fill="none" stroke="#63b8ff" d="M448.06,-450.96C433.39,-441.51 415.82,-430.2 401.1,-420.74"/>
<polygon fill="#63b8ff" stroke="#63b8ff" points="402.67,-417.58 392.36,-415.11 398.88,-423.47 402.67,-417.58"/>
</a>
</g>
</g>
<!-- Node10 -->
<g id="Node000010" class="node">
<title>Node10</title>
<g id="a_Node000010"><a xlink:href="tree__factory__interface_8h.html" target="_top" xlink:title=" ">
<polygon fill="white" stroke="#666666" points="703.93,-283 566.93,-283 566.93,-253 703.93,-253 703.93,-283"/>
<text text-anchor="start" x="574.93" y="-271" font-family="Helvetica,sans-Serif" font-size="10.00">monte_carlo/factories</text>
<text text-anchor="middle" x="635.43" y="-260" font-family="Helvetica,sans-Serif" font-size="10.00">/tree_factory_interface.h</text>
</a>
</g>
</g>
<!-- Node1&#45;&gt;Node10 -->
<g id="edge17_Node000001_Node000010" class="edge">
<title>Node1&#45;&gt;Node10</title>
<g id="a_edge17_Node000001_Node000010"><a xlink:title=" ">
<path fill="none" stroke="#63b8ff" d="M494.65,-450.93C514.31,-427.09 548.29,-385.48 576.43,-349 591.29,-329.75 607.66,-307.45 619.39,-291.3"/>
<polygon fill="#63b8ff" stroke="#63b8ff" points="622.35,-293.16 625.38,-283.01 616.68,-289.06 622.35,-293.16"/>
</a>
</g>
</g>
<!-- Node13 -->
<g id="Node000013" class="node">
<title>Node13</title>
<g id="a_Node000013"><a xlink:href="game__state_8h.html" target="_top" xlink:title=" ">
<polygon fill="white" stroke="#666666" points="532.93,-349 423.93,-349 423.93,-319 532.93,-319 532.93,-349"/>
<text text-anchor="start" x="431.93" y="-337" font-family="Helvetica,sans-Serif" font-size="10.00">tic_tac_toe/models</text>
<text text-anchor="middle" x="478.43" y="-326" font-family="Helvetica,sans-Serif" font-size="10.00">/game_state.h</text>
</a>
</g>
</g>
<!-- Node1&#45;&gt;Node13 -->
<g id="edge18_Node000001_Node000013" class="edge">
<title>Node1&#45;&gt;Node13</title>
<g id="a_edge18_Node000001_Node000013"><a xlink:title=" ">
<path fill="none" stroke="#63b8ff" d="M478.43,-450.8C478.43,-426.65 478.43,-385.72 478.43,-359.55"/>
<polygon fill="#63b8ff" stroke="#63b8ff" points="481.93,-359.33 478.43,-349.33 474.93,-359.33 481.93,-359.33"/>
</a>
</g>
</g>
<!-- Node3 -->
<g id="Node000003" class="node">
<title>Node3</title>
<g id="a_Node000003"><a xlink:href="node_8h.html" target="_top" xlink:title=" ">
<polygon fill="white" stroke="#666666" points="399.43,-349 283.43,-349 283.43,-319 399.43,-319 399.43,-349"/>
<text text-anchor="start" x="291.43" y="-337" font-family="Helvetica,sans-Serif" font-size="10.00">monte_carlo/models</text>
<text text-anchor="middle" x="341.43" y="-326" font-family="Helvetica,sans-Serif" font-size="10.00">/node.h</text>
</a>
</g>
</g>
<!-- Node2&#45;&gt;Node3 -->
<g id="edge2_Node000002_Node000003" class="edge">
<title>Node2&#45;&gt;Node3</title>
<g id="a_edge2_Node000002_Node000003"><a xlink:title=" ">
<path fill="none" stroke="#63b8ff" d="M364,-384.8C360.47,-377.01 356,-367.16 351.98,-358.28"/>
<polygon fill="#63b8ff" stroke="#63b8ff" points="355.17,-356.83 347.85,-349.16 348.79,-359.72 355.17,-356.83"/>
</a>
</g>
</g>
<!-- Node2&#45;&gt;Node10 -->
<g id="edge13_Node000002_Node000010" class="edge">
<title>Node2&#45;&gt;Node10</title>
<g id="a_edge13_Node000002_Node000010"><a xlink:title=" ">
<path fill="none" stroke="#63b8ff" d="M428.59,-388.58C463.09,-380.86 506.89,-368.26 542.43,-349 570.78,-333.64 598.12,-308.47 615.73,-290.47"/>
<polygon fill="#63b8ff" stroke="#63b8ff" points="618.27,-292.88 622.66,-283.24 613.21,-288.04 618.27,-292.88"/>
</a>
</g>
</g>
<!-- Node12 -->
<g id="Node000012" class="node">
<title>Node12</title>
<g id="a_Node000012"><a xlink:title=" ">
<polygon fill="#e0e0e0" stroke="#999999" points="265.43,-349 149.43,-349 149.43,-319 265.43,-319 265.43,-349"/>
<text text-anchor="start" x="157.43" y="-337" font-family="Helvetica,sans-Serif" font-size="10.00">monte_carlo/models</text>
<text text-anchor="middle" x="207.43" y="-326" font-family="Helvetica,sans-Serif" font-size="10.00">/node_base.tpp</text>
</a>
</g>
</g>
<!-- Node2&#45;&gt;Node12 -->
<g id="edge16_Node000002_Node000012" class="edge">
<title>Node2&#45;&gt;Node12</title>
<g id="a_edge16_Node000002_Node000012"><a xlink:title=" ">
<path fill="none" stroke="#63b8ff" d="M334.66,-384.95C310.56,-375.49 278.58,-362.93 252.71,-352.78"/>
<polygon fill="#63b8ff" stroke="#63b8ff" points="253.71,-349.41 243.12,-349.01 251.15,-355.93 253.71,-349.41"/>
</a>
</g>
</g>
<!-- Node4 -->
<g id="Node000004" class="node">
<title>Node4</title>
<g id="a_Node000004"><a xlink:href="rollout__strategy__interface_8h.html" target="_top" xlink:title=" ">
<polygon fill="white" stroke="#666666" points="255.93,-283 100.93,-283 100.93,-253 255.93,-253 255.93,-283"/>
<text text-anchor="start" x="108.93" y="-271" font-family="Helvetica,sans-Serif" font-size="10.00">monte_carlo/models</text>
<text text-anchor="middle" x="178.43" y="-260" font-family="Helvetica,sans-Serif" font-size="10.00">/rollout_strategy_interface.h</text>
</a>
</g>
</g>
<!-- Node3&#45;&gt;Node4 -->
<g id="edge3_Node000003_Node000004" class="edge">
<title>Node3&#45;&gt;Node4</title>
<g id="a_edge3_Node000003_Node000004"><a xlink:title=" ">
<path fill="none" stroke="#63b8ff" d="M305.66,-318.95C281.56,-309.49 249.58,-296.93 223.71,-286.78"/>
<polygon fill="#63b8ff" stroke="#63b8ff" points="224.71,-283.41 214.12,-283.01 222.15,-289.93 224.71,-283.41"/>
</a>
</g>
</g>
<!-- Node6 -->
<g id="Node000006" class="node">
<title>Node6</title>
<g id="a_Node000006"><a xlink:title=" ">
<polygon fill="#e0e0e0" stroke="#999999" points="408.43,-145.5 350.43,-145.5 350.43,-126.5 408.43,-126.5 408.43,-145.5"/>
<text text-anchor="middle" x="379.43" y="-133.5" font-family="Helvetica,sans-Serif" font-size="10.00">memory</text>
</a>
</g>
</g>
<!-- Node3&#45;&gt;Node6 -->
<g id="edge12_Node000003_Node000006" class="edge">
<title>Node3&#45;&gt;Node6</title>
<g id="a_edge12_Node000003_Node000006"><a xlink:title=" ">
<path fill="none" stroke="#63b8ff" d="M343.24,-318.81C346.69,-292.6 354.82,-234.9 365.43,-187 367.76,-176.5 370.96,-164.93 373.71,-155.56"/>
<polygon fill="#63b8ff" stroke="#63b8ff" points="377.12,-156.36 376.66,-145.78 370.42,-154.34 377.12,-156.36"/>
</a>
</g>
</g>
<!-- Node9 -->
<g id="Node000009" class="node">
<title>Node9</title>
<g id="a_Node000009"><a xlink:title=" ">
<polygon fill="#e0e0e0" stroke="#999999" points="312.93,-211.5 265.93,-211.5 265.93,-192.5 312.93,-192.5 312.93,-211.5"/>
<text text-anchor="middle" x="289.43" y="-199.5" font-family="Helvetica,sans-Serif" font-size="10.00">vector</text>
</a>
</g>
</g>
<!-- Node3&#45;&gt;Node9 -->
<g id="edge11_Node000003_Node000009" class="edge">
<title>Node3&#45;&gt;Node9</title>
<g id="a_edge11_Node000003_Node000009"><a xlink:title=" ">
<path fill="none" stroke="#63b8ff" d="M335.77,-318.84C326.28,-295.13 307.2,-247.41 296.72,-221.23"/>
<polygon fill="#63b8ff" stroke="#63b8ff" points="299.9,-219.73 292.93,-211.75 293.4,-222.33 299.9,-219.73"/>
</a>
</g>
</g>
<!-- Node5 -->
<g id="Node000005" class="node">
<title>Node5</title>
<g id="a_Node000005"><a xlink:href="action_8h.html" target="_top" xlink:title=" ">
<polygon fill="white" stroke="#666666" points="131.43,-217 15.43,-217 15.43,-187 131.43,-187 131.43,-217"/>
<text text-anchor="start" x="23.43" y="-205" font-family="Helvetica,sans-Serif" font-size="10.00">monte_carlo/models</text>
<text text-anchor="middle" x="73.43" y="-194" font-family="Helvetica,sans-Serif" font-size="10.00">/action.h</text>
</a>
</g>
</g>
<!-- Node4&#45;&gt;Node5 -->
<g id="edge4_Node000004_Node000005" class="edge">
<title>Node4&#45;&gt;Node5</title>
<g id="a_edge4_Node000004_Node000005"><a xlink:title=" ">
<path fill="none" stroke="#63b8ff" d="M155.39,-252.95C140.62,-243.95 121.25,-232.14 105.05,-222.27"/>
<polygon fill="#63b8ff" stroke="#63b8ff" points="106.78,-219.23 96.42,-217.01 103.14,-225.21 106.78,-219.23"/>
</a>
</g>
</g>
<!-- Node4&#45;&gt;Node6 -->
<g id="edge8_Node000004_Node000006" class="edge">
<title>Node4&#45;&gt;Node6</title>
<g id="a_edge8_Node000004_Node000006"><a xlink:title=" ">
<path fill="none" stroke="#63b8ff" d="M173.68,-252.89C168.78,-235.46 163.72,-205.82 178.43,-187 198.1,-161.83 287.27,-147.52 340.01,-141.11"/>
<polygon fill="#63b8ff" stroke="#63b8ff" points="340.51,-144.58 350.04,-139.93 339.7,-137.62 340.51,-144.58"/>
</a>
</g>
</g>
<!-- Node7 -->
<g id="Node000007" class="node">
<title>Node7</title>
<g id="a_Node000007"><a xlink:title=" ">
<polygon fill="#e0e0e0" stroke="#999999" points="58.93,-145.5 1.93,-145.5 1.93,-126.5 58.93,-126.5 58.93,-145.5"/>
<text text-anchor="middle" x="30.43" y="-133.5" font-family="Helvetica,sans-Serif" font-size="10.00">ostream</text>
</a>
</g>
</g>
<!-- Node4&#45;&gt;Node7 -->
<g id="edge9_Node000004_Node000007" class="edge">
<title>Node4&#45;&gt;Node7</title>
<g id="a_edge9_Node000004_Node000007"><a xlink:title=" ">
<path fill="none" stroke="#63b8ff" d="M100.93,-253.84C61.05,-245.32 18.33,-232.85 6.43,-217 -7.6,-198.31 5.55,-171.45 17.21,-154.11"/>
<polygon fill="#63b8ff" stroke="#63b8ff" points="20.36,-155.73 23.36,-145.57 14.68,-151.64 20.36,-155.73"/>
</a>
</g>
</g>
<!-- Node8 -->
<g id="Node000008" class="node">
<title>Node8</title>
<g id="a_Node000008"><a xlink:title=" ">
<polygon fill="#e0e0e0" stroke="#999999" points="247.43,-211.5 187.43,-211.5 187.43,-192.5 247.43,-192.5 247.43,-211.5"/>
<text text-anchor="middle" x="217.43" y="-199.5" font-family="Helvetica,sans-Serif" font-size="10.00">iostream</text>
</a>
</g>
</g>
<!-- Node4&#45;&gt;Node8 -->
<g id="edge7_Node000004_Node000008" class="edge">
<title>Node4&#45;&gt;Node8</title>
<g id="a_edge7_Node000004_Node000008"><a xlink:title=" ">
<path fill="none" stroke="#63b8ff" d="M187.09,-252.8C192.87,-243.31 200.52,-230.76 206.69,-220.63"/>
<polygon fill="#63b8ff" stroke="#63b8ff" points="209.83,-222.21 212.04,-211.84 203.85,-218.56 209.83,-222.21"/>
</a>
</g>
</g>
<!-- Node4&#45;&gt;Node9 -->
<g id="edge10_Node000004_Node000009" class="edge">
<title>Node4&#45;&gt;Node9</title>
<g id="a_edge10_Node000004_Node000009"><a xlink:title=" ">
<path fill="none" stroke="#63b8ff" d="M202.79,-252.95C221.57,-242.13 247.39,-227.24 265.94,-216.54"/>
<polygon fill="#63b8ff" stroke="#63b8ff" points="267.75,-219.54 274.66,-211.52 264.25,-213.48 267.75,-219.54"/>
</a>
</g>
</g>
<!-- Node5&#45;&gt;Node6 -->
<g id="edge5_Node000005_Node000006" class="edge">
<title>Node5&#45;&gt;Node6</title>
<g id="a_edge5_Node000005_Node000006"><a xlink:title=" ">
<path fill="none" stroke="#63b8ff" d="M131.71,-188.81C192.83,-176.03 287.21,-156.29 340.08,-145.23"/>
<polygon fill="#63b8ff" stroke="#63b8ff" points="341.01,-148.61 350.08,-143.14 339.58,-141.76 341.01,-148.61"/>
</a>
</g>
</g>
<!-- Node5&#45;&gt;Node7 -->
<g id="edge6_Node000005_Node000007" class="edge">
<title>Node5&#45;&gt;Node7</title>
<g id="a_edge6_Node000005_Node000007"><a xlink:title=" ">
<path fill="none" stroke="#63b8ff" d="M63.89,-186.8C57.45,-177.21 48.91,-164.5 42.07,-154.32"/>
<polygon fill="#63b8ff" stroke="#63b8ff" points="44.86,-152.19 36.38,-145.84 39.05,-156.1 44.86,-152.19"/>
</a>
</g>
</g>
<!-- Node10&#45;&gt;Node6 -->
<g id="edge14_Node000010_Node000006" class="edge">
<title>Node10&#45;&gt;Node6</title>
<g id="a_edge14_Node000010_Node000006"><a xlink:title=" ">
<path fill="none" stroke="#63b8ff" d="M637.33,-252.75C638.84,-234.89 638.42,-204.51 621.43,-187 593.83,-158.54 479.96,-145.12 418.77,-139.85"/>
<polygon fill="#63b8ff" stroke="#63b8ff" points="418.95,-136.35 408.7,-139.01 418.38,-143.33 418.95,-136.35"/>
</a>
</g>
</g>
<!-- Node11 -->
<g id="Node000011" class="node">
<title>Node11</title>
<g id="a_Node000011"><a xlink:title=" ">
<polygon fill="#e0e0e0" stroke="#999999" points="744.43,-19 700.43,-19 700.43,0 744.43,0 744.43,-19"/>
<text text-anchor="middle" x="722.43" y="-7" font-family="Helvetica,sans-Serif" font-size="10.00">string</text>
</a>
</g>
</g>
<!-- Node10&#45;&gt;Node11 -->
<g id="edge15_Node000010_Node000011" class="edge">
<title>Node10&#45;&gt;Node11</title>
<g id="a_edge15_Node000010_Node000011"><a xlink:title=" ">
<path fill="none" stroke="#63b8ff" d="M704.04,-257.12C762.84,-244.33 842.21,-215.43 869.43,-151 886.05,-111.68 897.97,-89.21 872.43,-55 845.41,-18.8 790.2,-10.85 754.83,-9.73"/>
<polygon fill="#63b8ff" stroke="#63b8ff" points="754.59,-6.22 744.54,-9.57 754.48,-13.22 754.59,-6.22"/>
</a>
</g>
</g>
<!-- Node13&#45;&gt;Node6 -->
<g id="edge19_Node000013_Node000006" class="edge">
<title>Node13&#45;&gt;Node6</title>
<g id="a_edge19_Node000013_Node000006"><a xlink:title=" ">
<path fill="none" stroke="#63b8ff" d="M455.44,-318.97C442.78,-310.13 427.78,-297.63 418.43,-283 392.49,-242.4 383.7,-184.93 380.8,-155.68"/>
<polygon fill="#63b8ff" stroke="#63b8ff" points="384.28,-155.28 379.93,-145.62 377.31,-155.89 384.28,-155.28"/>
</a>
</g>
</g>
<!-- Node14 -->
<g id="Node000014" class="node">
<title>Node14</title>
<g id="a_Node000014"><a xlink:href="board_8h.html" target="_top" xlink:title=" ">
<polygon fill="white" stroke="#666666" points="535.93,-283 426.93,-283 426.93,-253 535.93,-253 535.93,-283"/>
<text text-anchor="start" x="434.93" y="-271" font-family="Helvetica,sans-Serif" font-size="10.00">tic_tac_toe/models</text>
<text text-anchor="middle" x="481.43" y="-260" font-family="Helvetica,sans-Serif" font-size="10.00">/board.h</text>
</a>
</g>
</g>
<!-- Node13&#45;&gt;Node14 -->
<g id="edge20_Node000013_Node000014" class="edge">
<title>Node13&#45;&gt;Node14</title>
<g id="a_edge20_Node000013_Node000014"><a xlink:title=" ">
<path fill="none" stroke="#63b8ff" d="M479.1,-318.8C479.45,-311.34 479.89,-301.99 480.29,-293.41"/>
<polygon fill="#63b8ff" stroke="#63b8ff" points="483.8,-293.32 480.77,-283.16 476.8,-292.99 483.8,-293.32"/>
</a>
</g>
</g>
<!-- Node14&#45;&gt;Node6 -->
<g id="edge33_Node000014_Node000006" class="edge">
<title>Node14&#45;&gt;Node6</title>
<g id="a_edge33_Node000014_Node000006"><a xlink:title=" ">
<path fill="none" stroke="#63b8ff" d="M467.99,-252.94C458.8,-243.12 446.52,-229.57 436.43,-217 419.67,-196.09 402,-170.71 390.86,-154.22"/>
<polygon fill="#63b8ff" stroke="#63b8ff" points="393.59,-152 385.12,-145.64 387.78,-155.9 393.59,-152"/>
</a>
</g>
</g>
<!-- Node14&#45;&gt;Node9 -->
<g id="edge21_Node000014_Node000009" class="edge">
<title>Node14&#45;&gt;Node9</title>
<g id="a_edge21_Node000014_Node000009"><a xlink:title=" ">
<path fill="none" stroke="#63b8ff" d="M439.3,-252.95C404.34,-241.3 355.28,-224.95 322.95,-214.17"/>
<polygon fill="#63b8ff" stroke="#63b8ff" points="323.67,-210.72 313.08,-210.88 321.46,-217.36 323.67,-210.72"/>
</a>
</g>
</g>
<!-- Node15 -->
<g id="Node000015" class="node">
<title>Node15</title>
<g id="a_Node000015"><a xlink:href="player_8h.html" target="_top" xlink:title=" ">
<polygon fill="white" stroke="#666666" points="776.93,-217 667.93,-217 667.93,-187 776.93,-187 776.93,-217"/>
<text text-anchor="start" x="675.93" y="-205" font-family="Helvetica,sans-Serif" font-size="10.00">tic_tac_toe/models</text>
<text text-anchor="middle" x="722.43" y="-194" font-family="Helvetica,sans-Serif" font-size="10.00">/player.h</text>
</a>
</g>
</g>
<!-- Node14&#45;&gt;Node15 -->
<g id="edge22_Node000014_Node000015" class="edge">
<title>Node14&#45;&gt;Node15</title>
<g id="a_edge22_Node000014_Node000015"><a xlink:title=" ">
<path fill="none" stroke="#63b8ff" d="M534.32,-252.95C571.36,-243.12 621.01,-229.93 660,-219.58"/>
<polygon fill="#63b8ff" stroke="#63b8ff" points="660.9,-222.96 669.67,-217.01 659.1,-216.2 660.9,-222.96"/>
</a>
</g>
</g>
<!-- Node16 -->
<g id="Node000016" class="node">
<title>Node16</title>
<g id="a_Node000016"><a xlink:href="position_8h.html" target="_top" xlink:title=" ">
<polygon fill="white" stroke="#666666" points="859.93,-151 750.93,-151 750.93,-121 859.93,-121 859.93,-151"/>
<text text-anchor="start" x="758.93" y="-139" font-family="Helvetica,sans-Serif" font-size="10.00">tic_tac_toe/models</text>
<text text-anchor="middle" x="805.43" y="-128" font-family="Helvetica,sans-Serif" font-size="10.00">/position.h</text>
</a>
</g>
</g>
<!-- Node14&#45;&gt;Node16 -->
<g id="edge31_Node000014_Node000016" class="edge">
<title>Node14&#45;&gt;Node16</title>
<g id="a_edge31_Node000014_Node000016"><a xlink:title=" ">
<path fill="none" stroke="#63b8ff" d="M536.09,-256.9C543.59,-255.56 551.2,-254.23 558.43,-253 609,-244.41 748.8,-251.86 786.43,-217 801.6,-202.96 805.68,-179.21 806.38,-161.23"/>
<polygon fill="#63b8ff" stroke="#63b8ff" points="809.88,-161.19 806.44,-151.17 802.88,-161.15 809.88,-161.19"/>
</a>
</g>
</g>
<!-- Node20 -->
<g id="Node000020" class="node">
<title>Node20</title>
<g id="a_Node000020"><a xlink:href="alignment_8h.html" target="_top" xlink:title=" ">
<polygon fill="white" stroke="#666666" points="611.93,-211.5 444.93,-211.5 444.93,-192.5 611.93,-192.5 611.93,-211.5"/>
<text text-anchor="middle" x="528.43" y="-199.5" font-family="Helvetica,sans-Serif" font-size="10.00">tic_tac_toe/enums/alignment.h</text>
</a>
</g>
</g>
<!-- Node14&#45;&gt;Node20 -->
<g id="edge32_Node000014_Node000020" class="edge">
<title>Node14&#45;&gt;Node20</title>
<g id="a_edge32_Node000014_Node000020"><a xlink:title=" ">
<path fill="none" stroke="#63b8ff" d="M491.86,-252.8C498.98,-243.11 508.43,-230.24 515.94,-220.01"/>
<polygon fill="#63b8ff" stroke="#63b8ff" points="518.84,-221.98 521.94,-211.84 513.2,-217.83 518.84,-221.98"/>
</a>
</g>
</g>
<!-- Node15&#45;&gt;Node6 -->
<g id="edge23_Node000015_Node000006" class="edge">
<title>Node15&#45;&gt;Node6</title>
<g id="a_edge23_Node000015_Node000006"><a xlink:title=" ">
<path fill="none" stroke="#63b8ff" d="M667.84,-189.82C662.97,-188.85 658.11,-187.9 653.43,-187 569.97,-170.92 471.94,-153.35 418.7,-143.91"/>
<polygon fill="#63b8ff" stroke="#63b8ff" points="419.12,-140.44 408.67,-142.14 417.9,-147.33 419.12,-140.44"/>
</a>
</g>
</g>
<!-- Node15&#45;&gt;Node16 -->
<g id="edge24_Node000015_Node000016" class="edge">
<title>Node15&#45;&gt;Node16</title>
<g id="a_edge24_Node000015_Node000016"><a xlink:title=" ">
<path fill="none" stroke="#63b8ff" d="M740.85,-186.8C752.03,-178.18 766.48,-167.04 778.88,-157.48"/>
<polygon fill="#63b8ff" stroke="#63b8ff" points="781.28,-160.04 787.06,-151.16 777.01,-154.5 781.28,-160.04"/>
</a>
</g>
</g>
<!-- Node18 -->
<g id="Node000018" class="node">
<title>Node18</title>
<g id="a_Node000018"><a xlink:href="symbol_8h.html" target="_top" xlink:title=" ">
<polygon fill="white" stroke="#666666" points="799.43,-79.5 645.43,-79.5 645.43,-60.5 799.43,-60.5 799.43,-79.5"/>
<text text-anchor="middle" x="722.43" y="-67.5" font-family="Helvetica,sans-Serif" font-size="10.00">tic_tac_toe/enums/symbol.h</text>
</a>
</g>
</g>
<!-- Node15&#45;&gt;Node18 -->
<g id="edge28_Node000015_Node000018" class="edge">
<title>Node15&#45;&gt;Node18</title>
<g id="a_edge28_Node000015_Node000018"><a xlink:title=" ">
<path fill="none" stroke="#63b8ff" d="M722.43,-186.84C722.43,-163.34 722.43,-116.26 722.43,-89.93"/>
<polygon fill="#63b8ff" stroke="#63b8ff" points="725.93,-89.75 722.43,-79.75 718.93,-89.75 725.93,-89.75"/>
</a>
</g>
</g>
<!-- Node19 -->
<g id="Node000019" class="node">
<title>Node19</title>
<g id="a_Node000019"><a xlink:href="observer_8h.html" target="_top" xlink:title=" ">
<polygon fill="white" stroke="#666666" points="627.43,-85 511.43,-85 511.43,-55 627.43,-55 627.43,-85"/>
<text text-anchor="start" x="519.43" y="-73" font-family="Helvetica,sans-Serif" font-size="10.00">tic_tac_toe/observer</text>
<text text-anchor="middle" x="569.43" y="-62" font-family="Helvetica,sans-Serif" font-size="10.00">/observer.h</text>
</a>
</g>
</g>
<!-- Node15&#45;&gt;Node19 -->
<g id="edge29_Node000015_Node000019" class="edge">
<title>Node15&#45;&gt;Node19</title>
<g id="a_edge29_Node000015_Node000019"><a xlink:title=" ">
<path fill="none" stroke="#63b8ff" d="M705.77,-186.84C678.75,-163.88 625.26,-118.44 593.92,-91.8"/>
<polygon fill="#63b8ff" stroke="#63b8ff" points="595.96,-88.95 586.08,-85.14 591.43,-94.28 595.96,-88.95"/>
</a>
</g>
</g>
<!-- Node17 -->
<g id="Node000017" class="node">
<title>Node17</title>
<g id="a_Node000017"><a xlink:title=" ">
<polygon fill="#e0e0e0" stroke="#999999" points="862.93,-79.5 817.93,-79.5 817.93,-60.5 862.93,-60.5 862.93,-79.5"/>
<text text-anchor="middle" x="840.43" y="-67.5" font-family="Helvetica,sans-Serif" font-size="10.00">utility</text>
</a>
</g>
</g>
<!-- Node16&#45;&gt;Node17 -->
<g id="edge25_Node000016_Node000017" class="edge">
<title>Node16&#45;&gt;Node17</title>
<g id="a_edge25_Node000016_Node000017"><a xlink:title=" ">
<path fill="none" stroke="#63b8ff" d="M813.2,-120.8C818.39,-111.31 825.25,-98.76 830.79,-88.63"/>
<polygon fill="#63b8ff" stroke="#63b8ff" points="833.87,-90.3 835.6,-79.84 827.73,-86.94 833.87,-90.3"/>
</a>
</g>
</g>
<!-- Node16&#45;&gt;Node18 -->
<g id="edge26_Node000016_Node000018" class="edge">
<title>Node16&#45;&gt;Node18</title>
<g id="a_edge26_Node000016_Node000018"><a xlink:title=" ">
<path fill="none" stroke="#63b8ff" d="M787.01,-120.8C773.69,-110.53 755.72,-96.67 742.12,-86.18"/>
<polygon fill="#63b8ff" stroke="#63b8ff" points="743.96,-83.18 733.9,-79.84 739.68,-88.72 743.96,-83.18"/>
</a>
</g>
</g>
<!-- Node18&#45;&gt;Node11 -->
<g id="edge27_Node000018_Node000011" class="edge">
<title>Node18&#45;&gt;Node11</title>
<g id="a_edge27_Node000018_Node000011"><a xlink:title=" ">
<path fill="none" stroke="#63b8ff" d="M722.43,-60.37C722.43,-52.25 722.43,-39.81 722.43,-29.39"/>
<polygon fill="#63b8ff" stroke="#63b8ff" points="725.93,-29.17 722.43,-19.17 718.93,-29.17 725.93,-29.17"/>
</a>
</g>
</g>
<!-- Node19&#45;&gt;Node11 -->
<g id="edge30_Node000019_Node000011" class="edge">
<title>Node19&#45;&gt;Node11</title>
<g id="a_edge30_Node000019_Node000011"><a xlink:title=" ">
<path fill="none" stroke="#63b8ff" d="M606.08,-54.99C631.88,-45.12 666.06,-32.05 690.69,-22.64"/>
<polygon fill="#63b8ff" stroke="#63b8ff" points="692.19,-25.81 700.28,-18.97 689.69,-19.27 692.19,-25.81"/>
</a>
</g>
</g>
</g>
</svg>
