<?xml version="1.0" encoding="UTF-8" standalone="no"?>
<!DOCTYPE svg PUBLIC "-//W3C//DTD SVG 1.1//EN"
 "http://www.w3.org/Graphics/SVG/1.1/DTD/svg11.dtd">
<!-- Generated by graphviz version 2.43.0 (0)
 -->
<!-- Title: examples/monte_carlo/tic_tac_toe/src/models/state.cpp Pages: 1 -->
<!--zoomable 489 -->

<svg id="main" version="1.1" xmlns="http://www.w3.org/2000/svg" xmlns:xlink="http://www.w3.org/1999/xlink" xml:space="preserve" onload="init(evt)">
<style type="text/css"><![CDATA[
.node, .edge {opacity: 0.7;}
.node.selected, .edge.selected {opacity: 1;}
.edge:hover path { stroke: red; }
.edge:hover polygon { stroke: red; fill: red; }
]]></style>

<defs>
  <circle id="rim" cx="0" cy="0" r="7"/>
  <circle id="rim2" cx="0" cy="0" r="3.5"/>
  <g id="zoomPlus">
    <use xlink:href="#rim" fill="#404040"><set attributeName="fill" to="#808080" begin="zoomplus.mouseover" end="zoomplus.mouseout"/></use>
    <path d="M-4,0h8M0,-4v8" fill="none" stroke="white" stroke-width="1.5" pointer-events="none"/>
  </g>
  <g id="zoomMin">
    <use xlink:href="#rim" fill="#404040"><set attributeName="fill" to="#808080" begin="zoomminus.mouseover" end="zoomminus.mouseout"/></use>
    <path d="M-4,0h8" fill="none" stroke="white" stroke-width="1.5" pointer-events="none"/>
  </g>
  <g id="arrowUp" transform="translate(30 24)">
    <use xlink:href="#rim"/>
    <path pointer-events="none" fill="none" stroke="white" stroke-width="1.5" d="M0,-3.0v7 M-2.5,-0.5L0,-3.0L2.5,-0.5"/>
  </g>
  <g id="arrowRight" transform="rotate(90) translate(36 -43)">
    <use xlink:href="#rim"/>
    <path pointer-events="none" fill="none" stroke="white" stroke-width="1.5" d="M0,-3.0v7 M-2.5,-0.5L0,-3.0L2.5,-0.5"/>
  </g>
  <g id="arrowDown" transform="rotate(180) translate(-30 -48)">
    <use xlink:href="#rim"/>
    <path pointer-events="none" fill="none" stroke="white" stroke-width="1.5" d="M0,-3.0v7 M-2.5,-0.5L0,-3.0L2.5,-0.5"/>
  </g>
  <g id="arrowLeft" transform="rotate(270) translate(-36 17)">
    <use xlink:href="#rim"/>
    <path pointer-events="none" fill="none" stroke="white" stroke-width="1.5" d="M0,-3.0v7 M-2.5,-0.5L0,-3.0L2.5,-0.5"/>
  </g>
  <g id="resetDef">
    <use xlink:href="#rim2" fill="#404040"><set attributeName="fill" to="#808080" begin="reset.mouseover" end="reset.mouseout"/></use>
  </g>
</defs>
<script type="application/ecmascript">
var viewWidth = 1041;
var viewHeight = 489;
var sectionId = 'dynsection-0';
</script>
<script type="application/ecmascript" xlink:href="svg.min.js"/>
<svg id="graph" class="graph">
<g id="viewport">
<title>examples/monte_carlo/tic_tac_toe/src/models/state.cpp</title>
<!-- Node1 -->
<g id="Node000001" class="node">
<title>Node1</title>
<g id="a_Node000001"><a xlink:title=" ">
<polygon fill="#999999" stroke="#666666" points="635,-481 506,-481 506,-440 635,-440 635,-481"/>
<text text-anchor="start" x="514" y="-469" font-family="Helvetica,sans-Serif" font-size="10.00">examples/monte_carlo</text>
<text text-anchor="start" x="514" y="-458" font-family="Helvetica,sans-Serif" font-size="10.00">/tic_tac_toe/src/models</text>
<text text-anchor="middle" x="570.5" y="-447" font-family="Helvetica,sans-Serif" font-size="10.00">/state.cpp</text>
</a>
</g>
</g>
<!-- Node2 -->
<g id="Node000002" class="node">
<title>Node2</title>
<g id="a_Node000002"><a xlink:href="state_8h.html" target="_top" xlink:title=" ">
<polygon fill="white" stroke="#666666" points="334,-404 225,-404 225,-374 334,-374 334,-404"/>
<text text-anchor="start" x="233" y="-392" font-family="Helvetica,sans-Serif" font-size="10.00">tic_tac_toe/models</text>
<text text-anchor="middle" x="279.5" y="-381" font-family="Helvetica,sans-Serif" font-size="10.00">/state.h</text>
</a>
</g>
</g>
<!-- Node1&#45;&gt;Node2 -->
<g id="edge1_Node000001_Node000002" class="edge">
<title>Node1&#45;&gt;Node2</title>
<g id="a_edge1_Node000001_Node000002"><a xlink:title=" ">
<path fill="none" stroke="#63b8ff" d="M505.92,-444.08C457.77,-432.58 392.29,-416.94 344.13,-405.44"/>
<polygon fill="#63b8ff" stroke="#63b8ff" points="344.67,-401.97 334.13,-403.05 343.04,-408.77 344.67,-401.97"/>
</a>
</g>
</g>
<!-- Node11 -->
<g id="Node000011" class="node">
<title>Node11</title>
<g id="a_Node000011"><a xlink:href="tree__factory__interface_8h.html" target="_top" xlink:title=" ">
<polygon fill="white" stroke="#666666" points="137,-272 0,-272 0,-242 137,-242 137,-272"/>
<text text-anchor="start" x="8" y="-260" font-family="Helvetica,sans-Serif" font-size="10.00">monte_carlo/factories</text>
<text text-anchor="middle" x="68.5" y="-249" font-family="Helvetica,sans-Serif" font-size="10.00">/tree_factory_interface.h</text>
</a>
</g>
</g>
<!-- Node1&#45;&gt;Node11 -->
<g id="edge35_Node000001_Node000011" class="edge">
<title>Node1&#45;&gt;Node11</title>
<g id="a_edge35_Node000001_Node000011"><a xlink:title=" ">
<path fill="none" stroke="#63b8ff" d="M505.67,-456.78C433.24,-452.06 313.43,-439.16 216.5,-404 162.9,-384.56 144.81,-380.22 106.5,-338 91.87,-321.88 81.8,-299.11 75.72,-281.99"/>
<polygon fill="#63b8ff" stroke="#63b8ff" points="78.92,-280.54 72.44,-272.16 72.28,-282.76 78.92,-280.54"/>
</a>
</g>
</g>
<!-- Node18 -->
<g id="Node000018" class="node">
<title>Node18</title>
<g id="a_Node000018"><a xlink:title=" ">
<polygon fill="#e0e0e0" stroke="#999999" points="1032,-74 987,-74 987,-55 1032,-55 1032,-74"/>
<text text-anchor="middle" x="1009.5" y="-62" font-family="Helvetica,sans-Serif" font-size="10.00">utility</text>
</a>
</g>
</g>
<!-- Node1&#45;&gt;Node18 -->
<g id="edge36_Node000001_Node000018" class="edge">
<title>Node1&#45;&gt;Node18</title>
<g id="a_edge36_Node000001_Node000018"><a xlink:title=" ">
<path fill="none" stroke="#63b8ff" d="M635.23,-454.11C762.37,-441.73 1032.5,-405.81 1032.5,-324 1032.5,-324 1032.5,-324 1032.5,-190 1032.5,-151.86 1021.93,-108.22 1015.12,-84.07"/>
<polygon fill="#63b8ff" stroke="#63b8ff" points="1018.39,-82.77 1012.23,-74.15 1011.67,-84.73 1018.39,-82.77"/>
</a>
</g>
</g>
<!-- Node22 -->
<g id="Node000022" class="node">
<title>Node22</title>
<g id="a_Node000022"><a xlink:href="bot_8h.html" target="_top" xlink:title=" ">
<polygon fill="white" stroke="#666666" points="625,-338 516,-338 516,-308 625,-308 625,-338"/>
<text text-anchor="start" x="524" y="-326" font-family="Helvetica,sans-Serif" font-size="10.00">tic_tac_toe/models</text>
<text text-anchor="middle" x="570.5" y="-315" font-family="Helvetica,sans-Serif" font-size="10.00">/bot.h</text>
</a>
</g>
</g>
<!-- Node1&#45;&gt;Node22 -->
<g id="edge37_Node000001_Node000022" class="edge">
<title>Node1&#45;&gt;Node22</title>
<g id="a_edge37_Node000001_Node000022"><a xlink:title=" ">
<path fill="none" stroke="#63b8ff" d="M570.5,-439.8C570.5,-415.65 570.5,-374.72 570.5,-348.55"/>
<polygon fill="#63b8ff" stroke="#63b8ff" points="574,-348.33 570.5,-338.33 567,-348.33 574,-348.33"/>
</a>
</g>
</g>
<!-- Node23 -->
<g id="Node000023" class="node">
<title>Node23</title>
<g id="a_Node000023"><a xlink:href="human_8h.html" target="_top" xlink:title=" ">
<polygon fill="white" stroke="#666666" points="752,-338 643,-338 643,-308 752,-308 752,-338"/>
<text text-anchor="start" x="651" y="-326" font-family="Helvetica,sans-Serif" font-size="10.00">tic_tac_toe/models</text>
<text text-anchor="middle" x="697.5" y="-315" font-family="Helvetica,sans-Serif" font-size="10.00">/human.h</text>
</a>
</g>
</g>
<!-- Node1&#45;&gt;Node23 -->
<g id="edge43_Node000001_Node000023" class="edge">
<title>Node1&#45;&gt;Node23</title>
<g id="a_edge43_Node000001_Node000023"><a xlink:title=" ">
<path fill="none" stroke="#63b8ff" d="M588.97,-439.8C612.41,-414.79 652.72,-371.78 677.06,-345.8"/>
<polygon fill="#63b8ff" stroke="#63b8ff" points="679.79,-348.02 684.07,-338.33 674.68,-343.23 679.79,-348.02"/>
</a>
</g>
</g>
<!-- Node3 -->
<g id="Node000003" class="node">
<title>Node3</title>
<g id="a_Node000003"><a xlink:href="node__base_8h.html" target="_top" xlink:title=" ">
<polygon fill="white" stroke="#666666" points="271.5,-338 155.5,-338 155.5,-308 271.5,-308 271.5,-338"/>
<text text-anchor="start" x="163.5" y="-326" font-family="Helvetica,sans-Serif" font-size="10.00">monte_carlo/models</text>
<text text-anchor="middle" x="213.5" y="-315" font-family="Helvetica,sans-Serif" font-size="10.00">/node_base.h</text>
</a>
</g>
</g>
<!-- Node2&#45;&gt;Node3 -->
<g id="edge2_Node000002_Node000003" class="edge">
<title>Node2&#45;&gt;Node3</title>
<g id="a_edge2_Node000002_Node000003"><a xlink:title=" ">
<path fill="none" stroke="#63b8ff" d="M264.85,-373.8C256.22,-365.43 245.14,-354.68 235.48,-345.31"/>
<polygon fill="#63b8ff" stroke="#63b8ff" points="237.72,-342.61 228.11,-338.16 232.85,-347.64 237.72,-342.61"/>
</a>
</g>
</g>
<!-- Node2&#45;&gt;Node11 -->
<g id="edge18_Node000002_Node000011" class="edge">
<title>Node2&#45;&gt;Node11</title>
<g id="a_edge18_Node000002_Node000011"><a xlink:title=" ">
<path fill="none" stroke="#63b8ff" d="M226.46,-373.96C201.03,-365.79 170.87,-353.92 146.5,-338 122.5,-322.31 100.21,-298.07 85.66,-280.38"/>
<polygon fill="#63b8ff" stroke="#63b8ff" points="88.15,-277.9 79.16,-272.29 82.69,-282.28 88.15,-277.9"/>
</a>
</g>
</g>
<!-- Node14 -->
<g id="Node000014" class="node">
<title>Node14</title>
<g id="a_Node000014"><a xlink:href="game__state_8h.html" target="_top" xlink:title=" ">
<polygon fill="white" stroke="#666666" points="399,-338 290,-338 290,-308 399,-308 399,-338"/>
<text text-anchor="start" x="298" y="-326" font-family="Helvetica,sans-Serif" font-size="10.00">tic_tac_toe/models</text>
<text text-anchor="middle" x="344.5" y="-315" font-family="Helvetica,sans-Serif" font-size="10.00">/game_state.h</text>
</a>
</g>
</g>
<!-- Node2&#45;&gt;Node14 -->
<g id="edge19_Node000002_Node000014" class="edge">
<title>Node2&#45;&gt;Node14</title>
<g id="a_edge19_Node000002_Node000014"><a xlink:title=" ">
<path fill="none" stroke="#63b8ff" d="M293.93,-373.8C302.43,-365.43 313.34,-354.68 322.86,-345.31"/>
<polygon fill="#63b8ff" stroke="#63b8ff" points="325.44,-347.67 330.11,-338.16 320.53,-342.69 325.44,-347.67"/>
</a>
</g>
</g>
<!-- Node4 -->
<g id="Node000004" class="node">
<title>Node4</title>
<g id="a_Node000004"><a xlink:href="node_8h.html" target="_top" xlink:title=" ">
<polygon fill="white" stroke="#666666" points="499.5,-272 383.5,-272 383.5,-242 499.5,-242 499.5,-272"/>
<text text-anchor="start" x="391.5" y="-260" font-family="Helvetica,sans-Serif" font-size="10.00">monte_carlo/models</text>
<text text-anchor="middle" x="441.5" y="-249" font-family="Helvetica,sans-Serif" font-size="10.00">/node.h</text>
</a>
</g>
</g>
<!-- Node3&#45;&gt;Node4 -->
<g id="edge3_Node000003_Node000004" class="edge">
<title>Node3&#45;&gt;Node4</title>
<g id="a_edge3_Node000003_Node000004"><a xlink:title=" ">
<path fill="none" stroke="#63b8ff" d="M263.54,-307.95C298.28,-298.2 344.75,-285.16 381.49,-274.84"/>
<polygon fill="#63b8ff" stroke="#63b8ff" points="382.9,-278.08 391.58,-272.01 381.01,-271.35 382.9,-278.08"/>
</a>
</g>
</g>
<!-- Node3&#45;&gt;Node11 -->
<g id="edge14_Node000003_Node000011" class="edge">
<title>Node3&#45;&gt;Node11</title>
<g id="a_edge14_Node000003_Node000011"><a xlink:title=" ">
<path fill="none" stroke="#63b8ff" d="M181.68,-307.95C160.53,-298.62 132.54,-286.27 109.69,-276.18"/>
<polygon fill="#63b8ff" stroke="#63b8ff" points="110.81,-272.85 100.25,-272.01 107.98,-279.25 110.81,-272.85"/>
</a>
</g>
</g>
<!-- Node13 -->
<g id="Node000013" class="node">
<title>Node13</title>
<g id="a_Node000013"><a xlink:title=" ">
<polygon fill="#e0e0e0" stroke="#999999" points="271.5,-272 155.5,-272 155.5,-242 271.5,-242 271.5,-272"/>
<text text-anchor="start" x="163.5" y="-260" font-family="Helvetica,sans-Serif" font-size="10.00">monte_carlo/models</text>
<text text-anchor="middle" x="213.5" y="-249" font-family="Helvetica,sans-Serif" font-size="10.00">/node_base.tpp</text>
</a>
</g>
</g>
<!-- Node3&#45;&gt;Node13 -->
<g id="edge17_Node000003_Node000013" class="edge">
<title>Node3&#45;&gt;Node13</title>
<g id="a_edge17_Node000003_Node000013"><a xlink:title=" ">
<path fill="none" stroke="#63b8ff" d="M213.5,-307.8C213.5,-300.34 213.5,-290.99 213.5,-282.41"/>
<polygon fill="#63b8ff" stroke="#63b8ff" points="217,-282.16 213.5,-272.16 210,-282.16 217,-282.16"/>
</a>
</g>
</g>
<!-- Node5 -->
<g id="Node000005" class="node">
<title>Node5</title>
<g id="a_Node000005"><a xlink:href="rollout__strategy__interface_8h.html" target="_top" xlink:title=" ">
<polygon fill="white" stroke="#666666" points="413,-206 258,-206 258,-176 413,-176 413,-206"/>
<text text-anchor="start" x="266" y="-194" font-family="Helvetica,sans-Serif" font-size="10.00">monte_carlo/models</text>
<text text-anchor="middle" x="335.5" y="-183" font-family="Helvetica,sans-Serif" font-size="10.00">/rollout_strategy_interface.h</text>
</a>
</g>
</g>
<!-- Node4&#45;&gt;Node5 -->
<g id="edge4_Node000004_Node000005" class="edge">
<title>Node4&#45;&gt;Node5</title>
<g id="a_edge4_Node000004_Node000005"><a xlink:title=" ">
<path fill="none" stroke="#63b8ff" d="M418.24,-241.95C403.33,-232.95 383.77,-221.14 367.41,-211.27"/>
<polygon fill="#63b8ff" stroke="#63b8ff" points="369.08,-208.18 358.71,-206.01 365.46,-214.18 369.08,-208.18"/>
</a>
</g>
</g>
<!-- Node7 -->
<g id="Node000007" class="node">
<title>Node7</title>
<g id="a_Node000007"><a xlink:title=" ">
<polygon fill="#e0e0e0" stroke="#999999" points="494.5,-74 436.5,-74 436.5,-55 494.5,-55 494.5,-74"/>
<text text-anchor="middle" x="465.5" y="-62" font-family="Helvetica,sans-Serif" font-size="10.00">memory</text>
</a>
</g>
</g>
<!-- Node4&#45;&gt;Node7 -->
<g id="edge13_Node000004_Node000007" class="edge">
<title>Node4&#45;&gt;Node7</title>
<g id="a_edge13_Node000004_Node000007"><a xlink:title=" ">
<path fill="none" stroke="#63b8ff" d="M451.17,-241.8C464.89,-220.71 489.36,-179.34 498.5,-140 501.52,-127.01 502.68,-122.66 498.5,-110 495.04,-99.54 488.07,-89.53 481.42,-81.66"/>
<polygon fill="#63b8ff" stroke="#63b8ff" points="483.83,-79.1 474.52,-74.04 478.64,-83.8 483.83,-79.1"/>
</a>
</g>
</g>
<!-- Node10 -->
<g id="Node000010" class="node">
<title>Node10</title>
<g id="a_Node000010"><a xlink:title=" ">
<polygon fill="#e0e0e0" stroke="#999999" points="489,-134.5 442,-134.5 442,-115.5 489,-115.5 489,-134.5"/>
<text text-anchor="middle" x="465.5" y="-122.5" font-family="Helvetica,sans-Serif" font-size="10.00">vector</text>
</a>
</g>
</g>
<!-- Node4&#45;&gt;Node10 -->
<g id="edge12_Node000004_Node000010" class="edge">
<title>Node4&#45;&gt;Node10</title>
<g id="a_edge12_Node000004_Node000010"><a xlink:title=" ">
<path fill="none" stroke="#63b8ff" d="M444.11,-241.84C448.45,-218.34 457.14,-171.26 462.01,-144.93"/>
<polygon fill="#63b8ff" stroke="#63b8ff" points="465.51,-145.22 463.88,-134.75 458.63,-143.95 465.51,-145.22"/>
</a>
</g>
</g>
<!-- Node6 -->
<g id="Node000006" class="node">
<title>Node6</title>
<g id="a_Node000006"><a xlink:href="action_8h.html" target="_top" xlink:title=" ">
<polygon fill="white" stroke="#666666" points="307.5,-140 191.5,-140 191.5,-110 307.5,-110 307.5,-140"/>
<text text-anchor="start" x="199.5" y="-128" font-family="Helvetica,sans-Serif" font-size="10.00">monte_carlo/models</text>
<text text-anchor="middle" x="249.5" y="-117" font-family="Helvetica,sans-Serif" font-size="10.00">/action.h</text>
</a>
</g>
</g>
<!-- Node5&#45;&gt;Node6 -->
<g id="edge5_Node000005_Node000006" class="edge">
<title>Node5&#45;&gt;Node6</title>
<g id="a_edge5_Node000005_Node000006"><a xlink:title=" ">
<path fill="none" stroke="#63b8ff" d="M316.41,-175.8C304.72,-167.1 289.57,-155.82 276.65,-146.2"/>
<polygon fill="#63b8ff" stroke="#63b8ff" points="278.64,-143.33 268.53,-140.16 274.47,-148.94 278.64,-143.33"/>
</a>
</g>
</g>
<!-- Node5&#45;&gt;Node7 -->
<g id="edge9_Node000005_Node000007" class="edge">
<title>Node5&#45;&gt;Node7</title>
<g id="a_edge9_Node000005_Node000007"><a xlink:title=" ">
<path fill="none" stroke="#63b8ff" d="M353.22,-175.81C365.16,-166.05 381.12,-152.62 394.5,-140 414.9,-120.76 436.97,-97.11 451,-81.69"/>
<polygon fill="#63b8ff" stroke="#63b8ff" points="453.79,-83.82 457.9,-74.05 448.6,-79.12 453.79,-83.82"/>
</a>
</g>
</g>
<!-- Node8 -->
<g id="Node000008" class="node">
<title>Node8</title>
<g id="a_Node000008"><a xlink:title=" ">
<polygon fill="#e0e0e0" stroke="#999999" points="216,-74 159,-74 159,-55 216,-55 216,-74"/>
<text text-anchor="middle" x="187.5" y="-62" font-family="Helvetica,sans-Serif" font-size="10.00">ostream</text>
</a>
</g>
</g>
<!-- Node5&#45;&gt;Node8 -->
<g id="edge10_Node000005_Node000008" class="edge">
<title>Node5&#45;&gt;Node8</title>
<g id="a_edge10_Node000005_Node000008"><a xlink:title=" ">
<path fill="none" stroke="#63b8ff" d="M257.78,-183.41C229.39,-176.79 199.97,-164.09 182.5,-140 170.76,-123.82 174.98,-100.09 180.19,-83.79"/>
<polygon fill="#63b8ff" stroke="#63b8ff" points="183.51,-84.9 183.6,-74.3 176.93,-82.53 183.51,-84.9"/>
</a>
</g>
</g>
<!-- Node9 -->
<g id="Node000009" class="node">
<title>Node9</title>
<g id="a_Node000009"><a xlink:title=" ">
<polygon fill="#e0e0e0" stroke="#999999" points="385.5,-134.5 325.5,-134.5 325.5,-115.5 385.5,-115.5 385.5,-134.5"/>
<text text-anchor="middle" x="355.5" y="-122.5" font-family="Helvetica,sans-Serif" font-size="10.00">iostream</text>
</a>
</g>
</g>
<!-- Node5&#45;&gt;Node9 -->
<g id="edge8_Node000005_Node000009" class="edge">
<title>Node5&#45;&gt;Node9</title>
<g id="a_edge8_Node000005_Node000009"><a xlink:title=" ">
<path fill="none" stroke="#63b8ff" d="M339.94,-175.8C342.81,-166.6 346.58,-154.53 349.69,-144.58"/>
<polygon fill="#63b8ff" stroke="#63b8ff" points="353.09,-145.43 352.74,-134.84 346.41,-143.35 353.09,-145.43"/>
</a>
</g>
</g>
<!-- Node5&#45;&gt;Node10 -->
<g id="edge11_Node000005_Node000010" class="edge">
<title>Node5&#45;&gt;Node10</title>
<g id="a_edge11_Node000005_Node000010"><a xlink:title=" ">
<path fill="none" stroke="#63b8ff" d="M364.03,-175.95C386.43,-164.93 417.36,-149.7 439.17,-138.96"/>
<polygon fill="#63b8ff" stroke="#63b8ff" points="440.77,-142.07 448.2,-134.52 437.68,-135.79 440.77,-142.07"/>
</a>
</g>
</g>
<!-- Node6&#45;&gt;Node7 -->
<g id="edge6_Node000006_Node000007" class="edge">
<title>Node6&#45;&gt;Node7</title>
<g id="a_edge6_Node000006_Node000007"><a xlink:title=" ">
<path fill="none" stroke="#63b8ff" d="M301.24,-109.99C339.75,-99.56 391.49,-85.54 426.54,-76.05"/>
<polygon fill="#63b8ff" stroke="#63b8ff" points="427.67,-79.37 436.4,-73.38 425.84,-72.62 427.67,-79.37"/>
</a>
</g>
</g>
<!-- Node6&#45;&gt;Node8 -->
<g id="edge7_Node000006_Node000008" class="edge">
<title>Node6&#45;&gt;Node8</title>
<g id="a_edge7_Node000006_Node000008"><a xlink:title=" ">
<path fill="none" stroke="#63b8ff" d="M234.49,-109.84C225.31,-101.17 213.55,-90.08 204.09,-81.15"/>
<polygon fill="#63b8ff" stroke="#63b8ff" points="206.47,-78.58 196.79,-74.27 201.66,-83.67 206.47,-78.58"/>
</a>
</g>
</g>
<!-- Node11&#45;&gt;Node7 -->
<g id="edge15_Node000011_Node000007" class="edge">
<title>Node11&#45;&gt;Node7</title>
<g id="a_edge15_Node000011_Node000007"><a xlink:title=" ">
<path fill="none" stroke="#63b8ff" d="M71.81,-241.92C79.61,-212.07 102.2,-142.51 149.5,-110 193.67,-79.64 351.58,-69.75 426.07,-66.73"/>
<polygon fill="#63b8ff" stroke="#63b8ff" points="426.58,-70.22 436.43,-66.34 426.31,-63.22 426.58,-70.22"/>
</a>
</g>
</g>
<!-- Node12 -->
<g id="Node000012" class="node">
<title>Node12</title>
<g id="a_Node000012"><a xlink:title=" ">
<polygon fill="#e0e0e0" stroke="#999999" points="776.5,-19 732.5,-19 732.5,0 776.5,0 776.5,-19"/>
<text text-anchor="middle" x="754.5" y="-7" font-family="Helvetica,sans-Serif" font-size="10.00">string</text>
</a>
</g>
</g>
<!-- Node11&#45;&gt;Node12 -->
<g id="edge16_Node000011_Node000012" class="edge">
<title>Node11&#45;&gt;Node12</title>
<g id="a_edge16_Node000011_Node000012"><a xlink:title=" ">
<path fill="none" stroke="#63b8ff" d="M68.96,-241.97C71.08,-203.29 83.05,-95.32 150.5,-55 199.73,-25.57 603.8,-13.98 722.08,-11.2"/>
<polygon fill="#63b8ff" stroke="#63b8ff" points="722.39,-14.69 732.31,-10.96 722.23,-7.7 722.39,-14.69"/>
</a>
</g>
</g>
<!-- Node14&#45;&gt;Node7 -->
<g id="edge20_Node000014_Node000007" class="edge">
<title>Node14&#45;&gt;Node7</title>
<g id="a_edge20_Node000014_Node000007"><a xlink:title=" ">
<path fill="none" stroke="#63b8ff" d="M333.77,-307.81C321.35,-291.57 300.09,-264.33 280.5,-242 232.32,-187.07 135.02,-165.53 182.5,-110 213.4,-73.86 355.99,-66.88 426.21,-65.66"/>
<polygon fill="#63b8ff" stroke="#63b8ff" points="426.47,-69.16 436.42,-65.52 426.37,-62.16 426.47,-69.16"/>
</a>
</g>
</g>
<!-- Node15 -->
<g id="Node000015" class="node">
<title>Node15</title>
<g id="a_Node000015"><a xlink:href="board_8h.html" target="_top" xlink:title=" ">
<polygon fill="white" stroke="#666666" points="730,-272 621,-272 621,-242 730,-242 730,-272"/>
<text text-anchor="start" x="629" y="-260" font-family="Helvetica,sans-Serif" font-size="10.00">tic_tac_toe/models</text>
<text text-anchor="middle" x="675.5" y="-249" font-family="Helvetica,sans-Serif" font-size="10.00">/board.h</text>
</a>
</g>
</g>
<!-- Node14&#45;&gt;Node15 -->
<g id="edge21_Node000014_Node000015" class="edge">
<title>Node14&#45;&gt;Node15</title>
<g id="a_edge21_Node000014_Node000015"><a xlink:title=" ">
<path fill="none" stroke="#63b8ff" d="M399.16,-311.43C457.25,-300.2 549.07,-282.45 610.75,-270.52"/>
<polygon fill="#63b8ff" stroke="#63b8ff" points="611.61,-273.92 620.76,-268.58 610.28,-267.05 611.61,-273.92"/>
</a>
</g>
</g>
<!-- Node15&#45;&gt;Node7 -->
<g id="edge34_Node000015_Node000007" class="edge">
<title>Node15&#45;&gt;Node7</title>
<g id="a_edge34_Node000015_Node000007"><a xlink:title=" ">
<path fill="none" stroke="#63b8ff" d="M652.53,-241.8C639.46,-232.81 623.55,-220.22 612.5,-206 583.82,-169.08 602.83,-142.78 569.5,-110 551.73,-92.53 526.02,-81.44 504.61,-74.7"/>
<polygon fill="#63b8ff" stroke="#63b8ff" points="505.39,-71.29 494.81,-71.82 503.42,-78 505.39,-71.29"/>
</a>
</g>
</g>
<!-- Node15&#45;&gt;Node10 -->
<g id="edge22_Node000015_Node000010" class="edge">
<title>Node15&#45;&gt;Node10</title>
<g id="a_edge22_Node000015_Node000010"><a xlink:title=" ">
<path fill="none" stroke="#63b8ff" d="M645.96,-241.88C626.69,-232.36 601.18,-219.17 579.5,-206 545.02,-185.05 507.06,-157.43 484.8,-140.73"/>
<polygon fill="#63b8ff" stroke="#63b8ff" points="486.9,-137.93 476.81,-134.69 482.69,-143.51 486.9,-137.93"/>
</a>
</g>
</g>
<!-- Node16 -->
<g id="Node000016" class="node">
<title>Node16</title>
<g id="a_Node000016"><a xlink:href="player_8h.html" target="_top" xlink:title=" ">
<polygon fill="white" stroke="#666666" points="953,-206 844,-206 844,-176 953,-176 953,-206"/>
<text text-anchor="start" x="852" y="-194" font-family="Helvetica,sans-Serif" font-size="10.00">tic_tac_toe/models</text>
<text text-anchor="middle" x="898.5" y="-183" font-family="Helvetica,sans-Serif" font-size="10.00">/player.h</text>
</a>
</g>
</g>
<!-- Node15&#45;&gt;Node16 -->
<g id="edge23_Node000015_Node000016" class="edge">
<title>Node15&#45;&gt;Node16</title>
<g id="a_edge23_Node000015_Node000016"><a xlink:title=" ">
<path fill="none" stroke="#63b8ff" d="M724.44,-241.95C758.42,-232.2 803.88,-219.16 839.81,-208.84"/>
<polygon fill="#63b8ff" stroke="#63b8ff" points="841.03,-212.14 849.68,-206.01 839.1,-205.41 841.03,-212.14"/>
</a>
</g>
</g>
<!-- Node17 -->
<g id="Node000017" class="node">
<title>Node17</title>
<g id="a_Node000017"><a xlink:href="position_8h.html" target="_top" xlink:title=" ">
<polygon fill="white" stroke="#666666" points="870,-140 761,-140 761,-110 870,-110 870,-140"/>
<text text-anchor="start" x="769" y="-128" font-family="Helvetica,sans-Serif" font-size="10.00">tic_tac_toe/models</text>
<text text-anchor="middle" x="815.5" y="-117" font-family="Helvetica,sans-Serif" font-size="10.00">/position.h</text>
</a>
</g>
</g>
<!-- Node15&#45;&gt;Node17 -->
<g id="edge32_Node000015_Node000017" class="edge">
<title>Node15&#45;&gt;Node17</title>
<g id="a_edge32_Node000015_Node000017"><a xlink:title=" ">
<path fill="none" stroke="#63b8ff" d="M730.3,-245.5C754.17,-238.24 780.51,-226.11 797.5,-206 810.46,-190.66 814.61,-167.93 815.71,-150.61"/>
<polygon fill="#63b8ff" stroke="#63b8ff" points="819.23,-150.26 816.06,-140.15 812.23,-150.02 819.23,-150.26"/>
</a>
</g>
</g>
<!-- Node21 -->
<g id="Node000021" class="node">
<title>Node21</title>
<g id="a_Node000021"><a xlink:href="alignment_8h.html" target="_top" xlink:title=" ">
<polygon fill="white" stroke="#666666" points="788,-200.5 621,-200.5 621,-181.5 788,-181.5 788,-200.5"/>
<text text-anchor="middle" x="704.5" y="-188.5" font-family="Helvetica,sans-Serif" font-size="10.00">tic_tac_toe/enums/alignment.h</text>
</a>
</g>
</g>
<!-- Node15&#45;&gt;Node21 -->
<g id="edge33_Node000015_Node000021" class="edge">
<title>Node15&#45;&gt;Node21</title>
<g id="a_edge33_Node000015_Node000021"><a xlink:title=" ">
<path fill="none" stroke="#63b8ff" d="M681.94,-241.8C686.15,-232.5 691.69,-220.27 696.23,-210.26"/>
<polygon fill="#63b8ff" stroke="#63b8ff" points="699.55,-211.4 700.49,-200.84 693.18,-208.51 699.55,-211.4"/>
</a>
</g>
</g>
<!-- Node16&#45;&gt;Node7 -->
<g id="edge24_Node000016_Node000007" class="edge">
<title>Node16&#45;&gt;Node7</title>
<g id="a_edge24_Node000016_Node000007"><a xlink:title=" ">
<path fill="none" stroke="#63b8ff" d="M849.67,-175.96C762.99,-151.04 583.92,-99.55 504.69,-76.77"/>
<polygon fill="#63b8ff" stroke="#63b8ff" points="505.21,-73.28 494.64,-73.88 503.28,-80 505.21,-73.28"/>
</a>
</g>
</g>
<!-- Node16&#45;&gt;Node17 -->
<g id="edge25_Node000016_Node000017" class="edge">
<title>Node16&#45;&gt;Node17</title>
<g id="a_edge25_Node000016_Node000017"><a xlink:title=" ">
<path fill="none" stroke="#63b8ff" d="M880.08,-175.8C868.9,-167.18 854.45,-156.04 842.06,-146.48"/>
<polygon fill="#63b8ff" stroke="#63b8ff" points="843.93,-143.5 833.87,-140.16 839.65,-149.04 843.93,-143.5"/>
</a>
</g>
</g>
<!-- Node19 -->
<g id="Node000019" class="node">
<title>Node19</title>
<g id="a_Node000019"><a xlink:href="symbol_8h.html" target="_top" xlink:title=" ">
<polygon fill="white" stroke="#666666" points="831.5,-74 677.5,-74 677.5,-55 831.5,-55 831.5,-74"/>
<text text-anchor="middle" x="754.5" y="-62" font-family="Helvetica,sans-Serif" font-size="10.00">tic_tac_toe/enums/symbol.h</text>
</a>
</g>
</g>
<!-- Node16&#45;&gt;Node19 -->
<g id="edge29_Node000016_Node000019" class="edge">
<title>Node16&#45;&gt;Node19</title>
<g id="a_edge29_Node000016_Node000019"><a xlink:title=" ">
<path fill="none" stroke="#63b8ff" d="M843.76,-186.48C811.52,-181.26 773.14,-168.88 752.5,-140 741.01,-123.92 743.94,-100.5 748.18,-84.23"/>
<polygon fill="#63b8ff" stroke="#63b8ff" points="751.64,-84.87 751.16,-74.29 744.94,-82.86 751.64,-84.87"/>
</a>
</g>
</g>
<!-- Node20 -->
<g id="Node000020" class="node">
<title>Node20</title>
<g id="a_Node000020"><a xlink:href="observer_8h.html" target="_top" xlink:title=" ">
<polygon fill="white" stroke="#666666" points="1004.5,-140 888.5,-140 888.5,-110 1004.5,-110 1004.5,-140"/>
<text text-anchor="start" x="896.5" y="-128" font-family="Helvetica,sans-Serif" font-size="10.00">tic_tac_toe/observer</text>
<text text-anchor="middle" x="946.5" y="-117" font-family="Helvetica,sans-Serif" font-size="10.00">/observer.h</text>
</a>
</g>
</g>
<!-- Node16&#45;&gt;Node20 -->
<g id="edge30_Node000016_Node000020" class="edge">
<title>Node16&#45;&gt;Node20</title>
<g id="a_edge30_Node000016_Node000020"><a xlink:title=" ">
<path fill="none" stroke="#63b8ff" d="M909.15,-175.8C915.18,-167.76 922.86,-157.53 929.68,-148.43"/>
<polygon fill="#63b8ff" stroke="#63b8ff" points="932.68,-150.26 935.88,-140.16 927.08,-146.06 932.68,-150.26"/>
</a>
</g>
</g>
<!-- Node17&#45;&gt;Node18 -->
<g id="edge26_Node000017_Node000018" class="edge">
<title>Node17&#45;&gt;Node18</title>
<g id="a_edge26_Node000017_Node000018"><a xlink:title=" ">
<path fill="none" stroke="#63b8ff" d="M861.97,-109.99C897.57,-99.25 945.78,-84.71 977.25,-75.22"/>
<polygon fill="#63b8ff" stroke="#63b8ff" points="978.28,-78.57 986.84,-72.33 976.26,-71.87 978.28,-78.57"/>
</a>
</g>
</g>
<!-- Node17&#45;&gt;Node19 -->
<g id="edge27_Node000017_Node000019" class="edge">
<title>Node17&#45;&gt;Node19</title>
<g id="a_edge27_Node000017_Node000019"><a xlink:title=" ">
<path fill="none" stroke="#63b8ff" d="M800.73,-109.84C791.79,-101.26 780.36,-90.3 771.1,-81.42"/>
<polygon fill="#63b8ff" stroke="#63b8ff" points="773.28,-78.66 763.64,-74.27 768.44,-83.71 773.28,-78.66"/>
</a>
</g>
</g>
<!-- Node19&#45;&gt;Node12 -->
<g id="edge28_Node000019_Node000012" class="edge">
<title>Node19&#45;&gt;Node12</title>
<g id="a_edge28_Node000019_Node000012"><a xlink:title=" ">
<path fill="none" stroke="#63b8ff" d="M754.5,-54.75C754.5,-47.8 754.5,-37.85 754.5,-29.13"/>
<polygon fill="#63b8ff" stroke="#63b8ff" points="758,-29.09 754.5,-19.09 751,-29.09 758,-29.09"/>
</a>
</g>
</g>
<!-- Node20&#45;&gt;Node12 -->
<g id="edge31_Node000020_Node000012" class="edge">
<title>Node20&#45;&gt;Node12</title>
<g id="a_edge31_Node000020_Node000012"><a xlink:title=" ">
<path fill="none" stroke="#63b8ff" d="M926.16,-109.9C905.1,-95.49 871.05,-72.79 840.5,-55 821.19,-43.76 798.75,-32.19 781.63,-23.67"/>
<polygon fill="#63b8ff" stroke="#63b8ff" points="782.75,-20.32 772.24,-19.03 779.65,-26.6 782.75,-20.32"/>
</a>
</g>
</g>
<!-- Node22&#45;&gt;Node4 -->
<g id="edge39_Node000022_Node000004" class="edge">
<title>Node22&#45;&gt;Node4</title>
<g id="a_edge39_Node000022_Node000004"><a xlink:title=" ">
<path fill="none" stroke="#63b8ff" d="M542.19,-307.95C523.62,-298.74 499.14,-286.6 478.96,-276.59"/>
<polygon fill="#63b8ff" stroke="#63b8ff" points="480.26,-273.32 469.74,-272.01 477.15,-279.59 480.26,-273.32"/>
</a>
</g>
</g>
<!-- Node22&#45;&gt;Node7 -->
<g id="edge41_Node000022_Node000007" class="edge">
<title>Node22&#45;&gt;Node7</title>
<g id="a_edge41_Node000022_Node000007"><a xlink:title=" ">
<path fill="none" stroke="#63b8ff" d="M569.4,-307.81C566.07,-272.13 553.77,-176.73 513.5,-110 506.6,-98.56 495.91,-88.24 486.37,-80.43"/>
<polygon fill="#63b8ff" stroke="#63b8ff" points="488.45,-77.62 478.41,-74.24 484.16,-83.14 488.45,-77.62"/>
</a>
</g>
</g>
<!-- Node22&#45;&gt;Node15 -->
<g id="edge42_Node000022_Node000015" class="edge">
<title>Node22&#45;&gt;Node15</title>
<g id="a_edge42_Node000022_Node000015"><a xlink:title=" ">
<path fill="none" stroke="#63b8ff" d="M593.54,-307.95C608.31,-298.95 627.69,-287.14 643.89,-277.27"/>
<polygon fill="#63b8ff" stroke="#63b8ff" points="645.79,-280.21 652.51,-272.01 642.15,-274.23 645.79,-280.21"/>
</a>
</g>
</g>
<!-- Node22&#45;&gt;Node16 -->
<g id="edge38_Node000022_Node000016" class="edge">
<title>Node22&#45;&gt;Node16</title>
<g id="a_edge38_Node000022_Node000016"><a xlink:title=" ">
<path fill="none" stroke="#63b8ff" d="M625.12,-309.84C658.89,-301.36 702.67,-288.58 739.5,-272 762.44,-261.67 765.31,-253.86 787.5,-242 809.16,-230.42 834.03,-219.05 854.73,-210.09"/>
<polygon fill="#63b8ff" stroke="#63b8ff" points="856.11,-213.3 863.92,-206.15 853.35,-206.87 856.11,-213.3"/>
</a>
</g>
</g>
<!-- Node22&#45;&gt;Node20 -->
<g id="edge40_Node000022_Node000020" class="edge">
<title>Node22&#45;&gt;Node20</title>
<g id="a_edge40_Node000022_Node000020"><a xlink:title=" ">
<path fill="none" stroke="#63b8ff" d="M625.25,-309.74C728.33,-286.11 942.69,-234.1 962.5,-206 974.17,-189.45 967.82,-166.44 959.93,-149.34"/>
<polygon fill="#63b8ff" stroke="#63b8ff" points="962.87,-147.4 955.24,-140.05 956.62,-150.56 962.87,-147.4"/>
</a>
</g>
</g>
<!-- Node23&#45;&gt;Node15 -->
<g id="edge45_Node000023_Node000015" class="edge">
<title>Node23&#45;&gt;Node15</title>
<g id="a_edge45_Node000023_Node000015"><a xlink:title=" ">
<path fill="none" stroke="#63b8ff" d="M692.62,-307.8C690,-300.17 686.7,-290.57 683.7,-281.84"/>
<polygon fill="#63b8ff" stroke="#63b8ff" points="686.93,-280.48 680.37,-272.16 680.31,-282.76 686.93,-280.48"/>
</a>
</g>
</g>
<!-- Node23&#45;&gt;Node16 -->
<g id="edge44_Node000023_Node000016" class="edge">
<title>Node23&#45;&gt;Node16</title>
<g id="a_edge44_Node000023_Node000016"><a xlink:title=" ">
<path fill="none" stroke="#63b8ff" d="M724.76,-307.93C742.86,-298.33 766.98,-285.03 787.5,-272 817.24,-253.11 849.78,-229.26 871.89,-212.53"/>
<polygon fill="#63b8ff" stroke="#63b8ff" points="874.27,-215.12 880.11,-206.28 870.03,-209.55 874.27,-215.12"/>
</a>
</g>
</g>
</g>
</svg>

<g id="navigator" transform="translate(0 0)" fill="#404254">
  <rect fill="#f2f5e9" fill-opacity="0.5" stroke="#606060" stroke-width=".5" x="0" y="0" width="60" height="60"/>
  <use id="zoomplus" xlink:href="#zoomPlus" x="17" y="9" onmousedown="handleZoom(evt,'in')"/>
  <use id="zoomminus" xlink:href="#zoomMin" x="42" y="9" onmousedown="handleZoom(evt,'out')"/>
  <use id="reset" xlink:href="#resetDef" x="30" y="36" onmousedown="handleReset()"/>
   <use id="arrowup" xlink:href="#arrowUp" x="0" y="0" onmousedown="handlePan(0,-1)"/>
  <use id="arrowright" xlink:href="#arrowRight" x="0" y="0" onmousedown="handlePan(1,0)"/>
  <use id="arrowdown" xlink:href="#arrowDown" x="0" y="0" onmousedown="handlePan(0,1)"/>
  <use id="arrowleft" xlink:href="#arrowLeft" x="0" y="0" onmousedown="handlePan(-1,0)"/>
</g>
<svg viewBox="0 0 15 15" width="100%" height="30px" preserveAspectRatio="xMaxYMin meet">
 <g id="arrow_out" transform="scale(0.3 0.3)">
  <a xlink:href="state_8cpp__incl_org.svg" target="_base">
   <rect id="button" ry="5" rx="5" y="6" x="6" height="38" width="38"
        fill="#f2f5e9" fill-opacity="0.5" stroke="#606060" stroke-width="1.0"/>
   <path id="arrow"
     d="M 11.500037,31.436501 C 11.940474,20.09759 22.043105,11.32322 32.158766,21.979434 L 37.068811,17.246167 C 37.068811,17.246167 37.088388,32 37.088388,32 L 22.160133,31.978069 C 22.160133,31.978069 26.997745,27.140456 26.997745,27.140456 C 18.528582,18.264221 13.291696,25.230495 11.500037,31.436501 z"
     style="fill:#404040;"/>
  </a>
 </g>
</svg>

<style type='text/css'>
<![CDATA[
[data-mouse-over-selected='false'] { opacity: 0.7; }
[data-mouse-over-selected='true']  { opacity: 1.0; }
]]>
</style>
<script type="application/ecmascript"><![CDATA[
document.addEventListener('DOMContentLoaded', (event) => {
  highlightEdges();
  highlightAdjacentNodes();
});
]]></script>
</svg>
