<?xml version="1.0" encoding="UTF-8" standalone="no"?>
<!DOCTYPE svg PUBLIC "-//W3C//DTD SVG 1.1//EN"
 "http://www.w3.org/Graphics/SVG/1.1/DTD/svg11.dtd">
<!-- Generated by graphviz version 2.43.0 (0)
 -->
<!-- Title: examples/monte_carlo/tic_tac_toe/src/observer/subject.cpp Pages: 1 -->
<svg width="266pt" height="236pt"
 viewBox="0.00 0.00 265.50 236.00" xmlns="http://www.w3.org/2000/svg" xmlns:xlink="http://www.w3.org/1999/xlink">
<g id="graph0" class="graph" transform="scale(1 1) rotate(0) translate(4 232)">
<title>examples/monte_carlo/tic_tac_toe/src/observer/subject.cpp</title>
<!-- Node1 -->
<g id="Node000001" class="node">
<title>Node1</title>
<g id="a_Node000001"><a xlink:title=" ">
<polygon fill="#999999" stroke="#666666" points="231,-228 95,-228 95,-187 231,-187 231,-228"/>
<text text-anchor="start" x="103" y="-216" font-family="Helvetica,sans-Serif" font-size="10.00">examples/monte_carlo</text>
<text text-anchor="start" x="103" y="-205" font-family="Helvetica,sans-Serif" font-size="10.00">/tic_tac_toe/src/observer</text>
<text text-anchor="middle" x="163" y="-194" font-family="Helvetica,sans-Serif" font-size="10.00">/subject.cpp</text>
</a>
</g>
</g>
<!-- Node2 -->
<g id="Node000002" class="node">
<title>Node2</title>
<g id="a_Node000002"><a xlink:href="subject_8h.html" target="_top" xlink:title=" ">
<polygon fill="white" stroke="#666666" points="221,-151 105,-151 105,-121 221,-121 221,-151"/>
<text text-anchor="start" x="113" y="-139" font-family="Helvetica,sans-Serif" font-size="10.00">tic_tac_toe/observer</text>
<text text-anchor="middle" x="163" y="-128" font-family="Helvetica,sans-Serif" font-size="10.00">/subject.h</text>
</a>
</g>
</g>
<!-- Node1&#45;&gt;Node2 -->
<g id="edge1_Node000001_Node000002" class="edge">
<title>Node1&#45;&gt;Node2</title>
<g id="a_edge1_Node000001_Node000002"><a xlink:title=" ">
<path fill="none" stroke="#63b8ff" d="M163,-186.77C163,-178.85 163,-169.63 163,-161.3"/>
<polygon fill="#63b8ff" stroke="#63b8ff" points="166.5,-161.04 163,-151.04 159.5,-161.04 166.5,-161.04"/>
</a>
</g>
</g>
<!-- Node3 -->
<g id="Node000003" class="node">
<title>Node3</title>
<g id="a_Node000003"><a xlink:href="observer_8h.html" target="_top" xlink:title=" ">
<polygon fill="white" stroke="#666666" points="116,-85 0,-85 0,-55 116,-55 116,-85"/>
<text text-anchor="start" x="8" y="-73" font-family="Helvetica,sans-Serif" font-size="10.00">tic_tac_toe/observer</text>
<text text-anchor="middle" x="58" y="-62" font-family="Helvetica,sans-Serif" font-size="10.00">/observer.h</text>
</a>
</g>
</g>
<!-- Node2&#45;&gt;Node3 -->
<g id="edge2_Node000002_Node000003" class="edge">
<title>Node2&#45;&gt;Node3</title>
<g id="a_edge2_Node000002_Node000003"><a xlink:title=" ">
<path fill="none" stroke="#63b8ff" d="M139.96,-120.95C125.19,-111.95 105.81,-100.14 89.61,-90.27"/>
<polygon fill="#63b8ff" stroke="#63b8ff" points="91.35,-87.23 80.99,-85.01 87.71,-93.21 91.35,-87.23"/>
</a>
</g>
</g>
<!-- Node5 -->
<g id="Node000005" class="node">
<title>Node5</title>
<g id="a_Node000005"><a xlink:title=" ">
<polygon fill="#e0e0e0" stroke="#999999" points="192,-79.5 134,-79.5 134,-60.5 192,-60.5 192,-79.5"/>
<text text-anchor="middle" x="163" y="-67.5" font-family="Helvetica,sans-Serif" font-size="10.00">memory</text>
</a>
</g>
</g>
<!-- Node2&#45;&gt;Node5 -->
<g id="edge4_Node000002_Node000005" class="edge">
<title>Node2&#45;&gt;Node5</title>
<g id="a_edge4_Node000002_Node000005"><a xlink:title=" ">
<path fill="none" stroke="#63b8ff" d="M163,-120.8C163,-111.7 163,-99.79 163,-89.9"/>
<polygon fill="#63b8ff" stroke="#63b8ff" points="166.5,-89.84 163,-79.84 159.5,-89.84 166.5,-89.84"/>
</a>
</g>
</g>
<!-- Node6 -->
<g id="Node000006" class="node">
<title>Node6</title>
<g id="a_Node000006"><a xlink:title=" ">
<polygon fill="#e0e0e0" stroke="#999999" points="257.5,-79.5 210.5,-79.5 210.5,-60.5 257.5,-60.5 257.5,-79.5"/>
<text text-anchor="middle" x="234" y="-67.5" font-family="Helvetica,sans-Serif" font-size="10.00">vector</text>
</a>
</g>
</g>
<!-- Node2&#45;&gt;Node6 -->
<g id="edge5_Node000002_Node000006" class="edge">
<title>Node2&#45;&gt;Node6</title>
<g id="a_edge5_Node000002_Node000006"><a xlink:title=" ">
<path fill="none" stroke="#63b8ff" d="M178.76,-120.8C189.93,-110.72 204.94,-97.19 216.49,-86.78"/>
<polygon fill="#63b8ff" stroke="#63b8ff" points="219.1,-89.14 224.19,-79.84 214.42,-83.94 219.1,-89.14"/>
</a>
</g>
</g>
<!-- Node4 -->
<g id="Node000004" class="node">
<title>Node4</title>
<g id="a_Node000004"><a xlink:title=" ">
<polygon fill="#e0e0e0" stroke="#999999" points="80,-19 36,-19 36,0 80,0 80,-19"/>
<text text-anchor="middle" x="58" y="-7" font-family="Helvetica,sans-Serif" font-size="10.00">string</text>
</a>
</g>
</g>
<!-- Node3&#45;&gt;Node4 -->
<g id="edge3_Node000003_Node000004" class="edge">
<title>Node3&#45;&gt;Node4</title>
<g id="a_edge3_Node000003_Node000004"><a xlink:title=" ">
<path fill="none" stroke="#63b8ff" d="M58,-54.84C58,-47.21 58,-37.7 58,-29.45"/>
<polygon fill="#63b8ff" stroke="#63b8ff" points="61.5,-29.27 58,-19.27 54.5,-29.27 61.5,-29.27"/>
</a>
</g>
</g>
</g>
</svg>
