<?xml version="1.0" encoding="UTF-8" standalone="no"?>
<!DOCTYPE svg PUBLIC "-//W3C//DTD SVG 1.1//EN"
 "http://www.w3.org/Graphics/SVG/1.1/DTD/svg11.dtd">
<!-- Generated by graphviz version 2.43.0 (0)
 -->
<!-- Title: examples/monte_carlo/tic_tac_toe/include/tic_tac_toe/enums/symbol.h Pages: 1 -->
<!--zoomable 533 -->

<svg id="main" version="1.1" xmlns="http://www.w3.org/2000/svg" xmlns:xlink="http://www.w3.org/1999/xlink" xml:space="preserve" onload="init(evt)">
<style type="text/css"><![CDATA[
.node, .edge {opacity: 0.7;}
.node.selected, .edge.selected {opacity: 1;}
.edge:hover path { stroke: red; }
.edge:hover polygon { stroke: red; fill: red; }
]]></style>

<defs>
  <circle id="rim" cx="0" cy="0" r="7"/>
  <circle id="rim2" cx="0" cy="0" r="3.5"/>
  <g id="zoomPlus">
    <use xlink:href="#rim" fill="#404040"><set attributeName="fill" to="#808080" begin="zoomplus.mouseover" end="zoomplus.mouseout"/></use>
    <path d="M-4,0h8M0,-4v8" fill="none" stroke="white" stroke-width="1.5" pointer-events="none"/>
  </g>
  <g id="zoomMin">
    <use xlink:href="#rim" fill="#404040"><set attributeName="fill" to="#808080" begin="zoomminus.mouseover" end="zoomminus.mouseout"/></use>
    <path d="M-4,0h8" fill="none" stroke="white" stroke-width="1.5" pointer-events="none"/>
  </g>
  <g id="arrowUp" transform="translate(30 24)">
    <use xlink:href="#rim"/>
    <path pointer-events="none" fill="none" stroke="white" stroke-width="1.5" d="M0,-3.0v7 M-2.5,-0.5L0,-3.0L2.5,-0.5"/>
  </g>
  <g id="arrowRight" transform="rotate(90) translate(36 -43)">
    <use xlink:href="#rim"/>
    <path pointer-events="none" fill="none" stroke="white" stroke-width="1.5" d="M0,-3.0v7 M-2.5,-0.5L0,-3.0L2.5,-0.5"/>
  </g>
  <g id="arrowDown" transform="rotate(180) translate(-30 -48)">
    <use xlink:href="#rim"/>
    <path pointer-events="none" fill="none" stroke="white" stroke-width="1.5" d="M0,-3.0v7 M-2.5,-0.5L0,-3.0L2.5,-0.5"/>
  </g>
  <g id="arrowLeft" transform="rotate(270) translate(-36 17)">
    <use xlink:href="#rim"/>
    <path pointer-events="none" fill="none" stroke="white" stroke-width="1.5" d="M0,-3.0v7 M-2.5,-0.5L0,-3.0L2.5,-0.5"/>
  </g>
  <g id="resetDef">
    <use xlink:href="#rim2" fill="#404040"><set attributeName="fill" to="#808080" begin="reset.mouseover" end="reset.mouseout"/></use>
  </g>
</defs>
<script type="application/ecmascript">
var viewWidth = 1292;
var viewHeight = 533;
var sectionId = 'dynsection-1';
</script>
<script type="application/ecmascript" xlink:href="svg.min.js"/>
<svg id="graph" class="graph">
<g id="viewport">
<title>examples/monte_carlo/tic_tac_toe/include/tic_tac_toe/enums/symbol.h</title>
<!-- Node1 -->
<g id="Node000001" class="node">
<title>Node1</title>
<g id="a_Node000001"><a xlink:title=" ">
<polygon fill="#999999" stroke="#666666" points="879.75,-525 722.75,-525 722.75,-484 879.75,-484 879.75,-525"/>
<text text-anchor="start" x="730.75" y="-513" font-family="Helvetica,sans-Serif" font-size="10.00">examples/monte_carlo</text>
<text text-anchor="start" x="730.75" y="-502" font-family="Helvetica,sans-Serif" font-size="10.00">/tic_tac_toe/include</text>
<text text-anchor="middle" x="801.25" y="-491" font-family="Helvetica,sans-Serif" font-size="10.00">/tic_tac_toe/enums/symbol.h</text>
</a>
</g>
</g>
<!-- Node2 -->
<g id="Node000002" class="node">
<title>Node2</title>
<g id="a_Node000002"><a xlink:href="player_8h.html" target="_top" xlink:title=" ">
<polygon fill="white" stroke="#666666" points="543.25,-371 389.25,-371 389.25,-330 543.25,-330 543.25,-371"/>
<text text-anchor="start" x="397.25" y="-359" font-family="Helvetica,sans-Serif" font-size="10.00">examples/monte_carlo</text>
<text text-anchor="start" x="397.25" y="-348" font-family="Helvetica,sans-Serif" font-size="10.00">/tic_tac_toe/include</text>
<text text-anchor="middle" x="466.25" y="-337" font-family="Helvetica,sans-Serif" font-size="10.00">/tic_tac_toe/models/player.h</text>
</a>
</g>
</g>
<!-- Node1&#45;&gt;Node2 -->
<g id="edge1_Node000001_Node000002" class="edge">
<title>Node1&#45;&gt;Node2</title>
<g id="a_edge1_Node000001_Node000002"><a xlink:title=" ">
<path fill="none" stroke="#63b8ff" d="M748.76,-479.68C682.77,-449.74 570.74,-398.91 509.46,-371.11"/>
<polygon fill="#63b8ff" stroke="#63b8ff" points="747.59,-483 758.15,-483.94 750.49,-476.62 747.59,-483"/>
</a>
</g>
</g>
<!-- Node24 -->
<g id="Node000024" class="node">
<title>Node24</title>
<g id="a_Node000024"><a xlink:href="position_8h.html" target="_top" xlink:title=" ">
<polygon fill="white" stroke="#666666" points="1047.75,-448 884.75,-448 884.75,-407 1047.75,-407 1047.75,-448"/>
<text text-anchor="start" x="892.75" y="-436" font-family="Helvetica,sans-Serif" font-size="10.00">examples/monte_carlo</text>
<text text-anchor="start" x="892.75" y="-425" font-family="Helvetica,sans-Serif" font-size="10.00">/tic_tac_toe/include</text>
<text text-anchor="middle" x="966.25" y="-414" font-family="Helvetica,sans-Serif" font-size="10.00">/tic_tac_toe/models/position.h</text>
</a>
</g>
</g>
<!-- Node1&#45;&gt;Node24 -->
<g id="edge40_Node000001_Node000024" class="edge">
<title>Node1&#45;&gt;Node24</title>
<g id="a_edge40_Node000001_Node000024"><a xlink:title=" ">
<path fill="none" stroke="#63b8ff" d="M853.57,-479.72C876.03,-469.51 901.95,-457.73 923.26,-448.04"/>
<polygon fill="#63b8ff" stroke="#63b8ff" points="851.83,-476.67 844.18,-483.99 854.73,-483.04 851.83,-476.67"/>
</a>
</g>
</g>
<!-- Node3 -->
<g id="Node000003" class="node">
<title>Node3</title>
<g id="a_Node000003"><a xlink:href="board_8h.html" target="_top" xlink:title=" ">
<polygon fill="white" stroke="#666666" points="692.25,-294 540.25,-294 540.25,-253 692.25,-253 692.25,-294"/>
<text text-anchor="start" x="548.25" y="-282" font-family="Helvetica,sans-Serif" font-size="10.00">examples/monte_carlo</text>
<text text-anchor="start" x="548.25" y="-271" font-family="Helvetica,sans-Serif" font-size="10.00">/tic_tac_toe/include</text>
<text text-anchor="middle" x="616.25" y="-260" font-family="Helvetica,sans-Serif" font-size="10.00">/tic_tac_toe/models/board.h</text>
</a>
</g>
</g>
<!-- Node2&#45;&gt;Node3 -->
<g id="edge2_Node000002_Node000003" class="edge">
<title>Node2&#45;&gt;Node3</title>
<g id="a_edge2_Node000002_Node000003"><a xlink:title=" ">
<path fill="none" stroke="#63b8ff" d="M514.36,-325.45C534.65,-315.3 557.97,-303.64 577.17,-294.04"/>
<polygon fill="#63b8ff" stroke="#63b8ff" points="512.65,-322.39 505.27,-329.99 515.78,-328.65 512.65,-322.39"/>
</a>
</g>
</g>
<!-- Node4 -->
<g id="Node000004" class="node">
<title>Node4</title>
<g id="a_Node000004"><a xlink:href="bot_8h.html" target="_top" xlink:title=" ">
<polygon fill="white" stroke="#666666" points="377.25,-123.5 237.25,-123.5 237.25,-82.5 377.25,-82.5 377.25,-123.5"/>
<text text-anchor="start" x="245.25" y="-111.5" font-family="Helvetica,sans-Serif" font-size="10.00">examples/monte_carlo</text>
<text text-anchor="start" x="245.25" y="-100.5" font-family="Helvetica,sans-Serif" font-size="10.00">/tic_tac_toe/include</text>
<text text-anchor="middle" x="307.25" y="-89.5" font-family="Helvetica,sans-Serif" font-size="10.00">/tic_tac_toe/models/bot.h</text>
</a>
</g>
</g>
<!-- Node2&#45;&gt;Node4 -->
<g id="edge37_Node000002_Node000004" class="edge">
<title>Node2&#45;&gt;Node4</title>
<g id="a_edge37_Node000002_Node000004"><a xlink:title=" ">
<path fill="none" stroke="#63b8ff" d="M388.71,-326.39C336.9,-306.46 272.71,-272.02 241.25,-217 229.79,-196.94 231.99,-186.17 241.25,-165 248.57,-148.28 262.99,-134.1 276.48,-123.63"/>
<polygon fill="#63b8ff" stroke="#63b8ff" points="387.63,-329.73 398.22,-329.95 390.08,-323.17 387.63,-329.73"/>
</a>
</g>
</g>
<!-- Node20 -->
<g id="Node000020" class="node">
<title>Node20</title>
<g id="a_Node000020"><a xlink:href="human_8h.html" target="_top" xlink:title=" ">
<polygon fill="white" stroke="#666666" points="194.25,-211.5 36.25,-211.5 36.25,-170.5 194.25,-170.5 194.25,-211.5"/>
<text text-anchor="start" x="44.25" y="-199.5" font-family="Helvetica,sans-Serif" font-size="10.00">examples/monte_carlo</text>
<text text-anchor="start" x="44.25" y="-188.5" font-family="Helvetica,sans-Serif" font-size="10.00">/tic_tac_toe/include</text>
<text text-anchor="middle" x="115.25" y="-177.5" font-family="Helvetica,sans-Serif" font-size="10.00">/tic_tac_toe/models/human.h</text>
</a>
</g>
</g>
<!-- Node2&#45;&gt;Node20 -->
<g id="edge38_Node000002_Node000020" class="edge">
<title>Node2&#45;&gt;Node20</title>
<g id="a_edge38_Node000002_Node000020"><a xlink:title=" ">
<path fill="none" stroke="#63b8ff" d="M379.07,-344.13C326.68,-337.75 260.31,-323.92 208.25,-294 172.73,-273.58 143.17,-234.93 127.45,-211.51"/>
<polygon fill="#63b8ff" stroke="#63b8ff" points="378.69,-347.61 389.02,-345.27 379.48,-340.65 378.69,-347.61"/>
</a>
</g>
</g>
<!-- Node23 -->
<g id="Node000023" class="node">
<title>Node23</title>
<g id="a_Node000023"><a xlink:href="player_8cpp.html" target="_top" xlink:title=" ">
<polygon fill="white" stroke="#666666" points="379.75,-211.5 250.75,-211.5 250.75,-170.5 379.75,-170.5 379.75,-211.5"/>
<text text-anchor="start" x="258.75" y="-199.5" font-family="Helvetica,sans-Serif" font-size="10.00">examples/monte_carlo</text>
<text text-anchor="start" x="258.75" y="-188.5" font-family="Helvetica,sans-Serif" font-size="10.00">/tic_tac_toe/src/models</text>
<text text-anchor="middle" x="315.25" y="-177.5" font-family="Helvetica,sans-Serif" font-size="10.00">/player.cpp</text>
</a>
</g>
</g>
<!-- Node2&#45;&gt;Node23 -->
<g id="edge39_Node000002_Node000023" class="edge">
<title>Node2&#45;&gt;Node23</title>
<g id="a_edge39_Node000002_Node000023"><a xlink:title=" ">
<path fill="none" stroke="#63b8ff" d="M440.2,-322.32C410.05,-290.87 361.12,-239.84 334.31,-211.88"/>
<polygon fill="#63b8ff" stroke="#63b8ff" points="437.99,-325.07 447.44,-329.87 443.04,-320.23 437.99,-325.07"/>
</a>
</g>
</g>
<!-- Node3&#45;&gt;Node4 -->
<g id="edge3_Node000003_Node000004" class="edge">
<title>Node3&#45;&gt;Node4</title>
<g id="a_edge3_Node000003_Node000004"><a xlink:title=" ">
<path fill="none" stroke="#63b8ff" d="M619.55,-242.7C620.46,-218.43 617.39,-185.03 597.25,-165 530.12,-98.21 479.32,-151.17 387.25,-129 380.61,-127.4 373.7,-125.54 366.86,-123.58"/>
<polygon fill="#63b8ff" stroke="#63b8ff" points="616.05,-242.6 618.92,-252.8 623.04,-243.03 616.05,-242.6"/>
</a>
</g>
</g>
<!-- Node6 -->
<g id="Node000006" class="node">
<title>Node6</title>
<g id="a_Node000006"><a xlink:href="bot_8cpp.html" target="_top" xlink:title=" ">
<polygon fill="white" stroke="#666666" points="834.75,-41 705.75,-41 705.75,0 834.75,0 834.75,-41"/>
<text text-anchor="start" x="713.75" y="-29" font-family="Helvetica,sans-Serif" font-size="10.00">examples/monte_carlo</text>
<text text-anchor="start" x="713.75" y="-18" font-family="Helvetica,sans-Serif" font-size="10.00">/tic_tac_toe/src/models</text>
<text text-anchor="middle" x="770.25" y="-7" font-family="Helvetica,sans-Serif" font-size="10.00">/bot.cpp</text>
</a>
</g>
</g>
<!-- Node3&#45;&gt;Node6 -->
<g id="edge33_Node000003_Node000006" class="edge">
<title>Node3&#45;&gt;Node6</title>
<g id="a_edge33_Node000003_Node000006"><a xlink:title=" ">
<path fill="none" stroke="#63b8ff" d="M702.18,-260.63C744.07,-252.42 794.16,-238.9 835.25,-217 865.81,-200.72 863.47,-182.65 893.25,-165 934.61,-140.49 967.49,-168.24 995.25,-129 1008.6,-110.13 1009.58,-95.14 995.25,-77 952.5,-22.85 911.17,-57.79 844.25,-41 841.16,-40.22 838,-39.42 834.81,-38.61"/>
<polygon fill="#63b8ff" stroke="#63b8ff" points="701.44,-257.21 692.27,-262.5 702.74,-264.08 701.44,-257.21"/>
</a>
</g>
</g>
<!-- Node10 -->
<g id="Node000010" class="node">
<title>Node10</title>
<g id="a_Node000010"><a xlink:href="game_8h.html" target="_top" xlink:title=" ">
<polygon fill="white" stroke="#666666" points="588.25,-211.5 436.25,-211.5 436.25,-170.5 588.25,-170.5 588.25,-211.5"/>
<text text-anchor="start" x="444.25" y="-199.5" font-family="Helvetica,sans-Serif" font-size="10.00">examples/monte_carlo</text>
<text text-anchor="start" x="444.25" y="-188.5" font-family="Helvetica,sans-Serif" font-size="10.00">/tic_tac_toe/include</text>
<text text-anchor="middle" x="512.25" y="-177.5" font-family="Helvetica,sans-Serif" font-size="10.00">/tic_tac_toe/models/game.h</text>
</a>
</g>
</g>
<!-- Node3&#45;&gt;Node10 -->
<g id="edge9_Node000003_Node000010" class="edge">
<title>Node3&#45;&gt;Node10</title>
<g id="a_edge9_Node000003_Node000010"><a xlink:title=" ">
<path fill="none" stroke="#63b8ff" d="M582.55,-246.41C568.01,-235.15 551.28,-222.21 537.79,-211.77"/>
<polygon fill="#63b8ff" stroke="#63b8ff" points="580.76,-249.45 590.81,-252.81 585.05,-243.92 580.76,-249.45"/>
</a>
</g>
</g>
<!-- Node11 -->
<g id="Node000011" class="node">
<title>Node11</title>
<g id="a_Node000011"><a xlink:href="game_8cpp.html" target="_top" xlink:title=" ">
<polygon fill="white" stroke="#666666" points="524.75,-123.5 395.75,-123.5 395.75,-82.5 524.75,-82.5 524.75,-123.5"/>
<text text-anchor="start" x="403.75" y="-111.5" font-family="Helvetica,sans-Serif" font-size="10.00">examples/monte_carlo</text>
<text text-anchor="start" x="403.75" y="-100.5" font-family="Helvetica,sans-Serif" font-size="10.00">/tic_tac_toe/src/models</text>
<text text-anchor="middle" x="460.25" y="-89.5" font-family="Helvetica,sans-Serif" font-size="10.00">/game.cpp</text>
</a>
</g>
</g>
<!-- Node3&#45;&gt;Node11 -->
<g id="edge34_Node000003_Node000011" class="edge">
<title>Node3&#45;&gt;Node11</title>
<g id="a_edge34_Node000003_Node000011"><a xlink:title=" ">
<path fill="none" stroke="#63b8ff" d="M630.21,-243.35C639.11,-220.1 646.27,-187.76 630.25,-165 628.5,-162.5 565.75,-140.39 517,-123.51"/>
<polygon fill="#63b8ff" stroke="#63b8ff" points="626.93,-242.13 626.35,-252.71 633.4,-244.8 626.93,-242.13"/>
</a>
</g>
</g>
<!-- Node12 -->
<g id="Node000012" class="node">
<title>Node12</title>
<g id="a_Node000012"><a xlink:href="game__state_8h.html" target="_top" xlink:title=" ">
<polygon fill="white" stroke="#666666" points="825.75,-217 682.75,-217 682.75,-165 825.75,-165 825.75,-217"/>
<text text-anchor="start" x="690.75" y="-205" font-family="Helvetica,sans-Serif" font-size="10.00">examples/monte_carlo</text>
<text text-anchor="start" x="690.75" y="-194" font-family="Helvetica,sans-Serif" font-size="10.00">/tic_tac_toe/include</text>
<text text-anchor="start" x="690.75" y="-183" font-family="Helvetica,sans-Serif" font-size="10.00">/tic_tac_toe/models/game</text>
<text text-anchor="middle" x="754.25" y="-172" font-family="Helvetica,sans-Serif" font-size="10.00">_state.h</text>
</a>
</g>
</g>
<!-- Node3&#45;&gt;Node12 -->
<g id="edge12_Node000003_Node000012" class="edge">
<title>Node3&#45;&gt;Node12</title>
<g id="a_edge12_Node000003_Node000012"><a xlink:title=" ">
<path fill="none" stroke="#63b8ff" d="M658.96,-247.59C675.56,-237.91 694.55,-226.83 711.18,-217.13"/>
<polygon fill="#63b8ff" stroke="#63b8ff" points="656.89,-244.75 650.01,-252.81 660.41,-250.79 656.89,-244.75"/>
</a>
</g>
</g>
<!-- Node3&#45;&gt;Node20 -->
<g id="edge28_Node000003_Node000020" class="edge">
<title>Node3&#45;&gt;Node20</title>
<g id="a_edge28_Node000003_Node000020"><a xlink:title=" ">
<path fill="none" stroke="#63b8ff" d="M529.93,-260.95C453.8,-250.47 339.93,-234.08 241.25,-217 226.09,-214.38 209.95,-211.35 194.46,-208.33"/>
<polygon fill="#63b8ff" stroke="#63b8ff" points="529.57,-264.43 539.95,-262.32 530.52,-257.49 529.57,-264.43"/>
</a>
</g>
</g>
<!-- Node21 -->
<g id="Node000021" class="node">
<title>Node21</title>
<g id="a_Node000021"><a xlink:href="human_8cpp.html" target="_top" xlink:title=" ">
<polygon fill="white" stroke="#666666" points="180.75,-123.5 51.75,-123.5 51.75,-82.5 180.75,-82.5 180.75,-123.5"/>
<text text-anchor="start" x="59.75" y="-111.5" font-family="Helvetica,sans-Serif" font-size="10.00">examples/monte_carlo</text>
<text text-anchor="start" x="59.75" y="-100.5" font-family="Helvetica,sans-Serif" font-size="10.00">/tic_tac_toe/src/models</text>
<text text-anchor="middle" x="116.25" y="-89.5" font-family="Helvetica,sans-Serif" font-size="10.00">/human.cpp</text>
</a>
</g>
</g>
<!-- Node3&#45;&gt;Node21 -->
<g id="edge35_Node000003_Node000021" class="edge">
<title>Node3&#45;&gt;Node21</title>
<g id="a_edge35_Node000003_Node000021"><a xlink:title=" ">
<path fill="none" stroke="#63b8ff" d="M529.94,-259.56C495.73,-251.4 457.43,-238.21 427.25,-217 403.84,-200.54 413.55,-180.14 389.25,-165 311.11,-116.31 274.2,-152.77 185.25,-129 179.35,-127.42 173.23,-125.56 167.19,-123.57"/>
<polygon fill="#63b8ff" stroke="#63b8ff" points="529.42,-263.03 539.95,-261.83 530.97,-256.21 529.42,-263.03"/>
</a>
</g>
</g>
<!-- Node22 -->
<g id="Node000022" class="node">
<title>Node22</title>
<g id="a_Node000022"><a xlink:href="board_8cpp.html" target="_top" xlink:title=" ">
<polygon fill="white" stroke="#666666" points="1030.75,-211.5 901.75,-211.5 901.75,-170.5 1030.75,-170.5 1030.75,-211.5"/>
<text text-anchor="start" x="909.75" y="-199.5" font-family="Helvetica,sans-Serif" font-size="10.00">examples/monte_carlo</text>
<text text-anchor="start" x="909.75" y="-188.5" font-family="Helvetica,sans-Serif" font-size="10.00">/tic_tac_toe/src/models</text>
<text text-anchor="middle" x="966.25" y="-177.5" font-family="Helvetica,sans-Serif" font-size="10.00">/board.cpp</text>
</a>
</g>
</g>
<!-- Node3&#45;&gt;Node22 -->
<g id="edge32_Node000003_Node000022" class="edge">
<title>Node3&#45;&gt;Node22</title>
<g id="a_edge32_Node000003_Node000022"><a xlink:title=" ">
<path fill="none" stroke="#63b8ff" d="M702.51,-257.22C756.02,-247.15 826.01,-232.92 887.25,-217 893.66,-215.34 900.31,-213.46 906.92,-211.51"/>
<polygon fill="#63b8ff" stroke="#63b8ff" points="701.57,-253.83 692.38,-259.11 702.85,-260.71 701.57,-253.83"/>
</a>
</g>
</g>
<!-- Node3&#45;&gt;Node23 -->
<g id="edge36_Node000003_Node000023" class="edge">
<title>Node3&#45;&gt;Node23</title>
<g id="a_edge36_Node000003_Node000023"><a xlink:title=" ">
<path fill="none" stroke="#63b8ff" d="M530.41,-252.34C489.09,-242.31 438.93,-229.64 394.25,-217 388.3,-215.32 382.12,-213.49 375.96,-211.62"/>
<polygon fill="#63b8ff" stroke="#63b8ff" points="529.63,-255.75 540.17,-254.7 531.28,-248.95 529.63,-255.75"/>
</a>
</g>
</g>
<!-- Node5 -->
<g id="Node000005" class="node">
<title>Node5</title>
<g id="a_Node000005"><a xlink:href="main_8cpp.html" target="_top" xlink:title=" ">
<polygon fill="white" stroke="#666666" points="214.25,-35.5 76.25,-35.5 76.25,-5.5 214.25,-5.5 214.25,-35.5"/>
<text text-anchor="start" x="84.25" y="-23.5" font-family="Helvetica,sans-Serif" font-size="10.00">examples/monte_carlo</text>
<text text-anchor="middle" x="145.25" y="-12.5" font-family="Helvetica,sans-Serif" font-size="10.00">/tic_tac_toe/src/main.cpp</text>
</a>
</g>
</g>
<!-- Node4&#45;&gt;Node5 -->
<g id="edge4_Node000004_Node000005" class="edge">
<title>Node4&#45;&gt;Node5</title>
<g id="a_edge4_Node000004_Node000005"><a xlink:title=" ">
<path fill="none" stroke="#63b8ff" d="M258.47,-77.76C230.73,-63.97 196.96,-47.19 173.56,-35.56"/>
<polygon fill="#63b8ff" stroke="#63b8ff" points="257.11,-80.99 267.63,-82.31 260.23,-74.72 257.11,-80.99"/>
</a>
</g>
</g>
<!-- Node4&#45;&gt;Node6 -->
<g id="edge5_Node000004_Node000006" class="edge">
<title>Node4&#45;&gt;Node6</title>
<g id="a_edge5_Node000004_Node000006"><a xlink:title=" ">
<path fill="none" stroke="#63b8ff" d="M375.4,-79.77C379.39,-78.76 383.36,-77.83 387.25,-77 522.93,-48.19 561,-66.97 697.25,-41 699.96,-40.48 702.71,-39.92 705.49,-39.32"/>
<polygon fill="#63b8ff" stroke="#63b8ff" points="374.23,-76.46 365.47,-82.42 376.03,-83.23 374.23,-76.46"/>
</a>
</g>
</g>
<!-- Node7 -->
<g id="Node000007" class="node">
<title>Node7</title>
<g id="a_Node000007"><a xlink:href="state_8cpp.html" target="_top" xlink:title=" ">
<polygon fill="white" stroke="#666666" points="361.75,-41 232.75,-41 232.75,0 361.75,0 361.75,-41"/>
<text text-anchor="start" x="240.75" y="-29" font-family="Helvetica,sans-Serif" font-size="10.00">examples/monte_carlo</text>
<text text-anchor="start" x="240.75" y="-18" font-family="Helvetica,sans-Serif" font-size="10.00">/tic_tac_toe/src/models</text>
<text text-anchor="middle" x="297.25" y="-7" font-family="Helvetica,sans-Serif" font-size="10.00">/state.cpp</text>
</a>
</g>
</g>
<!-- Node4&#45;&gt;Node7 -->
<g id="edge6_Node000004_Node000007" class="edge">
<title>Node4&#45;&gt;Node7</title>
<g id="a_edge6_Node000004_Node000007"><a xlink:title=" ">
<path fill="none" stroke="#63b8ff" d="M303.51,-71.87C302.24,-61.6 300.84,-50.4 299.7,-41.17"/>
<polygon fill="#63b8ff" stroke="#63b8ff" points="300.08,-72.61 304.78,-82.1 307.02,-71.75 300.08,-72.61"/>
</a>
</g>
</g>
<!-- Node8 -->
<g id="Node000008" class="node">
<title>Node8</title>
<g id="a_Node000008"><a xlink:href="state__tests_8cpp.html" target="_top" xlink:title=" ">
<polygon fill="white" stroke="#666666" points="514.25,-41 380.25,-41 380.25,0 514.25,0 514.25,-41"/>
<text text-anchor="start" x="388.25" y="-29" font-family="Helvetica,sans-Serif" font-size="10.00">examples/monte_carlo</text>
<text text-anchor="start" x="388.25" y="-18" font-family="Helvetica,sans-Serif" font-size="10.00">/tic_tac_toe/tests/model</text>
<text text-anchor="middle" x="447.25" y="-7" font-family="Helvetica,sans-Serif" font-size="10.00">_tests/state_tests.cpp</text>
</a>
</g>
</g>
<!-- Node4&#45;&gt;Node8 -->
<g id="edge7_Node000004_Node000008" class="edge">
<title>Node4&#45;&gt;Node8</title>
<g id="a_edge7_Node000004_Node000008"><a xlink:title=" ">
<path fill="none" stroke="#63b8ff" d="M350.18,-77.32C370.3,-65.75 393.96,-52.15 412.88,-41.27"/>
<polygon fill="#63b8ff" stroke="#63b8ff" points="348.43,-74.29 341.5,-82.31 351.92,-80.36 348.43,-74.29"/>
</a>
</g>
</g>
<!-- Node9 -->
<g id="Node000009" class="node">
<title>Node9</title>
<g id="a_Node000009"><a xlink:href="simulation__tests_8cpp.html" target="_top" xlink:title=" ">
<polygon fill="white" stroke="#666666" points="687.75,-41 532.75,-41 532.75,0 687.75,0 687.75,-41"/>
<text text-anchor="start" x="540.75" y="-29" font-family="Helvetica,sans-Serif" font-size="10.00">examples/monte_carlo</text>
<text text-anchor="start" x="540.75" y="-18" font-family="Helvetica,sans-Serif" font-size="10.00">/tic_tac_toe/tests/simulation</text>
<text text-anchor="middle" x="610.25" y="-7" font-family="Helvetica,sans-Serif" font-size="10.00">_tests.cpp</text>
</a>
</g>
</g>
<!-- Node4&#45;&gt;Node9 -->
<g id="edge8_Node000004_Node000009" class="edge">
<title>Node4&#45;&gt;Node9</title>
<g id="a_edge8_Node000004_Node000009"><a xlink:title=" ">
<path fill="none" stroke="#63b8ff" d="M378.36,-79.54C381.36,-78.67 384.34,-77.82 387.25,-77 435.27,-63.53 489.57,-49.99 532.56,-39.65"/>
<polygon fill="#63b8ff" stroke="#63b8ff" points="377.33,-76.2 368.73,-82.39 379.31,-82.91 377.33,-76.2"/>
</a>
</g>
</g>
<!-- Node10&#45;&gt;Node5 -->
<g id="edge10_Node000010_Node000005" class="edge">
<title>Node10&#45;&gt;Node5</title>
<g id="a_edge10_Node000010_Node000005"><a xlink:title=" ">
<path fill="none" stroke="#63b8ff" d="M434.12,-167.85C430.12,-166.86 426.14,-165.9 422.25,-165 336.81,-145.25 302.77,-175.24 228.25,-129 203.71,-113.77 206.9,-99.88 189.25,-77 178.29,-62.78 165.52,-46.73 156.57,-35.56"/>
<polygon fill="#63b8ff" stroke="#63b8ff" points="433.56,-171.32 444.11,-170.4 435.28,-164.54 433.56,-171.32"/>
</a>
</g>
</g>
<!-- Node10&#45;&gt;Node11 -->
<g id="edge11_Node000010_Node000011" class="edge">
<title>Node10&#45;&gt;Node11</title>
<g id="a_edge11_Node000010_Node000011"><a xlink:title=" ">
<path fill="none" stroke="#63b8ff" d="M495.22,-161.82C487.69,-149.37 479.01,-135.02 472.19,-123.74"/>
<polygon fill="#63b8ff" stroke="#63b8ff" points="492.29,-163.74 500.46,-170.49 498.28,-160.12 492.29,-163.74"/>
</a>
</g>
</g>
<!-- Node12&#45;&gt;Node11 -->
<g id="edge26_Node000012_Node000011" class="edge">
<title>Node12&#45;&gt;Node11</title>
<g id="a_edge26_Node000012_Node000011"><a xlink:title=" ">
<path fill="none" stroke="#63b8ff" d="M672.64,-166.23C671.17,-165.82 669.71,-165.41 668.25,-165 608.87,-148.39 593.27,-146.88 534.25,-129 528.67,-127.31 522.88,-125.48 517.1,-123.61"/>
<polygon fill="#63b8ff" stroke="#63b8ff" points="671.91,-169.66 682.49,-169.02 673.82,-162.93 671.91,-169.66"/>
</a>
</g>
</g>
<!-- Node13 -->
<g id="Node000013" class="node">
<title>Node13</title>
<g id="a_Node000013"><a xlink:href="tic__tac__toe__factory_8h.html" target="_top" xlink:title=" ">
<polygon fill="white" stroke="#666666" points="818.25,-129 690.25,-129 690.25,-77 818.25,-77 818.25,-129"/>
<text text-anchor="start" x="698.25" y="-117" font-family="Helvetica,sans-Serif" font-size="10.00">examples/monte_carlo</text>
<text text-anchor="start" x="698.25" y="-106" font-family="Helvetica,sans-Serif" font-size="10.00">/tic_tac_toe/include</text>
<text text-anchor="start" x="698.25" y="-95" font-family="Helvetica,sans-Serif" font-size="10.00">/tic_tac_toe/factories</text>
<text text-anchor="middle" x="754.25" y="-84" font-family="Helvetica,sans-Serif" font-size="10.00">/tic_tac_toe_factory.h</text>
</a>
</g>
</g>
<!-- Node12&#45;&gt;Node13 -->
<g id="edge13_Node000012_Node000013" class="edge">
<title>Node12&#45;&gt;Node13</title>
<g id="a_edge13_Node000012_Node000013"><a xlink:title=" ">
<path fill="none" stroke="#63b8ff" d="M754.25,-154.56C754.25,-146.04 754.25,-137.1 754.25,-129.16"/>
<polygon fill="#63b8ff" stroke="#63b8ff" points="750.76,-154.66 754.25,-164.66 757.76,-154.66 750.76,-154.66"/>
</a>
</g>
</g>
<!-- Node15 -->
<g id="Node000015" class="node">
<title>Node15</title>
<g id="a_Node000015"><a xlink:href="move_8h.html" target="_top" xlink:title=" ">
<polygon fill="white" stroke="#666666" points="1193.25,-123.5 1041.25,-123.5 1041.25,-82.5 1193.25,-82.5 1193.25,-123.5"/>
<text text-anchor="start" x="1049.25" y="-111.5" font-family="Helvetica,sans-Serif" font-size="10.00">examples/monte_carlo</text>
<text text-anchor="start" x="1049.25" y="-100.5" font-family="Helvetica,sans-Serif" font-size="10.00">/tic_tac_toe/include</text>
<text text-anchor="middle" x="1117.25" y="-89.5" font-family="Helvetica,sans-Serif" font-size="10.00">/tic_tac_toe/models/move.h</text>
</a>
</g>
</g>
<!-- Node12&#45;&gt;Node15 -->
<g id="edge19_Node000012_Node000015" class="edge">
<title>Node12&#45;&gt;Node15</title>
<g id="a_edge19_Node000012_Node000015"><a xlink:title=" ">
<path fill="none" stroke="#63b8ff" d="M836.02,-170.63C897.43,-156.08 980.95,-136.29 1040.99,-122.07"/>
<polygon fill="#63b8ff" stroke="#63b8ff" points="834.9,-167.3 825.97,-173.01 836.51,-174.11 834.9,-167.3"/>
</a>
</g>
</g>
<!-- Node17 -->
<g id="Node000017" class="node">
<title>Node17</title>
<g id="a_Node000017"><a xlink:href="state_8h.html" target="_top" xlink:title=" ">
<polygon fill="white" stroke="#666666" points="985.75,-123.5 836.75,-123.5 836.75,-82.5 985.75,-82.5 985.75,-123.5"/>
<text text-anchor="start" x="844.75" y="-111.5" font-family="Helvetica,sans-Serif" font-size="10.00">examples/monte_carlo</text>
<text text-anchor="start" x="844.75" y="-100.5" font-family="Helvetica,sans-Serif" font-size="10.00">/tic_tac_toe/include</text>
<text text-anchor="middle" x="911.25" y="-89.5" font-family="Helvetica,sans-Serif" font-size="10.00">/tic_tac_toe/models/state.h</text>
</a>
</g>
</g>
<!-- Node12&#45;&gt;Node17 -->
<g id="edge22_Node000012_Node000017" class="edge">
<title>Node12&#45;&gt;Node17</title>
<g id="a_edge22_Node000012_Node000017"><a xlink:title=" ">
<path fill="none" stroke="#63b8ff" d="M809.03,-159.99C831.1,-147.9 855.94,-134.3 875.6,-123.53"/>
<polygon fill="#63b8ff" stroke="#63b8ff" points="807.18,-157.02 800.09,-164.89 810.54,-163.16 807.18,-157.02"/>
</a>
</g>
</g>
<!-- Node19 -->
<g id="Node000019" class="node">
<title>Node19</title>
<g id="a_Node000019"><a xlink:href="game__state_8cpp.html" target="_top" xlink:title=" ">
<polygon fill="white" stroke="#666666" points="671.75,-123.5 542.75,-123.5 542.75,-82.5 671.75,-82.5 671.75,-123.5"/>
<text text-anchor="start" x="550.75" y="-111.5" font-family="Helvetica,sans-Serif" font-size="10.00">examples/monte_carlo</text>
<text text-anchor="start" x="550.75" y="-100.5" font-family="Helvetica,sans-Serif" font-size="10.00">/tic_tac_toe/src/models</text>
<text text-anchor="middle" x="607.25" y="-89.5" font-family="Helvetica,sans-Serif" font-size="10.00">/game_state.cpp</text>
</a>
</g>
</g>
<!-- Node12&#45;&gt;Node19 -->
<g id="edge27_Node000012_Node000019" class="edge">
<title>Node12&#45;&gt;Node19</title>
<g id="a_edge27_Node000012_Node000019"><a xlink:title=" ">
<path fill="none" stroke="#63b8ff" d="M702.69,-159.83C682.09,-147.78 658.97,-134.25 640.64,-123.53"/>
<polygon fill="#63b8ff" stroke="#63b8ff" points="700.94,-162.87 711.34,-164.89 704.48,-156.82 700.94,-162.87"/>
</a>
</g>
</g>
<!-- Node13&#45;&gt;Node5 -->
<g id="edge15_Node000013_Node000005" class="edge">
<title>Node13&#45;&gt;Node5</title>
<g id="a_edge15_Node000013_Node000005"><a xlink:title=" ">
<path fill="none" stroke="#63b8ff" d="M680.04,-76.98C479.45,-36.81 421.53,-73.35 223.25,-41 214.44,-39.56 205.15,-37.62 196.19,-35.53"/>
<polygon fill="#63b8ff" stroke="#63b8ff" points="679.52,-80.45 690.01,-79.02 680.92,-73.59 679.52,-80.45"/>
</a>
</g>
</g>
<!-- Node13&#45;&gt;Node6 -->
<g id="edge16_Node000013_Node000006" class="edge">
<title>Node13&#45;&gt;Node6</title>
<g id="a_edge16_Node000013_Node000006"><a xlink:title=" ">
<path fill="none" stroke="#63b8ff" d="M761.18,-67.16C762.95,-58.25 764.79,-48.99 766.35,-41.15"/>
<polygon fill="#63b8ff" stroke="#63b8ff" points="757.75,-66.48 759.23,-76.97 764.61,-67.84 757.75,-66.48"/>
</a>
</g>
</g>
<!-- Node13&#45;&gt;Node8 -->
<g id="edge17_Node000013_Node000008" class="edge">
<title>Node13&#45;&gt;Node8</title>
<g id="a_edge17_Node000013_Node000008"><a xlink:title=" ">
<path fill="none" stroke="#63b8ff" d="M680.21,-76.81C610.72,-57.38 590.86,-57.07 524.25,-41 521.04,-40.22 517.75,-39.42 514.42,-38.61"/>
<polygon fill="#63b8ff" stroke="#63b8ff" points="679.31,-80.19 689.88,-79.55 681.21,-73.46 679.31,-80.19"/>
</a>
</g>
</g>
<!-- Node13&#45;&gt;Node9 -->
<g id="edge18_Node000013_Node000009" class="edge">
<title>Node13&#45;&gt;Node9</title>
<g id="a_edge18_Node000013_Node000009"><a xlink:title=" ">
<path fill="none" stroke="#63b8ff" d="M700.59,-72C682.15,-61.69 661.99,-50.42 645.4,-41.15"/>
<polygon fill="#63b8ff" stroke="#63b8ff" points="699.05,-75.15 709.48,-76.97 702.46,-69.04 699.05,-75.15"/>
</a>
</g>
</g>
<!-- Node14 -->
<g id="Node000014" class="node">
<title>Node14</title>
<g id="a_Node000014"><a xlink:href="tic__tac__toe__factory_8cpp.html" target="_top" xlink:title=" ">
<polygon fill="white" stroke="#666666" points="989.25,-41 853.25,-41 853.25,0 989.25,0 989.25,-41"/>
<text text-anchor="start" x="861.25" y="-29" font-family="Helvetica,sans-Serif" font-size="10.00">examples/monte_carlo</text>
<text text-anchor="start" x="861.25" y="-18" font-family="Helvetica,sans-Serif" font-size="10.00">/tic_tac_toe/src/factories</text>
<text text-anchor="middle" x="921.25" y="-7" font-family="Helvetica,sans-Serif" font-size="10.00">/tic_tac_toe_factory.cpp</text>
</a>
</g>
</g>
<!-- Node13&#45;&gt;Node14 -->
<g id="edge14_Node000013_Node000014" class="edge">
<title>Node13&#45;&gt;Node14</title>
<g id="a_edge14_Node000013_Node000014"><a xlink:title=" ">
<path fill="none" stroke="#63b8ff" d="M815.36,-72.54C837.15,-62.04 861.14,-50.48 880.77,-41.02"/>
<polygon fill="#63b8ff" stroke="#63b8ff" points="813.67,-69.48 806.18,-76.97 816.71,-75.78 813.67,-69.48"/>
</a>
</g>
</g>
<!-- Node15&#45;&gt;Node14 -->
<g id="edge20_Node000015_Node000014" class="edge">
<title>Node15&#45;&gt;Node14</title>
<g id="a_edge20_Node000015_Node000014"><a xlink:title=" ">
<path fill="none" stroke="#63b8ff" d="M1059.98,-78.48C1031.02,-66.58 996.29,-52.32 968.83,-41.04"/>
<polygon fill="#63b8ff" stroke="#63b8ff" points="1058.98,-81.85 1069.56,-82.41 1061.64,-75.37 1058.98,-81.85"/>
</a>
</g>
</g>
<!-- Node16 -->
<g id="Node000016" class="node">
<title>Node16</title>
<g id="a_Node000016"><a xlink:href="move_8cpp.html" target="_top" xlink:title=" ">
<polygon fill="white" stroke="#666666" points="1283.75,-41 1154.75,-41 1154.75,0 1283.75,0 1283.75,-41"/>
<text text-anchor="start" x="1162.75" y="-29" font-family="Helvetica,sans-Serif" font-size="10.00">examples/monte_carlo</text>
<text text-anchor="start" x="1162.75" y="-18" font-family="Helvetica,sans-Serif" font-size="10.00">/tic_tac_toe/src/models</text>
<text text-anchor="middle" x="1219.25" y="-7" font-family="Helvetica,sans-Serif" font-size="10.00">/move.cpp</text>
</a>
</g>
</g>
<!-- Node15&#45;&gt;Node16 -->
<g id="edge21_Node000015_Node000016" class="edge">
<title>Node15&#45;&gt;Node16</title>
<g id="a_edge21_Node000015_Node000016"><a xlink:title=" ">
<path fill="none" stroke="#63b8ff" d="M1150.31,-75.91C1164.57,-64.65 1180.98,-51.71 1194.21,-41.27"/>
<polygon fill="#63b8ff" stroke="#63b8ff" points="1147.89,-73.36 1142.21,-82.31 1152.23,-78.86 1147.89,-73.36"/>
</a>
</g>
</g>
<!-- Node17&#45;&gt;Node7 -->
<g id="edge25_Node000017_Node000007" class="edge">
<title>Node17&#45;&gt;Node7</title>
<g id="a_edge25_Node000017_Node000007"><a xlink:title=" ">
<path fill="none" stroke="#63b8ff" d="M841.34,-80C836.6,-78.88 831.87,-77.86 827.25,-77 627.39,-39.8 571.68,-75.04 371.25,-41 368.24,-40.49 365.17,-39.91 362.08,-39.28"/>
<polygon fill="#63b8ff" stroke="#63b8ff" points="840.51,-83.4 851.06,-82.43 842.21,-76.61 840.51,-83.4"/>
</a>
</g>
</g>
<!-- Node17&#45;&gt;Node14 -->
<g id="edge23_Node000017_Node000014" class="edge">
<title>Node17&#45;&gt;Node14</title>
<g id="a_edge23_Node000017_Node000014"><a xlink:title=" ">
<path fill="none" stroke="#63b8ff" d="M915,-71.87C916.27,-61.6 917.67,-50.4 918.81,-41.17"/>
<polygon fill="#63b8ff" stroke="#63b8ff" points="911.49,-71.75 913.73,-82.1 918.43,-72.61 911.49,-71.75"/>
</a>
</g>
</g>
<!-- Node18 -->
<g id="Node000018" class="node">
<title>Node18</title>
<g id="a_Node000018"><a xlink:href="position_8cpp.html" target="_top" xlink:title=" ">
<polygon fill="white" stroke="#666666" points="1136.75,-41 1007.75,-41 1007.75,0 1136.75,0 1136.75,-41"/>
<text text-anchor="start" x="1015.75" y="-29" font-family="Helvetica,sans-Serif" font-size="10.00">examples/monte_carlo</text>
<text text-anchor="start" x="1015.75" y="-18" font-family="Helvetica,sans-Serif" font-size="10.00">/tic_tac_toe/src/models</text>
<text text-anchor="middle" x="1072.25" y="-7" font-family="Helvetica,sans-Serif" font-size="10.00">/position.cpp</text>
</a>
</g>
</g>
<!-- Node17&#45;&gt;Node18 -->
<g id="edge24_Node000017_Node000018" class="edge">
<title>Node17&#45;&gt;Node18</title>
<g id="a_edge24_Node000017_Node000018"><a xlink:title=" ">
<path fill="none" stroke="#63b8ff" d="M959.72,-77.77C983.15,-66.05 1010.91,-52.17 1033,-41.13"/>
<polygon fill="#63b8ff" stroke="#63b8ff" points="958.02,-74.7 950.64,-82.31 961.15,-80.97 958.02,-74.7"/>
</a>
</g>
</g>
<!-- Node20&#45;&gt;Node5 -->
<g id="edge29_Node000020_Node000005" class="edge">
<title>Node20&#45;&gt;Node5</title>
<g id="a_edge29_Node000020_Node000005"><a xlink:title=" ">
<path fill="none" stroke="#63b8ff" d="M48.33,-165.44C32.81,-156.44 18.23,-144.52 9.25,-129 -2.31,-108.99 -3.64,-96.18 9.25,-77 24.47,-54.35 50.73,-40.94 76.14,-33"/>
<polygon fill="#63b8ff" stroke="#63b8ff" points="47.08,-168.74 57.54,-170.41 50.4,-162.58 47.08,-168.74"/>
</a>
</g>
</g>
<!-- Node20&#45;&gt;Node7 -->
<g id="edge31_Node000020_Node000007" class="edge">
<title>Node20&#45;&gt;Node7</title>
<g id="a_edge31_Node000020_Node000007"><a xlink:title=" ">
<path fill="none" stroke="#63b8ff" d="M71.93,-164.11C60.08,-154.67 48.73,-142.86 42.25,-129 32.47,-108.06 27.59,-94.87 42.25,-77 94.29,-13.6 143.34,-59.46 223.25,-41 226.36,-40.28 229.54,-39.53 232.74,-38.75"/>
<polygon fill="#63b8ff" stroke="#63b8ff" points="70.05,-167.08 80.15,-170.26 74.24,-161.47 70.05,-167.08"/>
</a>
</g>
</g>
<!-- Node20&#45;&gt;Node21 -->
<g id="edge30_Node000020_Node000021" class="edge">
<title>Node20&#45;&gt;Node21</title>
<g id="a_edge30_Node000020_Node000021"><a xlink:title=" ">
<path fill="none" stroke="#63b8ff" d="M115.6,-160.36C115.74,-148.26 115.9,-134.58 116.03,-123.74"/>
<polygon fill="#63b8ff" stroke="#63b8ff" points="112.1,-160.45 115.48,-170.49 119.1,-160.53 112.1,-160.45"/>
</a>
</g>
</g>
<!-- Node24&#45;&gt;Node2 -->
<g id="edge44_Node000024_Node000002" class="edge">
<title>Node24&#45;&gt;Node2</title>
<g id="a_edge44_Node000024_Node000002"><a xlink:title=" ">
<path fill="none" stroke="#63b8ff" d="M874.35,-412.72C779.35,-398.46 632.67,-376.46 543.46,-363.08"/>
<polygon fill="#63b8ff" stroke="#63b8ff" points="874.12,-416.22 884.53,-414.24 875.16,-409.3 874.12,-416.22"/>
</a>
</g>
</g>
<!-- Node24&#45;&gt;Node3 -->
<g id="edge42_Node000024_Node000003" class="edge">
<title>Node24&#45;&gt;Node3</title>
<g id="a_edge42_Node000024_Node000003"><a xlink:title=" ">
<path fill="none" stroke="#63b8ff" d="M911.83,-402.86C842.94,-372.95 725.55,-321.97 661.4,-294.11"/>
<polygon fill="#63b8ff" stroke="#63b8ff" points="910.65,-406.17 921.22,-406.94 913.44,-399.75 910.65,-406.17"/>
</a>
</g>
</g>
<!-- Node24&#45;&gt;Node13 -->
<g id="edge41_Node000024_Node000013" class="edge">
<title>Node24&#45;&gt;Node13</title>
<g id="a_edge41_Node000024_Node000013"><a xlink:title=" ">
<path fill="none" stroke="#63b8ff" d="M988.6,-398.86C1027.64,-347.04 1098.79,-234.32 1040.25,-165 1009.42,-128.49 874.59,-140.68 828.25,-129 825.1,-128.2 821.88,-127.34 818.65,-126.42"/>
<polygon fill="#63b8ff" stroke="#63b8ff" points="985.72,-396.86 982.4,-406.93 991.27,-401.12 985.72,-396.86"/>
</a>
</g>
</g>
<!-- Node24&#45;&gt;Node15 -->
<g id="edge43_Node000024_Node000015" class="edge">
<title>Node24&#45;&gt;Node15</title>
<g id="a_edge43_Node000024_Node000015"><a xlink:title=" ">
<path fill="none" stroke="#63b8ff" d="M1035.92,-402.3C1050.19,-394.37 1063.74,-384.11 1073.25,-371 1129.27,-293.82 1124.12,-171.15 1119.58,-123.67"/>
<polygon fill="#63b8ff" stroke="#63b8ff" points="1034.23,-399.23 1026.97,-406.94 1037.46,-405.45 1034.23,-399.23"/>
</a>
</g>
</g>
<!-- Node24&#45;&gt;Node18 -->
<g id="edge46_Node000024_Node000018" class="edge">
<title>Node24&#45;&gt;Node18</title>
<g id="a_edge46_Node000024_Node000018"><a xlink:title=" ">
<path fill="none" stroke="#63b8ff" d="M1057.73,-410.56C1130.88,-391.94 1221.25,-353.05 1221.25,-274.5 1221.25,-274.5 1221.25,-274.5 1221.25,-190 1221.25,-139.07 1233.76,-117.01 1202.25,-77 1192.84,-65.05 1162.05,-51.65 1132.79,-41.02"/>
<polygon fill="#63b8ff" stroke="#63b8ff" points="1056.87,-407.17 1047.99,-412.95 1058.54,-413.97 1056.87,-407.17"/>
</a>
</g>
</g>
<!-- Node24&#45;&gt;Node22 -->
<g id="edge45_Node000024_Node000022" class="edge">
<title>Node24&#45;&gt;Node22</title>
<g id="a_edge45_Node000024_Node000022"><a xlink:title=" ">
<path fill="none" stroke="#63b8ff" d="M966.25,-396.71C966.25,-348.06 966.25,-252.83 966.25,-211.7"/>
<polygon fill="#63b8ff" stroke="#63b8ff" points="962.76,-396.91 966.25,-406.91 969.76,-396.91 962.76,-396.91"/>
</a>
</g>
</g>
</g>
</svg>

<g id="navigator" transform="translate(0 0)" fill="#404254">
  <rect fill="#f2f5e9" fill-opacity="0.5" stroke="#606060" stroke-width=".5" x="0" y="0" width="60" height="60"/>
  <use id="zoomplus" xlink:href="#zoomPlus" x="17" y="9" onmousedown="handleZoom(evt,'in')"/>
  <use id="zoomminus" xlink:href="#zoomMin" x="42" y="9" onmousedown="handleZoom(evt,'out')"/>
  <use id="reset" xlink:href="#resetDef" x="30" y="36" onmousedown="handleReset()"/>
   <use id="arrowup" xlink:href="#arrowUp" x="0" y="0" onmousedown="handlePan(0,-1)"/>
  <use id="arrowright" xlink:href="#arrowRight" x="0" y="0" onmousedown="handlePan(1,0)"/>
  <use id="arrowdown" xlink:href="#arrowDown" x="0" y="0" onmousedown="handlePan(0,1)"/>
  <use id="arrowleft" xlink:href="#arrowLeft" x="0" y="0" onmousedown="handlePan(-1,0)"/>
</g>
<svg viewBox="0 0 15 15" width="100%" height="30px" preserveAspectRatio="xMaxYMin meet">
 <g id="arrow_out" transform="scale(0.3 0.3)">
  <a xlink:href="symbol_8h__dep__incl_org.svg" target="_base">
   <rect id="button" ry="5" rx="5" y="6" x="6" height="38" width="38"
        fill="#f2f5e9" fill-opacity="0.5" stroke="#606060" stroke-width="1.0"/>
   <path id="arrow"
     d="M 11.500037,31.436501 C 11.940474,20.09759 22.043105,11.32322 32.158766,21.979434 L 37.068811,17.246167 C 37.068811,17.246167 37.088388,32 37.088388,32 L 22.160133,31.978069 C 22.160133,31.978069 26.997745,27.140456 26.997745,27.140456 C 18.528582,18.264221 13.291696,25.230495 11.500037,31.436501 z"
     style="fill:#404040;"/>
  </a>
 </g>
</svg>

<style type='text/css'>
<![CDATA[
[data-mouse-over-selected='false'] { opacity: 0.7; }
[data-mouse-over-selected='true']  { opacity: 1.0; }
]]>
</style>
<script type="application/ecmascript"><![CDATA[
document.addEventListener('DOMContentLoaded', (event) => {
  highlightEdges();
  highlightAdjacentNodes();
});
]]></script>
</svg>
