<?xml version="1.0" encoding="UTF-8" standalone="no"?>
<!DOCTYPE svg PUBLIC "-//W3C//DTD SVG 1.1//EN"
 "http://www.w3.org/Graphics/SVG/1.1/DTD/svg11.dtd">
<!-- Generated by graphviz version 2.43.0 (0)
 -->
<!-- Title: examples/monte_carlo/tic_tac_toe/include/tic_tac_toe/factories/tic_tac_toe_factory.h Pages: 1 -->
<svg width="918pt" height="511pt"
 viewBox="0.00 0.00 917.60 511.00" xmlns="http://www.w3.org/2000/svg" xmlns:xlink="http://www.w3.org/1999/xlink">
<g id="graph0" class="graph" transform="scale(1 1) rotate(0) translate(4 507)">
<title>examples/monte_carlo/tic_tac_toe/include/tic_tac_toe/factories/tic_tac_toe_factory.h</title>
<!-- Node1 -->
<g id="Node000001" class="node">
<title>Node1</title>
<g id="a_Node000001"><a xlink:title=" ">
<polygon fill="#999999" stroke="#666666" points="457.5,-503 329.5,-503 329.5,-451 457.5,-451 457.5,-503"/>
<text text-anchor="start" x="337.5" y="-491" font-family="Helvetica,sans-Serif" font-size="10.00">examples/monte_carlo</text>
<text text-anchor="start" x="337.5" y="-480" font-family="Helvetica,sans-Serif" font-size="10.00">/tic_tac_toe/include</text>
<text text-anchor="start" x="337.5" y="-469" font-family="Helvetica,sans-Serif" font-size="10.00">/tic_tac_toe/factories</text>
<text text-anchor="middle" x="393.5" y="-458" font-family="Helvetica,sans-Serif" font-size="10.00">/tic_tac_toe_factory.h</text>
</a>
</g>
</g>
<!-- Node2 -->
<g id="Node000002" class="node">
<title>Node2</title>
<g id="a_Node000002"><a xlink:href="game__state_8h.html" target="_top" xlink:title=" ">
<polygon fill="white" stroke="#666666" points="386,-349 277,-349 277,-319 386,-319 386,-349"/>
<text text-anchor="start" x="285" y="-337" font-family="Helvetica,sans-Serif" font-size="10.00">tic_tac_toe/models</text>
<text text-anchor="middle" x="331.5" y="-326" font-family="Helvetica,sans-Serif" font-size="10.00">/game_state.h</text>
</a>
</g>
</g>
<!-- Node1&#45;&gt;Node2 -->
<g id="edge1_Node000001_Node000002" class="edge">
<title>Node1&#45;&gt;Node2</title>
<g id="a_edge1_Node000001_Node000002"><a xlink:title=" ">
<path fill="none" stroke="#63b8ff" d="M382.42,-450.79C370.92,-424.64 353.07,-384.06 341.85,-358.54"/>
<polygon fill="#63b8ff" stroke="#63b8ff" points="344.99,-356.99 337.76,-349.24 338.58,-359.81 344.99,-356.99"/>
</a>
</g>
</g>
<!-- Node7 -->
<g id="Node000007" class="node">
<title>Node7</title>
<g id="a_Node000007"><a xlink:href="position_8h.html" target="_top" xlink:title=" ">
<polygon fill="white" stroke="#666666" points="109,-151 0,-151 0,-121 109,-121 109,-151"/>
<text text-anchor="start" x="8" y="-139" font-family="Helvetica,sans-Serif" font-size="10.00">tic_tac_toe/models</text>
<text text-anchor="middle" x="54.5" y="-128" font-family="Helvetica,sans-Serif" font-size="10.00">/position.h</text>
</a>
</g>
</g>
<!-- Node1&#45;&gt;Node7 -->
<g id="edge17_Node000001_Node000007" class="edge">
<title>Node1&#45;&gt;Node7</title>
<g id="a_edge17_Node000001_Node000007"><a xlink:title=" ">
<path fill="none" stroke="#63b8ff" d="M329.49,-466.13C220.02,-447.42 8.5,-402.53 8.5,-335 8.5,-335 8.5,-335 8.5,-267 8.5,-227.73 27.39,-185.41 40.96,-160.07"/>
<polygon fill="#63b8ff" stroke="#63b8ff" points="44.07,-161.68 45.85,-151.23 37.94,-158.29 44.07,-161.68"/>
</a>
</g>
</g>
<!-- Node13 -->
<g id="Node000013" class="node">
<title>Node13</title>
<g id="a_Node000013"><a xlink:href="tree__factory__interface_8h.html" target="_top" xlink:title=" ">
<polygon fill="white" stroke="#666666" points="551,-283 414,-283 414,-253 551,-253 551,-283"/>
<text text-anchor="start" x="422" y="-271" font-family="Helvetica,sans-Serif" font-size="10.00">monte_carlo/factories</text>
<text text-anchor="middle" x="482.5" y="-260" font-family="Helvetica,sans-Serif" font-size="10.00">/tree_factory_interface.h</text>
</a>
</g>
</g>
<!-- Node1&#45;&gt;Node13 -->
<g id="edge18_Node000001_Node000013" class="edge">
<title>Node1&#45;&gt;Node13</title>
<g id="a_edge18_Node000001_Node000013"><a xlink:title=" ">
<path fill="none" stroke="#63b8ff" d="M404.41,-450.62C421.79,-410.2 455.51,-331.77 472.38,-292.54"/>
<polygon fill="#63b8ff" stroke="#63b8ff" points="475.64,-293.81 476.38,-283.24 469.21,-291.04 475.64,-293.81"/>
</a>
</g>
</g>
<!-- Node14 -->
<g id="Node000014" class="node">
<title>Node14</title>
<g id="a_Node000014"><a xlink:href="node__base_8h.html" target="_top" xlink:title=" ">
<polygon fill="white" stroke="#666666" points="577.5,-415 461.5,-415 461.5,-385 577.5,-385 577.5,-415"/>
<text text-anchor="start" x="469.5" y="-403" font-family="Helvetica,sans-Serif" font-size="10.00">monte_carlo/models</text>
<text text-anchor="middle" x="519.5" y="-392" font-family="Helvetica,sans-Serif" font-size="10.00">/node_base.h</text>
</a>
</g>
</g>
<!-- Node1&#45;&gt;Node14 -->
<g id="edge21_Node000001_Node000014" class="edge">
<title>Node1&#45;&gt;Node14</title>
<g id="a_edge21_Node000001_Node000014"><a xlink:title=" ">
<path fill="none" stroke="#63b8ff" d="M435.81,-450.82C452.54,-440.86 471.47,-429.59 487.08,-420.3"/>
<polygon fill="#63b8ff" stroke="#63b8ff" points="489.05,-423.2 495.85,-415.08 485.47,-417.18 489.05,-423.2"/>
</a>
</g>
</g>
<!-- Node3 -->
<g id="Node000003" class="node">
<title>Node3</title>
<g id="a_Node000003"><a xlink:title=" ">
<polygon fill="#e0e0e0" stroke="#999999" points="539.5,-145.5 481.5,-145.5 481.5,-126.5 539.5,-126.5 539.5,-145.5"/>
<text text-anchor="middle" x="510.5" y="-133.5" font-family="Helvetica,sans-Serif" font-size="10.00">memory</text>
</a>
</g>
</g>
<!-- Node2&#45;&gt;Node3 -->
<g id="edge2_Node000002_Node000003" class="edge">
<title>Node2&#45;&gt;Node3</title>
<g id="a_edge2_Node000002_Node000003"><a xlink:title=" ">
<path fill="none" stroke="#63b8ff" d="M344.42,-318.84C359.01,-302.84 383.45,-276.05 404.5,-253 436.96,-217.45 475.03,-175.8 495.56,-153.34"/>
<polygon fill="#63b8ff" stroke="#63b8ff" points="498.36,-155.47 502.52,-145.73 493.19,-150.75 498.36,-155.47"/>
</a>
</g>
</g>
<!-- Node4 -->
<g id="Node000004" class="node">
<title>Node4</title>
<g id="a_Node000004"><a xlink:href="board_8h.html" target="_top" xlink:title=" ">
<polygon fill="white" stroke="#666666" points="357,-283 248,-283 248,-253 357,-253 357,-283"/>
<text text-anchor="start" x="256" y="-271" font-family="Helvetica,sans-Serif" font-size="10.00">tic_tac_toe/models</text>
<text text-anchor="middle" x="302.5" y="-260" font-family="Helvetica,sans-Serif" font-size="10.00">/board.h</text>
</a>
</g>
</g>
<!-- Node2&#45;&gt;Node4 -->
<g id="edge3_Node000002_Node000004" class="edge">
<title>Node2&#45;&gt;Node4</title>
<g id="a_edge3_Node000002_Node000004"><a xlink:title=" ">
<path fill="none" stroke="#63b8ff" d="M325.06,-318.8C321.53,-311.01 317.07,-301.16 313.05,-292.28"/>
<polygon fill="#63b8ff" stroke="#63b8ff" points="316.23,-290.83 308.92,-283.16 309.86,-293.72 316.23,-290.83"/>
</a>
</g>
</g>
<!-- Node4&#45;&gt;Node3 -->
<g id="edge16_Node000004_Node000003" class="edge">
<title>Node4&#45;&gt;Node3</title>
<g id="a_edge16_Node000004_Node000003"><a xlink:title=" ">
<path fill="none" stroke="#63b8ff" d="M325.16,-252.84C365.22,-227.8 448.1,-176 488.03,-151.04"/>
<polygon fill="#63b8ff" stroke="#63b8ff" points="490.14,-153.86 496.76,-145.59 486.43,-147.92 490.14,-153.86"/>
</a>
</g>
</g>
<!-- Node5 -->
<g id="Node000005" class="node">
<title>Node5</title>
<g id="a_Node000005"><a xlink:title=" ">
<polygon fill="#e0e0e0" stroke="#999999" points="645,-211.5 598,-211.5 598,-192.5 645,-192.5 645,-211.5"/>
<text text-anchor="middle" x="621.5" y="-199.5" font-family="Helvetica,sans-Serif" font-size="10.00">vector</text>
</a>
</g>
</g>
<!-- Node4&#45;&gt;Node5 -->
<g id="edge4_Node000004_Node000005" class="edge">
<title>Node4&#45;&gt;Node5</title>
<g id="a_edge4_Node000004_Node000005"><a xlink:title=" ">
<path fill="none" stroke="#63b8ff" d="M357.34,-256C423.61,-242.7 533.04,-220.75 587.92,-209.74"/>
<polygon fill="#63b8ff" stroke="#63b8ff" points="588.71,-213.15 597.83,-207.75 587.34,-206.28 588.71,-213.15"/>
</a>
</g>
</g>
<!-- Node6 -->
<g id="Node000006" class="node">
<title>Node6</title>
<g id="a_Node000006"><a xlink:href="player_8h.html" target="_top" xlink:title=" ">
<polygon fill="white" stroke="#666666" points="368,-217 259,-217 259,-187 368,-187 368,-217"/>
<text text-anchor="start" x="267" y="-205" font-family="Helvetica,sans-Serif" font-size="10.00">tic_tac_toe/models</text>
<text text-anchor="middle" x="313.5" y="-194" font-family="Helvetica,sans-Serif" font-size="10.00">/player.h</text>
</a>
</g>
</g>
<!-- Node4&#45;&gt;Node6 -->
<g id="edge5_Node000004_Node000006" class="edge">
<title>Node4&#45;&gt;Node6</title>
<g id="a_edge5_Node000004_Node000006"><a xlink:title=" ">
<path fill="none" stroke="#63b8ff" d="M304.94,-252.8C306.24,-245.26 307.87,-235.78 309.35,-227.13"/>
<polygon fill="#63b8ff" stroke="#63b8ff" points="312.82,-227.61 311.07,-217.16 305.92,-226.43 312.82,-227.61"/>
</a>
</g>
</g>
<!-- Node4&#45;&gt;Node7 -->
<g id="edge14_Node000004_Node000007" class="edge">
<title>Node4&#45;&gt;Node7</title>
<g id="a_edge14_Node000004_Node000007"><a xlink:title=" ">
<path fill="none" stroke="#63b8ff" d="M247.92,-262.78C185.5,-256.75 88.77,-243.37 64.5,-217 50.92,-202.25 49.41,-178.95 50.71,-161.29"/>
<polygon fill="#63b8ff" stroke="#63b8ff" points="54.21,-161.47 51.8,-151.16 47.25,-160.72 54.21,-161.47"/>
</a>
</g>
</g>
<!-- Node12 -->
<g id="Node000012" class="node">
<title>Node12</title>
<g id="a_Node000012"><a xlink:href="alignment_8h.html" target="_top" xlink:title=" ">
<polygon fill="white" stroke="#666666" points="241,-211.5 74,-211.5 74,-192.5 241,-192.5 241,-211.5"/>
<text text-anchor="middle" x="157.5" y="-199.5" font-family="Helvetica,sans-Serif" font-size="10.00">tic_tac_toe/enums/alignment.h</text>
</a>
</g>
</g>
<!-- Node4&#45;&gt;Node12 -->
<g id="edge15_Node000004_Node000012" class="edge">
<title>Node4&#45;&gt;Node12</title>
<g id="a_edge15_Node000004_Node000012"><a xlink:title=" ">
<path fill="none" stroke="#63b8ff" d="M270.68,-252.95C245.47,-241.83 210.57,-226.42 186.21,-215.67"/>
<polygon fill="#63b8ff" stroke="#63b8ff" points="187.36,-212.35 176.8,-211.52 184.53,-218.76 187.36,-212.35"/>
</a>
</g>
</g>
<!-- Node6&#45;&gt;Node3 -->
<g id="edge6_Node000006_Node000003" class="edge">
<title>Node6&#45;&gt;Node3</title>
<g id="a_edge6_Node000006_Node000003"><a xlink:title=" ">
<path fill="none" stroke="#63b8ff" d="M356.73,-186.95C392.04,-175.48 441.36,-159.46 474.54,-148.68"/>
<polygon fill="#63b8ff" stroke="#63b8ff" points="475.85,-151.94 484.28,-145.52 473.69,-145.28 475.85,-151.94"/>
</a>
</g>
</g>
<!-- Node6&#45;&gt;Node7 -->
<g id="edge7_Node000006_Node000007" class="edge">
<title>Node6&#45;&gt;Node7</title>
<g id="a_edge7_Node000006_Node000007"><a xlink:title=" ">
<path fill="none" stroke="#63b8ff" d="M258.89,-187.51C218,-177.4 161.92,-163.54 118.85,-152.9"/>
<polygon fill="#63b8ff" stroke="#63b8ff" points="119.58,-149.48 109.04,-150.48 117.9,-156.27 119.58,-149.48"/>
</a>
</g>
</g>
<!-- Node9 -->
<g id="Node000009" class="node">
<title>Node9</title>
<g id="a_Node000009"><a xlink:href="symbol_8h.html" target="_top" xlink:title=" ">
<polygon fill="white" stroke="#666666" points="264.5,-79.5 110.5,-79.5 110.5,-60.5 264.5,-60.5 264.5,-79.5"/>
<text text-anchor="middle" x="187.5" y="-67.5" font-family="Helvetica,sans-Serif" font-size="10.00">tic_tac_toe/enums/symbol.h</text>
</a>
</g>
</g>
<!-- Node6&#45;&gt;Node9 -->
<g id="edge11_Node000006_Node000009" class="edge">
<title>Node6&#45;&gt;Node9</title>
<g id="a_edge11_Node000006_Node000009"><a xlink:title=" ">
<path fill="none" stroke="#63b8ff" d="M299.78,-186.84C276.18,-162.49 228.06,-112.85 203.18,-87.18"/>
<polygon fill="#63b8ff" stroke="#63b8ff" points="205.45,-84.49 195.98,-79.75 200.43,-89.36 205.45,-84.49"/>
</a>
</g>
</g>
<!-- Node11 -->
<g id="Node000011" class="node">
<title>Node11</title>
<g id="a_Node000011"><a xlink:href="observer_8h.html" target="_top" xlink:title=" ">
<polygon fill="white" stroke="#666666" points="398.5,-85 282.5,-85 282.5,-55 398.5,-55 398.5,-85"/>
<text text-anchor="start" x="290.5" y="-73" font-family="Helvetica,sans-Serif" font-size="10.00">tic_tac_toe/observer</text>
<text text-anchor="middle" x="340.5" y="-62" font-family="Helvetica,sans-Serif" font-size="10.00">/observer.h</text>
</a>
</g>
</g>
<!-- Node6&#45;&gt;Node11 -->
<g id="edge12_Node000006_Node000011" class="edge">
<title>Node6&#45;&gt;Node11</title>
<g id="a_edge12_Node000006_Node000011"><a xlink:title=" ">
<path fill="none" stroke="#63b8ff" d="M316.44,-186.84C321.03,-164.76 329.93,-121.89 335.53,-94.94"/>
<polygon fill="#63b8ff" stroke="#63b8ff" points="338.96,-95.65 337.56,-85.14 332.1,-94.22 338.96,-95.65"/>
</a>
</g>
</g>
<!-- Node8 -->
<g id="Node000008" class="node">
<title>Node8</title>
<g id="a_Node000008"><a xlink:title=" ">
<polygon fill="#e0e0e0" stroke="#999999" points="77,-79.5 32,-79.5 32,-60.5 77,-60.5 77,-79.5"/>
<text text-anchor="middle" x="54.5" y="-67.5" font-family="Helvetica,sans-Serif" font-size="10.00">utility</text>
</a>
</g>
</g>
<!-- Node7&#45;&gt;Node8 -->
<g id="edge8_Node000007_Node000008" class="edge">
<title>Node7&#45;&gt;Node8</title>
<g id="a_edge8_Node000007_Node000008"><a xlink:title=" ">
<path fill="none" stroke="#63b8ff" d="M54.5,-120.8C54.5,-111.7 54.5,-99.79 54.5,-89.9"/>
<polygon fill="#63b8ff" stroke="#63b8ff" points="58,-89.84 54.5,-79.84 51,-89.84 58,-89.84"/>
</a>
</g>
</g>
<!-- Node7&#45;&gt;Node9 -->
<g id="edge9_Node000007_Node000009" class="edge">
<title>Node7&#45;&gt;Node9</title>
<g id="a_edge9_Node000007_Node000009"><a xlink:title=" ">
<path fill="none" stroke="#63b8ff" d="M83.69,-120.95C106.6,-109.93 138.25,-94.7 160.57,-83.96"/>
<polygon fill="#63b8ff" stroke="#63b8ff" points="162.31,-87.01 169.8,-79.52 159.27,-80.7 162.31,-87.01"/>
</a>
</g>
</g>
<!-- Node10 -->
<g id="Node000010" class="node">
<title>Node10</title>
<g id="a_Node000010"><a xlink:title=" ">
<polygon fill="#e0e0e0" stroke="#999999" points="362.5,-19 318.5,-19 318.5,0 362.5,0 362.5,-19"/>
<text text-anchor="middle" x="340.5" y="-7" font-family="Helvetica,sans-Serif" font-size="10.00">string</text>
</a>
</g>
</g>
<!-- Node9&#45;&gt;Node10 -->
<g id="edge10_Node000009_Node000010" class="edge">
<title>Node9&#45;&gt;Node10</title>
<g id="a_edge10_Node000009_Node000010"><a xlink:title=" ">
<path fill="none" stroke="#63b8ff" d="M209.75,-60.49C235.81,-50.53 279.18,-33.95 308.77,-22.63"/>
<polygon fill="#63b8ff" stroke="#63b8ff" points="310.14,-25.86 318.23,-19.02 307.64,-19.32 310.14,-25.86"/>
</a>
</g>
</g>
<!-- Node11&#45;&gt;Node10 -->
<g id="edge13_Node000011_Node000010" class="edge">
<title>Node11&#45;&gt;Node10</title>
<g id="a_edge13_Node000011_Node000010"><a xlink:title=" ">
<path fill="none" stroke="#63b8ff" d="M340.5,-54.84C340.5,-47.21 340.5,-37.7 340.5,-29.45"/>
<polygon fill="#63b8ff" stroke="#63b8ff" points="344,-29.27 340.5,-19.27 337,-29.27 344,-29.27"/>
</a>
</g>
</g>
<!-- Node13&#45;&gt;Node3 -->
<g id="edge19_Node000013_Node000003" class="edge">
<title>Node13&#45;&gt;Node3</title>
<g id="a_edge19_Node000013_Node000003"><a xlink:title=" ">
<path fill="none" stroke="#63b8ff" d="M485.55,-252.84C490.63,-229.23 500.84,-181.83 506.5,-155.58"/>
<polygon fill="#63b8ff" stroke="#63b8ff" points="509.93,-156.26 508.62,-145.75 503.09,-154.79 509.93,-156.26"/>
</a>
</g>
</g>
<!-- Node13&#45;&gt;Node10 -->
<g id="edge20_Node000013_Node000010" class="edge">
<title>Node13&#45;&gt;Node10</title>
<g id="a_edge20_Node000013_Node000010"><a xlink:title=" ">
<path fill="none" stroke="#63b8ff" d="M480.66,-252.89C475.29,-216.57 456.83,-118.27 407.5,-55 397.24,-41.85 381.97,-31.28 368.6,-23.75"/>
<polygon fill="#63b8ff" stroke="#63b8ff" points="370.2,-20.64 359.73,-19.03 366.91,-26.82 370.2,-20.64"/>
</a>
</g>
</g>
<!-- Node14&#45;&gt;Node13 -->
<g id="edge33_Node000014_Node000013" class="edge">
<title>Node14&#45;&gt;Node13</title>
<g id="a_edge33_Node000014_Node000013"><a xlink:title=" ">
<path fill="none" stroke="#63b8ff" d="M499.81,-384.72C489.25,-375.79 477.25,-363.29 471.5,-349 464.29,-331.08 468.03,-309.27 473.02,-292.95"/>
<polygon fill="#63b8ff" stroke="#63b8ff" points="476.46,-293.71 476.38,-283.11 469.83,-291.45 476.46,-293.71"/>
</a>
</g>
</g>
<!-- Node15 -->
<g id="Node000015" class="node">
<title>Node15</title>
<g id="a_Node000015"><a xlink:href="node_8h.html" target="_top" xlink:title=" ">
<polygon fill="white" stroke="#666666" points="730.5,-349 614.5,-349 614.5,-319 730.5,-319 730.5,-349"/>
<text text-anchor="start" x="622.5" y="-337" font-family="Helvetica,sans-Serif" font-size="10.00">monte_carlo/models</text>
<text text-anchor="middle" x="672.5" y="-326" font-family="Helvetica,sans-Serif" font-size="10.00">/node.h</text>
</a>
</g>
</g>
<!-- Node14&#45;&gt;Node15 -->
<g id="edge22_Node000014_Node000015" class="edge">
<title>Node14&#45;&gt;Node15</title>
<g id="a_edge22_Node000014_Node000015"><a xlink:title=" ">
<path fill="none" stroke="#63b8ff" d="M553.08,-384.95C575.6,-375.53 605.46,-363.04 629.68,-352.91"/>
<polygon fill="#63b8ff" stroke="#63b8ff" points="631.13,-356.1 639,-349.01 628.43,-349.64 631.13,-356.1"/>
</a>
</g>
</g>
<!-- Node20 -->
<g id="Node000020" class="node">
<title>Node20</title>
<g id="a_Node000020"><a xlink:title=" ">
<polygon fill="#e0e0e0" stroke="#999999" points="596.5,-349 480.5,-349 480.5,-319 596.5,-319 596.5,-349"/>
<text text-anchor="start" x="488.5" y="-337" font-family="Helvetica,sans-Serif" font-size="10.00">monte_carlo/models</text>
<text text-anchor="middle" x="538.5" y="-326" font-family="Helvetica,sans-Serif" font-size="10.00">/node_base.tpp</text>
</a>
</g>
</g>
<!-- Node14&#45;&gt;Node20 -->
<g id="edge34_Node000014_Node000020" class="edge">
<title>Node14&#45;&gt;Node20</title>
<g id="a_edge34_Node000014_Node000020"><a xlink:title=" ">
<path fill="none" stroke="#63b8ff" d="M523.72,-384.8C525.98,-377.17 528.83,-367.57 531.42,-358.84"/>
<polygon fill="#63b8ff" stroke="#63b8ff" points="534.8,-359.75 534.3,-349.16 528.09,-357.75 534.8,-359.75"/>
</a>
</g>
</g>
<!-- Node15&#45;&gt;Node3 -->
<g id="edge32_Node000015_Node000003" class="edge">
<title>Node15&#45;&gt;Node3</title>
<g id="a_edge32_Node000015_Node000003"><a xlink:title=" ">
<path fill="none" stroke="#63b8ff" d="M660.85,-318.9C631.7,-283.64 555.71,-191.7 524.35,-153.75"/>
<polygon fill="#63b8ff" stroke="#63b8ff" points="526.78,-151.2 517.71,-145.73 521.39,-155.66 526.78,-151.2"/>
</a>
</g>
</g>
<!-- Node15&#45;&gt;Node5 -->
<g id="edge31_Node000015_Node000005" class="edge">
<title>Node15&#45;&gt;Node5</title>
<g id="a_edge31_Node000015_Node000005"><a xlink:title=" ">
<path fill="none" stroke="#63b8ff" d="M666.95,-318.84C657.64,-295.13 638.92,-247.41 628.65,-221.23"/>
<polygon fill="#63b8ff" stroke="#63b8ff" points="631.84,-219.78 624.93,-211.75 625.33,-222.34 631.84,-219.78"/>
</a>
</g>
</g>
<!-- Node16 -->
<g id="Node000016" class="node">
<title>Node16</title>
<g id="a_Node000016"><a xlink:href="rollout__strategy__interface_8h.html" target="_top" xlink:title=" ">
<polygon fill="white" stroke="#666666" points="829,-283 674,-283 674,-253 829,-253 829,-283"/>
<text text-anchor="start" x="682" y="-271" font-family="Helvetica,sans-Serif" font-size="10.00">monte_carlo/models</text>
<text text-anchor="middle" x="751.5" y="-260" font-family="Helvetica,sans-Serif" font-size="10.00">/rollout_strategy_interface.h</text>
</a>
</g>
</g>
<!-- Node15&#45;&gt;Node16 -->
<g id="edge23_Node000015_Node000016" class="edge">
<title>Node15&#45;&gt;Node16</title>
<g id="a_edge23_Node000015_Node000016"><a xlink:title=" ">
<path fill="none" stroke="#63b8ff" d="M690.03,-318.8C700.67,-310.18 714.42,-299.04 726.22,-289.48"/>
<polygon fill="#63b8ff" stroke="#63b8ff" points="728.45,-292.18 734.02,-283.16 724.04,-286.74 728.45,-292.18"/>
</a>
</g>
</g>
<!-- Node16&#45;&gt;Node3 -->
<g id="edge28_Node000016_Node000003" class="edge">
<title>Node16&#45;&gt;Node3</title>
<g id="a_edge28_Node000016_Node000003"><a xlink:title=" ">
<path fill="none" stroke="#63b8ff" d="M734.7,-252.88C708.13,-230.59 658.92,-189.49 654.5,-187 621.02,-168.19 579.24,-154.64 549.31,-146.43"/>
<polygon fill="#63b8ff" stroke="#63b8ff" points="550.21,-143.05 539.65,-143.85 548.41,-149.81 550.21,-143.05"/>
</a>
</g>
</g>
<!-- Node16&#45;&gt;Node5 -->
<g id="edge30_Node000016_Node000005" class="edge">
<title>Node16&#45;&gt;Node5</title>
<g id="a_edge30_Node000016_Node000005"><a xlink:title=" ">
<path fill="none" stroke="#63b8ff" d="M722.97,-252.95C700.57,-241.93 669.64,-226.7 647.83,-215.96"/>
<polygon fill="#63b8ff" stroke="#63b8ff" points="649.32,-212.79 638.8,-211.52 646.23,-219.07 649.32,-212.79"/>
</a>
</g>
</g>
<!-- Node17 -->
<g id="Node000017" class="node">
<title>Node17</title>
<g id="a_Node000017"><a xlink:href="action_8h.html" target="_top" xlink:title=" ">
<polygon fill="white" stroke="#666666" points="817.5,-217 701.5,-217 701.5,-187 817.5,-187 817.5,-217"/>
<text text-anchor="start" x="709.5" y="-205" font-family="Helvetica,sans-Serif" font-size="10.00">monte_carlo/models</text>
<text text-anchor="middle" x="759.5" y="-194" font-family="Helvetica,sans-Serif" font-size="10.00">/action.h</text>
</a>
</g>
</g>
<!-- Node16&#45;&gt;Node17 -->
<g id="edge24_Node000016_Node000017" class="edge">
<title>Node16&#45;&gt;Node17</title>
<g id="a_edge24_Node000016_Node000017"><a xlink:title=" ">
<path fill="none" stroke="#63b8ff" d="M753.28,-252.8C754.22,-245.26 755.4,-235.78 756.48,-227.13"/>
<polygon fill="#63b8ff" stroke="#63b8ff" points="759.96,-227.52 757.73,-217.16 753.02,-226.65 759.96,-227.52"/>
</a>
</g>
</g>
<!-- Node18 -->
<g id="Node000018" class="node">
<title>Node18</title>
<g id="a_Node000018"><a xlink:title=" ">
<polygon fill="#e0e0e0" stroke="#999999" points="870,-145.5 813,-145.5 813,-126.5 870,-126.5 870,-145.5"/>
<text text-anchor="middle" x="841.5" y="-133.5" font-family="Helvetica,sans-Serif" font-size="10.00">ostream</text>
</a>
</g>
</g>
<!-- Node16&#45;&gt;Node18 -->
<g id="edge29_Node000016_Node000018" class="edge">
<title>Node16&#45;&gt;Node18</title>
<g id="a_edge29_Node000016_Node000018"><a xlink:title=" ">
<path fill="none" stroke="#63b8ff" d="M829.22,-260.41C857.61,-253.79 887.03,-241.09 904.5,-217 921.69,-193.29 890.26,-166.77 865.92,-151"/>
<polygon fill="#63b8ff" stroke="#63b8ff" points="867.73,-148 857.39,-145.7 864.04,-153.95 867.73,-148"/>
</a>
</g>
</g>
<!-- Node19 -->
<g id="Node000019" class="node">
<title>Node19</title>
<g id="a_Node000019"><a xlink:title=" ">
<polygon fill="#e0e0e0" stroke="#999999" points="895.5,-211.5 835.5,-211.5 835.5,-192.5 895.5,-192.5 895.5,-211.5"/>
<text text-anchor="middle" x="865.5" y="-199.5" font-family="Helvetica,sans-Serif" font-size="10.00">iostream</text>
</a>
</g>
</g>
<!-- Node16&#45;&gt;Node19 -->
<g id="edge27_Node000016_Node000019" class="edge">
<title>Node16&#45;&gt;Node19</title>
<g id="a_edge27_Node000016_Node000019"><a xlink:title=" ">
<path fill="none" stroke="#63b8ff" d="M776.52,-252.95C795.81,-242.13 822.32,-227.24 841.38,-216.54"/>
<polygon fill="#63b8ff" stroke="#63b8ff" points="843.32,-219.46 850.33,-211.52 839.9,-213.36 843.32,-219.46"/>
</a>
</g>
</g>
<!-- Node17&#45;&gt;Node3 -->
<g id="edge25_Node000017_Node000003" class="edge">
<title>Node17&#45;&gt;Node3</title>
<g id="a_edge25_Node000017_Node000003"><a xlink:title=" ">
<path fill="none" stroke="#63b8ff" d="M704.86,-186.95C657.91,-174.89 591.36,-157.78 549.58,-147.05"/>
<polygon fill="#63b8ff" stroke="#63b8ff" points="550.34,-143.63 539.78,-144.53 548.6,-150.41 550.34,-143.63"/>
</a>
</g>
</g>
<!-- Node17&#45;&gt;Node18 -->
<g id="edge26_Node000017_Node000018" class="edge">
<title>Node17&#45;&gt;Node18</title>
<g id="a_edge26_Node000017_Node000018"><a xlink:title=" ">
<path fill="none" stroke="#63b8ff" d="M777.7,-186.8C790.86,-176.53 808.61,-162.67 822.05,-152.18"/>
<polygon fill="#63b8ff" stroke="#63b8ff" points="824.44,-154.76 830.17,-145.84 820.13,-149.24 824.44,-154.76"/>
</a>
</g>
</g>
</g>
</svg>
