<?xml version="1.0" encoding="UTF-8" standalone="no"?>
<!DOCTYPE svg PUBLIC "-//W3C//DTD SVG 1.1//EN"
 "http://www.w3.org/Graphics/SVG/1.1/DTD/svg11.dtd">
<!-- Generated by graphviz version 2.43.0 (0)
 -->
<!-- Title: examples/monte_carlo/tic_tac_toe/src/factories/tic_tac_toe_factory.cpp Pages: 1 -->
<svg width="1080pt" height="566pt"
 viewBox="0.00 0.00 1079.72 566.00" xmlns="http://www.w3.org/2000/svg" xmlns:xlink="http://www.w3.org/1999/xlink">
<g id="graph0" class="graph" transform="scale(1 1) rotate(0) translate(4 562)">
<title>examples/monte_carlo/tic_tac_toe/src/factories/tic_tac_toe_factory.cpp</title>
<!-- Node1 -->
<g id="Node000001" class="node">
<title>Node1</title>
<g id="a_Node000001"><a xlink:title=" ">
<polygon fill="#999999" stroke="#666666" points="563.5,-558 427.5,-558 427.5,-517 563.5,-517 563.5,-558"/>
<text text-anchor="start" x="435.5" y="-546" font-family="Helvetica,sans-Serif" font-size="10.00">examples/monte_carlo</text>
<text text-anchor="start" x="435.5" y="-535" font-family="Helvetica,sans-Serif" font-size="10.00">/tic_tac_toe/src/factories</text>
<text text-anchor="middle" x="495.5" y="-524" font-family="Helvetica,sans-Serif" font-size="10.00">/tic_tac_toe_factory.cpp</text>
</a>
</g>
</g>
<!-- Node2 -->
<g id="Node000002" class="node">
<title>Node2</title>
<g id="a_Node000002"><a xlink:href="tic__tac__toe__factory_8h.html" target="_top" xlink:title=" ">
<polygon fill="white" stroke="#666666" points="346.5,-415 226.5,-415 226.5,-385 346.5,-385 346.5,-415"/>
<text text-anchor="start" x="234.5" y="-403" font-family="Helvetica,sans-Serif" font-size="10.00">tic_tac_toe/factories</text>
<text text-anchor="middle" x="286.5" y="-392" font-family="Helvetica,sans-Serif" font-size="10.00">/tic_tac_toe_factory.h</text>
</a>
</g>
</g>
<!-- Node1&#45;&gt;Node2 -->
<g id="edge1_Node000001_Node000002" class="edge">
<title>Node1&#45;&gt;Node2</title>
<g id="a_edge1_Node000001_Node000002"><a xlink:title=" ">
<path fill="none" stroke="#63b8ff" d="M427.19,-519.36C400.96,-510.65 371.76,-498.18 348.5,-481 327.68,-465.62 310.29,-441.45 299.28,-423.7"/>
<polygon fill="#63b8ff" stroke="#63b8ff" points="302.26,-421.86 294.12,-415.08 296.25,-425.46 302.26,-421.86"/>
</a>
</g>
</g>
<!-- Node9 -->
<g id="Node000009" class="node">
<title>Node9</title>
<g id="a_Node000009"><a xlink:title=" ">
<polygon fill="#e0e0e0" stroke="#999999" points="45,-79.5 0,-79.5 0,-60.5 45,-60.5 45,-79.5"/>
<text text-anchor="middle" x="22.5" y="-67.5" font-family="Helvetica,sans-Serif" font-size="10.00">utility</text>
</a>
</g>
</g>
<!-- Node1&#45;&gt;Node9 -->
<g id="edge55_Node000001_Node000009" class="edge">
<title>Node1&#45;&gt;Node9</title>
<g id="a_edge55_Node000001_Node000009"><a xlink:title=" ">
<path fill="none" stroke="#63b8ff" d="M427.47,-532.04C292.23,-521.29 2.5,-488.1 2.5,-401 2.5,-401 2.5,-401 2.5,-201 2.5,-161 11.86,-114.87 17.78,-89.73"/>
<polygon fill="#63b8ff" stroke="#63b8ff" points="21.24,-90.3 20.21,-79.76 14.44,-88.64 21.24,-90.3"/>
</a>
</g>
</g>
<!-- Node16 -->
<g id="Node000016" class="node">
<title>Node16</title>
<g id="a_Node000016"><a xlink:href="node_8h.html" target="_top" xlink:title=" ">
<polygon fill="white" stroke="#666666" points="906.5,-283 790.5,-283 790.5,-253 906.5,-253 906.5,-283"/>
<text text-anchor="start" x="798.5" y="-271" font-family="Helvetica,sans-Serif" font-size="10.00">monte_carlo/models</text>
<text text-anchor="middle" x="848.5" y="-260" font-family="Helvetica,sans-Serif" font-size="10.00">/node.h</text>
</a>
</g>
</g>
<!-- Node1&#45;&gt;Node16 -->
<g id="edge51_Node000001_Node000016" class="edge">
<title>Node1&#45;&gt;Node16</title>
<g id="a_edge51_Node000001_Node000016"><a xlink:title=" ">
<path fill="none" stroke="#63b8ff" d="M563.72,-521.14C625.51,-504.21 715.77,-471.57 775.5,-415 811.73,-380.68 832.66,-324.5 842.19,-292.76"/>
<polygon fill="#63b8ff" stroke="#63b8ff" points="845.6,-293.58 845,-283.01 838.87,-291.65 845.6,-293.58"/>
</a>
</g>
</g>
<!-- Node18 -->
<g id="Node000018" class="node">
<title>Node18</title>
<g id="a_Node000018"><a xlink:href="action_8h.html" target="_top" xlink:title=" ">
<polygon fill="white" stroke="#666666" points="1058.5,-151 942.5,-151 942.5,-121 1058.5,-121 1058.5,-151"/>
<text text-anchor="start" x="950.5" y="-139" font-family="Helvetica,sans-Serif" font-size="10.00">monte_carlo/models</text>
<text text-anchor="middle" x="1000.5" y="-128" font-family="Helvetica,sans-Serif" font-size="10.00">/action.h</text>
</a>
</g>
</g>
<!-- Node1&#45;&gt;Node18 -->
<g id="edge52_Node000001_Node000018" class="edge">
<title>Node1&#45;&gt;Node18</title>
<g id="a_edge52_Node000001_Node000018"><a xlink:title=" ">
<path fill="none" stroke="#63b8ff" d="M563.68,-533.72C699.55,-527.56 994.05,-510.9 1028.5,-481 1056.18,-456.98 1048.5,-437.65 1048.5,-401 1048.5,-401 1048.5,-401 1048.5,-267 1048.5,-227.53 1028.79,-185.27 1014.63,-159.99"/>
<polygon fill="#63b8ff" stroke="#63b8ff" points="1017.57,-158.08 1009.53,-151.18 1011.51,-161.59 1017.57,-158.08"/>
</a>
</g>
</g>
<!-- Node22 -->
<g id="Node000022" class="node">
<title>Node22</title>
<g id="a_Node000022"><a xlink:href="state_8h.html" target="_top" xlink:title=" ">
<polygon fill="white" stroke="#666666" points="550,-415 441,-415 441,-385 550,-385 550,-415"/>
<text text-anchor="start" x="449" y="-403" font-family="Helvetica,sans-Serif" font-size="10.00">tic_tac_toe/models</text>
<text text-anchor="middle" x="495.5" y="-392" font-family="Helvetica,sans-Serif" font-size="10.00">/state.h</text>
</a>
</g>
</g>
<!-- Node1&#45;&gt;Node22 -->
<g id="edge36_Node000001_Node000022" class="edge">
<title>Node1&#45;&gt;Node22</title>
<g id="a_edge36_Node000001_Node000022"><a xlink:title=" ">
<path fill="none" stroke="#63b8ff" d="M495.5,-516.8C495.5,-492.65 495.5,-451.72 495.5,-425.55"/>
<polygon fill="#63b8ff" stroke="#63b8ff" points="499,-425.33 495.5,-415.33 492,-425.33 499,-425.33"/>
</a>
</g>
</g>
<!-- Node23 -->
<g id="Node000023" class="node">
<title>Node23</title>
<g id="a_Node000023"><a xlink:href="move_8h.html" target="_top" xlink:title=" ">
<polygon fill="white" stroke="#666666" points="467,-481 358,-481 358,-451 467,-451 467,-481"/>
<text text-anchor="start" x="366" y="-469" font-family="Helvetica,sans-Serif" font-size="10.00">tic_tac_toe/models</text>
<text text-anchor="middle" x="412.5" y="-458" font-family="Helvetica,sans-Serif" font-size="10.00">/move.h</text>
</a>
</g>
</g>
<!-- Node1&#45;&gt;Node23 -->
<g id="edge40_Node000001_Node000023" class="edge">
<title>Node1&#45;&gt;Node23</title>
<g id="a_edge40_Node000001_Node000023"><a xlink:title=" ">
<path fill="none" stroke="#63b8ff" d="M471.94,-516.77C461.09,-507.69 448.22,-496.91 437.23,-487.71"/>
<polygon fill="#63b8ff" stroke="#63b8ff" points="439.18,-484.77 429.27,-481.04 434.69,-490.14 439.18,-484.77"/>
</a>
</g>
</g>
<!-- Node26 -->
<g id="Node000026" class="node">
<title>Node26</title>
<g id="a_Node000026"><a xlink:href="random__rollout__strategy_8h.html" target="_top" xlink:title=" ">
<polygon fill="white" stroke="#666666" points="1020,-481 873,-481 873,-451 1020,-451 1020,-481"/>
<text text-anchor="start" x="881" y="-469" font-family="Helvetica,sans-Serif" font-size="10.00">monte_carlo/models</text>
<text text-anchor="middle" x="946.5" y="-458" font-family="Helvetica,sans-Serif" font-size="10.00">/random_rollout_strategy.h</text>
</a>
</g>
</g>
<!-- Node1&#45;&gt;Node26 -->
<g id="edge53_Node000001_Node000026" class="edge">
<title>Node1&#45;&gt;Node26</title>
<g id="a_edge53_Node000001_Node000026"><a xlink:title=" ">
<path fill="none" stroke="#63b8ff" d="M563.76,-526.19C636.74,-515.14 755.82,-497.02 858.5,-481 859.79,-480.8 861.09,-480.6 862.4,-480.39"/>
<polygon fill="#63b8ff" stroke="#63b8ff" points="863.23,-483.8 872.56,-478.8 862.14,-476.89 863.23,-483.8"/>
</a>
</g>
</g>
<!-- Node3 -->
<g id="Node000003" class="node">
<title>Node3</title>
<g id="a_Node000003"><a xlink:href="game__state_8h.html" target="_top" xlink:title=" ">
<polygon fill="white" stroke="#666666" points="346,-349 237,-349 237,-319 346,-319 346,-349"/>
<text text-anchor="start" x="245" y="-337" font-family="Helvetica,sans-Serif" font-size="10.00">tic_tac_toe/models</text>
<text text-anchor="middle" x="291.5" y="-326" font-family="Helvetica,sans-Serif" font-size="10.00">/game_state.h</text>
</a>
</g>
</g>
<!-- Node2&#45;&gt;Node3 -->
<g id="edge2_Node000002_Node000003" class="edge">
<title>Node2&#45;&gt;Node3</title>
<g id="a_edge2_Node000002_Node000003"><a xlink:title=" ">
<path fill="none" stroke="#63b8ff" d="M287.61,-384.8C288.19,-377.34 288.92,-367.99 289.59,-359.41"/>
<polygon fill="#63b8ff" stroke="#63b8ff" points="293.1,-359.41 290.39,-349.16 286.13,-358.86 293.1,-359.41"/>
</a>
</g>
</g>
<!-- Node8 -->
<g id="Node000008" class="node">
<title>Node8</title>
<g id="a_Node000008"><a xlink:href="position_8h.html" target="_top" xlink:title=" ">
<polygon fill="white" stroke="#666666" points="156,-151 47,-151 47,-121 156,-121 156,-151"/>
<text text-anchor="start" x="55" y="-139" font-family="Helvetica,sans-Serif" font-size="10.00">tic_tac_toe/models</text>
<text text-anchor="middle" x="101.5" y="-128" font-family="Helvetica,sans-Serif" font-size="10.00">/position.h</text>
</a>
</g>
</g>
<!-- Node2&#45;&gt;Node8 -->
<g id="edge18_Node000002_Node000008" class="edge">
<title>Node2&#45;&gt;Node8</title>
<g id="a_edge18_Node000002_Node000008"><a xlink:title=" ">
<path fill="none" stroke="#63b8ff" d="M265.63,-384.95C227.2,-357.75 146.02,-293.76 111.5,-217 103.66,-199.58 101.34,-177.99 100.88,-161.63"/>
<polygon fill="#63b8ff" stroke="#63b8ff" points="104.38,-161.24 100.81,-151.26 97.38,-161.28 104.38,-161.24"/>
</a>
</g>
</g>
<!-- Node14 -->
<g id="Node000014" class="node">
<title>Node14</title>
<g id="a_Node000014"><a xlink:href="tree__factory__interface_8h.html" target="_top" xlink:title=" ">
<polygon fill="white" stroke="#666666" points="600,-283 463,-283 463,-253 600,-253 600,-283"/>
<text text-anchor="start" x="471" y="-271" font-family="Helvetica,sans-Serif" font-size="10.00">monte_carlo/factories</text>
<text text-anchor="middle" x="531.5" y="-260" font-family="Helvetica,sans-Serif" font-size="10.00">/tree_factory_interface.h</text>
</a>
</g>
</g>
<!-- Node2&#45;&gt;Node14 -->
<g id="edge19_Node000002_Node000014" class="edge">
<title>Node2&#45;&gt;Node14</title>
<g id="a_edge19_Node000002_Node000014"><a xlink:title=" ">
<path fill="none" stroke="#63b8ff" d="M305.79,-384.8C335.19,-363.24 388.8,-324.17 398.5,-319 422.9,-305.99 451.44,-294.78 475.81,-286.3"/>
<polygon fill="#63b8ff" stroke="#63b8ff" points="476.95,-289.61 485.28,-283.06 474.68,-282.98 476.95,-289.61"/>
</a>
</g>
</g>
<!-- Node15 -->
<g id="Node000015" class="node">
<title>Node15</title>
<g id="a_Node000015"><a xlink:href="node__base_8h.html" target="_top" xlink:title=" ">
<polygon fill="white" stroke="#666666" points="594.5,-349 478.5,-349 478.5,-319 594.5,-319 594.5,-349"/>
<text text-anchor="start" x="486.5" y="-337" font-family="Helvetica,sans-Serif" font-size="10.00">monte_carlo/models</text>
<text text-anchor="middle" x="536.5" y="-326" font-family="Helvetica,sans-Serif" font-size="10.00">/node_base.h</text>
</a>
</g>
</g>
<!-- Node2&#45;&gt;Node15 -->
<g id="edge22_Node000002_Node000015" class="edge">
<title>Node2&#45;&gt;Node15</title>
<g id="a_edge22_Node000002_Node000015"><a xlink:title=" ">
<path fill="none" stroke="#63b8ff" d="M341.36,-384.95C379.87,-375.1 431.51,-361.88 471.99,-351.51"/>
<polygon fill="#63b8ff" stroke="#63b8ff" points="472.94,-354.88 481.76,-349.01 471.21,-348.1 472.94,-354.88"/>
</a>
</g>
</g>
<!-- Node4 -->
<g id="Node000004" class="node">
<title>Node4</title>
<g id="a_Node000004"><a xlink:title=" ">
<polygon fill="#e0e0e0" stroke="#999999" points="647.5,-79.5 589.5,-79.5 589.5,-60.5 647.5,-60.5 647.5,-79.5"/>
<text text-anchor="middle" x="618.5" y="-67.5" font-family="Helvetica,sans-Serif" font-size="10.00">memory</text>
</a>
</g>
</g>
<!-- Node3&#45;&gt;Node4 -->
<g id="edge3_Node000003_Node000004" class="edge">
<title>Node3&#45;&gt;Node4</title>
<g id="a_edge3_Node000003_Node000004"><a xlink:title=" ">
<path fill="none" stroke="#63b8ff" d="M320.1,-318.79C338.76,-309.24 363.47,-296.05 384.5,-283 427.57,-256.28 439.06,-250.04 477.5,-217 527.63,-173.91 580,-115.57 604.42,-87.47"/>
<polygon fill="#63b8ff" stroke="#63b8ff" points="607.18,-89.63 611.06,-79.77 601.88,-85.06 607.18,-89.63"/>
</a>
</g>
</g>
<!-- Node5 -->
<g id="Node000005" class="node">
<title>Node5</title>
<g id="a_Node000005"><a xlink:href="board_8h.html" target="_top" xlink:title=" ">
<polygon fill="white" stroke="#666666" points="376,-283 267,-283 267,-253 376,-253 376,-283"/>
<text text-anchor="start" x="275" y="-271" font-family="Helvetica,sans-Serif" font-size="10.00">tic_tac_toe/models</text>
<text text-anchor="middle" x="321.5" y="-260" font-family="Helvetica,sans-Serif" font-size="10.00">/board.h</text>
</a>
</g>
</g>
<!-- Node3&#45;&gt;Node5 -->
<g id="edge4_Node000003_Node000005" class="edge">
<title>Node3&#45;&gt;Node5</title>
<g id="a_edge4_Node000003_Node000005"><a xlink:title=" ">
<path fill="none" stroke="#63b8ff" d="M298.16,-318.8C301.81,-311.01 306.43,-301.16 310.59,-292.28"/>
<polygon fill="#63b8ff" stroke="#63b8ff" points="313.79,-293.7 314.86,-283.16 307.45,-290.73 313.79,-293.7"/>
</a>
</g>
</g>
<!-- Node5&#45;&gt;Node4 -->
<g id="edge17_Node000005_Node000004" class="edge">
<title>Node5&#45;&gt;Node4</title>
<g id="a_edge17_Node000005_Node000004"><a xlink:title=" ">
<path fill="none" stroke="#63b8ff" d="M373.14,-252.91C397.15,-244.81 425.25,-233.02 447.5,-217 492.81,-184.39 485.39,-156.47 528.5,-121 546.95,-105.82 570.68,-92.85 589.14,-83.94"/>
<polygon fill="#63b8ff" stroke="#63b8ff" points="590.69,-87.07 598.25,-79.65 587.71,-80.74 590.69,-87.07"/>
</a>
</g>
</g>
<!-- Node6 -->
<g id="Node000006" class="node">
<title>Node6</title>
<g id="a_Node000006"><a xlink:title=" ">
<polygon fill="#e0e0e0" stroke="#999999" points="770,-145.5 723,-145.5 723,-126.5 770,-126.5 770,-145.5"/>
<text text-anchor="middle" x="746.5" y="-133.5" font-family="Helvetica,sans-Serif" font-size="10.00">vector</text>
</a>
</g>
</g>
<!-- Node5&#45;&gt;Node6 -->
<g id="edge5_Node000005_Node000006" class="edge">
<title>Node5&#45;&gt;Node6</title>
<g id="a_edge5_Node000005_Node000006"><a xlink:title=" ">
<path fill="none" stroke="#63b8ff" d="M367.39,-252.96C453.49,-226.63 637.38,-170.38 712.98,-147.25"/>
<polygon fill="#63b8ff" stroke="#63b8ff" points="714.37,-150.49 722.91,-144.22 712.32,-143.79 714.37,-150.49"/>
</a>
</g>
</g>
<!-- Node7 -->
<g id="Node000007" class="node">
<title>Node7</title>
<g id="a_Node000007"><a xlink:href="player_8h.html" target="_top" xlink:title=" ">
<polygon fill="white" stroke="#666666" points="254,-217 145,-217 145,-187 254,-187 254,-217"/>
<text text-anchor="start" x="153" y="-205" font-family="Helvetica,sans-Serif" font-size="10.00">tic_tac_toe/models</text>
<text text-anchor="middle" x="199.5" y="-194" font-family="Helvetica,sans-Serif" font-size="10.00">/player.h</text>
</a>
</g>
</g>
<!-- Node5&#45;&gt;Node7 -->
<g id="edge6_Node000005_Node000007" class="edge">
<title>Node5&#45;&gt;Node7</title>
<g id="a_edge6_Node000005_Node000007"><a xlink:title=" ">
<path fill="none" stroke="#63b8ff" d="M294.73,-252.95C277.25,-243.78 254.22,-231.71 235.19,-221.72"/>
<polygon fill="#63b8ff" stroke="#63b8ff" points="236.69,-218.56 226.21,-217.01 233.44,-224.76 236.69,-218.56"/>
</a>
</g>
</g>
<!-- Node5&#45;&gt;Node8 -->
<g id="edge15_Node000005_Node000008" class="edge">
<title>Node5&#45;&gt;Node8</title>
<g id="a_edge15_Node000005_Node000008"><a xlink:title=" ">
<path fill="none" stroke="#63b8ff" d="M266.71,-264.81C226.14,-260.47 171.83,-248.6 135.5,-217 119.01,-202.66 110.3,-178.96 105.84,-161.06"/>
<polygon fill="#63b8ff" stroke="#63b8ff" points="109.21,-160.07 103.63,-151.06 102.37,-161.58 109.21,-160.07"/>
</a>
</g>
</g>
<!-- Node13 -->
<g id="Node000013" class="node">
<title>Node13</title>
<g id="a_Node000013"><a xlink:href="alignment_8h.html" target="_top" xlink:title=" ">
<polygon fill="white" stroke="#666666" points="439,-211.5 272,-211.5 272,-192.5 439,-192.5 439,-211.5"/>
<text text-anchor="middle" x="355.5" y="-199.5" font-family="Helvetica,sans-Serif" font-size="10.00">tic_tac_toe/enums/alignment.h</text>
</a>
</g>
</g>
<!-- Node5&#45;&gt;Node13 -->
<g id="edge16_Node000005_Node000013" class="edge">
<title>Node5&#45;&gt;Node13</title>
<g id="a_edge16_Node000005_Node000013"><a xlink:title=" ">
<path fill="none" stroke="#63b8ff" d="M329.05,-252.8C334.03,-243.41 340.62,-231.02 345.97,-220.95"/>
<polygon fill="#63b8ff" stroke="#63b8ff" points="349.2,-222.32 350.8,-211.84 343.02,-219.03 349.2,-222.32"/>
</a>
</g>
</g>
<!-- Node7&#45;&gt;Node4 -->
<g id="edge7_Node000007_Node000004" class="edge">
<title>Node7&#45;&gt;Node4</title>
<g id="a_edge7_Node000007_Node000004"><a xlink:title=" ">
<path fill="none" stroke="#63b8ff" d="M243.32,-186.94C293.72,-170.82 378.99,-143.69 452.5,-121 496.03,-107.56 546.1,-92.54 579.78,-82.5"/>
<polygon fill="#63b8ff" stroke="#63b8ff" points="581.09,-85.76 589.67,-79.55 579.09,-79.05 581.09,-85.76"/>
</a>
</g>
</g>
<!-- Node7&#45;&gt;Node8 -->
<g id="edge8_Node000007_Node000008" class="edge">
<title>Node7&#45;&gt;Node8</title>
<g id="a_edge8_Node000007_Node000008"><a xlink:title=" ">
<path fill="none" stroke="#63b8ff" d="M177.75,-186.8C164.17,-177.93 146.51,-166.39 131.6,-156.66"/>
<polygon fill="#63b8ff" stroke="#63b8ff" points="133.48,-153.7 123.19,-151.16 129.65,-159.56 133.48,-153.7"/>
</a>
</g>
</g>
<!-- Node10 -->
<g id="Node000010" class="node">
<title>Node10</title>
<g id="a_Node000010"><a xlink:href="symbol_8h.html" target="_top" xlink:title=" ">
<polygon fill="white" stroke="#666666" points="256.5,-79.5 102.5,-79.5 102.5,-60.5 256.5,-60.5 256.5,-79.5"/>
<text text-anchor="middle" x="179.5" y="-67.5" font-family="Helvetica,sans-Serif" font-size="10.00">tic_tac_toe/enums/symbol.h</text>
</a>
</g>
</g>
<!-- Node7&#45;&gt;Node10 -->
<g id="edge12_Node000007_Node000010" class="edge">
<title>Node7&#45;&gt;Node10</title>
<g id="a_edge12_Node000007_Node000010"><a xlink:title=" ">
<path fill="none" stroke="#63b8ff" d="M197.32,-186.84C193.71,-163.34 186.46,-116.26 182.41,-89.93"/>
<polygon fill="#63b8ff" stroke="#63b8ff" points="185.83,-89.1 180.85,-79.75 178.91,-90.16 185.83,-89.1"/>
</a>
</g>
</g>
<!-- Node12 -->
<g id="Node000012" class="node">
<title>Node12</title>
<g id="a_Node000012"><a xlink:href="observer_8h.html" target="_top" xlink:title=" ">
<polygon fill="white" stroke="#666666" points="390.5,-85 274.5,-85 274.5,-55 390.5,-55 390.5,-85"/>
<text text-anchor="start" x="282.5" y="-73" font-family="Helvetica,sans-Serif" font-size="10.00">tic_tac_toe/observer</text>
<text text-anchor="middle" x="332.5" y="-62" font-family="Helvetica,sans-Serif" font-size="10.00">/observer.h</text>
</a>
</g>
</g>
<!-- Node7&#45;&gt;Node12 -->
<g id="edge13_Node000007_Node000012" class="edge">
<title>Node7&#45;&gt;Node12</title>
<g id="a_edge13_Node000007_Node000012"><a xlink:title=" ">
<path fill="none" stroke="#63b8ff" d="M213.99,-186.84C237.37,-163.98 283.57,-118.82 310.87,-92.14"/>
<polygon fill="#63b8ff" stroke="#63b8ff" points="313.33,-94.64 318.03,-85.14 308.43,-89.63 313.33,-94.64"/>
</a>
</g>
</g>
<!-- Node8&#45;&gt;Node9 -->
<g id="edge9_Node000008_Node000009" class="edge">
<title>Node8&#45;&gt;Node9</title>
<g id="a_edge9_Node000008_Node000009"><a xlink:title=" ">
<path fill="none" stroke="#63b8ff" d="M83.97,-120.8C71.29,-110.53 54.18,-96.67 41.24,-86.18"/>
<polygon fill="#63b8ff" stroke="#63b8ff" points="43.39,-83.42 33.42,-79.84 38.98,-88.86 43.39,-83.42"/>
</a>
</g>
</g>
<!-- Node8&#45;&gt;Node10 -->
<g id="edge10_Node000008_Node000010" class="edge">
<title>Node8&#45;&gt;Node10</title>
<g id="a_edge10_Node000008_Node000010"><a xlink:title=" ">
<path fill="none" stroke="#63b8ff" d="M118.81,-120.8C131.21,-110.62 147.9,-96.93 160.63,-86.48"/>
<polygon fill="#63b8ff" stroke="#63b8ff" points="163.21,-88.89 168.72,-79.84 158.77,-83.48 163.21,-88.89"/>
</a>
</g>
</g>
<!-- Node11 -->
<g id="Node000011" class="node">
<title>Node11</title>
<g id="a_Node000011"><a xlink:title=" ">
<polygon fill="#e0e0e0" stroke="#999999" points="354.5,-19 310.5,-19 310.5,0 354.5,0 354.5,-19"/>
<text text-anchor="middle" x="332.5" y="-7" font-family="Helvetica,sans-Serif" font-size="10.00">string</text>
</a>
</g>
</g>
<!-- Node10&#45;&gt;Node11 -->
<g id="edge11_Node000010_Node000011" class="edge">
<title>Node10&#45;&gt;Node11</title>
<g id="a_edge11_Node000010_Node000011"><a xlink:title=" ">
<path fill="none" stroke="#63b8ff" d="M201.75,-60.49C227.81,-50.53 271.18,-33.95 300.77,-22.63"/>
<polygon fill="#63b8ff" stroke="#63b8ff" points="302.14,-25.86 310.23,-19.02 299.64,-19.32 302.14,-25.86"/>
</a>
</g>
</g>
<!-- Node12&#45;&gt;Node11 -->
<g id="edge14_Node000012_Node000011" class="edge">
<title>Node12&#45;&gt;Node11</title>
<g id="a_edge14_Node000012_Node000011"><a xlink:title=" ">
<path fill="none" stroke="#63b8ff" d="M332.5,-54.84C332.5,-47.21 332.5,-37.7 332.5,-29.45"/>
<polygon fill="#63b8ff" stroke="#63b8ff" points="336,-29.27 332.5,-19.27 329,-29.27 336,-29.27"/>
</a>
</g>
</g>
<!-- Node14&#45;&gt;Node4 -->
<g id="edge20_Node000014_Node000004" class="edge">
<title>Node14&#45;&gt;Node4</title>
<g id="a_edge20_Node000014_Node000004"><a xlink:title=" ">
<path fill="none" stroke="#63b8ff" d="M538.96,-252.67C544.06,-242.74 550.88,-229.16 556.5,-217 577.5,-171.53 599.95,-116.99 611.19,-89.2"/>
<polygon fill="#63b8ff" stroke="#63b8ff" points="614.56,-90.22 615.05,-79.64 608.07,-87.6 614.56,-90.22"/>
</a>
</g>
</g>
<!-- Node14&#45;&gt;Node11 -->
<g id="edge21_Node000014_Node000011" class="edge">
<title>Node14&#45;&gt;Node11</title>
<g id="a_edge21_Node000014_Node000011"><a xlink:title=" ">
<path fill="none" stroke="#63b8ff" d="M525.36,-252.97C509.05,-216.83 461.57,-118.92 399.5,-55 387.49,-42.63 371.47,-31.84 358.11,-23.98"/>
<polygon fill="#63b8ff" stroke="#63b8ff" points="359.79,-20.91 349.37,-19.03 356.34,-27 359.79,-20.91"/>
</a>
</g>
</g>
<!-- Node15&#45;&gt;Node14 -->
<g id="edge34_Node000015_Node000014" class="edge">
<title>Node15&#45;&gt;Node14</title>
<g id="a_edge34_Node000015_Node000014"><a xlink:title=" ">
<path fill="none" stroke="#63b8ff" d="M535.39,-318.8C534.81,-311.34 534.08,-301.99 533.41,-293.41"/>
<polygon fill="#63b8ff" stroke="#63b8ff" points="536.87,-292.86 532.61,-283.16 529.9,-293.41 536.87,-292.86"/>
</a>
</g>
</g>
<!-- Node15&#45;&gt;Node16 -->
<g id="edge23_Node000015_Node000016" class="edge">
<title>Node15&#45;&gt;Node16</title>
<g id="a_edge23_Node000015_Node000016"><a xlink:title=" ">
<path fill="none" stroke="#63b8ff" d="M594.82,-321.04C647.45,-310.24 724.91,-294.35 780.38,-282.97"/>
<polygon fill="#63b8ff" stroke="#63b8ff" points="781.37,-286.34 790.47,-280.9 779.97,-279.49 781.37,-286.34"/>
</a>
</g>
</g>
<!-- Node21 -->
<g id="Node000021" class="node">
<title>Node21</title>
<g id="a_Node000021"><a xlink:title=" ">
<polygon fill="#e0e0e0" stroke="#999999" points="734.5,-283 618.5,-283 618.5,-253 734.5,-253 734.5,-283"/>
<text text-anchor="start" x="626.5" y="-271" font-family="Helvetica,sans-Serif" font-size="10.00">monte_carlo/models</text>
<text text-anchor="middle" x="676.5" y="-260" font-family="Helvetica,sans-Serif" font-size="10.00">/node_base.tpp</text>
</a>
</g>
</g>
<!-- Node15&#45;&gt;Node21 -->
<g id="edge35_Node000015_Node000021" class="edge">
<title>Node15&#45;&gt;Node21</title>
<g id="a_edge35_Node000015_Node000021"><a xlink:title=" ">
<path fill="none" stroke="#63b8ff" d="M567.22,-318.95C587.65,-309.62 614.67,-297.27 636.73,-287.18"/>
<polygon fill="#63b8ff" stroke="#63b8ff" points="638.21,-290.35 645.85,-283.01 635.3,-283.99 638.21,-290.35"/>
</a>
</g>
</g>
<!-- Node16&#45;&gt;Node4 -->
<g id="edge33_Node000016_Node000004" class="edge">
<title>Node16&#45;&gt;Node4</title>
<g id="a_edge33_Node000016_Node000004"><a xlink:title=" ">
<path fill="none" stroke="#63b8ff" d="M813.3,-252.92C793.96,-244.22 770.17,-231.88 751.5,-217 707.85,-182.2 708.67,-161.73 670.5,-121 659.28,-109.03 645.93,-96.22 635.57,-86.56"/>
<polygon fill="#63b8ff" stroke="#63b8ff" points="637.71,-83.78 627.99,-79.57 632.96,-88.92 637.71,-83.78"/>
</a>
</g>
</g>
<!-- Node16&#45;&gt;Node6 -->
<g id="edge32_Node000016_Node000006" class="edge">
<title>Node16&#45;&gt;Node6</title>
<g id="a_edge32_Node000016_Node000006"><a xlink:title=" ">
<path fill="none" stroke="#63b8ff" d="M815.19,-252.86C799.27,-244.55 781.18,-232.59 769.5,-217 755.92,-198.88 750.35,-172.98 748.07,-155.6"/>
<polygon fill="#63b8ff" stroke="#63b8ff" points="751.54,-155.15 746.99,-145.58 744.58,-155.9 751.54,-155.15"/>
</a>
</g>
</g>
<!-- Node17 -->
<g id="Node000017" class="node">
<title>Node17</title>
<g id="a_Node000017"><a xlink:href="rollout__strategy__interface_8h.html" target="_top" xlink:title=" ">
<polygon fill="white" stroke="#666666" points="934,-217 779,-217 779,-187 934,-187 934,-217"/>
<text text-anchor="start" x="787" y="-205" font-family="Helvetica,sans-Serif" font-size="10.00">monte_carlo/models</text>
<text text-anchor="middle" x="856.5" y="-194" font-family="Helvetica,sans-Serif" font-size="10.00">/rollout_strategy_interface.h</text>
</a>
</g>
</g>
<!-- Node16&#45;&gt;Node17 -->
<g id="edge24_Node000016_Node000017" class="edge">
<title>Node16&#45;&gt;Node17</title>
<g id="a_edge24_Node000016_Node000017"><a xlink:title=" ">
<path fill="none" stroke="#63b8ff" d="M850.28,-252.8C851.22,-245.26 852.4,-235.78 853.48,-227.13"/>
<polygon fill="#63b8ff" stroke="#63b8ff" points="856.96,-227.52 854.73,-217.16 850.02,-226.65 856.96,-227.52"/>
</a>
</g>
</g>
<!-- Node17&#45;&gt;Node4 -->
<g id="edge29_Node000017_Node000004" class="edge">
<title>Node17&#45;&gt;Node4</title>
<g id="a_edge29_Node000017_Node000004"><a xlink:title=" ">
<path fill="none" stroke="#63b8ff" d="M846.24,-186.76C832.67,-168.92 807.1,-138.55 778.5,-121 740.85,-97.89 691.59,-84.61 657.73,-77.62"/>
<polygon fill="#63b8ff" stroke="#63b8ff" points="658.24,-74.15 647.75,-75.65 656.88,-81.02 658.24,-74.15"/>
</a>
</g>
</g>
<!-- Node17&#45;&gt;Node6 -->
<g id="edge31_Node000017_Node000006" class="edge">
<title>Node17&#45;&gt;Node6</title>
<g id="a_edge31_Node000017_Node000006"><a xlink:title=" ">
<path fill="none" stroke="#63b8ff" d="M832.36,-186.95C813.83,-176.18 788.4,-161.38 770.03,-150.69"/>
<polygon fill="#63b8ff" stroke="#63b8ff" points="771.54,-147.52 761.14,-145.52 768.02,-153.57 771.54,-147.52"/>
</a>
</g>
</g>
<!-- Node17&#45;&gt;Node18 -->
<g id="edge25_Node000017_Node000018" class="edge">
<title>Node17&#45;&gt;Node18</title>
<g id="a_edge25_Node000017_Node000018"><a xlink:title=" ">
<path fill="none" stroke="#63b8ff" d="M888.1,-186.95C909.11,-177.62 936.9,-165.27 959.59,-155.18"/>
<polygon fill="#63b8ff" stroke="#63b8ff" points="961.26,-158.27 968.97,-151.01 958.41,-151.88 961.26,-158.27"/>
</a>
</g>
</g>
<!-- Node19 -->
<g id="Node000019" class="node">
<title>Node19</title>
<g id="a_Node000019"><a xlink:title=" ">
<polygon fill="#e0e0e0" stroke="#999999" points="1029,-79.5 972,-79.5 972,-60.5 1029,-60.5 1029,-79.5"/>
<text text-anchor="middle" x="1000.5" y="-67.5" font-family="Helvetica,sans-Serif" font-size="10.00">ostream</text>
</a>
</g>
</g>
<!-- Node17&#45;&gt;Node19 -->
<g id="edge30_Node000017_Node000019" class="edge">
<title>Node17&#45;&gt;Node19</title>
<g id="a_edge30_Node000017_Node000019"><a xlink:title=" ">
<path fill="none" stroke="#63b8ff" d="M868.93,-186.73C883.64,-170.18 909.21,-142.42 933.5,-121 948.14,-108.08 965.9,-94.93 979.45,-85.36"/>
<polygon fill="#63b8ff" stroke="#63b8ff" points="981.48,-88.22 987.68,-79.63 977.47,-82.48 981.48,-88.22"/>
</a>
</g>
</g>
<!-- Node20 -->
<g id="Node000020" class="node">
<title>Node20</title>
<g id="a_Node000020"><a xlink:title=" ">
<polygon fill="#e0e0e0" stroke="#999999" points="886.5,-145.5 826.5,-145.5 826.5,-126.5 886.5,-126.5 886.5,-145.5"/>
<text text-anchor="middle" x="856.5" y="-133.5" font-family="Helvetica,sans-Serif" font-size="10.00">iostream</text>
</a>
</g>
</g>
<!-- Node17&#45;&gt;Node20 -->
<g id="edge28_Node000017_Node000020" class="edge">
<title>Node17&#45;&gt;Node20</title>
<g id="a_edge28_Node000017_Node000020"><a xlink:title=" ">
<path fill="none" stroke="#63b8ff" d="M856.5,-186.8C856.5,-177.7 856.5,-165.79 856.5,-155.9"/>
<polygon fill="#63b8ff" stroke="#63b8ff" points="860,-155.84 856.5,-145.84 853,-155.84 860,-155.84"/>
</a>
</g>
</g>
<!-- Node18&#45;&gt;Node4 -->
<g id="edge26_Node000018_Node000004" class="edge">
<title>Node18&#45;&gt;Node4</title>
<g id="a_edge26_Node000018_Node000004"><a xlink:title=" ">
<path fill="none" stroke="#63b8ff" d="M942.48,-125.28C863.83,-112.1 725.45,-88.92 657.87,-77.6"/>
<polygon fill="#63b8ff" stroke="#63b8ff" points="658.09,-74.08 647.65,-75.88 656.94,-80.99 658.09,-74.08"/>
</a>
</g>
</g>
<!-- Node18&#45;&gt;Node19 -->
<g id="edge27_Node000018_Node000019" class="edge">
<title>Node18&#45;&gt;Node19</title>
<g id="a_edge27_Node000018_Node000019"><a xlink:title=" ">
<path fill="none" stroke="#63b8ff" d="M1000.5,-120.8C1000.5,-111.7 1000.5,-99.79 1000.5,-89.9"/>
<polygon fill="#63b8ff" stroke="#63b8ff" points="1004,-89.84 1000.5,-79.84 997,-89.84 1004,-89.84"/>
</a>
</g>
</g>
<!-- Node22&#45;&gt;Node3 -->
<g id="edge39_Node000022_Node000003" class="edge">
<title>Node22&#45;&gt;Node3</title>
<g id="a_edge39_Node000022_Node000003"><a xlink:title=" ">
<path fill="none" stroke="#63b8ff" d="M450.73,-384.95C419.91,-375.28 378.77,-362.38 346.03,-352.11"/>
<polygon fill="#63b8ff" stroke="#63b8ff" points="346.75,-348.67 336.16,-349.01 344.66,-355.35 346.75,-348.67"/>
</a>
</g>
</g>
<!-- Node22&#45;&gt;Node14 -->
<g id="edge38_Node000022_Node000014" class="edge">
<title>Node22&#45;&gt;Node14</title>
<g id="a_edge38_Node000022_Node000014"><a xlink:title=" ">
<path fill="none" stroke="#63b8ff" d="M484.64,-384.99C473.42,-368.67 458.92,-341.13 469.5,-319 475.29,-306.89 485.6,-296.78 496.17,-288.89"/>
<polygon fill="#63b8ff" stroke="#63b8ff" points="498.39,-291.61 504.63,-283.04 494.41,-285.85 498.39,-291.61"/>
</a>
</g>
</g>
<!-- Node22&#45;&gt;Node15 -->
<g id="edge37_Node000022_Node000015" class="edge">
<title>Node22&#45;&gt;Node15</title>
<g id="a_edge37_Node000022_Node000015"><a xlink:title=" ">
<path fill="none" stroke="#63b8ff" d="M504.6,-384.8C509.7,-376.84 516.17,-366.74 521.95,-357.71"/>
<polygon fill="#63b8ff" stroke="#63b8ff" points="524.98,-359.47 527.43,-349.16 519.08,-355.7 524.98,-359.47"/>
</a>
</g>
</g>
<!-- Node23&#45;&gt;Node3 -->
<g id="edge49_Node000023_Node000003" class="edge">
<title>Node23&#45;&gt;Node3</title>
<g id="a_edge49_Node000023_Node000003"><a xlink:title=" ">
<path fill="none" stroke="#63b8ff" d="M404.13,-450.78C393.88,-434.02 375.42,-405.82 355.5,-385 345.17,-374.2 332.42,-363.78 321.03,-355.26"/>
<polygon fill="#63b8ff" stroke="#63b8ff" points="322.79,-352.21 312.65,-349.15 318.67,-357.87 322.79,-352.21"/>
</a>
</g>
</g>
<!-- Node23&#45;&gt;Node8 -->
<g id="edge50_Node000023_Node000008" class="edge">
<title>Node23&#45;&gt;Node8</title>
<g id="a_edge50_Node000023_Node000008"><a xlink:title=" ">
<path fill="none" stroke="#63b8ff" d="M357.61,-457.5C254.13,-441.8 40.5,-401.36 40.5,-335 40.5,-335 40.5,-335 40.5,-267 40.5,-225.97 65.72,-183.96 83.72,-159.19"/>
<polygon fill="#63b8ff" stroke="#63b8ff" points="86.53,-161.28 89.74,-151.18 80.94,-157.07 86.53,-161.28"/>
</a>
</g>
</g>
<!-- Node23&#45;&gt;Node14 -->
<g id="edge48_Node000023_Node000014" class="edge">
<title>Node23&#45;&gt;Node14</title>
<g id="a_edge48_Node000023_Node000014"><a xlink:title=" ">
<path fill="none" stroke="#63b8ff" d="M413.99,-450.94C417.61,-422.89 429.19,-359.25 462.5,-319 472.22,-307.26 485.28,-296.88 497.43,-288.65"/>
<polygon fill="#63b8ff" stroke="#63b8ff" points="499.57,-291.44 506.06,-283.06 495.76,-285.57 499.57,-291.44"/>
</a>
</g>
</g>
<!-- Node24 -->
<g id="Node000024" class="node">
<title>Node24</title>
<g id="a_Node000024"><a xlink:href="action__base_8h.html" target="_top" xlink:title=" ">
<polygon fill="white" stroke="#666666" points="766.5,-415 650.5,-415 650.5,-385 766.5,-385 766.5,-415"/>
<text text-anchor="start" x="658.5" y="-403" font-family="Helvetica,sans-Serif" font-size="10.00">monte_carlo/models</text>
<text text-anchor="middle" x="708.5" y="-392" font-family="Helvetica,sans-Serif" font-size="10.00">/action_base.h</text>
</a>
</g>
</g>
<!-- Node23&#45;&gt;Node24 -->
<g id="edge41_Node000023_Node000024" class="edge">
<title>Node23&#45;&gt;Node24</title>
<g id="a_edge41_Node000023_Node000024"><a xlink:title=" ">
<path fill="none" stroke="#63b8ff" d="M467.14,-453.19C516.02,-442.62 587.87,-427.08 640.47,-415.71"/>
<polygon fill="#63b8ff" stroke="#63b8ff" points="641.35,-419.1 650.39,-413.56 639.87,-412.26 641.35,-419.1"/>
</a>
</g>
</g>
<!-- Node24&#45;&gt;Node4 -->
<g id="edge42_Node000024_Node000004" class="edge">
<title>Node24&#45;&gt;Node4</title>
<g id="a_edge42_Node000024_Node000004"><a xlink:title=" ">
<path fill="none" stroke="#63b8ff" d="M738.53,-384.84C752.48,-376.53 767.69,-364.57 775.5,-349 781.48,-337.08 778.48,-332 775.5,-319 768.2,-287.23 760.22,-280.99 743.5,-253 733.38,-236.06 729,-233.04 717.5,-217 696.51,-187.74 690.76,-180.77 670.5,-151 656.01,-129.71 639.94,-104.77 629.55,-88.47"/>
<polygon fill="#63b8ff" stroke="#63b8ff" points="632.46,-86.52 624.15,-79.96 626.56,-90.28 632.46,-86.52"/>
</a>
</g>
</g>
<!-- Node24&#45;&gt;Node14 -->
<g id="edge45_Node000024_Node000014" class="edge">
<title>Node24&#45;&gt;Node14</title>
<g id="a_edge45_Node000024_Node000014"><a xlink:title=" ">
<path fill="none" stroke="#63b8ff" d="M689.34,-384.91C675.88,-374.97 657.5,-361.28 641.5,-349 624.43,-335.9 620.79,-331.81 603.5,-319 589.79,-308.84 574.28,-297.99 561.17,-289"/>
<polygon fill="#63b8ff" stroke="#63b8ff" points="562.77,-285.85 552.53,-283.11 558.82,-291.64 562.77,-285.85"/>
</a>
</g>
</g>
<!-- Node24&#45;&gt;Node15 -->
<g id="edge46_Node000024_Node000015" class="edge">
<title>Node24&#45;&gt;Node15</title>
<g id="a_edge46_Node000024_Node000015"><a xlink:title=" ">
<path fill="none" stroke="#63b8ff" d="M670.75,-384.95C645.1,-375.41 610.98,-362.71 583.55,-352.51"/>
<polygon fill="#63b8ff" stroke="#63b8ff" points="584.75,-349.22 574.16,-349.01 582.31,-355.78 584.75,-349.22"/>
</a>
</g>
</g>
<!-- Node24&#45;&gt;Node18 -->
<g id="edge44_Node000024_Node000018" class="edge">
<title>Node24&#45;&gt;Node18</title>
<g id="a_edge44_Node000024_Node000018"><a xlink:title=" ">
<path fill="none" stroke="#63b8ff" d="M747.94,-384.87C793.14,-367.03 867.19,-332.56 915.5,-283 951.18,-246.39 977.68,-191.96 990.96,-160.94"/>
<polygon fill="#63b8ff" stroke="#63b8ff" points="994.33,-161.95 994.95,-151.37 987.87,-159.25 994.33,-161.95"/>
</a>
</g>
</g>
<!-- Node24&#45;&gt;Node19 -->
<g id="edge43_Node000024_Node000019" class="edge">
<title>Node24&#45;&gt;Node19</title>
<g id="a_edge43_Node000024_Node000019"><a xlink:title=" ">
<path fill="none" stroke="#63b8ff" d="M766.62,-385.94C796.68,-377.8 833.29,-365.66 863.5,-349 974.14,-287.98 1020.74,-268.38 1067.5,-151 1072.43,-138.61 1073.48,-132.92 1067.5,-121 1059.49,-105.04 1043.71,-92.87 1029.47,-84.53"/>
<polygon fill="#63b8ff" stroke="#63b8ff" points="1030.88,-81.32 1020.43,-79.61 1027.53,-87.47 1030.88,-81.32"/>
</a>
</g>
</g>
<!-- Node25 -->
<g id="Node000025" class="node">
<title>Node25</title>
<g id="a_Node000025"><a xlink:title=" ">
<polygon fill="#e0e0e0" stroke="#999999" points="766.5,-349 650.5,-349 650.5,-319 766.5,-319 766.5,-349"/>
<text text-anchor="start" x="658.5" y="-337" font-family="Helvetica,sans-Serif" font-size="10.00">monte_carlo/models</text>
<text text-anchor="middle" x="708.5" y="-326" font-family="Helvetica,sans-Serif" font-size="10.00">/action_base.tpp</text>
</a>
</g>
</g>
<!-- Node24&#45;&gt;Node25 -->
<g id="edge47_Node000024_Node000025" class="edge">
<title>Node24&#45;&gt;Node25</title>
<g id="a_edge47_Node000024_Node000025"><a xlink:title=" ">
<path fill="none" stroke="#63b8ff" d="M708.5,-384.8C708.5,-377.34 708.5,-367.99 708.5,-359.41"/>
<polygon fill="#63b8ff" stroke="#63b8ff" points="712,-359.16 708.5,-349.16 705,-359.16 712,-359.16"/>
</a>
</g>
</g>
<!-- Node26&#45;&gt;Node17 -->
<g id="edge54_Node000026_Node000017" class="edge">
<title>Node26&#45;&gt;Node17</title>
<g id="a_edge54_Node000026_Node000017"><a xlink:title=" ">
<path fill="none" stroke="#63b8ff" d="M947.72,-450.79C950.13,-415.05 952.4,-319.52 915.5,-253 909.02,-241.33 898.68,-231.18 888.45,-223.13"/>
<polygon fill="#63b8ff" stroke="#63b8ff" points="890.46,-220.27 880.34,-217.14 886.3,-225.9 890.46,-220.27"/>
</a>
</g>
</g>
</g>
</svg>
