<?xml version="1.0" encoding="UTF-8" standalone="no"?>
<!DOCTYPE svg PUBLIC "-//W3C//DTD SVG 1.1//EN"
 "http://www.w3.org/Graphics/SVG/1.1/DTD/svg11.dtd">
<!-- Generated by graphviz version 2.43.0 (0)
 -->
<!-- Title: include/monte_carlo/factories/tree_factory_interface.h Pages: 1 -->
<svg width="1351pt" height="357pt"
 viewBox="0.00 0.00 1350.50 357.00" xmlns="http://www.w3.org/2000/svg" xmlns:xlink="http://www.w3.org/1999/xlink">
<g id="graph0" class="graph" transform="scale(1 1) rotate(0) translate(4 353)">
<title>include/monte_carlo/factories/tree_factory_interface.h</title>
<!-- Node1 -->
<g id="Node000001" class="node">
<title>Node1</title>
<g id="a_Node000001"><a xlink:title=" ">
<polygon fill="#999999" stroke="#666666" points="980,-349 855,-349 855,-308 980,-308 980,-349"/>
<text text-anchor="start" x="863" y="-337" font-family="Helvetica,sans-Serif" font-size="10.00">include/monte_carlo</text>
<text text-anchor="start" x="863" y="-326" font-family="Helvetica,sans-Serif" font-size="10.00">/factories/tree_factory</text>
<text text-anchor="middle" x="917.5" y="-315" font-family="Helvetica,sans-Serif" font-size="10.00">_interface.h</text>
</a>
</g>
</g>
<!-- Node2 -->
<g id="Node000002" class="node">
<title>Node2</title>
<g id="a_Node000002"><a xlink:href="tic__tac__toe__factory_8h.html" target="_top" xlink:title=" ">
<polygon fill="white" stroke="#666666" points="606.5,-206 478.5,-206 478.5,-154 606.5,-154 606.5,-206"/>
<text text-anchor="start" x="486.5" y="-194" font-family="Helvetica,sans-Serif" font-size="10.00">examples/monte_carlo</text>
<text text-anchor="start" x="486.5" y="-183" font-family="Helvetica,sans-Serif" font-size="10.00">/tic_tac_toe/include</text>
<text text-anchor="start" x="486.5" y="-172" font-family="Helvetica,sans-Serif" font-size="10.00">/tic_tac_toe/factories</text>
<text text-anchor="middle" x="542.5" y="-161" font-family="Helvetica,sans-Serif" font-size="10.00">/tic_tac_toe_factory.h</text>
</a>
</g>
</g>
<!-- Node1&#45;&gt;Node2 -->
<g id="edge1_Node000001_Node000002" class="edge">
<title>Node1&#45;&gt;Node2</title>
<g id="a_edge1_Node000001_Node000002"><a xlink:title=" ">
<path fill="none" stroke="#63b8ff" d="M844.6,-315.67C799.15,-306.85 740.1,-292.71 690.5,-272 648.89,-254.63 605.4,-226.51 576.43,-206.12"/>
<polygon fill="#63b8ff" stroke="#63b8ff" points="844.19,-319.15 854.66,-317.58 845.49,-312.28 844.19,-319.15"/>
</a>
</g>
</g>
<!-- Node8 -->
<g id="Node000008" class="node">
<title>Node8</title>
<g id="a_Node000008"><a xlink:href="move_8h.html" target="_top" xlink:title=" ">
<polygon fill="white" stroke="#666666" points="819.5,-118 667.5,-118 667.5,-77 819.5,-77 819.5,-118"/>
<text text-anchor="start" x="675.5" y="-106" font-family="Helvetica,sans-Serif" font-size="10.00">examples/monte_carlo</text>
<text text-anchor="start" x="675.5" y="-95" font-family="Helvetica,sans-Serif" font-size="10.00">/tic_tac_toe/include</text>
<text text-anchor="middle" x="743.5" y="-84" font-family="Helvetica,sans-Serif" font-size="10.00">/tic_tac_toe/models/move.h</text>
</a>
</g>
</g>
<!-- Node1&#45;&gt;Node8 -->
<g id="edge7_Node000001_Node000008" class="edge">
<title>Node1&#45;&gt;Node8</title>
<g id="a_edge7_Node000001_Node000008"><a xlink:title=" ">
<path fill="none" stroke="#63b8ff" d="M845.21,-306.15C799.22,-288.01 744.49,-256.67 723.5,-206 711.44,-176.89 723.43,-140.33 733.35,-118.22"/>
<polygon fill="#63b8ff" stroke="#63b8ff" points="843.99,-309.43 854.58,-309.71 846.48,-302.88 843.99,-309.43"/>
</a>
</g>
</g>
<!-- Node9 -->
<g id="Node000009" class="node">
<title>Node9</title>
<g id="a_Node000009"><a xlink:href="move_8cpp.html" target="_top" xlink:title=" ">
<polygon fill="white" stroke="#666666" points="1102,-41 973,-41 973,0 1102,0 1102,-41"/>
<text text-anchor="start" x="981" y="-29" font-family="Helvetica,sans-Serif" font-size="10.00">examples/monte_carlo</text>
<text text-anchor="start" x="981" y="-18" font-family="Helvetica,sans-Serif" font-size="10.00">/tic_tac_toe/src/models</text>
<text text-anchor="middle" x="1037.5" y="-7" font-family="Helvetica,sans-Serif" font-size="10.00">/move.cpp</text>
</a>
</g>
</g>
<!-- Node1&#45;&gt;Node9 -->
<g id="edge14_Node000001_Node000009" class="edge">
<title>Node1&#45;&gt;Node9</title>
<g id="a_edge14_Node000001_Node000009"><a xlink:title=" ">
<path fill="none" stroke="#63b8ff" d="M967.48,-303.09C1027.5,-270.52 1124.67,-206.5 1161.5,-118 1168.5,-101.18 1171.41,-92.29 1161.5,-77 1148.1,-56.32 1124.97,-43.27 1102.3,-35.07"/>
<polygon fill="#63b8ff" stroke="#63b8ff" points="965.72,-300.07 958.55,-307.86 969.02,-306.24 965.72,-300.07"/>
</a>
</g>
</g>
<!-- Node10 -->
<g id="Node000010" class="node">
<title>Node10</title>
<g id="a_Node000010"><a xlink:href="state_8h.html" target="_top" xlink:title=" ">
<polygon fill="white" stroke="#666666" points="1026,-200.5 877,-200.5 877,-159.5 1026,-159.5 1026,-200.5"/>
<text text-anchor="start" x="885" y="-188.5" font-family="Helvetica,sans-Serif" font-size="10.00">examples/monte_carlo</text>
<text text-anchor="start" x="885" y="-177.5" font-family="Helvetica,sans-Serif" font-size="10.00">/tic_tac_toe/include</text>
<text text-anchor="middle" x="951.5" y="-166.5" font-family="Helvetica,sans-Serif" font-size="10.00">/tic_tac_toe/models/state.h</text>
</a>
</g>
</g>
<!-- Node1&#45;&gt;Node10 -->
<g id="edge10_Node000001_Node000010" class="edge">
<title>Node1&#45;&gt;Node10</title>
<g id="a_edge10_Node000001_Node000010"><a xlink:title=" ">
<path fill="none" stroke="#63b8ff" d="M932.58,-298.75C936.4,-290.33 940.1,-280.98 942.5,-272 948.89,-248.07 950.83,-219.51 951.38,-200.86"/>
<polygon fill="#63b8ff" stroke="#63b8ff" points="929.42,-297.25 928.27,-307.78 935.74,-300.26 929.42,-297.25"/>
</a>
</g>
</g>
<!-- Node12 -->
<g id="Node000012" class="node">
<title>Node12</title>
<g id="a_Node000012"><a xlink:href="state_8cpp.html" target="_top" xlink:title=" ">
<polygon fill="white" stroke="#666666" points="1152,-118 1023,-118 1023,-77 1152,-77 1152,-118"/>
<text text-anchor="start" x="1031" y="-106" font-family="Helvetica,sans-Serif" font-size="10.00">examples/monte_carlo</text>
<text text-anchor="start" x="1031" y="-95" font-family="Helvetica,sans-Serif" font-size="10.00">/tic_tac_toe/src/models</text>
<text text-anchor="middle" x="1087.5" y="-84" font-family="Helvetica,sans-Serif" font-size="10.00">/state.cpp</text>
</a>
</g>
</g>
<!-- Node1&#45;&gt;Node12 -->
<g id="edge15_Node000001_Node000012" class="edge">
<title>Node1&#45;&gt;Node12</title>
<g id="a_edge15_Node000001_Node000012"><a xlink:title=" ">
<path fill="none" stroke="#63b8ff" d="M947.86,-300.95C973.22,-277.69 1009.18,-242.05 1034.5,-206 1054.47,-177.56 1070.94,-140.48 1079.98,-118.13"/>
<polygon fill="#63b8ff" stroke="#63b8ff" points="945.41,-298.45 940.36,-307.76 950.11,-303.63 945.41,-298.45"/>
</a>
</g>
</g>
<!-- Node13 -->
<g id="Node000013" class="node">
<title>Node13</title>
<g id="a_Node000013"><a xlink:href="action__base_8h.html" target="_top" xlink:title=" ">
<polygon fill="white" stroke="#666666" points="858.5,-195 732.5,-195 732.5,-165 858.5,-165 858.5,-195"/>
<text text-anchor="start" x="740.5" y="-183" font-family="Helvetica,sans-Serif" font-size="10.00">include/monte_carlo</text>
<text text-anchor="middle" x="795.5" y="-172" font-family="Helvetica,sans-Serif" font-size="10.00">/models/action_base.h</text>
</a>
</g>
</g>
<!-- Node1&#45;&gt;Node13 -->
<g id="edge16_Node000001_Node000013" class="edge">
<title>Node1&#45;&gt;Node13</title>
<g id="a_edge16_Node000001_Node000013"><a xlink:title=" ">
<path fill="none" stroke="#63b8ff" d="M845.47,-305.57C829.64,-297.47 814.6,-286.56 804.5,-272 788.49,-248.91 790.31,-214.25 792.97,-195.05"/>
<polygon fill="#63b8ff" stroke="#63b8ff" points="844.32,-308.9 854.86,-310.03 847.33,-302.58 844.32,-308.9"/>
</a>
</g>
</g>
<!-- Node14 -->
<g id="Node000014" class="node">
<title>Node14</title>
<g id="a_Node000014"><a xlink:href="node__base_8h.html" target="_top" xlink:title=" ">
<polygon fill="white" stroke="#666666" points="933.5,-272 813.5,-272 813.5,-242 933.5,-242 933.5,-272"/>
<text text-anchor="start" x="821.5" y="-260" font-family="Helvetica,sans-Serif" font-size="10.00">include/monte_carlo</text>
<text text-anchor="middle" x="873.5" y="-249" font-family="Helvetica,sans-Serif" font-size="10.00">/models/node_base.h</text>
</a>
</g>
</g>
<!-- Node1&#45;&gt;Node14 -->
<g id="edge18_Node000001_Node000014" class="edge">
<title>Node1&#45;&gt;Node14</title>
<g id="a_edge18_Node000001_Node000014"><a xlink:title=" ">
<path fill="none" stroke="#63b8ff" d="M899.53,-299.11C893.62,-289.78 887.31,-279.82 882.39,-272.04"/>
<polygon fill="#63b8ff" stroke="#63b8ff" points="896.7,-301.19 905.01,-307.77 902.62,-297.45 896.7,-301.19"/>
</a>
</g>
</g>
<!-- Node15 -->
<g id="Node000015" class="node">
<title>Node15</title>
<g id="a_Node000015"><a xlink:href="node_8cpp.html" target="_top" xlink:title=" ">
<polygon fill="white" stroke="#666666" points="1342.5,-272 1208.5,-272 1208.5,-242 1342.5,-242 1342.5,-272"/>
<text text-anchor="start" x="1216.5" y="-260" font-family="Helvetica,sans-Serif" font-size="10.00">src/monte_carlo/models</text>
<text text-anchor="middle" x="1275.5" y="-249" font-family="Helvetica,sans-Serif" font-size="10.00">/node.cpp</text>
</a>
</g>
</g>
<!-- Node1&#45;&gt;Node15 -->
<g id="edge22_Node000001_Node000015" class="edge">
<title>Node1&#45;&gt;Node15</title>
<g id="a_edge22_Node000001_Node000015"><a xlink:title=" ">
<path fill="none" stroke="#63b8ff" d="M990.26,-313.38C1054.07,-300.99 1146.11,-283.12 1208.24,-271.06"/>
<polygon fill="#63b8ff" stroke="#63b8ff" points="989.42,-309.97 980.27,-315.31 990.75,-316.84 989.42,-309.97"/>
</a>
</g>
</g>
<!-- Node3 -->
<g id="Node000003" class="node">
<title>Node3</title>
<g id="a_Node000003"><a xlink:href="tic__tac__toe__factory_8cpp.html" target="_top" xlink:title=" ">
<polygon fill="white" stroke="#666666" points="811.5,-41 675.5,-41 675.5,0 811.5,0 811.5,-41"/>
<text text-anchor="start" x="683.5" y="-29" font-family="Helvetica,sans-Serif" font-size="10.00">examples/monte_carlo</text>
<text text-anchor="start" x="683.5" y="-18" font-family="Helvetica,sans-Serif" font-size="10.00">/tic_tac_toe/src/factories</text>
<text text-anchor="middle" x="743.5" y="-7" font-family="Helvetica,sans-Serif" font-size="10.00">/tic_tac_toe_factory.cpp</text>
</a>
</g>
</g>
<!-- Node2&#45;&gt;Node3 -->
<g id="edge2_Node000002_Node000003" class="edge">
<title>Node2&#45;&gt;Node3</title>
<g id="a_edge2_Node000002_Node000003"><a xlink:title=" ">
<path fill="none" stroke="#63b8ff" d="M585.23,-147.56C596.97,-138.4 609.5,-128.12 620.5,-118 638.79,-101.18 639.51,-93.02 658.5,-77 674.26,-63.7 693.37,-50.97 709.47,-41.06"/>
<polygon fill="#63b8ff" stroke="#63b8ff" points="583.03,-144.84 577.25,-153.72 587.31,-150.38 583.03,-144.84"/>
</a>
</g>
</g>
<!-- Node4 -->
<g id="Node000004" class="node">
<title>Node4</title>
<g id="a_Node000004"><a xlink:href="main_8cpp.html" target="_top" xlink:title=" ">
<polygon fill="white" stroke="#666666" points="611.5,-112.5 473.5,-112.5 473.5,-82.5 611.5,-82.5 611.5,-112.5"/>
<text text-anchor="start" x="481.5" y="-100.5" font-family="Helvetica,sans-Serif" font-size="10.00">examples/monte_carlo</text>
<text text-anchor="middle" x="542.5" y="-89.5" font-family="Helvetica,sans-Serif" font-size="10.00">/tic_tac_toe/src/main.cpp</text>
</a>
</g>
</g>
<!-- Node2&#45;&gt;Node4 -->
<g id="edge3_Node000002_Node000004" class="edge">
<title>Node2&#45;&gt;Node4</title>
<g id="a_edge3_Node000002_Node000004"><a xlink:title=" ">
<path fill="none" stroke="#63b8ff" d="M542.5,-143.81C542.5,-132.95 542.5,-121.59 542.5,-112.96"/>
<polygon fill="#63b8ff" stroke="#63b8ff" points="539,-143.97 542.5,-153.97 546,-143.97 539,-143.97"/>
</a>
</g>
</g>
<!-- Node5 -->
<g id="Node000005" class="node">
<title>Node5</title>
<g id="a_Node000005"><a xlink:href="bot_8cpp.html" target="_top" xlink:title=" ">
<polygon fill="white" stroke="#666666" points="129,-118 0,-118 0,-77 129,-77 129,-118"/>
<text text-anchor="start" x="8" y="-106" font-family="Helvetica,sans-Serif" font-size="10.00">examples/monte_carlo</text>
<text text-anchor="start" x="8" y="-95" font-family="Helvetica,sans-Serif" font-size="10.00">/tic_tac_toe/src/models</text>
<text text-anchor="middle" x="64.5" y="-84" font-family="Helvetica,sans-Serif" font-size="10.00">/bot.cpp</text>
</a>
</g>
</g>
<!-- Node2&#45;&gt;Node5 -->
<g id="edge4_Node000002_Node000005" class="edge">
<title>Node2&#45;&gt;Node5</title>
<g id="a_edge4_Node000002_Node000005"><a xlink:title=" ">
<path fill="none" stroke="#63b8ff" d="M468.3,-170.24C386.95,-160.06 252.75,-141.61 138.5,-118 135.51,-117.38 132.46,-116.72 129.38,-116.02"/>
<polygon fill="#63b8ff" stroke="#63b8ff" points="468.09,-173.74 478.45,-171.5 468.96,-166.79 468.09,-173.74"/>
</a>
</g>
</g>
<!-- Node6 -->
<g id="Node000006" class="node">
<title>Node6</title>
<g id="a_Node000006"><a xlink:href="state__tests_8cpp.html" target="_top" xlink:title=" ">
<polygon fill="white" stroke="#666666" points="281.5,-118 147.5,-118 147.5,-77 281.5,-77 281.5,-118"/>
<text text-anchor="start" x="155.5" y="-106" font-family="Helvetica,sans-Serif" font-size="10.00">examples/monte_carlo</text>
<text text-anchor="start" x="155.5" y="-95" font-family="Helvetica,sans-Serif" font-size="10.00">/tic_tac_toe/tests/model</text>
<text text-anchor="middle" x="214.5" y="-84" font-family="Helvetica,sans-Serif" font-size="10.00">_tests/state_tests.cpp</text>
</a>
</g>
</g>
<!-- Node2&#45;&gt;Node6 -->
<g id="edge5_Node000002_Node000006" class="edge">
<title>Node2&#45;&gt;Node6</title>
<g id="a_edge5_Node000002_Node000006"><a xlink:title=" ">
<path fill="none" stroke="#63b8ff" d="M468.68,-161.41C418.41,-149.37 350.38,-132.93 290.5,-118 287.59,-117.28 284.62,-116.53 281.62,-115.78"/>
<polygon fill="#63b8ff" stroke="#63b8ff" points="467.94,-164.83 478.49,-163.76 469.58,-158.03 467.94,-164.83"/>
</a>
</g>
</g>
<!-- Node7 -->
<g id="Node000007" class="node">
<title>Node7</title>
<g id="a_Node000007"><a xlink:href="simulation__tests_8cpp.html" target="_top" xlink:title=" ">
<polygon fill="white" stroke="#666666" points="455,-118 300,-118 300,-77 455,-77 455,-118"/>
<text text-anchor="start" x="308" y="-106" font-family="Helvetica,sans-Serif" font-size="10.00">examples/monte_carlo</text>
<text text-anchor="start" x="308" y="-95" font-family="Helvetica,sans-Serif" font-size="10.00">/tic_tac_toe/tests/simulation</text>
<text text-anchor="middle" x="377.5" y="-84" font-family="Helvetica,sans-Serif" font-size="10.00">_tests.cpp</text>
</a>
</g>
</g>
<!-- Node2&#45;&gt;Node7 -->
<g id="edge6_Node000002_Node000007" class="edge">
<title>Node2&#45;&gt;Node7</title>
<g id="a_edge6_Node000002_Node000007"><a xlink:title=" ">
<path fill="none" stroke="#63b8ff" d="M482.12,-149.54C460.59,-139.04 436.89,-127.48 417.5,-118.02"/>
<polygon fill="#63b8ff" stroke="#63b8ff" points="480.68,-152.73 491.2,-153.97 483.74,-146.44 480.68,-152.73"/>
</a>
</g>
</g>
<!-- Node8&#45;&gt;Node3 -->
<g id="edge8_Node000008_Node000003" class="edge">
<title>Node8&#45;&gt;Node3</title>
<g id="a_edge8_Node000008_Node000003"><a xlink:title=" ">
<path fill="none" stroke="#63b8ff" d="M743.5,-66.69C743.5,-58.08 743.5,-48.9 743.5,-41.07"/>
<polygon fill="#63b8ff" stroke="#63b8ff" points="740,-66.79 743.5,-76.79 747,-66.79 740,-66.79"/>
</a>
</g>
</g>
<!-- Node8&#45;&gt;Node9 -->
<g id="edge9_Node000008_Node000009" class="edge">
<title>Node8&#45;&gt;Node9</title>
<g id="a_edge9_Node000008_Node000009"><a xlink:title=" ">
<path fill="none" stroke="#63b8ff" d="M829.5,-74.56C875.26,-62.89 930.59,-48.77 972.68,-38.04"/>
<polygon fill="#63b8ff" stroke="#63b8ff" points="828.42,-71.22 819.59,-77.09 830.15,-78.01 828.42,-71.22"/>
</a>
</g>
</g>
<!-- Node10&#45;&gt;Node3 -->
<g id="edge11_Node000010_Node000003" class="edge">
<title>Node10&#45;&gt;Node3</title>
<g id="a_edge11_Node000010_Node000003"><a xlink:title=" ">
<path fill="none" stroke="#63b8ff" d="M912.74,-153.63C897.78,-143.22 880.85,-130.66 866.5,-118 847.87,-101.56 847.49,-93.02 828.5,-77 812.74,-63.7 793.63,-50.97 777.53,-41.06"/>
<polygon fill="#63b8ff" stroke="#63b8ff" points="911.06,-156.73 921.28,-159.5 915.02,-150.95 911.06,-156.73"/>
</a>
</g>
</g>
<!-- Node11 -->
<g id="Node000011" class="node">
<title>Node11</title>
<g id="a_Node000011"><a xlink:href="position_8cpp.html" target="_top" xlink:title=" ">
<polygon fill="white" stroke="#666666" points="1005,-118 876,-118 876,-77 1005,-77 1005,-118"/>
<text text-anchor="start" x="884" y="-106" font-family="Helvetica,sans-Serif" font-size="10.00">examples/monte_carlo</text>
<text text-anchor="start" x="884" y="-95" font-family="Helvetica,sans-Serif" font-size="10.00">/tic_tac_toe/src/models</text>
<text text-anchor="middle" x="940.5" y="-84" font-family="Helvetica,sans-Serif" font-size="10.00">/position.cpp</text>
</a>
</g>
</g>
<!-- Node10&#45;&gt;Node11 -->
<g id="edge12_Node000010_Node000011" class="edge">
<title>Node10&#45;&gt;Node11</title>
<g id="a_edge12_Node000010_Node000011"><a xlink:title=" ">
<path fill="none" stroke="#63b8ff" d="M947.43,-149.19C946.01,-138.84 944.46,-127.5 943.19,-118.17"/>
<polygon fill="#63b8ff" stroke="#63b8ff" points="943.96,-149.67 948.78,-159.1 950.89,-148.72 943.96,-149.67"/>
</a>
</g>
</g>
<!-- Node10&#45;&gt;Node12 -->
<g id="edge13_Node000010_Node000012" class="edge">
<title>Node10&#45;&gt;Node12</title>
<g id="a_edge13_Node000010_Node000012"><a xlink:title=" ">
<path fill="none" stroke="#63b8ff" d="M993.46,-154.16C1012.95,-142.63 1035.81,-129.1 1054.1,-118.27"/>
<polygon fill="#63b8ff" stroke="#63b8ff" points="991.59,-151.2 984.77,-159.31 995.16,-157.23 991.59,-151.2"/>
</a>
</g>
</g>
<!-- Node13&#45;&gt;Node8 -->
<g id="edge17_Node000013_Node000008" class="edge">
<title>Node13&#45;&gt;Node8</title>
<g id="a_edge17_Node000013_Node000008"><a xlink:title=" ">
<path fill="none" stroke="#63b8ff" d="M780.88,-156.37C773.1,-144.32 763.62,-129.65 756.15,-118.09"/>
<polygon fill="#63b8ff" stroke="#63b8ff" points="778.08,-158.48 786.44,-164.98 783.96,-154.68 778.08,-158.48"/>
</a>
</g>
</g>
<!-- Node14&#45;&gt;Node2 -->
<g id="edge19_Node000014_Node000002" class="edge">
<title>Node14&#45;&gt;Node2</title>
<g id="a_edge19_Node000014_Node000002"><a xlink:title=" ">
<path fill="none" stroke="#63b8ff" d="M803.33,-240.1C745.14,-226.92 663.1,-208.33 606.65,-195.53"/>
<polygon fill="#63b8ff" stroke="#63b8ff" points="802.65,-243.53 813.17,-242.33 804.2,-236.71 802.65,-243.53"/>
</a>
</g>
</g>
<!-- Node14&#45;&gt;Node10 -->
<g id="edge20_Node000014_Node000010" class="edge">
<title>Node14&#45;&gt;Node10</title>
<g id="a_edge20_Node000014_Node000010"><a xlink:title=" ">
<path fill="none" stroke="#63b8ff" d="M895.46,-234.88C906.61,-224.16 920.07,-211.22 931.01,-200.7"/>
<polygon fill="#63b8ff" stroke="#63b8ff" points="892.95,-232.44 888.17,-241.89 897.81,-237.48 892.95,-232.44"/>
</a>
</g>
</g>
<!-- Node14&#45;&gt;Node13 -->
<g id="edge21_Node000014_Node000013" class="edge">
<title>Node14&#45;&gt;Node13</title>
<g id="a_edge21_Node000014_Node000013"><a xlink:title=" ">
<path fill="none" stroke="#63b8ff" d="M851.47,-234.82C838.23,-222.08 821.74,-206.24 810.11,-195.04"/>
<polygon fill="#63b8ff" stroke="#63b8ff" points="849.19,-237.48 858.83,-241.89 854.05,-232.44 849.19,-237.48"/>
</a>
</g>
</g>
</g>
</svg>
