<?xml version="1.0" encoding="UTF-8" standalone="no"?>
<!DOCTYPE svg PUBLIC "-//W3C//DTD SVG 1.1//EN"
 "http://www.w3.org/Graphics/SVG/1.1/DTD/svg11.dtd">
<!-- Generated by graphviz version 2.43.0 (0)
 -->
<!-- Title: src/monte_carlo/tree_search_algorithm.cpp Pages: 1 -->
<svg width="362pt" height="357pt"
 viewBox="0.00 0.00 361.79 357.00" xmlns="http://www.w3.org/2000/svg" xmlns:xlink="http://www.w3.org/1999/xlink">
<g id="graph0" class="graph" transform="scale(1 1) rotate(0) translate(4 353)">
<title>src/monte_carlo/tree_search_algorithm.cpp</title>
<!-- Node1 -->
<g id="Node000001" class="node">
<title>Node1</title>
<g id="a_Node000001"><a xlink:title=" ">
<polygon fill="#999999" stroke="#666666" points="268.29,-349 141.29,-349 141.29,-319 268.29,-319 268.29,-349"/>
<text text-anchor="start" x="149.29" y="-337" font-family="Helvetica,sans-Serif" font-size="10.00">src/monte_carlo/tree</text>
<text text-anchor="middle" x="204.79" y="-326" font-family="Helvetica,sans-Serif" font-size="10.00">_search_algorithm.cpp</text>
</a>
</g>
</g>
<!-- Node2 -->
<g id="Node000002" class="node">
<title>Node2</title>
<g id="a_Node000002"><a xlink:href="tree__search__algorithm_8h.html" target="_top" xlink:title=" ">
<polygon fill="white" stroke="#666666" points="225.29,-283 88.29,-283 88.29,-253 225.29,-253 225.29,-283"/>
<text text-anchor="start" x="96.29" y="-271" font-family="Helvetica,sans-Serif" font-size="10.00">monte_carlo/tree_search</text>
<text text-anchor="middle" x="156.79" y="-260" font-family="Helvetica,sans-Serif" font-size="10.00">_algorithm.h</text>
</a>
</g>
</g>
<!-- Node1&#45;&gt;Node2 -->
<g id="edge1_Node000001_Node000002" class="edge">
<title>Node1&#45;&gt;Node2</title>
<g id="a_edge1_Node000001_Node000002"><a xlink:title=" ">
<path fill="none" stroke="#63b8ff" d="M194.13,-318.8C188.11,-310.76 180.43,-300.53 173.61,-291.43"/>
<polygon fill="#63b8ff" stroke="#63b8ff" points="176.21,-289.06 167.41,-283.16 170.61,-293.26 176.21,-289.06"/>
</a>
</g>
</g>
<!-- Node3 -->
<g id="Node000003" class="node">
<title>Node3</title>
<g id="a_Node000003"><a xlink:href="node_8h.html" target="_top" xlink:title=" ">
<polygon fill="white" stroke="#666666" points="117.79,-217 1.79,-217 1.79,-187 117.79,-187 117.79,-217"/>
<text text-anchor="start" x="9.79" y="-205" font-family="Helvetica,sans-Serif" font-size="10.00">monte_carlo/models</text>
<text text-anchor="middle" x="59.79" y="-194" font-family="Helvetica,sans-Serif" font-size="10.00">/node.h</text>
</a>
</g>
</g>
<!-- Node1&#45;&gt;Node3 -->
<g id="edge13_Node000001_Node000003" class="edge">
<title>Node1&#45;&gt;Node3</title>
<g id="a_edge13_Node000001_Node000003"><a xlink:title=" ">
<path fill="none" stroke="#63b8ff" d="M141.21,-320.63C118.6,-313.23 94.8,-301.51 78.79,-283 65.49,-267.62 61.1,-244.59 59.83,-227.18"/>
<polygon fill="#63b8ff" stroke="#63b8ff" points="63.33,-227.03 59.39,-217.19 56.34,-227.33 63.33,-227.03"/>
</a>
</g>
</g>
<!-- Node5 -->
<g id="Node000005" class="node">
<title>Node5</title>
<g id="a_Node000005"><a xlink:href="action_8h.html" target="_top" xlink:title=" ">
<polygon fill="white" stroke="#666666" points="237.79,-85 121.79,-85 121.79,-55 237.79,-55 237.79,-85"/>
<text text-anchor="start" x="129.79" y="-73" font-family="Helvetica,sans-Serif" font-size="10.00">monte_carlo/models</text>
<text text-anchor="middle" x="179.79" y="-62" font-family="Helvetica,sans-Serif" font-size="10.00">/action.h</text>
</a>
</g>
</g>
<!-- Node1&#45;&gt;Node5 -->
<g id="edge14_Node000001_Node000005" class="edge">
<title>Node1&#45;&gt;Node5</title>
<g id="a_edge14_Node000001_Node000005"><a xlink:title=" ">
<path fill="none" stroke="#63b8ff" d="M216.27,-318.66C223.12,-309.16 231.17,-296.07 234.79,-283 254.01,-213.61 263.92,-186.85 234.79,-121 229.65,-109.38 220.33,-99.31 210.81,-91.3"/>
<polygon fill="#63b8ff" stroke="#63b8ff" points="212.88,-88.48 202.84,-85.08 208.57,-94 212.88,-88.48"/>
</a>
</g>
</g>
<!-- Node8 -->
<g id="Node000008" class="node">
<title>Node8</title>
<g id="a_Node000008"><a xlink:title=" ">
<polygon fill="#e0e0e0" stroke="#999999" points="353.79,-79.5 293.79,-79.5 293.79,-60.5 353.79,-60.5 353.79,-79.5"/>
<text text-anchor="middle" x="323.79" y="-67.5" font-family="Helvetica,sans-Serif" font-size="10.00">iostream</text>
</a>
</g>
</g>
<!-- Node1&#45;&gt;Node8 -->
<g id="edge15_Node000001_Node000008" class="edge">
<title>Node1&#45;&gt;Node8</title>
<g id="a_edge15_Node000001_Node000008"><a xlink:title=" ">
<path fill="none" stroke="#63b8ff" d="M221.88,-318.74C232.06,-309.46 244.57,-296.59 252.79,-283 292.12,-217.99 312.81,-128.45 320.38,-89.9"/>
<polygon fill="#63b8ff" stroke="#63b8ff" points="323.89,-90.13 322.31,-79.66 317.02,-88.83 323.89,-90.13"/>
</a>
</g>
</g>
<!-- Node2&#45;&gt;Node3 -->
<g id="edge2_Node000002_Node000003" class="edge">
<title>Node2&#45;&gt;Node3</title>
<g id="a_edge2_Node000002_Node000003"><a xlink:title=" ">
<path fill="none" stroke="#63b8ff" d="M135.26,-252.8C121.95,-244.01 104.66,-232.61 89.99,-222.93"/>
<polygon fill="#63b8ff" stroke="#63b8ff" points="91.53,-219.75 81.25,-217.16 87.67,-225.59 91.53,-219.75"/>
</a>
</g>
</g>
<!-- Node4 -->
<g id="Node000004" class="node">
<title>Node4</title>
<g id="a_Node000004"><a xlink:href="rollout__strategy__interface_8h.html" target="_top" xlink:title=" ">
<polygon fill="white" stroke="#666666" points="225.29,-151 70.29,-151 70.29,-121 225.29,-121 225.29,-151"/>
<text text-anchor="start" x="78.29" y="-139" font-family="Helvetica,sans-Serif" font-size="10.00">monte_carlo/models</text>
<text text-anchor="middle" x="147.79" y="-128" font-family="Helvetica,sans-Serif" font-size="10.00">/rollout_strategy_interface.h</text>
</a>
</g>
</g>
<!-- Node3&#45;&gt;Node4 -->
<g id="edge3_Node000003_Node000004" class="edge">
<title>Node3&#45;&gt;Node4</title>
<g id="a_edge3_Node000003_Node000004"><a xlink:title=" ">
<path fill="none" stroke="#63b8ff" d="M79.32,-186.8C91.28,-178.1 106.78,-166.82 120.01,-157.2"/>
<polygon fill="#63b8ff" stroke="#63b8ff" points="122.28,-159.88 128.31,-151.16 118.17,-154.22 122.28,-159.88"/>
</a>
</g>
</g>
<!-- Node6 -->
<g id="Node000006" class="node">
<title>Node6</title>
<g id="a_Node000006"><a xlink:title=" ">
<polygon fill="#e0e0e0" stroke="#999999" points="122.79,-19 64.79,-19 64.79,0 122.79,0 122.79,-19"/>
<text text-anchor="middle" x="93.79" y="-7" font-family="Helvetica,sans-Serif" font-size="10.00">memory</text>
</a>
</g>
</g>
<!-- Node3&#45;&gt;Node6 -->
<g id="edge12_Node000003_Node000006" class="edge">
<title>Node3&#45;&gt;Node6</title>
<g id="a_edge12_Node000003_Node000006"><a xlink:title=" ">
<path fill="none" stroke="#63b8ff" d="M47.17,-186.88C24.57,-159.8 -18.04,-99.33 8.79,-55 18.98,-38.17 37.86,-27.39 55.24,-20.67"/>
<polygon fill="#63b8ff" stroke="#63b8ff" points="56.42,-23.97 64.68,-17.34 54.09,-17.37 56.42,-23.97"/>
</a>
</g>
</g>
<!-- Node9 -->
<g id="Node000009" class="node">
<title>Node9</title>
<g id="a_Node000009"><a xlink:title=" ">
<polygon fill="#e0e0e0" stroke="#999999" points="65.29,-79.5 18.29,-79.5 18.29,-60.5 65.29,-60.5 65.29,-79.5"/>
<text text-anchor="middle" x="41.79" y="-67.5" font-family="Helvetica,sans-Serif" font-size="10.00">vector</text>
</a>
</g>
</g>
<!-- Node3&#45;&gt;Node9 -->
<g id="edge11_Node000003_Node000009" class="edge">
<title>Node3&#45;&gt;Node9</title>
<g id="a_edge11_Node000003_Node000009"><a xlink:title=" ">
<path fill="none" stroke="#63b8ff" d="M57.83,-186.84C54.57,-163.34 48.05,-116.26 44.41,-89.93"/>
<polygon fill="#63b8ff" stroke="#63b8ff" points="47.84,-89.17 43,-79.75 40.9,-90.13 47.84,-89.17"/>
</a>
</g>
</g>
<!-- Node4&#45;&gt;Node5 -->
<g id="edge4_Node000004_Node000005" class="edge">
<title>Node4&#45;&gt;Node5</title>
<g id="a_edge4_Node000004_Node000005"><a xlink:title=" ">
<path fill="none" stroke="#63b8ff" d="M154.89,-120.8C158.78,-113.01 163.71,-103.16 168.15,-94.28"/>
<polygon fill="#63b8ff" stroke="#63b8ff" points="171.36,-95.67 172.71,-85.16 165.1,-92.54 171.36,-95.67"/>
</a>
</g>
</g>
<!-- Node4&#45;&gt;Node6 -->
<g id="edge8_Node000004_Node000006" class="edge">
<title>Node4&#45;&gt;Node6</title>
<g id="a_edge8_Node000004_Node000006"><a xlink:title=" ">
<path fill="none" stroke="#63b8ff" d="M135.89,-120.97C128.3,-111.39 118.8,-98.1 112.79,-85 104.46,-66.84 99.37,-44.45 96.59,-28.98"/>
<polygon fill="#63b8ff" stroke="#63b8ff" points="100.04,-28.4 94.95,-19.1 93.13,-29.54 100.04,-28.4"/>
</a>
</g>
</g>
<!-- Node7 -->
<g id="Node000007" class="node">
<title>Node7</title>
<g id="a_Node000007"><a xlink:title=" ">
<polygon fill="#e0e0e0" stroke="#999999" points="251.29,-19 194.29,-19 194.29,0 251.29,0 251.29,-19"/>
<text text-anchor="middle" x="222.79" y="-7" font-family="Helvetica,sans-Serif" font-size="10.00">ostream</text>
</a>
</g>
</g>
<!-- Node4&#45;&gt;Node7 -->
<g id="edge9_Node000004_Node000007" class="edge">
<title>Node4&#45;&gt;Node7</title>
<g id="a_edge9_Node000004_Node000007"><a xlink:title=" ">
<path fill="none" stroke="#63b8ff" d="M200.21,-120.98C218.16,-113.4 236.34,-101.97 246.79,-85 257.86,-67 246.63,-43.39 236.1,-27.61"/>
<polygon fill="#63b8ff" stroke="#63b8ff" points="238.84,-25.42 230.16,-19.34 233.15,-29.5 238.84,-25.42"/>
</a>
</g>
</g>
<!-- Node4&#45;&gt;Node8 -->
<g id="edge7_Node000004_Node000008" class="edge">
<title>Node4&#45;&gt;Node8</title>
<g id="a_edge7_Node000004_Node000008"><a xlink:title=" ">
<path fill="none" stroke="#63b8ff" d="M186.41,-120.95C217.69,-109.58 261.26,-93.74 290.89,-82.96"/>
<polygon fill="#63b8ff" stroke="#63b8ff" points="292.16,-86.22 300.37,-79.52 289.77,-79.65 292.16,-86.22"/>
</a>
</g>
</g>
<!-- Node4&#45;&gt;Node9 -->
<g id="edge10_Node000004_Node000009" class="edge">
<title>Node4&#45;&gt;Node9</title>
<g id="a_edge10_Node000004_Node000009"><a xlink:title=" ">
<path fill="none" stroke="#63b8ff" d="M124.53,-120.95C106.67,-110.18 82.16,-95.38 64.46,-84.69"/>
<polygon fill="#63b8ff" stroke="#63b8ff" points="66.26,-81.69 55.89,-79.52 62.65,-87.68 66.26,-81.69"/>
</a>
</g>
</g>
<!-- Node5&#45;&gt;Node6 -->
<g id="edge5_Node000005_Node000006" class="edge">
<title>Node5&#45;&gt;Node6</title>
<g id="a_edge5_Node000005_Node000006"><a xlink:title=" ">
<path fill="none" stroke="#63b8ff" d="M158.97,-54.84C145.64,-45.77 128.4,-34.04 114.99,-24.92"/>
<polygon fill="#63b8ff" stroke="#63b8ff" points="116.66,-21.83 106.42,-19.09 112.72,-27.61 116.66,-21.83"/>
</a>
</g>
</g>
<!-- Node5&#45;&gt;Node7 -->
<g id="edge6_Node000005_Node000007" class="edge">
<title>Node5&#45;&gt;Node7</title>
<g id="a_edge6_Node000005_Node000007"><a xlink:title=" ">
<path fill="none" stroke="#63b8ff" d="M190.2,-54.84C196.25,-46.61 203.91,-36.18 210.29,-27.51"/>
<polygon fill="#63b8ff" stroke="#63b8ff" points="213.24,-29.4 216.34,-19.27 207.6,-25.25 213.24,-29.4"/>
</a>
</g>
</g>
</g>
</svg>
