<?xml version="1.0" encoding="UTF-8" standalone="no"?>
<!DOCTYPE svg PUBLIC "-//W3C//DTD SVG 1.1//EN"
 "http://www.w3.org/Graphics/SVG/1.1/DTD/svg11.dtd">
<!-- Generated by graphviz version 2.43.0 (0)
 -->
<!-- Title: include/monte_carlo/tree_search_algorithm.h Pages: 1 -->
<svg width="365pt" height="291pt"
 viewBox="0.00 0.00 365.49 291.00" xmlns="http://www.w3.org/2000/svg" xmlns:xlink="http://www.w3.org/1999/xlink">

<svg id="main" version="1.1" xmlns="http://www.w3.org/2000/svg" xmlns:xlink="http://www.w3.org/1999/xlink" xml:space="preserve" onload="init(evt)">
<style type="text/css"><![CDATA[
.node, .edge {opacity: 0.7;}
.node.selected, .edge.selected {opacity: 1;}
.edge:hover path { stroke: red; }
.edge:hover polygon { stroke: red; fill: red; }
]]></style>
<script type="application/ecmascript" xlink:href="svg.min.js"/>
<svg id="graph" class="graph">
<g id="graph0" class="graph" transform="scale(1 1) rotate(0) translate(4 287)">
<title>include/monte_carlo/tree_search_algorithm.h</title>
<!-- Node1 -->
<g id="Node000001" class="node">
<title>Node1</title>
<g id="a_Node000001"><a xlink:title=" ">
<polygon fill="#999999" stroke="#666666" points="357.49,-283 219.49,-283 219.49,-253 357.49,-253 357.49,-283"/>
<text text-anchor="start" x="227.49" y="-271" font-family="Helvetica,sans-Serif" font-size="10.00">include/monte_carlo</text>
<text text-anchor="middle" x="288.49" y="-260" font-family="Helvetica,sans-Serif" font-size="10.00">/tree_search_algorithm.h</text>
</a>
</g>
</g>
<!-- Node2 -->
<g id="Node000002" class="node">
<title>Node2</title>
<g id="a_Node000002"><a xlink:href="node_8h.html" target="_top" xlink:title=" ">
<polygon fill="white" stroke="#666666" points="346.49,-217 230.49,-217 230.49,-187 346.49,-187 346.49,-217"/>
<text text-anchor="start" x="238.49" y="-205" font-family="Helvetica,sans-Serif" font-size="10.00">monte_carlo/models</text>
<text text-anchor="middle" x="288.49" y="-194" font-family="Helvetica,sans-Serif" font-size="10.00">/node.h</text>
</a>
</g>
</g>
<!-- Node1&#45;&gt;Node2 -->
<g id="edge1_Node000001_Node000002" class="edge">
<title>Node1&#45;&gt;Node2</title>
<g id="a_edge1_Node000001_Node000002"><a xlink:title=" ">
<path fill="none" stroke="#63b8ff" d="M288.49,-252.8C288.49,-245.34 288.49,-235.99 288.49,-227.41"/>
<polygon fill="#63b8ff" stroke="#63b8ff" points="291.99,-227.16 288.49,-217.16 284.99,-227.16 291.99,-227.16"/>
</a>
</g>
</g>
<!-- Node3 -->
<g id="Node000003" class="node">
<title>Node3</title>
<g id="a_Node000003"><a xlink:href="rollout__strategy__interface_8h.html" target="_top" xlink:title=" ">
<polygon fill="white" stroke="#666666" points="243.99,-151 88.99,-151 88.99,-121 243.99,-121 243.99,-151"/>
<text text-anchor="start" x="96.99" y="-139" font-family="Helvetica,sans-Serif" font-size="10.00">monte_carlo/models</text>
<text text-anchor="middle" x="166.49" y="-128" font-family="Helvetica,sans-Serif" font-size="10.00">/rollout_strategy_interface.h</text>
</a>
</g>
</g>
<!-- Node2&#45;&gt;Node3 -->
<g id="edge2_Node000002_Node000003" class="edge">
<title>Node2&#45;&gt;Node3</title>
<g id="a_edge2_Node000002_Node000003"><a xlink:title=" ">
<path fill="none" stroke="#63b8ff" d="M261.71,-186.95C244.23,-177.78 221.21,-165.71 202.18,-155.72"/>
<polygon fill="#63b8ff" stroke="#63b8ff" points="203.68,-152.56 193.2,-151.01 200.43,-158.76 203.68,-152.56"/>
</a>
</g>
</g>
<!-- Node5 -->
<g id="Node000005" class="node">
<title>Node5</title>
<g id="a_Node000005"><a xlink:title=" ">
<polygon fill="#e0e0e0" stroke="#999999" points="265.49,-19 207.49,-19 207.49,0 265.49,0 265.49,-19"/>
<text text-anchor="middle" x="236.49" y="-7" font-family="Helvetica,sans-Serif" font-size="10.00">memory</text>
</a>
</g>
</g>
<!-- Node2&#45;&gt;Node5 -->
<g id="edge11_Node000002_Node000005" class="edge">
<title>Node2&#45;&gt;Node5</title>
<g id="a_edge11_Node000002_Node000005"><a xlink:title=" ">
<path fill="none" stroke="#63b8ff" d="M298.22,-186.62C315.51,-159.1 347.46,-97.91 321.49,-55 311.3,-38.17 292.42,-27.39 275.03,-20.67"/>
<polygon fill="#63b8ff" stroke="#63b8ff" points="276.19,-17.37 265.59,-17.34 273.86,-23.97 276.19,-17.37"/>
</a>
</g>
</g>
<!-- Node8 -->
<g id="Node000008" class="node">
<title>Node8</title>
<g id="a_Node000008"><a xlink:title=" ">
<polygon fill="#e0e0e0" stroke="#999999" points="311.99,-79.5 264.99,-79.5 264.99,-60.5 311.99,-60.5 311.99,-79.5"/>
<text text-anchor="middle" x="288.49" y="-67.5" font-family="Helvetica,sans-Serif" font-size="10.00">vector</text>
</a>
</g>
</g>
<!-- Node2&#45;&gt;Node8 -->
<g id="edge10_Node000002_Node000008" class="edge">
<title>Node2&#45;&gt;Node8</title>
<g id="a_edge10_Node000002_Node000008"><a xlink:title=" ">
<path fill="none" stroke="#63b8ff" d="M288.49,-186.84C288.49,-163.34 288.49,-116.26 288.49,-89.93"/>
<polygon fill="#63b8ff" stroke="#63b8ff" points="291.99,-89.75 288.49,-79.75 284.99,-89.75 291.99,-89.75"/>
</a>
</g>
</g>
<!-- Node4 -->
<g id="Node000004" class="node">
<title>Node4</title>
<g id="a_Node000004"><a xlink:href="action_8h.html" target="_top" xlink:title=" ">
<polygon fill="white" stroke="#666666" points="208.49,-85 92.49,-85 92.49,-55 208.49,-55 208.49,-85"/>
<text text-anchor="start" x="100.49" y="-73" font-family="Helvetica,sans-Serif" font-size="10.00">monte_carlo/models</text>
<text text-anchor="middle" x="150.49" y="-62" font-family="Helvetica,sans-Serif" font-size="10.00">/action.h</text>
</a>
</g>
</g>
<!-- Node3&#45;&gt;Node4 -->
<g id="edge3_Node000003_Node000004" class="edge">
<title>Node3&#45;&gt;Node4</title>
<g id="a_edge3_Node000003_Node000004"><a xlink:title=" ">
<path fill="none" stroke="#63b8ff" d="M162.94,-120.8C161.05,-113.26 158.68,-103.78 156.52,-95.13"/>
<polygon fill="#63b8ff" stroke="#63b8ff" points="159.85,-94.02 154.03,-85.16 153.06,-95.71 159.85,-94.02"/>
</a>
</g>
</g>
<!-- Node3&#45;&gt;Node5 -->
<g id="edge7_Node000003_Node000005" class="edge">
<title>Node3&#45;&gt;Node5</title>
<g id="a_edge7_Node000003_Node000005"><a xlink:title=" ">
<path fill="none" stroke="#63b8ff" d="M185.29,-120.95C196.22,-111.84 209.38,-99.08 217.49,-85 227.46,-67.69 232.26,-45.15 234.54,-29.42"/>
<polygon fill="#63b8ff" stroke="#63b8ff" points="238.03,-29.69 235.78,-19.34 231.08,-28.83 238.03,-29.69"/>
</a>
</g>
</g>
<!-- Node6 -->
<g id="Node000006" class="node">
<title>Node6</title>
<g id="a_Node000006"><a xlink:title=" ">
<polygon fill="#e0e0e0" stroke="#999999" points="96.99,-19 39.99,-19 39.99,0 96.99,0 96.99,-19"/>
<text text-anchor="middle" x="68.49" y="-7" font-family="Helvetica,sans-Serif" font-size="10.00">ostream</text>
</a>
</g>
</g>
<!-- Node3&#45;&gt;Node6 -->
<g id="edge8_Node000003_Node000006" class="edge">
<title>Node3&#45;&gt;Node6</title>
<g id="a_edge8_Node000003_Node000006"><a xlink:title=" ">
<path fill="none" stroke="#63b8ff" d="M88.59,-130.22C57.58,-124.03 24.75,-111.16 5.49,-85 -2.42,-74.26 -0.65,-66.84 5.49,-55 12.52,-41.41 25.83,-31.09 38.41,-23.82"/>
<polygon fill="#63b8ff" stroke="#63b8ff" points="40.15,-26.86 47.34,-19.07 36.87,-20.68 40.15,-26.86"/>
</a>
</g>
</g>
<!-- Node7 -->
<g id="Node000007" class="node">
<title>Node7</title>
<g id="a_Node000007"><a xlink:title=" ">
<polygon fill="#e0e0e0" stroke="#999999" points="74.49,-79.5 14.49,-79.5 14.49,-60.5 74.49,-60.5 74.49,-79.5"/>
<text text-anchor="middle" x="44.49" y="-67.5" font-family="Helvetica,sans-Serif" font-size="10.00">iostream</text>
</a>
</g>
</g>
<!-- Node3&#45;&gt;Node7 -->
<g id="edge6_Node000003_Node000007" class="edge">
<title>Node3&#45;&gt;Node7</title>
<g id="a_edge6_Node000003_Node000007"><a xlink:title=" ">
<path fill="none" stroke="#63b8ff" d="M139.71,-120.95C118.88,-110.03 90.18,-94.97 69.75,-84.25"/>
<polygon fill="#63b8ff" stroke="#63b8ff" points="71.2,-81.06 60.72,-79.52 67.95,-87.26 71.2,-81.06"/>
</a>
</g>
</g>
<!-- Node3&#45;&gt;Node8 -->
<g id="edge9_Node000003_Node000008" class="edge">
<title>Node3&#45;&gt;Node8</title>
<g id="a_edge9_Node000003_Node000008"><a xlink:title=" ">
<path fill="none" stroke="#63b8ff" d="M193.26,-120.95C214.09,-110.03 242.79,-94.97 263.23,-84.25"/>
<polygon fill="#63b8ff" stroke="#63b8ff" points="265.02,-87.26 272.25,-79.52 261.77,-81.06 265.02,-87.26"/>
</a>
</g>
</g>
<!-- Node4&#45;&gt;Node5 -->
<g id="edge4_Node000004_Node000005" class="edge">
<title>Node4&#45;&gt;Node5</title>
<g id="a_edge4_Node000004_Node000005"><a xlink:title=" ">
<path fill="none" stroke="#63b8ff" d="M171.3,-54.84C184.63,-45.77 201.88,-34.04 215.28,-24.92"/>
<polygon fill="#63b8ff" stroke="#63b8ff" points="217.55,-27.61 223.85,-19.09 213.62,-21.83 217.55,-27.61"/>
</a>
</g>
</g>
<!-- Node4&#45;&gt;Node6 -->
<g id="edge5_Node000004_Node000006" class="edge">
<title>Node4&#45;&gt;Node6</title>
<g id="a_edge5_Node000004_Node000006"><a xlink:title=" ">
<path fill="none" stroke="#63b8ff" d="M130.64,-54.84C118.01,-45.83 101.68,-34.18 88.94,-25.09"/>
<polygon fill="#63b8ff" stroke="#63b8ff" points="90.95,-22.22 80.77,-19.27 86.88,-27.92 90.95,-22.22"/>
</a>
</g>
</g>
</g>
</svg>
</svg>

<style type='text/css'>
<![CDATA[
[data-mouse-over-selected='false'] { opacity: 0.7; }
[data-mouse-over-selected='true']  { opacity: 1.0; }
]]>
</style>
<script type="application/ecmascript"><![CDATA[
document.addEventListener('DOMContentLoaded', (event) => {
  highlightEdges();
  highlightAdjacentNodes();
});
]]></script>
</svg>
